M48
;DRILL file {KiCad 4.0.7} date 05/21/18 18:47:25
;FORMAT={-:-/ absolute / inch / decimal}
FMAT,2
INCH,TZ
T1C0.024
T2C0.039
T3C0.040
%
G90
G05
M72
T1
X5.53Y-5.07
X5.71Y-3.42
X5.71Y-3.94
X5.71Y-4.64
X5.72Y-2.95
T2
X6.375Y-1.6
X6.375Y-1.7
X6.375Y-1.8
X6.375Y-1.9
X6.375Y-2.
X6.375Y-2.1
X6.375Y-2.2
X6.375Y-2.3
X6.375Y-2.5
X6.375Y-2.6
X6.375Y-2.7
X6.375Y-2.8
X6.375Y-2.9
X6.375Y-3.
X6.375Y-3.1
X6.375Y-3.2
X6.375Y-3.3
X6.375Y-3.4
X6.375Y-3.5
X6.375Y-3.6
X6.375Y-3.7
X6.375Y-3.8
X6.375Y-4.
X6.375Y-4.1
X6.375Y-4.2
X6.375Y-4.3
X6.375Y-4.4
X6.375Y-4.5
X6.375Y-4.6
X6.375Y-4.7
X6.375Y-4.8
X6.375Y-4.9
X6.375Y-5.
X6.375Y-5.1
X6.375Y-5.2
X6.375Y-5.3
X6.375Y-5.4
X6.375Y-5.5
X6.375Y-5.6
X6.375Y-5.7
X6.375Y-5.8
X6.375Y-5.9
T3
X5.525Y-2.55
X5.525Y-2.65
X5.525Y-2.75
X5.525Y-2.85
X5.525Y-2.95
X5.525Y-3.05
X5.525Y-3.15
X5.525Y-3.25
X5.525Y-3.35
X5.525Y-3.45
X5.525Y-3.55
X5.525Y-3.65
X5.525Y-3.75
X5.525Y-3.85
X5.525Y-3.95
X5.525Y-4.05
X5.525Y-4.15
X5.525Y-4.25
X5.525Y-4.35
X5.525Y-4.45
X5.525Y-4.55
X5.525Y-4.65
X5.525Y-4.75
X5.525Y-4.85
X5.525Y-4.95
X5.625Y-2.55
X5.625Y-2.65
X5.625Y-2.75
X5.625Y-2.85
X5.625Y-2.95
X5.625Y-3.05
X5.625Y-3.15
X5.625Y-3.25
X5.625Y-3.35
X5.625Y-3.45
X5.625Y-3.55
X5.625Y-3.65
X5.625Y-3.75
X5.625Y-3.85
X5.625Y-3.95
X5.625Y-4.05
X5.625Y-4.15
X5.625Y-4.25
X5.625Y-4.35
X5.625Y-4.45
X5.625Y-4.55
X5.625Y-4.65
X5.625Y-4.75
X5.625Y-4.85
X5.625Y-4.95
T0
M30
