G04 #@! TF.FileFunction,Legend,Bot*
%FSLAX46Y46*%
G04 Gerber Fmt 4.6, Leading zero omitted, Abs format (unit mm)*
G04 Created by KiCad (PCBNEW 4.0.7) date 05/21/18 18:47:21*
%MOMM*%
%LPD*%
G01*
G04 APERTURE LIST*
%ADD10C,0.100000*%
%ADD11C,0.300000*%
%ADD12C,0.120000*%
%ADD13C,0.150000*%
G04 APERTURE END LIST*
D10*
D11*
X148398571Y-65885001D02*
X149898571Y-66242144D01*
X148827143Y-66527858D01*
X149898571Y-66813572D01*
X148398571Y-67170715D01*
X149898571Y-68385001D02*
X149112857Y-68385001D01*
X148970000Y-68313572D01*
X148898571Y-68170715D01*
X148898571Y-67885001D01*
X148970000Y-67742144D01*
X149827143Y-68385001D02*
X149898571Y-68242144D01*
X149898571Y-67885001D01*
X149827143Y-67742144D01*
X149684286Y-67670715D01*
X149541429Y-67670715D01*
X149398571Y-67742144D01*
X149327143Y-67885001D01*
X149327143Y-68242144D01*
X149255714Y-68385001D01*
X149898571Y-69099287D02*
X148898571Y-69099287D01*
X149184286Y-69099287D02*
X149041429Y-69170715D01*
X148970000Y-69242144D01*
X148898571Y-69385001D01*
X148898571Y-69527858D01*
X148898571Y-70027858D02*
X149898571Y-70027858D01*
X149041429Y-70027858D02*
X148970000Y-70099286D01*
X148898571Y-70242144D01*
X148898571Y-70456429D01*
X148970000Y-70599286D01*
X149112857Y-70670715D01*
X149898571Y-70670715D01*
X149898571Y-71385001D02*
X148898571Y-71385001D01*
X148398571Y-71385001D02*
X148470000Y-71313572D01*
X148541429Y-71385001D01*
X148470000Y-71456429D01*
X148398571Y-71385001D01*
X148541429Y-71385001D01*
X148898571Y-72099287D02*
X149898571Y-72099287D01*
X149041429Y-72099287D02*
X148970000Y-72170715D01*
X148898571Y-72313573D01*
X148898571Y-72527858D01*
X148970000Y-72670715D01*
X149112857Y-72742144D01*
X149898571Y-72742144D01*
X148898571Y-74099287D02*
X150112857Y-74099287D01*
X150255714Y-74027858D01*
X150327143Y-73956430D01*
X150398571Y-73813573D01*
X150398571Y-73599287D01*
X150327143Y-73456430D01*
X149827143Y-74099287D02*
X149898571Y-73956430D01*
X149898571Y-73670716D01*
X149827143Y-73527858D01*
X149755714Y-73456430D01*
X149612857Y-73385001D01*
X149184286Y-73385001D01*
X149041429Y-73456430D01*
X148970000Y-73527858D01*
X148898571Y-73670716D01*
X148898571Y-73956430D01*
X148970000Y-74099287D01*
X149755714Y-74813573D02*
X149827143Y-74885001D01*
X149898571Y-74813573D01*
X149827143Y-74742144D01*
X149755714Y-74813573D01*
X149898571Y-74813573D01*
X149327143Y-74813573D02*
X148470000Y-74742144D01*
X148398571Y-74813573D01*
X148470000Y-74885001D01*
X149327143Y-74813573D01*
X148398571Y-74813573D01*
X149898571Y-77813573D02*
X148398571Y-77813573D01*
X149470000Y-78313573D01*
X148398571Y-78813573D01*
X149898571Y-78813573D01*
X149898571Y-80170716D02*
X149112857Y-80170716D01*
X148970000Y-80099287D01*
X148898571Y-79956430D01*
X148898571Y-79670716D01*
X148970000Y-79527859D01*
X149827143Y-80170716D02*
X149898571Y-80027859D01*
X149898571Y-79670716D01*
X149827143Y-79527859D01*
X149684286Y-79456430D01*
X149541429Y-79456430D01*
X149398571Y-79527859D01*
X149327143Y-79670716D01*
X149327143Y-80027859D01*
X149255714Y-80170716D01*
X148898571Y-80742145D02*
X149898571Y-81099288D01*
X148898571Y-81456430D02*
X149898571Y-81099288D01*
X150255714Y-80956430D01*
X150327143Y-80885002D01*
X150398571Y-80742145D01*
X149827143Y-83742144D02*
X149898571Y-83599287D01*
X149898571Y-83313573D01*
X149827143Y-83170716D01*
X149684286Y-83099287D01*
X149112857Y-83099287D01*
X148970000Y-83170716D01*
X148898571Y-83313573D01*
X148898571Y-83599287D01*
X148970000Y-83742144D01*
X149112857Y-83813573D01*
X149255714Y-83813573D01*
X149398571Y-83099287D01*
X148898571Y-84456430D02*
X149898571Y-84456430D01*
X149041429Y-84456430D02*
X148970000Y-84527858D01*
X148898571Y-84670716D01*
X148898571Y-84885001D01*
X148970000Y-85027858D01*
X149112857Y-85099287D01*
X149898571Y-85099287D01*
X149827143Y-86456430D02*
X149898571Y-86313573D01*
X149898571Y-86027859D01*
X149827143Y-85885001D01*
X149755714Y-85813573D01*
X149612857Y-85742144D01*
X149184286Y-85742144D01*
X149041429Y-85813573D01*
X148970000Y-85885001D01*
X148898571Y-86027859D01*
X148898571Y-86313573D01*
X148970000Y-86456430D01*
X149898571Y-87313573D02*
X149827143Y-87170715D01*
X149755714Y-87099287D01*
X149612857Y-87027858D01*
X149184286Y-87027858D01*
X149041429Y-87099287D01*
X148970000Y-87170715D01*
X148898571Y-87313573D01*
X148898571Y-87527858D01*
X148970000Y-87670715D01*
X149041429Y-87742144D01*
X149184286Y-87813573D01*
X149612857Y-87813573D01*
X149755714Y-87742144D01*
X149827143Y-87670715D01*
X149898571Y-87527858D01*
X149898571Y-87313573D01*
X148898571Y-89099287D02*
X149898571Y-89099287D01*
X148898571Y-88456430D02*
X149684286Y-88456430D01*
X149827143Y-88527858D01*
X149898571Y-88670716D01*
X149898571Y-88885001D01*
X149827143Y-89027858D01*
X149755714Y-89099287D01*
X149898571Y-89813573D02*
X148898571Y-89813573D01*
X149184286Y-89813573D02*
X149041429Y-89885001D01*
X148970000Y-89956430D01*
X148898571Y-90099287D01*
X148898571Y-90242144D01*
X149898571Y-91385001D02*
X149112857Y-91385001D01*
X148970000Y-91313572D01*
X148898571Y-91170715D01*
X148898571Y-90885001D01*
X148970000Y-90742144D01*
X149827143Y-91385001D02*
X149898571Y-91242144D01*
X149898571Y-90885001D01*
X149827143Y-90742144D01*
X149684286Y-90670715D01*
X149541429Y-90670715D01*
X149398571Y-90742144D01*
X149327143Y-90885001D01*
X149327143Y-91242144D01*
X149255714Y-91385001D01*
X148898571Y-92742144D02*
X150112857Y-92742144D01*
X150255714Y-92670715D01*
X150327143Y-92599287D01*
X150398571Y-92456430D01*
X150398571Y-92242144D01*
X150327143Y-92099287D01*
X149827143Y-92742144D02*
X149898571Y-92599287D01*
X149898571Y-92313573D01*
X149827143Y-92170715D01*
X149755714Y-92099287D01*
X149612857Y-92027858D01*
X149184286Y-92027858D01*
X149041429Y-92099287D01*
X148970000Y-92170715D01*
X148898571Y-92313573D01*
X148898571Y-92599287D01*
X148970000Y-92742144D01*
X149827143Y-94027858D02*
X149898571Y-93885001D01*
X149898571Y-93599287D01*
X149827143Y-93456430D01*
X149684286Y-93385001D01*
X149112857Y-93385001D01*
X148970000Y-93456430D01*
X148898571Y-93599287D01*
X148898571Y-93885001D01*
X148970000Y-94027858D01*
X149112857Y-94099287D01*
X149255714Y-94099287D01*
X149398571Y-93385001D01*
X149898571Y-96099287D02*
X149827143Y-95956429D01*
X149755714Y-95885001D01*
X149612857Y-95813572D01*
X149184286Y-95813572D01*
X149041429Y-95885001D01*
X148970000Y-95956429D01*
X148898571Y-96099287D01*
X148898571Y-96313572D01*
X148970000Y-96456429D01*
X149041429Y-96527858D01*
X149184286Y-96599287D01*
X149612857Y-96599287D01*
X149755714Y-96527858D01*
X149827143Y-96456429D01*
X149898571Y-96313572D01*
X149898571Y-96099287D01*
X148898571Y-97242144D02*
X150398571Y-97242144D01*
X148970000Y-97242144D02*
X148898571Y-97385001D01*
X148898571Y-97670715D01*
X148970000Y-97813572D01*
X149041429Y-97885001D01*
X149184286Y-97956430D01*
X149612857Y-97956430D01*
X149755714Y-97885001D01*
X149827143Y-97813572D01*
X149898571Y-97670715D01*
X149898571Y-97385001D01*
X149827143Y-97242144D01*
X149827143Y-99170715D02*
X149898571Y-99027858D01*
X149898571Y-98742144D01*
X149827143Y-98599287D01*
X149684286Y-98527858D01*
X149112857Y-98527858D01*
X148970000Y-98599287D01*
X148898571Y-98742144D01*
X148898571Y-99027858D01*
X148970000Y-99170715D01*
X149112857Y-99242144D01*
X149255714Y-99242144D01*
X149398571Y-98527858D01*
X148898571Y-99885001D02*
X149898571Y-99885001D01*
X149041429Y-99885001D02*
X148970000Y-99956429D01*
X148898571Y-100099287D01*
X148898571Y-100313572D01*
X148970000Y-100456429D01*
X149112857Y-100527858D01*
X149898571Y-100527858D01*
X149327143Y-101242144D02*
X149327143Y-102385001D01*
X149827143Y-103027858D02*
X149898571Y-103170715D01*
X149898571Y-103456430D01*
X149827143Y-103599287D01*
X149684286Y-103670715D01*
X149612857Y-103670715D01*
X149470000Y-103599287D01*
X149398571Y-103456430D01*
X149398571Y-103242144D01*
X149327143Y-103099287D01*
X149184286Y-103027858D01*
X149112857Y-103027858D01*
X148970000Y-103099287D01*
X148898571Y-103242144D01*
X148898571Y-103456430D01*
X148970000Y-103599287D01*
X149898571Y-104527859D02*
X149827143Y-104385001D01*
X149755714Y-104313573D01*
X149612857Y-104242144D01*
X149184286Y-104242144D01*
X149041429Y-104313573D01*
X148970000Y-104385001D01*
X148898571Y-104527859D01*
X148898571Y-104742144D01*
X148970000Y-104885001D01*
X149041429Y-104956430D01*
X149184286Y-105027859D01*
X149612857Y-105027859D01*
X149755714Y-104956430D01*
X149827143Y-104885001D01*
X149898571Y-104742144D01*
X149898571Y-104527859D01*
X148898571Y-106313573D02*
X149898571Y-106313573D01*
X148898571Y-105670716D02*
X149684286Y-105670716D01*
X149827143Y-105742144D01*
X149898571Y-105885002D01*
X149898571Y-106099287D01*
X149827143Y-106242144D01*
X149755714Y-106313573D01*
X149898571Y-107027859D02*
X148898571Y-107027859D01*
X149184286Y-107027859D02*
X149041429Y-107099287D01*
X148970000Y-107170716D01*
X148898571Y-107313573D01*
X148898571Y-107456430D01*
X149827143Y-108599287D02*
X149898571Y-108456430D01*
X149898571Y-108170716D01*
X149827143Y-108027858D01*
X149755714Y-107956430D01*
X149612857Y-107885001D01*
X149184286Y-107885001D01*
X149041429Y-107956430D01*
X148970000Y-108027858D01*
X148898571Y-108170716D01*
X148898571Y-108456430D01*
X148970000Y-108599287D01*
X149827143Y-109813572D02*
X149898571Y-109670715D01*
X149898571Y-109385001D01*
X149827143Y-109242144D01*
X149684286Y-109170715D01*
X149112857Y-109170715D01*
X148970000Y-109242144D01*
X148898571Y-109385001D01*
X148898571Y-109670715D01*
X148970000Y-109813572D01*
X149112857Y-109885001D01*
X149255714Y-109885001D01*
X149398571Y-109170715D01*
X149898571Y-112313572D02*
X148398571Y-112313572D01*
X149827143Y-112313572D02*
X149898571Y-112170715D01*
X149898571Y-111885001D01*
X149827143Y-111742143D01*
X149755714Y-111670715D01*
X149612857Y-111599286D01*
X149184286Y-111599286D01*
X149041429Y-111670715D01*
X148970000Y-111742143D01*
X148898571Y-111885001D01*
X148898571Y-112170715D01*
X148970000Y-112313572D01*
X149827143Y-113599286D02*
X149898571Y-113456429D01*
X149898571Y-113170715D01*
X149827143Y-113027858D01*
X149684286Y-112956429D01*
X149112857Y-112956429D01*
X148970000Y-113027858D01*
X148898571Y-113170715D01*
X148898571Y-113456429D01*
X148970000Y-113599286D01*
X149112857Y-113670715D01*
X149255714Y-113670715D01*
X149398571Y-112956429D01*
X148898571Y-114170715D02*
X149898571Y-114527858D01*
X148898571Y-114885000D01*
X149827143Y-116027857D02*
X149898571Y-115885000D01*
X149898571Y-115599286D01*
X149827143Y-115456429D01*
X149684286Y-115385000D01*
X149112857Y-115385000D01*
X148970000Y-115456429D01*
X148898571Y-115599286D01*
X148898571Y-115885000D01*
X148970000Y-116027857D01*
X149112857Y-116099286D01*
X149255714Y-116099286D01*
X149398571Y-115385000D01*
X149898571Y-116956429D02*
X149827143Y-116813571D01*
X149684286Y-116742143D01*
X148398571Y-116742143D01*
X149898571Y-117742143D02*
X149827143Y-117599285D01*
X149755714Y-117527857D01*
X149612857Y-117456428D01*
X149184286Y-117456428D01*
X149041429Y-117527857D01*
X148970000Y-117599285D01*
X148898571Y-117742143D01*
X148898571Y-117956428D01*
X148970000Y-118099285D01*
X149041429Y-118170714D01*
X149184286Y-118242143D01*
X149612857Y-118242143D01*
X149755714Y-118170714D01*
X149827143Y-118099285D01*
X149898571Y-117956428D01*
X149898571Y-117742143D01*
X148898571Y-118885000D02*
X150398571Y-118885000D01*
X148970000Y-118885000D02*
X148898571Y-119027857D01*
X148898571Y-119313571D01*
X148970000Y-119456428D01*
X149041429Y-119527857D01*
X149184286Y-119599286D01*
X149612857Y-119599286D01*
X149755714Y-119527857D01*
X149827143Y-119456428D01*
X149898571Y-119313571D01*
X149898571Y-119027857D01*
X149827143Y-118885000D01*
X149898571Y-120242143D02*
X148898571Y-120242143D01*
X149041429Y-120242143D02*
X148970000Y-120313571D01*
X148898571Y-120456429D01*
X148898571Y-120670714D01*
X148970000Y-120813571D01*
X149112857Y-120885000D01*
X149898571Y-120885000D01*
X149112857Y-120885000D02*
X148970000Y-120956429D01*
X148898571Y-121099286D01*
X148898571Y-121313571D01*
X148970000Y-121456429D01*
X149112857Y-121527857D01*
X149898571Y-121527857D01*
X149827143Y-122813571D02*
X149898571Y-122670714D01*
X149898571Y-122385000D01*
X149827143Y-122242143D01*
X149684286Y-122170714D01*
X149112857Y-122170714D01*
X148970000Y-122242143D01*
X148898571Y-122385000D01*
X148898571Y-122670714D01*
X148970000Y-122813571D01*
X149112857Y-122885000D01*
X149255714Y-122885000D01*
X149398571Y-122170714D01*
X148898571Y-123527857D02*
X149898571Y-123527857D01*
X149041429Y-123527857D02*
X148970000Y-123599285D01*
X148898571Y-123742143D01*
X148898571Y-123956428D01*
X148970000Y-124099285D01*
X149112857Y-124170714D01*
X149898571Y-124170714D01*
X148898571Y-124670714D02*
X148898571Y-125242143D01*
X148398571Y-124885000D02*
X149684286Y-124885000D01*
X149827143Y-124956428D01*
X149898571Y-125099286D01*
X149898571Y-125242143D01*
X149755714Y-125742143D02*
X149827143Y-125813571D01*
X149898571Y-125742143D01*
X149827143Y-125670714D01*
X149755714Y-125742143D01*
X149898571Y-125742143D01*
X152448571Y-61135000D02*
X150948571Y-61135000D01*
X151448571Y-61635000D02*
X151448571Y-62206429D01*
X152448571Y-61849286D02*
X151162857Y-61849286D01*
X151020000Y-61920714D01*
X150948571Y-62063572D01*
X150948571Y-62206429D01*
X152377143Y-63777857D02*
X152448571Y-63920714D01*
X152448571Y-64206429D01*
X152377143Y-64349286D01*
X152234286Y-64420714D01*
X152162857Y-64420714D01*
X152020000Y-64349286D01*
X151948571Y-64206429D01*
X151948571Y-63992143D01*
X151877143Y-63849286D01*
X151734286Y-63777857D01*
X151662857Y-63777857D01*
X151520000Y-63849286D01*
X151448571Y-63992143D01*
X151448571Y-64206429D01*
X151520000Y-64349286D01*
X151448571Y-64920715D02*
X152448571Y-65277858D01*
X151448571Y-65635000D02*
X152448571Y-65277858D01*
X152805714Y-65135000D01*
X152877143Y-65063572D01*
X152948571Y-64920715D01*
X152448571Y-66206429D02*
X151448571Y-66206429D01*
X151591429Y-66206429D02*
X151520000Y-66277857D01*
X151448571Y-66420715D01*
X151448571Y-66635000D01*
X151520000Y-66777857D01*
X151662857Y-66849286D01*
X152448571Y-66849286D01*
X151662857Y-66849286D02*
X151520000Y-66920715D01*
X151448571Y-67063572D01*
X151448571Y-67277857D01*
X151520000Y-67420715D01*
X151662857Y-67492143D01*
X152448571Y-67492143D01*
X151448571Y-68206429D02*
X152948571Y-68206429D01*
X151520000Y-68206429D02*
X151448571Y-68349286D01*
X151448571Y-68635000D01*
X151520000Y-68777857D01*
X151591429Y-68849286D01*
X151734286Y-68920715D01*
X152162857Y-68920715D01*
X152305714Y-68849286D01*
X152377143Y-68777857D01*
X152448571Y-68635000D01*
X152448571Y-68349286D01*
X152377143Y-68206429D01*
X151448571Y-69349286D02*
X151448571Y-69920715D01*
X150948571Y-69563572D02*
X152234286Y-69563572D01*
X152377143Y-69635000D01*
X152448571Y-69777858D01*
X152448571Y-69920715D01*
X152448571Y-70635001D02*
X152377143Y-70492143D01*
X152305714Y-70420715D01*
X152162857Y-70349286D01*
X151734286Y-70349286D01*
X151591429Y-70420715D01*
X151520000Y-70492143D01*
X151448571Y-70635001D01*
X151448571Y-70849286D01*
X151520000Y-70992143D01*
X151591429Y-71063572D01*
X151734286Y-71135001D01*
X152162857Y-71135001D01*
X152305714Y-71063572D01*
X152377143Y-70992143D01*
X152448571Y-70849286D01*
X152448571Y-70635001D01*
X152448571Y-71777858D02*
X151448571Y-71777858D01*
X151591429Y-71777858D02*
X151520000Y-71849286D01*
X151448571Y-71992144D01*
X151448571Y-72206429D01*
X151520000Y-72349286D01*
X151662857Y-72420715D01*
X152448571Y-72420715D01*
X151662857Y-72420715D02*
X151520000Y-72492144D01*
X151448571Y-72635001D01*
X151448571Y-72849286D01*
X151520000Y-72992144D01*
X151662857Y-73063572D01*
X152448571Y-73063572D01*
X152377143Y-73706429D02*
X152448571Y-73849286D01*
X152448571Y-74135001D01*
X152377143Y-74277858D01*
X152234286Y-74349286D01*
X152162857Y-74349286D01*
X152020000Y-74277858D01*
X151948571Y-74135001D01*
X151948571Y-73920715D01*
X151877143Y-73777858D01*
X151734286Y-73706429D01*
X151662857Y-73706429D01*
X151520000Y-73777858D01*
X151448571Y-73920715D01*
X151448571Y-74135001D01*
X151520000Y-74277858D01*
X151448571Y-76135001D02*
X152948571Y-76135001D01*
X151520000Y-76135001D02*
X151448571Y-76277858D01*
X151448571Y-76563572D01*
X151520000Y-76706429D01*
X151591429Y-76777858D01*
X151734286Y-76849287D01*
X152162857Y-76849287D01*
X152305714Y-76777858D01*
X152377143Y-76706429D01*
X152448571Y-76563572D01*
X152448571Y-76277858D01*
X152377143Y-76135001D01*
X152377143Y-78063572D02*
X152448571Y-77920715D01*
X152448571Y-77635001D01*
X152377143Y-77492144D01*
X152234286Y-77420715D01*
X151662857Y-77420715D01*
X151520000Y-77492144D01*
X151448571Y-77635001D01*
X151448571Y-77920715D01*
X151520000Y-78063572D01*
X151662857Y-78135001D01*
X151805714Y-78135001D01*
X151948571Y-77420715D01*
X152448571Y-78777858D02*
X151448571Y-78777858D01*
X151734286Y-78777858D02*
X151591429Y-78849286D01*
X151520000Y-78920715D01*
X151448571Y-79063572D01*
X151448571Y-79206429D01*
X152377143Y-79635000D02*
X152448571Y-79777857D01*
X152448571Y-80063572D01*
X152377143Y-80206429D01*
X152234286Y-80277857D01*
X152162857Y-80277857D01*
X152020000Y-80206429D01*
X151948571Y-80063572D01*
X151948571Y-79849286D01*
X151877143Y-79706429D01*
X151734286Y-79635000D01*
X151662857Y-79635000D01*
X151520000Y-79706429D01*
X151448571Y-79849286D01*
X151448571Y-80063572D01*
X151520000Y-80206429D01*
X152448571Y-80920715D02*
X151448571Y-80920715D01*
X150948571Y-80920715D02*
X151020000Y-80849286D01*
X151091429Y-80920715D01*
X151020000Y-80992143D01*
X150948571Y-80920715D01*
X151091429Y-80920715D01*
X152377143Y-81563572D02*
X152448571Y-81706429D01*
X152448571Y-81992144D01*
X152377143Y-82135001D01*
X152234286Y-82206429D01*
X152162857Y-82206429D01*
X152020000Y-82135001D01*
X151948571Y-81992144D01*
X151948571Y-81777858D01*
X151877143Y-81635001D01*
X151734286Y-81563572D01*
X151662857Y-81563572D01*
X151520000Y-81635001D01*
X151448571Y-81777858D01*
X151448571Y-81992144D01*
X151520000Y-82135001D01*
X151448571Y-82635001D02*
X151448571Y-83206430D01*
X150948571Y-82849287D02*
X152234286Y-82849287D01*
X152377143Y-82920715D01*
X152448571Y-83063573D01*
X152448571Y-83206430D01*
X152377143Y-83777858D02*
X152448571Y-83777858D01*
X152591429Y-83706430D01*
X152662857Y-83635001D01*
X151520000Y-83706430D02*
X151591429Y-83777858D01*
X151662857Y-83706430D01*
X151591429Y-83635001D01*
X151520000Y-83706430D01*
X151662857Y-83706430D01*
X151448571Y-85563573D02*
X152948571Y-85563573D01*
X151520000Y-85563573D02*
X151448571Y-85706430D01*
X151448571Y-85992144D01*
X151520000Y-86135001D01*
X151591429Y-86206430D01*
X151734286Y-86277859D01*
X152162857Y-86277859D01*
X152305714Y-86206430D01*
X152377143Y-86135001D01*
X152448571Y-85992144D01*
X152448571Y-85706430D01*
X152377143Y-85563573D01*
X152448571Y-87135002D02*
X152377143Y-86992144D01*
X152234286Y-86920716D01*
X150948571Y-86920716D01*
X152377143Y-88277858D02*
X152448571Y-88135001D01*
X152448571Y-87849287D01*
X152377143Y-87706430D01*
X152234286Y-87635001D01*
X151662857Y-87635001D01*
X151520000Y-87706430D01*
X151448571Y-87849287D01*
X151448571Y-88135001D01*
X151520000Y-88277858D01*
X151662857Y-88349287D01*
X151805714Y-88349287D01*
X151948571Y-87635001D01*
X152448571Y-89635001D02*
X151662857Y-89635001D01*
X151520000Y-89563572D01*
X151448571Y-89420715D01*
X151448571Y-89135001D01*
X151520000Y-88992144D01*
X152377143Y-89635001D02*
X152448571Y-89492144D01*
X152448571Y-89135001D01*
X152377143Y-88992144D01*
X152234286Y-88920715D01*
X152091429Y-88920715D01*
X151948571Y-88992144D01*
X151877143Y-89135001D01*
X151877143Y-89492144D01*
X151805714Y-89635001D01*
X152377143Y-90277858D02*
X152448571Y-90420715D01*
X152448571Y-90706430D01*
X152377143Y-90849287D01*
X152234286Y-90920715D01*
X152162857Y-90920715D01*
X152020000Y-90849287D01*
X151948571Y-90706430D01*
X151948571Y-90492144D01*
X151877143Y-90349287D01*
X151734286Y-90277858D01*
X151662857Y-90277858D01*
X151520000Y-90349287D01*
X151448571Y-90492144D01*
X151448571Y-90706430D01*
X151520000Y-90849287D01*
X152377143Y-92135001D02*
X152448571Y-91992144D01*
X152448571Y-91706430D01*
X152377143Y-91563573D01*
X152234286Y-91492144D01*
X151662857Y-91492144D01*
X151520000Y-91563573D01*
X151448571Y-91706430D01*
X151448571Y-91992144D01*
X151520000Y-92135001D01*
X151662857Y-92206430D01*
X151805714Y-92206430D01*
X151948571Y-91492144D01*
X151448571Y-94635001D02*
X152662857Y-94635001D01*
X152805714Y-94563572D01*
X152877143Y-94492144D01*
X152948571Y-94349287D01*
X152948571Y-94135001D01*
X152877143Y-93992144D01*
X152377143Y-94635001D02*
X152448571Y-94492144D01*
X152448571Y-94206430D01*
X152377143Y-94063572D01*
X152305714Y-93992144D01*
X152162857Y-93920715D01*
X151734286Y-93920715D01*
X151591429Y-93992144D01*
X151520000Y-94063572D01*
X151448571Y-94206430D01*
X151448571Y-94492144D01*
X151520000Y-94635001D01*
X152448571Y-95349287D02*
X151448571Y-95349287D01*
X150948571Y-95349287D02*
X151020000Y-95277858D01*
X151091429Y-95349287D01*
X151020000Y-95420715D01*
X150948571Y-95349287D01*
X151091429Y-95349287D01*
X151448571Y-95920716D02*
X152448571Y-96277859D01*
X151448571Y-96635001D01*
X152377143Y-97777858D02*
X152448571Y-97635001D01*
X152448571Y-97349287D01*
X152377143Y-97206430D01*
X152234286Y-97135001D01*
X151662857Y-97135001D01*
X151520000Y-97206430D01*
X151448571Y-97349287D01*
X151448571Y-97635001D01*
X151520000Y-97777858D01*
X151662857Y-97849287D01*
X151805714Y-97849287D01*
X151948571Y-97135001D01*
X151448571Y-99492144D02*
X152448571Y-99849287D01*
X151448571Y-100206429D02*
X152448571Y-99849287D01*
X152805714Y-99706429D01*
X152877143Y-99635001D01*
X152948571Y-99492144D01*
X152448571Y-100992144D02*
X152377143Y-100849286D01*
X152305714Y-100777858D01*
X152162857Y-100706429D01*
X151734286Y-100706429D01*
X151591429Y-100777858D01*
X151520000Y-100849286D01*
X151448571Y-100992144D01*
X151448571Y-101206429D01*
X151520000Y-101349286D01*
X151591429Y-101420715D01*
X151734286Y-101492144D01*
X152162857Y-101492144D01*
X152305714Y-101420715D01*
X152377143Y-101349286D01*
X152448571Y-101206429D01*
X152448571Y-100992144D01*
X151448571Y-102777858D02*
X152448571Y-102777858D01*
X151448571Y-102135001D02*
X152234286Y-102135001D01*
X152377143Y-102206429D01*
X152448571Y-102349287D01*
X152448571Y-102563572D01*
X152377143Y-102706429D01*
X152305714Y-102777858D01*
X152448571Y-103492144D02*
X151448571Y-103492144D01*
X151734286Y-103492144D02*
X151591429Y-103563572D01*
X151520000Y-103635001D01*
X151448571Y-103777858D01*
X151448571Y-103920715D01*
X152377143Y-104349286D02*
X152448571Y-104492143D01*
X152448571Y-104777858D01*
X152377143Y-104920715D01*
X152234286Y-104992143D01*
X152162857Y-104992143D01*
X152020000Y-104920715D01*
X151948571Y-104777858D01*
X151948571Y-104563572D01*
X151877143Y-104420715D01*
X151734286Y-104349286D01*
X151662857Y-104349286D01*
X151520000Y-104420715D01*
X151448571Y-104563572D01*
X151448571Y-104777858D01*
X151520000Y-104920715D01*
X152377143Y-106206429D02*
X152448571Y-106063572D01*
X152448571Y-105777858D01*
X152377143Y-105635001D01*
X152234286Y-105563572D01*
X151662857Y-105563572D01*
X151520000Y-105635001D01*
X151448571Y-105777858D01*
X151448571Y-106063572D01*
X151520000Y-106206429D01*
X151662857Y-106277858D01*
X151805714Y-106277858D01*
X151948571Y-105563572D01*
X152448571Y-107135001D02*
X152377143Y-106992143D01*
X152234286Y-106920715D01*
X150948571Y-106920715D01*
X151448571Y-107492143D02*
X151448571Y-108063572D01*
X152448571Y-107706429D02*
X151162857Y-107706429D01*
X151020000Y-107777857D01*
X150948571Y-107920715D01*
X150948571Y-108063572D01*
X152448571Y-110349286D02*
X151662857Y-110349286D01*
X151520000Y-110277857D01*
X151448571Y-110135000D01*
X151448571Y-109849286D01*
X151520000Y-109706429D01*
X152377143Y-110349286D02*
X152448571Y-110206429D01*
X152448571Y-109849286D01*
X152377143Y-109706429D01*
X152234286Y-109635000D01*
X152091429Y-109635000D01*
X151948571Y-109706429D01*
X151877143Y-109849286D01*
X151877143Y-110206429D01*
X151805714Y-110349286D01*
X151448571Y-112206429D02*
X152948571Y-112206429D01*
X151520000Y-112206429D02*
X151448571Y-112349286D01*
X151448571Y-112635000D01*
X151520000Y-112777857D01*
X151591429Y-112849286D01*
X151734286Y-112920715D01*
X152162857Y-112920715D01*
X152305714Y-112849286D01*
X152377143Y-112777857D01*
X152448571Y-112635000D01*
X152448571Y-112349286D01*
X152377143Y-112206429D01*
X152448571Y-114206429D02*
X151662857Y-114206429D01*
X151520000Y-114135000D01*
X151448571Y-113992143D01*
X151448571Y-113706429D01*
X151520000Y-113563572D01*
X152377143Y-114206429D02*
X152448571Y-114063572D01*
X152448571Y-113706429D01*
X152377143Y-113563572D01*
X152234286Y-113492143D01*
X152091429Y-113492143D01*
X151948571Y-113563572D01*
X151877143Y-113706429D01*
X151877143Y-114063572D01*
X151805714Y-114206429D01*
X151448571Y-114706429D02*
X151448571Y-115277858D01*
X150948571Y-114920715D02*
X152234286Y-114920715D01*
X152377143Y-114992143D01*
X152448571Y-115135001D01*
X152448571Y-115277858D01*
X152448571Y-117135001D02*
X152377143Y-116992143D01*
X152305714Y-116920715D01*
X152162857Y-116849286D01*
X151734286Y-116849286D01*
X151591429Y-116920715D01*
X151520000Y-116992143D01*
X151448571Y-117135001D01*
X151448571Y-117349286D01*
X151520000Y-117492143D01*
X151591429Y-117563572D01*
X151734286Y-117635001D01*
X152162857Y-117635001D01*
X152305714Y-117563572D01*
X152377143Y-117492143D01*
X152448571Y-117349286D01*
X152448571Y-117135001D01*
X151448571Y-118277858D02*
X152448571Y-118277858D01*
X151591429Y-118277858D02*
X151520000Y-118349286D01*
X151448571Y-118492144D01*
X151448571Y-118706429D01*
X151520000Y-118849286D01*
X151662857Y-118920715D01*
X152448571Y-118920715D01*
X151448571Y-120563572D02*
X151448571Y-121135001D01*
X150948571Y-120777858D02*
X152234286Y-120777858D01*
X152377143Y-120849286D01*
X152448571Y-120992144D01*
X152448571Y-121135001D01*
X152448571Y-121635001D02*
X150948571Y-121635001D01*
X152448571Y-122277858D02*
X151662857Y-122277858D01*
X151520000Y-122206429D01*
X151448571Y-122063572D01*
X151448571Y-121849287D01*
X151520000Y-121706429D01*
X151591429Y-121635001D01*
X152377143Y-123563572D02*
X152448571Y-123420715D01*
X152448571Y-123135001D01*
X152377143Y-122992144D01*
X152234286Y-122920715D01*
X151662857Y-122920715D01*
X151520000Y-122992144D01*
X151448571Y-123135001D01*
X151448571Y-123420715D01*
X151520000Y-123563572D01*
X151662857Y-123635001D01*
X151805714Y-123635001D01*
X151948571Y-122920715D01*
X152448571Y-125420715D02*
X150948571Y-125420715D01*
X151520000Y-125420715D02*
X151448571Y-125563572D01*
X151448571Y-125849286D01*
X151520000Y-125992143D01*
X151591429Y-126063572D01*
X151734286Y-126135001D01*
X152162857Y-126135001D01*
X152305714Y-126063572D01*
X152377143Y-125992143D01*
X152448571Y-125849286D01*
X152448571Y-125563572D01*
X152377143Y-125420715D01*
X152448571Y-127420715D02*
X151662857Y-127420715D01*
X151520000Y-127349286D01*
X151448571Y-127206429D01*
X151448571Y-126920715D01*
X151520000Y-126777858D01*
X152377143Y-127420715D02*
X152448571Y-127277858D01*
X152448571Y-126920715D01*
X152377143Y-126777858D01*
X152234286Y-126706429D01*
X152091429Y-126706429D01*
X151948571Y-126777858D01*
X151877143Y-126920715D01*
X151877143Y-127277858D01*
X151805714Y-127420715D01*
X152377143Y-128777858D02*
X152448571Y-128635001D01*
X152448571Y-128349287D01*
X152377143Y-128206429D01*
X152305714Y-128135001D01*
X152162857Y-128063572D01*
X151734286Y-128063572D01*
X151591429Y-128135001D01*
X151520000Y-128206429D01*
X151448571Y-128349287D01*
X151448571Y-128635001D01*
X151520000Y-128777858D01*
X152448571Y-129420715D02*
X150948571Y-129420715D01*
X151877143Y-129563572D02*
X152448571Y-129992143D01*
X151448571Y-129992143D02*
X152020000Y-129420715D01*
X152305714Y-130635001D02*
X152377143Y-130706429D01*
X152448571Y-130635001D01*
X152377143Y-130563572D01*
X152305714Y-130635001D01*
X152448571Y-130635001D01*
X152935714Y-41367144D02*
X153007143Y-41295715D01*
X153078571Y-41081429D01*
X153078571Y-40938572D01*
X153007143Y-40724287D01*
X152864286Y-40581429D01*
X152721429Y-40510001D01*
X152435714Y-40438572D01*
X152221429Y-40438572D01*
X151935714Y-40510001D01*
X151792857Y-40581429D01*
X151650000Y-40724287D01*
X151578571Y-40938572D01*
X151578571Y-41081429D01*
X151650000Y-41295715D01*
X151721429Y-41367144D01*
X152935714Y-42867144D02*
X153007143Y-42795715D01*
X153078571Y-42581429D01*
X153078571Y-42438572D01*
X153007143Y-42224287D01*
X152864286Y-42081429D01*
X152721429Y-42010001D01*
X152435714Y-41938572D01*
X152221429Y-41938572D01*
X151935714Y-42010001D01*
X151792857Y-42081429D01*
X151650000Y-42224287D01*
X151578571Y-42438572D01*
X151578571Y-42581429D01*
X151650000Y-42795715D01*
X151721429Y-42867144D01*
X152292857Y-45152858D02*
X152364286Y-45367144D01*
X152435714Y-45438572D01*
X152578571Y-45510001D01*
X152792857Y-45510001D01*
X152935714Y-45438572D01*
X153007143Y-45367144D01*
X153078571Y-45224286D01*
X153078571Y-44652858D01*
X151578571Y-44652858D01*
X151578571Y-45152858D01*
X151650000Y-45295715D01*
X151721429Y-45367144D01*
X151864286Y-45438572D01*
X152007143Y-45438572D01*
X152150000Y-45367144D01*
X152221429Y-45295715D01*
X152292857Y-45152858D01*
X152292857Y-44652858D01*
X152364286Y-46438572D02*
X153078571Y-46438572D01*
X151578571Y-45938572D02*
X152364286Y-46438572D01*
X151578571Y-46938572D01*
X152507143Y-47438572D02*
X152507143Y-48581429D01*
X153007143Y-49224286D02*
X153078571Y-49438572D01*
X153078571Y-49795715D01*
X153007143Y-49938572D01*
X152935714Y-50010001D01*
X152792857Y-50081429D01*
X152650000Y-50081429D01*
X152507143Y-50010001D01*
X152435714Y-49938572D01*
X152364286Y-49795715D01*
X152292857Y-49510001D01*
X152221429Y-49367143D01*
X152150000Y-49295715D01*
X152007143Y-49224286D01*
X151864286Y-49224286D01*
X151721429Y-49295715D01*
X151650000Y-49367143D01*
X151578571Y-49510001D01*
X151578571Y-49867143D01*
X151650000Y-50081429D01*
X152650000Y-50652857D02*
X152650000Y-51367143D01*
X153078571Y-50510000D02*
X151578571Y-51010000D01*
X153078571Y-51510000D01*
X152078571Y-53795714D02*
X153078571Y-53795714D01*
X151507143Y-53438571D02*
X152578571Y-53081428D01*
X152578571Y-54010000D01*
X152935714Y-54581428D02*
X153007143Y-54652856D01*
X153078571Y-54581428D01*
X153007143Y-54509999D01*
X152935714Y-54581428D01*
X153078571Y-54581428D01*
X151578571Y-55581428D02*
X151578571Y-55724285D01*
X151650000Y-55867142D01*
X151721429Y-55938571D01*
X151864286Y-56010000D01*
X152150000Y-56081428D01*
X152507143Y-56081428D01*
X152792857Y-56010000D01*
X152935714Y-55938571D01*
X153007143Y-55867142D01*
X153078571Y-55724285D01*
X153078571Y-55581428D01*
X153007143Y-55438571D01*
X152935714Y-55367142D01*
X152792857Y-55295714D01*
X152507143Y-55224285D01*
X152150000Y-55224285D01*
X151864286Y-55295714D01*
X151721429Y-55367142D01*
X151650000Y-55438571D01*
X151578571Y-55581428D01*
D12*
X163255000Y-151190000D02*
X160595000Y-151190000D01*
X163255000Y-102870000D02*
X163255000Y-151190000D01*
X160595000Y-102870000D02*
X160595000Y-151190000D01*
X163255000Y-102870000D02*
X160595000Y-102870000D01*
X163255000Y-101600000D02*
X163255000Y-100270000D01*
X163255000Y-100270000D02*
X161925000Y-100270000D01*
X163255000Y-59750000D02*
X160595000Y-59750000D01*
X163255000Y-41910000D02*
X163255000Y-59750000D01*
X160595000Y-41910000D02*
X160595000Y-59750000D01*
X163255000Y-41910000D02*
X160595000Y-41910000D01*
X163255000Y-40640000D02*
X163255000Y-39310000D01*
X163255000Y-39310000D02*
X161925000Y-39310000D01*
X163255000Y-97850000D02*
X160595000Y-97850000D01*
X163255000Y-64770000D02*
X163255000Y-97850000D01*
X160595000Y-64770000D02*
X160595000Y-97850000D01*
X163255000Y-64770000D02*
X160595000Y-64770000D01*
X163255000Y-63500000D02*
X163255000Y-62170000D01*
X163255000Y-62170000D02*
X161925000Y-62170000D01*
D13*
X147480020Y-47558960D02*
X147380960Y-47960280D01*
X147380960Y-47960280D02*
X146880580Y-48059340D01*
X143080740Y-45760640D02*
X143179800Y-45559980D01*
X143179800Y-45559980D02*
X143779240Y-45161200D01*
X143779240Y-45161200D02*
X144279620Y-44960540D01*
X144279620Y-44960540D02*
X145178780Y-44858940D01*
X145178780Y-44858940D02*
X145679160Y-44960540D01*
X147180300Y-48061880D02*
X147378420Y-47962820D01*
X146880580Y-51960780D02*
X147180300Y-52059840D01*
X142379700Y-51259740D02*
X142478760Y-51559460D01*
X142478760Y-51559460D02*
X142781020Y-51358800D01*
X139379960Y-48260000D02*
X139379960Y-47759620D01*
X139379960Y-47759620D02*
X139679680Y-46959520D01*
X139679680Y-46959520D02*
X139880340Y-46261020D01*
X139880340Y-46261020D02*
X140081000Y-45559980D01*
X140081000Y-45559980D02*
X140578840Y-44960540D01*
X140578840Y-44960540D02*
X141180820Y-44259500D01*
X141180820Y-44259500D02*
X141780260Y-43759120D01*
X141780260Y-43759120D02*
X142679420Y-43258740D01*
X142679420Y-43258740D02*
X143680180Y-42959020D01*
X143680180Y-42959020D02*
X144879060Y-42859960D01*
X144879060Y-42859960D02*
X146080480Y-43060620D01*
X146080480Y-43060620D02*
X147180300Y-43459400D01*
X147180300Y-43459400D02*
X148678900Y-44460160D01*
X148678900Y-44460160D02*
X149580600Y-45659040D01*
X149580600Y-45659040D02*
X150080980Y-46959520D01*
X150080980Y-46959520D02*
X150080980Y-48359060D01*
X150080980Y-48359060D02*
X149979380Y-49860200D01*
X149979380Y-49860200D02*
X149479000Y-50860960D01*
X149479000Y-50860960D02*
X148181060Y-52461160D01*
X148181060Y-52461160D02*
X146580860Y-53261260D01*
X146580860Y-53261260D02*
X145079720Y-53660040D01*
X145079720Y-53660040D02*
X143380460Y-53459380D01*
X143380460Y-53459380D02*
X142280640Y-52959000D01*
X142280640Y-52959000D02*
X140680440Y-51661060D01*
X140680440Y-51661060D02*
X139979400Y-50660300D01*
X139979400Y-50660300D02*
X139580620Y-49659540D01*
X139580620Y-49659540D02*
X139479020Y-48260000D01*
X144078960Y-48861980D02*
X144579340Y-48762920D01*
X144579340Y-48762920D02*
X145277840Y-48762920D01*
X145277840Y-48762920D02*
X145879820Y-48861980D01*
X145879820Y-48861980D02*
X146479260Y-49260760D01*
X146479260Y-49260760D02*
X146979640Y-49761140D01*
X146979640Y-49761140D02*
X147279360Y-50360580D01*
X147279360Y-50360580D02*
X147378420Y-50860960D01*
X147378420Y-50860960D02*
X147378420Y-51262280D01*
X147378420Y-51262280D02*
X147378420Y-51661060D01*
X147378420Y-51661060D02*
X147279360Y-52062380D01*
X147279360Y-52062380D02*
X147078700Y-51960780D01*
X147078700Y-51960780D02*
X147180300Y-51061620D01*
X147180300Y-51061620D02*
X146878040Y-50060860D01*
X146878040Y-50060860D02*
X146380200Y-49461420D01*
X146380200Y-49461420D02*
X145478500Y-49062640D01*
X145478500Y-49062640D02*
X144480280Y-48961040D01*
X144480280Y-48961040D02*
X143779240Y-49260760D01*
X143779240Y-49260760D02*
X143078200Y-49862740D01*
X143078200Y-49862740D02*
X142679420Y-50561240D01*
X142679420Y-50561240D02*
X142679420Y-51262280D01*
X142679420Y-51262280D02*
X142880080Y-51361340D01*
X142880080Y-51361340D02*
X142880080Y-50761900D01*
X142880080Y-50761900D02*
X143179800Y-50060860D01*
X143179800Y-50060860D02*
X143779240Y-49560480D01*
X143779240Y-49560480D02*
X144378680Y-49260760D01*
X144378680Y-49260760D02*
X144879060Y-49260760D01*
X144879060Y-49260760D02*
X145478500Y-49260760D01*
X145478500Y-49260760D02*
X145978880Y-49560480D01*
X145978880Y-49560480D02*
X146479260Y-49961800D01*
X146479260Y-49961800D02*
X146778980Y-50561240D01*
X146778980Y-50561240D02*
X146878040Y-51160680D01*
X146878040Y-51160680D02*
X146878040Y-51661060D01*
X146878040Y-51661060D02*
X146778980Y-51960780D01*
X142379700Y-51262280D02*
X142379700Y-50662840D01*
X142379700Y-50662840D02*
X142577820Y-50261520D01*
X142577820Y-50261520D02*
X142778480Y-49761140D01*
X142778480Y-49761140D02*
X143179800Y-49362360D01*
X143179800Y-49362360D02*
X143680180Y-49062640D01*
X143680180Y-49062640D02*
X144078960Y-48861980D01*
X142781020Y-47861220D02*
X142781020Y-47360840D01*
X142781020Y-47360840D02*
X142882620Y-46860460D01*
X142882620Y-46860460D02*
X143182340Y-46360080D01*
X143182340Y-46360080D02*
X143581120Y-45859700D01*
X143479520Y-45859700D02*
X143979900Y-45559980D01*
X143979900Y-45559980D02*
X144480280Y-45460920D01*
X144480280Y-45460920D02*
X144980660Y-45460920D01*
X144980660Y-45460920D02*
X145780760Y-45661580D01*
X145780760Y-45562520D02*
X146179540Y-45862240D01*
X146278600Y-45963840D02*
X146679920Y-46464220D01*
X146679920Y-46464220D02*
X146878040Y-46962060D01*
X146878040Y-46962060D02*
X146979640Y-47363380D01*
X146979640Y-47363380D02*
X146979640Y-47762160D01*
X146979640Y-47762160D02*
X146878040Y-48061880D01*
X146878040Y-48061880D02*
X147180300Y-47962820D01*
X147180300Y-47962820D02*
X147279360Y-47363380D01*
X147279360Y-47363380D02*
X147078700Y-46662340D01*
X147078700Y-46662340D02*
X146578320Y-45963840D01*
X146578320Y-45963840D02*
X146077940Y-45463460D01*
X146179540Y-45460920D02*
X145481040Y-45260260D01*
X145481040Y-45260260D02*
X144780000Y-45161200D01*
X144780000Y-45161200D02*
X144180560Y-45260260D01*
X143979900Y-45260260D02*
X143479520Y-45559980D01*
X143680180Y-45559980D02*
X143179800Y-46060360D01*
X143080740Y-46060360D02*
X142781020Y-46560740D01*
X142781020Y-46560740D02*
X142580360Y-47061120D01*
X142580360Y-47061120D02*
X142580360Y-47561500D01*
X142580360Y-47561500D02*
X142580360Y-47960280D01*
X142580360Y-47960280D02*
X142382240Y-48059340D01*
X142382240Y-48059340D02*
X142280640Y-47660560D01*
X142280640Y-47660560D02*
X142280640Y-47259240D01*
X142280640Y-47259240D02*
X142382240Y-46761400D01*
X142382240Y-46761400D02*
X142681960Y-46159420D01*
X142681960Y-46159420D02*
X143080740Y-45661580D01*
X143179800Y-45661580D02*
X143880840Y-45161200D01*
X143880840Y-45161200D02*
X144480280Y-44960540D01*
X144480280Y-44960540D02*
X145181320Y-44960540D01*
X145181320Y-44960540D02*
X145780760Y-45059600D01*
X145580100Y-44960540D02*
X146179540Y-45260260D01*
X146278600Y-45361860D02*
X146778980Y-45763180D01*
X146778980Y-45763180D02*
X147180300Y-46362620D01*
X147180300Y-46362620D02*
X147378420Y-47063660D01*
X147378420Y-47063660D02*
X147480020Y-47564040D01*
X145978880Y-45262800D02*
X145978880Y-45661580D01*
X149960604Y-48260000D02*
G75*
G03X149960604Y-48260000I-5180604J0D01*
G01*
X150368000Y-48260000D02*
G75*
G03X150368000Y-48260000I-5588000J0D01*
G01*
M02*
