G04 #@! TF.FileFunction,Legend,Top*
%FSLAX46Y46*%
G04 Gerber Fmt 4.6, Leading zero omitted, Abs format (unit mm)*
G04 Created by KiCad (PCBNEW 4.0.7) date 05/21/18 18:47:21*
%MOMM*%
%LPD*%
G01*
G04 APERTURE LIST*
%ADD10C,0.100000*%
%ADD11C,0.200000*%
%ADD12C,0.150000*%
%ADD13C,0.300000*%
%ADD14C,0.250000*%
%ADD15C,0.120000*%
%ADD16C,0.010000*%
G04 APERTURE END LIST*
D10*
D11*
X136906000Y-92964000D02*
X137160000Y-92964000D01*
X136906000Y-97536000D02*
X136906000Y-92964000D01*
X137160000Y-97536000D02*
X136906000Y-97536000D01*
X138684000Y-97536000D02*
X137160000Y-97536000D01*
X138684000Y-92964000D02*
X138684000Y-97536000D01*
X137160000Y-92964000D02*
X138684000Y-92964000D01*
D12*
X141518572Y-53348333D02*
X141470952Y-53300714D01*
X141375714Y-53157857D01*
X141328095Y-53062619D01*
X141280476Y-52919762D01*
X141232857Y-52681667D01*
X141232857Y-52491190D01*
X141280476Y-52253095D01*
X141328095Y-52110238D01*
X141375714Y-52015000D01*
X141470952Y-51872143D01*
X141518572Y-51824524D01*
X142328096Y-52919762D02*
X142232858Y-52967381D01*
X142042381Y-52967381D01*
X141947143Y-52919762D01*
X141899524Y-52872143D01*
X141851905Y-52776905D01*
X141851905Y-52491190D01*
X141899524Y-52395952D01*
X141947143Y-52348333D01*
X142042381Y-52300714D01*
X142232858Y-52300714D01*
X142328096Y-52348333D01*
X142661429Y-53348333D02*
X142709048Y-53300714D01*
X142804286Y-53157857D01*
X142851905Y-53062619D01*
X142899524Y-52919762D01*
X142947143Y-52681667D01*
X142947143Y-52491190D01*
X142899524Y-52253095D01*
X142851905Y-52110238D01*
X142804286Y-52015000D01*
X142709048Y-51872143D01*
X142661429Y-51824524D01*
X143375715Y-52062619D02*
X143423334Y-52015000D01*
X143518572Y-51967381D01*
X143756668Y-51967381D01*
X143851906Y-52015000D01*
X143899525Y-52062619D01*
X143947144Y-52157857D01*
X143947144Y-52253095D01*
X143899525Y-52395952D01*
X143328096Y-52967381D01*
X143947144Y-52967381D01*
X144566191Y-51967381D02*
X144661430Y-51967381D01*
X144756668Y-52015000D01*
X144804287Y-52062619D01*
X144851906Y-52157857D01*
X144899525Y-52348333D01*
X144899525Y-52586429D01*
X144851906Y-52776905D01*
X144804287Y-52872143D01*
X144756668Y-52919762D01*
X144661430Y-52967381D01*
X144566191Y-52967381D01*
X144470953Y-52919762D01*
X144423334Y-52872143D01*
X144375715Y-52776905D01*
X144328096Y-52586429D01*
X144328096Y-52348333D01*
X144375715Y-52157857D01*
X144423334Y-52062619D01*
X144470953Y-52015000D01*
X144566191Y-51967381D01*
X145851906Y-52967381D02*
X145280477Y-52967381D01*
X145566191Y-52967381D02*
X145566191Y-51967381D01*
X145470953Y-52110238D01*
X145375715Y-52205476D01*
X145280477Y-52253095D01*
X146423334Y-52395952D02*
X146328096Y-52348333D01*
X146280477Y-52300714D01*
X146232858Y-52205476D01*
X146232858Y-52157857D01*
X146280477Y-52062619D01*
X146328096Y-52015000D01*
X146423334Y-51967381D01*
X146613811Y-51967381D01*
X146709049Y-52015000D01*
X146756668Y-52062619D01*
X146804287Y-52157857D01*
X146804287Y-52205476D01*
X146756668Y-52300714D01*
X146709049Y-52348333D01*
X146613811Y-52395952D01*
X146423334Y-52395952D01*
X146328096Y-52443571D01*
X146280477Y-52491190D01*
X146232858Y-52586429D01*
X146232858Y-52776905D01*
X146280477Y-52872143D01*
X146328096Y-52919762D01*
X146423334Y-52967381D01*
X146613811Y-52967381D01*
X146709049Y-52919762D01*
X146756668Y-52872143D01*
X146804287Y-52776905D01*
X146804287Y-52586429D01*
X146756668Y-52491190D01*
X146709049Y-52443571D01*
X146613811Y-52395952D01*
X147947144Y-52919762D02*
X148090001Y-52967381D01*
X148328097Y-52967381D01*
X148423335Y-52919762D01*
X148470954Y-52872143D01*
X148518573Y-52776905D01*
X148518573Y-52681667D01*
X148470954Y-52586429D01*
X148423335Y-52538810D01*
X148328097Y-52491190D01*
X148137620Y-52443571D01*
X148042382Y-52395952D01*
X147994763Y-52348333D01*
X147947144Y-52253095D01*
X147947144Y-52157857D01*
X147994763Y-52062619D01*
X148042382Y-52015000D01*
X148137620Y-51967381D01*
X148375716Y-51967381D01*
X148518573Y-52015000D01*
X148947144Y-52967381D02*
X148947144Y-52300714D01*
X148947144Y-51967381D02*
X148899525Y-52015000D01*
X148947144Y-52062619D01*
X148994763Y-52015000D01*
X148947144Y-51967381D01*
X148947144Y-52062619D01*
X149423334Y-52967381D02*
X149423334Y-52300714D01*
X149423334Y-52395952D02*
X149470953Y-52348333D01*
X149566191Y-52300714D01*
X149709049Y-52300714D01*
X149804287Y-52348333D01*
X149851906Y-52443571D01*
X149851906Y-52967381D01*
X149851906Y-52443571D02*
X149899525Y-52348333D01*
X149994763Y-52300714D01*
X150137620Y-52300714D01*
X150232858Y-52348333D01*
X150280477Y-52443571D01*
X150280477Y-52967381D01*
X150899524Y-52967381D02*
X150804286Y-52919762D01*
X150756667Y-52872143D01*
X150709048Y-52776905D01*
X150709048Y-52491190D01*
X150756667Y-52395952D01*
X150804286Y-52348333D01*
X150899524Y-52300714D01*
X151042382Y-52300714D01*
X151137620Y-52348333D01*
X151185239Y-52395952D01*
X151232858Y-52491190D01*
X151232858Y-52776905D01*
X151185239Y-52872143D01*
X151137620Y-52919762D01*
X151042382Y-52967381D01*
X150899524Y-52967381D01*
X151661429Y-52300714D02*
X151661429Y-52967381D01*
X151661429Y-52395952D02*
X151709048Y-52348333D01*
X151804286Y-52300714D01*
X151947144Y-52300714D01*
X152042382Y-52348333D01*
X152090001Y-52443571D01*
X152090001Y-52967381D01*
X153328096Y-52967381D02*
X153328096Y-51967381D01*
X153804286Y-52300714D02*
X153804286Y-52967381D01*
X153804286Y-52395952D02*
X153851905Y-52348333D01*
X153947143Y-52300714D01*
X154090001Y-52300714D01*
X154185239Y-52348333D01*
X154232858Y-52443571D01*
X154232858Y-52967381D01*
X154709048Y-52300714D02*
X154709048Y-52967381D01*
X154709048Y-52395952D02*
X154756667Y-52348333D01*
X154851905Y-52300714D01*
X154994763Y-52300714D01*
X155090001Y-52348333D01*
X155137620Y-52443571D01*
X155137620Y-52967381D01*
X155566191Y-52919762D02*
X155661429Y-52967381D01*
X155851905Y-52967381D01*
X155947144Y-52919762D01*
X155994763Y-52824524D01*
X155994763Y-52776905D01*
X155947144Y-52681667D01*
X155851905Y-52634048D01*
X155709048Y-52634048D01*
X155613810Y-52586429D01*
X155566191Y-52491190D01*
X155566191Y-52443571D01*
X155613810Y-52348333D01*
X155709048Y-52300714D01*
X155851905Y-52300714D01*
X155947144Y-52348333D01*
X143994762Y-54522143D02*
X143947143Y-54569762D01*
X143804286Y-54617381D01*
X143709048Y-54617381D01*
X143566190Y-54569762D01*
X143470952Y-54474524D01*
X143423333Y-54379286D01*
X143375714Y-54188810D01*
X143375714Y-54045952D01*
X143423333Y-53855476D01*
X143470952Y-53760238D01*
X143566190Y-53665000D01*
X143709048Y-53617381D01*
X143804286Y-53617381D01*
X143947143Y-53665000D01*
X143994762Y-53712619D01*
X144994762Y-54522143D02*
X144947143Y-54569762D01*
X144804286Y-54617381D01*
X144709048Y-54617381D01*
X144566190Y-54569762D01*
X144470952Y-54474524D01*
X144423333Y-54379286D01*
X144375714Y-54188810D01*
X144375714Y-54045952D01*
X144423333Y-53855476D01*
X144470952Y-53760238D01*
X144566190Y-53665000D01*
X144709048Y-53617381D01*
X144804286Y-53617381D01*
X144947143Y-53665000D01*
X144994762Y-53712619D01*
X146518572Y-54093571D02*
X146661429Y-54141190D01*
X146709048Y-54188810D01*
X146756667Y-54284048D01*
X146756667Y-54426905D01*
X146709048Y-54522143D01*
X146661429Y-54569762D01*
X146566191Y-54617381D01*
X146185238Y-54617381D01*
X146185238Y-53617381D01*
X146518572Y-53617381D01*
X146613810Y-53665000D01*
X146661429Y-53712619D01*
X146709048Y-53807857D01*
X146709048Y-53903095D01*
X146661429Y-53998333D01*
X146613810Y-54045952D01*
X146518572Y-54093571D01*
X146185238Y-54093571D01*
X147375714Y-54141190D02*
X147375714Y-54617381D01*
X147042381Y-53617381D02*
X147375714Y-54141190D01*
X147709048Y-53617381D01*
X148042381Y-54236429D02*
X148804286Y-54236429D01*
X149232857Y-54569762D02*
X149375714Y-54617381D01*
X149613810Y-54617381D01*
X149709048Y-54569762D01*
X149756667Y-54522143D01*
X149804286Y-54426905D01*
X149804286Y-54331667D01*
X149756667Y-54236429D01*
X149709048Y-54188810D01*
X149613810Y-54141190D01*
X149423333Y-54093571D01*
X149328095Y-54045952D01*
X149280476Y-53998333D01*
X149232857Y-53903095D01*
X149232857Y-53807857D01*
X149280476Y-53712619D01*
X149328095Y-53665000D01*
X149423333Y-53617381D01*
X149661429Y-53617381D01*
X149804286Y-53665000D01*
X150185238Y-54331667D02*
X150661429Y-54331667D01*
X150090000Y-54617381D02*
X150423333Y-53617381D01*
X150756667Y-54617381D01*
X152280477Y-53950714D02*
X152280477Y-54617381D01*
X152042381Y-53569762D02*
X151804286Y-54284048D01*
X152423334Y-54284048D01*
X152804286Y-54522143D02*
X152851905Y-54569762D01*
X152804286Y-54617381D01*
X152756667Y-54569762D01*
X152804286Y-54522143D01*
X152804286Y-54617381D01*
X153470952Y-53617381D02*
X153566191Y-53617381D01*
X153661429Y-53665000D01*
X153709048Y-53712619D01*
X153756667Y-53807857D01*
X153804286Y-53998333D01*
X153804286Y-54236429D01*
X153756667Y-54426905D01*
X153709048Y-54522143D01*
X153661429Y-54569762D01*
X153566191Y-54617381D01*
X153470952Y-54617381D01*
X153375714Y-54569762D01*
X153328095Y-54522143D01*
X153280476Y-54426905D01*
X153232857Y-54236429D01*
X153232857Y-53998333D01*
X153280476Y-53807857D01*
X153328095Y-53712619D01*
X153375714Y-53665000D01*
X153470952Y-53617381D01*
X147772381Y-84723334D02*
X146772381Y-84723334D01*
X147772381Y-84294762D02*
X147248571Y-84294762D01*
X147153333Y-84342381D01*
X147105714Y-84437619D01*
X147105714Y-84580477D01*
X147153333Y-84675715D01*
X147200952Y-84723334D01*
X147105714Y-83961429D02*
X147105714Y-83580477D01*
X146772381Y-83818572D02*
X147629524Y-83818572D01*
X147724762Y-83770953D01*
X147772381Y-83675715D01*
X147772381Y-83580477D01*
X147105714Y-83390000D02*
X147105714Y-83009048D01*
X146772381Y-83247143D02*
X147629524Y-83247143D01*
X147724762Y-83199524D01*
X147772381Y-83104286D01*
X147772381Y-83009048D01*
X147105714Y-82675714D02*
X148105714Y-82675714D01*
X147153333Y-82675714D02*
X147105714Y-82580476D01*
X147105714Y-82389999D01*
X147153333Y-82294761D01*
X147200952Y-82247142D01*
X147296190Y-82199523D01*
X147581905Y-82199523D01*
X147677143Y-82247142D01*
X147724762Y-82294761D01*
X147772381Y-82389999D01*
X147772381Y-82580476D01*
X147724762Y-82675714D01*
X147724762Y-81818571D02*
X147772381Y-81723333D01*
X147772381Y-81532857D01*
X147724762Y-81437618D01*
X147629524Y-81389999D01*
X147581905Y-81389999D01*
X147486667Y-81437618D01*
X147439048Y-81532857D01*
X147439048Y-81675714D01*
X147391429Y-81770952D01*
X147296190Y-81818571D01*
X147248571Y-81818571D01*
X147153333Y-81770952D01*
X147105714Y-81675714D01*
X147105714Y-81532857D01*
X147153333Y-81437618D01*
X147677143Y-80961428D02*
X147724762Y-80913809D01*
X147772381Y-80961428D01*
X147724762Y-81009047D01*
X147677143Y-80961428D01*
X147772381Y-80961428D01*
X147153333Y-80961428D02*
X147200952Y-80913809D01*
X147248571Y-80961428D01*
X147200952Y-81009047D01*
X147153333Y-80961428D01*
X147248571Y-80961428D01*
X146724762Y-79770952D02*
X148010476Y-80628095D01*
X146724762Y-78723333D02*
X148010476Y-79580476D01*
X147105714Y-78485238D02*
X147772381Y-78294762D01*
X147296190Y-78104285D01*
X147772381Y-77913809D01*
X147105714Y-77723333D01*
X147105714Y-77437619D02*
X147772381Y-77247143D01*
X147296190Y-77056666D01*
X147772381Y-76866190D01*
X147105714Y-76675714D01*
X147105714Y-76390000D02*
X147772381Y-76199524D01*
X147296190Y-76009047D01*
X147772381Y-75818571D01*
X147105714Y-75628095D01*
X147677143Y-75247143D02*
X147724762Y-75199524D01*
X147772381Y-75247143D01*
X147724762Y-75294762D01*
X147677143Y-75247143D01*
X147772381Y-75247143D01*
X147105714Y-74866191D02*
X147772381Y-74675715D01*
X147296190Y-74485238D01*
X147772381Y-74294762D01*
X147105714Y-74104286D01*
X147772381Y-73294762D02*
X147248571Y-73294762D01*
X147153333Y-73342381D01*
X147105714Y-73437619D01*
X147105714Y-73628096D01*
X147153333Y-73723334D01*
X147724762Y-73294762D02*
X147772381Y-73390000D01*
X147772381Y-73628096D01*
X147724762Y-73723334D01*
X147629524Y-73770953D01*
X147534286Y-73770953D01*
X147439048Y-73723334D01*
X147391429Y-73628096D01*
X147391429Y-73390000D01*
X147343810Y-73294762D01*
X147772381Y-72818572D02*
X147105714Y-72818572D01*
X146772381Y-72818572D02*
X146820000Y-72866191D01*
X146867619Y-72818572D01*
X146820000Y-72770953D01*
X146772381Y-72818572D01*
X146867619Y-72818572D01*
X147105714Y-72485239D02*
X147105714Y-72104287D01*
X146772381Y-72342382D02*
X147629524Y-72342382D01*
X147724762Y-72294763D01*
X147772381Y-72199525D01*
X147772381Y-72104287D01*
X147772381Y-71770953D02*
X147105714Y-71770953D01*
X146772381Y-71770953D02*
X146820000Y-71818572D01*
X146867619Y-71770953D01*
X146820000Y-71723334D01*
X146772381Y-71770953D01*
X146867619Y-71770953D01*
X147105714Y-71294763D02*
X147772381Y-71294763D01*
X147200952Y-71294763D02*
X147153333Y-71247144D01*
X147105714Y-71151906D01*
X147105714Y-71009048D01*
X147153333Y-70913810D01*
X147248571Y-70866191D01*
X147772381Y-70866191D01*
X147105714Y-69961429D02*
X147915238Y-69961429D01*
X148010476Y-70009048D01*
X148058095Y-70056667D01*
X148105714Y-70151906D01*
X148105714Y-70294763D01*
X148058095Y-70390001D01*
X147724762Y-69961429D02*
X147772381Y-70056667D01*
X147772381Y-70247144D01*
X147724762Y-70342382D01*
X147677143Y-70390001D01*
X147581905Y-70437620D01*
X147296190Y-70437620D01*
X147200952Y-70390001D01*
X147153333Y-70342382D01*
X147105714Y-70247144D01*
X147105714Y-70056667D01*
X147153333Y-69961429D01*
X147105714Y-69628096D02*
X147105714Y-69247144D01*
X147772381Y-69485239D02*
X146915238Y-69485239D01*
X146820000Y-69437620D01*
X146772381Y-69342382D01*
X146772381Y-69247144D01*
X147772381Y-68770953D02*
X147724762Y-68866191D01*
X147677143Y-68913810D01*
X147581905Y-68961429D01*
X147296190Y-68961429D01*
X147200952Y-68913810D01*
X147153333Y-68866191D01*
X147105714Y-68770953D01*
X147105714Y-68628095D01*
X147153333Y-68532857D01*
X147200952Y-68485238D01*
X147296190Y-68437619D01*
X147581905Y-68437619D01*
X147677143Y-68485238D01*
X147724762Y-68532857D01*
X147772381Y-68628095D01*
X147772381Y-68770953D01*
X147772381Y-68009048D02*
X147105714Y-68009048D01*
X147296190Y-68009048D02*
X147200952Y-67961429D01*
X147153333Y-67913810D01*
X147105714Y-67818572D01*
X147105714Y-67723333D01*
X147105714Y-67532857D02*
X147105714Y-67151905D01*
X147772381Y-67390000D02*
X146915238Y-67390000D01*
X146820000Y-67342381D01*
X146772381Y-67247143D01*
X146772381Y-67151905D01*
X147772381Y-66818571D02*
X147105714Y-66818571D01*
X147296190Y-66818571D02*
X147200952Y-66770952D01*
X147153333Y-66723333D01*
X147105714Y-66628095D01*
X147105714Y-66532856D01*
X147772381Y-66199523D02*
X147105714Y-66199523D01*
X146772381Y-66199523D02*
X146820000Y-66247142D01*
X146867619Y-66199523D01*
X146820000Y-66151904D01*
X146772381Y-66199523D01*
X146867619Y-66199523D01*
X147772381Y-65294761D02*
X146772381Y-65294761D01*
X147724762Y-65294761D02*
X147772381Y-65389999D01*
X147772381Y-65580476D01*
X147724762Y-65675714D01*
X147677143Y-65723333D01*
X147581905Y-65770952D01*
X147296190Y-65770952D01*
X147200952Y-65723333D01*
X147153333Y-65675714D01*
X147105714Y-65580476D01*
X147105714Y-65389999D01*
X147153333Y-65294761D01*
X147772381Y-64389999D02*
X147248571Y-64389999D01*
X147153333Y-64437618D01*
X147105714Y-64532856D01*
X147105714Y-64723333D01*
X147153333Y-64818571D01*
X147724762Y-64389999D02*
X147772381Y-64485237D01*
X147772381Y-64723333D01*
X147724762Y-64818571D01*
X147629524Y-64866190D01*
X147534286Y-64866190D01*
X147439048Y-64818571D01*
X147391429Y-64723333D01*
X147391429Y-64485237D01*
X147343810Y-64389999D01*
X147105714Y-64009047D02*
X147772381Y-63770952D01*
X147105714Y-63532856D02*
X147772381Y-63770952D01*
X148010476Y-63866190D01*
X148058095Y-63913809D01*
X148105714Y-64009047D01*
X147677143Y-63151904D02*
X147724762Y-63104285D01*
X147772381Y-63151904D01*
X147724762Y-63199523D01*
X147677143Y-63151904D01*
X147772381Y-63151904D01*
X147724762Y-62247142D02*
X147772381Y-62342380D01*
X147772381Y-62532857D01*
X147724762Y-62628095D01*
X147677143Y-62675714D01*
X147581905Y-62723333D01*
X147296190Y-62723333D01*
X147200952Y-62675714D01*
X147153333Y-62628095D01*
X147105714Y-62532857D01*
X147105714Y-62342380D01*
X147153333Y-62247142D01*
X147772381Y-61675714D02*
X147724762Y-61770952D01*
X147677143Y-61818571D01*
X147581905Y-61866190D01*
X147296190Y-61866190D01*
X147200952Y-61818571D01*
X147153333Y-61770952D01*
X147105714Y-61675714D01*
X147105714Y-61532856D01*
X147153333Y-61437618D01*
X147200952Y-61389999D01*
X147296190Y-61342380D01*
X147581905Y-61342380D01*
X147677143Y-61389999D01*
X147724762Y-61437618D01*
X147772381Y-61532856D01*
X147772381Y-61675714D01*
X147772381Y-60913809D02*
X147105714Y-60913809D01*
X147200952Y-60913809D02*
X147153333Y-60866190D01*
X147105714Y-60770952D01*
X147105714Y-60628094D01*
X147153333Y-60532856D01*
X147248571Y-60485237D01*
X147772381Y-60485237D01*
X147248571Y-60485237D02*
X147153333Y-60437618D01*
X147105714Y-60342380D01*
X147105714Y-60199523D01*
X147153333Y-60104285D01*
X147248571Y-60056666D01*
X147772381Y-60056666D01*
D13*
X142312143Y-42145000D02*
X143026429Y-42145000D01*
X142169286Y-42573571D02*
X142669286Y-41073571D01*
X143169286Y-42573571D01*
X144312143Y-42502143D02*
X144169286Y-42573571D01*
X143883572Y-42573571D01*
X143740714Y-42502143D01*
X143669286Y-42430714D01*
X143597857Y-42287857D01*
X143597857Y-41859286D01*
X143669286Y-41716429D01*
X143740714Y-41645000D01*
X143883572Y-41573571D01*
X144169286Y-41573571D01*
X144312143Y-41645000D01*
X145169286Y-42573571D02*
X145026428Y-42502143D01*
X144955000Y-42430714D01*
X144883571Y-42287857D01*
X144883571Y-41859286D01*
X144955000Y-41716429D01*
X145026428Y-41645000D01*
X145169286Y-41573571D01*
X145383571Y-41573571D01*
X145526428Y-41645000D01*
X145597857Y-41716429D01*
X145669286Y-41859286D01*
X145669286Y-42287857D01*
X145597857Y-42430714D01*
X145526428Y-42502143D01*
X145383571Y-42573571D01*
X145169286Y-42573571D01*
X146312143Y-42573571D02*
X146312143Y-41573571D01*
X146312143Y-41859286D02*
X146383571Y-41716429D01*
X146455000Y-41645000D01*
X146597857Y-41573571D01*
X146740714Y-41573571D01*
X147240714Y-41573571D02*
X147240714Y-42573571D01*
X147240714Y-41716429D02*
X147312142Y-41645000D01*
X147455000Y-41573571D01*
X147669285Y-41573571D01*
X147812142Y-41645000D01*
X147883571Y-41787857D01*
X147883571Y-42573571D01*
X150240714Y-41787857D02*
X150455000Y-41859286D01*
X150526428Y-41930714D01*
X150597857Y-42073571D01*
X150597857Y-42287857D01*
X150526428Y-42430714D01*
X150455000Y-42502143D01*
X150312142Y-42573571D01*
X149740714Y-42573571D01*
X149740714Y-41073571D01*
X150240714Y-41073571D01*
X150383571Y-41145000D01*
X150455000Y-41216429D01*
X150526428Y-41359286D01*
X150526428Y-41502143D01*
X150455000Y-41645000D01*
X150383571Y-41716429D01*
X150240714Y-41787857D01*
X149740714Y-41787857D01*
X151740714Y-41787857D02*
X151955000Y-41859286D01*
X152026428Y-41930714D01*
X152097857Y-42073571D01*
X152097857Y-42287857D01*
X152026428Y-42430714D01*
X151955000Y-42502143D01*
X151812142Y-42573571D01*
X151240714Y-42573571D01*
X151240714Y-41073571D01*
X151740714Y-41073571D01*
X151883571Y-41145000D01*
X151955000Y-41216429D01*
X152026428Y-41359286D01*
X152026428Y-41502143D01*
X151955000Y-41645000D01*
X151883571Y-41716429D01*
X151740714Y-41787857D01*
X151240714Y-41787857D01*
X153597857Y-42430714D02*
X153526428Y-42502143D01*
X153312142Y-42573571D01*
X153169285Y-42573571D01*
X152955000Y-42502143D01*
X152812142Y-42359286D01*
X152740714Y-42216429D01*
X152669285Y-41930714D01*
X152669285Y-41716429D01*
X152740714Y-41430714D01*
X152812142Y-41287857D01*
X152955000Y-41145000D01*
X153169285Y-41073571D01*
X153312142Y-41073571D01*
X153526428Y-41145000D01*
X153597857Y-41216429D01*
X144633572Y-45123571D02*
X144633572Y-43623571D01*
X145133572Y-44695000D01*
X145633572Y-43623571D01*
X145633572Y-45123571D01*
X146990715Y-45123571D02*
X146990715Y-44337857D01*
X146919286Y-44195000D01*
X146776429Y-44123571D01*
X146490715Y-44123571D01*
X146347858Y-44195000D01*
X146990715Y-45052143D02*
X146847858Y-45123571D01*
X146490715Y-45123571D01*
X146347858Y-45052143D01*
X146276429Y-44909286D01*
X146276429Y-44766429D01*
X146347858Y-44623571D01*
X146490715Y-44552143D01*
X146847858Y-44552143D01*
X146990715Y-44480714D01*
X147633572Y-45052143D02*
X147776429Y-45123571D01*
X148062144Y-45123571D01*
X148205001Y-45052143D01*
X148276429Y-44909286D01*
X148276429Y-44837857D01*
X148205001Y-44695000D01*
X148062144Y-44623571D01*
X147847858Y-44623571D01*
X147705001Y-44552143D01*
X147633572Y-44409286D01*
X147633572Y-44337857D01*
X147705001Y-44195000D01*
X147847858Y-44123571D01*
X148062144Y-44123571D01*
X148205001Y-44195000D01*
X148705001Y-44123571D02*
X149276430Y-44123571D01*
X148919287Y-43623571D02*
X148919287Y-44909286D01*
X148990715Y-45052143D01*
X149133573Y-45123571D01*
X149276430Y-45123571D01*
X150347858Y-45052143D02*
X150205001Y-45123571D01*
X149919287Y-45123571D01*
X149776430Y-45052143D01*
X149705001Y-44909286D01*
X149705001Y-44337857D01*
X149776430Y-44195000D01*
X149919287Y-44123571D01*
X150205001Y-44123571D01*
X150347858Y-44195000D01*
X150419287Y-44337857D01*
X150419287Y-44480714D01*
X149705001Y-44623571D01*
X151062144Y-45123571D02*
X151062144Y-44123571D01*
X151062144Y-44409286D02*
X151133572Y-44266429D01*
X151205001Y-44195000D01*
X151347858Y-44123571D01*
X151490715Y-44123571D01*
X144026429Y-47530714D02*
X143955000Y-47602143D01*
X143740714Y-47673571D01*
X143597857Y-47673571D01*
X143383572Y-47602143D01*
X143240714Y-47459286D01*
X143169286Y-47316429D01*
X143097857Y-47030714D01*
X143097857Y-46816429D01*
X143169286Y-46530714D01*
X143240714Y-46387857D01*
X143383572Y-46245000D01*
X143597857Y-46173571D01*
X143740714Y-46173571D01*
X143955000Y-46245000D01*
X144026429Y-46316429D01*
X145312143Y-47673571D02*
X145312143Y-46887857D01*
X145240714Y-46745000D01*
X145097857Y-46673571D01*
X144812143Y-46673571D01*
X144669286Y-46745000D01*
X145312143Y-47602143D02*
X145169286Y-47673571D01*
X144812143Y-47673571D01*
X144669286Y-47602143D01*
X144597857Y-47459286D01*
X144597857Y-47316429D01*
X144669286Y-47173571D01*
X144812143Y-47102143D01*
X145169286Y-47102143D01*
X145312143Y-47030714D01*
X146026429Y-47673571D02*
X146026429Y-46673571D01*
X146026429Y-46959286D02*
X146097857Y-46816429D01*
X146169286Y-46745000D01*
X146312143Y-46673571D01*
X146455000Y-46673571D01*
X146740714Y-46673571D02*
X147312143Y-46673571D01*
X146955000Y-46173571D02*
X146955000Y-47459286D01*
X147026428Y-47602143D01*
X147169286Y-47673571D01*
X147312143Y-47673571D01*
X147812143Y-47673571D02*
X147812143Y-46673571D01*
X147812143Y-46959286D02*
X147883571Y-46816429D01*
X147955000Y-46745000D01*
X148097857Y-46673571D01*
X148240714Y-46673571D01*
X148740714Y-47673571D02*
X148740714Y-46673571D01*
X148740714Y-46173571D02*
X148669285Y-46245000D01*
X148740714Y-46316429D01*
X148812142Y-46245000D01*
X148740714Y-46173571D01*
X148740714Y-46316429D01*
X150097857Y-47673571D02*
X150097857Y-46173571D01*
X150097857Y-47602143D02*
X149955000Y-47673571D01*
X149669286Y-47673571D01*
X149526428Y-47602143D01*
X149455000Y-47530714D01*
X149383571Y-47387857D01*
X149383571Y-46959286D01*
X149455000Y-46816429D01*
X149526428Y-46745000D01*
X149669286Y-46673571D01*
X149955000Y-46673571D01*
X150097857Y-46745000D01*
X151455000Y-46673571D02*
X151455000Y-47887857D01*
X151383571Y-48030714D01*
X151312143Y-48102143D01*
X151169286Y-48173571D01*
X150955000Y-48173571D01*
X150812143Y-48102143D01*
X151455000Y-47602143D02*
X151312143Y-47673571D01*
X151026429Y-47673571D01*
X150883571Y-47602143D01*
X150812143Y-47530714D01*
X150740714Y-47387857D01*
X150740714Y-46959286D01*
X150812143Y-46816429D01*
X150883571Y-46745000D01*
X151026429Y-46673571D01*
X151312143Y-46673571D01*
X151455000Y-46745000D01*
X152740714Y-47602143D02*
X152597857Y-47673571D01*
X152312143Y-47673571D01*
X152169286Y-47602143D01*
X152097857Y-47459286D01*
X152097857Y-46887857D01*
X152169286Y-46745000D01*
X152312143Y-46673571D01*
X152597857Y-46673571D01*
X152740714Y-46745000D01*
X152812143Y-46887857D01*
X152812143Y-47030714D01*
X152097857Y-47173571D01*
X144455000Y-49437857D02*
X144669286Y-49509286D01*
X144740714Y-49580714D01*
X144812143Y-49723571D01*
X144812143Y-49937857D01*
X144740714Y-50080714D01*
X144669286Y-50152143D01*
X144526428Y-50223571D01*
X143955000Y-50223571D01*
X143955000Y-48723571D01*
X144455000Y-48723571D01*
X144597857Y-48795000D01*
X144669286Y-48866429D01*
X144740714Y-49009286D01*
X144740714Y-49152143D01*
X144669286Y-49295000D01*
X144597857Y-49366429D01*
X144455000Y-49437857D01*
X143955000Y-49437857D01*
X145455000Y-50223571D02*
X145455000Y-49223571D01*
X145455000Y-49509286D02*
X145526428Y-49366429D01*
X145597857Y-49295000D01*
X145740714Y-49223571D01*
X145883571Y-49223571D01*
X146954999Y-50152143D02*
X146812142Y-50223571D01*
X146526428Y-50223571D01*
X146383571Y-50152143D01*
X146312142Y-50009286D01*
X146312142Y-49437857D01*
X146383571Y-49295000D01*
X146526428Y-49223571D01*
X146812142Y-49223571D01*
X146954999Y-49295000D01*
X147026428Y-49437857D01*
X147026428Y-49580714D01*
X146312142Y-49723571D01*
X148312142Y-50223571D02*
X148312142Y-49437857D01*
X148240713Y-49295000D01*
X148097856Y-49223571D01*
X147812142Y-49223571D01*
X147669285Y-49295000D01*
X148312142Y-50152143D02*
X148169285Y-50223571D01*
X147812142Y-50223571D01*
X147669285Y-50152143D01*
X147597856Y-50009286D01*
X147597856Y-49866429D01*
X147669285Y-49723571D01*
X147812142Y-49652143D01*
X148169285Y-49652143D01*
X148312142Y-49580714D01*
X149026428Y-50223571D02*
X149026428Y-48723571D01*
X149169285Y-49652143D02*
X149597856Y-50223571D01*
X149597856Y-49223571D02*
X149026428Y-49795000D01*
X150455000Y-50223571D02*
X150312142Y-50152143D01*
X150240714Y-50080714D01*
X150169285Y-49937857D01*
X150169285Y-49509286D01*
X150240714Y-49366429D01*
X150312142Y-49295000D01*
X150455000Y-49223571D01*
X150669285Y-49223571D01*
X150812142Y-49295000D01*
X150883571Y-49366429D01*
X150955000Y-49509286D01*
X150955000Y-49937857D01*
X150883571Y-50080714D01*
X150812142Y-50152143D01*
X150669285Y-50223571D01*
X150455000Y-50223571D01*
X152240714Y-49223571D02*
X152240714Y-50223571D01*
X151597857Y-49223571D02*
X151597857Y-50009286D01*
X151669285Y-50152143D01*
X151812143Y-50223571D01*
X152026428Y-50223571D01*
X152169285Y-50152143D01*
X152240714Y-50080714D01*
X152740714Y-49223571D02*
X153312143Y-49223571D01*
X152955000Y-48723571D02*
X152955000Y-50009286D01*
X153026428Y-50152143D01*
X153169286Y-50223571D01*
X153312143Y-50223571D01*
D11*
X163322000Y-148844000D02*
X163322000Y-149352000D01*
X163068000Y-149860000D02*
X163576000Y-149860000D01*
X162814000Y-149352000D02*
X163830000Y-149352000D01*
X163068000Y-147574000D02*
X163830000Y-147574000D01*
X163576000Y-147066000D02*
X163068000Y-147574000D01*
X162814000Y-147066000D02*
X163576000Y-147066000D01*
X162814000Y-144780000D02*
X163830000Y-144780000D01*
X163322000Y-141478000D02*
X163576000Y-141224000D01*
X163576000Y-141478000D02*
X163322000Y-141478000D01*
X163322000Y-141732000D02*
X163576000Y-141478000D01*
X163576000Y-141732000D02*
X163322000Y-141732000D01*
X163322000Y-141986000D02*
X163576000Y-141732000D01*
X163576000Y-141986000D02*
X163322000Y-141986000D01*
X163322000Y-142240000D02*
X163576000Y-141986000D01*
X163576000Y-142240000D02*
X163322000Y-142240000D01*
X163322000Y-142494000D02*
X163576000Y-142240000D01*
X163576000Y-142494000D02*
X163322000Y-142494000D01*
X163576000Y-141224000D02*
X163576000Y-142494000D01*
X163322000Y-141224000D02*
X163576000Y-141224000D01*
X163322000Y-142494000D02*
X163322000Y-141224000D01*
X163322000Y-143002000D02*
X163576000Y-143256000D01*
X163322000Y-143256000D02*
X163322000Y-143002000D01*
X163576000Y-143256000D02*
X163322000Y-143256000D01*
X163576000Y-143002000D02*
X163576000Y-143256000D01*
X163322000Y-143002000D02*
X163576000Y-143002000D01*
X162814000Y-139700000D02*
X163830000Y-139700000D01*
X162814000Y-137160000D02*
X163830000Y-137160000D01*
X162814000Y-134620000D02*
X163830000Y-134620000D01*
X162814000Y-132080000D02*
X163830000Y-132080000D01*
X162814000Y-129540000D02*
X163830000Y-129540000D01*
X162814000Y-127000000D02*
X163830000Y-127000000D01*
X162814000Y-124460000D02*
X163830000Y-124460000D01*
X162814000Y-121920000D02*
X163830000Y-121920000D01*
X162814000Y-119380000D02*
X163830000Y-119380000D01*
X162814000Y-116840000D02*
X163830000Y-116840000D01*
X162814000Y-114300000D02*
X163830000Y-114300000D01*
X162814000Y-111760000D02*
X163830000Y-111760000D01*
X162814000Y-109220000D02*
X163830000Y-109220000D01*
X162814000Y-106680000D02*
X163830000Y-106680000D01*
X162814000Y-104140000D02*
X163830000Y-104140000D01*
X162814000Y-101600000D02*
X163830000Y-101600000D01*
X162814000Y-96520000D02*
X163830000Y-96520000D01*
X162814000Y-93980000D02*
X163830000Y-93980000D01*
X162814000Y-91440000D02*
X163830000Y-91440000D01*
X162814000Y-88900000D02*
X163830000Y-88900000D01*
X162814000Y-86360000D02*
X163830000Y-86360000D01*
X162814000Y-83820000D02*
X163830000Y-83820000D01*
X162814000Y-81280000D02*
X163830000Y-81280000D01*
X162814000Y-78740000D02*
X163830000Y-78740000D01*
X162814000Y-76200000D02*
X163830000Y-76200000D01*
X162814000Y-73660000D02*
X163830000Y-73660000D01*
X162814000Y-71120000D02*
X163830000Y-71120000D01*
X162814000Y-68580000D02*
X163830000Y-68580000D01*
X162814000Y-66040000D02*
X163830000Y-66040000D01*
X162814000Y-63500000D02*
X163830000Y-63500000D01*
X162814000Y-58420000D02*
X163830000Y-58420000D01*
X162814000Y-55880000D02*
X163830000Y-55880000D01*
X162814000Y-53340000D02*
X163830000Y-53340000D01*
X162814000Y-50800000D02*
X163830000Y-50800000D01*
X162814000Y-48260000D02*
X163830000Y-48260000D01*
X162814000Y-45720000D02*
X163830000Y-45720000D01*
X162814000Y-43180000D02*
X163830000Y-43180000D01*
X162814000Y-40640000D02*
X163830000Y-40640000D01*
X140335000Y-58420000D02*
X140970000Y-57785000D01*
X140335000Y-58420000D02*
X139700000Y-57785000D01*
X140335000Y-55880000D02*
X140335000Y-58420000D01*
D13*
X152360715Y-107215714D02*
X152289286Y-107287143D01*
X152075000Y-107358571D01*
X151932143Y-107358571D01*
X151717858Y-107287143D01*
X151575000Y-107144286D01*
X151503572Y-107001429D01*
X151432143Y-106715714D01*
X151432143Y-106501429D01*
X151503572Y-106215714D01*
X151575000Y-106072857D01*
X151717858Y-105930000D01*
X151932143Y-105858571D01*
X152075000Y-105858571D01*
X152289286Y-105930000D01*
X152360715Y-106001429D01*
X152932143Y-107287143D02*
X153146429Y-107358571D01*
X153503572Y-107358571D01*
X153646429Y-107287143D01*
X153717858Y-107215714D01*
X153789286Y-107072857D01*
X153789286Y-106930000D01*
X153717858Y-106787143D01*
X153646429Y-106715714D01*
X153503572Y-106644286D01*
X153217858Y-106572857D01*
X153075000Y-106501429D01*
X153003572Y-106430000D01*
X152932143Y-106287143D01*
X152932143Y-106144286D01*
X153003572Y-106001429D01*
X153075000Y-105930000D01*
X153217858Y-105858571D01*
X153575000Y-105858571D01*
X153789286Y-105930000D01*
X156432143Y-107358571D02*
X155932143Y-106644286D01*
X155575000Y-107358571D02*
X155575000Y-105858571D01*
X156146428Y-105858571D01*
X156289286Y-105930000D01*
X156360714Y-106001429D01*
X156432143Y-106144286D01*
X156432143Y-106358571D01*
X156360714Y-106501429D01*
X156289286Y-106572857D01*
X156146428Y-106644286D01*
X155575000Y-106644286D01*
X158146428Y-105787143D02*
X156860714Y-107715714D01*
X158503572Y-105858571D02*
X158860715Y-107358571D01*
X159146429Y-106287143D01*
X159432143Y-107358571D01*
X159789286Y-105858571D01*
X151047143Y-109898571D02*
X150547143Y-109184286D01*
X150190000Y-109898571D02*
X150190000Y-108398571D01*
X150761428Y-108398571D01*
X150904286Y-108470000D01*
X150975714Y-108541429D01*
X151047143Y-108684286D01*
X151047143Y-108898571D01*
X150975714Y-109041429D01*
X150904286Y-109112857D01*
X150761428Y-109184286D01*
X150190000Y-109184286D01*
X152761428Y-108327143D02*
X151475714Y-110255714D01*
X153118572Y-108398571D02*
X153475715Y-109898571D01*
X153761429Y-108827143D01*
X154047143Y-109898571D01*
X154404286Y-108398571D01*
X156975715Y-109898571D02*
X156475715Y-109184286D01*
X156118572Y-109898571D02*
X156118572Y-108398571D01*
X156690000Y-108398571D01*
X156832858Y-108470000D01*
X156904286Y-108541429D01*
X156975715Y-108684286D01*
X156975715Y-108898571D01*
X156904286Y-109041429D01*
X156832858Y-109112857D01*
X156690000Y-109184286D01*
X156118572Y-109184286D01*
X157618572Y-109898571D02*
X157618572Y-108398571D01*
X157975715Y-108398571D01*
X158190000Y-108470000D01*
X158332858Y-108612857D01*
X158404286Y-108755714D01*
X158475715Y-109041429D01*
X158475715Y-109255714D01*
X158404286Y-109541429D01*
X158332858Y-109684286D01*
X158190000Y-109827143D01*
X157975715Y-109898571D01*
X157618572Y-109898571D01*
X159404286Y-109184286D02*
X159404286Y-109898571D01*
X158904286Y-108398571D02*
X159404286Y-109184286D01*
X159904286Y-108398571D01*
X158035715Y-149038571D02*
X158178572Y-149038571D01*
X158321429Y-149110000D01*
X158392858Y-149181429D01*
X158464287Y-149324286D01*
X158535715Y-149610000D01*
X158535715Y-149967143D01*
X158464287Y-150252857D01*
X158392858Y-150395714D01*
X158321429Y-150467143D01*
X158178572Y-150538571D01*
X158035715Y-150538571D01*
X157892858Y-150467143D01*
X157821429Y-150395714D01*
X157750001Y-150252857D01*
X157678572Y-149967143D01*
X157678572Y-149610000D01*
X157750001Y-149324286D01*
X157821429Y-149181429D01*
X157892858Y-149110000D01*
X158035715Y-149038571D01*
X158964286Y-149038571D02*
X159464286Y-150538571D01*
X159964286Y-149038571D01*
X155551429Y-147427143D02*
X156694286Y-147427143D01*
X156122857Y-147998571D02*
X156122857Y-146855714D01*
X158122858Y-146498571D02*
X157408572Y-146498571D01*
X157337143Y-147212857D01*
X157408572Y-147141429D01*
X157551429Y-147070000D01*
X157908572Y-147070000D01*
X158051429Y-147141429D01*
X158122858Y-147212857D01*
X158194286Y-147355714D01*
X158194286Y-147712857D01*
X158122858Y-147855714D01*
X158051429Y-147927143D01*
X157908572Y-147998571D01*
X157551429Y-147998571D01*
X157408572Y-147927143D01*
X157337143Y-147855714D01*
X158622857Y-146498571D02*
X159122857Y-147998571D01*
X159622857Y-146498571D01*
X154837143Y-145030000D02*
X155551429Y-145030000D01*
X154694286Y-145458571D02*
X155194286Y-143958571D01*
X155694286Y-145458571D01*
X156980000Y-144030000D02*
X156837143Y-143958571D01*
X156622857Y-143958571D01*
X156408572Y-144030000D01*
X156265714Y-144172857D01*
X156194286Y-144315714D01*
X156122857Y-144601429D01*
X156122857Y-144815714D01*
X156194286Y-145101429D01*
X156265714Y-145244286D01*
X156408572Y-145387143D01*
X156622857Y-145458571D01*
X156765714Y-145458571D01*
X156980000Y-145387143D01*
X157051429Y-145315714D01*
X157051429Y-144815714D01*
X156765714Y-144815714D01*
X157694286Y-145458571D02*
X157694286Y-143958571D01*
X158551429Y-145458571D01*
X158551429Y-143958571D01*
X159265715Y-145458571D02*
X159265715Y-143958571D01*
X159622858Y-143958571D01*
X159837143Y-144030000D01*
X159980001Y-144172857D01*
X160051429Y-144315714D01*
X160122858Y-144601429D01*
X160122858Y-144815714D01*
X160051429Y-145101429D01*
X159980001Y-145244286D01*
X159837143Y-145387143D01*
X159622858Y-145458571D01*
X159265715Y-145458571D01*
X155551429Y-142347143D02*
X156694286Y-142347143D01*
X158122858Y-141418571D02*
X157408572Y-141418571D01*
X157337143Y-142132857D01*
X157408572Y-142061429D01*
X157551429Y-141990000D01*
X157908572Y-141990000D01*
X158051429Y-142061429D01*
X158122858Y-142132857D01*
X158194286Y-142275714D01*
X158194286Y-142632857D01*
X158122858Y-142775714D01*
X158051429Y-142847143D01*
X157908572Y-142918571D01*
X157551429Y-142918571D01*
X157408572Y-142847143D01*
X157337143Y-142775714D01*
X158622857Y-141418571D02*
X159122857Y-142918571D01*
X159622857Y-141418571D01*
X155230000Y-139950000D02*
X155944286Y-139950000D01*
X155087143Y-140378571D02*
X155587143Y-138878571D01*
X156087143Y-140378571D01*
X156587143Y-140378571D02*
X156587143Y-138878571D01*
X156944286Y-138878571D01*
X157158571Y-138950000D01*
X157301429Y-139092857D01*
X157372857Y-139235714D01*
X157444286Y-139521429D01*
X157444286Y-139735714D01*
X157372857Y-140021429D01*
X157301429Y-140164286D01*
X157158571Y-140307143D01*
X156944286Y-140378571D01*
X156587143Y-140378571D01*
X158087143Y-140378571D02*
X158087143Y-138878571D01*
X158801429Y-140378571D02*
X158801429Y-138878571D01*
X159658572Y-140378571D01*
X159658572Y-138878571D01*
X152960000Y-137410000D02*
X153674286Y-137410000D01*
X152817143Y-137838571D02*
X153317143Y-136338571D01*
X153817143Y-137838571D01*
X154317143Y-137838571D02*
X154317143Y-136338571D01*
X154674286Y-136338571D01*
X154888571Y-136410000D01*
X155031429Y-136552857D01*
X155102857Y-136695714D01*
X155174286Y-136981429D01*
X155174286Y-137195714D01*
X155102857Y-137481429D01*
X155031429Y-137624286D01*
X154888571Y-137767143D01*
X154674286Y-137838571D01*
X154317143Y-137838571D01*
X156102857Y-136338571D02*
X156388571Y-136338571D01*
X156531429Y-136410000D01*
X156674286Y-136552857D01*
X156745714Y-136838571D01*
X156745714Y-137338571D01*
X156674286Y-137624286D01*
X156531429Y-137767143D01*
X156388571Y-137838571D01*
X156102857Y-137838571D01*
X155960000Y-137767143D01*
X155817143Y-137624286D01*
X155745714Y-137338571D01*
X155745714Y-136838571D01*
X155817143Y-136552857D01*
X155960000Y-136410000D01*
X156102857Y-136338571D01*
X157388572Y-136338571D02*
X157388572Y-137552857D01*
X157460000Y-137695714D01*
X157531429Y-137767143D01*
X157674286Y-137838571D01*
X157960000Y-137838571D01*
X158102858Y-137767143D01*
X158174286Y-137695714D01*
X158245715Y-137552857D01*
X158245715Y-136338571D01*
X158745715Y-136338571D02*
X159602858Y-136338571D01*
X159174287Y-137838571D02*
X159174287Y-136338571D01*
X147955714Y-133798571D02*
X148241428Y-133798571D01*
X148384286Y-133870000D01*
X148527143Y-134012857D01*
X148598571Y-134298571D01*
X148598571Y-134798571D01*
X148527143Y-135084286D01*
X148384286Y-135227143D01*
X148241428Y-135298571D01*
X147955714Y-135298571D01*
X147812857Y-135227143D01*
X147670000Y-135084286D01*
X147598571Y-134798571D01*
X147598571Y-134298571D01*
X147670000Y-134012857D01*
X147812857Y-133870000D01*
X147955714Y-133798571D01*
X149241429Y-134512857D02*
X149741429Y-134512857D01*
X149955715Y-135298571D02*
X149241429Y-135298571D01*
X149241429Y-133798571D01*
X149955715Y-133798571D01*
X150527143Y-133941429D02*
X150598572Y-133870000D01*
X150741429Y-133798571D01*
X151098572Y-133798571D01*
X151241429Y-133870000D01*
X151312858Y-133941429D01*
X151384286Y-134084286D01*
X151384286Y-134227143D01*
X151312858Y-134441429D01*
X150455715Y-135298571D01*
X151384286Y-135298571D01*
X153098571Y-133727143D02*
X151812857Y-135655714D01*
X154312858Y-135298571D02*
X153598572Y-135298571D01*
X153598572Y-133798571D01*
X154812858Y-135298571D02*
X154812858Y-133798571D01*
X155384286Y-133798571D01*
X155527144Y-133870000D01*
X155598572Y-133941429D01*
X155670001Y-134084286D01*
X155670001Y-134298571D01*
X155598572Y-134441429D01*
X155527144Y-134512857D01*
X155384286Y-134584286D01*
X154812858Y-134584286D01*
X156241429Y-135227143D02*
X156455715Y-135298571D01*
X156812858Y-135298571D01*
X156955715Y-135227143D01*
X157027144Y-135155714D01*
X157098572Y-135012857D01*
X157098572Y-134870000D01*
X157027144Y-134727143D01*
X156955715Y-134655714D01*
X156812858Y-134584286D01*
X156527144Y-134512857D01*
X156384286Y-134441429D01*
X156312858Y-134370000D01*
X156241429Y-134227143D01*
X156241429Y-134084286D01*
X156312858Y-133941429D01*
X156384286Y-133870000D01*
X156527144Y-133798571D01*
X156884286Y-133798571D01*
X157098572Y-133870000D01*
X157527143Y-133798571D02*
X158384286Y-133798571D01*
X157955715Y-135298571D02*
X157955715Y-133798571D01*
X159384286Y-134512857D02*
X159598572Y-134584286D01*
X159670000Y-134655714D01*
X159741429Y-134798571D01*
X159741429Y-135012857D01*
X159670000Y-135155714D01*
X159598572Y-135227143D01*
X159455714Y-135298571D01*
X158884286Y-135298571D01*
X158884286Y-133798571D01*
X159384286Y-133798571D01*
X159527143Y-133870000D01*
X159598572Y-133941429D01*
X159670000Y-134084286D01*
X159670000Y-134227143D01*
X159598572Y-134370000D01*
X159527143Y-134441429D01*
X159384286Y-134512857D01*
X158884286Y-134512857D01*
D14*
X144679286Y-132622857D02*
X144279286Y-132051429D01*
X143993571Y-132622857D02*
X143993571Y-131422857D01*
X144450714Y-131422857D01*
X144565000Y-131480000D01*
X144622143Y-131537143D01*
X144679286Y-131651429D01*
X144679286Y-131822857D01*
X144622143Y-131937143D01*
X144565000Y-131994286D01*
X144450714Y-132051429D01*
X143993571Y-132051429D01*
X145422143Y-131422857D02*
X145650714Y-131422857D01*
X145765000Y-131480000D01*
X145879286Y-131594286D01*
X145936428Y-131822857D01*
X145936428Y-132222857D01*
X145879286Y-132451429D01*
X145765000Y-132565714D01*
X145650714Y-132622857D01*
X145422143Y-132622857D01*
X145307857Y-132565714D01*
X145193571Y-132451429D01*
X145136428Y-132222857D01*
X145136428Y-131822857D01*
X145193571Y-131594286D01*
X145307857Y-131480000D01*
X145422143Y-131422857D01*
X146450714Y-132622857D02*
X146450714Y-131422857D01*
X146850714Y-132280000D01*
X147250714Y-131422857D01*
X147250714Y-132622857D01*
X147765000Y-132565714D02*
X147936429Y-132622857D01*
X148222143Y-132622857D01*
X148336429Y-132565714D01*
X148393572Y-132508571D01*
X148450715Y-132394286D01*
X148450715Y-132280000D01*
X148393572Y-132165714D01*
X148336429Y-132108571D01*
X148222143Y-132051429D01*
X147993572Y-131994286D01*
X147879286Y-131937143D01*
X147822143Y-131880000D01*
X147765000Y-131765714D01*
X147765000Y-131651429D01*
X147822143Y-131537143D01*
X147879286Y-131480000D01*
X147993572Y-131422857D01*
X148279286Y-131422857D01*
X148450715Y-131480000D01*
X148793572Y-131422857D02*
X149479286Y-131422857D01*
X149136429Y-132622857D02*
X149136429Y-131422857D01*
X150279286Y-131994286D02*
X150450715Y-132051429D01*
X150507858Y-132108571D01*
X150565001Y-132222857D01*
X150565001Y-132394286D01*
X150507858Y-132508571D01*
X150450715Y-132565714D01*
X150336429Y-132622857D01*
X149879286Y-132622857D01*
X149879286Y-131422857D01*
X150279286Y-131422857D01*
X150393572Y-131480000D01*
X150450715Y-131537143D01*
X150507858Y-131651429D01*
X150507858Y-131765714D01*
X150450715Y-131880000D01*
X150393572Y-131937143D01*
X150279286Y-131994286D01*
X149879286Y-131994286D01*
X151936429Y-131365714D02*
X150907858Y-132908571D01*
X153022144Y-132508571D02*
X152965001Y-132565714D01*
X152793572Y-132622857D01*
X152679286Y-132622857D01*
X152507858Y-132565714D01*
X152393572Y-132451429D01*
X152336429Y-132337143D01*
X152279286Y-132108571D01*
X152279286Y-131937143D01*
X152336429Y-131708571D01*
X152393572Y-131594286D01*
X152507858Y-131480000D01*
X152679286Y-131422857D01*
X152793572Y-131422857D01*
X152965001Y-131480000D01*
X153022144Y-131537143D01*
X154222144Y-132622857D02*
X153822144Y-132051429D01*
X153536429Y-132622857D02*
X153536429Y-131422857D01*
X153993572Y-131422857D01*
X154107858Y-131480000D01*
X154165001Y-131537143D01*
X154222144Y-131651429D01*
X154222144Y-131822857D01*
X154165001Y-131937143D01*
X154107858Y-131994286D01*
X153993572Y-132051429D01*
X153536429Y-132051429D01*
X154565001Y-131422857D02*
X155250715Y-131422857D01*
X154907858Y-132622857D02*
X154907858Y-131422857D01*
X156336430Y-132508571D02*
X156279287Y-132565714D01*
X156107858Y-132622857D01*
X155993572Y-132622857D01*
X155822144Y-132565714D01*
X155707858Y-132451429D01*
X155650715Y-132337143D01*
X155593572Y-132108571D01*
X155593572Y-131937143D01*
X155650715Y-131708571D01*
X155707858Y-131594286D01*
X155822144Y-131480000D01*
X155993572Y-131422857D01*
X156107858Y-131422857D01*
X156279287Y-131480000D01*
X156336430Y-131537143D01*
X157536430Y-132622857D02*
X157136430Y-132051429D01*
X156850715Y-132622857D02*
X156850715Y-131422857D01*
X157307858Y-131422857D01*
X157422144Y-131480000D01*
X157479287Y-131537143D01*
X157536430Y-131651429D01*
X157536430Y-131822857D01*
X157479287Y-131937143D01*
X157422144Y-131994286D01*
X157307858Y-132051429D01*
X156850715Y-132051429D01*
X157993572Y-132565714D02*
X158165001Y-132622857D01*
X158450715Y-132622857D01*
X158565001Y-132565714D01*
X158622144Y-132508571D01*
X158679287Y-132394286D01*
X158679287Y-132280000D01*
X158622144Y-132165714D01*
X158565001Y-132108571D01*
X158450715Y-132051429D01*
X158222144Y-131994286D01*
X158107858Y-131937143D01*
X158050715Y-131880000D01*
X157993572Y-131765714D01*
X157993572Y-131651429D01*
X158050715Y-131537143D01*
X158107858Y-131480000D01*
X158222144Y-131422857D01*
X158507858Y-131422857D01*
X158679287Y-131480000D01*
X159022144Y-131422857D02*
X159707858Y-131422857D01*
X159365001Y-132622857D02*
X159365001Y-131422857D01*
D13*
X153602857Y-130218571D02*
X153102857Y-129504286D01*
X152745714Y-130218571D02*
X152745714Y-128718571D01*
X153317142Y-128718571D01*
X153460000Y-128790000D01*
X153531428Y-128861429D01*
X153602857Y-129004286D01*
X153602857Y-129218571D01*
X153531428Y-129361429D01*
X153460000Y-129432857D01*
X153317142Y-129504286D01*
X152745714Y-129504286D01*
X154531428Y-128718571D02*
X154817142Y-128718571D01*
X154960000Y-128790000D01*
X155102857Y-128932857D01*
X155174285Y-129218571D01*
X155174285Y-129718571D01*
X155102857Y-130004286D01*
X154960000Y-130147143D01*
X154817142Y-130218571D01*
X154531428Y-130218571D01*
X154388571Y-130147143D01*
X154245714Y-130004286D01*
X154174285Y-129718571D01*
X154174285Y-129218571D01*
X154245714Y-128932857D01*
X154388571Y-128790000D01*
X154531428Y-128718571D01*
X155817143Y-130218571D02*
X155817143Y-128718571D01*
X156317143Y-129790000D01*
X156817143Y-128718571D01*
X156817143Y-130218571D01*
X158531429Y-130361429D02*
X158388572Y-130290000D01*
X158245715Y-130147143D01*
X158031429Y-129932857D01*
X157888572Y-129861429D01*
X157745715Y-129861429D01*
X157817143Y-130218571D02*
X157674286Y-130147143D01*
X157531429Y-130004286D01*
X157460000Y-129718571D01*
X157460000Y-129218571D01*
X157531429Y-128932857D01*
X157674286Y-128790000D01*
X157817143Y-128718571D01*
X158102857Y-128718571D01*
X158245715Y-128790000D01*
X158388572Y-128932857D01*
X158460000Y-129218571D01*
X158460000Y-129718571D01*
X158388572Y-130004286D01*
X158245715Y-130147143D01*
X158102857Y-130218571D01*
X157817143Y-130218571D01*
X159031429Y-129790000D02*
X159745715Y-129790000D01*
X158888572Y-130218571D02*
X159388572Y-128718571D01*
X159888572Y-130218571D01*
D14*
X148298572Y-127428571D02*
X148241429Y-127485714D01*
X148070000Y-127542857D01*
X147955714Y-127542857D01*
X147784286Y-127485714D01*
X147670000Y-127371429D01*
X147612857Y-127257143D01*
X147555714Y-127028571D01*
X147555714Y-126857143D01*
X147612857Y-126628571D01*
X147670000Y-126514286D01*
X147784286Y-126400000D01*
X147955714Y-126342857D01*
X148070000Y-126342857D01*
X148241429Y-126400000D01*
X148298572Y-126457143D01*
X148755714Y-127485714D02*
X148927143Y-127542857D01*
X149212857Y-127542857D01*
X149327143Y-127485714D01*
X149384286Y-127428571D01*
X149441429Y-127314286D01*
X149441429Y-127200000D01*
X149384286Y-127085714D01*
X149327143Y-127028571D01*
X149212857Y-126971429D01*
X148984286Y-126914286D01*
X148870000Y-126857143D01*
X148812857Y-126800000D01*
X148755714Y-126685714D01*
X148755714Y-126571429D01*
X148812857Y-126457143D01*
X148870000Y-126400000D01*
X148984286Y-126342857D01*
X149270000Y-126342857D01*
X149441429Y-126400000D01*
X150184286Y-126971429D02*
X150184286Y-127542857D01*
X149784286Y-126342857D02*
X150184286Y-126971429D01*
X150584286Y-126342857D01*
X150984285Y-127542857D02*
X150984285Y-126342857D01*
X151670000Y-127542857D01*
X151670000Y-126342857D01*
X152927143Y-127428571D02*
X152870000Y-127485714D01*
X152698571Y-127542857D01*
X152584285Y-127542857D01*
X152412857Y-127485714D01*
X152298571Y-127371429D01*
X152241428Y-127257143D01*
X152184285Y-127028571D01*
X152184285Y-126857143D01*
X152241428Y-126628571D01*
X152298571Y-126514286D01*
X152412857Y-126400000D01*
X152584285Y-126342857D01*
X152698571Y-126342857D01*
X152870000Y-126400000D01*
X152927143Y-126457143D01*
X154298571Y-126285714D02*
X153270000Y-127828571D01*
X154698571Y-127542857D02*
X154698571Y-126342857D01*
X155098571Y-127200000D01*
X155498571Y-126342857D01*
X155498571Y-127542857D01*
X156012857Y-127200000D02*
X156584286Y-127200000D01*
X155898572Y-127542857D02*
X156298572Y-126342857D01*
X156698572Y-127542857D01*
X157098571Y-127542857D02*
X157098571Y-126342857D01*
X157384286Y-126342857D01*
X157555714Y-126400000D01*
X157670000Y-126514286D01*
X157727143Y-126628571D01*
X157784286Y-126857143D01*
X157784286Y-127028571D01*
X157727143Y-127257143D01*
X157670000Y-127371429D01*
X157555714Y-127485714D01*
X157384286Y-127542857D01*
X157098571Y-127542857D01*
X158298571Y-126914286D02*
X158698571Y-126914286D01*
X158870000Y-127542857D02*
X158298571Y-127542857D01*
X158298571Y-126342857D01*
X158870000Y-126342857D01*
X159212857Y-126342857D02*
X159898571Y-126342857D01*
X159555714Y-127542857D02*
X159555714Y-126342857D01*
D13*
X153567143Y-125138571D02*
X153067143Y-124424286D01*
X152710000Y-125138571D02*
X152710000Y-123638571D01*
X153281428Y-123638571D01*
X153424286Y-123710000D01*
X153495714Y-123781429D01*
X153567143Y-123924286D01*
X153567143Y-124138571D01*
X153495714Y-124281429D01*
X153424286Y-124352857D01*
X153281428Y-124424286D01*
X152710000Y-124424286D01*
X154495714Y-123638571D02*
X154781428Y-123638571D01*
X154924286Y-123710000D01*
X155067143Y-123852857D01*
X155138571Y-124138571D01*
X155138571Y-124638571D01*
X155067143Y-124924286D01*
X154924286Y-125067143D01*
X154781428Y-125138571D01*
X154495714Y-125138571D01*
X154352857Y-125067143D01*
X154210000Y-124924286D01*
X154138571Y-124638571D01*
X154138571Y-124138571D01*
X154210000Y-123852857D01*
X154352857Y-123710000D01*
X154495714Y-123638571D01*
X155781429Y-125138571D02*
X155781429Y-123638571D01*
X156281429Y-124710000D01*
X156781429Y-123638571D01*
X156781429Y-125138571D01*
X157781429Y-123638571D02*
X158067143Y-123638571D01*
X158210001Y-123710000D01*
X158352858Y-123852857D01*
X158424286Y-124138571D01*
X158424286Y-124638571D01*
X158352858Y-124924286D01*
X158210001Y-125067143D01*
X158067143Y-125138571D01*
X157781429Y-125138571D01*
X157638572Y-125067143D01*
X157495715Y-124924286D01*
X157424286Y-124638571D01*
X157424286Y-124138571D01*
X157495715Y-123852857D01*
X157638572Y-123710000D01*
X157781429Y-123638571D01*
X159067144Y-124352857D02*
X159567144Y-124352857D01*
X159781430Y-125138571D02*
X159067144Y-125138571D01*
X159067144Y-123638571D01*
X159781430Y-123638571D01*
X156579286Y-122598571D02*
X156579286Y-121098571D01*
X158150715Y-122598571D02*
X157650715Y-121884286D01*
X157293572Y-122598571D02*
X157293572Y-121098571D01*
X157865000Y-121098571D01*
X158007858Y-121170000D01*
X158079286Y-121241429D01*
X158150715Y-121384286D01*
X158150715Y-121598571D01*
X158079286Y-121741429D01*
X158007858Y-121812857D01*
X157865000Y-121884286D01*
X157293572Y-121884286D01*
X159793572Y-122741429D02*
X159650715Y-122670000D01*
X159507858Y-122527143D01*
X159293572Y-122312857D01*
X159150715Y-122241429D01*
X159007858Y-122241429D01*
X159079286Y-122598571D02*
X158936429Y-122527143D01*
X158793572Y-122384286D01*
X158722143Y-122098571D01*
X158722143Y-121598571D01*
X158793572Y-121312857D01*
X158936429Y-121170000D01*
X159079286Y-121098571D01*
X159365000Y-121098571D01*
X159507858Y-121170000D01*
X159650715Y-121312857D01*
X159722143Y-121598571D01*
X159722143Y-122098571D01*
X159650715Y-122384286D01*
X159507858Y-122527143D01*
X159365000Y-122598571D01*
X159079286Y-122598571D01*
X156472143Y-120058571D02*
X156472143Y-118558571D01*
X157329286Y-120058571D01*
X157329286Y-118558571D01*
X158043572Y-120058571D02*
X158043572Y-118558571D01*
X158543572Y-119630000D01*
X159043572Y-118558571D01*
X159043572Y-120058571D01*
X159757858Y-120058571D02*
X159757858Y-118558571D01*
X154031429Y-117518571D02*
X153531429Y-116804286D01*
X153174286Y-117518571D02*
X153174286Y-116018571D01*
X153745714Y-116018571D01*
X153888572Y-116090000D01*
X153960000Y-116161429D01*
X154031429Y-116304286D01*
X154031429Y-116518571D01*
X153960000Y-116661429D01*
X153888572Y-116732857D01*
X153745714Y-116804286D01*
X153174286Y-116804286D01*
X154674286Y-116732857D02*
X155174286Y-116732857D01*
X155388572Y-117518571D02*
X154674286Y-117518571D01*
X154674286Y-116018571D01*
X155388572Y-116018571D01*
X155960000Y-117447143D02*
X156174286Y-117518571D01*
X156531429Y-117518571D01*
X156674286Y-117447143D01*
X156745715Y-117375714D01*
X156817143Y-117232857D01*
X156817143Y-117090000D01*
X156745715Y-116947143D01*
X156674286Y-116875714D01*
X156531429Y-116804286D01*
X156245715Y-116732857D01*
X156102857Y-116661429D01*
X156031429Y-116590000D01*
X155960000Y-116447143D01*
X155960000Y-116304286D01*
X156031429Y-116161429D01*
X156102857Y-116090000D01*
X156245715Y-116018571D01*
X156602857Y-116018571D01*
X156817143Y-116090000D01*
X157460000Y-116732857D02*
X157960000Y-116732857D01*
X158174286Y-117518571D02*
X157460000Y-117518571D01*
X157460000Y-116018571D01*
X158174286Y-116018571D01*
X158602857Y-116018571D02*
X159460000Y-116018571D01*
X159031429Y-117518571D02*
X159031429Y-116018571D01*
X152888572Y-114978571D02*
X152888572Y-113478571D01*
X153745715Y-114978571D01*
X153745715Y-113478571D01*
X154460001Y-114978571D02*
X154460001Y-113478571D01*
X155031429Y-113478571D01*
X155174287Y-113550000D01*
X155245715Y-113621429D01*
X155317144Y-113764286D01*
X155317144Y-113978571D01*
X155245715Y-114121429D01*
X155174287Y-114192857D01*
X155031429Y-114264286D01*
X154460001Y-114264286D01*
X156745715Y-113550000D02*
X156602858Y-113478571D01*
X156388572Y-113478571D01*
X156174287Y-113550000D01*
X156031429Y-113692857D01*
X155960001Y-113835714D01*
X155888572Y-114121429D01*
X155888572Y-114335714D01*
X155960001Y-114621429D01*
X156031429Y-114764286D01*
X156174287Y-114907143D01*
X156388572Y-114978571D01*
X156531429Y-114978571D01*
X156745715Y-114907143D01*
X156817144Y-114835714D01*
X156817144Y-114335714D01*
X156531429Y-114335714D01*
X157960001Y-114192857D02*
X157460001Y-114192857D01*
X157460001Y-114978571D02*
X157460001Y-113478571D01*
X158174287Y-113478571D01*
X158745715Y-114978571D02*
X158745715Y-113478571D01*
X159102858Y-113478571D01*
X159317143Y-113550000D01*
X159460001Y-113692857D01*
X159531429Y-113835714D01*
X159602858Y-114121429D01*
X159602858Y-114335714D01*
X159531429Y-114621429D01*
X159460001Y-114764286D01*
X159317143Y-114907143D01*
X159102858Y-114978571D01*
X158745715Y-114978571D01*
X152888572Y-112438571D02*
X152888572Y-110938571D01*
X153745715Y-112438571D01*
X153745715Y-110938571D01*
X154460001Y-112438571D02*
X154460001Y-110938571D01*
X155031429Y-110938571D01*
X155174287Y-111010000D01*
X155245715Y-111081429D01*
X155317144Y-111224286D01*
X155317144Y-111438571D01*
X155245715Y-111581429D01*
X155174287Y-111652857D01*
X155031429Y-111724286D01*
X154460001Y-111724286D01*
X156745715Y-111010000D02*
X156602858Y-110938571D01*
X156388572Y-110938571D01*
X156174287Y-111010000D01*
X156031429Y-111152857D01*
X155960001Y-111295714D01*
X155888572Y-111581429D01*
X155888572Y-111795714D01*
X155960001Y-112081429D01*
X156031429Y-112224286D01*
X156174287Y-112367143D01*
X156388572Y-112438571D01*
X156531429Y-112438571D01*
X156745715Y-112367143D01*
X156817144Y-112295714D01*
X156817144Y-111795714D01*
X156531429Y-111795714D01*
X157960001Y-111652857D02*
X157460001Y-111652857D01*
X157460001Y-112438571D02*
X157460001Y-110938571D01*
X158174287Y-110938571D01*
X159602858Y-112295714D02*
X159531429Y-112367143D01*
X159317143Y-112438571D01*
X159174286Y-112438571D01*
X158960001Y-112367143D01*
X158817143Y-112224286D01*
X158745715Y-112081429D01*
X158674286Y-111795714D01*
X158674286Y-111581429D01*
X158745715Y-111295714D01*
X158817143Y-111152857D01*
X158960001Y-111010000D01*
X159174286Y-110938571D01*
X159317143Y-110938571D01*
X159531429Y-111010000D01*
X159602858Y-111081429D01*
X153781429Y-104675714D02*
X153710000Y-104747143D01*
X153495714Y-104818571D01*
X153352857Y-104818571D01*
X153138572Y-104747143D01*
X152995714Y-104604286D01*
X152924286Y-104461429D01*
X152852857Y-104175714D01*
X152852857Y-103961429D01*
X152924286Y-103675714D01*
X152995714Y-103532857D01*
X153138572Y-103390000D01*
X153352857Y-103318571D01*
X153495714Y-103318571D01*
X153710000Y-103390000D01*
X153781429Y-103461429D01*
X155138572Y-104818571D02*
X154424286Y-104818571D01*
X154424286Y-103318571D01*
X155924286Y-103318571D02*
X156210000Y-103318571D01*
X156352858Y-103390000D01*
X156495715Y-103532857D01*
X156567143Y-103818571D01*
X156567143Y-104318571D01*
X156495715Y-104604286D01*
X156352858Y-104747143D01*
X156210000Y-104818571D01*
X155924286Y-104818571D01*
X155781429Y-104747143D01*
X155638572Y-104604286D01*
X155567143Y-104318571D01*
X155567143Y-103818571D01*
X155638572Y-103532857D01*
X155781429Y-103390000D01*
X155924286Y-103318571D01*
X158067144Y-104675714D02*
X157995715Y-104747143D01*
X157781429Y-104818571D01*
X157638572Y-104818571D01*
X157424287Y-104747143D01*
X157281429Y-104604286D01*
X157210001Y-104461429D01*
X157138572Y-104175714D01*
X157138572Y-103961429D01*
X157210001Y-103675714D01*
X157281429Y-103532857D01*
X157424287Y-103390000D01*
X157638572Y-103318571D01*
X157781429Y-103318571D01*
X157995715Y-103390000D01*
X158067144Y-103461429D01*
X158710001Y-104818571D02*
X158710001Y-103318571D01*
X159567144Y-104818571D02*
X158924287Y-103961429D01*
X159567144Y-103318571D02*
X158710001Y-104175714D01*
X155230000Y-102278571D02*
X155230000Y-100778571D01*
X155801428Y-100778571D01*
X155944286Y-100850000D01*
X156015714Y-100921429D01*
X156087143Y-101064286D01*
X156087143Y-101278571D01*
X156015714Y-101421429D01*
X155944286Y-101492857D01*
X155801428Y-101564286D01*
X155230000Y-101564286D01*
X156730000Y-102278571D02*
X156730000Y-100778571D01*
X156730000Y-101492857D02*
X157587143Y-101492857D01*
X157587143Y-102278571D02*
X157587143Y-100778571D01*
X158301429Y-102278571D02*
X158301429Y-100778571D01*
X158944286Y-100921429D02*
X159015715Y-100850000D01*
X159158572Y-100778571D01*
X159515715Y-100778571D01*
X159658572Y-100850000D01*
X159730001Y-100921429D01*
X159801429Y-101064286D01*
X159801429Y-101207143D01*
X159730001Y-101421429D01*
X158872858Y-102278571D01*
X159801429Y-102278571D01*
X156329286Y-96770000D02*
X157043572Y-96770000D01*
X156186429Y-97198571D02*
X156686429Y-95698571D01*
X157186429Y-97198571D01*
X158472143Y-97198571D02*
X157615000Y-97198571D01*
X158043572Y-97198571D02*
X158043572Y-95698571D01*
X157900715Y-95912857D01*
X157757857Y-96055714D01*
X157615000Y-96127143D01*
X158972143Y-95698571D02*
X159900714Y-95698571D01*
X159400714Y-96270000D01*
X159615000Y-96270000D01*
X159757857Y-96341429D01*
X159829286Y-96412857D01*
X159900714Y-96555714D01*
X159900714Y-96912857D01*
X159829286Y-97055714D01*
X159757857Y-97127143D01*
X159615000Y-97198571D01*
X159186428Y-97198571D01*
X159043571Y-97127143D01*
X158972143Y-97055714D01*
X156329286Y-94230000D02*
X157043572Y-94230000D01*
X156186429Y-94658571D02*
X156686429Y-93158571D01*
X157186429Y-94658571D01*
X158472143Y-94658571D02*
X157615000Y-94658571D01*
X158043572Y-94658571D02*
X158043572Y-93158571D01*
X157900715Y-93372857D01*
X157757857Y-93515714D01*
X157615000Y-93587143D01*
X159043571Y-93301429D02*
X159115000Y-93230000D01*
X159257857Y-93158571D01*
X159615000Y-93158571D01*
X159757857Y-93230000D01*
X159829286Y-93301429D01*
X159900714Y-93444286D01*
X159900714Y-93587143D01*
X159829286Y-93801429D01*
X158972143Y-94658571D01*
X159900714Y-94658571D01*
X156329286Y-91690000D02*
X157043572Y-91690000D01*
X156186429Y-92118571D02*
X156686429Y-90618571D01*
X157186429Y-92118571D01*
X158472143Y-92118571D02*
X157615000Y-92118571D01*
X158043572Y-92118571D02*
X158043572Y-90618571D01*
X157900715Y-90832857D01*
X157757857Y-90975714D01*
X157615000Y-91047143D01*
X159900714Y-92118571D02*
X159043571Y-92118571D01*
X159472143Y-92118571D02*
X159472143Y-90618571D01*
X159329286Y-90832857D01*
X159186428Y-90975714D01*
X159043571Y-91047143D01*
X156329286Y-89150000D02*
X157043572Y-89150000D01*
X156186429Y-89578571D02*
X156686429Y-88078571D01*
X157186429Y-89578571D01*
X158472143Y-89578571D02*
X157615000Y-89578571D01*
X158043572Y-89578571D02*
X158043572Y-88078571D01*
X157900715Y-88292857D01*
X157757857Y-88435714D01*
X157615000Y-88507143D01*
X159400714Y-88078571D02*
X159543571Y-88078571D01*
X159686428Y-88150000D01*
X159757857Y-88221429D01*
X159829286Y-88364286D01*
X159900714Y-88650000D01*
X159900714Y-89007143D01*
X159829286Y-89292857D01*
X159757857Y-89435714D01*
X159686428Y-89507143D01*
X159543571Y-89578571D01*
X159400714Y-89578571D01*
X159257857Y-89507143D01*
X159186428Y-89435714D01*
X159115000Y-89292857D01*
X159043571Y-89007143D01*
X159043571Y-88650000D01*
X159115000Y-88364286D01*
X159186428Y-88221429D01*
X159257857Y-88150000D01*
X159400714Y-88078571D01*
X157678572Y-86610000D02*
X158392858Y-86610000D01*
X157535715Y-87038571D02*
X158035715Y-85538571D01*
X158535715Y-87038571D01*
X159107143Y-87038571D02*
X159392858Y-87038571D01*
X159535715Y-86967143D01*
X159607143Y-86895714D01*
X159750001Y-86681429D01*
X159821429Y-86395714D01*
X159821429Y-85824286D01*
X159750001Y-85681429D01*
X159678572Y-85610000D01*
X159535715Y-85538571D01*
X159250001Y-85538571D01*
X159107143Y-85610000D01*
X159035715Y-85681429D01*
X158964286Y-85824286D01*
X158964286Y-86181429D01*
X159035715Y-86324286D01*
X159107143Y-86395714D01*
X159250001Y-86467143D01*
X159535715Y-86467143D01*
X159678572Y-86395714D01*
X159750001Y-86324286D01*
X159821429Y-86181429D01*
X157678572Y-84070000D02*
X158392858Y-84070000D01*
X157535715Y-84498571D02*
X158035715Y-82998571D01*
X158535715Y-84498571D01*
X159250001Y-83641429D02*
X159107143Y-83570000D01*
X159035715Y-83498571D01*
X158964286Y-83355714D01*
X158964286Y-83284286D01*
X159035715Y-83141429D01*
X159107143Y-83070000D01*
X159250001Y-82998571D01*
X159535715Y-82998571D01*
X159678572Y-83070000D01*
X159750001Y-83141429D01*
X159821429Y-83284286D01*
X159821429Y-83355714D01*
X159750001Y-83498571D01*
X159678572Y-83570000D01*
X159535715Y-83641429D01*
X159250001Y-83641429D01*
X159107143Y-83712857D01*
X159035715Y-83784286D01*
X158964286Y-83927143D01*
X158964286Y-84212857D01*
X159035715Y-84355714D01*
X159107143Y-84427143D01*
X159250001Y-84498571D01*
X159535715Y-84498571D01*
X159678572Y-84427143D01*
X159750001Y-84355714D01*
X159821429Y-84212857D01*
X159821429Y-83927143D01*
X159750001Y-83784286D01*
X159678572Y-83712857D01*
X159535715Y-83641429D01*
X156865001Y-81172857D02*
X157079287Y-81244286D01*
X157150715Y-81315714D01*
X157222144Y-81458571D01*
X157222144Y-81672857D01*
X157150715Y-81815714D01*
X157079287Y-81887143D01*
X156936429Y-81958571D01*
X156365001Y-81958571D01*
X156365001Y-80458571D01*
X156865001Y-80458571D01*
X157007858Y-80530000D01*
X157079287Y-80601429D01*
X157150715Y-80744286D01*
X157150715Y-80887143D01*
X157079287Y-81030000D01*
X157007858Y-81101429D01*
X156865001Y-81172857D01*
X156365001Y-81172857D01*
X157793572Y-81530000D02*
X158507858Y-81530000D01*
X157650715Y-81958571D02*
X158150715Y-80458571D01*
X158650715Y-81958571D01*
X159007858Y-80458571D02*
X160007858Y-80458571D01*
X159365001Y-81958571D01*
X156865001Y-78632857D02*
X157079287Y-78704286D01*
X157150715Y-78775714D01*
X157222144Y-78918571D01*
X157222144Y-79132857D01*
X157150715Y-79275714D01*
X157079287Y-79347143D01*
X156936429Y-79418571D01*
X156365001Y-79418571D01*
X156365001Y-77918571D01*
X156865001Y-77918571D01*
X157007858Y-77990000D01*
X157079287Y-78061429D01*
X157150715Y-78204286D01*
X157150715Y-78347143D01*
X157079287Y-78490000D01*
X157007858Y-78561429D01*
X156865001Y-78632857D01*
X156365001Y-78632857D01*
X157793572Y-78990000D02*
X158507858Y-78990000D01*
X157650715Y-79418571D02*
X158150715Y-77918571D01*
X158650715Y-79418571D01*
X159793572Y-77918571D02*
X159507858Y-77918571D01*
X159365001Y-77990000D01*
X159293572Y-78061429D01*
X159150715Y-78275714D01*
X159079286Y-78561429D01*
X159079286Y-79132857D01*
X159150715Y-79275714D01*
X159222143Y-79347143D01*
X159365001Y-79418571D01*
X159650715Y-79418571D01*
X159793572Y-79347143D01*
X159865001Y-79275714D01*
X159936429Y-79132857D01*
X159936429Y-78775714D01*
X159865001Y-78632857D01*
X159793572Y-78561429D01*
X159650715Y-78490000D01*
X159365001Y-78490000D01*
X159222143Y-78561429D01*
X159150715Y-78632857D01*
X159079286Y-78775714D01*
X156865001Y-76092857D02*
X157079287Y-76164286D01*
X157150715Y-76235714D01*
X157222144Y-76378571D01*
X157222144Y-76592857D01*
X157150715Y-76735714D01*
X157079287Y-76807143D01*
X156936429Y-76878571D01*
X156365001Y-76878571D01*
X156365001Y-75378571D01*
X156865001Y-75378571D01*
X157007858Y-75450000D01*
X157079287Y-75521429D01*
X157150715Y-75664286D01*
X157150715Y-75807143D01*
X157079287Y-75950000D01*
X157007858Y-76021429D01*
X156865001Y-76092857D01*
X156365001Y-76092857D01*
X157793572Y-76450000D02*
X158507858Y-76450000D01*
X157650715Y-76878571D02*
X158150715Y-75378571D01*
X158650715Y-76878571D01*
X159865001Y-75378571D02*
X159150715Y-75378571D01*
X159079286Y-76092857D01*
X159150715Y-76021429D01*
X159293572Y-75950000D01*
X159650715Y-75950000D01*
X159793572Y-76021429D01*
X159865001Y-76092857D01*
X159936429Y-76235714D01*
X159936429Y-76592857D01*
X159865001Y-76735714D01*
X159793572Y-76807143D01*
X159650715Y-76878571D01*
X159293572Y-76878571D01*
X159150715Y-76807143D01*
X159079286Y-76735714D01*
X156865001Y-73552857D02*
X157079287Y-73624286D01*
X157150715Y-73695714D01*
X157222144Y-73838571D01*
X157222144Y-74052857D01*
X157150715Y-74195714D01*
X157079287Y-74267143D01*
X156936429Y-74338571D01*
X156365001Y-74338571D01*
X156365001Y-72838571D01*
X156865001Y-72838571D01*
X157007858Y-72910000D01*
X157079287Y-72981429D01*
X157150715Y-73124286D01*
X157150715Y-73267143D01*
X157079287Y-73410000D01*
X157007858Y-73481429D01*
X156865001Y-73552857D01*
X156365001Y-73552857D01*
X157793572Y-73910000D02*
X158507858Y-73910000D01*
X157650715Y-74338571D02*
X158150715Y-72838571D01*
X158650715Y-74338571D01*
X159793572Y-73338571D02*
X159793572Y-74338571D01*
X159436429Y-72767143D02*
X159079286Y-73838571D01*
X160007858Y-73838571D01*
X156865001Y-71012857D02*
X157079287Y-71084286D01*
X157150715Y-71155714D01*
X157222144Y-71298571D01*
X157222144Y-71512857D01*
X157150715Y-71655714D01*
X157079287Y-71727143D01*
X156936429Y-71798571D01*
X156365001Y-71798571D01*
X156365001Y-70298571D01*
X156865001Y-70298571D01*
X157007858Y-70370000D01*
X157079287Y-70441429D01*
X157150715Y-70584286D01*
X157150715Y-70727143D01*
X157079287Y-70870000D01*
X157007858Y-70941429D01*
X156865001Y-71012857D01*
X156365001Y-71012857D01*
X157793572Y-71370000D02*
X158507858Y-71370000D01*
X157650715Y-71798571D02*
X158150715Y-70298571D01*
X158650715Y-71798571D01*
X159007858Y-70298571D02*
X159936429Y-70298571D01*
X159436429Y-70870000D01*
X159650715Y-70870000D01*
X159793572Y-70941429D01*
X159865001Y-71012857D01*
X159936429Y-71155714D01*
X159936429Y-71512857D01*
X159865001Y-71655714D01*
X159793572Y-71727143D01*
X159650715Y-71798571D01*
X159222143Y-71798571D01*
X159079286Y-71727143D01*
X159007858Y-71655714D01*
X156865001Y-68472857D02*
X157079287Y-68544286D01*
X157150715Y-68615714D01*
X157222144Y-68758571D01*
X157222144Y-68972857D01*
X157150715Y-69115714D01*
X157079287Y-69187143D01*
X156936429Y-69258571D01*
X156365001Y-69258571D01*
X156365001Y-67758571D01*
X156865001Y-67758571D01*
X157007858Y-67830000D01*
X157079287Y-67901429D01*
X157150715Y-68044286D01*
X157150715Y-68187143D01*
X157079287Y-68330000D01*
X157007858Y-68401429D01*
X156865001Y-68472857D01*
X156365001Y-68472857D01*
X157793572Y-68830000D02*
X158507858Y-68830000D01*
X157650715Y-69258571D02*
X158150715Y-67758571D01*
X158650715Y-69258571D01*
X159079286Y-67901429D02*
X159150715Y-67830000D01*
X159293572Y-67758571D01*
X159650715Y-67758571D01*
X159793572Y-67830000D01*
X159865001Y-67901429D01*
X159936429Y-68044286D01*
X159936429Y-68187143D01*
X159865001Y-68401429D01*
X159007858Y-69258571D01*
X159936429Y-69258571D01*
X156865001Y-65932857D02*
X157079287Y-66004286D01*
X157150715Y-66075714D01*
X157222144Y-66218571D01*
X157222144Y-66432857D01*
X157150715Y-66575714D01*
X157079287Y-66647143D01*
X156936429Y-66718571D01*
X156365001Y-66718571D01*
X156365001Y-65218571D01*
X156865001Y-65218571D01*
X157007858Y-65290000D01*
X157079287Y-65361429D01*
X157150715Y-65504286D01*
X157150715Y-65647143D01*
X157079287Y-65790000D01*
X157007858Y-65861429D01*
X156865001Y-65932857D01*
X156365001Y-65932857D01*
X157793572Y-66290000D02*
X158507858Y-66290000D01*
X157650715Y-66718571D02*
X158150715Y-65218571D01*
X158650715Y-66718571D01*
X159936429Y-66718571D02*
X159079286Y-66718571D01*
X159507858Y-66718571D02*
X159507858Y-65218571D01*
X159365001Y-65432857D01*
X159222143Y-65575714D01*
X159079286Y-65647143D01*
X156865001Y-63392857D02*
X157079287Y-63464286D01*
X157150715Y-63535714D01*
X157222144Y-63678571D01*
X157222144Y-63892857D01*
X157150715Y-64035714D01*
X157079287Y-64107143D01*
X156936429Y-64178571D01*
X156365001Y-64178571D01*
X156365001Y-62678571D01*
X156865001Y-62678571D01*
X157007858Y-62750000D01*
X157079287Y-62821429D01*
X157150715Y-62964286D01*
X157150715Y-63107143D01*
X157079287Y-63250000D01*
X157007858Y-63321429D01*
X156865001Y-63392857D01*
X156365001Y-63392857D01*
X157793572Y-63750000D02*
X158507858Y-63750000D01*
X157650715Y-64178571D02*
X158150715Y-62678571D01*
X158650715Y-64178571D01*
X159436429Y-62678571D02*
X159579286Y-62678571D01*
X159722143Y-62750000D01*
X159793572Y-62821429D01*
X159865001Y-62964286D01*
X159936429Y-63250000D01*
X159936429Y-63607143D01*
X159865001Y-63892857D01*
X159793572Y-64035714D01*
X159722143Y-64107143D01*
X159579286Y-64178571D01*
X159436429Y-64178571D01*
X159293572Y-64107143D01*
X159222143Y-64035714D01*
X159150715Y-63892857D01*
X159079286Y-63607143D01*
X159079286Y-63250000D01*
X159150715Y-62964286D01*
X159222143Y-62821429D01*
X159293572Y-62750000D01*
X159436429Y-62678571D01*
X157642858Y-59098571D02*
X157642858Y-57598571D01*
X158000001Y-57598571D01*
X158214286Y-57670000D01*
X158357144Y-57812857D01*
X158428572Y-57955714D01*
X158500001Y-58241429D01*
X158500001Y-58455714D01*
X158428572Y-58741429D01*
X158357144Y-58884286D01*
X158214286Y-59027143D01*
X158000001Y-59098571D01*
X157642858Y-59098571D01*
X159000001Y-57598571D02*
X160000001Y-57598571D01*
X159357144Y-59098571D01*
X157642858Y-56558571D02*
X157642858Y-55058571D01*
X158000001Y-55058571D01*
X158214286Y-55130000D01*
X158357144Y-55272857D01*
X158428572Y-55415714D01*
X158500001Y-55701429D01*
X158500001Y-55915714D01*
X158428572Y-56201429D01*
X158357144Y-56344286D01*
X158214286Y-56487143D01*
X158000001Y-56558571D01*
X157642858Y-56558571D01*
X159785715Y-55058571D02*
X159500001Y-55058571D01*
X159357144Y-55130000D01*
X159285715Y-55201429D01*
X159142858Y-55415714D01*
X159071429Y-55701429D01*
X159071429Y-56272857D01*
X159142858Y-56415714D01*
X159214286Y-56487143D01*
X159357144Y-56558571D01*
X159642858Y-56558571D01*
X159785715Y-56487143D01*
X159857144Y-56415714D01*
X159928572Y-56272857D01*
X159928572Y-55915714D01*
X159857144Y-55772857D01*
X159785715Y-55701429D01*
X159642858Y-55630000D01*
X159357144Y-55630000D01*
X159214286Y-55701429D01*
X159142858Y-55772857D01*
X159071429Y-55915714D01*
X157642858Y-54018571D02*
X157642858Y-52518571D01*
X158000001Y-52518571D01*
X158214286Y-52590000D01*
X158357144Y-52732857D01*
X158428572Y-52875714D01*
X158500001Y-53161429D01*
X158500001Y-53375714D01*
X158428572Y-53661429D01*
X158357144Y-53804286D01*
X158214286Y-53947143D01*
X158000001Y-54018571D01*
X157642858Y-54018571D01*
X159857144Y-52518571D02*
X159142858Y-52518571D01*
X159071429Y-53232857D01*
X159142858Y-53161429D01*
X159285715Y-53090000D01*
X159642858Y-53090000D01*
X159785715Y-53161429D01*
X159857144Y-53232857D01*
X159928572Y-53375714D01*
X159928572Y-53732857D01*
X159857144Y-53875714D01*
X159785715Y-53947143D01*
X159642858Y-54018571D01*
X159285715Y-54018571D01*
X159142858Y-53947143D01*
X159071429Y-53875714D01*
X157642858Y-51478571D02*
X157642858Y-49978571D01*
X158000001Y-49978571D01*
X158214286Y-50050000D01*
X158357144Y-50192857D01*
X158428572Y-50335714D01*
X158500001Y-50621429D01*
X158500001Y-50835714D01*
X158428572Y-51121429D01*
X158357144Y-51264286D01*
X158214286Y-51407143D01*
X158000001Y-51478571D01*
X157642858Y-51478571D01*
X159785715Y-50478571D02*
X159785715Y-51478571D01*
X159428572Y-49907143D02*
X159071429Y-50978571D01*
X160000001Y-50978571D01*
X157642858Y-48938571D02*
X157642858Y-47438571D01*
X158000001Y-47438571D01*
X158214286Y-47510000D01*
X158357144Y-47652857D01*
X158428572Y-47795714D01*
X158500001Y-48081429D01*
X158500001Y-48295714D01*
X158428572Y-48581429D01*
X158357144Y-48724286D01*
X158214286Y-48867143D01*
X158000001Y-48938571D01*
X157642858Y-48938571D01*
X159000001Y-47438571D02*
X159928572Y-47438571D01*
X159428572Y-48010000D01*
X159642858Y-48010000D01*
X159785715Y-48081429D01*
X159857144Y-48152857D01*
X159928572Y-48295714D01*
X159928572Y-48652857D01*
X159857144Y-48795714D01*
X159785715Y-48867143D01*
X159642858Y-48938571D01*
X159214286Y-48938571D01*
X159071429Y-48867143D01*
X159000001Y-48795714D01*
X157642858Y-46398571D02*
X157642858Y-44898571D01*
X158000001Y-44898571D01*
X158214286Y-44970000D01*
X158357144Y-45112857D01*
X158428572Y-45255714D01*
X158500001Y-45541429D01*
X158500001Y-45755714D01*
X158428572Y-46041429D01*
X158357144Y-46184286D01*
X158214286Y-46327143D01*
X158000001Y-46398571D01*
X157642858Y-46398571D01*
X159071429Y-45041429D02*
X159142858Y-44970000D01*
X159285715Y-44898571D01*
X159642858Y-44898571D01*
X159785715Y-44970000D01*
X159857144Y-45041429D01*
X159928572Y-45184286D01*
X159928572Y-45327143D01*
X159857144Y-45541429D01*
X159000001Y-46398571D01*
X159928572Y-46398571D01*
X157642858Y-43858571D02*
X157642858Y-42358571D01*
X158000001Y-42358571D01*
X158214286Y-42430000D01*
X158357144Y-42572857D01*
X158428572Y-42715714D01*
X158500001Y-43001429D01*
X158500001Y-43215714D01*
X158428572Y-43501429D01*
X158357144Y-43644286D01*
X158214286Y-43787143D01*
X158000001Y-43858571D01*
X157642858Y-43858571D01*
X159928572Y-43858571D02*
X159071429Y-43858571D01*
X159500001Y-43858571D02*
X159500001Y-42358571D01*
X159357144Y-42572857D01*
X159214286Y-42715714D01*
X159071429Y-42787143D01*
X157642858Y-41318571D02*
X157642858Y-39818571D01*
X158000001Y-39818571D01*
X158214286Y-39890000D01*
X158357144Y-40032857D01*
X158428572Y-40175714D01*
X158500001Y-40461429D01*
X158500001Y-40675714D01*
X158428572Y-40961429D01*
X158357144Y-41104286D01*
X158214286Y-41247143D01*
X158000001Y-41318571D01*
X157642858Y-41318571D01*
X159428572Y-39818571D02*
X159571429Y-39818571D01*
X159714286Y-39890000D01*
X159785715Y-39961429D01*
X159857144Y-40104286D01*
X159928572Y-40390000D01*
X159928572Y-40747143D01*
X159857144Y-41032857D01*
X159785715Y-41175714D01*
X159714286Y-41247143D01*
X159571429Y-41318571D01*
X159428572Y-41318571D01*
X159285715Y-41247143D01*
X159214286Y-41175714D01*
X159142858Y-41032857D01*
X159071429Y-40747143D01*
X159071429Y-40390000D01*
X159142858Y-40104286D01*
X159214286Y-39961429D01*
X159285715Y-39890000D01*
X159428572Y-39818571D01*
D15*
X146280000Y-59420000D02*
X146280000Y-131080000D01*
X146280000Y-131080000D02*
X136930000Y-131080000D01*
X136930000Y-131080000D02*
X136930000Y-59420000D01*
X136930000Y-59420000D02*
X146280000Y-59420000D01*
X136680000Y-59170000D02*
X136680000Y-61710000D01*
X136680000Y-59170000D02*
X139220000Y-59170000D01*
D16*
G36*
X140999909Y-145784560D02*
X141052412Y-145810499D01*
X141117158Y-145855700D01*
X141164347Y-145904991D01*
X141196665Y-145966885D01*
X141216797Y-146049896D01*
X141227430Y-146162538D01*
X141231247Y-146313324D01*
X141231470Y-146378149D01*
X141230818Y-146520221D01*
X141228112Y-146621757D01*
X141222224Y-146692015D01*
X141212027Y-146740256D01*
X141196394Y-146775738D01*
X141180128Y-146799943D01*
X141076295Y-146902929D01*
X140954021Y-146964874D01*
X140822114Y-146983506D01*
X140689384Y-146956549D01*
X140647333Y-146937486D01*
X140546666Y-146885015D01*
X140546666Y-147707259D01*
X140620135Y-147669267D01*
X140716941Y-147639872D01*
X140835928Y-147632342D01*
X140954745Y-147646245D01*
X141044473Y-147677476D01*
X141118899Y-147736954D01*
X141182490Y-147822066D01*
X141187271Y-147830805D01*
X141207437Y-147871966D01*
X141222165Y-147913454D01*
X141232303Y-147963713D01*
X141238699Y-148031184D01*
X141242201Y-148124309D01*
X141243658Y-148251531D01*
X141243921Y-148394701D01*
X141243921Y-148851471D01*
X140970000Y-148851471D01*
X140970000Y-148009231D01*
X140893383Y-147944763D01*
X140813793Y-147893194D01*
X140738422Y-147883818D01*
X140662633Y-147907947D01*
X140622241Y-147931574D01*
X140592179Y-147965227D01*
X140570797Y-148016087D01*
X140556450Y-148091334D01*
X140547490Y-148198146D01*
X140542270Y-148343704D01*
X140540431Y-148440588D01*
X140534215Y-148839020D01*
X140403480Y-148846547D01*
X140272745Y-148854073D01*
X140272745Y-146381582D01*
X140546666Y-146381582D01*
X140553650Y-146519423D01*
X140577182Y-146615107D01*
X140621135Y-146674641D01*
X140689382Y-146704029D01*
X140758333Y-146709902D01*
X140836386Y-146703154D01*
X140888189Y-146676594D01*
X140920583Y-146641499D01*
X140946084Y-146603752D01*
X140961265Y-146561700D01*
X140968019Y-146502779D01*
X140968241Y-146414428D01*
X140965968Y-146340448D01*
X140960749Y-146229000D01*
X140952979Y-146155833D01*
X140939895Y-146109422D01*
X140918732Y-146078244D01*
X140898760Y-146060223D01*
X140815314Y-146020925D01*
X140716551Y-146014579D01*
X140659841Y-146028116D01*
X140603692Y-146076233D01*
X140566499Y-146169833D01*
X140548472Y-146308254D01*
X140546666Y-146381582D01*
X140272745Y-146381582D01*
X140272745Y-145763628D01*
X140409705Y-145763628D01*
X140491935Y-145766879D01*
X140534360Y-145778426D01*
X140546661Y-145800952D01*
X140546666Y-145801620D01*
X140552374Y-145823681D01*
X140577547Y-145821176D01*
X140627598Y-145796935D01*
X140744219Y-145759851D01*
X140875429Y-145755953D01*
X140999909Y-145784560D01*
X140999909Y-145784560D01*
G37*
X140999909Y-145784560D02*
X141052412Y-145810499D01*
X141117158Y-145855700D01*
X141164347Y-145904991D01*
X141196665Y-145966885D01*
X141216797Y-146049896D01*
X141227430Y-146162538D01*
X141231247Y-146313324D01*
X141231470Y-146378149D01*
X141230818Y-146520221D01*
X141228112Y-146621757D01*
X141222224Y-146692015D01*
X141212027Y-146740256D01*
X141196394Y-146775738D01*
X141180128Y-146799943D01*
X141076295Y-146902929D01*
X140954021Y-146964874D01*
X140822114Y-146983506D01*
X140689384Y-146956549D01*
X140647333Y-146937486D01*
X140546666Y-146885015D01*
X140546666Y-147707259D01*
X140620135Y-147669267D01*
X140716941Y-147639872D01*
X140835928Y-147632342D01*
X140954745Y-147646245D01*
X141044473Y-147677476D01*
X141118899Y-147736954D01*
X141182490Y-147822066D01*
X141187271Y-147830805D01*
X141207437Y-147871966D01*
X141222165Y-147913454D01*
X141232303Y-147963713D01*
X141238699Y-148031184D01*
X141242201Y-148124309D01*
X141243658Y-148251531D01*
X141243921Y-148394701D01*
X141243921Y-148851471D01*
X140970000Y-148851471D01*
X140970000Y-148009231D01*
X140893383Y-147944763D01*
X140813793Y-147893194D01*
X140738422Y-147883818D01*
X140662633Y-147907947D01*
X140622241Y-147931574D01*
X140592179Y-147965227D01*
X140570797Y-148016087D01*
X140556450Y-148091334D01*
X140547490Y-148198146D01*
X140542270Y-148343704D01*
X140540431Y-148440588D01*
X140534215Y-148839020D01*
X140403480Y-148846547D01*
X140272745Y-148854073D01*
X140272745Y-146381582D01*
X140546666Y-146381582D01*
X140553650Y-146519423D01*
X140577182Y-146615107D01*
X140621135Y-146674641D01*
X140689382Y-146704029D01*
X140758333Y-146709902D01*
X140836386Y-146703154D01*
X140888189Y-146676594D01*
X140920583Y-146641499D01*
X140946084Y-146603752D01*
X140961265Y-146561700D01*
X140968019Y-146502779D01*
X140968241Y-146414428D01*
X140965968Y-146340448D01*
X140960749Y-146229000D01*
X140952979Y-146155833D01*
X140939895Y-146109422D01*
X140918732Y-146078244D01*
X140898760Y-146060223D01*
X140815314Y-146020925D01*
X140716551Y-146014579D01*
X140659841Y-146028116D01*
X140603692Y-146076233D01*
X140566499Y-146169833D01*
X140548472Y-146308254D01*
X140546666Y-146381582D01*
X140272745Y-146381582D01*
X140272745Y-145763628D01*
X140409705Y-145763628D01*
X140491935Y-145766879D01*
X140534360Y-145778426D01*
X140546661Y-145800952D01*
X140546666Y-145801620D01*
X140552374Y-145823681D01*
X140577547Y-145821176D01*
X140627598Y-145796935D01*
X140744219Y-145759851D01*
X140875429Y-145755953D01*
X140999909Y-145784560D01*
G36*
X142038720Y-147640922D02*
X142155870Y-147672180D01*
X142245051Y-147728837D01*
X142307984Y-147803045D01*
X142327548Y-147834716D01*
X142341992Y-147867891D01*
X142352089Y-147910329D01*
X142358615Y-147969788D01*
X142362342Y-148054029D01*
X142364046Y-148170810D01*
X142364500Y-148327890D01*
X142364509Y-148369565D01*
X142364509Y-148851471D01*
X142244980Y-148851471D01*
X142168739Y-148846131D01*
X142112366Y-148832604D01*
X142098242Y-148824262D01*
X142059630Y-148809864D01*
X142020192Y-148824262D01*
X141955262Y-148842237D01*
X141860945Y-148849472D01*
X141756407Y-148846333D01*
X141660811Y-148833186D01*
X141605000Y-148816318D01*
X141496998Y-148746986D01*
X141429503Y-148650772D01*
X141399159Y-148522844D01*
X141398877Y-148519559D01*
X141401540Y-148462808D01*
X141642353Y-148462808D01*
X141663405Y-148527358D01*
X141697697Y-148563686D01*
X141766532Y-148591162D01*
X141857390Y-148602129D01*
X141950042Y-148596731D01*
X142024256Y-148575110D01*
X142045049Y-148561239D01*
X142081381Y-148497143D01*
X142090588Y-148424278D01*
X142090588Y-148328530D01*
X141952827Y-148328530D01*
X141821953Y-148338605D01*
X141722741Y-148367148D01*
X141661023Y-148411639D01*
X141642353Y-148462808D01*
X141401540Y-148462808D01*
X141405436Y-148379790D01*
X141451534Y-148269282D01*
X141538200Y-148185712D01*
X141550179Y-148178110D01*
X141601655Y-148153357D01*
X141665368Y-148138368D01*
X141754435Y-148131082D01*
X141860245Y-148129407D01*
X142090588Y-148129314D01*
X142090588Y-148032755D01*
X142080817Y-147957836D01*
X142055884Y-147907644D01*
X142052965Y-147904972D01*
X141997481Y-147883015D01*
X141913727Y-147874505D01*
X141821167Y-147878687D01*
X141739270Y-147894809D01*
X141690673Y-147918990D01*
X141664341Y-147938359D01*
X141636535Y-147942057D01*
X141598161Y-147926188D01*
X141540125Y-147886855D01*
X141453331Y-147820164D01*
X141445365Y-147813916D01*
X141449447Y-147790800D01*
X141483501Y-147752352D01*
X141535260Y-147709627D01*
X141592455Y-147673679D01*
X141610425Y-147665191D01*
X141675972Y-147648252D01*
X141772020Y-147636170D01*
X141879329Y-147631323D01*
X141884347Y-147631313D01*
X142038720Y-147640922D01*
X142038720Y-147640922D01*
G37*
X142038720Y-147640922D02*
X142155870Y-147672180D01*
X142245051Y-147728837D01*
X142307984Y-147803045D01*
X142327548Y-147834716D01*
X142341992Y-147867891D01*
X142352089Y-147910329D01*
X142358615Y-147969788D01*
X142362342Y-148054029D01*
X142364046Y-148170810D01*
X142364500Y-148327890D01*
X142364509Y-148369565D01*
X142364509Y-148851471D01*
X142244980Y-148851471D01*
X142168739Y-148846131D01*
X142112366Y-148832604D01*
X142098242Y-148824262D01*
X142059630Y-148809864D01*
X142020192Y-148824262D01*
X141955262Y-148842237D01*
X141860945Y-148849472D01*
X141756407Y-148846333D01*
X141660811Y-148833186D01*
X141605000Y-148816318D01*
X141496998Y-148746986D01*
X141429503Y-148650772D01*
X141399159Y-148522844D01*
X141398877Y-148519559D01*
X141401540Y-148462808D01*
X141642353Y-148462808D01*
X141663405Y-148527358D01*
X141697697Y-148563686D01*
X141766532Y-148591162D01*
X141857390Y-148602129D01*
X141950042Y-148596731D01*
X142024256Y-148575110D01*
X142045049Y-148561239D01*
X142081381Y-148497143D01*
X142090588Y-148424278D01*
X142090588Y-148328530D01*
X141952827Y-148328530D01*
X141821953Y-148338605D01*
X141722741Y-148367148D01*
X141661023Y-148411639D01*
X141642353Y-148462808D01*
X141401540Y-148462808D01*
X141405436Y-148379790D01*
X141451534Y-148269282D01*
X141538200Y-148185712D01*
X141550179Y-148178110D01*
X141601655Y-148153357D01*
X141665368Y-148138368D01*
X141754435Y-148131082D01*
X141860245Y-148129407D01*
X142090588Y-148129314D01*
X142090588Y-148032755D01*
X142080817Y-147957836D01*
X142055884Y-147907644D01*
X142052965Y-147904972D01*
X141997481Y-147883015D01*
X141913727Y-147874505D01*
X141821167Y-147878687D01*
X141739270Y-147894809D01*
X141690673Y-147918990D01*
X141664341Y-147938359D01*
X141636535Y-147942057D01*
X141598161Y-147926188D01*
X141540125Y-147886855D01*
X141453331Y-147820164D01*
X141445365Y-147813916D01*
X141449447Y-147790800D01*
X141483501Y-147752352D01*
X141535260Y-147709627D01*
X141592455Y-147673679D01*
X141610425Y-147665191D01*
X141675972Y-147648252D01*
X141772020Y-147636170D01*
X141879329Y-147631323D01*
X141884347Y-147631313D01*
X142038720Y-147640922D01*
G36*
X142812764Y-147633921D02*
X142850030Y-147645091D01*
X142862043Y-147669633D01*
X142862549Y-147680712D01*
X142864704Y-147711572D01*
X142879551Y-147716417D01*
X142919657Y-147695260D01*
X142943480Y-147680806D01*
X143018638Y-147649850D01*
X143108406Y-147634544D01*
X143202529Y-147633367D01*
X143290754Y-147644799D01*
X143362826Y-147667320D01*
X143408492Y-147699409D01*
X143417498Y-147739545D01*
X143412953Y-147750415D01*
X143379821Y-147795534D01*
X143328445Y-147851026D01*
X143319152Y-147859996D01*
X143270182Y-147901245D01*
X143227931Y-147914572D01*
X143168841Y-147905271D01*
X143145169Y-147899090D01*
X143071504Y-147884246D01*
X143019710Y-147890921D01*
X142975969Y-147914465D01*
X142935902Y-147946061D01*
X142906392Y-147985798D01*
X142885884Y-148041252D01*
X142872824Y-148120003D01*
X142865656Y-148229629D01*
X142862824Y-148377706D01*
X142862549Y-148467111D01*
X142862549Y-148851471D01*
X142613529Y-148851471D01*
X142613529Y-147631275D01*
X142738039Y-147631275D01*
X142812764Y-147633921D01*
X142812764Y-147633921D01*
G37*
X142812764Y-147633921D02*
X142850030Y-147645091D01*
X142862043Y-147669633D01*
X142862549Y-147680712D01*
X142864704Y-147711572D01*
X142879551Y-147716417D01*
X142919657Y-147695260D01*
X142943480Y-147680806D01*
X143018638Y-147649850D01*
X143108406Y-147634544D01*
X143202529Y-147633367D01*
X143290754Y-147644799D01*
X143362826Y-147667320D01*
X143408492Y-147699409D01*
X143417498Y-147739545D01*
X143412953Y-147750415D01*
X143379821Y-147795534D01*
X143328445Y-147851026D01*
X143319152Y-147859996D01*
X143270182Y-147901245D01*
X143227931Y-147914572D01*
X143168841Y-147905271D01*
X143145169Y-147899090D01*
X143071504Y-147884246D01*
X143019710Y-147890921D01*
X142975969Y-147914465D01*
X142935902Y-147946061D01*
X142906392Y-147985798D01*
X142885884Y-148041252D01*
X142872824Y-148120003D01*
X142865656Y-148229629D01*
X142862824Y-148377706D01*
X142862549Y-148467111D01*
X142862549Y-148851471D01*
X142613529Y-148851471D01*
X142613529Y-147631275D01*
X142738039Y-147631275D01*
X142812764Y-147633921D01*
G36*
X144381568Y-148851471D02*
X144244607Y-148851471D01*
X144165111Y-148849140D01*
X144123708Y-148839488D01*
X144108801Y-148818525D01*
X144107647Y-148804351D01*
X144105133Y-148775927D01*
X144089280Y-148770475D01*
X144047621Y-148787998D01*
X144015224Y-148804351D01*
X143890849Y-148843103D01*
X143755646Y-148845346D01*
X143645726Y-148816444D01*
X143543366Y-148746619D01*
X143465340Y-148643555D01*
X143422614Y-148521989D01*
X143421526Y-148515192D01*
X143415178Y-148441032D01*
X143412021Y-148334570D01*
X143412275Y-148254052D01*
X143684289Y-148254052D01*
X143690590Y-148361070D01*
X143704925Y-148449278D01*
X143724331Y-148499090D01*
X143797746Y-148567162D01*
X143884914Y-148591564D01*
X143974804Y-148571831D01*
X144051617Y-148512968D01*
X144080708Y-148473379D01*
X144097717Y-148426138D01*
X144105684Y-148357181D01*
X144107647Y-148253607D01*
X144104134Y-148151039D01*
X144094857Y-148060921D01*
X144081706Y-148000613D01*
X144079514Y-147995208D01*
X144026478Y-147930940D01*
X143949067Y-147895656D01*
X143862454Y-147889959D01*
X143781807Y-147914453D01*
X143722297Y-147969742D01*
X143716124Y-147980743D01*
X143696801Y-148047827D01*
X143686274Y-148144284D01*
X143684289Y-148254052D01*
X143412275Y-148254052D01*
X143412404Y-148213225D01*
X143414194Y-148147918D01*
X143426373Y-147986355D01*
X143451685Y-147865053D01*
X143493793Y-147775379D01*
X143556359Y-147708699D01*
X143617100Y-147669557D01*
X143701964Y-147642040D01*
X143807515Y-147632603D01*
X143915598Y-147640290D01*
X144008058Y-147664146D01*
X144056910Y-147692685D01*
X144107647Y-147738601D01*
X144107647Y-147158137D01*
X144381568Y-147158137D01*
X144381568Y-148851471D01*
X144381568Y-148851471D01*
G37*
X144381568Y-148851471D02*
X144244607Y-148851471D01*
X144165111Y-148849140D01*
X144123708Y-148839488D01*
X144108801Y-148818525D01*
X144107647Y-148804351D01*
X144105133Y-148775927D01*
X144089280Y-148770475D01*
X144047621Y-148787998D01*
X144015224Y-148804351D01*
X143890849Y-148843103D01*
X143755646Y-148845346D01*
X143645726Y-148816444D01*
X143543366Y-148746619D01*
X143465340Y-148643555D01*
X143422614Y-148521989D01*
X143421526Y-148515192D01*
X143415178Y-148441032D01*
X143412021Y-148334570D01*
X143412275Y-148254052D01*
X143684289Y-148254052D01*
X143690590Y-148361070D01*
X143704925Y-148449278D01*
X143724331Y-148499090D01*
X143797746Y-148567162D01*
X143884914Y-148591564D01*
X143974804Y-148571831D01*
X144051617Y-148512968D01*
X144080708Y-148473379D01*
X144097717Y-148426138D01*
X144105684Y-148357181D01*
X144107647Y-148253607D01*
X144104134Y-148151039D01*
X144094857Y-148060921D01*
X144081706Y-148000613D01*
X144079514Y-147995208D01*
X144026478Y-147930940D01*
X143949067Y-147895656D01*
X143862454Y-147889959D01*
X143781807Y-147914453D01*
X143722297Y-147969742D01*
X143716124Y-147980743D01*
X143696801Y-148047827D01*
X143686274Y-148144284D01*
X143684289Y-148254052D01*
X143412275Y-148254052D01*
X143412404Y-148213225D01*
X143414194Y-148147918D01*
X143426373Y-147986355D01*
X143451685Y-147865053D01*
X143493793Y-147775379D01*
X143556359Y-147708699D01*
X143617100Y-147669557D01*
X143701964Y-147642040D01*
X143807515Y-147632603D01*
X143915598Y-147640290D01*
X144008058Y-147664146D01*
X144056910Y-147692685D01*
X144107647Y-147738601D01*
X144107647Y-147158137D01*
X144381568Y-147158137D01*
X144381568Y-148851471D01*
G36*
X145337528Y-147636332D02*
X145436014Y-147643726D01*
X145564776Y-148029706D01*
X145693537Y-148415686D01*
X145733911Y-148278726D01*
X145758207Y-148194083D01*
X145790167Y-148079697D01*
X145824679Y-147953963D01*
X145842928Y-147886520D01*
X145911571Y-147631275D01*
X146194773Y-147631275D01*
X146110122Y-147898971D01*
X146068435Y-148030638D01*
X146018074Y-148189458D01*
X145965481Y-148355128D01*
X145918530Y-148502843D01*
X145811589Y-148839020D01*
X145580661Y-148854044D01*
X145518050Y-148647316D01*
X145479438Y-148518896D01*
X145437300Y-148377322D01*
X145400472Y-148252285D01*
X145399018Y-148247309D01*
X145371511Y-148162586D01*
X145347242Y-148104778D01*
X145330243Y-148082918D01*
X145326750Y-148085446D01*
X145314490Y-148119336D01*
X145291195Y-148191930D01*
X145259700Y-148294101D01*
X145222842Y-148416720D01*
X145202899Y-148484167D01*
X145094895Y-148851471D01*
X144865679Y-148851471D01*
X144682439Y-148272500D01*
X144630963Y-148110091D01*
X144584070Y-147962602D01*
X144543977Y-147836960D01*
X144512897Y-147740095D01*
X144493045Y-147678934D01*
X144487011Y-147661065D01*
X144491788Y-147642768D01*
X144529297Y-147634755D01*
X144607355Y-147635557D01*
X144619574Y-147636163D01*
X144764326Y-147643726D01*
X144859130Y-147992353D01*
X144893977Y-148119497D01*
X144925117Y-148231265D01*
X144949809Y-148317953D01*
X144965312Y-148369856D01*
X144968176Y-148378318D01*
X144980046Y-148368587D01*
X145003983Y-148318172D01*
X145037239Y-148233935D01*
X145077064Y-148122741D01*
X145110730Y-148022297D01*
X145239041Y-147628939D01*
X145337528Y-147636332D01*
X145337528Y-147636332D01*
G37*
X145337528Y-147636332D02*
X145436014Y-147643726D01*
X145564776Y-148029706D01*
X145693537Y-148415686D01*
X145733911Y-148278726D01*
X145758207Y-148194083D01*
X145790167Y-148079697D01*
X145824679Y-147953963D01*
X145842928Y-147886520D01*
X145911571Y-147631275D01*
X146194773Y-147631275D01*
X146110122Y-147898971D01*
X146068435Y-148030638D01*
X146018074Y-148189458D01*
X145965481Y-148355128D01*
X145918530Y-148502843D01*
X145811589Y-148839020D01*
X145580661Y-148854044D01*
X145518050Y-148647316D01*
X145479438Y-148518896D01*
X145437300Y-148377322D01*
X145400472Y-148252285D01*
X145399018Y-148247309D01*
X145371511Y-148162586D01*
X145347242Y-148104778D01*
X145330243Y-148082918D01*
X145326750Y-148085446D01*
X145314490Y-148119336D01*
X145291195Y-148191930D01*
X145259700Y-148294101D01*
X145222842Y-148416720D01*
X145202899Y-148484167D01*
X145094895Y-148851471D01*
X144865679Y-148851471D01*
X144682439Y-148272500D01*
X144630963Y-148110091D01*
X144584070Y-147962602D01*
X144543977Y-147836960D01*
X144512897Y-147740095D01*
X144493045Y-147678934D01*
X144487011Y-147661065D01*
X144491788Y-147642768D01*
X144529297Y-147634755D01*
X144607355Y-147635557D01*
X144619574Y-147636163D01*
X144764326Y-147643726D01*
X144859130Y-147992353D01*
X144893977Y-148119497D01*
X144925117Y-148231265D01*
X144949809Y-148317953D01*
X144965312Y-148369856D01*
X144968176Y-148378318D01*
X144980046Y-148368587D01*
X145003983Y-148318172D01*
X145037239Y-148233935D01*
X145077064Y-148122741D01*
X145110730Y-148022297D01*
X145239041Y-147628939D01*
X145337528Y-147636332D01*
G36*
X146836459Y-147638669D02*
X146941420Y-147664163D01*
X146971761Y-147677669D01*
X147030573Y-147713046D01*
X147075709Y-147752890D01*
X147109106Y-147804120D01*
X147132701Y-147873654D01*
X147148433Y-147968409D01*
X147158239Y-148095305D01*
X147164057Y-148261258D01*
X147166266Y-148372108D01*
X147174396Y-148851471D01*
X147035531Y-148851471D01*
X146951287Y-148847938D01*
X146907884Y-148835866D01*
X146896666Y-148815594D01*
X146890744Y-148793674D01*
X146864266Y-148797865D01*
X146828186Y-148815441D01*
X146737862Y-148842382D01*
X146621777Y-148849642D01*
X146499680Y-148837767D01*
X146391321Y-148807305D01*
X146381602Y-148803077D01*
X146282568Y-148733505D01*
X146217281Y-148636789D01*
X146187240Y-148523738D01*
X146189535Y-148483122D01*
X146434633Y-148483122D01*
X146456229Y-148537782D01*
X146520259Y-148576952D01*
X146623565Y-148597974D01*
X146678774Y-148600766D01*
X146770782Y-148593620D01*
X146831941Y-148565848D01*
X146846862Y-148552647D01*
X146887287Y-148480829D01*
X146896666Y-148415686D01*
X146896666Y-148328530D01*
X146775269Y-148328530D01*
X146634153Y-148335722D01*
X146535173Y-148358345D01*
X146472633Y-148397964D01*
X146458631Y-148415628D01*
X146434633Y-148483122D01*
X146189535Y-148483122D01*
X146193941Y-148405157D01*
X146238880Y-148291855D01*
X146300196Y-148215285D01*
X146337332Y-148182181D01*
X146373687Y-148160425D01*
X146420990Y-148147161D01*
X146490973Y-148139528D01*
X146595364Y-148134670D01*
X146636770Y-148133273D01*
X146896666Y-148124780D01*
X146896285Y-148046116D01*
X146886219Y-147963428D01*
X146849829Y-147913431D01*
X146776311Y-147881489D01*
X146774339Y-147880920D01*
X146670105Y-147868361D01*
X146568108Y-147884766D01*
X146492305Y-147924657D01*
X146461890Y-147944354D01*
X146429132Y-147941629D01*
X146378721Y-147913091D01*
X146349119Y-147892950D01*
X146291218Y-147849919D01*
X146255352Y-147817662D01*
X146249597Y-147808427D01*
X146273295Y-147760636D01*
X146343313Y-147703562D01*
X146373725Y-147684305D01*
X146461155Y-147651140D01*
X146578983Y-147632350D01*
X146709866Y-147628129D01*
X146836459Y-147638669D01*
X146836459Y-147638669D01*
G37*
X146836459Y-147638669D02*
X146941420Y-147664163D01*
X146971761Y-147677669D01*
X147030573Y-147713046D01*
X147075709Y-147752890D01*
X147109106Y-147804120D01*
X147132701Y-147873654D01*
X147148433Y-147968409D01*
X147158239Y-148095305D01*
X147164057Y-148261258D01*
X147166266Y-148372108D01*
X147174396Y-148851471D01*
X147035531Y-148851471D01*
X146951287Y-148847938D01*
X146907884Y-148835866D01*
X146896666Y-148815594D01*
X146890744Y-148793674D01*
X146864266Y-148797865D01*
X146828186Y-148815441D01*
X146737862Y-148842382D01*
X146621777Y-148849642D01*
X146499680Y-148837767D01*
X146391321Y-148807305D01*
X146381602Y-148803077D01*
X146282568Y-148733505D01*
X146217281Y-148636789D01*
X146187240Y-148523738D01*
X146189535Y-148483122D01*
X146434633Y-148483122D01*
X146456229Y-148537782D01*
X146520259Y-148576952D01*
X146623565Y-148597974D01*
X146678774Y-148600766D01*
X146770782Y-148593620D01*
X146831941Y-148565848D01*
X146846862Y-148552647D01*
X146887287Y-148480829D01*
X146896666Y-148415686D01*
X146896666Y-148328530D01*
X146775269Y-148328530D01*
X146634153Y-148335722D01*
X146535173Y-148358345D01*
X146472633Y-148397964D01*
X146458631Y-148415628D01*
X146434633Y-148483122D01*
X146189535Y-148483122D01*
X146193941Y-148405157D01*
X146238880Y-148291855D01*
X146300196Y-148215285D01*
X146337332Y-148182181D01*
X146373687Y-148160425D01*
X146420990Y-148147161D01*
X146490973Y-148139528D01*
X146595364Y-148134670D01*
X146636770Y-148133273D01*
X146896666Y-148124780D01*
X146896285Y-148046116D01*
X146886219Y-147963428D01*
X146849829Y-147913431D01*
X146776311Y-147881489D01*
X146774339Y-147880920D01*
X146670105Y-147868361D01*
X146568108Y-147884766D01*
X146492305Y-147924657D01*
X146461890Y-147944354D01*
X146429132Y-147941629D01*
X146378721Y-147913091D01*
X146349119Y-147892950D01*
X146291218Y-147849919D01*
X146255352Y-147817662D01*
X146249597Y-147808427D01*
X146273295Y-147760636D01*
X146343313Y-147703562D01*
X146373725Y-147684305D01*
X146461155Y-147651140D01*
X146578983Y-147632350D01*
X146709866Y-147628129D01*
X146836459Y-147638669D01*
G36*
X148018446Y-147630883D02*
X148114177Y-147649755D01*
X148168677Y-147677699D01*
X148226008Y-147724123D01*
X148144441Y-147827111D01*
X148094150Y-147889479D01*
X148060001Y-147919907D01*
X148026063Y-147924555D01*
X147976406Y-147909586D01*
X147953096Y-147901117D01*
X147858063Y-147888622D01*
X147771032Y-147915406D01*
X147707138Y-147975915D01*
X147696759Y-147995208D01*
X147685456Y-148046314D01*
X147676732Y-148140500D01*
X147670997Y-148271089D01*
X147668660Y-148431405D01*
X147668627Y-148454211D01*
X147668627Y-148851471D01*
X147394705Y-148851471D01*
X147394705Y-147631275D01*
X147531666Y-147631275D01*
X147610638Y-147633337D01*
X147651779Y-147642513D01*
X147666992Y-147663290D01*
X147668627Y-147682886D01*
X147668627Y-147734497D01*
X147734240Y-147682886D01*
X147809475Y-147647675D01*
X147910544Y-147630265D01*
X148018446Y-147630883D01*
X148018446Y-147630883D01*
G37*
X148018446Y-147630883D02*
X148114177Y-147649755D01*
X148168677Y-147677699D01*
X148226008Y-147724123D01*
X148144441Y-147827111D01*
X148094150Y-147889479D01*
X148060001Y-147919907D01*
X148026063Y-147924555D01*
X147976406Y-147909586D01*
X147953096Y-147901117D01*
X147858063Y-147888622D01*
X147771032Y-147915406D01*
X147707138Y-147975915D01*
X147696759Y-147995208D01*
X147685456Y-148046314D01*
X147676732Y-148140500D01*
X147670997Y-148271089D01*
X147668660Y-148431405D01*
X147668627Y-148454211D01*
X147668627Y-148851471D01*
X147394705Y-148851471D01*
X147394705Y-147631275D01*
X147531666Y-147631275D01*
X147610638Y-147633337D01*
X147651779Y-147642513D01*
X147666992Y-147663290D01*
X147668627Y-147682886D01*
X147668627Y-147734497D01*
X147734240Y-147682886D01*
X147809475Y-147647675D01*
X147910544Y-147630265D01*
X148018446Y-147630883D01*
G36*
X148805307Y-147637784D02*
X148924337Y-147668731D01*
X149024021Y-147732600D01*
X149072288Y-147780313D01*
X149151408Y-147893106D01*
X149196752Y-148023950D01*
X149212330Y-148184792D01*
X149212410Y-148197794D01*
X149212549Y-148328530D01*
X148460091Y-148328530D01*
X148476130Y-148397010D01*
X148505091Y-148459031D01*
X148555778Y-148523654D01*
X148566379Y-148533971D01*
X148657494Y-148589805D01*
X148761400Y-148599275D01*
X148881000Y-148562540D01*
X148901274Y-148552647D01*
X148963456Y-148522574D01*
X149005106Y-148505440D01*
X149012373Y-148503855D01*
X149037740Y-148519242D01*
X149086120Y-148556887D01*
X149110679Y-148577459D01*
X149161570Y-148624714D01*
X149178281Y-148655917D01*
X149166683Y-148684620D01*
X149160483Y-148692468D01*
X149118493Y-148726819D01*
X149049206Y-148768565D01*
X149000882Y-148792935D01*
X148863711Y-148835873D01*
X148711847Y-148849786D01*
X148568024Y-148833300D01*
X148527745Y-148821496D01*
X148403078Y-148754689D01*
X148310671Y-148651892D01*
X148249990Y-148512105D01*
X148220498Y-148334330D01*
X148217260Y-148241373D01*
X148226714Y-148106033D01*
X148465490Y-148106033D01*
X148488584Y-148116038D01*
X148550662Y-148123888D01*
X148640914Y-148128521D01*
X148702058Y-148129314D01*
X148812040Y-148128549D01*
X148881457Y-148124970D01*
X148919538Y-148116649D01*
X148935515Y-148101657D01*
X148938627Y-148079903D01*
X148917278Y-148012892D01*
X148863529Y-147946664D01*
X148792822Y-147895832D01*
X148722089Y-147875038D01*
X148626016Y-147893484D01*
X148542849Y-147946811D01*
X148485186Y-148023677D01*
X148465490Y-148106033D01*
X148226714Y-148106033D01*
X148231028Y-148044291D01*
X148273520Y-147887271D01*
X148345635Y-147769069D01*
X148448273Y-147688440D01*
X148582332Y-147644139D01*
X148654957Y-147635607D01*
X148805307Y-147637784D01*
X148805307Y-147637784D01*
G37*
X148805307Y-147637784D02*
X148924337Y-147668731D01*
X149024021Y-147732600D01*
X149072288Y-147780313D01*
X149151408Y-147893106D01*
X149196752Y-148023950D01*
X149212330Y-148184792D01*
X149212410Y-148197794D01*
X149212549Y-148328530D01*
X148460091Y-148328530D01*
X148476130Y-148397010D01*
X148505091Y-148459031D01*
X148555778Y-148523654D01*
X148566379Y-148533971D01*
X148657494Y-148589805D01*
X148761400Y-148599275D01*
X148881000Y-148562540D01*
X148901274Y-148552647D01*
X148963456Y-148522574D01*
X149005106Y-148505440D01*
X149012373Y-148503855D01*
X149037740Y-148519242D01*
X149086120Y-148556887D01*
X149110679Y-148577459D01*
X149161570Y-148624714D01*
X149178281Y-148655917D01*
X149166683Y-148684620D01*
X149160483Y-148692468D01*
X149118493Y-148726819D01*
X149049206Y-148768565D01*
X149000882Y-148792935D01*
X148863711Y-148835873D01*
X148711847Y-148849786D01*
X148568024Y-148833300D01*
X148527745Y-148821496D01*
X148403078Y-148754689D01*
X148310671Y-148651892D01*
X148249990Y-148512105D01*
X148220498Y-148334330D01*
X148217260Y-148241373D01*
X148226714Y-148106033D01*
X148465490Y-148106033D01*
X148488584Y-148116038D01*
X148550662Y-148123888D01*
X148640914Y-148128521D01*
X148702058Y-148129314D01*
X148812040Y-148128549D01*
X148881457Y-148124970D01*
X148919538Y-148116649D01*
X148935515Y-148101657D01*
X148938627Y-148079903D01*
X148917278Y-148012892D01*
X148863529Y-147946664D01*
X148792822Y-147895832D01*
X148722089Y-147875038D01*
X148626016Y-147893484D01*
X148542849Y-147946811D01*
X148485186Y-148023677D01*
X148465490Y-148106033D01*
X148226714Y-148106033D01*
X148231028Y-148044291D01*
X148273520Y-147887271D01*
X148345635Y-147769069D01*
X148448273Y-147688440D01*
X148582332Y-147644139D01*
X148654957Y-147635607D01*
X148805307Y-147637784D01*
G36*
X139753247Y-145776568D02*
X139883522Y-145834163D01*
X139982419Y-145930334D01*
X140050082Y-146065229D01*
X140086655Y-146238996D01*
X140089276Y-146266126D01*
X140091330Y-146457408D01*
X140064699Y-146625073D01*
X140011001Y-146760967D01*
X139982247Y-146804681D01*
X139882091Y-146897198D01*
X139754537Y-146957119D01*
X139611837Y-146981985D01*
X139466240Y-146969339D01*
X139355562Y-146930391D01*
X139260384Y-146864755D01*
X139182594Y-146778699D01*
X139181249Y-146776685D01*
X139149657Y-146723570D01*
X139129127Y-146670160D01*
X139116695Y-146602754D01*
X139109397Y-146507653D01*
X139106182Y-146429666D01*
X139104844Y-146358944D01*
X139353814Y-146358944D01*
X139356247Y-146429348D01*
X139365080Y-146523068D01*
X139380664Y-146583214D01*
X139408766Y-146626006D01*
X139435086Y-146651002D01*
X139528392Y-146703338D01*
X139626020Y-146710333D01*
X139716942Y-146672676D01*
X139762402Y-146630479D01*
X139795162Y-146587956D01*
X139814323Y-146547267D01*
X139822733Y-146494314D01*
X139823237Y-146414997D01*
X139820645Y-146341950D01*
X139815071Y-146237601D01*
X139806234Y-146169920D01*
X139790307Y-146125774D01*
X139763462Y-146092031D01*
X139742189Y-146072746D01*
X139653206Y-146022086D01*
X139557211Y-146019560D01*
X139476719Y-146049567D01*
X139408053Y-146112231D01*
X139367144Y-146215168D01*
X139353814Y-146358944D01*
X139104844Y-146358944D01*
X139103246Y-146274582D01*
X139108260Y-146158600D01*
X139123283Y-146071367D01*
X139150376Y-146002530D01*
X139191600Y-145941737D01*
X139206885Y-145923686D01*
X139302454Y-145833746D01*
X139404961Y-145781211D01*
X139530321Y-145759201D01*
X139591450Y-145757402D01*
X139753247Y-145776568D01*
X139753247Y-145776568D01*
G37*
X139753247Y-145776568D02*
X139883522Y-145834163D01*
X139982419Y-145930334D01*
X140050082Y-146065229D01*
X140086655Y-146238996D01*
X140089276Y-146266126D01*
X140091330Y-146457408D01*
X140064699Y-146625073D01*
X140011001Y-146760967D01*
X139982247Y-146804681D01*
X139882091Y-146897198D01*
X139754537Y-146957119D01*
X139611837Y-146981985D01*
X139466240Y-146969339D01*
X139355562Y-146930391D01*
X139260384Y-146864755D01*
X139182594Y-146778699D01*
X139181249Y-146776685D01*
X139149657Y-146723570D01*
X139129127Y-146670160D01*
X139116695Y-146602754D01*
X139109397Y-146507653D01*
X139106182Y-146429666D01*
X139104844Y-146358944D01*
X139353814Y-146358944D01*
X139356247Y-146429348D01*
X139365080Y-146523068D01*
X139380664Y-146583214D01*
X139408766Y-146626006D01*
X139435086Y-146651002D01*
X139528392Y-146703338D01*
X139626020Y-146710333D01*
X139716942Y-146672676D01*
X139762402Y-146630479D01*
X139795162Y-146587956D01*
X139814323Y-146547267D01*
X139822733Y-146494314D01*
X139823237Y-146414997D01*
X139820645Y-146341950D01*
X139815071Y-146237601D01*
X139806234Y-146169920D01*
X139790307Y-146125774D01*
X139763462Y-146092031D01*
X139742189Y-146072746D01*
X139653206Y-146022086D01*
X139557211Y-146019560D01*
X139476719Y-146049567D01*
X139408053Y-146112231D01*
X139367144Y-146215168D01*
X139353814Y-146358944D01*
X139104844Y-146358944D01*
X139103246Y-146274582D01*
X139108260Y-146158600D01*
X139123283Y-146071367D01*
X139150376Y-146002530D01*
X139191600Y-145941737D01*
X139206885Y-145923686D01*
X139302454Y-145833746D01*
X139404961Y-145781211D01*
X139530321Y-145759201D01*
X139591450Y-145757402D01*
X139753247Y-145776568D01*
G36*
X142093204Y-145791354D02*
X142118019Y-145803037D01*
X142203906Y-145865951D01*
X142285121Y-145957769D01*
X142345764Y-146058868D01*
X142363012Y-146105349D01*
X142378749Y-146188376D01*
X142388133Y-146288713D01*
X142389272Y-146330147D01*
X142389411Y-146460882D01*
X141636953Y-146460882D01*
X141652993Y-146529363D01*
X141692363Y-146610355D01*
X141761194Y-146680351D01*
X141843081Y-146725441D01*
X141895263Y-146734804D01*
X141966029Y-146723441D01*
X142050460Y-146694943D01*
X142079142Y-146681831D01*
X142185209Y-146628858D01*
X142275728Y-146697901D01*
X142327961Y-146744597D01*
X142355753Y-146783140D01*
X142357160Y-146794452D01*
X142332332Y-146821868D01*
X142277917Y-146863532D01*
X142228528Y-146896037D01*
X142095252Y-146954468D01*
X141945839Y-146980915D01*
X141797751Y-146974039D01*
X141679705Y-146938096D01*
X141558018Y-146861101D01*
X141471540Y-146759728D01*
X141417441Y-146628570D01*
X141392891Y-146462224D01*
X141390714Y-146386108D01*
X141399427Y-146211685D01*
X141400497Y-146206611D01*
X141649827Y-146206611D01*
X141656694Y-146222968D01*
X141684917Y-146231988D01*
X141743127Y-146235854D01*
X141839958Y-146236749D01*
X141877243Y-146236765D01*
X141990683Y-146235413D01*
X142062622Y-146230505D01*
X142101313Y-146220760D01*
X142115005Y-146204899D01*
X142115490Y-146199805D01*
X142099863Y-146159326D01*
X142060753Y-146102621D01*
X142043939Y-146082766D01*
X141981519Y-146026611D01*
X141916453Y-146004532D01*
X141881397Y-146002686D01*
X141786558Y-146025766D01*
X141707027Y-146087759D01*
X141656577Y-146177802D01*
X141655683Y-146180735D01*
X141649827Y-146206611D01*
X141400497Y-146206611D01*
X141428399Y-146074343D01*
X141480590Y-145964461D01*
X141544421Y-145886461D01*
X141662433Y-145801882D01*
X141801158Y-145756686D01*
X141948710Y-145752600D01*
X142093204Y-145791354D01*
X142093204Y-145791354D01*
G37*
X142093204Y-145791354D02*
X142118019Y-145803037D01*
X142203906Y-145865951D01*
X142285121Y-145957769D01*
X142345764Y-146058868D01*
X142363012Y-146105349D01*
X142378749Y-146188376D01*
X142388133Y-146288713D01*
X142389272Y-146330147D01*
X142389411Y-146460882D01*
X141636953Y-146460882D01*
X141652993Y-146529363D01*
X141692363Y-146610355D01*
X141761194Y-146680351D01*
X141843081Y-146725441D01*
X141895263Y-146734804D01*
X141966029Y-146723441D01*
X142050460Y-146694943D01*
X142079142Y-146681831D01*
X142185209Y-146628858D01*
X142275728Y-146697901D01*
X142327961Y-146744597D01*
X142355753Y-146783140D01*
X142357160Y-146794452D01*
X142332332Y-146821868D01*
X142277917Y-146863532D01*
X142228528Y-146896037D01*
X142095252Y-146954468D01*
X141945839Y-146980915D01*
X141797751Y-146974039D01*
X141679705Y-146938096D01*
X141558018Y-146861101D01*
X141471540Y-146759728D01*
X141417441Y-146628570D01*
X141392891Y-146462224D01*
X141390714Y-146386108D01*
X141399427Y-146211685D01*
X141400497Y-146206611D01*
X141649827Y-146206611D01*
X141656694Y-146222968D01*
X141684917Y-146231988D01*
X141743127Y-146235854D01*
X141839958Y-146236749D01*
X141877243Y-146236765D01*
X141990683Y-146235413D01*
X142062622Y-146230505D01*
X142101313Y-146220760D01*
X142115005Y-146204899D01*
X142115490Y-146199805D01*
X142099863Y-146159326D01*
X142060753Y-146102621D01*
X142043939Y-146082766D01*
X141981519Y-146026611D01*
X141916453Y-146004532D01*
X141881397Y-146002686D01*
X141786558Y-146025766D01*
X141707027Y-146087759D01*
X141656577Y-146177802D01*
X141655683Y-146180735D01*
X141649827Y-146206611D01*
X141400497Y-146206611D01*
X141428399Y-146074343D01*
X141480590Y-145964461D01*
X141544421Y-145886461D01*
X141662433Y-145801882D01*
X141801158Y-145756686D01*
X141948710Y-145752600D01*
X142093204Y-145791354D01*
G36*
X144807759Y-145759345D02*
X144902059Y-145777229D01*
X144999890Y-145814633D01*
X145010343Y-145819402D01*
X145084531Y-145858412D01*
X145135910Y-145894664D01*
X145152517Y-145917887D01*
X145136702Y-145955761D01*
X145098288Y-146011644D01*
X145081237Y-146032505D01*
X145010969Y-146114618D01*
X144920379Y-146061168D01*
X144834164Y-146025561D01*
X144734549Y-146006529D01*
X144639019Y-146005326D01*
X144565061Y-146023210D01*
X144547312Y-146034373D01*
X144513512Y-146085553D01*
X144509404Y-146144509D01*
X144534696Y-146190567D01*
X144549656Y-146199499D01*
X144594486Y-146210592D01*
X144673286Y-146223630D01*
X144770426Y-146236088D01*
X144788346Y-146238042D01*
X144944365Y-146265030D01*
X145057523Y-146310873D01*
X145132569Y-146379803D01*
X145174253Y-146476054D01*
X145187238Y-146593617D01*
X145169299Y-146727254D01*
X145111050Y-146832195D01*
X145012255Y-146908630D01*
X144872682Y-146956748D01*
X144717745Y-146975732D01*
X144591398Y-146975504D01*
X144488913Y-146958262D01*
X144418921Y-146934457D01*
X144330483Y-146892978D01*
X144248754Y-146844842D01*
X144219705Y-146823655D01*
X144145000Y-146762676D01*
X144235098Y-146671508D01*
X144325196Y-146580339D01*
X144427632Y-146648128D01*
X144530374Y-146699042D01*
X144640087Y-146725673D01*
X144745551Y-146728483D01*
X144835546Y-146707935D01*
X144898854Y-146664493D01*
X144919296Y-146627838D01*
X144916229Y-146569053D01*
X144865434Y-146524099D01*
X144767048Y-146493057D01*
X144659256Y-146478710D01*
X144493365Y-146451337D01*
X144370124Y-146399693D01*
X144287886Y-146322266D01*
X144245001Y-146217544D01*
X144239060Y-146093387D01*
X144268406Y-145963702D01*
X144335309Y-145865677D01*
X144440371Y-145798866D01*
X144584190Y-145762820D01*
X144690738Y-145755754D01*
X144807759Y-145759345D01*
X144807759Y-145759345D01*
G37*
X144807759Y-145759345D02*
X144902059Y-145777229D01*
X144999890Y-145814633D01*
X145010343Y-145819402D01*
X145084531Y-145858412D01*
X145135910Y-145894664D01*
X145152517Y-145917887D01*
X145136702Y-145955761D01*
X145098288Y-146011644D01*
X145081237Y-146032505D01*
X145010969Y-146114618D01*
X144920379Y-146061168D01*
X144834164Y-146025561D01*
X144734549Y-146006529D01*
X144639019Y-146005326D01*
X144565061Y-146023210D01*
X144547312Y-146034373D01*
X144513512Y-146085553D01*
X144509404Y-146144509D01*
X144534696Y-146190567D01*
X144549656Y-146199499D01*
X144594486Y-146210592D01*
X144673286Y-146223630D01*
X144770426Y-146236088D01*
X144788346Y-146238042D01*
X144944365Y-146265030D01*
X145057523Y-146310873D01*
X145132569Y-146379803D01*
X145174253Y-146476054D01*
X145187238Y-146593617D01*
X145169299Y-146727254D01*
X145111050Y-146832195D01*
X145012255Y-146908630D01*
X144872682Y-146956748D01*
X144717745Y-146975732D01*
X144591398Y-146975504D01*
X144488913Y-146958262D01*
X144418921Y-146934457D01*
X144330483Y-146892978D01*
X144248754Y-146844842D01*
X144219705Y-146823655D01*
X144145000Y-146762676D01*
X144235098Y-146671508D01*
X144325196Y-146580339D01*
X144427632Y-146648128D01*
X144530374Y-146699042D01*
X144640087Y-146725673D01*
X144745551Y-146728483D01*
X144835546Y-146707935D01*
X144898854Y-146664493D01*
X144919296Y-146627838D01*
X144916229Y-146569053D01*
X144865434Y-146524099D01*
X144767048Y-146493057D01*
X144659256Y-146478710D01*
X144493365Y-146451337D01*
X144370124Y-146399693D01*
X144287886Y-146322266D01*
X144245001Y-146217544D01*
X144239060Y-146093387D01*
X144268406Y-145963702D01*
X144335309Y-145865677D01*
X144440371Y-145798866D01*
X144584190Y-145762820D01*
X144690738Y-145755754D01*
X144807759Y-145759345D01*
G36*
X145989547Y-145778364D02*
X146115502Y-145846959D01*
X146214047Y-145955245D01*
X146260478Y-146043315D01*
X146280412Y-146121101D01*
X146293328Y-146231993D01*
X146298863Y-146359738D01*
X146296654Y-146488084D01*
X146286337Y-146600779D01*
X146274286Y-146660969D01*
X146233634Y-146743311D01*
X146163230Y-146830770D01*
X146078382Y-146907251D01*
X145994397Y-146956655D01*
X145992349Y-146957439D01*
X145888134Y-146979027D01*
X145764627Y-146979562D01*
X145647261Y-146959908D01*
X145601942Y-146944155D01*
X145485220Y-146877966D01*
X145401624Y-146791246D01*
X145346701Y-146676438D01*
X145315995Y-146525982D01*
X145309047Y-146447173D01*
X145309933Y-146348145D01*
X145576862Y-146348145D01*
X145585854Y-146492645D01*
X145611736Y-146602760D01*
X145652868Y-146673116D01*
X145682172Y-146693235D01*
X145757251Y-146707265D01*
X145846494Y-146703111D01*
X145923650Y-146682922D01*
X145943883Y-146671815D01*
X145997265Y-146607123D01*
X146032500Y-146508119D01*
X146047498Y-146387632D01*
X146040172Y-146258494D01*
X146023799Y-146180775D01*
X145976790Y-146090771D01*
X145902582Y-146034509D01*
X145813209Y-146015057D01*
X145720707Y-146035481D01*
X145649653Y-146085437D01*
X145612312Y-146126655D01*
X145590518Y-146167281D01*
X145580130Y-146222264D01*
X145577006Y-146306549D01*
X145576862Y-146348145D01*
X145309933Y-146348145D01*
X145310930Y-146236874D01*
X145345180Y-146064423D01*
X145411802Y-145929814D01*
X145510799Y-145833040D01*
X145642175Y-145774094D01*
X145670385Y-145767259D01*
X145839926Y-145751213D01*
X145989547Y-145778364D01*
X145989547Y-145778364D01*
G37*
X145989547Y-145778364D02*
X146115502Y-145846959D01*
X146214047Y-145955245D01*
X146260478Y-146043315D01*
X146280412Y-146121101D01*
X146293328Y-146231993D01*
X146298863Y-146359738D01*
X146296654Y-146488084D01*
X146286337Y-146600779D01*
X146274286Y-146660969D01*
X146233634Y-146743311D01*
X146163230Y-146830770D01*
X146078382Y-146907251D01*
X145994397Y-146956655D01*
X145992349Y-146957439D01*
X145888134Y-146979027D01*
X145764627Y-146979562D01*
X145647261Y-146959908D01*
X145601942Y-146944155D01*
X145485220Y-146877966D01*
X145401624Y-146791246D01*
X145346701Y-146676438D01*
X145315995Y-146525982D01*
X145309047Y-146447173D01*
X145309933Y-146348145D01*
X145576862Y-146348145D01*
X145585854Y-146492645D01*
X145611736Y-146602760D01*
X145652868Y-146673116D01*
X145682172Y-146693235D01*
X145757251Y-146707265D01*
X145846494Y-146703111D01*
X145923650Y-146682922D01*
X145943883Y-146671815D01*
X145997265Y-146607123D01*
X146032500Y-146508119D01*
X146047498Y-146387632D01*
X146040172Y-146258494D01*
X146023799Y-146180775D01*
X145976790Y-146090771D01*
X145902582Y-146034509D01*
X145813209Y-146015057D01*
X145720707Y-146035481D01*
X145649653Y-146085437D01*
X145612312Y-146126655D01*
X145590518Y-146167281D01*
X145580130Y-146222264D01*
X145577006Y-146306549D01*
X145576862Y-146348145D01*
X145309933Y-146348145D01*
X145310930Y-146236874D01*
X145345180Y-146064423D01*
X145411802Y-145929814D01*
X145510799Y-145833040D01*
X145642175Y-145774094D01*
X145670385Y-145767259D01*
X145839926Y-145751213D01*
X145989547Y-145778364D01*
G36*
X146747254Y-146151245D02*
X146749608Y-146333879D01*
X146758207Y-146472600D01*
X146775360Y-146573147D01*
X146803374Y-146641254D01*
X146844557Y-146682659D01*
X146901217Y-146703097D01*
X146971372Y-146708318D01*
X147044848Y-146702468D01*
X147100657Y-146681093D01*
X147141109Y-146638458D01*
X147168509Y-146568825D01*
X147185167Y-146466460D01*
X147193389Y-146325624D01*
X147195490Y-146151245D01*
X147195490Y-145763628D01*
X147469411Y-145763628D01*
X147469411Y-146958922D01*
X147332451Y-146958922D01*
X147249884Y-146955576D01*
X147207368Y-146943826D01*
X147195490Y-146921520D01*
X147188336Y-146901654D01*
X147159865Y-146905857D01*
X147102476Y-146933971D01*
X146970945Y-146977342D01*
X146831438Y-146974270D01*
X146697765Y-146927174D01*
X146634108Y-146889971D01*
X146585553Y-146849691D01*
X146550081Y-146799291D01*
X146525674Y-146731729D01*
X146510313Y-146639965D01*
X146501982Y-146516955D01*
X146498662Y-146355659D01*
X146498235Y-146230928D01*
X146498235Y-145763628D01*
X146747254Y-145763628D01*
X146747254Y-146151245D01*
X146747254Y-146151245D01*
G37*
X146747254Y-146151245D02*
X146749608Y-146333879D01*
X146758207Y-146472600D01*
X146775360Y-146573147D01*
X146803374Y-146641254D01*
X146844557Y-146682659D01*
X146901217Y-146703097D01*
X146971372Y-146708318D01*
X147044848Y-146702468D01*
X147100657Y-146681093D01*
X147141109Y-146638458D01*
X147168509Y-146568825D01*
X147185167Y-146466460D01*
X147193389Y-146325624D01*
X147195490Y-146151245D01*
X147195490Y-145763628D01*
X147469411Y-145763628D01*
X147469411Y-146958922D01*
X147332451Y-146958922D01*
X147249884Y-146955576D01*
X147207368Y-146943826D01*
X147195490Y-146921520D01*
X147188336Y-146901654D01*
X147159865Y-146905857D01*
X147102476Y-146933971D01*
X146970945Y-146977342D01*
X146831438Y-146974270D01*
X146697765Y-146927174D01*
X146634108Y-146889971D01*
X146585553Y-146849691D01*
X146550081Y-146799291D01*
X146525674Y-146731729D01*
X146510313Y-146639965D01*
X146501982Y-146516955D01*
X146498662Y-146355659D01*
X146498235Y-146230928D01*
X146498235Y-145763628D01*
X146747254Y-145763628D01*
X146747254Y-146151245D01*
G36*
X149170976Y-145774056D02*
X149315256Y-145835348D01*
X149360699Y-145865185D01*
X149418779Y-145911036D01*
X149455238Y-145947089D01*
X149461568Y-145958832D01*
X149443693Y-145984889D01*
X149397950Y-146029105D01*
X149361328Y-146059965D01*
X149261088Y-146140520D01*
X149181935Y-146073918D01*
X149120769Y-146030921D01*
X149061129Y-146016079D01*
X148992872Y-146019704D01*
X148884482Y-146046652D01*
X148809872Y-146102587D01*
X148764530Y-146193014D01*
X148743947Y-146323435D01*
X148743942Y-146323517D01*
X148745722Y-146469290D01*
X148773387Y-146576245D01*
X148828571Y-146649064D01*
X148866192Y-146673723D01*
X148966105Y-146704431D01*
X149072822Y-146704449D01*
X149165669Y-146674655D01*
X149187647Y-146660098D01*
X149242765Y-146622914D01*
X149285859Y-146616820D01*
X149332335Y-146644496D01*
X149383716Y-146694205D01*
X149465046Y-146778116D01*
X149374749Y-146852546D01*
X149235236Y-146936549D01*
X149077912Y-146977947D01*
X148913503Y-146974950D01*
X148805531Y-146947500D01*
X148679331Y-146879620D01*
X148578401Y-146772831D01*
X148532548Y-146697451D01*
X148495410Y-146589297D01*
X148476827Y-146452318D01*
X148476684Y-146303864D01*
X148494865Y-146161281D01*
X148531255Y-146041918D01*
X148536987Y-146029680D01*
X148621865Y-145909655D01*
X148736782Y-145822267D01*
X148872659Y-145769329D01*
X149020417Y-145752654D01*
X149170976Y-145774056D01*
X149170976Y-145774056D01*
G37*
X149170976Y-145774056D02*
X149315256Y-145835348D01*
X149360699Y-145865185D01*
X149418779Y-145911036D01*
X149455238Y-145947089D01*
X149461568Y-145958832D01*
X149443693Y-145984889D01*
X149397950Y-146029105D01*
X149361328Y-146059965D01*
X149261088Y-146140520D01*
X149181935Y-146073918D01*
X149120769Y-146030921D01*
X149061129Y-146016079D01*
X148992872Y-146019704D01*
X148884482Y-146046652D01*
X148809872Y-146102587D01*
X148764530Y-146193014D01*
X148743947Y-146323435D01*
X148743942Y-146323517D01*
X148745722Y-146469290D01*
X148773387Y-146576245D01*
X148828571Y-146649064D01*
X148866192Y-146673723D01*
X148966105Y-146704431D01*
X149072822Y-146704449D01*
X149165669Y-146674655D01*
X149187647Y-146660098D01*
X149242765Y-146622914D01*
X149285859Y-146616820D01*
X149332335Y-146644496D01*
X149383716Y-146694205D01*
X149465046Y-146778116D01*
X149374749Y-146852546D01*
X149235236Y-146936549D01*
X149077912Y-146977947D01*
X148913503Y-146974950D01*
X148805531Y-146947500D01*
X148679331Y-146879620D01*
X148578401Y-146772831D01*
X148532548Y-146697451D01*
X148495410Y-146589297D01*
X148476827Y-146452318D01*
X148476684Y-146303864D01*
X148494865Y-146161281D01*
X148531255Y-146041918D01*
X148536987Y-146029680D01*
X148621865Y-145909655D01*
X148736782Y-145822267D01*
X148872659Y-145769329D01*
X149020417Y-145752654D01*
X149170976Y-145774056D01*
G36*
X150083287Y-145759355D02*
X150147051Y-145774845D01*
X150269300Y-145831569D01*
X150373834Y-145918202D01*
X150446180Y-146022074D01*
X150456119Y-146045396D01*
X150469754Y-146106484D01*
X150479298Y-146196853D01*
X150482549Y-146288190D01*
X150482549Y-146460882D01*
X150121470Y-146460882D01*
X149972546Y-146461445D01*
X149867632Y-146464864D01*
X149800937Y-146473731D01*
X149766666Y-146490641D01*
X149759028Y-146518189D01*
X149772229Y-146558968D01*
X149795877Y-146606683D01*
X149861843Y-146686314D01*
X149953512Y-146725987D01*
X150065555Y-146724695D01*
X150192472Y-146681514D01*
X150302158Y-146628224D01*
X150393173Y-146700191D01*
X150484188Y-146772157D01*
X150398563Y-146851269D01*
X150284250Y-146926017D01*
X150143666Y-146971084D01*
X149992449Y-146983696D01*
X149846236Y-146961079D01*
X149822647Y-146953405D01*
X149694141Y-146886296D01*
X149598551Y-146786247D01*
X149533861Y-146650271D01*
X149498057Y-146475380D01*
X149497640Y-146471632D01*
X149494434Y-146281032D01*
X149507393Y-146213035D01*
X149760392Y-146213035D01*
X149783627Y-146223491D01*
X149846710Y-146231500D01*
X149939706Y-146236073D01*
X149998638Y-146236765D01*
X150108537Y-146236332D01*
X150177252Y-146233578D01*
X150213405Y-146226321D01*
X150225615Y-146212376D01*
X150222504Y-146189562D01*
X150219894Y-146180735D01*
X150175344Y-146097800D01*
X150105279Y-146030960D01*
X150043446Y-146001589D01*
X149961301Y-146003362D01*
X149878062Y-146039990D01*
X149808238Y-146100634D01*
X149766337Y-146174456D01*
X149760392Y-146213035D01*
X149507393Y-146213035D01*
X149526385Y-146113395D01*
X149589773Y-145972711D01*
X149680878Y-145862974D01*
X149795978Y-145788174D01*
X149931355Y-145752304D01*
X150083287Y-145759355D01*
X150083287Y-145759355D01*
G37*
X150083287Y-145759355D02*
X150147051Y-145774845D01*
X150269300Y-145831569D01*
X150373834Y-145918202D01*
X150446180Y-146022074D01*
X150456119Y-146045396D01*
X150469754Y-146106484D01*
X150479298Y-146196853D01*
X150482549Y-146288190D01*
X150482549Y-146460882D01*
X150121470Y-146460882D01*
X149972546Y-146461445D01*
X149867632Y-146464864D01*
X149800937Y-146473731D01*
X149766666Y-146490641D01*
X149759028Y-146518189D01*
X149772229Y-146558968D01*
X149795877Y-146606683D01*
X149861843Y-146686314D01*
X149953512Y-146725987D01*
X150065555Y-146724695D01*
X150192472Y-146681514D01*
X150302158Y-146628224D01*
X150393173Y-146700191D01*
X150484188Y-146772157D01*
X150398563Y-146851269D01*
X150284250Y-146926017D01*
X150143666Y-146971084D01*
X149992449Y-146983696D01*
X149846236Y-146961079D01*
X149822647Y-146953405D01*
X149694141Y-146886296D01*
X149598551Y-146786247D01*
X149533861Y-146650271D01*
X149498057Y-146475380D01*
X149497640Y-146471632D01*
X149494434Y-146281032D01*
X149507393Y-146213035D01*
X149760392Y-146213035D01*
X149783627Y-146223491D01*
X149846710Y-146231500D01*
X149939706Y-146236073D01*
X149998638Y-146236765D01*
X150108537Y-146236332D01*
X150177252Y-146233578D01*
X150213405Y-146226321D01*
X150225615Y-146212376D01*
X150222504Y-146189562D01*
X150219894Y-146180735D01*
X150175344Y-146097800D01*
X150105279Y-146030960D01*
X150043446Y-146001589D01*
X149961301Y-146003362D01*
X149878062Y-146039990D01*
X149808238Y-146100634D01*
X149766337Y-146174456D01*
X149760392Y-146213035D01*
X149507393Y-146213035D01*
X149526385Y-146113395D01*
X149589773Y-145972711D01*
X149680878Y-145862974D01*
X149795978Y-145788174D01*
X149931355Y-145752304D01*
X150083287Y-145759355D01*
G36*
X143286760Y-145784199D02*
X143348736Y-145813802D01*
X143408759Y-145856561D01*
X143454486Y-145905775D01*
X143487793Y-145968544D01*
X143510555Y-146051971D01*
X143524647Y-146163159D01*
X143531942Y-146309209D01*
X143534318Y-146497223D01*
X143534355Y-146516912D01*
X143534902Y-146958922D01*
X143260980Y-146958922D01*
X143260980Y-146551435D01*
X143260785Y-146400471D01*
X143259436Y-146291056D01*
X143255788Y-146214933D01*
X143248696Y-146163848D01*
X143237013Y-146129545D01*
X143219594Y-146103768D01*
X143195329Y-146078298D01*
X143110435Y-146023571D01*
X143017761Y-146013416D01*
X142929473Y-146048017D01*
X142898770Y-146073770D01*
X142876229Y-146097982D01*
X142860046Y-146123912D01*
X142849168Y-146159708D01*
X142842542Y-146213519D01*
X142839115Y-146293493D01*
X142837834Y-146407779D01*
X142837647Y-146546907D01*
X142837647Y-146958922D01*
X142563725Y-146958922D01*
X142563725Y-145763628D01*
X142700686Y-145763628D01*
X142782916Y-145766879D01*
X142825340Y-145778426D01*
X142837641Y-145800952D01*
X142837647Y-145801620D01*
X142843354Y-145823681D01*
X142868527Y-145821177D01*
X142918578Y-145796937D01*
X143032094Y-145761271D01*
X143161945Y-145757305D01*
X143286760Y-145784199D01*
X143286760Y-145784199D01*
G37*
X143286760Y-145784199D02*
X143348736Y-145813802D01*
X143408759Y-145856561D01*
X143454486Y-145905775D01*
X143487793Y-145968544D01*
X143510555Y-146051971D01*
X143524647Y-146163159D01*
X143531942Y-146309209D01*
X143534318Y-146497223D01*
X143534355Y-146516912D01*
X143534902Y-146958922D01*
X143260980Y-146958922D01*
X143260980Y-146551435D01*
X143260785Y-146400471D01*
X143259436Y-146291056D01*
X143255788Y-146214933D01*
X143248696Y-146163848D01*
X143237013Y-146129545D01*
X143219594Y-146103768D01*
X143195329Y-146078298D01*
X143110435Y-146023571D01*
X143017761Y-146013416D01*
X142929473Y-146048017D01*
X142898770Y-146073770D01*
X142876229Y-146097982D01*
X142860046Y-146123912D01*
X142849168Y-146159708D01*
X142842542Y-146213519D01*
X142839115Y-146293493D01*
X142837834Y-146407779D01*
X142837647Y-146546907D01*
X142837647Y-146958922D01*
X142563725Y-146958922D01*
X142563725Y-145763628D01*
X142700686Y-145763628D01*
X142782916Y-145766879D01*
X142825340Y-145778426D01*
X142837641Y-145800952D01*
X142837647Y-145801620D01*
X142843354Y-145823681D01*
X142868527Y-145821177D01*
X142918578Y-145796937D01*
X143032094Y-145761271D01*
X143161945Y-145757305D01*
X143286760Y-145784199D01*
G36*
X148343637Y-145762472D02*
X148429290Y-145788641D01*
X148484437Y-145821707D01*
X148502401Y-145847855D01*
X148497457Y-145878852D01*
X148465372Y-145927547D01*
X148438243Y-145962035D01*
X148382317Y-146024383D01*
X148340299Y-146050615D01*
X148304480Y-146048903D01*
X148198224Y-146021863D01*
X148120189Y-146023091D01*
X148056820Y-146053735D01*
X148035546Y-146071670D01*
X147967451Y-146134779D01*
X147967451Y-146958922D01*
X147693529Y-146958922D01*
X147693529Y-145763628D01*
X147830490Y-145763628D01*
X147912719Y-145766879D01*
X147955144Y-145778426D01*
X147967445Y-145800952D01*
X147967451Y-145801620D01*
X147973260Y-145825215D01*
X147999531Y-145822138D01*
X148035931Y-145805115D01*
X148111111Y-145773439D01*
X148172158Y-145754381D01*
X148250708Y-145749496D01*
X148343637Y-145762472D01*
X148343637Y-145762472D01*
G37*
X148343637Y-145762472D02*
X148429290Y-145788641D01*
X148484437Y-145821707D01*
X148502401Y-145847855D01*
X148497457Y-145878852D01*
X148465372Y-145927547D01*
X148438243Y-145962035D01*
X148382317Y-146024383D01*
X148340299Y-146050615D01*
X148304480Y-146048903D01*
X148198224Y-146021863D01*
X148120189Y-146023091D01*
X148056820Y-146053735D01*
X148035546Y-146071670D01*
X147967451Y-146134779D01*
X147967451Y-146958922D01*
X147693529Y-146958922D01*
X147693529Y-145763628D01*
X147830490Y-145763628D01*
X147912719Y-145766879D01*
X147955144Y-145778426D01*
X147967445Y-145800952D01*
X147967451Y-145801620D01*
X147973260Y-145825215D01*
X147999531Y-145822138D01*
X148035931Y-145805115D01*
X148111111Y-145773439D01*
X148172158Y-145754381D01*
X148250708Y-145749496D01*
X148343637Y-145762472D01*
G36*
X145526535Y-137508172D02*
X145639117Y-138105363D01*
X146054531Y-138276610D01*
X146469944Y-138447857D01*
X146968302Y-138108978D01*
X147107868Y-138014622D01*
X147234028Y-137930375D01*
X147340895Y-137860083D01*
X147422582Y-137807592D01*
X147473201Y-137776749D01*
X147486986Y-137770098D01*
X147511820Y-137787203D01*
X147564888Y-137834489D01*
X147640240Y-137905917D01*
X147731929Y-137995445D01*
X147834007Y-138097034D01*
X147940526Y-138204643D01*
X148045536Y-138312232D01*
X148143091Y-138413760D01*
X148227242Y-138503186D01*
X148292040Y-138574471D01*
X148331538Y-138621573D01*
X148340980Y-138637337D01*
X148327391Y-138666398D01*
X148289293Y-138730066D01*
X148230694Y-138822112D01*
X148155597Y-138936309D01*
X148068009Y-139066429D01*
X148017254Y-139140646D01*
X147924745Y-139276167D01*
X147842540Y-139398461D01*
X147774630Y-139501440D01*
X147725000Y-139579018D01*
X147697640Y-139625106D01*
X147693529Y-139634792D01*
X147702849Y-139662319D01*
X147728254Y-139726473D01*
X147765911Y-139818235D01*
X147811986Y-139928584D01*
X147862646Y-140048500D01*
X147914059Y-140168964D01*
X147962389Y-140280954D01*
X148003806Y-140375452D01*
X148034474Y-140443437D01*
X148050562Y-140475888D01*
X148051511Y-140477165D01*
X148076772Y-140483362D01*
X148144046Y-140497185D01*
X148246360Y-140517277D01*
X148376741Y-140542279D01*
X148528216Y-140570831D01*
X148616594Y-140587296D01*
X148778452Y-140618114D01*
X148924649Y-140647439D01*
X149047787Y-140673666D01*
X149140469Y-140695191D01*
X149195301Y-140710410D01*
X149206323Y-140715238D01*
X149217119Y-140747919D01*
X149225829Y-140821730D01*
X149232460Y-140928037D01*
X149237018Y-141058212D01*
X149239509Y-141203621D01*
X149239938Y-141355635D01*
X149238311Y-141505622D01*
X149234635Y-141644951D01*
X149228915Y-141764990D01*
X149221158Y-141857110D01*
X149211368Y-141912677D01*
X149205496Y-141924245D01*
X149170399Y-141938110D01*
X149096028Y-141957933D01*
X148992223Y-141981384D01*
X148868819Y-142006136D01*
X148825741Y-142014143D01*
X148618047Y-142052186D01*
X148453984Y-142082824D01*
X148328130Y-142107274D01*
X148235065Y-142126754D01*
X148169367Y-142142481D01*
X148125617Y-142155673D01*
X148098392Y-142167549D01*
X148082272Y-142179325D01*
X148080017Y-142181653D01*
X148057503Y-142219145D01*
X148023158Y-142292110D01*
X147980411Y-142391612D01*
X147932692Y-142508718D01*
X147883430Y-142634493D01*
X147836055Y-142760002D01*
X147793995Y-142876310D01*
X147760680Y-142974484D01*
X147739541Y-143045588D01*
X147734005Y-143080687D01*
X147734466Y-143081917D01*
X147753223Y-143110606D01*
X147795776Y-143173730D01*
X147857653Y-143264718D01*
X147934382Y-143377000D01*
X148021491Y-143504005D01*
X148046299Y-143540098D01*
X148134753Y-143670948D01*
X148212588Y-143790336D01*
X148275566Y-143891407D01*
X148319445Y-143967304D01*
X148339985Y-144011172D01*
X148340980Y-144016562D01*
X148323722Y-144044889D01*
X148276036Y-144101006D01*
X148204050Y-144178882D01*
X148113897Y-144272485D01*
X148011705Y-144375786D01*
X147903606Y-144482751D01*
X147795728Y-144587351D01*
X147694204Y-144683554D01*
X147605162Y-144765329D01*
X147534733Y-144826645D01*
X147489047Y-144861471D01*
X147476409Y-144867157D01*
X147446991Y-144853765D01*
X147386761Y-144817644D01*
X147305530Y-144764881D01*
X147243030Y-144722412D01*
X147129785Y-144644485D01*
X146995674Y-144552729D01*
X146861155Y-144461120D01*
X146788833Y-144412091D01*
X146544038Y-144246515D01*
X146338551Y-144357620D01*
X146244936Y-144406293D01*
X146165330Y-144444126D01*
X146111467Y-144465703D01*
X146097757Y-144468706D01*
X146081270Y-144446538D01*
X146048745Y-144383894D01*
X146002609Y-144286554D01*
X145945290Y-144160294D01*
X145879216Y-144010895D01*
X145806815Y-143844133D01*
X145730516Y-143665787D01*
X145652746Y-143481636D01*
X145575934Y-143297457D01*
X145502506Y-143119030D01*
X145434892Y-142952132D01*
X145375520Y-142802542D01*
X145326816Y-142676038D01*
X145291210Y-142578399D01*
X145271130Y-142515402D01*
X145267900Y-142493766D01*
X145293496Y-142466169D01*
X145349539Y-142421370D01*
X145424311Y-142368679D01*
X145430587Y-142364510D01*
X145623845Y-142209814D01*
X145779674Y-142029336D01*
X145896724Y-141828847D01*
X145973645Y-141614119D01*
X146009086Y-141390922D01*
X146001697Y-141165026D01*
X145950127Y-140942204D01*
X145853026Y-140728224D01*
X145824458Y-140681409D01*
X145675868Y-140492363D01*
X145500327Y-140340557D01*
X145303910Y-140226779D01*
X145092693Y-140151820D01*
X144872753Y-140116467D01*
X144650163Y-140121512D01*
X144431001Y-140167744D01*
X144221342Y-140255951D01*
X144027261Y-140386924D01*
X143967226Y-140440082D01*
X143814435Y-140606484D01*
X143703097Y-140781657D01*
X143626723Y-140978011D01*
X143584187Y-141172462D01*
X143573686Y-141391087D01*
X143608701Y-141610797D01*
X143685673Y-141824165D01*
X143801047Y-142023767D01*
X143951266Y-142202174D01*
X144132773Y-142351962D01*
X144156627Y-142367751D01*
X144232201Y-142419457D01*
X144289651Y-142464257D01*
X144317117Y-142492862D01*
X144317517Y-142493766D01*
X144311620Y-142524709D01*
X144288245Y-142594936D01*
X144249821Y-142698670D01*
X144198777Y-142830135D01*
X144137542Y-142983552D01*
X144068544Y-143153146D01*
X143994214Y-143333138D01*
X143916978Y-143517753D01*
X143839268Y-143701213D01*
X143763511Y-143877741D01*
X143692137Y-144041559D01*
X143627574Y-144186892D01*
X143572252Y-144307962D01*
X143528600Y-144398992D01*
X143499046Y-144454205D01*
X143487144Y-144468706D01*
X143450777Y-144457414D01*
X143382730Y-144427130D01*
X143294737Y-144383265D01*
X143246351Y-144357620D01*
X143040863Y-144246515D01*
X142796068Y-144412091D01*
X142671106Y-144496915D01*
X142534295Y-144590261D01*
X142406089Y-144678153D01*
X142341871Y-144722412D01*
X142251551Y-144783063D01*
X142175071Y-144831126D01*
X142122407Y-144860515D01*
X142105302Y-144866727D01*
X142080405Y-144849968D01*
X142025305Y-144803181D01*
X141945343Y-144731225D01*
X141845861Y-144638957D01*
X141732200Y-144531235D01*
X141660315Y-144462071D01*
X141534551Y-144338502D01*
X141425863Y-144227979D01*
X141338645Y-144135230D01*
X141277289Y-144064982D01*
X141246191Y-144021965D01*
X141243208Y-144013235D01*
X141257053Y-143980029D01*
X141295312Y-143912887D01*
X141353742Y-143818608D01*
X141428097Y-143703990D01*
X141514135Y-143575828D01*
X141538603Y-143540098D01*
X141627755Y-143410234D01*
X141707738Y-143293314D01*
X141774080Y-143195907D01*
X141822311Y-143124584D01*
X141847957Y-143085915D01*
X141850435Y-143081917D01*
X141846729Y-143051100D01*
X141827061Y-142983344D01*
X141794860Y-142887584D01*
X141753555Y-142772754D01*
X141706575Y-142647789D01*
X141657349Y-142521624D01*
X141609308Y-142403193D01*
X141565881Y-142301430D01*
X141530496Y-142225271D01*
X141506584Y-142183649D01*
X141504884Y-142181653D01*
X141490262Y-142169758D01*
X141465565Y-142157995D01*
X141425372Y-142145146D01*
X141364263Y-142129994D01*
X141276817Y-142111321D01*
X141157612Y-142087910D01*
X141001227Y-142058542D01*
X140802243Y-142022000D01*
X140759160Y-142014143D01*
X140631471Y-141989472D01*
X140520153Y-141965338D01*
X140435045Y-141944069D01*
X140385983Y-141927993D01*
X140379405Y-141924245D01*
X140368564Y-141891018D01*
X140359753Y-141816766D01*
X140352976Y-141710121D01*
X140348240Y-141579712D01*
X140345550Y-141434172D01*
X140344913Y-141282131D01*
X140346334Y-141132221D01*
X140349820Y-140993073D01*
X140355376Y-140873317D01*
X140363008Y-140781586D01*
X140372722Y-140726511D01*
X140378578Y-140715238D01*
X140411180Y-140703868D01*
X140485418Y-140685369D01*
X140593896Y-140661347D01*
X140729217Y-140633407D01*
X140883985Y-140603153D01*
X140968308Y-140587296D01*
X141128296Y-140557389D01*
X141270967Y-140530295D01*
X141389348Y-140507376D01*
X141476465Y-140489988D01*
X141525345Y-140479492D01*
X141533390Y-140477165D01*
X141546987Y-140450931D01*
X141575729Y-140387740D01*
X141615785Y-140296622D01*
X141663324Y-140186602D01*
X141714515Y-140066710D01*
X141765526Y-139945972D01*
X141812526Y-139833416D01*
X141851684Y-139738071D01*
X141879169Y-139668962D01*
X141891149Y-139635119D01*
X141891372Y-139633640D01*
X141877791Y-139606942D01*
X141839715Y-139545505D01*
X141781147Y-139455434D01*
X141706088Y-139342835D01*
X141618540Y-139213815D01*
X141567647Y-139139706D01*
X141474909Y-139003822D01*
X141392541Y-138880454D01*
X141324561Y-138775842D01*
X141274988Y-138696228D01*
X141247842Y-138647852D01*
X141243921Y-138637007D01*
X141260775Y-138611765D01*
X141307368Y-138557869D01*
X141377749Y-138481358D01*
X141465965Y-138388268D01*
X141566065Y-138284640D01*
X141672098Y-138176509D01*
X141778111Y-138069915D01*
X141878152Y-137970895D01*
X141966270Y-137885487D01*
X142036513Y-137819730D01*
X142082928Y-137779661D01*
X142098456Y-137770098D01*
X142123739Y-137783545D01*
X142184211Y-137821320D01*
X142273992Y-137879580D01*
X142387203Y-137954479D01*
X142517964Y-138042170D01*
X142616600Y-138108978D01*
X143114957Y-138447857D01*
X143530371Y-138276610D01*
X143945784Y-138105363D01*
X144058366Y-137508172D01*
X144170949Y-136910980D01*
X145413952Y-136910980D01*
X145526535Y-137508172D01*
X145526535Y-137508172D01*
G37*
X145526535Y-137508172D02*
X145639117Y-138105363D01*
X146054531Y-138276610D01*
X146469944Y-138447857D01*
X146968302Y-138108978D01*
X147107868Y-138014622D01*
X147234028Y-137930375D01*
X147340895Y-137860083D01*
X147422582Y-137807592D01*
X147473201Y-137776749D01*
X147486986Y-137770098D01*
X147511820Y-137787203D01*
X147564888Y-137834489D01*
X147640240Y-137905917D01*
X147731929Y-137995445D01*
X147834007Y-138097034D01*
X147940526Y-138204643D01*
X148045536Y-138312232D01*
X148143091Y-138413760D01*
X148227242Y-138503186D01*
X148292040Y-138574471D01*
X148331538Y-138621573D01*
X148340980Y-138637337D01*
X148327391Y-138666398D01*
X148289293Y-138730066D01*
X148230694Y-138822112D01*
X148155597Y-138936309D01*
X148068009Y-139066429D01*
X148017254Y-139140646D01*
X147924745Y-139276167D01*
X147842540Y-139398461D01*
X147774630Y-139501440D01*
X147725000Y-139579018D01*
X147697640Y-139625106D01*
X147693529Y-139634792D01*
X147702849Y-139662319D01*
X147728254Y-139726473D01*
X147765911Y-139818235D01*
X147811986Y-139928584D01*
X147862646Y-140048500D01*
X147914059Y-140168964D01*
X147962389Y-140280954D01*
X148003806Y-140375452D01*
X148034474Y-140443437D01*
X148050562Y-140475888D01*
X148051511Y-140477165D01*
X148076772Y-140483362D01*
X148144046Y-140497185D01*
X148246360Y-140517277D01*
X148376741Y-140542279D01*
X148528216Y-140570831D01*
X148616594Y-140587296D01*
X148778452Y-140618114D01*
X148924649Y-140647439D01*
X149047787Y-140673666D01*
X149140469Y-140695191D01*
X149195301Y-140710410D01*
X149206323Y-140715238D01*
X149217119Y-140747919D01*
X149225829Y-140821730D01*
X149232460Y-140928037D01*
X149237018Y-141058212D01*
X149239509Y-141203621D01*
X149239938Y-141355635D01*
X149238311Y-141505622D01*
X149234635Y-141644951D01*
X149228915Y-141764990D01*
X149221158Y-141857110D01*
X149211368Y-141912677D01*
X149205496Y-141924245D01*
X149170399Y-141938110D01*
X149096028Y-141957933D01*
X148992223Y-141981384D01*
X148868819Y-142006136D01*
X148825741Y-142014143D01*
X148618047Y-142052186D01*
X148453984Y-142082824D01*
X148328130Y-142107274D01*
X148235065Y-142126754D01*
X148169367Y-142142481D01*
X148125617Y-142155673D01*
X148098392Y-142167549D01*
X148082272Y-142179325D01*
X148080017Y-142181653D01*
X148057503Y-142219145D01*
X148023158Y-142292110D01*
X147980411Y-142391612D01*
X147932692Y-142508718D01*
X147883430Y-142634493D01*
X147836055Y-142760002D01*
X147793995Y-142876310D01*
X147760680Y-142974484D01*
X147739541Y-143045588D01*
X147734005Y-143080687D01*
X147734466Y-143081917D01*
X147753223Y-143110606D01*
X147795776Y-143173730D01*
X147857653Y-143264718D01*
X147934382Y-143377000D01*
X148021491Y-143504005D01*
X148046299Y-143540098D01*
X148134753Y-143670948D01*
X148212588Y-143790336D01*
X148275566Y-143891407D01*
X148319445Y-143967304D01*
X148339985Y-144011172D01*
X148340980Y-144016562D01*
X148323722Y-144044889D01*
X148276036Y-144101006D01*
X148204050Y-144178882D01*
X148113897Y-144272485D01*
X148011705Y-144375786D01*
X147903606Y-144482751D01*
X147795728Y-144587351D01*
X147694204Y-144683554D01*
X147605162Y-144765329D01*
X147534733Y-144826645D01*
X147489047Y-144861471D01*
X147476409Y-144867157D01*
X147446991Y-144853765D01*
X147386761Y-144817644D01*
X147305530Y-144764881D01*
X147243030Y-144722412D01*
X147129785Y-144644485D01*
X146995674Y-144552729D01*
X146861155Y-144461120D01*
X146788833Y-144412091D01*
X146544038Y-144246515D01*
X146338551Y-144357620D01*
X146244936Y-144406293D01*
X146165330Y-144444126D01*
X146111467Y-144465703D01*
X146097757Y-144468706D01*
X146081270Y-144446538D01*
X146048745Y-144383894D01*
X146002609Y-144286554D01*
X145945290Y-144160294D01*
X145879216Y-144010895D01*
X145806815Y-143844133D01*
X145730516Y-143665787D01*
X145652746Y-143481636D01*
X145575934Y-143297457D01*
X145502506Y-143119030D01*
X145434892Y-142952132D01*
X145375520Y-142802542D01*
X145326816Y-142676038D01*
X145291210Y-142578399D01*
X145271130Y-142515402D01*
X145267900Y-142493766D01*
X145293496Y-142466169D01*
X145349539Y-142421370D01*
X145424311Y-142368679D01*
X145430587Y-142364510D01*
X145623845Y-142209814D01*
X145779674Y-142029336D01*
X145896724Y-141828847D01*
X145973645Y-141614119D01*
X146009086Y-141390922D01*
X146001697Y-141165026D01*
X145950127Y-140942204D01*
X145853026Y-140728224D01*
X145824458Y-140681409D01*
X145675868Y-140492363D01*
X145500327Y-140340557D01*
X145303910Y-140226779D01*
X145092693Y-140151820D01*
X144872753Y-140116467D01*
X144650163Y-140121512D01*
X144431001Y-140167744D01*
X144221342Y-140255951D01*
X144027261Y-140386924D01*
X143967226Y-140440082D01*
X143814435Y-140606484D01*
X143703097Y-140781657D01*
X143626723Y-140978011D01*
X143584187Y-141172462D01*
X143573686Y-141391087D01*
X143608701Y-141610797D01*
X143685673Y-141824165D01*
X143801047Y-142023767D01*
X143951266Y-142202174D01*
X144132773Y-142351962D01*
X144156627Y-142367751D01*
X144232201Y-142419457D01*
X144289651Y-142464257D01*
X144317117Y-142492862D01*
X144317517Y-142493766D01*
X144311620Y-142524709D01*
X144288245Y-142594936D01*
X144249821Y-142698670D01*
X144198777Y-142830135D01*
X144137542Y-142983552D01*
X144068544Y-143153146D01*
X143994214Y-143333138D01*
X143916978Y-143517753D01*
X143839268Y-143701213D01*
X143763511Y-143877741D01*
X143692137Y-144041559D01*
X143627574Y-144186892D01*
X143572252Y-144307962D01*
X143528600Y-144398992D01*
X143499046Y-144454205D01*
X143487144Y-144468706D01*
X143450777Y-144457414D01*
X143382730Y-144427130D01*
X143294737Y-144383265D01*
X143246351Y-144357620D01*
X143040863Y-144246515D01*
X142796068Y-144412091D01*
X142671106Y-144496915D01*
X142534295Y-144590261D01*
X142406089Y-144678153D01*
X142341871Y-144722412D01*
X142251551Y-144783063D01*
X142175071Y-144831126D01*
X142122407Y-144860515D01*
X142105302Y-144866727D01*
X142080405Y-144849968D01*
X142025305Y-144803181D01*
X141945343Y-144731225D01*
X141845861Y-144638957D01*
X141732200Y-144531235D01*
X141660315Y-144462071D01*
X141534551Y-144338502D01*
X141425863Y-144227979D01*
X141338645Y-144135230D01*
X141277289Y-144064982D01*
X141246191Y-144021965D01*
X141243208Y-144013235D01*
X141257053Y-143980029D01*
X141295312Y-143912887D01*
X141353742Y-143818608D01*
X141428097Y-143703990D01*
X141514135Y-143575828D01*
X141538603Y-143540098D01*
X141627755Y-143410234D01*
X141707738Y-143293314D01*
X141774080Y-143195907D01*
X141822311Y-143124584D01*
X141847957Y-143085915D01*
X141850435Y-143081917D01*
X141846729Y-143051100D01*
X141827061Y-142983344D01*
X141794860Y-142887584D01*
X141753555Y-142772754D01*
X141706575Y-142647789D01*
X141657349Y-142521624D01*
X141609308Y-142403193D01*
X141565881Y-142301430D01*
X141530496Y-142225271D01*
X141506584Y-142183649D01*
X141504884Y-142181653D01*
X141490262Y-142169758D01*
X141465565Y-142157995D01*
X141425372Y-142145146D01*
X141364263Y-142129994D01*
X141276817Y-142111321D01*
X141157612Y-142087910D01*
X141001227Y-142058542D01*
X140802243Y-142022000D01*
X140759160Y-142014143D01*
X140631471Y-141989472D01*
X140520153Y-141965338D01*
X140435045Y-141944069D01*
X140385983Y-141927993D01*
X140379405Y-141924245D01*
X140368564Y-141891018D01*
X140359753Y-141816766D01*
X140352976Y-141710121D01*
X140348240Y-141579712D01*
X140345550Y-141434172D01*
X140344913Y-141282131D01*
X140346334Y-141132221D01*
X140349820Y-140993073D01*
X140355376Y-140873317D01*
X140363008Y-140781586D01*
X140372722Y-140726511D01*
X140378578Y-140715238D01*
X140411180Y-140703868D01*
X140485418Y-140685369D01*
X140593896Y-140661347D01*
X140729217Y-140633407D01*
X140883985Y-140603153D01*
X140968308Y-140587296D01*
X141128296Y-140557389D01*
X141270967Y-140530295D01*
X141389348Y-140507376D01*
X141476465Y-140489988D01*
X141525345Y-140479492D01*
X141533390Y-140477165D01*
X141546987Y-140450931D01*
X141575729Y-140387740D01*
X141615785Y-140296622D01*
X141663324Y-140186602D01*
X141714515Y-140066710D01*
X141765526Y-139945972D01*
X141812526Y-139833416D01*
X141851684Y-139738071D01*
X141879169Y-139668962D01*
X141891149Y-139635119D01*
X141891372Y-139633640D01*
X141877791Y-139606942D01*
X141839715Y-139545505D01*
X141781147Y-139455434D01*
X141706088Y-139342835D01*
X141618540Y-139213815D01*
X141567647Y-139139706D01*
X141474909Y-139003822D01*
X141392541Y-138880454D01*
X141324561Y-138775842D01*
X141274988Y-138696228D01*
X141247842Y-138647852D01*
X141243921Y-138637007D01*
X141260775Y-138611765D01*
X141307368Y-138557869D01*
X141377749Y-138481358D01*
X141465965Y-138388268D01*
X141566065Y-138284640D01*
X141672098Y-138176509D01*
X141778111Y-138069915D01*
X141878152Y-137970895D01*
X141966270Y-137885487D01*
X142036513Y-137819730D01*
X142082928Y-137779661D01*
X142098456Y-137770098D01*
X142123739Y-137783545D01*
X142184211Y-137821320D01*
X142273992Y-137879580D01*
X142387203Y-137954479D01*
X142517964Y-138042170D01*
X142616600Y-138108978D01*
X143114957Y-138447857D01*
X143530371Y-138276610D01*
X143945784Y-138105363D01*
X144058366Y-137508172D01*
X144170949Y-136910980D01*
X145413952Y-136910980D01*
X145526535Y-137508172D01*
M02*
