G04 #@! TF.FileFunction,Copper,L2,Bot,Signal*
%FSLAX46Y46*%
G04 Gerber Fmt 4.6, Leading zero omitted, Abs format (unit mm)*
G04 Created by KiCad (PCBNEW 4.0.7) date 05/06/18 08:48:28*
%MOMM*%
%LPD*%
G01*
G04 APERTURE LIST*
%ADD10C,0.100000*%
%ADD11R,1.000000X6.000000*%
%ADD12R,1.000000X8.000000*%
%ADD13R,1.700000X1.700000*%
%ADD14C,1.700000*%
%ADD15O,1.700000X1.700000*%
%ADD16C,0.600000*%
%ADD17C,0.800000*%
%ADD18C,0.250000*%
%ADD19C,1.000000*%
%ADD20C,0.254000*%
G04 APERTURE END LIST*
D10*
D11*
X166370000Y-136668000D03*
D12*
X163830000Y-137668000D03*
X161290000Y-137668000D03*
X158750000Y-137668000D03*
X156210000Y-137668000D03*
X153670000Y-137668000D03*
X151130000Y-137668000D03*
X148590000Y-137668000D03*
X146050000Y-137668000D03*
X143510000Y-137668000D03*
X140970000Y-137668000D03*
X138430000Y-137668000D03*
X135890000Y-137668000D03*
X133350000Y-137668000D03*
X130810000Y-137668000D03*
X128270000Y-137668000D03*
X125730000Y-137668000D03*
X123190000Y-137668000D03*
X120650000Y-137668000D03*
X118110000Y-137668000D03*
X115570000Y-137668000D03*
X113030000Y-137668000D03*
D13*
X102616000Y-99822000D03*
D14*
X102616000Y-97282000D03*
X105156000Y-99822000D03*
X105156000Y-97282000D03*
X107696000Y-99822000D03*
X107696000Y-97282000D03*
X110236000Y-99822000D03*
X110236000Y-97282000D03*
X112776000Y-99822000D03*
X112776000Y-97282000D03*
X115316000Y-99822000D03*
X115316000Y-97282000D03*
X117856000Y-99822000D03*
X117856000Y-97282000D03*
X120396000Y-99822000D03*
X120396000Y-97282000D03*
D13*
X132080000Y-99822000D03*
D14*
X132080000Y-97282000D03*
X134620000Y-99822000D03*
X134620000Y-97282000D03*
X137160000Y-99822000D03*
X137160000Y-97282000D03*
X139700000Y-99822000D03*
X139700000Y-97282000D03*
X142240000Y-99822000D03*
X142240000Y-97282000D03*
X144780000Y-99822000D03*
X144780000Y-97282000D03*
X147320000Y-99822000D03*
X147320000Y-97282000D03*
X149860000Y-99822000D03*
X149860000Y-97282000D03*
X152400000Y-99822000D03*
X152400000Y-97282000D03*
X154940000Y-99822000D03*
X154940000Y-97282000D03*
D13*
X166624000Y-99822000D03*
D14*
X166624000Y-97282000D03*
X169164000Y-99822000D03*
X169164000Y-97282000D03*
X171704000Y-99822000D03*
X171704000Y-97282000D03*
X174244000Y-99822000D03*
X174244000Y-97282000D03*
X176784000Y-99822000D03*
X176784000Y-97282000D03*
D13*
X164338000Y-80518000D03*
D14*
X164338000Y-77978000D03*
X166878000Y-80518000D03*
X166878000Y-77978000D03*
X169418000Y-80518000D03*
X169418000Y-77978000D03*
X171958000Y-80518000D03*
X171958000Y-77978000D03*
X174498000Y-80518000D03*
X174498000Y-77978000D03*
D13*
X109474000Y-60198000D03*
D14*
X109474000Y-57658000D03*
X112014000Y-60198000D03*
X112014000Y-57658000D03*
X114554000Y-60198000D03*
X114554000Y-57658000D03*
X117094000Y-60198000D03*
X117094000Y-57658000D03*
X119634000Y-60198000D03*
X119634000Y-57658000D03*
X122174000Y-60198000D03*
X122174000Y-57658000D03*
X124714000Y-60198000D03*
X124714000Y-57658000D03*
X127254000Y-60198000D03*
X127254000Y-57658000D03*
D13*
X110998000Y-80518000D03*
D14*
X110998000Y-77978000D03*
X113538000Y-80518000D03*
X113538000Y-77978000D03*
X116078000Y-80518000D03*
X116078000Y-77978000D03*
X118618000Y-80518000D03*
X118618000Y-77978000D03*
X121158000Y-80518000D03*
X121158000Y-77978000D03*
X123698000Y-80518000D03*
X123698000Y-77978000D03*
X126238000Y-80518000D03*
X126238000Y-77978000D03*
X128778000Y-80518000D03*
X128778000Y-77978000D03*
X131318000Y-80518000D03*
X131318000Y-77978000D03*
X133858000Y-80518000D03*
X133858000Y-77978000D03*
D13*
X157480000Y-68072000D03*
D15*
X160020000Y-68072000D03*
X162560000Y-68072000D03*
X165100000Y-68072000D03*
X167640000Y-68072000D03*
X170180000Y-68072000D03*
X172720000Y-68072000D03*
X175260000Y-68072000D03*
X177800000Y-68072000D03*
X180340000Y-68072000D03*
D13*
X99060000Y-47752000D03*
D15*
X101600000Y-47752000D03*
X104140000Y-47752000D03*
X106680000Y-47752000D03*
X109220000Y-47752000D03*
X111760000Y-47752000D03*
X114300000Y-47752000D03*
X116840000Y-47752000D03*
X119380000Y-47752000D03*
X121920000Y-47752000D03*
X124460000Y-47752000D03*
X127000000Y-47752000D03*
X129540000Y-47752000D03*
X132080000Y-47752000D03*
X134620000Y-47752000D03*
X137160000Y-47752000D03*
D13*
X99060000Y-68072000D03*
D15*
X101600000Y-68072000D03*
X104140000Y-68072000D03*
X106680000Y-68072000D03*
X109220000Y-68072000D03*
X111760000Y-68072000D03*
X114300000Y-68072000D03*
X116840000Y-68072000D03*
X119380000Y-68072000D03*
X121920000Y-68072000D03*
X124460000Y-68072000D03*
X127000000Y-68072000D03*
X129540000Y-68072000D03*
X132080000Y-68072000D03*
X134620000Y-68072000D03*
X137160000Y-68072000D03*
X139700000Y-68072000D03*
X142240000Y-68072000D03*
X144780000Y-68072000D03*
X147320000Y-68072000D03*
D16*
X122428000Y-110236000D03*
X122428000Y-121666000D03*
X147574000Y-109474000D03*
X147574000Y-110998000D03*
X121666000Y-110998000D03*
X121666000Y-120650000D03*
X170180000Y-106934000D03*
X167894000Y-104648000D03*
X122174000Y-90424000D03*
X122174000Y-92964000D03*
X156718000Y-90424000D03*
X156718000Y-92964000D03*
D17*
X166370000Y-128778000D03*
X113030000Y-128778000D03*
D16*
X119888000Y-101346000D03*
X157734000Y-119380000D03*
X116586000Y-96012000D03*
X157734000Y-113538000D03*
X164084000Y-113792000D03*
X164084000Y-108712000D03*
X158750000Y-114046000D03*
X158750000Y-118364000D03*
X147574000Y-121666000D03*
X147574000Y-124206000D03*
X125730000Y-108458000D03*
X125730000Y-111252000D03*
X133604000Y-111506000D03*
X133350000Y-106172000D03*
X134620000Y-113284000D03*
X137160000Y-107442000D03*
X135890000Y-105156000D03*
X130810000Y-111252000D03*
X138430000Y-111252000D03*
X138430000Y-117094000D03*
X141986000Y-108966000D03*
X135890000Y-114554000D03*
X144780000Y-122682000D03*
X144780000Y-116332000D03*
X146050000Y-101854000D03*
X128270000Y-111252000D03*
X123190000Y-109220000D03*
X122428000Y-108966000D03*
X122428000Y-104902000D03*
X120650000Y-106680000D03*
D17*
X146050000Y-124206000D03*
X129286000Y-96520000D03*
X121412000Y-107950000D03*
D18*
X129540000Y-117856000D02*
X139192000Y-117856000D01*
X129540000Y-117856000D02*
X122428000Y-110744000D01*
X122428000Y-110744000D02*
X122428000Y-110236000D01*
X120650000Y-137668000D02*
X120650000Y-123444000D01*
X120650000Y-123444000D02*
X122428000Y-121666000D01*
X139192000Y-117856000D02*
X147574000Y-109474000D01*
X115570000Y-115570000D02*
X115570000Y-114046000D01*
X101092000Y-101092000D02*
X101092000Y-96266000D01*
X101600000Y-101600000D02*
X101092000Y-101092000D01*
X103124000Y-101600000D02*
X101600000Y-101600000D01*
X115570000Y-114046000D02*
X103124000Y-101600000D01*
X165354000Y-97282000D02*
X165100000Y-97282000D01*
X101727000Y-95631000D02*
X101092000Y-96266000D01*
X111633000Y-95631000D02*
X113284000Y-93980000D01*
X101727000Y-95631000D02*
X111633000Y-95631000D01*
X161798000Y-93980000D02*
X113284000Y-93980000D01*
X166624000Y-97282000D02*
X165354000Y-97282000D01*
X165100000Y-97282000D02*
X161798000Y-93980000D01*
X115570000Y-116586000D02*
X115570000Y-115570000D01*
X115570000Y-137668000D02*
X115570000Y-116586000D01*
X129032000Y-118364000D02*
X129286000Y-118618000D01*
X139954000Y-118618000D02*
X140208000Y-118364000D01*
X129286000Y-118618000D02*
X139954000Y-118618000D01*
X140208000Y-118364000D02*
X147574000Y-110998000D01*
X118110000Y-137668000D02*
X118110000Y-124206000D01*
X121666000Y-110998000D02*
X129032000Y-118364000D01*
X118110000Y-124206000D02*
X121666000Y-120650000D01*
X167894000Y-104648000D02*
X168402000Y-104648000D01*
X170434000Y-102616000D02*
X170434000Y-102362000D01*
X168402000Y-104648000D02*
X170434000Y-102616000D01*
X170434000Y-102362000D02*
X170434000Y-102108000D01*
X170434000Y-101092000D02*
X170434000Y-98552000D01*
X170434000Y-98552000D02*
X169164000Y-97282000D01*
X170434000Y-102108000D02*
X170434000Y-101092000D01*
X161290000Y-117348000D02*
X161290000Y-115570000D01*
X169926000Y-106934000D02*
X170180000Y-106934000D01*
X161290000Y-115570000D02*
X169926000Y-106934000D01*
X161290000Y-137668000D02*
X161290000Y-117348000D01*
X146050000Y-137668000D02*
X146050000Y-127762000D01*
X171704000Y-102108000D02*
X171704000Y-99822000D01*
X146050000Y-127762000D02*
X171704000Y-102108000D01*
X148590000Y-126492000D02*
X148590000Y-125984000D01*
X148590000Y-125984000D02*
X172974000Y-101600000D01*
X148590000Y-137668000D02*
X148590000Y-126492000D01*
X172974000Y-98552000D02*
X171704000Y-97282000D01*
X172974000Y-101600000D02*
X172974000Y-98552000D01*
X151130000Y-124968000D02*
X151130000Y-124206000D01*
X151130000Y-124206000D02*
X174244000Y-101092000D01*
X151130000Y-137668000D02*
X151130000Y-124968000D01*
X174244000Y-101092000D02*
X174244000Y-99822000D01*
X153670000Y-123698000D02*
X153670000Y-122428000D01*
X153670000Y-122428000D02*
X175514000Y-100584000D01*
X153670000Y-137668000D02*
X153670000Y-123698000D01*
X175514000Y-98552000D02*
X174244000Y-97282000D01*
X175514000Y-100584000D02*
X175514000Y-98552000D01*
D19*
X122174000Y-92964000D02*
X122174000Y-90424000D01*
X156718000Y-92964000D02*
X156718000Y-90424000D01*
X166370000Y-136668000D02*
X166370000Y-128778000D01*
D18*
X120396000Y-99822000D02*
X120396000Y-99568000D01*
D19*
X113030000Y-137668000D02*
X113030000Y-128778000D01*
D18*
X123190000Y-120650000D02*
X102616000Y-100076000D01*
X102616000Y-100076000D02*
X102616000Y-99822000D01*
X123190000Y-137668000D02*
X123190000Y-120650000D01*
X125730000Y-137668000D02*
X125730000Y-122299602D01*
X103886000Y-98552000D02*
X102616000Y-97282000D01*
X103886000Y-100455602D02*
X103886000Y-98552000D01*
X125730000Y-122299602D02*
X103886000Y-100455602D01*
X128270000Y-137668000D02*
X128270000Y-123952000D01*
X105156000Y-100838000D02*
X105156000Y-99822000D01*
X128270000Y-123952000D02*
X105156000Y-100838000D01*
X130810000Y-125476000D02*
X130810000Y-123190000D01*
X130048000Y-122428000D02*
X127762000Y-122428000D01*
X130810000Y-123190000D02*
X130048000Y-122428000D01*
X130810000Y-137668000D02*
X130810000Y-125476000D01*
X106426000Y-98552000D02*
X105156000Y-97282000D01*
X106426000Y-101092000D02*
X106426000Y-98552000D01*
X127762000Y-122428000D02*
X106426000Y-101092000D01*
X133350000Y-127000000D02*
X133350000Y-122682000D01*
X132334000Y-121666000D02*
X128016000Y-121666000D01*
X133350000Y-122682000D02*
X132334000Y-121666000D01*
X133350000Y-137668000D02*
X133350000Y-127000000D01*
X107696000Y-101346000D02*
X107696000Y-99822000D01*
X128016000Y-121666000D02*
X107696000Y-101346000D01*
X135890000Y-128524000D02*
X135890000Y-121666000D01*
X135128000Y-120904000D02*
X128270000Y-120904000D01*
X135890000Y-121666000D02*
X135128000Y-120904000D01*
X128270000Y-120904000D02*
X108966000Y-101600000D01*
X108966000Y-101600000D02*
X108966000Y-101346000D01*
X135890000Y-137668000D02*
X135890000Y-128524000D01*
X108966000Y-98552000D02*
X107696000Y-97282000D01*
X108966000Y-101346000D02*
X108966000Y-98552000D01*
X138430000Y-130048000D02*
X138430000Y-121158000D01*
X137414000Y-120142000D02*
X128524000Y-120142000D01*
X138430000Y-121158000D02*
X137414000Y-120142000D01*
X128524000Y-120142000D02*
X110236000Y-101854000D01*
X110236000Y-101854000D02*
X110236000Y-99822000D01*
X138430000Y-137668000D02*
X138430000Y-130048000D01*
X140970000Y-131572000D02*
X140970000Y-120396000D01*
X139954000Y-119380000D02*
X128778000Y-119380000D01*
X140970000Y-120396000D02*
X139954000Y-119380000D01*
X128778000Y-119380000D02*
X111506000Y-102108000D01*
X111506000Y-102108000D02*
X111506000Y-101092000D01*
X140970000Y-137668000D02*
X140970000Y-131572000D01*
X111506000Y-98552000D02*
X110236000Y-97282000D01*
X111506000Y-101092000D02*
X111506000Y-98552000D01*
X114300000Y-101346000D02*
X112776000Y-99822000D01*
X119888000Y-101346000D02*
X114300000Y-101346000D01*
X162560000Y-108712000D02*
X162560000Y-108966000D01*
X157988000Y-113538000D02*
X157734000Y-113538000D01*
X162560000Y-108966000D02*
X157988000Y-113538000D01*
X156210000Y-122174000D02*
X156210000Y-120650000D01*
X157480000Y-119380000D02*
X157734000Y-119380000D01*
X156210000Y-120650000D02*
X157480000Y-119380000D01*
X116586000Y-96012000D02*
X117094000Y-95504000D01*
X162560000Y-107442000D02*
X162560000Y-97028000D01*
X162560000Y-97028000D02*
X161036000Y-95504000D01*
X161036000Y-95504000D02*
X117094000Y-95504000D01*
X162560000Y-107442000D02*
X162560000Y-108458000D01*
X162560000Y-108712000D02*
X162560000Y-108458000D01*
X162560000Y-108712000D02*
X162560000Y-108458000D01*
X156210000Y-137668000D02*
X156210000Y-122174000D01*
X163830000Y-115824000D02*
X163830000Y-114300000D01*
X163830000Y-137668000D02*
X163830000Y-115824000D01*
X163830000Y-114300000D02*
X163830000Y-114046000D01*
X163830000Y-114300000D02*
X163830000Y-113792000D01*
X163830000Y-114046000D02*
X164084000Y-113792000D01*
X163830000Y-113792000D02*
X163830000Y-113792000D01*
X163830000Y-113792000D02*
X164084000Y-113792000D01*
X117094000Y-94488000D02*
X116332000Y-94488000D01*
X116332000Y-94488000D02*
X114046000Y-96774000D01*
X164084000Y-97028000D02*
X161544000Y-94488000D01*
X161544000Y-94488000D02*
X117094000Y-94488000D01*
X164084000Y-108712000D02*
X164084000Y-97028000D01*
X114046000Y-98552000D02*
X115316000Y-99822000D01*
X114046000Y-96774000D02*
X114046000Y-98552000D01*
X116840000Y-94996000D02*
X116586000Y-94996000D01*
X116586000Y-94996000D02*
X115316000Y-96266000D01*
X163322000Y-97028000D02*
X161290000Y-94996000D01*
X161290000Y-94996000D02*
X116840000Y-94996000D01*
X158750000Y-114046000D02*
X163322000Y-109474000D01*
X163322000Y-109474000D02*
X163322000Y-108712000D01*
X158750000Y-137668000D02*
X158750000Y-118364000D01*
X115316000Y-96266000D02*
X115316000Y-97282000D01*
X163322000Y-108712000D02*
X163322000Y-97028000D01*
X147574000Y-124206000D02*
X147574000Y-121666000D01*
X125730000Y-111252000D02*
X125730000Y-108458000D01*
X133604000Y-111506000D02*
X133604000Y-106426000D01*
X133604000Y-106426000D02*
X133350000Y-106172000D01*
X134620000Y-113284000D02*
X134620000Y-109982000D01*
X134620000Y-109982000D02*
X137160000Y-107442000D01*
X134620000Y-109982000D02*
X137160000Y-107442000D01*
X130810000Y-111252000D02*
X132588000Y-109474000D01*
X132588000Y-105664000D02*
X133096000Y-105156000D01*
X132588000Y-109474000D02*
X132588000Y-105664000D01*
X133096000Y-105156000D02*
X135890000Y-105156000D01*
X138430000Y-117094000D02*
X138430000Y-111252000D01*
X135890000Y-114554000D02*
X135890000Y-111252000D01*
X135890000Y-111252000D02*
X138176000Y-108966000D01*
X138176000Y-108966000D02*
X141986000Y-108966000D01*
X138176000Y-108966000D02*
X141986000Y-108966000D01*
X135890000Y-111252000D02*
X138176000Y-108966000D01*
X144780000Y-122682000D02*
X144780000Y-116332000D01*
X134620000Y-102870000D02*
X135636000Y-101854000D01*
X135636000Y-101854000D02*
X136906000Y-101854000D01*
X128270000Y-111252000D02*
X132080000Y-107442000D01*
X132080000Y-105410000D02*
X134620000Y-102870000D01*
X132080000Y-107442000D02*
X132080000Y-105410000D01*
X136906000Y-101854000D02*
X146050000Y-101854000D01*
X130302000Y-102108000D02*
X131318000Y-101092000D01*
X131318000Y-101092000D02*
X146050000Y-101092000D01*
X123190000Y-109220000D02*
X130302000Y-102108000D01*
X146050000Y-101092000D02*
X147320000Y-99822000D01*
X143510000Y-137668000D02*
X143510000Y-116332000D01*
X148590000Y-98552000D02*
X147320000Y-97282000D01*
X148590000Y-111252000D02*
X148590000Y-98552000D01*
X143510000Y-116332000D02*
X148590000Y-111252000D01*
X130556000Y-100076000D02*
X130556000Y-100838000D01*
X151130000Y-96520000D02*
X151130000Y-98552000D01*
X151130000Y-98552000D02*
X149860000Y-99822000D01*
X150622000Y-96012000D02*
X131064000Y-96012000D01*
X151130000Y-96520000D02*
X150622000Y-96012000D01*
X130556000Y-100076000D02*
X130556000Y-96520000D01*
X130556000Y-96520000D02*
X131064000Y-96012000D01*
X130556000Y-100838000D02*
X122428000Y-108966000D01*
X120650000Y-106680000D02*
X122428000Y-104902000D01*
D19*
X152400000Y-99822000D02*
X152400000Y-114808000D01*
X152400000Y-114808000D02*
X146050000Y-121158000D01*
X146050000Y-121158000D02*
X146050000Y-124206000D01*
X126238000Y-103124000D02*
X129286000Y-100076000D01*
X129286000Y-100076000D02*
X129286000Y-96520000D01*
X121412000Y-107950000D02*
X126238000Y-103124000D01*
D20*
G36*
X139065000Y-64389000D02*
X97830000Y-64389000D01*
X97830000Y-59348000D01*
X107882758Y-59348000D01*
X107882758Y-61048000D01*
X107933451Y-61317410D01*
X108092672Y-61564846D01*
X108335615Y-61730843D01*
X108624000Y-61789242D01*
X110324000Y-61789242D01*
X110593410Y-61738549D01*
X110840846Y-61579328D01*
X110972420Y-61386764D01*
X111119535Y-61534136D01*
X111698939Y-61774725D01*
X112326308Y-61775273D01*
X112906132Y-61535695D01*
X113284270Y-61158216D01*
X113659535Y-61534136D01*
X114238939Y-61774725D01*
X114866308Y-61775273D01*
X115446132Y-61535695D01*
X115824270Y-61158216D01*
X116199535Y-61534136D01*
X116778939Y-61774725D01*
X117406308Y-61775273D01*
X117986132Y-61535695D01*
X118364270Y-61158216D01*
X118739535Y-61534136D01*
X119318939Y-61774725D01*
X119946308Y-61775273D01*
X120526132Y-61535695D01*
X120904270Y-61158216D01*
X121279535Y-61534136D01*
X121858939Y-61774725D01*
X122486308Y-61775273D01*
X123066132Y-61535695D01*
X123444270Y-61158216D01*
X123819535Y-61534136D01*
X124398939Y-61774725D01*
X125026308Y-61775273D01*
X125606132Y-61535695D01*
X125984270Y-61158216D01*
X126359535Y-61534136D01*
X126938939Y-61774725D01*
X127566308Y-61775273D01*
X128146132Y-61535695D01*
X128590136Y-61092465D01*
X128830725Y-60513061D01*
X128831273Y-59885692D01*
X128591695Y-59305868D01*
X128148465Y-58861864D01*
X128076782Y-58832099D01*
X128118353Y-58701958D01*
X127254000Y-57837605D01*
X126389647Y-58701958D01*
X126431091Y-58831703D01*
X126361868Y-58860305D01*
X125983730Y-59237784D01*
X125674216Y-58927730D01*
X126050136Y-58552465D01*
X126079901Y-58480782D01*
X126210042Y-58522353D01*
X127074395Y-57658000D01*
X127433605Y-57658000D01*
X128297958Y-58522353D01*
X128549259Y-58442080D01*
X128750718Y-57886721D01*
X128724315Y-57296542D01*
X128549259Y-56873920D01*
X128297958Y-56793647D01*
X127433605Y-57658000D01*
X127074395Y-57658000D01*
X126210042Y-56793647D01*
X126080297Y-56835091D01*
X126051695Y-56765868D01*
X125900134Y-56614042D01*
X126389647Y-56614042D01*
X127254000Y-57478395D01*
X128118353Y-56614042D01*
X128038080Y-56362741D01*
X127482721Y-56161282D01*
X126892542Y-56187685D01*
X126469920Y-56362741D01*
X126389647Y-56614042D01*
X125900134Y-56614042D01*
X125608465Y-56321864D01*
X125029061Y-56081275D01*
X124401692Y-56080727D01*
X123821868Y-56320305D01*
X123443730Y-56697784D01*
X123068465Y-56321864D01*
X122489061Y-56081275D01*
X121861692Y-56080727D01*
X121281868Y-56320305D01*
X120903730Y-56697784D01*
X120528465Y-56321864D01*
X119949061Y-56081275D01*
X119321692Y-56080727D01*
X118741868Y-56320305D01*
X118363730Y-56697784D01*
X117988465Y-56321864D01*
X117409061Y-56081275D01*
X116781692Y-56080727D01*
X116201868Y-56320305D01*
X115823730Y-56697784D01*
X115448465Y-56321864D01*
X114869061Y-56081275D01*
X114241692Y-56080727D01*
X113661868Y-56320305D01*
X113283730Y-56697784D01*
X112908465Y-56321864D01*
X112329061Y-56081275D01*
X111701692Y-56080727D01*
X111121868Y-56320305D01*
X110743730Y-56697784D01*
X110368465Y-56321864D01*
X109789061Y-56081275D01*
X109161692Y-56080727D01*
X108581868Y-56320305D01*
X108137864Y-56763535D01*
X107897275Y-57342939D01*
X107896727Y-57970308D01*
X108136305Y-58550132D01*
X108286911Y-58701001D01*
X108107154Y-58816672D01*
X107941157Y-59059615D01*
X107882758Y-59348000D01*
X97830000Y-59348000D01*
X97830000Y-49222245D01*
X97921615Y-49284843D01*
X98210000Y-49343242D01*
X99910000Y-49343242D01*
X100179410Y-49292549D01*
X100426846Y-49133328D01*
X100555433Y-48945136D01*
X100996508Y-49239853D01*
X101600000Y-49359895D01*
X102203492Y-49239853D01*
X102715107Y-48898002D01*
X102870000Y-48666189D01*
X103024893Y-48898002D01*
X103536508Y-49239853D01*
X104140000Y-49359895D01*
X104743492Y-49239853D01*
X105255107Y-48898002D01*
X105410000Y-48666189D01*
X105564893Y-48898002D01*
X106076508Y-49239853D01*
X106680000Y-49359895D01*
X107283492Y-49239853D01*
X107795107Y-48898002D01*
X107950000Y-48666189D01*
X108104893Y-48898002D01*
X108616508Y-49239853D01*
X109220000Y-49359895D01*
X109823492Y-49239853D01*
X110335107Y-48898002D01*
X110490000Y-48666189D01*
X110644893Y-48898002D01*
X111156508Y-49239853D01*
X111760000Y-49359895D01*
X112363492Y-49239853D01*
X112875107Y-48898002D01*
X113030000Y-48666189D01*
X113184893Y-48898002D01*
X113696508Y-49239853D01*
X114300000Y-49359895D01*
X114903492Y-49239853D01*
X115415107Y-48898002D01*
X115570000Y-48666189D01*
X115724893Y-48898002D01*
X116236508Y-49239853D01*
X116840000Y-49359895D01*
X117443492Y-49239853D01*
X117955107Y-48898002D01*
X118110000Y-48666189D01*
X118264893Y-48898002D01*
X118776508Y-49239853D01*
X119380000Y-49359895D01*
X119983492Y-49239853D01*
X120495107Y-48898002D01*
X120650000Y-48666189D01*
X120804893Y-48898002D01*
X121316508Y-49239853D01*
X121920000Y-49359895D01*
X122523492Y-49239853D01*
X123035107Y-48898002D01*
X123190000Y-48666189D01*
X123344893Y-48898002D01*
X123856508Y-49239853D01*
X124460000Y-49359895D01*
X125063492Y-49239853D01*
X125575107Y-48898002D01*
X125730000Y-48666189D01*
X125884893Y-48898002D01*
X126396508Y-49239853D01*
X127000000Y-49359895D01*
X127603492Y-49239853D01*
X128115107Y-48898002D01*
X128270000Y-48666189D01*
X128424893Y-48898002D01*
X128936508Y-49239853D01*
X129540000Y-49359895D01*
X130143492Y-49239853D01*
X130655107Y-48898002D01*
X130810000Y-48666189D01*
X130964893Y-48898002D01*
X131476508Y-49239853D01*
X132080000Y-49359895D01*
X132683492Y-49239853D01*
X133195107Y-48898002D01*
X133350000Y-48666189D01*
X133504893Y-48898002D01*
X134016508Y-49239853D01*
X134620000Y-49359895D01*
X135223492Y-49239853D01*
X135735107Y-48898002D01*
X135942991Y-48586882D01*
X135964817Y-48633358D01*
X136393076Y-49023645D01*
X136803110Y-49193476D01*
X137033000Y-49072155D01*
X137033000Y-47879000D01*
X137287000Y-47879000D01*
X137287000Y-49072155D01*
X137516890Y-49193476D01*
X137926924Y-49023645D01*
X138355183Y-48633358D01*
X138601486Y-48108892D01*
X138480819Y-47879000D01*
X137287000Y-47879000D01*
X137033000Y-47879000D01*
X137013000Y-47879000D01*
X137013000Y-47625000D01*
X137033000Y-47625000D01*
X137033000Y-47605000D01*
X137287000Y-47605000D01*
X137287000Y-47625000D01*
X138480819Y-47625000D01*
X138601486Y-47395108D01*
X138355183Y-46870642D01*
X137926924Y-46480355D01*
X137516890Y-46310524D01*
X137287002Y-46431844D01*
X137287002Y-46268000D01*
X139065000Y-46268000D01*
X139065000Y-64389000D01*
X139065000Y-64389000D01*
G37*
X139065000Y-64389000D02*
X97830000Y-64389000D01*
X97830000Y-59348000D01*
X107882758Y-59348000D01*
X107882758Y-61048000D01*
X107933451Y-61317410D01*
X108092672Y-61564846D01*
X108335615Y-61730843D01*
X108624000Y-61789242D01*
X110324000Y-61789242D01*
X110593410Y-61738549D01*
X110840846Y-61579328D01*
X110972420Y-61386764D01*
X111119535Y-61534136D01*
X111698939Y-61774725D01*
X112326308Y-61775273D01*
X112906132Y-61535695D01*
X113284270Y-61158216D01*
X113659535Y-61534136D01*
X114238939Y-61774725D01*
X114866308Y-61775273D01*
X115446132Y-61535695D01*
X115824270Y-61158216D01*
X116199535Y-61534136D01*
X116778939Y-61774725D01*
X117406308Y-61775273D01*
X117986132Y-61535695D01*
X118364270Y-61158216D01*
X118739535Y-61534136D01*
X119318939Y-61774725D01*
X119946308Y-61775273D01*
X120526132Y-61535695D01*
X120904270Y-61158216D01*
X121279535Y-61534136D01*
X121858939Y-61774725D01*
X122486308Y-61775273D01*
X123066132Y-61535695D01*
X123444270Y-61158216D01*
X123819535Y-61534136D01*
X124398939Y-61774725D01*
X125026308Y-61775273D01*
X125606132Y-61535695D01*
X125984270Y-61158216D01*
X126359535Y-61534136D01*
X126938939Y-61774725D01*
X127566308Y-61775273D01*
X128146132Y-61535695D01*
X128590136Y-61092465D01*
X128830725Y-60513061D01*
X128831273Y-59885692D01*
X128591695Y-59305868D01*
X128148465Y-58861864D01*
X128076782Y-58832099D01*
X128118353Y-58701958D01*
X127254000Y-57837605D01*
X126389647Y-58701958D01*
X126431091Y-58831703D01*
X126361868Y-58860305D01*
X125983730Y-59237784D01*
X125674216Y-58927730D01*
X126050136Y-58552465D01*
X126079901Y-58480782D01*
X126210042Y-58522353D01*
X127074395Y-57658000D01*
X127433605Y-57658000D01*
X128297958Y-58522353D01*
X128549259Y-58442080D01*
X128750718Y-57886721D01*
X128724315Y-57296542D01*
X128549259Y-56873920D01*
X128297958Y-56793647D01*
X127433605Y-57658000D01*
X127074395Y-57658000D01*
X126210042Y-56793647D01*
X126080297Y-56835091D01*
X126051695Y-56765868D01*
X125900134Y-56614042D01*
X126389647Y-56614042D01*
X127254000Y-57478395D01*
X128118353Y-56614042D01*
X128038080Y-56362741D01*
X127482721Y-56161282D01*
X126892542Y-56187685D01*
X126469920Y-56362741D01*
X126389647Y-56614042D01*
X125900134Y-56614042D01*
X125608465Y-56321864D01*
X125029061Y-56081275D01*
X124401692Y-56080727D01*
X123821868Y-56320305D01*
X123443730Y-56697784D01*
X123068465Y-56321864D01*
X122489061Y-56081275D01*
X121861692Y-56080727D01*
X121281868Y-56320305D01*
X120903730Y-56697784D01*
X120528465Y-56321864D01*
X119949061Y-56081275D01*
X119321692Y-56080727D01*
X118741868Y-56320305D01*
X118363730Y-56697784D01*
X117988465Y-56321864D01*
X117409061Y-56081275D01*
X116781692Y-56080727D01*
X116201868Y-56320305D01*
X115823730Y-56697784D01*
X115448465Y-56321864D01*
X114869061Y-56081275D01*
X114241692Y-56080727D01*
X113661868Y-56320305D01*
X113283730Y-56697784D01*
X112908465Y-56321864D01*
X112329061Y-56081275D01*
X111701692Y-56080727D01*
X111121868Y-56320305D01*
X110743730Y-56697784D01*
X110368465Y-56321864D01*
X109789061Y-56081275D01*
X109161692Y-56080727D01*
X108581868Y-56320305D01*
X108137864Y-56763535D01*
X107897275Y-57342939D01*
X107896727Y-57970308D01*
X108136305Y-58550132D01*
X108286911Y-58701001D01*
X108107154Y-58816672D01*
X107941157Y-59059615D01*
X107882758Y-59348000D01*
X97830000Y-59348000D01*
X97830000Y-49222245D01*
X97921615Y-49284843D01*
X98210000Y-49343242D01*
X99910000Y-49343242D01*
X100179410Y-49292549D01*
X100426846Y-49133328D01*
X100555433Y-48945136D01*
X100996508Y-49239853D01*
X101600000Y-49359895D01*
X102203492Y-49239853D01*
X102715107Y-48898002D01*
X102870000Y-48666189D01*
X103024893Y-48898002D01*
X103536508Y-49239853D01*
X104140000Y-49359895D01*
X104743492Y-49239853D01*
X105255107Y-48898002D01*
X105410000Y-48666189D01*
X105564893Y-48898002D01*
X106076508Y-49239853D01*
X106680000Y-49359895D01*
X107283492Y-49239853D01*
X107795107Y-48898002D01*
X107950000Y-48666189D01*
X108104893Y-48898002D01*
X108616508Y-49239853D01*
X109220000Y-49359895D01*
X109823492Y-49239853D01*
X110335107Y-48898002D01*
X110490000Y-48666189D01*
X110644893Y-48898002D01*
X111156508Y-49239853D01*
X111760000Y-49359895D01*
X112363492Y-49239853D01*
X112875107Y-48898002D01*
X113030000Y-48666189D01*
X113184893Y-48898002D01*
X113696508Y-49239853D01*
X114300000Y-49359895D01*
X114903492Y-49239853D01*
X115415107Y-48898002D01*
X115570000Y-48666189D01*
X115724893Y-48898002D01*
X116236508Y-49239853D01*
X116840000Y-49359895D01*
X117443492Y-49239853D01*
X117955107Y-48898002D01*
X118110000Y-48666189D01*
X118264893Y-48898002D01*
X118776508Y-49239853D01*
X119380000Y-49359895D01*
X119983492Y-49239853D01*
X120495107Y-48898002D01*
X120650000Y-48666189D01*
X120804893Y-48898002D01*
X121316508Y-49239853D01*
X121920000Y-49359895D01*
X122523492Y-49239853D01*
X123035107Y-48898002D01*
X123190000Y-48666189D01*
X123344893Y-48898002D01*
X123856508Y-49239853D01*
X124460000Y-49359895D01*
X125063492Y-49239853D01*
X125575107Y-48898002D01*
X125730000Y-48666189D01*
X125884893Y-48898002D01*
X126396508Y-49239853D01*
X127000000Y-49359895D01*
X127603492Y-49239853D01*
X128115107Y-48898002D01*
X128270000Y-48666189D01*
X128424893Y-48898002D01*
X128936508Y-49239853D01*
X129540000Y-49359895D01*
X130143492Y-49239853D01*
X130655107Y-48898002D01*
X130810000Y-48666189D01*
X130964893Y-48898002D01*
X131476508Y-49239853D01*
X132080000Y-49359895D01*
X132683492Y-49239853D01*
X133195107Y-48898002D01*
X133350000Y-48666189D01*
X133504893Y-48898002D01*
X134016508Y-49239853D01*
X134620000Y-49359895D01*
X135223492Y-49239853D01*
X135735107Y-48898002D01*
X135942991Y-48586882D01*
X135964817Y-48633358D01*
X136393076Y-49023645D01*
X136803110Y-49193476D01*
X137033000Y-49072155D01*
X137033000Y-47879000D01*
X137287000Y-47879000D01*
X137287000Y-49072155D01*
X137516890Y-49193476D01*
X137926924Y-49023645D01*
X138355183Y-48633358D01*
X138601486Y-48108892D01*
X138480819Y-47879000D01*
X137287000Y-47879000D01*
X137033000Y-47879000D01*
X137013000Y-47879000D01*
X137013000Y-47625000D01*
X137033000Y-47625000D01*
X137033000Y-47605000D01*
X137287000Y-47605000D01*
X137287000Y-47625000D01*
X138480819Y-47625000D01*
X138601486Y-47395108D01*
X138355183Y-46870642D01*
X137926924Y-46480355D01*
X137516890Y-46310524D01*
X137287002Y-46431844D01*
X137287002Y-46268000D01*
X139065000Y-46268000D01*
X139065000Y-64389000D01*
G36*
X149225000Y-84709000D02*
X97830000Y-84709000D01*
X97830000Y-79668000D01*
X109406758Y-79668000D01*
X109406758Y-81368000D01*
X109457451Y-81637410D01*
X109616672Y-81884846D01*
X109859615Y-82050843D01*
X110148000Y-82109242D01*
X111848000Y-82109242D01*
X112117410Y-82058549D01*
X112364846Y-81899328D01*
X112496420Y-81706764D01*
X112643535Y-81854136D01*
X113222939Y-82094725D01*
X113850308Y-82095273D01*
X114430132Y-81855695D01*
X114808270Y-81478216D01*
X115183535Y-81854136D01*
X115762939Y-82094725D01*
X116390308Y-82095273D01*
X116970132Y-81855695D01*
X117348270Y-81478216D01*
X117723535Y-81854136D01*
X118302939Y-82094725D01*
X118930308Y-82095273D01*
X119510132Y-81855695D01*
X119888270Y-81478216D01*
X120263535Y-81854136D01*
X120842939Y-82094725D01*
X121470308Y-82095273D01*
X122050132Y-81855695D01*
X122428270Y-81478216D01*
X122803535Y-81854136D01*
X123382939Y-82094725D01*
X124010308Y-82095273D01*
X124590132Y-81855695D01*
X124968270Y-81478216D01*
X125343535Y-81854136D01*
X125922939Y-82094725D01*
X126550308Y-82095273D01*
X127130132Y-81855695D01*
X127508270Y-81478216D01*
X127883535Y-81854136D01*
X128462939Y-82094725D01*
X129090308Y-82095273D01*
X129670132Y-81855695D01*
X130048270Y-81478216D01*
X130423535Y-81854136D01*
X131002939Y-82094725D01*
X131630308Y-82095273D01*
X132210132Y-81855695D01*
X132588270Y-81478216D01*
X132963535Y-81854136D01*
X133542939Y-82094725D01*
X134170308Y-82095273D01*
X134750132Y-81855695D01*
X135194136Y-81412465D01*
X135434725Y-80833061D01*
X135435273Y-80205692D01*
X135195695Y-79625868D01*
X134752465Y-79181864D01*
X134680782Y-79152099D01*
X134722353Y-79021958D01*
X133858000Y-78157605D01*
X132993647Y-79021958D01*
X133035091Y-79151703D01*
X132965868Y-79180305D01*
X132587730Y-79557784D01*
X132278216Y-79247730D01*
X132654136Y-78872465D01*
X132683901Y-78800782D01*
X132814042Y-78842353D01*
X133678395Y-77978000D01*
X134037605Y-77978000D01*
X134901958Y-78842353D01*
X135153259Y-78762080D01*
X135354718Y-78206721D01*
X135328315Y-77616542D01*
X135153259Y-77193920D01*
X134901958Y-77113647D01*
X134037605Y-77978000D01*
X133678395Y-77978000D01*
X132814042Y-77113647D01*
X132684297Y-77155091D01*
X132655695Y-77085868D01*
X132504134Y-76934042D01*
X132993647Y-76934042D01*
X133858000Y-77798395D01*
X134722353Y-76934042D01*
X134642080Y-76682741D01*
X134086721Y-76481282D01*
X133496542Y-76507685D01*
X133073920Y-76682741D01*
X132993647Y-76934042D01*
X132504134Y-76934042D01*
X132212465Y-76641864D01*
X131633061Y-76401275D01*
X131005692Y-76400727D01*
X130425868Y-76640305D01*
X130047730Y-77017784D01*
X129672465Y-76641864D01*
X129093061Y-76401275D01*
X128465692Y-76400727D01*
X127885868Y-76640305D01*
X127507730Y-77017784D01*
X127132465Y-76641864D01*
X126553061Y-76401275D01*
X125925692Y-76400727D01*
X125345868Y-76640305D01*
X124967730Y-77017784D01*
X124592465Y-76641864D01*
X124013061Y-76401275D01*
X123385692Y-76400727D01*
X122805868Y-76640305D01*
X122427730Y-77017784D01*
X122052465Y-76641864D01*
X121473061Y-76401275D01*
X120845692Y-76400727D01*
X120265868Y-76640305D01*
X119887730Y-77017784D01*
X119512465Y-76641864D01*
X118933061Y-76401275D01*
X118305692Y-76400727D01*
X117725868Y-76640305D01*
X117347730Y-77017784D01*
X116972465Y-76641864D01*
X116393061Y-76401275D01*
X115765692Y-76400727D01*
X115185868Y-76640305D01*
X114807730Y-77017784D01*
X114432465Y-76641864D01*
X113853061Y-76401275D01*
X113225692Y-76400727D01*
X112645868Y-76640305D01*
X112267730Y-77017784D01*
X111892465Y-76641864D01*
X111313061Y-76401275D01*
X110685692Y-76400727D01*
X110105868Y-76640305D01*
X109661864Y-77083535D01*
X109421275Y-77662939D01*
X109420727Y-78290308D01*
X109660305Y-78870132D01*
X109810911Y-79021001D01*
X109631154Y-79136672D01*
X109465157Y-79379615D01*
X109406758Y-79668000D01*
X97830000Y-79668000D01*
X97830000Y-69542245D01*
X97921615Y-69604843D01*
X98210000Y-69663242D01*
X99910000Y-69663242D01*
X100179410Y-69612549D01*
X100426846Y-69453328D01*
X100555433Y-69265136D01*
X100996508Y-69559853D01*
X101600000Y-69679895D01*
X102203492Y-69559853D01*
X102715107Y-69218002D01*
X102870000Y-68986189D01*
X103024893Y-69218002D01*
X103536508Y-69559853D01*
X104140000Y-69679895D01*
X104743492Y-69559853D01*
X105255107Y-69218002D01*
X105410000Y-68986189D01*
X105564893Y-69218002D01*
X106076508Y-69559853D01*
X106680000Y-69679895D01*
X107283492Y-69559853D01*
X107795107Y-69218002D01*
X107950000Y-68986189D01*
X108104893Y-69218002D01*
X108616508Y-69559853D01*
X109220000Y-69679895D01*
X109823492Y-69559853D01*
X110335107Y-69218002D01*
X110490000Y-68986189D01*
X110644893Y-69218002D01*
X111156508Y-69559853D01*
X111760000Y-69679895D01*
X112363492Y-69559853D01*
X112875107Y-69218002D01*
X113030000Y-68986189D01*
X113184893Y-69218002D01*
X113696508Y-69559853D01*
X114300000Y-69679895D01*
X114903492Y-69559853D01*
X115415107Y-69218002D01*
X115570000Y-68986189D01*
X115724893Y-69218002D01*
X116236508Y-69559853D01*
X116840000Y-69679895D01*
X117443492Y-69559853D01*
X117955107Y-69218002D01*
X118110000Y-68986189D01*
X118264893Y-69218002D01*
X118776508Y-69559853D01*
X119380000Y-69679895D01*
X119983492Y-69559853D01*
X120495107Y-69218002D01*
X120650000Y-68986189D01*
X120804893Y-69218002D01*
X121316508Y-69559853D01*
X121920000Y-69679895D01*
X122523492Y-69559853D01*
X123035107Y-69218002D01*
X123190000Y-68986189D01*
X123344893Y-69218002D01*
X123856508Y-69559853D01*
X124460000Y-69679895D01*
X125063492Y-69559853D01*
X125575107Y-69218002D01*
X125730000Y-68986189D01*
X125884893Y-69218002D01*
X126396508Y-69559853D01*
X127000000Y-69679895D01*
X127603492Y-69559853D01*
X128115107Y-69218002D01*
X128270000Y-68986189D01*
X128424893Y-69218002D01*
X128936508Y-69559853D01*
X129540000Y-69679895D01*
X130143492Y-69559853D01*
X130655107Y-69218002D01*
X130810000Y-68986189D01*
X130964893Y-69218002D01*
X131476508Y-69559853D01*
X132080000Y-69679895D01*
X132683492Y-69559853D01*
X133195107Y-69218002D01*
X133350000Y-68986189D01*
X133504893Y-69218002D01*
X134016508Y-69559853D01*
X134620000Y-69679895D01*
X135223492Y-69559853D01*
X135735107Y-69218002D01*
X135890000Y-68986189D01*
X136044893Y-69218002D01*
X136556508Y-69559853D01*
X137160000Y-69679895D01*
X137763492Y-69559853D01*
X138275107Y-69218002D01*
X138430000Y-68986189D01*
X138584893Y-69218002D01*
X139096508Y-69559853D01*
X139700000Y-69679895D01*
X140303492Y-69559853D01*
X140815107Y-69218002D01*
X140970000Y-68986189D01*
X141124893Y-69218002D01*
X141636508Y-69559853D01*
X142240000Y-69679895D01*
X142843492Y-69559853D01*
X143355107Y-69218002D01*
X143510000Y-68986189D01*
X143664893Y-69218002D01*
X144176508Y-69559853D01*
X144780000Y-69679895D01*
X145383492Y-69559853D01*
X145895107Y-69218002D01*
X146102991Y-68906882D01*
X146124817Y-68953358D01*
X146553076Y-69343645D01*
X146963110Y-69513476D01*
X147193000Y-69392155D01*
X147193000Y-68199000D01*
X147447000Y-68199000D01*
X147447000Y-69392155D01*
X147676890Y-69513476D01*
X148086924Y-69343645D01*
X148515183Y-68953358D01*
X148761486Y-68428892D01*
X148640819Y-68199000D01*
X147447000Y-68199000D01*
X147193000Y-68199000D01*
X147173000Y-68199000D01*
X147173000Y-67945000D01*
X147193000Y-67945000D01*
X147193000Y-66751845D01*
X147447000Y-66751845D01*
X147447000Y-67945000D01*
X148640819Y-67945000D01*
X148761486Y-67715108D01*
X148515183Y-67190642D01*
X148086924Y-66800355D01*
X147676890Y-66630524D01*
X147447000Y-66751845D01*
X147193000Y-66751845D01*
X146963110Y-66630524D01*
X146553076Y-66800355D01*
X146124817Y-67190642D01*
X146102991Y-67237118D01*
X145895107Y-66925998D01*
X145383492Y-66584147D01*
X144780000Y-66464105D01*
X144176508Y-66584147D01*
X143664893Y-66925998D01*
X143510000Y-67157811D01*
X143355107Y-66925998D01*
X142843492Y-66584147D01*
X142240000Y-66464105D01*
X141636508Y-66584147D01*
X141124893Y-66925998D01*
X140970000Y-67157811D01*
X140815107Y-66925998D01*
X140303492Y-66584147D01*
X139700000Y-66464105D01*
X139096508Y-66584147D01*
X138584893Y-66925998D01*
X138430000Y-67157811D01*
X138275107Y-66925998D01*
X137763492Y-66584147D01*
X137160000Y-66464105D01*
X136556508Y-66584147D01*
X136044893Y-66925998D01*
X135890000Y-67157811D01*
X135735107Y-66925998D01*
X135223492Y-66584147D01*
X134620000Y-66464105D01*
X134016508Y-66584147D01*
X133504893Y-66925998D01*
X133350000Y-67157811D01*
X133195107Y-66925998D01*
X132683492Y-66584147D01*
X132080000Y-66464105D01*
X131476508Y-66584147D01*
X130964893Y-66925998D01*
X130810000Y-67157811D01*
X130655107Y-66925998D01*
X130143492Y-66584147D01*
X129540000Y-66464105D01*
X128936508Y-66584147D01*
X128424893Y-66925998D01*
X128270000Y-67157811D01*
X128115107Y-66925998D01*
X127603492Y-66584147D01*
X127000000Y-66464105D01*
X126396508Y-66584147D01*
X125884893Y-66925998D01*
X125730000Y-67157811D01*
X125575107Y-66925998D01*
X125063492Y-66584147D01*
X124460000Y-66464105D01*
X123856508Y-66584147D01*
X123344893Y-66925998D01*
X123190000Y-67157811D01*
X123035107Y-66925998D01*
X122523492Y-66584147D01*
X121920000Y-66464105D01*
X121316508Y-66584147D01*
X120804893Y-66925998D01*
X120650000Y-67157811D01*
X120495107Y-66925998D01*
X119983492Y-66584147D01*
X119380000Y-66464105D01*
X118776508Y-66584147D01*
X118264893Y-66925998D01*
X118110000Y-67157811D01*
X117955107Y-66925998D01*
X117443492Y-66584147D01*
X116840000Y-66464105D01*
X116236508Y-66584147D01*
X115724893Y-66925998D01*
X115570000Y-67157811D01*
X115415107Y-66925998D01*
X114903492Y-66584147D01*
X114300000Y-66464105D01*
X113696508Y-66584147D01*
X113184893Y-66925998D01*
X113030000Y-67157811D01*
X112875107Y-66925998D01*
X112363492Y-66584147D01*
X111760000Y-66464105D01*
X111156508Y-66584147D01*
X110644893Y-66925998D01*
X110490000Y-67157811D01*
X110335107Y-66925998D01*
X109823492Y-66584147D01*
X109220000Y-66464105D01*
X108616508Y-66584147D01*
X108104893Y-66925998D01*
X107950000Y-67157811D01*
X107795107Y-66925998D01*
X107283492Y-66584147D01*
X106680000Y-66464105D01*
X106076508Y-66584147D01*
X105564893Y-66925998D01*
X105410000Y-67157811D01*
X105255107Y-66925998D01*
X104743492Y-66584147D01*
X104140000Y-66464105D01*
X103536508Y-66584147D01*
X103024893Y-66925998D01*
X102870000Y-67157811D01*
X102715107Y-66925998D01*
X102203492Y-66584147D01*
X101600000Y-66464105D01*
X100996508Y-66584147D01*
X100553807Y-66879951D01*
X100441328Y-66705154D01*
X100198385Y-66539157D01*
X99910000Y-66480758D01*
X98210000Y-66480758D01*
X97940590Y-66531451D01*
X97830000Y-66602614D01*
X97830000Y-66167000D01*
X149225000Y-66167000D01*
X149225000Y-84709000D01*
X149225000Y-84709000D01*
G37*
X149225000Y-84709000D02*
X97830000Y-84709000D01*
X97830000Y-79668000D01*
X109406758Y-79668000D01*
X109406758Y-81368000D01*
X109457451Y-81637410D01*
X109616672Y-81884846D01*
X109859615Y-82050843D01*
X110148000Y-82109242D01*
X111848000Y-82109242D01*
X112117410Y-82058549D01*
X112364846Y-81899328D01*
X112496420Y-81706764D01*
X112643535Y-81854136D01*
X113222939Y-82094725D01*
X113850308Y-82095273D01*
X114430132Y-81855695D01*
X114808270Y-81478216D01*
X115183535Y-81854136D01*
X115762939Y-82094725D01*
X116390308Y-82095273D01*
X116970132Y-81855695D01*
X117348270Y-81478216D01*
X117723535Y-81854136D01*
X118302939Y-82094725D01*
X118930308Y-82095273D01*
X119510132Y-81855695D01*
X119888270Y-81478216D01*
X120263535Y-81854136D01*
X120842939Y-82094725D01*
X121470308Y-82095273D01*
X122050132Y-81855695D01*
X122428270Y-81478216D01*
X122803535Y-81854136D01*
X123382939Y-82094725D01*
X124010308Y-82095273D01*
X124590132Y-81855695D01*
X124968270Y-81478216D01*
X125343535Y-81854136D01*
X125922939Y-82094725D01*
X126550308Y-82095273D01*
X127130132Y-81855695D01*
X127508270Y-81478216D01*
X127883535Y-81854136D01*
X128462939Y-82094725D01*
X129090308Y-82095273D01*
X129670132Y-81855695D01*
X130048270Y-81478216D01*
X130423535Y-81854136D01*
X131002939Y-82094725D01*
X131630308Y-82095273D01*
X132210132Y-81855695D01*
X132588270Y-81478216D01*
X132963535Y-81854136D01*
X133542939Y-82094725D01*
X134170308Y-82095273D01*
X134750132Y-81855695D01*
X135194136Y-81412465D01*
X135434725Y-80833061D01*
X135435273Y-80205692D01*
X135195695Y-79625868D01*
X134752465Y-79181864D01*
X134680782Y-79152099D01*
X134722353Y-79021958D01*
X133858000Y-78157605D01*
X132993647Y-79021958D01*
X133035091Y-79151703D01*
X132965868Y-79180305D01*
X132587730Y-79557784D01*
X132278216Y-79247730D01*
X132654136Y-78872465D01*
X132683901Y-78800782D01*
X132814042Y-78842353D01*
X133678395Y-77978000D01*
X134037605Y-77978000D01*
X134901958Y-78842353D01*
X135153259Y-78762080D01*
X135354718Y-78206721D01*
X135328315Y-77616542D01*
X135153259Y-77193920D01*
X134901958Y-77113647D01*
X134037605Y-77978000D01*
X133678395Y-77978000D01*
X132814042Y-77113647D01*
X132684297Y-77155091D01*
X132655695Y-77085868D01*
X132504134Y-76934042D01*
X132993647Y-76934042D01*
X133858000Y-77798395D01*
X134722353Y-76934042D01*
X134642080Y-76682741D01*
X134086721Y-76481282D01*
X133496542Y-76507685D01*
X133073920Y-76682741D01*
X132993647Y-76934042D01*
X132504134Y-76934042D01*
X132212465Y-76641864D01*
X131633061Y-76401275D01*
X131005692Y-76400727D01*
X130425868Y-76640305D01*
X130047730Y-77017784D01*
X129672465Y-76641864D01*
X129093061Y-76401275D01*
X128465692Y-76400727D01*
X127885868Y-76640305D01*
X127507730Y-77017784D01*
X127132465Y-76641864D01*
X126553061Y-76401275D01*
X125925692Y-76400727D01*
X125345868Y-76640305D01*
X124967730Y-77017784D01*
X124592465Y-76641864D01*
X124013061Y-76401275D01*
X123385692Y-76400727D01*
X122805868Y-76640305D01*
X122427730Y-77017784D01*
X122052465Y-76641864D01*
X121473061Y-76401275D01*
X120845692Y-76400727D01*
X120265868Y-76640305D01*
X119887730Y-77017784D01*
X119512465Y-76641864D01*
X118933061Y-76401275D01*
X118305692Y-76400727D01*
X117725868Y-76640305D01*
X117347730Y-77017784D01*
X116972465Y-76641864D01*
X116393061Y-76401275D01*
X115765692Y-76400727D01*
X115185868Y-76640305D01*
X114807730Y-77017784D01*
X114432465Y-76641864D01*
X113853061Y-76401275D01*
X113225692Y-76400727D01*
X112645868Y-76640305D01*
X112267730Y-77017784D01*
X111892465Y-76641864D01*
X111313061Y-76401275D01*
X110685692Y-76400727D01*
X110105868Y-76640305D01*
X109661864Y-77083535D01*
X109421275Y-77662939D01*
X109420727Y-78290308D01*
X109660305Y-78870132D01*
X109810911Y-79021001D01*
X109631154Y-79136672D01*
X109465157Y-79379615D01*
X109406758Y-79668000D01*
X97830000Y-79668000D01*
X97830000Y-69542245D01*
X97921615Y-69604843D01*
X98210000Y-69663242D01*
X99910000Y-69663242D01*
X100179410Y-69612549D01*
X100426846Y-69453328D01*
X100555433Y-69265136D01*
X100996508Y-69559853D01*
X101600000Y-69679895D01*
X102203492Y-69559853D01*
X102715107Y-69218002D01*
X102870000Y-68986189D01*
X103024893Y-69218002D01*
X103536508Y-69559853D01*
X104140000Y-69679895D01*
X104743492Y-69559853D01*
X105255107Y-69218002D01*
X105410000Y-68986189D01*
X105564893Y-69218002D01*
X106076508Y-69559853D01*
X106680000Y-69679895D01*
X107283492Y-69559853D01*
X107795107Y-69218002D01*
X107950000Y-68986189D01*
X108104893Y-69218002D01*
X108616508Y-69559853D01*
X109220000Y-69679895D01*
X109823492Y-69559853D01*
X110335107Y-69218002D01*
X110490000Y-68986189D01*
X110644893Y-69218002D01*
X111156508Y-69559853D01*
X111760000Y-69679895D01*
X112363492Y-69559853D01*
X112875107Y-69218002D01*
X113030000Y-68986189D01*
X113184893Y-69218002D01*
X113696508Y-69559853D01*
X114300000Y-69679895D01*
X114903492Y-69559853D01*
X115415107Y-69218002D01*
X115570000Y-68986189D01*
X115724893Y-69218002D01*
X116236508Y-69559853D01*
X116840000Y-69679895D01*
X117443492Y-69559853D01*
X117955107Y-69218002D01*
X118110000Y-68986189D01*
X118264893Y-69218002D01*
X118776508Y-69559853D01*
X119380000Y-69679895D01*
X119983492Y-69559853D01*
X120495107Y-69218002D01*
X120650000Y-68986189D01*
X120804893Y-69218002D01*
X121316508Y-69559853D01*
X121920000Y-69679895D01*
X122523492Y-69559853D01*
X123035107Y-69218002D01*
X123190000Y-68986189D01*
X123344893Y-69218002D01*
X123856508Y-69559853D01*
X124460000Y-69679895D01*
X125063492Y-69559853D01*
X125575107Y-69218002D01*
X125730000Y-68986189D01*
X125884893Y-69218002D01*
X126396508Y-69559853D01*
X127000000Y-69679895D01*
X127603492Y-69559853D01*
X128115107Y-69218002D01*
X128270000Y-68986189D01*
X128424893Y-69218002D01*
X128936508Y-69559853D01*
X129540000Y-69679895D01*
X130143492Y-69559853D01*
X130655107Y-69218002D01*
X130810000Y-68986189D01*
X130964893Y-69218002D01*
X131476508Y-69559853D01*
X132080000Y-69679895D01*
X132683492Y-69559853D01*
X133195107Y-69218002D01*
X133350000Y-68986189D01*
X133504893Y-69218002D01*
X134016508Y-69559853D01*
X134620000Y-69679895D01*
X135223492Y-69559853D01*
X135735107Y-69218002D01*
X135890000Y-68986189D01*
X136044893Y-69218002D01*
X136556508Y-69559853D01*
X137160000Y-69679895D01*
X137763492Y-69559853D01*
X138275107Y-69218002D01*
X138430000Y-68986189D01*
X138584893Y-69218002D01*
X139096508Y-69559853D01*
X139700000Y-69679895D01*
X140303492Y-69559853D01*
X140815107Y-69218002D01*
X140970000Y-68986189D01*
X141124893Y-69218002D01*
X141636508Y-69559853D01*
X142240000Y-69679895D01*
X142843492Y-69559853D01*
X143355107Y-69218002D01*
X143510000Y-68986189D01*
X143664893Y-69218002D01*
X144176508Y-69559853D01*
X144780000Y-69679895D01*
X145383492Y-69559853D01*
X145895107Y-69218002D01*
X146102991Y-68906882D01*
X146124817Y-68953358D01*
X146553076Y-69343645D01*
X146963110Y-69513476D01*
X147193000Y-69392155D01*
X147193000Y-68199000D01*
X147447000Y-68199000D01*
X147447000Y-69392155D01*
X147676890Y-69513476D01*
X148086924Y-69343645D01*
X148515183Y-68953358D01*
X148761486Y-68428892D01*
X148640819Y-68199000D01*
X147447000Y-68199000D01*
X147193000Y-68199000D01*
X147173000Y-68199000D01*
X147173000Y-67945000D01*
X147193000Y-67945000D01*
X147193000Y-66751845D01*
X147447000Y-66751845D01*
X147447000Y-67945000D01*
X148640819Y-67945000D01*
X148761486Y-67715108D01*
X148515183Y-67190642D01*
X148086924Y-66800355D01*
X147676890Y-66630524D01*
X147447000Y-66751845D01*
X147193000Y-66751845D01*
X146963110Y-66630524D01*
X146553076Y-66800355D01*
X146124817Y-67190642D01*
X146102991Y-67237118D01*
X145895107Y-66925998D01*
X145383492Y-66584147D01*
X144780000Y-66464105D01*
X144176508Y-66584147D01*
X143664893Y-66925998D01*
X143510000Y-67157811D01*
X143355107Y-66925998D01*
X142843492Y-66584147D01*
X142240000Y-66464105D01*
X141636508Y-66584147D01*
X141124893Y-66925998D01*
X140970000Y-67157811D01*
X140815107Y-66925998D01*
X140303492Y-66584147D01*
X139700000Y-66464105D01*
X139096508Y-66584147D01*
X138584893Y-66925998D01*
X138430000Y-67157811D01*
X138275107Y-66925998D01*
X137763492Y-66584147D01*
X137160000Y-66464105D01*
X136556508Y-66584147D01*
X136044893Y-66925998D01*
X135890000Y-67157811D01*
X135735107Y-66925998D01*
X135223492Y-66584147D01*
X134620000Y-66464105D01*
X134016508Y-66584147D01*
X133504893Y-66925998D01*
X133350000Y-67157811D01*
X133195107Y-66925998D01*
X132683492Y-66584147D01*
X132080000Y-66464105D01*
X131476508Y-66584147D01*
X130964893Y-66925998D01*
X130810000Y-67157811D01*
X130655107Y-66925998D01*
X130143492Y-66584147D01*
X129540000Y-66464105D01*
X128936508Y-66584147D01*
X128424893Y-66925998D01*
X128270000Y-67157811D01*
X128115107Y-66925998D01*
X127603492Y-66584147D01*
X127000000Y-66464105D01*
X126396508Y-66584147D01*
X125884893Y-66925998D01*
X125730000Y-67157811D01*
X125575107Y-66925998D01*
X125063492Y-66584147D01*
X124460000Y-66464105D01*
X123856508Y-66584147D01*
X123344893Y-66925998D01*
X123190000Y-67157811D01*
X123035107Y-66925998D01*
X122523492Y-66584147D01*
X121920000Y-66464105D01*
X121316508Y-66584147D01*
X120804893Y-66925998D01*
X120650000Y-67157811D01*
X120495107Y-66925998D01*
X119983492Y-66584147D01*
X119380000Y-66464105D01*
X118776508Y-66584147D01*
X118264893Y-66925998D01*
X118110000Y-67157811D01*
X117955107Y-66925998D01*
X117443492Y-66584147D01*
X116840000Y-66464105D01*
X116236508Y-66584147D01*
X115724893Y-66925998D01*
X115570000Y-67157811D01*
X115415107Y-66925998D01*
X114903492Y-66584147D01*
X114300000Y-66464105D01*
X113696508Y-66584147D01*
X113184893Y-66925998D01*
X113030000Y-67157811D01*
X112875107Y-66925998D01*
X112363492Y-66584147D01*
X111760000Y-66464105D01*
X111156508Y-66584147D01*
X110644893Y-66925998D01*
X110490000Y-67157811D01*
X110335107Y-66925998D01*
X109823492Y-66584147D01*
X109220000Y-66464105D01*
X108616508Y-66584147D01*
X108104893Y-66925998D01*
X107950000Y-67157811D01*
X107795107Y-66925998D01*
X107283492Y-66584147D01*
X106680000Y-66464105D01*
X106076508Y-66584147D01*
X105564893Y-66925998D01*
X105410000Y-67157811D01*
X105255107Y-66925998D01*
X104743492Y-66584147D01*
X104140000Y-66464105D01*
X103536508Y-66584147D01*
X103024893Y-66925998D01*
X102870000Y-67157811D01*
X102715107Y-66925998D01*
X102203492Y-66584147D01*
X101600000Y-66464105D01*
X100996508Y-66584147D01*
X100553807Y-66879951D01*
X100441328Y-66705154D01*
X100198385Y-66539157D01*
X99910000Y-66480758D01*
X98210000Y-66480758D01*
X97940590Y-66531451D01*
X97830000Y-66602614D01*
X97830000Y-66167000D01*
X149225000Y-66167000D01*
X149225000Y-84709000D01*
G36*
X181570000Y-67264780D02*
X181535183Y-67190642D01*
X181106924Y-66800355D01*
X180696890Y-66630524D01*
X180467000Y-66751845D01*
X180467000Y-67945000D01*
X180487000Y-67945000D01*
X180487000Y-68199000D01*
X180467000Y-68199000D01*
X180467000Y-69392155D01*
X180696890Y-69513476D01*
X181106924Y-69343645D01*
X181535183Y-68953358D01*
X181570000Y-68879220D01*
X181570000Y-84709000D01*
X155575000Y-84709000D01*
X155575000Y-79668000D01*
X162746758Y-79668000D01*
X162746758Y-81368000D01*
X162797451Y-81637410D01*
X162956672Y-81884846D01*
X163199615Y-82050843D01*
X163488000Y-82109242D01*
X165188000Y-82109242D01*
X165457410Y-82058549D01*
X165704846Y-81899328D01*
X165836420Y-81706764D01*
X165983535Y-81854136D01*
X166562939Y-82094725D01*
X167190308Y-82095273D01*
X167770132Y-81855695D01*
X168148270Y-81478216D01*
X168523535Y-81854136D01*
X169102939Y-82094725D01*
X169730308Y-82095273D01*
X170310132Y-81855695D01*
X170688270Y-81478216D01*
X171063535Y-81854136D01*
X171642939Y-82094725D01*
X172270308Y-82095273D01*
X172850132Y-81855695D01*
X173228270Y-81478216D01*
X173603535Y-81854136D01*
X174182939Y-82094725D01*
X174810308Y-82095273D01*
X175390132Y-81855695D01*
X175834136Y-81412465D01*
X176074725Y-80833061D01*
X176075273Y-80205692D01*
X175835695Y-79625868D01*
X175392465Y-79181864D01*
X175320782Y-79152099D01*
X175362353Y-79021958D01*
X174498000Y-78157605D01*
X173633647Y-79021958D01*
X173675091Y-79151703D01*
X173605868Y-79180305D01*
X173227730Y-79557784D01*
X172918216Y-79247730D01*
X173294136Y-78872465D01*
X173323901Y-78800782D01*
X173454042Y-78842353D01*
X174318395Y-77978000D01*
X174677605Y-77978000D01*
X175541958Y-78842353D01*
X175793259Y-78762080D01*
X175994718Y-78206721D01*
X175968315Y-77616542D01*
X175793259Y-77193920D01*
X175541958Y-77113647D01*
X174677605Y-77978000D01*
X174318395Y-77978000D01*
X173454042Y-77113647D01*
X173324297Y-77155091D01*
X173295695Y-77085868D01*
X173144134Y-76934042D01*
X173633647Y-76934042D01*
X174498000Y-77798395D01*
X175362353Y-76934042D01*
X175282080Y-76682741D01*
X174726721Y-76481282D01*
X174136542Y-76507685D01*
X173713920Y-76682741D01*
X173633647Y-76934042D01*
X173144134Y-76934042D01*
X172852465Y-76641864D01*
X172273061Y-76401275D01*
X171645692Y-76400727D01*
X171065868Y-76640305D01*
X170687730Y-77017784D01*
X170312465Y-76641864D01*
X169733061Y-76401275D01*
X169105692Y-76400727D01*
X168525868Y-76640305D01*
X168147730Y-77017784D01*
X167772465Y-76641864D01*
X167193061Y-76401275D01*
X166565692Y-76400727D01*
X165985868Y-76640305D01*
X165607730Y-77017784D01*
X165232465Y-76641864D01*
X164653061Y-76401275D01*
X164025692Y-76400727D01*
X163445868Y-76640305D01*
X163001864Y-77083535D01*
X162761275Y-77662939D01*
X162760727Y-78290308D01*
X163000305Y-78870132D01*
X163150911Y-79021001D01*
X162971154Y-79136672D01*
X162805157Y-79379615D01*
X162746758Y-79668000D01*
X155575000Y-79668000D01*
X155575000Y-67222000D01*
X155888758Y-67222000D01*
X155888758Y-68922000D01*
X155939451Y-69191410D01*
X156098672Y-69438846D01*
X156341615Y-69604843D01*
X156630000Y-69663242D01*
X158330000Y-69663242D01*
X158599410Y-69612549D01*
X158846846Y-69453328D01*
X158975433Y-69265136D01*
X159416508Y-69559853D01*
X160020000Y-69679895D01*
X160623492Y-69559853D01*
X161135107Y-69218002D01*
X161290000Y-68986189D01*
X161444893Y-69218002D01*
X161956508Y-69559853D01*
X162560000Y-69679895D01*
X163163492Y-69559853D01*
X163675107Y-69218002D01*
X163830000Y-68986189D01*
X163984893Y-69218002D01*
X164496508Y-69559853D01*
X165100000Y-69679895D01*
X165703492Y-69559853D01*
X166215107Y-69218002D01*
X166370000Y-68986189D01*
X166524893Y-69218002D01*
X167036508Y-69559853D01*
X167640000Y-69679895D01*
X168243492Y-69559853D01*
X168755107Y-69218002D01*
X168910000Y-68986189D01*
X169064893Y-69218002D01*
X169576508Y-69559853D01*
X170180000Y-69679895D01*
X170783492Y-69559853D01*
X171295107Y-69218002D01*
X171450000Y-68986189D01*
X171604893Y-69218002D01*
X172116508Y-69559853D01*
X172720000Y-69679895D01*
X173323492Y-69559853D01*
X173835107Y-69218002D01*
X173990000Y-68986189D01*
X174144893Y-69218002D01*
X174656508Y-69559853D01*
X175260000Y-69679895D01*
X175863492Y-69559853D01*
X176375107Y-69218002D01*
X176530000Y-68986189D01*
X176684893Y-69218002D01*
X177196508Y-69559853D01*
X177800000Y-69679895D01*
X178403492Y-69559853D01*
X178915107Y-69218002D01*
X179122991Y-68906882D01*
X179144817Y-68953358D01*
X179573076Y-69343645D01*
X179983110Y-69513476D01*
X180213000Y-69392155D01*
X180213000Y-68199000D01*
X180193000Y-68199000D01*
X180193000Y-67945000D01*
X180213000Y-67945000D01*
X180213000Y-66751845D01*
X179983110Y-66630524D01*
X179573076Y-66800355D01*
X179144817Y-67190642D01*
X179122991Y-67237118D01*
X178915107Y-66925998D01*
X178403492Y-66584147D01*
X177800000Y-66464105D01*
X177196508Y-66584147D01*
X176684893Y-66925998D01*
X176530000Y-67157811D01*
X176375107Y-66925998D01*
X175863492Y-66584147D01*
X175260000Y-66464105D01*
X174656508Y-66584147D01*
X174144893Y-66925998D01*
X173990000Y-67157811D01*
X173835107Y-66925998D01*
X173323492Y-66584147D01*
X172720000Y-66464105D01*
X172116508Y-66584147D01*
X171604893Y-66925998D01*
X171450000Y-67157811D01*
X171295107Y-66925998D01*
X170783492Y-66584147D01*
X170180000Y-66464105D01*
X169576508Y-66584147D01*
X169064893Y-66925998D01*
X168910000Y-67157811D01*
X168755107Y-66925998D01*
X168243492Y-66584147D01*
X167640000Y-66464105D01*
X167036508Y-66584147D01*
X166524893Y-66925998D01*
X166370000Y-67157811D01*
X166215107Y-66925998D01*
X165703492Y-66584147D01*
X165100000Y-66464105D01*
X164496508Y-66584147D01*
X163984893Y-66925998D01*
X163830000Y-67157811D01*
X163675107Y-66925998D01*
X163163492Y-66584147D01*
X162560000Y-66464105D01*
X161956508Y-66584147D01*
X161444893Y-66925998D01*
X161290000Y-67157811D01*
X161135107Y-66925998D01*
X160623492Y-66584147D01*
X160020000Y-66464105D01*
X159416508Y-66584147D01*
X158973807Y-66879951D01*
X158861328Y-66705154D01*
X158618385Y-66539157D01*
X158330000Y-66480758D01*
X156630000Y-66480758D01*
X156360590Y-66531451D01*
X156113154Y-66690672D01*
X155947157Y-66933615D01*
X155888758Y-67222000D01*
X155575000Y-67222000D01*
X155575000Y-66167000D01*
X181570000Y-66167000D01*
X181570000Y-67264780D01*
X181570000Y-67264780D01*
G37*
X181570000Y-67264780D02*
X181535183Y-67190642D01*
X181106924Y-66800355D01*
X180696890Y-66630524D01*
X180467000Y-66751845D01*
X180467000Y-67945000D01*
X180487000Y-67945000D01*
X180487000Y-68199000D01*
X180467000Y-68199000D01*
X180467000Y-69392155D01*
X180696890Y-69513476D01*
X181106924Y-69343645D01*
X181535183Y-68953358D01*
X181570000Y-68879220D01*
X181570000Y-84709000D01*
X155575000Y-84709000D01*
X155575000Y-79668000D01*
X162746758Y-79668000D01*
X162746758Y-81368000D01*
X162797451Y-81637410D01*
X162956672Y-81884846D01*
X163199615Y-82050843D01*
X163488000Y-82109242D01*
X165188000Y-82109242D01*
X165457410Y-82058549D01*
X165704846Y-81899328D01*
X165836420Y-81706764D01*
X165983535Y-81854136D01*
X166562939Y-82094725D01*
X167190308Y-82095273D01*
X167770132Y-81855695D01*
X168148270Y-81478216D01*
X168523535Y-81854136D01*
X169102939Y-82094725D01*
X169730308Y-82095273D01*
X170310132Y-81855695D01*
X170688270Y-81478216D01*
X171063535Y-81854136D01*
X171642939Y-82094725D01*
X172270308Y-82095273D01*
X172850132Y-81855695D01*
X173228270Y-81478216D01*
X173603535Y-81854136D01*
X174182939Y-82094725D01*
X174810308Y-82095273D01*
X175390132Y-81855695D01*
X175834136Y-81412465D01*
X176074725Y-80833061D01*
X176075273Y-80205692D01*
X175835695Y-79625868D01*
X175392465Y-79181864D01*
X175320782Y-79152099D01*
X175362353Y-79021958D01*
X174498000Y-78157605D01*
X173633647Y-79021958D01*
X173675091Y-79151703D01*
X173605868Y-79180305D01*
X173227730Y-79557784D01*
X172918216Y-79247730D01*
X173294136Y-78872465D01*
X173323901Y-78800782D01*
X173454042Y-78842353D01*
X174318395Y-77978000D01*
X174677605Y-77978000D01*
X175541958Y-78842353D01*
X175793259Y-78762080D01*
X175994718Y-78206721D01*
X175968315Y-77616542D01*
X175793259Y-77193920D01*
X175541958Y-77113647D01*
X174677605Y-77978000D01*
X174318395Y-77978000D01*
X173454042Y-77113647D01*
X173324297Y-77155091D01*
X173295695Y-77085868D01*
X173144134Y-76934042D01*
X173633647Y-76934042D01*
X174498000Y-77798395D01*
X175362353Y-76934042D01*
X175282080Y-76682741D01*
X174726721Y-76481282D01*
X174136542Y-76507685D01*
X173713920Y-76682741D01*
X173633647Y-76934042D01*
X173144134Y-76934042D01*
X172852465Y-76641864D01*
X172273061Y-76401275D01*
X171645692Y-76400727D01*
X171065868Y-76640305D01*
X170687730Y-77017784D01*
X170312465Y-76641864D01*
X169733061Y-76401275D01*
X169105692Y-76400727D01*
X168525868Y-76640305D01*
X168147730Y-77017784D01*
X167772465Y-76641864D01*
X167193061Y-76401275D01*
X166565692Y-76400727D01*
X165985868Y-76640305D01*
X165607730Y-77017784D01*
X165232465Y-76641864D01*
X164653061Y-76401275D01*
X164025692Y-76400727D01*
X163445868Y-76640305D01*
X163001864Y-77083535D01*
X162761275Y-77662939D01*
X162760727Y-78290308D01*
X163000305Y-78870132D01*
X163150911Y-79021001D01*
X162971154Y-79136672D01*
X162805157Y-79379615D01*
X162746758Y-79668000D01*
X155575000Y-79668000D01*
X155575000Y-67222000D01*
X155888758Y-67222000D01*
X155888758Y-68922000D01*
X155939451Y-69191410D01*
X156098672Y-69438846D01*
X156341615Y-69604843D01*
X156630000Y-69663242D01*
X158330000Y-69663242D01*
X158599410Y-69612549D01*
X158846846Y-69453328D01*
X158975433Y-69265136D01*
X159416508Y-69559853D01*
X160020000Y-69679895D01*
X160623492Y-69559853D01*
X161135107Y-69218002D01*
X161290000Y-68986189D01*
X161444893Y-69218002D01*
X161956508Y-69559853D01*
X162560000Y-69679895D01*
X163163492Y-69559853D01*
X163675107Y-69218002D01*
X163830000Y-68986189D01*
X163984893Y-69218002D01*
X164496508Y-69559853D01*
X165100000Y-69679895D01*
X165703492Y-69559853D01*
X166215107Y-69218002D01*
X166370000Y-68986189D01*
X166524893Y-69218002D01*
X167036508Y-69559853D01*
X167640000Y-69679895D01*
X168243492Y-69559853D01*
X168755107Y-69218002D01*
X168910000Y-68986189D01*
X169064893Y-69218002D01*
X169576508Y-69559853D01*
X170180000Y-69679895D01*
X170783492Y-69559853D01*
X171295107Y-69218002D01*
X171450000Y-68986189D01*
X171604893Y-69218002D01*
X172116508Y-69559853D01*
X172720000Y-69679895D01*
X173323492Y-69559853D01*
X173835107Y-69218002D01*
X173990000Y-68986189D01*
X174144893Y-69218002D01*
X174656508Y-69559853D01*
X175260000Y-69679895D01*
X175863492Y-69559853D01*
X176375107Y-69218002D01*
X176530000Y-68986189D01*
X176684893Y-69218002D01*
X177196508Y-69559853D01*
X177800000Y-69679895D01*
X178403492Y-69559853D01*
X178915107Y-69218002D01*
X179122991Y-68906882D01*
X179144817Y-68953358D01*
X179573076Y-69343645D01*
X179983110Y-69513476D01*
X180213000Y-69392155D01*
X180213000Y-68199000D01*
X180193000Y-68199000D01*
X180193000Y-67945000D01*
X180213000Y-67945000D01*
X180213000Y-66751845D01*
X179983110Y-66630524D01*
X179573076Y-66800355D01*
X179144817Y-67190642D01*
X179122991Y-67237118D01*
X178915107Y-66925998D01*
X178403492Y-66584147D01*
X177800000Y-66464105D01*
X177196508Y-66584147D01*
X176684893Y-66925998D01*
X176530000Y-67157811D01*
X176375107Y-66925998D01*
X175863492Y-66584147D01*
X175260000Y-66464105D01*
X174656508Y-66584147D01*
X174144893Y-66925998D01*
X173990000Y-67157811D01*
X173835107Y-66925998D01*
X173323492Y-66584147D01*
X172720000Y-66464105D01*
X172116508Y-66584147D01*
X171604893Y-66925998D01*
X171450000Y-67157811D01*
X171295107Y-66925998D01*
X170783492Y-66584147D01*
X170180000Y-66464105D01*
X169576508Y-66584147D01*
X169064893Y-66925998D01*
X168910000Y-67157811D01*
X168755107Y-66925998D01*
X168243492Y-66584147D01*
X167640000Y-66464105D01*
X167036508Y-66584147D01*
X166524893Y-66925998D01*
X166370000Y-67157811D01*
X166215107Y-66925998D01*
X165703492Y-66584147D01*
X165100000Y-66464105D01*
X164496508Y-66584147D01*
X163984893Y-66925998D01*
X163830000Y-67157811D01*
X163675107Y-66925998D01*
X163163492Y-66584147D01*
X162560000Y-66464105D01*
X161956508Y-66584147D01*
X161444893Y-66925998D01*
X161290000Y-67157811D01*
X161135107Y-66925998D01*
X160623492Y-66584147D01*
X160020000Y-66464105D01*
X159416508Y-66584147D01*
X158973807Y-66879951D01*
X158861328Y-66705154D01*
X158618385Y-66539157D01*
X158330000Y-66480758D01*
X156630000Y-66480758D01*
X156360590Y-66531451D01*
X156113154Y-66690672D01*
X155947157Y-66933615D01*
X155888758Y-67222000D01*
X155575000Y-67222000D01*
X155575000Y-66167000D01*
X181570000Y-66167000D01*
X181570000Y-67264780D01*
G36*
X181570000Y-129754000D02*
X167640000Y-129754000D01*
X167597000Y-129762553D01*
X167597000Y-128778000D01*
X167503600Y-128308447D01*
X167237620Y-127910380D01*
X166839553Y-127644400D01*
X166370000Y-127551000D01*
X165900447Y-127644400D01*
X165502380Y-127910380D01*
X165236400Y-128308447D01*
X165143000Y-128778000D01*
X165143000Y-130429000D01*
X164682000Y-130429000D01*
X164682000Y-114646175D01*
X164954140Y-114374508D01*
X165110821Y-113997179D01*
X165111178Y-113588613D01*
X164955156Y-113211011D01*
X164904572Y-113160338D01*
X170103976Y-107960934D01*
X170383387Y-107961178D01*
X170760989Y-107805156D01*
X171050140Y-107516508D01*
X171206821Y-107139179D01*
X171207178Y-106730613D01*
X171051156Y-106353011D01*
X171000572Y-106302338D01*
X176069886Y-101233024D01*
X176468939Y-101398725D01*
X177096308Y-101399273D01*
X177676132Y-101159695D01*
X178120136Y-100716465D01*
X178360725Y-100137061D01*
X178361273Y-99509692D01*
X178121695Y-98929868D01*
X177678465Y-98485864D01*
X177606782Y-98456099D01*
X177648353Y-98325958D01*
X176784000Y-97461605D01*
X176769858Y-97475748D01*
X176590253Y-97296143D01*
X176604395Y-97282000D01*
X176963605Y-97282000D01*
X177827958Y-98146353D01*
X178079259Y-98066080D01*
X178280718Y-97510721D01*
X178254315Y-96920542D01*
X178079259Y-96497920D01*
X177827958Y-96417647D01*
X176963605Y-97282000D01*
X176604395Y-97282000D01*
X175740042Y-96417647D01*
X175610297Y-96459091D01*
X175581695Y-96389868D01*
X175430134Y-96238042D01*
X175919647Y-96238042D01*
X176784000Y-97102395D01*
X177648353Y-96238042D01*
X177568080Y-95986741D01*
X177012721Y-95785282D01*
X176422542Y-95811685D01*
X175999920Y-95986741D01*
X175919647Y-96238042D01*
X175430134Y-96238042D01*
X175138465Y-95945864D01*
X174559061Y-95705275D01*
X173931692Y-95704727D01*
X173351868Y-95944305D01*
X172973730Y-96321784D01*
X172598465Y-95945864D01*
X172019061Y-95705275D01*
X171391692Y-95704727D01*
X170811868Y-95944305D01*
X170433730Y-96321784D01*
X170058465Y-95945864D01*
X169479061Y-95705275D01*
X168851692Y-95704727D01*
X168271868Y-95944305D01*
X167893730Y-96321784D01*
X167518465Y-95945864D01*
X166939061Y-95705275D01*
X166311692Y-95704727D01*
X165731868Y-95944305D01*
X165349208Y-96326298D01*
X162400455Y-93377545D01*
X162124046Y-93192855D01*
X161798000Y-93128000D01*
X157912378Y-93128000D01*
X157945000Y-92964000D01*
X157945000Y-90424000D01*
X157851600Y-89954447D01*
X157585620Y-89556380D01*
X157187553Y-89290400D01*
X156718000Y-89197000D01*
X156248447Y-89290400D01*
X155850380Y-89556380D01*
X155584400Y-89954447D01*
X155491000Y-90424000D01*
X155491000Y-92964000D01*
X155523622Y-93128000D01*
X123368378Y-93128000D01*
X123401000Y-92964000D01*
X123401000Y-90424000D01*
X123307600Y-89954447D01*
X123041620Y-89556380D01*
X122643553Y-89290400D01*
X122174000Y-89197000D01*
X121704447Y-89290400D01*
X121306380Y-89556380D01*
X121040400Y-89954447D01*
X120947000Y-90424000D01*
X120947000Y-92964000D01*
X120979622Y-93128000D01*
X113284000Y-93128000D01*
X112957954Y-93192855D01*
X112681545Y-93377545D01*
X111280090Y-94779000D01*
X101727000Y-94779000D01*
X101400954Y-94843855D01*
X101124545Y-95028545D01*
X100489545Y-95663545D01*
X100304855Y-95939954D01*
X100240000Y-96266000D01*
X100240000Y-101092000D01*
X100304855Y-101418046D01*
X100489545Y-101694455D01*
X100997545Y-102202455D01*
X101273953Y-102387145D01*
X101600000Y-102452000D01*
X102771090Y-102452000D01*
X114718000Y-114398910D01*
X114718000Y-130429000D01*
X112536738Y-130429000D01*
X112500951Y-130249088D01*
X112327100Y-129988900D01*
X112066912Y-129815049D01*
X111760000Y-129754000D01*
X97830000Y-129754000D01*
X97830000Y-86487000D01*
X181570000Y-86487000D01*
X181570000Y-129754000D01*
X181570000Y-129754000D01*
G37*
X181570000Y-129754000D02*
X167640000Y-129754000D01*
X167597000Y-129762553D01*
X167597000Y-128778000D01*
X167503600Y-128308447D01*
X167237620Y-127910380D01*
X166839553Y-127644400D01*
X166370000Y-127551000D01*
X165900447Y-127644400D01*
X165502380Y-127910380D01*
X165236400Y-128308447D01*
X165143000Y-128778000D01*
X165143000Y-130429000D01*
X164682000Y-130429000D01*
X164682000Y-114646175D01*
X164954140Y-114374508D01*
X165110821Y-113997179D01*
X165111178Y-113588613D01*
X164955156Y-113211011D01*
X164904572Y-113160338D01*
X170103976Y-107960934D01*
X170383387Y-107961178D01*
X170760989Y-107805156D01*
X171050140Y-107516508D01*
X171206821Y-107139179D01*
X171207178Y-106730613D01*
X171051156Y-106353011D01*
X171000572Y-106302338D01*
X176069886Y-101233024D01*
X176468939Y-101398725D01*
X177096308Y-101399273D01*
X177676132Y-101159695D01*
X178120136Y-100716465D01*
X178360725Y-100137061D01*
X178361273Y-99509692D01*
X178121695Y-98929868D01*
X177678465Y-98485864D01*
X177606782Y-98456099D01*
X177648353Y-98325958D01*
X176784000Y-97461605D01*
X176769858Y-97475748D01*
X176590253Y-97296143D01*
X176604395Y-97282000D01*
X176963605Y-97282000D01*
X177827958Y-98146353D01*
X178079259Y-98066080D01*
X178280718Y-97510721D01*
X178254315Y-96920542D01*
X178079259Y-96497920D01*
X177827958Y-96417647D01*
X176963605Y-97282000D01*
X176604395Y-97282000D01*
X175740042Y-96417647D01*
X175610297Y-96459091D01*
X175581695Y-96389868D01*
X175430134Y-96238042D01*
X175919647Y-96238042D01*
X176784000Y-97102395D01*
X177648353Y-96238042D01*
X177568080Y-95986741D01*
X177012721Y-95785282D01*
X176422542Y-95811685D01*
X175999920Y-95986741D01*
X175919647Y-96238042D01*
X175430134Y-96238042D01*
X175138465Y-95945864D01*
X174559061Y-95705275D01*
X173931692Y-95704727D01*
X173351868Y-95944305D01*
X172973730Y-96321784D01*
X172598465Y-95945864D01*
X172019061Y-95705275D01*
X171391692Y-95704727D01*
X170811868Y-95944305D01*
X170433730Y-96321784D01*
X170058465Y-95945864D01*
X169479061Y-95705275D01*
X168851692Y-95704727D01*
X168271868Y-95944305D01*
X167893730Y-96321784D01*
X167518465Y-95945864D01*
X166939061Y-95705275D01*
X166311692Y-95704727D01*
X165731868Y-95944305D01*
X165349208Y-96326298D01*
X162400455Y-93377545D01*
X162124046Y-93192855D01*
X161798000Y-93128000D01*
X157912378Y-93128000D01*
X157945000Y-92964000D01*
X157945000Y-90424000D01*
X157851600Y-89954447D01*
X157585620Y-89556380D01*
X157187553Y-89290400D01*
X156718000Y-89197000D01*
X156248447Y-89290400D01*
X155850380Y-89556380D01*
X155584400Y-89954447D01*
X155491000Y-90424000D01*
X155491000Y-92964000D01*
X155523622Y-93128000D01*
X123368378Y-93128000D01*
X123401000Y-92964000D01*
X123401000Y-90424000D01*
X123307600Y-89954447D01*
X123041620Y-89556380D01*
X122643553Y-89290400D01*
X122174000Y-89197000D01*
X121704447Y-89290400D01*
X121306380Y-89556380D01*
X121040400Y-89954447D01*
X120947000Y-90424000D01*
X120947000Y-92964000D01*
X120979622Y-93128000D01*
X113284000Y-93128000D01*
X112957954Y-93192855D01*
X112681545Y-93377545D01*
X111280090Y-94779000D01*
X101727000Y-94779000D01*
X101400954Y-94843855D01*
X101124545Y-95028545D01*
X100489545Y-95663545D01*
X100304855Y-95939954D01*
X100240000Y-96266000D01*
X100240000Y-101092000D01*
X100304855Y-101418046D01*
X100489545Y-101694455D01*
X100997545Y-102202455D01*
X101273953Y-102387145D01*
X101600000Y-102452000D01*
X102771090Y-102452000D01*
X114718000Y-114398910D01*
X114718000Y-130429000D01*
X112536738Y-130429000D01*
X112500951Y-130249088D01*
X112327100Y-129988900D01*
X112066912Y-129815049D01*
X111760000Y-129754000D01*
X97830000Y-129754000D01*
X97830000Y-86487000D01*
X181570000Y-86487000D01*
X181570000Y-129754000D01*
G36*
X161708000Y-97380910D02*
X161708000Y-108613090D01*
X157810024Y-112511066D01*
X157530613Y-112510822D01*
X157153011Y-112666844D01*
X156863860Y-112955492D01*
X156707179Y-113332821D01*
X156706822Y-113741387D01*
X156862844Y-114118989D01*
X157151492Y-114408140D01*
X157528821Y-114564821D01*
X157853274Y-114565105D01*
X157878844Y-114626989D01*
X157929428Y-114677662D01*
X148601175Y-124005915D01*
X148601178Y-124002613D01*
X148445156Y-123625011D01*
X148426000Y-123605822D01*
X148426000Y-122266616D01*
X148444140Y-122248508D01*
X148600821Y-121871179D01*
X148601178Y-121462613D01*
X148445156Y-121085011D01*
X148156508Y-120795860D01*
X148150058Y-120793182D01*
X153267620Y-115675620D01*
X153354994Y-115544855D01*
X153533600Y-115277553D01*
X153627000Y-114808000D01*
X153627000Y-100825411D01*
X153670270Y-100782216D01*
X154045535Y-101158136D01*
X154624939Y-101398725D01*
X155252308Y-101399273D01*
X155832132Y-101159695D01*
X156276136Y-100716465D01*
X156516725Y-100137061D01*
X156517273Y-99509692D01*
X156277695Y-98929868D01*
X155834465Y-98485864D01*
X155762782Y-98456099D01*
X155804353Y-98325958D01*
X154940000Y-97461605D01*
X154075647Y-98325958D01*
X154117091Y-98455703D01*
X154047868Y-98484305D01*
X153669730Y-98861784D01*
X153360216Y-98551730D01*
X153736136Y-98176465D01*
X153765901Y-98104782D01*
X153896042Y-98146353D01*
X154760395Y-97282000D01*
X154746253Y-97267858D01*
X154925858Y-97088253D01*
X154940000Y-97102395D01*
X154954143Y-97088253D01*
X155133748Y-97267858D01*
X155119605Y-97282000D01*
X155983958Y-98146353D01*
X156235259Y-98066080D01*
X156436718Y-97510721D01*
X156410315Y-96920542D01*
X156235259Y-96497920D01*
X155983960Y-96417648D01*
X156045608Y-96356000D01*
X160683090Y-96356000D01*
X161708000Y-97380910D01*
X161708000Y-97380910D01*
G37*
X161708000Y-97380910D02*
X161708000Y-108613090D01*
X157810024Y-112511066D01*
X157530613Y-112510822D01*
X157153011Y-112666844D01*
X156863860Y-112955492D01*
X156707179Y-113332821D01*
X156706822Y-113741387D01*
X156862844Y-114118989D01*
X157151492Y-114408140D01*
X157528821Y-114564821D01*
X157853274Y-114565105D01*
X157878844Y-114626989D01*
X157929428Y-114677662D01*
X148601175Y-124005915D01*
X148601178Y-124002613D01*
X148445156Y-123625011D01*
X148426000Y-123605822D01*
X148426000Y-122266616D01*
X148444140Y-122248508D01*
X148600821Y-121871179D01*
X148601178Y-121462613D01*
X148445156Y-121085011D01*
X148156508Y-120795860D01*
X148150058Y-120793182D01*
X153267620Y-115675620D01*
X153354994Y-115544855D01*
X153533600Y-115277553D01*
X153627000Y-114808000D01*
X153627000Y-100825411D01*
X153670270Y-100782216D01*
X154045535Y-101158136D01*
X154624939Y-101398725D01*
X155252308Y-101399273D01*
X155832132Y-101159695D01*
X156276136Y-100716465D01*
X156516725Y-100137061D01*
X156517273Y-99509692D01*
X156277695Y-98929868D01*
X155834465Y-98485864D01*
X155762782Y-98456099D01*
X155804353Y-98325958D01*
X154940000Y-97461605D01*
X154075647Y-98325958D01*
X154117091Y-98455703D01*
X154047868Y-98484305D01*
X153669730Y-98861784D01*
X153360216Y-98551730D01*
X153736136Y-98176465D01*
X153765901Y-98104782D01*
X153896042Y-98146353D01*
X154760395Y-97282000D01*
X154746253Y-97267858D01*
X154925858Y-97088253D01*
X154940000Y-97102395D01*
X154954143Y-97088253D01*
X155133748Y-97267858D01*
X155119605Y-97282000D01*
X155983958Y-98146353D01*
X156235259Y-98066080D01*
X156436718Y-97510721D01*
X156410315Y-96920542D01*
X156235259Y-96497920D01*
X155983960Y-96417648D01*
X156045608Y-96356000D01*
X160683090Y-96356000D01*
X161708000Y-97380910D01*
G36*
X128059000Y-96520000D02*
X128059000Y-99567760D01*
X123301084Y-104325676D01*
X123299156Y-104321011D01*
X123010508Y-104031860D01*
X122633179Y-103875179D01*
X122224613Y-103874822D01*
X121847011Y-104030844D01*
X121557860Y-104319492D01*
X121401179Y-104696821D01*
X121401155Y-104723935D01*
X120472246Y-105652844D01*
X120446613Y-105652822D01*
X120069011Y-105808844D01*
X119779860Y-106097492D01*
X119623179Y-106474821D01*
X119622822Y-106883387D01*
X119778844Y-107260989D01*
X120067492Y-107550140D01*
X120249504Y-107625718D01*
X120185000Y-107950000D01*
X120278400Y-108419552D01*
X120544380Y-108817620D01*
X120942448Y-109083600D01*
X121403248Y-109175259D01*
X121556844Y-109546989D01*
X121610603Y-109600841D01*
X121557860Y-109653492D01*
X121418529Y-109989037D01*
X121085011Y-110126844D01*
X120907228Y-110304318D01*
X112358000Y-101755090D01*
X112358000Y-101355981D01*
X112460939Y-101398725D01*
X113088308Y-101399273D01*
X113130804Y-101381714D01*
X113697545Y-101948455D01*
X113973953Y-102133145D01*
X114300000Y-102198000D01*
X119287384Y-102198000D01*
X119305492Y-102216140D01*
X119682821Y-102372821D01*
X120091387Y-102373178D01*
X120468989Y-102217156D01*
X120758140Y-101928508D01*
X120914821Y-101551179D01*
X120915028Y-101313858D01*
X121288132Y-101159695D01*
X121732136Y-100716465D01*
X121972725Y-100137061D01*
X121973273Y-99509692D01*
X121733695Y-98929868D01*
X121290465Y-98485864D01*
X121218782Y-98456099D01*
X121260353Y-98325958D01*
X120396000Y-97461605D01*
X119531647Y-98325958D01*
X119573091Y-98455703D01*
X119503868Y-98484305D01*
X119125730Y-98861784D01*
X118816216Y-98551730D01*
X119192136Y-98176465D01*
X119221901Y-98104782D01*
X119352042Y-98146353D01*
X120216395Y-97282000D01*
X120202253Y-97267858D01*
X120381858Y-97088253D01*
X120396000Y-97102395D01*
X120410143Y-97088253D01*
X120589748Y-97267858D01*
X120575605Y-97282000D01*
X121439958Y-98146353D01*
X121691259Y-98066080D01*
X121892718Y-97510721D01*
X121866315Y-96920542D01*
X121691259Y-96497920D01*
X121439960Y-96417648D01*
X121501608Y-96356000D01*
X128091622Y-96356000D01*
X128059000Y-96520000D01*
X128059000Y-96520000D01*
G37*
X128059000Y-96520000D02*
X128059000Y-99567760D01*
X123301084Y-104325676D01*
X123299156Y-104321011D01*
X123010508Y-104031860D01*
X122633179Y-103875179D01*
X122224613Y-103874822D01*
X121847011Y-104030844D01*
X121557860Y-104319492D01*
X121401179Y-104696821D01*
X121401155Y-104723935D01*
X120472246Y-105652844D01*
X120446613Y-105652822D01*
X120069011Y-105808844D01*
X119779860Y-106097492D01*
X119623179Y-106474821D01*
X119622822Y-106883387D01*
X119778844Y-107260989D01*
X120067492Y-107550140D01*
X120249504Y-107625718D01*
X120185000Y-107950000D01*
X120278400Y-108419552D01*
X120544380Y-108817620D01*
X120942448Y-109083600D01*
X121403248Y-109175259D01*
X121556844Y-109546989D01*
X121610603Y-109600841D01*
X121557860Y-109653492D01*
X121418529Y-109989037D01*
X121085011Y-110126844D01*
X120907228Y-110304318D01*
X112358000Y-101755090D01*
X112358000Y-101355981D01*
X112460939Y-101398725D01*
X113088308Y-101399273D01*
X113130804Y-101381714D01*
X113697545Y-101948455D01*
X113973953Y-102133145D01*
X114300000Y-102198000D01*
X119287384Y-102198000D01*
X119305492Y-102216140D01*
X119682821Y-102372821D01*
X120091387Y-102373178D01*
X120468989Y-102217156D01*
X120758140Y-101928508D01*
X120914821Y-101551179D01*
X120915028Y-101313858D01*
X121288132Y-101159695D01*
X121732136Y-100716465D01*
X121972725Y-100137061D01*
X121973273Y-99509692D01*
X121733695Y-98929868D01*
X121290465Y-98485864D01*
X121218782Y-98456099D01*
X121260353Y-98325958D01*
X120396000Y-97461605D01*
X119531647Y-98325958D01*
X119573091Y-98455703D01*
X119503868Y-98484305D01*
X119125730Y-98861784D01*
X118816216Y-98551730D01*
X119192136Y-98176465D01*
X119221901Y-98104782D01*
X119352042Y-98146353D01*
X120216395Y-97282000D01*
X120202253Y-97267858D01*
X120381858Y-97088253D01*
X120396000Y-97102395D01*
X120410143Y-97088253D01*
X120589748Y-97267858D01*
X120575605Y-97282000D01*
X121439958Y-98146353D01*
X121691259Y-98066080D01*
X121892718Y-97510721D01*
X121866315Y-96920542D01*
X121691259Y-96497920D01*
X121439960Y-96417648D01*
X121501608Y-96356000D01*
X128091622Y-96356000D01*
X128059000Y-96520000D01*
M02*
