G04 #@! TF.FileFunction,Profile,NP*
%FSLAX46Y46*%
G04 Gerber Fmt 4.6, Leading zero omitted, Abs format (unit mm)*
G04 Created by KiCad (PCBNEW 4.0.7) date 05/07/18 09:37:08*
%MOMM*%
%LPD*%
G01*
G04 APERTURE LIST*
%ADD10C,0.100000*%
%ADD11C,0.150000*%
G04 APERTURE END LIST*
D10*
D11*
X135509000Y-89281000D02*
X114427000Y-89281000D01*
X114427000Y-86487000D02*
X135509000Y-86487000D01*
X127889000Y-68453000D02*
X111887000Y-68453000D01*
X111887000Y-65659000D02*
X127889000Y-65659000D01*
X135509000Y-89281000D02*
G75*
G03X136906000Y-87884000I0J1397000D01*
G01*
X136906000Y-87884000D02*
G75*
G03X135509000Y-86487000I-1397000J0D01*
G01*
X113030000Y-87884000D02*
G75*
G03X114427000Y-89281000I1397000J0D01*
G01*
X114427000Y-86487000D02*
G75*
G03X113030000Y-87884000I0J-1397000D01*
G01*
X127889000Y-68453000D02*
G75*
G03X129286000Y-67056000I0J1397000D01*
G01*
X129286000Y-67056000D02*
G75*
G03X127889000Y-65659000I-1397000J0D01*
G01*
X110490000Y-67056000D02*
G75*
G03X111887000Y-68453000I1397000J0D01*
G01*
X111887000Y-65659000D02*
G75*
G03X110490000Y-67056000I0J-1397000D01*
G01*
X140589000Y-89281000D02*
X164846000Y-89281000D01*
X151130000Y-86487000D02*
X140589000Y-86487000D01*
X98806000Y-89281000D02*
X109347000Y-89281000D01*
X98806000Y-86487000D02*
X109347000Y-86487000D01*
X98806000Y-68453000D02*
X106807000Y-68453000D01*
X98806000Y-65659000D02*
X106807000Y-65659000D01*
X132969000Y-68453000D02*
X151130000Y-68453000D01*
X140970000Y-65659000D02*
X132969000Y-65659000D01*
X139192000Y-87884000D02*
G75*
G03X140589000Y-89281000I1397000J0D01*
G01*
X140589000Y-86487000D02*
G75*
G03X139192000Y-87884000I0J-1397000D01*
G01*
X183896000Y-91186000D02*
X183896000Y-89281000D01*
X98806000Y-91186000D02*
X98806000Y-89281000D01*
X106807000Y-68453000D02*
G75*
G03X108204000Y-67056000I0J1397000D01*
G01*
X108204000Y-67056000D02*
G75*
G03X106807000Y-65659000I-1397000J0D01*
G01*
X131572000Y-67056000D02*
G75*
G03X132969000Y-68453000I1397000J0D01*
G01*
X132969000Y-65659000D02*
G75*
G03X131572000Y-67056000I0J-1397000D01*
G01*
X109347000Y-89281000D02*
G75*
G03X110744000Y-87884000I0J1397000D01*
G01*
X110744000Y-87884000D02*
G75*
G03X109347000Y-86487000I-1397000J0D01*
G01*
X164846000Y-89281000D02*
G75*
G03X166243000Y-87884000I0J1397000D01*
G01*
X166243000Y-87884000D02*
G75*
G03X164846000Y-86487000I-1397000J0D01*
G01*
X168529000Y-87884000D02*
G75*
G03X169926000Y-89281000I1397000J0D01*
G01*
X169926000Y-86487000D02*
G75*
G03X168529000Y-87884000I0J-1397000D01*
G01*
X152527000Y-78486000D02*
G75*
G03X151130000Y-79883000I0J-1397000D01*
G01*
X153924000Y-79883000D02*
G75*
G03X152527000Y-78486000I-1397000J0D01*
G01*
X152527000Y-76200000D02*
G75*
G03X153924000Y-74803000I0J1397000D01*
G01*
X151130000Y-74803000D02*
G75*
G03X152527000Y-76200000I1397000J0D01*
G01*
X151130000Y-79883000D02*
X151130000Y-86487000D01*
X153924000Y-86487000D02*
X153924000Y-79883000D01*
X164846000Y-86487000D02*
X153924000Y-86487000D01*
X169418000Y-144526000D02*
X169418000Y-133604000D01*
X113538000Y-144526000D02*
X169418000Y-144526000D01*
X113538000Y-133858000D02*
X113538000Y-144526000D01*
X98806000Y-133858000D02*
X113538000Y-133858000D01*
X98806000Y-91186000D02*
X98806000Y-133858000D01*
X98806000Y-68453000D02*
X98806000Y-86487000D01*
X98806000Y-47625000D02*
X98806000Y-65659000D01*
X140970000Y-47625000D02*
X98806000Y-47625000D01*
X140970000Y-65659000D02*
X140970000Y-47625000D01*
X151130000Y-74803000D02*
X151130000Y-68453000D01*
X153924000Y-68453000D02*
X153924000Y-74803000D01*
X180848000Y-68453000D02*
X153924000Y-68453000D01*
X180848000Y-86487000D02*
X180848000Y-68453000D01*
X169926000Y-86487000D02*
X180848000Y-86487000D01*
X183896000Y-89281000D02*
X169926000Y-89281000D01*
X183896000Y-133604000D02*
X183896000Y-91186000D01*
X169418000Y-133604000D02*
X183896000Y-133604000D01*
M02*
