G04 #@! TF.FileFunction,Copper,L1,Top,Signal*
%FSLAX46Y46*%
G04 Gerber Fmt 4.6, Leading zero omitted, Abs format (unit mm)*
G04 Created by KiCad (PCBNEW 4.0.7) date 05/06/18 18:23:08*
%MOMM*%
%LPD*%
G01*
G04 APERTURE LIST*
%ADD10C,0.100000*%
%ADD11R,1.000000X6.000000*%
%ADD12R,1.000000X8.000000*%
%ADD13R,1.700000X1.700000*%
%ADD14C,1.700000*%
%ADD15O,1.700000X1.700000*%
%ADD16C,0.600000*%
%ADD17C,0.800000*%
%ADD18C,0.250000*%
%ADD19C,1.000000*%
%ADD20C,0.254000*%
G04 APERTURE END LIST*
D10*
D11*
X166370000Y-136668000D03*
D12*
X163830000Y-137668000D03*
X161290000Y-137668000D03*
X158750000Y-137668000D03*
X156210000Y-137668000D03*
X153670000Y-137668000D03*
X151130000Y-137668000D03*
X148590000Y-137668000D03*
X146050000Y-137668000D03*
X143510000Y-137668000D03*
X140970000Y-137668000D03*
X138430000Y-137668000D03*
X135890000Y-137668000D03*
X133350000Y-137668000D03*
X130810000Y-137668000D03*
X128270000Y-137668000D03*
X125730000Y-137668000D03*
X123190000Y-137668000D03*
X120650000Y-137668000D03*
X118110000Y-137668000D03*
X115570000Y-137668000D03*
X113030000Y-137668000D03*
D13*
X102616000Y-99822000D03*
D14*
X102616000Y-97282000D03*
X105156000Y-99822000D03*
X105156000Y-97282000D03*
X107696000Y-99822000D03*
X107696000Y-97282000D03*
X110236000Y-99822000D03*
X110236000Y-97282000D03*
X112776000Y-99822000D03*
X112776000Y-97282000D03*
X115316000Y-99822000D03*
X115316000Y-97282000D03*
X117856000Y-99822000D03*
X117856000Y-97282000D03*
X120396000Y-99822000D03*
X120396000Y-97282000D03*
D13*
X132080000Y-99822000D03*
D14*
X132080000Y-97282000D03*
X134620000Y-99822000D03*
X134620000Y-97282000D03*
X137160000Y-99822000D03*
X137160000Y-97282000D03*
X139700000Y-99822000D03*
X139700000Y-97282000D03*
X142240000Y-99822000D03*
X142240000Y-97282000D03*
X144780000Y-99822000D03*
X144780000Y-97282000D03*
X147320000Y-99822000D03*
X147320000Y-97282000D03*
X149860000Y-99822000D03*
X149860000Y-97282000D03*
X152400000Y-99822000D03*
X152400000Y-97282000D03*
X154940000Y-99822000D03*
X154940000Y-97282000D03*
D13*
X166624000Y-99822000D03*
D14*
X166624000Y-97282000D03*
X169164000Y-99822000D03*
X169164000Y-97282000D03*
X171704000Y-99822000D03*
X171704000Y-97282000D03*
X174244000Y-99822000D03*
X174244000Y-97282000D03*
X176784000Y-99822000D03*
X176784000Y-97282000D03*
D13*
X164338000Y-79756000D03*
D14*
X164338000Y-77216000D03*
X166878000Y-79756000D03*
X166878000Y-77216000D03*
X169418000Y-79756000D03*
X169418000Y-77216000D03*
X171958000Y-79756000D03*
X171958000Y-77216000D03*
X174498000Y-79756000D03*
X174498000Y-77216000D03*
D13*
X109474000Y-58166000D03*
D14*
X109474000Y-55626000D03*
X112014000Y-58166000D03*
X112014000Y-55626000D03*
X114554000Y-58166000D03*
X114554000Y-55626000D03*
X117094000Y-58166000D03*
X117094000Y-55626000D03*
X119634000Y-58166000D03*
X119634000Y-55626000D03*
X122174000Y-58166000D03*
X122174000Y-55626000D03*
X124714000Y-58166000D03*
X124714000Y-55626000D03*
X127254000Y-58166000D03*
X127254000Y-55626000D03*
D13*
X110998000Y-79756000D03*
D14*
X110998000Y-77216000D03*
X113538000Y-79756000D03*
X113538000Y-77216000D03*
X116078000Y-79756000D03*
X116078000Y-77216000D03*
X118618000Y-79756000D03*
X118618000Y-77216000D03*
X121158000Y-79756000D03*
X121158000Y-77216000D03*
X123698000Y-79756000D03*
X123698000Y-77216000D03*
X126238000Y-79756000D03*
X126238000Y-77216000D03*
X128778000Y-79756000D03*
X128778000Y-77216000D03*
X131318000Y-79756000D03*
X131318000Y-77216000D03*
X133858000Y-79756000D03*
X133858000Y-77216000D03*
D13*
X157480000Y-67310000D03*
D15*
X160020000Y-67310000D03*
X162560000Y-67310000D03*
X165100000Y-67310000D03*
X167640000Y-67310000D03*
X170180000Y-67310000D03*
X172720000Y-67310000D03*
X175260000Y-67310000D03*
X177800000Y-67310000D03*
X180340000Y-67310000D03*
D13*
X99060000Y-45720000D03*
D15*
X101600000Y-45720000D03*
X104140000Y-45720000D03*
X106680000Y-45720000D03*
X109220000Y-45720000D03*
X111760000Y-45720000D03*
X114300000Y-45720000D03*
X116840000Y-45720000D03*
X119380000Y-45720000D03*
X121920000Y-45720000D03*
X124460000Y-45720000D03*
X127000000Y-45720000D03*
X129540000Y-45720000D03*
X132080000Y-45720000D03*
X134620000Y-45720000D03*
X137160000Y-45720000D03*
D13*
X99060000Y-67310000D03*
D15*
X101600000Y-67310000D03*
X104140000Y-67310000D03*
X106680000Y-67310000D03*
X109220000Y-67310000D03*
X111760000Y-67310000D03*
X114300000Y-67310000D03*
X116840000Y-67310000D03*
X119380000Y-67310000D03*
X121920000Y-67310000D03*
X124460000Y-67310000D03*
X127000000Y-67310000D03*
X129540000Y-67310000D03*
X132080000Y-67310000D03*
X134620000Y-67310000D03*
X137160000Y-67310000D03*
X139700000Y-67310000D03*
X142240000Y-67310000D03*
X144780000Y-67310000D03*
X147320000Y-67310000D03*
D16*
X122428000Y-110236000D03*
X122428000Y-121666000D03*
X147574000Y-109474000D03*
X147574000Y-110998000D03*
X121666000Y-110998000D03*
X121666000Y-120650000D03*
X170180000Y-106934000D03*
X167894000Y-104648000D03*
X122174000Y-90424000D03*
X122174000Y-92964000D03*
X156718000Y-90424000D03*
X156718000Y-92964000D03*
D17*
X166370000Y-128778000D03*
X113030000Y-128778000D03*
D16*
X119888000Y-101346000D03*
X157734000Y-119380000D03*
X116586000Y-96012000D03*
X157734000Y-113538000D03*
X164084000Y-113792000D03*
X164084000Y-108712000D03*
X158750000Y-114046000D03*
X158750000Y-118364000D03*
X147574000Y-121666000D03*
X147574000Y-124206000D03*
X125730000Y-108458000D03*
X125730000Y-111252000D03*
X133604000Y-111506000D03*
X133350000Y-106172000D03*
X134620000Y-113284000D03*
X137160000Y-107442000D03*
X135890000Y-105156000D03*
X130810000Y-111252000D03*
X138430000Y-111252000D03*
X138430000Y-117094000D03*
X141986000Y-108966000D03*
X135890000Y-114554000D03*
X144780000Y-122682000D03*
X144780000Y-116332000D03*
X146050000Y-101854000D03*
X128270000Y-111252000D03*
X123190000Y-109220000D03*
X122428000Y-108966000D03*
X122428000Y-104902000D03*
X120650000Y-106680000D03*
D17*
X146050000Y-124206000D03*
X129286000Y-96520000D03*
X121412000Y-107950000D03*
D18*
X122428000Y-121666000D02*
X122428000Y-110236000D01*
X164084000Y-102362000D02*
X166624000Y-99822000D01*
X154686000Y-102362000D02*
X164084000Y-102362000D01*
X147574000Y-109474000D02*
X154686000Y-102362000D01*
X165862000Y-103124000D02*
X169164000Y-99822000D01*
X147574000Y-110998000D02*
X155448000Y-103124000D01*
X155448000Y-103124000D02*
X165862000Y-103124000D01*
X121666000Y-120650000D02*
X121666000Y-110998000D01*
X170180000Y-106934000D02*
X167894000Y-104648000D01*
D19*
X166370000Y-128778000D02*
X166370000Y-113030000D01*
X166370000Y-113030000D02*
X178562000Y-100838000D01*
X156718000Y-90424000D02*
X176784000Y-90424000D01*
X178562000Y-92202000D02*
X178562000Y-99822000D01*
X176784000Y-90424000D02*
X178562000Y-92202000D01*
X178562000Y-99822000D02*
X178562000Y-100838000D01*
X120396000Y-99822000D02*
X122174000Y-98044000D01*
X122174000Y-98044000D02*
X122174000Y-92964000D01*
X154940000Y-99822000D02*
X156718000Y-98044000D01*
X156718000Y-98044000D02*
X156718000Y-92964000D01*
X176784000Y-99822000D02*
X178562000Y-99822000D01*
X156718000Y-90424000D02*
X122174000Y-90424000D01*
X166370000Y-136668000D02*
X166370000Y-128778000D01*
D18*
X154940000Y-99822000D02*
X155194000Y-99822000D01*
D19*
X113030000Y-128778000D02*
X113030000Y-104140000D01*
X100838000Y-93472000D02*
X102616000Y-91694000D01*
X100838000Y-100838000D02*
X100838000Y-93472000D01*
X101600000Y-101600000D02*
X100838000Y-100838000D01*
X110490000Y-101600000D02*
X101600000Y-101600000D01*
X113030000Y-104140000D02*
X110490000Y-101600000D01*
X176784000Y-92964000D02*
X176784000Y-92894002D01*
X176784000Y-92894002D02*
X175583998Y-91694000D01*
X175583998Y-91694000D02*
X175583998Y-91624002D01*
X175583998Y-91624002D02*
X175583998Y-91694000D01*
X120396000Y-97282000D02*
X120396000Y-91694000D01*
X120396000Y-91694000D02*
X102616000Y-91694000D01*
X154940000Y-97282000D02*
X154940000Y-91694000D01*
X154940000Y-91694000D02*
X154940000Y-91948000D01*
X154940000Y-91948000D02*
X154940000Y-91694000D01*
X176784000Y-97282000D02*
X176784000Y-92964000D01*
X175583998Y-91694000D02*
X154940000Y-91694000D01*
X154940000Y-91694000D02*
X120396000Y-91694000D01*
X113030000Y-137668000D02*
X113030000Y-128778000D01*
D18*
X119888000Y-103124000D02*
X119888000Y-101346000D01*
X147066000Y-122428000D02*
X134112000Y-109474000D01*
X134112000Y-109474000D02*
X125732796Y-109474000D01*
X119888000Y-103629204D02*
X119888000Y-103124000D01*
X125732796Y-109474000D02*
X119888000Y-103629204D01*
X156210000Y-137668000D02*
X156210000Y-129794000D01*
X148844000Y-122428000D02*
X147066000Y-122428000D01*
X156210000Y-129794000D02*
X148844000Y-122428000D01*
X112776000Y-97282000D02*
X114046000Y-96012000D01*
X114046000Y-96012000D02*
X116586000Y-96012000D01*
X157734000Y-119380000D02*
X157734000Y-113538000D01*
X164084000Y-113792000D02*
X164084000Y-108712000D01*
X158750000Y-118364000D02*
X158750000Y-114046000D01*
X151130000Y-126746000D02*
X151130000Y-126238000D01*
X148336000Y-123444000D02*
X147828000Y-123444000D01*
X151130000Y-126238000D02*
X148336000Y-123444000D01*
X146558000Y-123444000D02*
X133604000Y-110490000D01*
X147828000Y-123444000D02*
X146558000Y-123444000D01*
X125476000Y-110490000D02*
X117856000Y-102870000D01*
X117856000Y-102870000D02*
X117856000Y-99822000D01*
X133604000Y-110490000D02*
X125476000Y-110490000D01*
X151130000Y-137668000D02*
X151130000Y-126746000D01*
X146812000Y-122936000D02*
X133858000Y-109982000D01*
X133858000Y-109982000D02*
X125604398Y-109982000D01*
X153670000Y-137668000D02*
X153670000Y-128016000D01*
X119126000Y-98552000D02*
X117856000Y-97282000D01*
X119126000Y-103503602D02*
X119126000Y-98552000D01*
X125604398Y-109982000D02*
X119126000Y-103503602D01*
X148590000Y-122936000D02*
X146812000Y-122936000D01*
X153670000Y-128016000D02*
X148590000Y-122936000D01*
X147066000Y-121539000D02*
X147447000Y-121539000D01*
X147447000Y-121539000D02*
X147574000Y-121666000D01*
X147066000Y-121539000D02*
X146939000Y-121539000D01*
X132080000Y-106680000D02*
X132080000Y-106426000D01*
X146939000Y-121539000D02*
X132080000Y-106680000D01*
X132080000Y-106172000D02*
X132080000Y-106426000D01*
X132080000Y-106172000D02*
X132080000Y-99822000D01*
X148590000Y-137668000D02*
X148590000Y-125222000D01*
X148590000Y-125222000D02*
X147574000Y-124206000D01*
X132080000Y-97282000D02*
X125730000Y-103632000D01*
X125730000Y-137668000D02*
X125730000Y-111252000D01*
X125730000Y-108458000D02*
X125730000Y-103632000D01*
X148082000Y-120904000D02*
X147066000Y-120904000D01*
X134620000Y-108458000D02*
X134620000Y-107442000D01*
X147066000Y-120904000D02*
X134620000Y-108458000D01*
X158750000Y-137668000D02*
X158750000Y-131572000D01*
X134620000Y-107442000D02*
X134620000Y-99822000D01*
X158750000Y-131572000D02*
X148082000Y-120904000D01*
X140970000Y-127000000D02*
X140970000Y-118618000D01*
X133858000Y-111506000D02*
X133604000Y-111506000D01*
X140970000Y-118618000D02*
X133858000Y-111506000D01*
X140970000Y-137668000D02*
X140970000Y-127000000D01*
X133350000Y-98298000D02*
X134366000Y-97282000D01*
X133350000Y-106172000D02*
X133350000Y-98298000D01*
X134366000Y-97282000D02*
X134620000Y-97282000D01*
X133350000Y-122936000D02*
X133350000Y-114554000D01*
X133350000Y-114554000D02*
X134620000Y-113284000D01*
X133350000Y-137668000D02*
X133350000Y-122936000D01*
X137160000Y-107442000D02*
X137160000Y-99822000D01*
X135890000Y-105156000D02*
X135890000Y-101854000D01*
X130810000Y-137668000D02*
X130810000Y-111252000D01*
X135890000Y-98552000D02*
X137160000Y-97282000D01*
X135890000Y-101854000D02*
X135890000Y-98552000D01*
X148590000Y-120396000D02*
X147194398Y-120396000D01*
X139700000Y-112901602D02*
X139700000Y-111506000D01*
X147194398Y-120396000D02*
X139700000Y-112901602D01*
X161290000Y-137668000D02*
X161290000Y-133096000D01*
X139700000Y-111506000D02*
X139700000Y-99822000D01*
X161290000Y-133096000D02*
X148590000Y-120396000D01*
X138430000Y-137668000D02*
X138430000Y-117094000D01*
X138430000Y-98552000D02*
X139700000Y-97282000D01*
X138430000Y-111252000D02*
X138430000Y-98552000D01*
X135890000Y-137668000D02*
X135890000Y-114554000D01*
X142240000Y-108712000D02*
X142240000Y-99822000D01*
X141986000Y-108966000D02*
X142240000Y-108712000D01*
X149098000Y-119888000D02*
X147322796Y-119888000D01*
X143510000Y-116075204D02*
X143510000Y-114300000D01*
X147322796Y-119888000D02*
X143510000Y-116075204D01*
X163830000Y-137668000D02*
X163830000Y-132588000D01*
X162306000Y-131064000D02*
X160274000Y-131064000D01*
X163830000Y-132588000D02*
X162306000Y-131064000D01*
X160274000Y-131064000D02*
X149098000Y-119888000D01*
X143510000Y-114300000D02*
X143510000Y-98552000D01*
X143510000Y-98552000D02*
X142240000Y-97282000D01*
X163830000Y-137668000D02*
X163830000Y-134620000D01*
X143510000Y-125476000D02*
X143510000Y-123952000D01*
X143510000Y-123952000D02*
X144780000Y-122682000D01*
X143510000Y-137668000D02*
X143510000Y-125476000D01*
X144780000Y-116332000D02*
X144780000Y-99822000D01*
X146050000Y-101854000D02*
X146050000Y-98552000D01*
X146050000Y-98552000D02*
X144780000Y-97282000D01*
X128270000Y-137668000D02*
X128270000Y-111252000D01*
X123190000Y-137668000D02*
X123190000Y-109220000D01*
X120904000Y-110490000D02*
X122428000Y-108966000D01*
X120904000Y-110490000D02*
X120650000Y-110744000D01*
X120650000Y-137668000D02*
X120650000Y-110744000D01*
X122428000Y-104902000D02*
X131318000Y-96012000D01*
X115570000Y-113538000D02*
X115570000Y-111760000D01*
X115570000Y-111760000D02*
X120650000Y-106680000D01*
X131318000Y-96012000D02*
X148590000Y-96012000D01*
X148590000Y-96012000D02*
X149860000Y-97282000D01*
X115570000Y-137668000D02*
X115570000Y-113538000D01*
D19*
X146050000Y-124206000D02*
X146050000Y-137668000D01*
X129286000Y-96266000D02*
X130810000Y-94742000D01*
X129286000Y-96520000D02*
X129286000Y-96266000D01*
X118110000Y-137668000D02*
X118110000Y-111252000D01*
X149860000Y-94742000D02*
X152400000Y-97282000D01*
X130810000Y-94742000D02*
X149860000Y-94742000D01*
X118110000Y-111252000D02*
X121412000Y-107950000D01*
D18*
X163068000Y-79502000D02*
X162560000Y-78994000D01*
X162560000Y-78994000D02*
X162560000Y-72390000D01*
X164338000Y-79756000D02*
X163322000Y-79756000D01*
X162560000Y-72390000D02*
X157480000Y-67310000D01*
X163322000Y-79756000D02*
X163068000Y-79502000D01*
X164338000Y-77216000D02*
X164338000Y-71628000D01*
X164338000Y-71628000D02*
X160020000Y-67310000D01*
X166878000Y-79756000D02*
X165608000Y-78486000D01*
X165608000Y-70358000D02*
X162560000Y-67310000D01*
X165608000Y-78486000D02*
X165608000Y-70358000D01*
X166878000Y-77216000D02*
X166878000Y-69088000D01*
X166878000Y-69088000D02*
X165100000Y-67310000D01*
X169418000Y-79756000D02*
X168148000Y-78486000D01*
X168148000Y-78486000D02*
X168148000Y-67818000D01*
X168148000Y-67818000D02*
X167640000Y-67310000D01*
X169418000Y-77216000D02*
X169418000Y-68072000D01*
X169418000Y-68072000D02*
X170180000Y-67310000D01*
X171958000Y-79756000D02*
X170688000Y-78486000D01*
X170688000Y-69342000D02*
X172720000Y-67310000D01*
X170688000Y-78486000D02*
X170688000Y-69342000D01*
X171958000Y-77216000D02*
X171958000Y-70612000D01*
X171958000Y-70612000D02*
X175260000Y-67310000D01*
X174498000Y-79756000D02*
X173228000Y-78486000D01*
X173228000Y-71882000D02*
X177800000Y-67310000D01*
X173228000Y-78486000D02*
X173228000Y-71882000D01*
X174498000Y-77216000D02*
X174498000Y-73152000D01*
X174498000Y-73152000D02*
X180340000Y-67310000D01*
X107442000Y-56134000D02*
X107442000Y-54102000D01*
X107442000Y-54102000D02*
X99060000Y-45720000D01*
X109474000Y-58166000D02*
X107442000Y-56134000D01*
X109474000Y-55626000D02*
X109474000Y-53594000D01*
X109474000Y-53594000D02*
X101600000Y-45720000D01*
X112014000Y-58166000D02*
X112014000Y-57658000D01*
X112014000Y-57658000D02*
X110744000Y-56388000D01*
X110744000Y-56388000D02*
X110744000Y-52324000D01*
X110744000Y-52324000D02*
X104140000Y-45720000D01*
X112014000Y-55626000D02*
X112014000Y-51054000D01*
X112014000Y-51054000D02*
X106680000Y-45720000D01*
X114554000Y-58166000D02*
X113284000Y-56896000D01*
X113284000Y-49784000D02*
X109220000Y-45720000D01*
X113284000Y-56896000D02*
X113284000Y-49784000D01*
X114554000Y-55626000D02*
X114554000Y-48514000D01*
X114554000Y-48514000D02*
X111760000Y-45720000D01*
X117094000Y-58166000D02*
X115824000Y-56896000D01*
X115824000Y-47244000D02*
X114300000Y-45720000D01*
X115824000Y-56896000D02*
X115824000Y-47244000D01*
X117094000Y-55626000D02*
X117094000Y-45974000D01*
X117094000Y-45974000D02*
X116840000Y-45720000D01*
X118364000Y-54864000D02*
X118364000Y-46736000D01*
X118364000Y-46736000D02*
X119380000Y-45720000D01*
X119634000Y-58166000D02*
X118364000Y-56896000D01*
X118364000Y-56896000D02*
X118364000Y-54864000D01*
X119634000Y-55626000D02*
X119634000Y-48006000D01*
X119634000Y-48006000D02*
X121920000Y-45720000D01*
X120904000Y-54356000D02*
X120904000Y-49276000D01*
X120904000Y-49276000D02*
X124460000Y-45720000D01*
X122174000Y-58166000D02*
X120904000Y-56896000D01*
X120904000Y-56896000D02*
X120904000Y-54356000D01*
X122174000Y-55626000D02*
X122174000Y-50546000D01*
X122174000Y-50546000D02*
X127000000Y-45720000D01*
X122174000Y-55626000D02*
X122174000Y-55118000D01*
X123444000Y-54864000D02*
X123444000Y-51816000D01*
X123444000Y-51816000D02*
X129540000Y-45720000D01*
X124714000Y-58166000D02*
X123444000Y-56896000D01*
X123444000Y-56896000D02*
X123444000Y-54864000D01*
X124714000Y-55626000D02*
X124714000Y-53086000D01*
X124714000Y-53086000D02*
X132080000Y-45720000D01*
X124714000Y-55626000D02*
X124714000Y-55118000D01*
X125984000Y-54864000D02*
X125984000Y-54356000D01*
X125984000Y-54356000D02*
X134620000Y-45720000D01*
X127254000Y-58166000D02*
X125984000Y-56896000D01*
X125984000Y-56896000D02*
X125984000Y-54864000D01*
X127254000Y-55626000D02*
X137160000Y-45720000D01*
X110998000Y-79756000D02*
X109982000Y-79756000D01*
X99060000Y-68834000D02*
X99060000Y-67310000D01*
X109982000Y-79756000D02*
X99060000Y-68834000D01*
X110998000Y-77216000D02*
X110998000Y-76708000D01*
X110998000Y-76708000D02*
X101600000Y-67310000D01*
X113538000Y-79756000D02*
X112268000Y-78486000D01*
X112268000Y-75438000D02*
X104140000Y-67310000D01*
X112268000Y-78486000D02*
X112268000Y-75438000D01*
X113538000Y-77216000D02*
X113538000Y-74168000D01*
X113538000Y-74168000D02*
X106680000Y-67310000D01*
X116078000Y-79756000D02*
X114808000Y-78486000D01*
X114808000Y-72898000D02*
X109220000Y-67310000D01*
X114808000Y-78486000D02*
X114808000Y-72898000D01*
X116078000Y-77216000D02*
X116078000Y-71628000D01*
X116078000Y-71628000D02*
X111760000Y-67310000D01*
X118618000Y-79756000D02*
X117348000Y-78486000D01*
X117348000Y-70358000D02*
X114300000Y-67310000D01*
X117348000Y-78486000D02*
X117348000Y-70358000D01*
X118618000Y-77216000D02*
X118618000Y-69088000D01*
X118618000Y-69088000D02*
X116840000Y-67310000D01*
X121158000Y-79756000D02*
X119888000Y-78486000D01*
X119888000Y-78486000D02*
X119888000Y-67818000D01*
X119888000Y-67818000D02*
X119380000Y-67310000D01*
X121158000Y-77216000D02*
X121158000Y-68072000D01*
X121158000Y-68072000D02*
X121920000Y-67310000D01*
X123698000Y-79756000D02*
X122428000Y-78486000D01*
X122428000Y-69342000D02*
X124460000Y-67310000D01*
X122428000Y-78486000D02*
X122428000Y-69342000D01*
X123698000Y-77216000D02*
X123698000Y-70612000D01*
X123698000Y-70612000D02*
X127000000Y-67310000D01*
X126238000Y-79756000D02*
X124968000Y-78486000D01*
X124968000Y-71882000D02*
X129540000Y-67310000D01*
X124968000Y-78486000D02*
X124968000Y-71882000D01*
X126238000Y-77216000D02*
X126238000Y-73152000D01*
X126238000Y-73152000D02*
X132080000Y-67310000D01*
X128778000Y-79756000D02*
X127508000Y-78486000D01*
X127508000Y-74422000D02*
X134620000Y-67310000D01*
X127508000Y-78486000D02*
X127508000Y-74422000D01*
X128778000Y-77216000D02*
X128778000Y-75692000D01*
X128778000Y-75692000D02*
X137160000Y-67310000D01*
X131318000Y-79756000D02*
X130048000Y-78486000D01*
X130048000Y-76708000D02*
X139446000Y-67310000D01*
X130048000Y-78486000D02*
X130048000Y-76708000D01*
X139446000Y-67310000D02*
X139700000Y-67310000D01*
X131318000Y-77216000D02*
X131318000Y-76200000D01*
X134620000Y-74930000D02*
X142240000Y-67310000D01*
X132588000Y-74930000D02*
X134620000Y-74930000D01*
X131318000Y-76200000D02*
X132588000Y-74930000D01*
X133858000Y-79756000D02*
X132588000Y-78486000D01*
X136398000Y-75692000D02*
X144780000Y-67310000D01*
X133096000Y-75692000D02*
X136398000Y-75692000D01*
X132588000Y-76200000D02*
X133096000Y-75692000D01*
X132588000Y-78486000D02*
X132588000Y-76200000D01*
X133858000Y-77216000D02*
X137414000Y-77216000D01*
X137414000Y-77216000D02*
X147320000Y-67310000D01*
D20*
G36*
X181570000Y-66502780D02*
X181535183Y-66428642D01*
X181106924Y-66038355D01*
X180696890Y-65868524D01*
X180467000Y-65989845D01*
X180467000Y-67183000D01*
X180487000Y-67183000D01*
X180487000Y-67437000D01*
X180467000Y-67437000D01*
X180467000Y-68630155D01*
X180696890Y-68751476D01*
X181106924Y-68581645D01*
X181535183Y-68191358D01*
X181570000Y-68117220D01*
X181570000Y-83693000D01*
X155829000Y-83693000D01*
X155829000Y-66460000D01*
X155888758Y-66460000D01*
X155888758Y-68160000D01*
X155939451Y-68429410D01*
X156098672Y-68676846D01*
X156341615Y-68842843D01*
X156630000Y-68901242D01*
X157866332Y-68901242D01*
X161708000Y-72742910D01*
X161708000Y-78994000D01*
X161772855Y-79320046D01*
X161957545Y-79596455D01*
X162719545Y-80358455D01*
X162746758Y-80376638D01*
X162746758Y-80606000D01*
X162797451Y-80875410D01*
X162956672Y-81122846D01*
X163199615Y-81288843D01*
X163488000Y-81347242D01*
X165188000Y-81347242D01*
X165457410Y-81296549D01*
X165704846Y-81137328D01*
X165836420Y-80944764D01*
X165983535Y-81092136D01*
X166562939Y-81332725D01*
X167190308Y-81333273D01*
X167770132Y-81093695D01*
X168148270Y-80716216D01*
X168523535Y-81092136D01*
X169102939Y-81332725D01*
X169730308Y-81333273D01*
X170310132Y-81093695D01*
X170688270Y-80716216D01*
X171063535Y-81092136D01*
X171642939Y-81332725D01*
X172270308Y-81333273D01*
X172850132Y-81093695D01*
X173228270Y-80716216D01*
X173603535Y-81092136D01*
X174182939Y-81332725D01*
X174810308Y-81333273D01*
X175390132Y-81093695D01*
X175834136Y-80650465D01*
X176074725Y-80071061D01*
X176075273Y-79443692D01*
X175835695Y-78863868D01*
X175392465Y-78419864D01*
X175320782Y-78390099D01*
X175362353Y-78259958D01*
X174498000Y-77395605D01*
X174483858Y-77409748D01*
X174304253Y-77230143D01*
X174318395Y-77216000D01*
X174677605Y-77216000D01*
X175541958Y-78080353D01*
X175793259Y-78000080D01*
X175994718Y-77444721D01*
X175968315Y-76854542D01*
X175793259Y-76431920D01*
X175541958Y-76351647D01*
X174677605Y-77216000D01*
X174318395Y-77216000D01*
X174304253Y-77201858D01*
X174483858Y-77022253D01*
X174498000Y-77036395D01*
X175362353Y-76172042D01*
X175282080Y-75920741D01*
X174726721Y-75719282D01*
X174136542Y-75745685D01*
X174080000Y-75769105D01*
X174080000Y-72234910D01*
X177463875Y-68851035D01*
X177800000Y-68917895D01*
X178403492Y-68797853D01*
X178915107Y-68456002D01*
X179122991Y-68144882D01*
X179144817Y-68191358D01*
X179573076Y-68581645D01*
X179983110Y-68751476D01*
X180213000Y-68630155D01*
X180213000Y-67437000D01*
X180193000Y-67437000D01*
X180193000Y-67183000D01*
X180213000Y-67183000D01*
X180213000Y-65989845D01*
X179983110Y-65868524D01*
X179573076Y-66038355D01*
X179144817Y-66428642D01*
X179122991Y-66475118D01*
X178915107Y-66163998D01*
X178403492Y-65822147D01*
X177800000Y-65702105D01*
X177196508Y-65822147D01*
X176684893Y-66163998D01*
X176530000Y-66395811D01*
X176375107Y-66163998D01*
X175863492Y-65822147D01*
X175260000Y-65702105D01*
X174656508Y-65822147D01*
X174144893Y-66163998D01*
X173990000Y-66395811D01*
X173835107Y-66163998D01*
X173323492Y-65822147D01*
X172720000Y-65702105D01*
X172116508Y-65822147D01*
X171604893Y-66163998D01*
X171450000Y-66395811D01*
X171295107Y-66163998D01*
X170783492Y-65822147D01*
X170180000Y-65702105D01*
X169576508Y-65822147D01*
X169064893Y-66163998D01*
X168910000Y-66395811D01*
X168755107Y-66163998D01*
X168243492Y-65822147D01*
X167640000Y-65702105D01*
X167036508Y-65822147D01*
X166524893Y-66163998D01*
X166370000Y-66395811D01*
X166215107Y-66163998D01*
X165703492Y-65822147D01*
X165100000Y-65702105D01*
X164496508Y-65822147D01*
X163984893Y-66163998D01*
X163830000Y-66395811D01*
X163675107Y-66163998D01*
X163163492Y-65822147D01*
X162560000Y-65702105D01*
X161956508Y-65822147D01*
X161444893Y-66163998D01*
X161290000Y-66395811D01*
X161135107Y-66163998D01*
X160623492Y-65822147D01*
X160020000Y-65702105D01*
X159416508Y-65822147D01*
X158973807Y-66117951D01*
X158861328Y-65943154D01*
X158618385Y-65777157D01*
X158330000Y-65718758D01*
X156630000Y-65718758D01*
X156360590Y-65769451D01*
X156113154Y-65928672D01*
X155947157Y-66171615D01*
X155888758Y-66460000D01*
X155829000Y-66460000D01*
X155829000Y-65572000D01*
X181570000Y-65572000D01*
X181570000Y-66502780D01*
X181570000Y-66502780D01*
G37*
X181570000Y-66502780D02*
X181535183Y-66428642D01*
X181106924Y-66038355D01*
X180696890Y-65868524D01*
X180467000Y-65989845D01*
X180467000Y-67183000D01*
X180487000Y-67183000D01*
X180487000Y-67437000D01*
X180467000Y-67437000D01*
X180467000Y-68630155D01*
X180696890Y-68751476D01*
X181106924Y-68581645D01*
X181535183Y-68191358D01*
X181570000Y-68117220D01*
X181570000Y-83693000D01*
X155829000Y-83693000D01*
X155829000Y-66460000D01*
X155888758Y-66460000D01*
X155888758Y-68160000D01*
X155939451Y-68429410D01*
X156098672Y-68676846D01*
X156341615Y-68842843D01*
X156630000Y-68901242D01*
X157866332Y-68901242D01*
X161708000Y-72742910D01*
X161708000Y-78994000D01*
X161772855Y-79320046D01*
X161957545Y-79596455D01*
X162719545Y-80358455D01*
X162746758Y-80376638D01*
X162746758Y-80606000D01*
X162797451Y-80875410D01*
X162956672Y-81122846D01*
X163199615Y-81288843D01*
X163488000Y-81347242D01*
X165188000Y-81347242D01*
X165457410Y-81296549D01*
X165704846Y-81137328D01*
X165836420Y-80944764D01*
X165983535Y-81092136D01*
X166562939Y-81332725D01*
X167190308Y-81333273D01*
X167770132Y-81093695D01*
X168148270Y-80716216D01*
X168523535Y-81092136D01*
X169102939Y-81332725D01*
X169730308Y-81333273D01*
X170310132Y-81093695D01*
X170688270Y-80716216D01*
X171063535Y-81092136D01*
X171642939Y-81332725D01*
X172270308Y-81333273D01*
X172850132Y-81093695D01*
X173228270Y-80716216D01*
X173603535Y-81092136D01*
X174182939Y-81332725D01*
X174810308Y-81333273D01*
X175390132Y-81093695D01*
X175834136Y-80650465D01*
X176074725Y-80071061D01*
X176075273Y-79443692D01*
X175835695Y-78863868D01*
X175392465Y-78419864D01*
X175320782Y-78390099D01*
X175362353Y-78259958D01*
X174498000Y-77395605D01*
X174483858Y-77409748D01*
X174304253Y-77230143D01*
X174318395Y-77216000D01*
X174677605Y-77216000D01*
X175541958Y-78080353D01*
X175793259Y-78000080D01*
X175994718Y-77444721D01*
X175968315Y-76854542D01*
X175793259Y-76431920D01*
X175541958Y-76351647D01*
X174677605Y-77216000D01*
X174318395Y-77216000D01*
X174304253Y-77201858D01*
X174483858Y-77022253D01*
X174498000Y-77036395D01*
X175362353Y-76172042D01*
X175282080Y-75920741D01*
X174726721Y-75719282D01*
X174136542Y-75745685D01*
X174080000Y-75769105D01*
X174080000Y-72234910D01*
X177463875Y-68851035D01*
X177800000Y-68917895D01*
X178403492Y-68797853D01*
X178915107Y-68456002D01*
X179122991Y-68144882D01*
X179144817Y-68191358D01*
X179573076Y-68581645D01*
X179983110Y-68751476D01*
X180213000Y-68630155D01*
X180213000Y-67437000D01*
X180193000Y-67437000D01*
X180193000Y-67183000D01*
X180213000Y-67183000D01*
X180213000Y-65989845D01*
X179983110Y-65868524D01*
X179573076Y-66038355D01*
X179144817Y-66428642D01*
X179122991Y-66475118D01*
X178915107Y-66163998D01*
X178403492Y-65822147D01*
X177800000Y-65702105D01*
X177196508Y-65822147D01*
X176684893Y-66163998D01*
X176530000Y-66395811D01*
X176375107Y-66163998D01*
X175863492Y-65822147D01*
X175260000Y-65702105D01*
X174656508Y-65822147D01*
X174144893Y-66163998D01*
X173990000Y-66395811D01*
X173835107Y-66163998D01*
X173323492Y-65822147D01*
X172720000Y-65702105D01*
X172116508Y-65822147D01*
X171604893Y-66163998D01*
X171450000Y-66395811D01*
X171295107Y-66163998D01*
X170783492Y-65822147D01*
X170180000Y-65702105D01*
X169576508Y-65822147D01*
X169064893Y-66163998D01*
X168910000Y-66395811D01*
X168755107Y-66163998D01*
X168243492Y-65822147D01*
X167640000Y-65702105D01*
X167036508Y-65822147D01*
X166524893Y-66163998D01*
X166370000Y-66395811D01*
X166215107Y-66163998D01*
X165703492Y-65822147D01*
X165100000Y-65702105D01*
X164496508Y-65822147D01*
X163984893Y-66163998D01*
X163830000Y-66395811D01*
X163675107Y-66163998D01*
X163163492Y-65822147D01*
X162560000Y-65702105D01*
X161956508Y-65822147D01*
X161444893Y-66163998D01*
X161290000Y-66395811D01*
X161135107Y-66163998D01*
X160623492Y-65822147D01*
X160020000Y-65702105D01*
X159416508Y-65822147D01*
X158973807Y-66117951D01*
X158861328Y-65943154D01*
X158618385Y-65777157D01*
X158330000Y-65718758D01*
X156630000Y-65718758D01*
X156360590Y-65769451D01*
X156113154Y-65928672D01*
X155947157Y-66171615D01*
X155888758Y-66460000D01*
X155829000Y-66460000D01*
X155829000Y-65572000D01*
X181570000Y-65572000D01*
X181570000Y-66502780D01*
G36*
X148971000Y-83693000D02*
X97830000Y-83693000D01*
X97830000Y-68780245D01*
X97921615Y-68842843D01*
X98210000Y-68901242D01*
X98221375Y-68901242D01*
X98272855Y-69160046D01*
X98457545Y-69436455D01*
X109379545Y-80358455D01*
X109406758Y-80376638D01*
X109406758Y-80606000D01*
X109457451Y-80875410D01*
X109616672Y-81122846D01*
X109859615Y-81288843D01*
X110148000Y-81347242D01*
X111848000Y-81347242D01*
X112117410Y-81296549D01*
X112364846Y-81137328D01*
X112496420Y-80944764D01*
X112643535Y-81092136D01*
X113222939Y-81332725D01*
X113850308Y-81333273D01*
X114430132Y-81093695D01*
X114808270Y-80716216D01*
X115183535Y-81092136D01*
X115762939Y-81332725D01*
X116390308Y-81333273D01*
X116970132Y-81093695D01*
X117348270Y-80716216D01*
X117723535Y-81092136D01*
X118302939Y-81332725D01*
X118930308Y-81333273D01*
X119510132Y-81093695D01*
X119888270Y-80716216D01*
X120263535Y-81092136D01*
X120842939Y-81332725D01*
X121470308Y-81333273D01*
X122050132Y-81093695D01*
X122428270Y-80716216D01*
X122803535Y-81092136D01*
X123382939Y-81332725D01*
X124010308Y-81333273D01*
X124590132Y-81093695D01*
X124968270Y-80716216D01*
X125343535Y-81092136D01*
X125922939Y-81332725D01*
X126550308Y-81333273D01*
X127130132Y-81093695D01*
X127508270Y-80716216D01*
X127883535Y-81092136D01*
X128462939Y-81332725D01*
X129090308Y-81333273D01*
X129670132Y-81093695D01*
X130048270Y-80716216D01*
X130423535Y-81092136D01*
X131002939Y-81332725D01*
X131630308Y-81333273D01*
X132210132Y-81093695D01*
X132588270Y-80716216D01*
X132963535Y-81092136D01*
X133542939Y-81332725D01*
X134170308Y-81333273D01*
X134750132Y-81093695D01*
X135194136Y-80650465D01*
X135434725Y-80071061D01*
X135435273Y-79443692D01*
X135195695Y-78863868D01*
X134752465Y-78419864D01*
X134680782Y-78390099D01*
X134722353Y-78259958D01*
X133858000Y-77395605D01*
X133843858Y-77409748D01*
X133664253Y-77230143D01*
X133678395Y-77216000D01*
X133664253Y-77201858D01*
X133843858Y-77022253D01*
X133858000Y-77036395D01*
X133872143Y-77022253D01*
X134051748Y-77201858D01*
X134037605Y-77216000D01*
X134901958Y-78080353D01*
X135153259Y-78000080D01*
X135354718Y-77444721D01*
X135328315Y-76854542D01*
X135199684Y-76544000D01*
X136398000Y-76544000D01*
X136724046Y-76479145D01*
X137000455Y-76294455D01*
X144443875Y-68851035D01*
X144780000Y-68917895D01*
X145383492Y-68797853D01*
X145895107Y-68456002D01*
X146102991Y-68144882D01*
X146124817Y-68191358D01*
X146553076Y-68581645D01*
X146963110Y-68751476D01*
X147193000Y-68630155D01*
X147193000Y-67437000D01*
X147447000Y-67437000D01*
X147447000Y-68630155D01*
X147676890Y-68751476D01*
X148086924Y-68581645D01*
X148515183Y-68191358D01*
X148761486Y-67666892D01*
X148640819Y-67437000D01*
X147447000Y-67437000D01*
X147193000Y-67437000D01*
X147173000Y-67437000D01*
X147173000Y-67183000D01*
X147193000Y-67183000D01*
X147193000Y-65989845D01*
X147447000Y-65989845D01*
X147447000Y-67183000D01*
X148640819Y-67183000D01*
X148761486Y-66953108D01*
X148515183Y-66428642D01*
X148086924Y-66038355D01*
X147676890Y-65868524D01*
X147447000Y-65989845D01*
X147193000Y-65989845D01*
X146963110Y-65868524D01*
X146553076Y-66038355D01*
X146124817Y-66428642D01*
X146102991Y-66475118D01*
X145895107Y-66163998D01*
X145383492Y-65822147D01*
X144780000Y-65702105D01*
X144176508Y-65822147D01*
X143664893Y-66163998D01*
X143510000Y-66395811D01*
X143355107Y-66163998D01*
X142843492Y-65822147D01*
X142240000Y-65702105D01*
X141636508Y-65822147D01*
X141124893Y-66163998D01*
X140970000Y-66395811D01*
X140815107Y-66163998D01*
X140303492Y-65822147D01*
X139700000Y-65702105D01*
X139096508Y-65822147D01*
X138584893Y-66163998D01*
X138430000Y-66395811D01*
X138275107Y-66163998D01*
X137763492Y-65822147D01*
X137160000Y-65702105D01*
X136556508Y-65822147D01*
X136044893Y-66163998D01*
X135890000Y-66395811D01*
X135735107Y-66163998D01*
X135223492Y-65822147D01*
X134620000Y-65702105D01*
X134016508Y-65822147D01*
X133504893Y-66163998D01*
X133350000Y-66395811D01*
X133195107Y-66163998D01*
X132683492Y-65822147D01*
X132080000Y-65702105D01*
X131476508Y-65822147D01*
X130964893Y-66163998D01*
X130810000Y-66395811D01*
X130655107Y-66163998D01*
X130143492Y-65822147D01*
X129540000Y-65702105D01*
X128936508Y-65822147D01*
X128424893Y-66163998D01*
X128270000Y-66395811D01*
X128115107Y-66163998D01*
X127603492Y-65822147D01*
X127000000Y-65702105D01*
X126396508Y-65822147D01*
X125884893Y-66163998D01*
X125730000Y-66395811D01*
X125575107Y-66163998D01*
X125063492Y-65822147D01*
X124460000Y-65702105D01*
X123856508Y-65822147D01*
X123344893Y-66163998D01*
X123190000Y-66395811D01*
X123035107Y-66163998D01*
X122523492Y-65822147D01*
X121920000Y-65702105D01*
X121316508Y-65822147D01*
X120804893Y-66163998D01*
X120650000Y-66395811D01*
X120495107Y-66163998D01*
X119983492Y-65822147D01*
X119380000Y-65702105D01*
X118776508Y-65822147D01*
X118264893Y-66163998D01*
X118110000Y-66395811D01*
X117955107Y-66163998D01*
X117443492Y-65822147D01*
X116840000Y-65702105D01*
X116236508Y-65822147D01*
X115724893Y-66163998D01*
X115570000Y-66395811D01*
X115415107Y-66163998D01*
X114903492Y-65822147D01*
X114300000Y-65702105D01*
X113696508Y-65822147D01*
X113184893Y-66163998D01*
X113030000Y-66395811D01*
X112875107Y-66163998D01*
X112363492Y-65822147D01*
X111760000Y-65702105D01*
X111156508Y-65822147D01*
X110644893Y-66163998D01*
X110490000Y-66395811D01*
X110335107Y-66163998D01*
X109823492Y-65822147D01*
X109220000Y-65702105D01*
X108616508Y-65822147D01*
X108104893Y-66163998D01*
X107950000Y-66395811D01*
X107795107Y-66163998D01*
X107283492Y-65822147D01*
X106680000Y-65702105D01*
X106076508Y-65822147D01*
X105564893Y-66163998D01*
X105410000Y-66395811D01*
X105255107Y-66163998D01*
X104743492Y-65822147D01*
X104140000Y-65702105D01*
X103536508Y-65822147D01*
X103024893Y-66163998D01*
X102870000Y-66395811D01*
X102715107Y-66163998D01*
X102203492Y-65822147D01*
X101600000Y-65702105D01*
X100996508Y-65822147D01*
X100553807Y-66117951D01*
X100441328Y-65943154D01*
X100198385Y-65777157D01*
X99910000Y-65718758D01*
X98210000Y-65718758D01*
X97940590Y-65769451D01*
X97830000Y-65840614D01*
X97830000Y-65659000D01*
X148971000Y-65659000D01*
X148971000Y-83693000D01*
X148971000Y-83693000D01*
G37*
X148971000Y-83693000D02*
X97830000Y-83693000D01*
X97830000Y-68780245D01*
X97921615Y-68842843D01*
X98210000Y-68901242D01*
X98221375Y-68901242D01*
X98272855Y-69160046D01*
X98457545Y-69436455D01*
X109379545Y-80358455D01*
X109406758Y-80376638D01*
X109406758Y-80606000D01*
X109457451Y-80875410D01*
X109616672Y-81122846D01*
X109859615Y-81288843D01*
X110148000Y-81347242D01*
X111848000Y-81347242D01*
X112117410Y-81296549D01*
X112364846Y-81137328D01*
X112496420Y-80944764D01*
X112643535Y-81092136D01*
X113222939Y-81332725D01*
X113850308Y-81333273D01*
X114430132Y-81093695D01*
X114808270Y-80716216D01*
X115183535Y-81092136D01*
X115762939Y-81332725D01*
X116390308Y-81333273D01*
X116970132Y-81093695D01*
X117348270Y-80716216D01*
X117723535Y-81092136D01*
X118302939Y-81332725D01*
X118930308Y-81333273D01*
X119510132Y-81093695D01*
X119888270Y-80716216D01*
X120263535Y-81092136D01*
X120842939Y-81332725D01*
X121470308Y-81333273D01*
X122050132Y-81093695D01*
X122428270Y-80716216D01*
X122803535Y-81092136D01*
X123382939Y-81332725D01*
X124010308Y-81333273D01*
X124590132Y-81093695D01*
X124968270Y-80716216D01*
X125343535Y-81092136D01*
X125922939Y-81332725D01*
X126550308Y-81333273D01*
X127130132Y-81093695D01*
X127508270Y-80716216D01*
X127883535Y-81092136D01*
X128462939Y-81332725D01*
X129090308Y-81333273D01*
X129670132Y-81093695D01*
X130048270Y-80716216D01*
X130423535Y-81092136D01*
X131002939Y-81332725D01*
X131630308Y-81333273D01*
X132210132Y-81093695D01*
X132588270Y-80716216D01*
X132963535Y-81092136D01*
X133542939Y-81332725D01*
X134170308Y-81333273D01*
X134750132Y-81093695D01*
X135194136Y-80650465D01*
X135434725Y-80071061D01*
X135435273Y-79443692D01*
X135195695Y-78863868D01*
X134752465Y-78419864D01*
X134680782Y-78390099D01*
X134722353Y-78259958D01*
X133858000Y-77395605D01*
X133843858Y-77409748D01*
X133664253Y-77230143D01*
X133678395Y-77216000D01*
X133664253Y-77201858D01*
X133843858Y-77022253D01*
X133858000Y-77036395D01*
X133872143Y-77022253D01*
X134051748Y-77201858D01*
X134037605Y-77216000D01*
X134901958Y-78080353D01*
X135153259Y-78000080D01*
X135354718Y-77444721D01*
X135328315Y-76854542D01*
X135199684Y-76544000D01*
X136398000Y-76544000D01*
X136724046Y-76479145D01*
X137000455Y-76294455D01*
X144443875Y-68851035D01*
X144780000Y-68917895D01*
X145383492Y-68797853D01*
X145895107Y-68456002D01*
X146102991Y-68144882D01*
X146124817Y-68191358D01*
X146553076Y-68581645D01*
X146963110Y-68751476D01*
X147193000Y-68630155D01*
X147193000Y-67437000D01*
X147447000Y-67437000D01*
X147447000Y-68630155D01*
X147676890Y-68751476D01*
X148086924Y-68581645D01*
X148515183Y-68191358D01*
X148761486Y-67666892D01*
X148640819Y-67437000D01*
X147447000Y-67437000D01*
X147193000Y-67437000D01*
X147173000Y-67437000D01*
X147173000Y-67183000D01*
X147193000Y-67183000D01*
X147193000Y-65989845D01*
X147447000Y-65989845D01*
X147447000Y-67183000D01*
X148640819Y-67183000D01*
X148761486Y-66953108D01*
X148515183Y-66428642D01*
X148086924Y-66038355D01*
X147676890Y-65868524D01*
X147447000Y-65989845D01*
X147193000Y-65989845D01*
X146963110Y-65868524D01*
X146553076Y-66038355D01*
X146124817Y-66428642D01*
X146102991Y-66475118D01*
X145895107Y-66163998D01*
X145383492Y-65822147D01*
X144780000Y-65702105D01*
X144176508Y-65822147D01*
X143664893Y-66163998D01*
X143510000Y-66395811D01*
X143355107Y-66163998D01*
X142843492Y-65822147D01*
X142240000Y-65702105D01*
X141636508Y-65822147D01*
X141124893Y-66163998D01*
X140970000Y-66395811D01*
X140815107Y-66163998D01*
X140303492Y-65822147D01*
X139700000Y-65702105D01*
X139096508Y-65822147D01*
X138584893Y-66163998D01*
X138430000Y-66395811D01*
X138275107Y-66163998D01*
X137763492Y-65822147D01*
X137160000Y-65702105D01*
X136556508Y-65822147D01*
X136044893Y-66163998D01*
X135890000Y-66395811D01*
X135735107Y-66163998D01*
X135223492Y-65822147D01*
X134620000Y-65702105D01*
X134016508Y-65822147D01*
X133504893Y-66163998D01*
X133350000Y-66395811D01*
X133195107Y-66163998D01*
X132683492Y-65822147D01*
X132080000Y-65702105D01*
X131476508Y-65822147D01*
X130964893Y-66163998D01*
X130810000Y-66395811D01*
X130655107Y-66163998D01*
X130143492Y-65822147D01*
X129540000Y-65702105D01*
X128936508Y-65822147D01*
X128424893Y-66163998D01*
X128270000Y-66395811D01*
X128115107Y-66163998D01*
X127603492Y-65822147D01*
X127000000Y-65702105D01*
X126396508Y-65822147D01*
X125884893Y-66163998D01*
X125730000Y-66395811D01*
X125575107Y-66163998D01*
X125063492Y-65822147D01*
X124460000Y-65702105D01*
X123856508Y-65822147D01*
X123344893Y-66163998D01*
X123190000Y-66395811D01*
X123035107Y-66163998D01*
X122523492Y-65822147D01*
X121920000Y-65702105D01*
X121316508Y-65822147D01*
X120804893Y-66163998D01*
X120650000Y-66395811D01*
X120495107Y-66163998D01*
X119983492Y-65822147D01*
X119380000Y-65702105D01*
X118776508Y-65822147D01*
X118264893Y-66163998D01*
X118110000Y-66395811D01*
X117955107Y-66163998D01*
X117443492Y-65822147D01*
X116840000Y-65702105D01*
X116236508Y-65822147D01*
X115724893Y-66163998D01*
X115570000Y-66395811D01*
X115415107Y-66163998D01*
X114903492Y-65822147D01*
X114300000Y-65702105D01*
X113696508Y-65822147D01*
X113184893Y-66163998D01*
X113030000Y-66395811D01*
X112875107Y-66163998D01*
X112363492Y-65822147D01*
X111760000Y-65702105D01*
X111156508Y-65822147D01*
X110644893Y-66163998D01*
X110490000Y-66395811D01*
X110335107Y-66163998D01*
X109823492Y-65822147D01*
X109220000Y-65702105D01*
X108616508Y-65822147D01*
X108104893Y-66163998D01*
X107950000Y-66395811D01*
X107795107Y-66163998D01*
X107283492Y-65822147D01*
X106680000Y-65702105D01*
X106076508Y-65822147D01*
X105564893Y-66163998D01*
X105410000Y-66395811D01*
X105255107Y-66163998D01*
X104743492Y-65822147D01*
X104140000Y-65702105D01*
X103536508Y-65822147D01*
X103024893Y-66163998D01*
X102870000Y-66395811D01*
X102715107Y-66163998D01*
X102203492Y-65822147D01*
X101600000Y-65702105D01*
X100996508Y-65822147D01*
X100553807Y-66117951D01*
X100441328Y-65943154D01*
X100198385Y-65777157D01*
X99910000Y-65718758D01*
X98210000Y-65718758D01*
X97940590Y-65769451D01*
X97830000Y-65840614D01*
X97830000Y-65659000D01*
X148971000Y-65659000D01*
X148971000Y-83693000D01*
G36*
X138898000Y-62103000D02*
X97830000Y-62103000D01*
X97830000Y-47190245D01*
X97921615Y-47252843D01*
X98210000Y-47311242D01*
X99446332Y-47311242D01*
X106590000Y-54454910D01*
X106590000Y-56134000D01*
X106654855Y-56460046D01*
X106839545Y-56736455D01*
X107882758Y-57779668D01*
X107882758Y-59016000D01*
X107933451Y-59285410D01*
X108092672Y-59532846D01*
X108335615Y-59698843D01*
X108624000Y-59757242D01*
X110324000Y-59757242D01*
X110593410Y-59706549D01*
X110840846Y-59547328D01*
X110972420Y-59354764D01*
X111119535Y-59502136D01*
X111698939Y-59742725D01*
X112326308Y-59743273D01*
X112906132Y-59503695D01*
X113284270Y-59126216D01*
X113659535Y-59502136D01*
X114238939Y-59742725D01*
X114866308Y-59743273D01*
X115446132Y-59503695D01*
X115824270Y-59126216D01*
X116199535Y-59502136D01*
X116778939Y-59742725D01*
X117406308Y-59743273D01*
X117986132Y-59503695D01*
X118364270Y-59126216D01*
X118739535Y-59502136D01*
X119318939Y-59742725D01*
X119946308Y-59743273D01*
X120526132Y-59503695D01*
X120904270Y-59126216D01*
X121279535Y-59502136D01*
X121858939Y-59742725D01*
X122486308Y-59743273D01*
X123066132Y-59503695D01*
X123444270Y-59126216D01*
X123819535Y-59502136D01*
X124398939Y-59742725D01*
X125026308Y-59743273D01*
X125606132Y-59503695D01*
X125984270Y-59126216D01*
X126359535Y-59502136D01*
X126938939Y-59742725D01*
X127566308Y-59743273D01*
X128146132Y-59503695D01*
X128590136Y-59060465D01*
X128830725Y-58481061D01*
X128831273Y-57853692D01*
X128591695Y-57273868D01*
X128148465Y-56829864D01*
X128076782Y-56800099D01*
X128118353Y-56669958D01*
X127254000Y-55805605D01*
X127239858Y-55819748D01*
X127060253Y-55640143D01*
X127074395Y-55626000D01*
X127433605Y-55626000D01*
X128297958Y-56490353D01*
X128549259Y-56410080D01*
X128750718Y-55854721D01*
X128724315Y-55264542D01*
X128549259Y-54841920D01*
X128297958Y-54761647D01*
X127433605Y-55626000D01*
X127074395Y-55626000D01*
X127060253Y-55611858D01*
X127239858Y-55432253D01*
X127254000Y-55446395D01*
X128118353Y-54582042D01*
X128038080Y-54330741D01*
X127482721Y-54129282D01*
X127412486Y-54132424D01*
X134283875Y-47261035D01*
X134620000Y-47327895D01*
X135223492Y-47207853D01*
X135735107Y-46866002D01*
X135942991Y-46554882D01*
X135964817Y-46601358D01*
X136393076Y-46991645D01*
X136803110Y-47161476D01*
X137033000Y-47040155D01*
X137033000Y-45847000D01*
X137287000Y-45847000D01*
X137287000Y-47040155D01*
X137516890Y-47161476D01*
X137926924Y-46991645D01*
X138355183Y-46601358D01*
X138601486Y-46076892D01*
X138480819Y-45847000D01*
X137287000Y-45847000D01*
X137033000Y-45847000D01*
X137013000Y-45847000D01*
X137013000Y-45593000D01*
X137033000Y-45593000D01*
X137033000Y-44399845D01*
X137287000Y-44399845D01*
X137287000Y-45593000D01*
X138480819Y-45593000D01*
X138601486Y-45363108D01*
X138355183Y-44838642D01*
X137926924Y-44448355D01*
X137516890Y-44278524D01*
X137287000Y-44399845D01*
X137033000Y-44399845D01*
X136803110Y-44278524D01*
X136393076Y-44448355D01*
X135964817Y-44838642D01*
X135942991Y-44885118D01*
X135735107Y-44573998D01*
X135223492Y-44232147D01*
X134620000Y-44112105D01*
X134016508Y-44232147D01*
X133504893Y-44573998D01*
X133350000Y-44805811D01*
X133195107Y-44573998D01*
X132683492Y-44232147D01*
X132080000Y-44112105D01*
X131476508Y-44232147D01*
X130964893Y-44573998D01*
X130810000Y-44805811D01*
X130655107Y-44573998D01*
X130143492Y-44232147D01*
X129540000Y-44112105D01*
X128936508Y-44232147D01*
X128424893Y-44573998D01*
X128270000Y-44805811D01*
X128115107Y-44573998D01*
X127603492Y-44232147D01*
X127000000Y-44112105D01*
X126396508Y-44232147D01*
X125884893Y-44573998D01*
X125730000Y-44805811D01*
X125575107Y-44573998D01*
X125063492Y-44232147D01*
X124460000Y-44112105D01*
X123856508Y-44232147D01*
X123344893Y-44573998D01*
X123190000Y-44805811D01*
X123035107Y-44573998D01*
X122523492Y-44232147D01*
X121920000Y-44112105D01*
X121316508Y-44232147D01*
X120804893Y-44573998D01*
X120650000Y-44805811D01*
X120495107Y-44573998D01*
X119983492Y-44232147D01*
X119380000Y-44112105D01*
X118776508Y-44232147D01*
X118264893Y-44573998D01*
X118110000Y-44805811D01*
X117955107Y-44573998D01*
X117443492Y-44232147D01*
X116840000Y-44112105D01*
X116236508Y-44232147D01*
X115724893Y-44573998D01*
X115570000Y-44805811D01*
X115415107Y-44573998D01*
X114903492Y-44232147D01*
X114300000Y-44112105D01*
X113696508Y-44232147D01*
X113184893Y-44573998D01*
X113030000Y-44805811D01*
X112875107Y-44573998D01*
X112363492Y-44232147D01*
X111760000Y-44112105D01*
X111156508Y-44232147D01*
X110644893Y-44573998D01*
X110490000Y-44805811D01*
X110335107Y-44573998D01*
X109823492Y-44232147D01*
X109220000Y-44112105D01*
X108616508Y-44232147D01*
X108104893Y-44573998D01*
X107950000Y-44805811D01*
X107795107Y-44573998D01*
X107283492Y-44232147D01*
X106680000Y-44112105D01*
X106076508Y-44232147D01*
X105564893Y-44573998D01*
X105410000Y-44805811D01*
X105255107Y-44573998D01*
X104743492Y-44232147D01*
X104140000Y-44112105D01*
X103536508Y-44232147D01*
X103024893Y-44573998D01*
X102870000Y-44805811D01*
X102715107Y-44573998D01*
X102203492Y-44232147D01*
X101600000Y-44112105D01*
X100996508Y-44232147D01*
X100553807Y-44527951D01*
X100441328Y-44353154D01*
X100198385Y-44187157D01*
X99910000Y-44128758D01*
X98210000Y-44128758D01*
X97940590Y-44179451D01*
X97830000Y-44250614D01*
X97830000Y-43982000D01*
X138898000Y-43982000D01*
X138898000Y-62103000D01*
X138898000Y-62103000D01*
G37*
X138898000Y-62103000D02*
X97830000Y-62103000D01*
X97830000Y-47190245D01*
X97921615Y-47252843D01*
X98210000Y-47311242D01*
X99446332Y-47311242D01*
X106590000Y-54454910D01*
X106590000Y-56134000D01*
X106654855Y-56460046D01*
X106839545Y-56736455D01*
X107882758Y-57779668D01*
X107882758Y-59016000D01*
X107933451Y-59285410D01*
X108092672Y-59532846D01*
X108335615Y-59698843D01*
X108624000Y-59757242D01*
X110324000Y-59757242D01*
X110593410Y-59706549D01*
X110840846Y-59547328D01*
X110972420Y-59354764D01*
X111119535Y-59502136D01*
X111698939Y-59742725D01*
X112326308Y-59743273D01*
X112906132Y-59503695D01*
X113284270Y-59126216D01*
X113659535Y-59502136D01*
X114238939Y-59742725D01*
X114866308Y-59743273D01*
X115446132Y-59503695D01*
X115824270Y-59126216D01*
X116199535Y-59502136D01*
X116778939Y-59742725D01*
X117406308Y-59743273D01*
X117986132Y-59503695D01*
X118364270Y-59126216D01*
X118739535Y-59502136D01*
X119318939Y-59742725D01*
X119946308Y-59743273D01*
X120526132Y-59503695D01*
X120904270Y-59126216D01*
X121279535Y-59502136D01*
X121858939Y-59742725D01*
X122486308Y-59743273D01*
X123066132Y-59503695D01*
X123444270Y-59126216D01*
X123819535Y-59502136D01*
X124398939Y-59742725D01*
X125026308Y-59743273D01*
X125606132Y-59503695D01*
X125984270Y-59126216D01*
X126359535Y-59502136D01*
X126938939Y-59742725D01*
X127566308Y-59743273D01*
X128146132Y-59503695D01*
X128590136Y-59060465D01*
X128830725Y-58481061D01*
X128831273Y-57853692D01*
X128591695Y-57273868D01*
X128148465Y-56829864D01*
X128076782Y-56800099D01*
X128118353Y-56669958D01*
X127254000Y-55805605D01*
X127239858Y-55819748D01*
X127060253Y-55640143D01*
X127074395Y-55626000D01*
X127433605Y-55626000D01*
X128297958Y-56490353D01*
X128549259Y-56410080D01*
X128750718Y-55854721D01*
X128724315Y-55264542D01*
X128549259Y-54841920D01*
X128297958Y-54761647D01*
X127433605Y-55626000D01*
X127074395Y-55626000D01*
X127060253Y-55611858D01*
X127239858Y-55432253D01*
X127254000Y-55446395D01*
X128118353Y-54582042D01*
X128038080Y-54330741D01*
X127482721Y-54129282D01*
X127412486Y-54132424D01*
X134283875Y-47261035D01*
X134620000Y-47327895D01*
X135223492Y-47207853D01*
X135735107Y-46866002D01*
X135942991Y-46554882D01*
X135964817Y-46601358D01*
X136393076Y-46991645D01*
X136803110Y-47161476D01*
X137033000Y-47040155D01*
X137033000Y-45847000D01*
X137287000Y-45847000D01*
X137287000Y-47040155D01*
X137516890Y-47161476D01*
X137926924Y-46991645D01*
X138355183Y-46601358D01*
X138601486Y-46076892D01*
X138480819Y-45847000D01*
X137287000Y-45847000D01*
X137033000Y-45847000D01*
X137013000Y-45847000D01*
X137013000Y-45593000D01*
X137033000Y-45593000D01*
X137033000Y-44399845D01*
X137287000Y-44399845D01*
X137287000Y-45593000D01*
X138480819Y-45593000D01*
X138601486Y-45363108D01*
X138355183Y-44838642D01*
X137926924Y-44448355D01*
X137516890Y-44278524D01*
X137287000Y-44399845D01*
X137033000Y-44399845D01*
X136803110Y-44278524D01*
X136393076Y-44448355D01*
X135964817Y-44838642D01*
X135942991Y-44885118D01*
X135735107Y-44573998D01*
X135223492Y-44232147D01*
X134620000Y-44112105D01*
X134016508Y-44232147D01*
X133504893Y-44573998D01*
X133350000Y-44805811D01*
X133195107Y-44573998D01*
X132683492Y-44232147D01*
X132080000Y-44112105D01*
X131476508Y-44232147D01*
X130964893Y-44573998D01*
X130810000Y-44805811D01*
X130655107Y-44573998D01*
X130143492Y-44232147D01*
X129540000Y-44112105D01*
X128936508Y-44232147D01*
X128424893Y-44573998D01*
X128270000Y-44805811D01*
X128115107Y-44573998D01*
X127603492Y-44232147D01*
X127000000Y-44112105D01*
X126396508Y-44232147D01*
X125884893Y-44573998D01*
X125730000Y-44805811D01*
X125575107Y-44573998D01*
X125063492Y-44232147D01*
X124460000Y-44112105D01*
X123856508Y-44232147D01*
X123344893Y-44573998D01*
X123190000Y-44805811D01*
X123035107Y-44573998D01*
X122523492Y-44232147D01*
X121920000Y-44112105D01*
X121316508Y-44232147D01*
X120804893Y-44573998D01*
X120650000Y-44805811D01*
X120495107Y-44573998D01*
X119983492Y-44232147D01*
X119380000Y-44112105D01*
X118776508Y-44232147D01*
X118264893Y-44573998D01*
X118110000Y-44805811D01*
X117955107Y-44573998D01*
X117443492Y-44232147D01*
X116840000Y-44112105D01*
X116236508Y-44232147D01*
X115724893Y-44573998D01*
X115570000Y-44805811D01*
X115415107Y-44573998D01*
X114903492Y-44232147D01*
X114300000Y-44112105D01*
X113696508Y-44232147D01*
X113184893Y-44573998D01*
X113030000Y-44805811D01*
X112875107Y-44573998D01*
X112363492Y-44232147D01*
X111760000Y-44112105D01*
X111156508Y-44232147D01*
X110644893Y-44573998D01*
X110490000Y-44805811D01*
X110335107Y-44573998D01*
X109823492Y-44232147D01*
X109220000Y-44112105D01*
X108616508Y-44232147D01*
X108104893Y-44573998D01*
X107950000Y-44805811D01*
X107795107Y-44573998D01*
X107283492Y-44232147D01*
X106680000Y-44112105D01*
X106076508Y-44232147D01*
X105564893Y-44573998D01*
X105410000Y-44805811D01*
X105255107Y-44573998D01*
X104743492Y-44232147D01*
X104140000Y-44112105D01*
X103536508Y-44232147D01*
X103024893Y-44573998D01*
X102870000Y-44805811D01*
X102715107Y-44573998D01*
X102203492Y-44232147D01*
X101600000Y-44112105D01*
X100996508Y-44232147D01*
X100553807Y-44527951D01*
X100441328Y-44353154D01*
X100198385Y-44187157D01*
X99910000Y-44128758D01*
X98210000Y-44128758D01*
X97940590Y-44179451D01*
X97830000Y-44250614D01*
X97830000Y-43982000D01*
X138898000Y-43982000D01*
X138898000Y-62103000D01*
G36*
X181570000Y-130008000D02*
X167640000Y-130008000D01*
X167597000Y-130016553D01*
X167597000Y-113538240D01*
X179429620Y-101705620D01*
X179695601Y-101307552D01*
X179789000Y-100838000D01*
X179789000Y-92202000D01*
X179767490Y-92093860D01*
X179695601Y-91732448D01*
X179429620Y-91334380D01*
X177651620Y-89556380D01*
X177646328Y-89552844D01*
X177253553Y-89290400D01*
X176784000Y-89197000D01*
X122174000Y-89197000D01*
X121704447Y-89290400D01*
X121306380Y-89556380D01*
X121040400Y-89954447D01*
X120947000Y-90424000D01*
X121040400Y-90893553D01*
X121306380Y-91291620D01*
X121704447Y-91557600D01*
X122174000Y-91651000D01*
X176275760Y-91651000D01*
X177335000Y-92710240D01*
X177335000Y-95902190D01*
X177012721Y-95785282D01*
X176422542Y-95811685D01*
X175999920Y-95986741D01*
X175919647Y-96238042D01*
X176784000Y-97102395D01*
X176798143Y-97088253D01*
X176977748Y-97267858D01*
X176963605Y-97282000D01*
X176977748Y-97296143D01*
X176798143Y-97475748D01*
X176784000Y-97461605D01*
X175919647Y-98325958D01*
X175961091Y-98455703D01*
X175891868Y-98484305D01*
X175513730Y-98861784D01*
X175204216Y-98551730D01*
X175580136Y-98176465D01*
X175609901Y-98104782D01*
X175740042Y-98146353D01*
X176604395Y-97282000D01*
X175740042Y-96417647D01*
X175610297Y-96459091D01*
X175581695Y-96389868D01*
X175138465Y-95945864D01*
X174559061Y-95705275D01*
X173931692Y-95704727D01*
X173351868Y-95944305D01*
X172973730Y-96321784D01*
X172598465Y-95945864D01*
X172019061Y-95705275D01*
X171391692Y-95704727D01*
X170811868Y-95944305D01*
X170433730Y-96321784D01*
X170058465Y-95945864D01*
X169479061Y-95705275D01*
X168851692Y-95704727D01*
X168271868Y-95944305D01*
X167893730Y-96321784D01*
X167518465Y-95945864D01*
X166939061Y-95705275D01*
X166311692Y-95704727D01*
X165731868Y-95944305D01*
X165287864Y-96387535D01*
X165047275Y-96966939D01*
X165046727Y-97594308D01*
X165286305Y-98174132D01*
X165436911Y-98325001D01*
X165257154Y-98440672D01*
X165091157Y-98683615D01*
X165032758Y-98972000D01*
X165032758Y-100208332D01*
X163731090Y-101510000D01*
X154686000Y-101510000D01*
X154359954Y-101574855D01*
X154083545Y-101759545D01*
X147396246Y-108446844D01*
X147370613Y-108446822D01*
X146993011Y-108602844D01*
X146703860Y-108891492D01*
X146547179Y-109268821D01*
X146546822Y-109677387D01*
X146702844Y-110054989D01*
X146883602Y-110236062D01*
X146703860Y-110415492D01*
X146547179Y-110792821D01*
X146546822Y-111201387D01*
X146702844Y-111578989D01*
X146991492Y-111868140D01*
X147368821Y-112024821D01*
X147777387Y-112025178D01*
X148154989Y-111869156D01*
X148444140Y-111580508D01*
X148600821Y-111203179D01*
X148600845Y-111176065D01*
X150861523Y-108915387D01*
X163056822Y-108915387D01*
X163212844Y-109292989D01*
X163232000Y-109312178D01*
X163232000Y-113191384D01*
X163213860Y-113209492D01*
X163057179Y-113586821D01*
X163056822Y-113995387D01*
X163212844Y-114372989D01*
X163501492Y-114662140D01*
X163878821Y-114818821D01*
X164287387Y-114819178D01*
X164664989Y-114663156D01*
X164954140Y-114374508D01*
X165110821Y-113997179D01*
X165111178Y-113588613D01*
X164955156Y-113211011D01*
X164936000Y-113191822D01*
X164936000Y-109312616D01*
X164954140Y-109294508D01*
X165110821Y-108917179D01*
X165111178Y-108508613D01*
X164955156Y-108131011D01*
X164666508Y-107841860D01*
X164289179Y-107685179D01*
X163880613Y-107684822D01*
X163503011Y-107840844D01*
X163213860Y-108129492D01*
X163057179Y-108506821D01*
X163056822Y-108915387D01*
X150861523Y-108915387D01*
X155800910Y-103976000D01*
X165862000Y-103976000D01*
X166188046Y-103911145D01*
X166464455Y-103726455D01*
X168808837Y-101382073D01*
X168848939Y-101398725D01*
X169476308Y-101399273D01*
X170056132Y-101159695D01*
X170434270Y-100782216D01*
X170809535Y-101158136D01*
X171388939Y-101398725D01*
X172016308Y-101399273D01*
X172596132Y-101159695D01*
X172974270Y-100782216D01*
X173349535Y-101158136D01*
X173928939Y-101398725D01*
X174556308Y-101399273D01*
X175136132Y-101159695D01*
X175514270Y-100782216D01*
X175889535Y-101158136D01*
X176325568Y-101339192D01*
X171127349Y-106537411D01*
X171051156Y-106353011D01*
X170762508Y-106063860D01*
X170385179Y-105907179D01*
X170358065Y-105907155D01*
X168921156Y-104470246D01*
X168921178Y-104444613D01*
X168765156Y-104067011D01*
X168476508Y-103777860D01*
X168099179Y-103621179D01*
X167690613Y-103620822D01*
X167313011Y-103776844D01*
X167023860Y-104065492D01*
X166867179Y-104442821D01*
X166866822Y-104851387D01*
X167022844Y-105228989D01*
X167311492Y-105518140D01*
X167688821Y-105674821D01*
X167715935Y-105674845D01*
X169152844Y-107111754D01*
X169152822Y-107137387D01*
X169308844Y-107514989D01*
X169597492Y-107804140D01*
X169783417Y-107881343D01*
X165502380Y-112162380D01*
X165236400Y-112560447D01*
X165143000Y-113030000D01*
X165143000Y-130683000D01*
X163129910Y-130683000D01*
X162908455Y-130461545D01*
X162632046Y-130276855D01*
X162306000Y-130212000D01*
X160626910Y-130212000D01*
X149700455Y-119285545D01*
X149424046Y-119100855D01*
X149098000Y-119036000D01*
X147675706Y-119036000D01*
X145602135Y-116962429D01*
X145650140Y-116914508D01*
X145806821Y-116537179D01*
X145807178Y-116128613D01*
X145651156Y-115751011D01*
X145632000Y-115731822D01*
X145632000Y-113741387D01*
X156706822Y-113741387D01*
X156862844Y-114118989D01*
X156882000Y-114138178D01*
X156882000Y-118779384D01*
X156863860Y-118797492D01*
X156707179Y-119174821D01*
X156706822Y-119583387D01*
X156862844Y-119960989D01*
X157151492Y-120250140D01*
X157528821Y-120406821D01*
X157937387Y-120407178D01*
X158314989Y-120251156D01*
X158604140Y-119962508D01*
X158760821Y-119585179D01*
X158760991Y-119391010D01*
X158953387Y-119391178D01*
X159330989Y-119235156D01*
X159620140Y-118946508D01*
X159776821Y-118569179D01*
X159777178Y-118160613D01*
X159621156Y-117783011D01*
X159602000Y-117763822D01*
X159602000Y-114646616D01*
X159620140Y-114628508D01*
X159776821Y-114251179D01*
X159777178Y-113842613D01*
X159621156Y-113465011D01*
X159332508Y-113175860D01*
X158955179Y-113019179D01*
X158630726Y-113018895D01*
X158605156Y-112957011D01*
X158316508Y-112667860D01*
X157939179Y-112511179D01*
X157530613Y-112510822D01*
X157153011Y-112666844D01*
X156863860Y-112955492D01*
X156707179Y-113332821D01*
X156706822Y-113741387D01*
X145632000Y-113741387D01*
X145632000Y-102792450D01*
X145844821Y-102880821D01*
X146253387Y-102881178D01*
X146630989Y-102725156D01*
X146920140Y-102436508D01*
X147076821Y-102059179D01*
X147077178Y-101650613D01*
X146966506Y-101382766D01*
X147004939Y-101398725D01*
X147632308Y-101399273D01*
X148212132Y-101159695D01*
X148590270Y-100782216D01*
X148965535Y-101158136D01*
X149544939Y-101398725D01*
X150172308Y-101399273D01*
X150752132Y-101159695D01*
X151130270Y-100782216D01*
X151505535Y-101158136D01*
X152084939Y-101398725D01*
X152712308Y-101399273D01*
X153292132Y-101159695D01*
X153670270Y-100782216D01*
X154045535Y-101158136D01*
X154624939Y-101398725D01*
X155252308Y-101399273D01*
X155832132Y-101159695D01*
X156276136Y-100716465D01*
X156516725Y-100137061D01*
X156516862Y-99980378D01*
X157585620Y-98911620D01*
X157851601Y-98513552D01*
X157945000Y-98044000D01*
X157945000Y-92964000D01*
X157851600Y-92494447D01*
X157585620Y-92096380D01*
X157187553Y-91830400D01*
X156718000Y-91737000D01*
X156248447Y-91830400D01*
X155850380Y-92096380D01*
X155584400Y-92494447D01*
X155491000Y-92964000D01*
X155491000Y-95902190D01*
X155168721Y-95785282D01*
X154578542Y-95811685D01*
X154155920Y-95986741D01*
X154075647Y-96238042D01*
X154940000Y-97102395D01*
X154954143Y-97088253D01*
X155133748Y-97267858D01*
X155119605Y-97282000D01*
X155133748Y-97296143D01*
X154954143Y-97475748D01*
X154940000Y-97461605D01*
X154075647Y-98325958D01*
X154117091Y-98455703D01*
X154047868Y-98484305D01*
X153669730Y-98861784D01*
X153360216Y-98551730D01*
X153736136Y-98176465D01*
X153765901Y-98104782D01*
X153896042Y-98146353D01*
X154760395Y-97282000D01*
X153896042Y-96417647D01*
X153766297Y-96459091D01*
X153737695Y-96389868D01*
X153294465Y-95945864D01*
X152715061Y-95705275D01*
X152558378Y-95705138D01*
X150727620Y-93874380D01*
X150668917Y-93835156D01*
X150329553Y-93608400D01*
X149860000Y-93515000D01*
X130810000Y-93515000D01*
X130340447Y-93608400D01*
X130001083Y-93835156D01*
X129942380Y-93874380D01*
X128418380Y-95398380D01*
X128152400Y-95796447D01*
X128059000Y-96266000D01*
X128059000Y-96520000D01*
X128152400Y-96989553D01*
X128418380Y-97387620D01*
X128609660Y-97515430D01*
X122250246Y-103874844D01*
X122224613Y-103874822D01*
X121847011Y-104030844D01*
X121670627Y-104206921D01*
X120740000Y-103276294D01*
X120740000Y-101946616D01*
X120758140Y-101928508D01*
X120914821Y-101551179D01*
X120915028Y-101313858D01*
X121288132Y-101159695D01*
X121732136Y-100716465D01*
X121972725Y-100137061D01*
X121972862Y-99980378D01*
X123041620Y-98911620D01*
X123307601Y-98513552D01*
X123401000Y-98044000D01*
X123401000Y-92964000D01*
X123307600Y-92494447D01*
X123041620Y-92096380D01*
X122643553Y-91830400D01*
X122174000Y-91737000D01*
X121704447Y-91830400D01*
X121306380Y-92096380D01*
X121040400Y-92494447D01*
X120947000Y-92964000D01*
X120947000Y-95902190D01*
X120624721Y-95785282D01*
X120034542Y-95811685D01*
X119611920Y-95986741D01*
X119531647Y-96238042D01*
X120396000Y-97102395D01*
X120410143Y-97088253D01*
X120589748Y-97267858D01*
X120575605Y-97282000D01*
X120589748Y-97296143D01*
X120410143Y-97475748D01*
X120396000Y-97461605D01*
X120381858Y-97475748D01*
X120202253Y-97296143D01*
X120216395Y-97282000D01*
X119352042Y-96417647D01*
X119222297Y-96459091D01*
X119193695Y-96389868D01*
X118750465Y-95945864D01*
X118171061Y-95705275D01*
X117570263Y-95704750D01*
X117457156Y-95431011D01*
X117168508Y-95141860D01*
X116791179Y-94985179D01*
X116382613Y-94984822D01*
X116005011Y-95140844D01*
X115985822Y-95160000D01*
X114046000Y-95160000D01*
X113719954Y-95224855D01*
X113443545Y-95409545D01*
X113131163Y-95721927D01*
X113091061Y-95705275D01*
X112463692Y-95704727D01*
X111883868Y-95944305D01*
X111505730Y-96321784D01*
X111130465Y-95945864D01*
X110551061Y-95705275D01*
X109923692Y-95704727D01*
X109343868Y-95944305D01*
X108965730Y-96321784D01*
X108590465Y-95945864D01*
X108011061Y-95705275D01*
X107383692Y-95704727D01*
X106803868Y-95944305D01*
X106425730Y-96321784D01*
X106050465Y-95945864D01*
X105471061Y-95705275D01*
X104843692Y-95704727D01*
X104263868Y-95944305D01*
X103885730Y-96321784D01*
X103510465Y-95945864D01*
X102931061Y-95705275D01*
X102303692Y-95704727D01*
X101723868Y-95944305D01*
X101279864Y-96387535D01*
X101039275Y-96966939D01*
X101038727Y-97594308D01*
X101278305Y-98174132D01*
X101428911Y-98325001D01*
X101249154Y-98440672D01*
X101083157Y-98683615D01*
X101024758Y-98972000D01*
X101024758Y-100672000D01*
X101075451Y-100941410D01*
X101234672Y-101188846D01*
X101477615Y-101354843D01*
X101766000Y-101413242D01*
X103466000Y-101413242D01*
X103735410Y-101362549D01*
X103982846Y-101203328D01*
X104114420Y-101010764D01*
X104261535Y-101158136D01*
X104840939Y-101398725D01*
X105468308Y-101399273D01*
X106048132Y-101159695D01*
X106426270Y-100782216D01*
X106801535Y-101158136D01*
X107380939Y-101398725D01*
X108008308Y-101399273D01*
X108588132Y-101159695D01*
X108966270Y-100782216D01*
X109341535Y-101158136D01*
X109920939Y-101398725D01*
X110548308Y-101399273D01*
X111128132Y-101159695D01*
X111506270Y-100782216D01*
X111881535Y-101158136D01*
X112460939Y-101398725D01*
X113088308Y-101399273D01*
X113668132Y-101159695D01*
X114046270Y-100782216D01*
X114421535Y-101158136D01*
X115000939Y-101398725D01*
X115628308Y-101399273D01*
X116208132Y-101159695D01*
X116586270Y-100782216D01*
X116961535Y-101158136D01*
X117004000Y-101175769D01*
X117004000Y-102870000D01*
X117068855Y-103196046D01*
X117253545Y-103472455D01*
X119829264Y-106048174D01*
X119779860Y-106097492D01*
X119623179Y-106474821D01*
X119623155Y-106501935D01*
X114967545Y-111157545D01*
X114782855Y-111433954D01*
X114718000Y-111760000D01*
X114718000Y-130683000D01*
X112536738Y-130683000D01*
X112500951Y-130503088D01*
X112327100Y-130242900D01*
X112066912Y-130069049D01*
X111760000Y-130008000D01*
X97830000Y-130008000D01*
X97830000Y-87249000D01*
X181570000Y-87249000D01*
X181570000Y-130008000D01*
X181570000Y-130008000D01*
G37*
X181570000Y-130008000D02*
X167640000Y-130008000D01*
X167597000Y-130016553D01*
X167597000Y-113538240D01*
X179429620Y-101705620D01*
X179695601Y-101307552D01*
X179789000Y-100838000D01*
X179789000Y-92202000D01*
X179767490Y-92093860D01*
X179695601Y-91732448D01*
X179429620Y-91334380D01*
X177651620Y-89556380D01*
X177646328Y-89552844D01*
X177253553Y-89290400D01*
X176784000Y-89197000D01*
X122174000Y-89197000D01*
X121704447Y-89290400D01*
X121306380Y-89556380D01*
X121040400Y-89954447D01*
X120947000Y-90424000D01*
X121040400Y-90893553D01*
X121306380Y-91291620D01*
X121704447Y-91557600D01*
X122174000Y-91651000D01*
X176275760Y-91651000D01*
X177335000Y-92710240D01*
X177335000Y-95902190D01*
X177012721Y-95785282D01*
X176422542Y-95811685D01*
X175999920Y-95986741D01*
X175919647Y-96238042D01*
X176784000Y-97102395D01*
X176798143Y-97088253D01*
X176977748Y-97267858D01*
X176963605Y-97282000D01*
X176977748Y-97296143D01*
X176798143Y-97475748D01*
X176784000Y-97461605D01*
X175919647Y-98325958D01*
X175961091Y-98455703D01*
X175891868Y-98484305D01*
X175513730Y-98861784D01*
X175204216Y-98551730D01*
X175580136Y-98176465D01*
X175609901Y-98104782D01*
X175740042Y-98146353D01*
X176604395Y-97282000D01*
X175740042Y-96417647D01*
X175610297Y-96459091D01*
X175581695Y-96389868D01*
X175138465Y-95945864D01*
X174559061Y-95705275D01*
X173931692Y-95704727D01*
X173351868Y-95944305D01*
X172973730Y-96321784D01*
X172598465Y-95945864D01*
X172019061Y-95705275D01*
X171391692Y-95704727D01*
X170811868Y-95944305D01*
X170433730Y-96321784D01*
X170058465Y-95945864D01*
X169479061Y-95705275D01*
X168851692Y-95704727D01*
X168271868Y-95944305D01*
X167893730Y-96321784D01*
X167518465Y-95945864D01*
X166939061Y-95705275D01*
X166311692Y-95704727D01*
X165731868Y-95944305D01*
X165287864Y-96387535D01*
X165047275Y-96966939D01*
X165046727Y-97594308D01*
X165286305Y-98174132D01*
X165436911Y-98325001D01*
X165257154Y-98440672D01*
X165091157Y-98683615D01*
X165032758Y-98972000D01*
X165032758Y-100208332D01*
X163731090Y-101510000D01*
X154686000Y-101510000D01*
X154359954Y-101574855D01*
X154083545Y-101759545D01*
X147396246Y-108446844D01*
X147370613Y-108446822D01*
X146993011Y-108602844D01*
X146703860Y-108891492D01*
X146547179Y-109268821D01*
X146546822Y-109677387D01*
X146702844Y-110054989D01*
X146883602Y-110236062D01*
X146703860Y-110415492D01*
X146547179Y-110792821D01*
X146546822Y-111201387D01*
X146702844Y-111578989D01*
X146991492Y-111868140D01*
X147368821Y-112024821D01*
X147777387Y-112025178D01*
X148154989Y-111869156D01*
X148444140Y-111580508D01*
X148600821Y-111203179D01*
X148600845Y-111176065D01*
X150861523Y-108915387D01*
X163056822Y-108915387D01*
X163212844Y-109292989D01*
X163232000Y-109312178D01*
X163232000Y-113191384D01*
X163213860Y-113209492D01*
X163057179Y-113586821D01*
X163056822Y-113995387D01*
X163212844Y-114372989D01*
X163501492Y-114662140D01*
X163878821Y-114818821D01*
X164287387Y-114819178D01*
X164664989Y-114663156D01*
X164954140Y-114374508D01*
X165110821Y-113997179D01*
X165111178Y-113588613D01*
X164955156Y-113211011D01*
X164936000Y-113191822D01*
X164936000Y-109312616D01*
X164954140Y-109294508D01*
X165110821Y-108917179D01*
X165111178Y-108508613D01*
X164955156Y-108131011D01*
X164666508Y-107841860D01*
X164289179Y-107685179D01*
X163880613Y-107684822D01*
X163503011Y-107840844D01*
X163213860Y-108129492D01*
X163057179Y-108506821D01*
X163056822Y-108915387D01*
X150861523Y-108915387D01*
X155800910Y-103976000D01*
X165862000Y-103976000D01*
X166188046Y-103911145D01*
X166464455Y-103726455D01*
X168808837Y-101382073D01*
X168848939Y-101398725D01*
X169476308Y-101399273D01*
X170056132Y-101159695D01*
X170434270Y-100782216D01*
X170809535Y-101158136D01*
X171388939Y-101398725D01*
X172016308Y-101399273D01*
X172596132Y-101159695D01*
X172974270Y-100782216D01*
X173349535Y-101158136D01*
X173928939Y-101398725D01*
X174556308Y-101399273D01*
X175136132Y-101159695D01*
X175514270Y-100782216D01*
X175889535Y-101158136D01*
X176325568Y-101339192D01*
X171127349Y-106537411D01*
X171051156Y-106353011D01*
X170762508Y-106063860D01*
X170385179Y-105907179D01*
X170358065Y-105907155D01*
X168921156Y-104470246D01*
X168921178Y-104444613D01*
X168765156Y-104067011D01*
X168476508Y-103777860D01*
X168099179Y-103621179D01*
X167690613Y-103620822D01*
X167313011Y-103776844D01*
X167023860Y-104065492D01*
X166867179Y-104442821D01*
X166866822Y-104851387D01*
X167022844Y-105228989D01*
X167311492Y-105518140D01*
X167688821Y-105674821D01*
X167715935Y-105674845D01*
X169152844Y-107111754D01*
X169152822Y-107137387D01*
X169308844Y-107514989D01*
X169597492Y-107804140D01*
X169783417Y-107881343D01*
X165502380Y-112162380D01*
X165236400Y-112560447D01*
X165143000Y-113030000D01*
X165143000Y-130683000D01*
X163129910Y-130683000D01*
X162908455Y-130461545D01*
X162632046Y-130276855D01*
X162306000Y-130212000D01*
X160626910Y-130212000D01*
X149700455Y-119285545D01*
X149424046Y-119100855D01*
X149098000Y-119036000D01*
X147675706Y-119036000D01*
X145602135Y-116962429D01*
X145650140Y-116914508D01*
X145806821Y-116537179D01*
X145807178Y-116128613D01*
X145651156Y-115751011D01*
X145632000Y-115731822D01*
X145632000Y-113741387D01*
X156706822Y-113741387D01*
X156862844Y-114118989D01*
X156882000Y-114138178D01*
X156882000Y-118779384D01*
X156863860Y-118797492D01*
X156707179Y-119174821D01*
X156706822Y-119583387D01*
X156862844Y-119960989D01*
X157151492Y-120250140D01*
X157528821Y-120406821D01*
X157937387Y-120407178D01*
X158314989Y-120251156D01*
X158604140Y-119962508D01*
X158760821Y-119585179D01*
X158760991Y-119391010D01*
X158953387Y-119391178D01*
X159330989Y-119235156D01*
X159620140Y-118946508D01*
X159776821Y-118569179D01*
X159777178Y-118160613D01*
X159621156Y-117783011D01*
X159602000Y-117763822D01*
X159602000Y-114646616D01*
X159620140Y-114628508D01*
X159776821Y-114251179D01*
X159777178Y-113842613D01*
X159621156Y-113465011D01*
X159332508Y-113175860D01*
X158955179Y-113019179D01*
X158630726Y-113018895D01*
X158605156Y-112957011D01*
X158316508Y-112667860D01*
X157939179Y-112511179D01*
X157530613Y-112510822D01*
X157153011Y-112666844D01*
X156863860Y-112955492D01*
X156707179Y-113332821D01*
X156706822Y-113741387D01*
X145632000Y-113741387D01*
X145632000Y-102792450D01*
X145844821Y-102880821D01*
X146253387Y-102881178D01*
X146630989Y-102725156D01*
X146920140Y-102436508D01*
X147076821Y-102059179D01*
X147077178Y-101650613D01*
X146966506Y-101382766D01*
X147004939Y-101398725D01*
X147632308Y-101399273D01*
X148212132Y-101159695D01*
X148590270Y-100782216D01*
X148965535Y-101158136D01*
X149544939Y-101398725D01*
X150172308Y-101399273D01*
X150752132Y-101159695D01*
X151130270Y-100782216D01*
X151505535Y-101158136D01*
X152084939Y-101398725D01*
X152712308Y-101399273D01*
X153292132Y-101159695D01*
X153670270Y-100782216D01*
X154045535Y-101158136D01*
X154624939Y-101398725D01*
X155252308Y-101399273D01*
X155832132Y-101159695D01*
X156276136Y-100716465D01*
X156516725Y-100137061D01*
X156516862Y-99980378D01*
X157585620Y-98911620D01*
X157851601Y-98513552D01*
X157945000Y-98044000D01*
X157945000Y-92964000D01*
X157851600Y-92494447D01*
X157585620Y-92096380D01*
X157187553Y-91830400D01*
X156718000Y-91737000D01*
X156248447Y-91830400D01*
X155850380Y-92096380D01*
X155584400Y-92494447D01*
X155491000Y-92964000D01*
X155491000Y-95902190D01*
X155168721Y-95785282D01*
X154578542Y-95811685D01*
X154155920Y-95986741D01*
X154075647Y-96238042D01*
X154940000Y-97102395D01*
X154954143Y-97088253D01*
X155133748Y-97267858D01*
X155119605Y-97282000D01*
X155133748Y-97296143D01*
X154954143Y-97475748D01*
X154940000Y-97461605D01*
X154075647Y-98325958D01*
X154117091Y-98455703D01*
X154047868Y-98484305D01*
X153669730Y-98861784D01*
X153360216Y-98551730D01*
X153736136Y-98176465D01*
X153765901Y-98104782D01*
X153896042Y-98146353D01*
X154760395Y-97282000D01*
X153896042Y-96417647D01*
X153766297Y-96459091D01*
X153737695Y-96389868D01*
X153294465Y-95945864D01*
X152715061Y-95705275D01*
X152558378Y-95705138D01*
X150727620Y-93874380D01*
X150668917Y-93835156D01*
X150329553Y-93608400D01*
X149860000Y-93515000D01*
X130810000Y-93515000D01*
X130340447Y-93608400D01*
X130001083Y-93835156D01*
X129942380Y-93874380D01*
X128418380Y-95398380D01*
X128152400Y-95796447D01*
X128059000Y-96266000D01*
X128059000Y-96520000D01*
X128152400Y-96989553D01*
X128418380Y-97387620D01*
X128609660Y-97515430D01*
X122250246Y-103874844D01*
X122224613Y-103874822D01*
X121847011Y-104030844D01*
X121670627Y-104206921D01*
X120740000Y-103276294D01*
X120740000Y-101946616D01*
X120758140Y-101928508D01*
X120914821Y-101551179D01*
X120915028Y-101313858D01*
X121288132Y-101159695D01*
X121732136Y-100716465D01*
X121972725Y-100137061D01*
X121972862Y-99980378D01*
X123041620Y-98911620D01*
X123307601Y-98513552D01*
X123401000Y-98044000D01*
X123401000Y-92964000D01*
X123307600Y-92494447D01*
X123041620Y-92096380D01*
X122643553Y-91830400D01*
X122174000Y-91737000D01*
X121704447Y-91830400D01*
X121306380Y-92096380D01*
X121040400Y-92494447D01*
X120947000Y-92964000D01*
X120947000Y-95902190D01*
X120624721Y-95785282D01*
X120034542Y-95811685D01*
X119611920Y-95986741D01*
X119531647Y-96238042D01*
X120396000Y-97102395D01*
X120410143Y-97088253D01*
X120589748Y-97267858D01*
X120575605Y-97282000D01*
X120589748Y-97296143D01*
X120410143Y-97475748D01*
X120396000Y-97461605D01*
X120381858Y-97475748D01*
X120202253Y-97296143D01*
X120216395Y-97282000D01*
X119352042Y-96417647D01*
X119222297Y-96459091D01*
X119193695Y-96389868D01*
X118750465Y-95945864D01*
X118171061Y-95705275D01*
X117570263Y-95704750D01*
X117457156Y-95431011D01*
X117168508Y-95141860D01*
X116791179Y-94985179D01*
X116382613Y-94984822D01*
X116005011Y-95140844D01*
X115985822Y-95160000D01*
X114046000Y-95160000D01*
X113719954Y-95224855D01*
X113443545Y-95409545D01*
X113131163Y-95721927D01*
X113091061Y-95705275D01*
X112463692Y-95704727D01*
X111883868Y-95944305D01*
X111505730Y-96321784D01*
X111130465Y-95945864D01*
X110551061Y-95705275D01*
X109923692Y-95704727D01*
X109343868Y-95944305D01*
X108965730Y-96321784D01*
X108590465Y-95945864D01*
X108011061Y-95705275D01*
X107383692Y-95704727D01*
X106803868Y-95944305D01*
X106425730Y-96321784D01*
X106050465Y-95945864D01*
X105471061Y-95705275D01*
X104843692Y-95704727D01*
X104263868Y-95944305D01*
X103885730Y-96321784D01*
X103510465Y-95945864D01*
X102931061Y-95705275D01*
X102303692Y-95704727D01*
X101723868Y-95944305D01*
X101279864Y-96387535D01*
X101039275Y-96966939D01*
X101038727Y-97594308D01*
X101278305Y-98174132D01*
X101428911Y-98325001D01*
X101249154Y-98440672D01*
X101083157Y-98683615D01*
X101024758Y-98972000D01*
X101024758Y-100672000D01*
X101075451Y-100941410D01*
X101234672Y-101188846D01*
X101477615Y-101354843D01*
X101766000Y-101413242D01*
X103466000Y-101413242D01*
X103735410Y-101362549D01*
X103982846Y-101203328D01*
X104114420Y-101010764D01*
X104261535Y-101158136D01*
X104840939Y-101398725D01*
X105468308Y-101399273D01*
X106048132Y-101159695D01*
X106426270Y-100782216D01*
X106801535Y-101158136D01*
X107380939Y-101398725D01*
X108008308Y-101399273D01*
X108588132Y-101159695D01*
X108966270Y-100782216D01*
X109341535Y-101158136D01*
X109920939Y-101398725D01*
X110548308Y-101399273D01*
X111128132Y-101159695D01*
X111506270Y-100782216D01*
X111881535Y-101158136D01*
X112460939Y-101398725D01*
X113088308Y-101399273D01*
X113668132Y-101159695D01*
X114046270Y-100782216D01*
X114421535Y-101158136D01*
X115000939Y-101398725D01*
X115628308Y-101399273D01*
X116208132Y-101159695D01*
X116586270Y-100782216D01*
X116961535Y-101158136D01*
X117004000Y-101175769D01*
X117004000Y-102870000D01*
X117068855Y-103196046D01*
X117253545Y-103472455D01*
X119829264Y-106048174D01*
X119779860Y-106097492D01*
X119623179Y-106474821D01*
X119623155Y-106501935D01*
X114967545Y-111157545D01*
X114782855Y-111433954D01*
X114718000Y-111760000D01*
X114718000Y-130683000D01*
X112536738Y-130683000D01*
X112500951Y-130503088D01*
X112327100Y-130242900D01*
X112066912Y-130069049D01*
X111760000Y-130008000D01*
X97830000Y-130008000D01*
X97830000Y-87249000D01*
X181570000Y-87249000D01*
X181570000Y-130008000D01*
M02*
