M48
;DRILL file {KiCad 4.0.7} date 05/07/18 09:37:13
;FORMAT={-:-/ absolute / inch / decimal}
FMAT,2
INCH,TZ
T1C0.020
%
G90
G05
M72
T1
X4.26Y-2.6
X4.26Y-2.68
X4.29Y-2.6
X4.29Y-2.68
X4.32Y-2.6
X4.32Y-2.68
X4.35Y-2.6
X4.35Y-2.68
X4.36Y-3.42
X4.36Y-3.5
X4.39Y-3.42
X4.39Y-3.5
X4.42Y-3.42
X4.42Y-3.5
X4.45Y-3.42
X4.45Y-3.5
X5.09Y-2.6
X5.09Y-2.68
X5.12Y-2.6
X5.12Y-2.68
X5.15Y-2.6
X5.15Y-2.68
X5.18Y-2.6
X5.18Y-2.68
X5.39Y-3.42
X5.39Y-3.5
X5.42Y-3.42
X5.42Y-3.5
X5.45Y-3.42
X5.45Y-3.5
X5.48Y-3.42
X5.48Y-3.5
X5.965Y-3.
X5.965Y-3.03
X5.965Y-3.06
X5.965Y-3.09
X6.045Y-3.
X6.045Y-3.03
X6.045Y-3.06
X6.045Y-3.09
X6.545Y-3.42
X6.545Y-3.5
X6.575Y-3.42
X6.575Y-3.5
X6.605Y-3.42
X6.605Y-3.5
X6.635Y-3.42
X6.635Y-3.5
T0
M30
