G04 #@! TF.FileFunction,Copper,L1,Top,Signal*
%FSLAX46Y46*%
G04 Gerber Fmt 4.6, Leading zero omitted, Abs format (unit mm)*
G04 Created by KiCad (PCBNEW 4.0.7) date 05/19/18 09:18:40*
%MOMM*%
%LPD*%
G01*
G04 APERTURE LIST*
%ADD10C,0.100000*%
%ADD11C,0.010000*%
%ADD12R,1.700000X1.700000*%
%ADD13C,1.700000*%
%ADD14O,1.700000X1.700000*%
%ADD15R,2.030000X2.650000*%
%ADD16R,1.000000X6.000000*%
%ADD17R,1.000000X8.000000*%
%ADD18C,0.600000*%
%ADD19C,0.800000*%
%ADD20C,0.250000*%
%ADD21C,1.000000*%
%ADD22C,0.254000*%
G04 APERTURE END LIST*
D10*
D11*
G36*
X156239909Y-115939560D02*
X156292412Y-115965499D01*
X156357158Y-116010700D01*
X156404347Y-116059991D01*
X156436665Y-116121885D01*
X156456797Y-116204896D01*
X156467430Y-116317538D01*
X156471247Y-116468324D01*
X156471470Y-116533149D01*
X156470818Y-116675221D01*
X156468112Y-116776757D01*
X156462224Y-116847015D01*
X156452027Y-116895256D01*
X156436394Y-116930738D01*
X156420128Y-116954943D01*
X156316295Y-117057929D01*
X156194021Y-117119874D01*
X156062114Y-117138506D01*
X155929384Y-117111549D01*
X155887333Y-117092486D01*
X155786666Y-117040015D01*
X155786666Y-117862259D01*
X155860135Y-117824267D01*
X155956941Y-117794872D01*
X156075928Y-117787342D01*
X156194745Y-117801245D01*
X156284473Y-117832476D01*
X156358899Y-117891954D01*
X156422490Y-117977066D01*
X156427271Y-117985805D01*
X156447437Y-118026966D01*
X156462165Y-118068454D01*
X156472303Y-118118713D01*
X156478699Y-118186184D01*
X156482201Y-118279309D01*
X156483658Y-118406531D01*
X156483921Y-118549701D01*
X156483921Y-119006471D01*
X156210000Y-119006471D01*
X156210000Y-118164231D01*
X156133383Y-118099763D01*
X156053793Y-118048194D01*
X155978422Y-118038818D01*
X155902633Y-118062947D01*
X155862241Y-118086574D01*
X155832179Y-118120227D01*
X155810797Y-118171087D01*
X155796450Y-118246334D01*
X155787490Y-118353146D01*
X155782270Y-118498704D01*
X155780431Y-118595588D01*
X155774215Y-118994020D01*
X155643480Y-119001547D01*
X155512745Y-119009073D01*
X155512745Y-116536582D01*
X155786666Y-116536582D01*
X155793650Y-116674423D01*
X155817182Y-116770107D01*
X155861135Y-116829641D01*
X155929382Y-116859029D01*
X155998333Y-116864902D01*
X156076386Y-116858154D01*
X156128189Y-116831594D01*
X156160583Y-116796499D01*
X156186084Y-116758752D01*
X156201265Y-116716700D01*
X156208019Y-116657779D01*
X156208241Y-116569428D01*
X156205968Y-116495448D01*
X156200749Y-116384000D01*
X156192979Y-116310833D01*
X156179895Y-116264422D01*
X156158732Y-116233244D01*
X156138760Y-116215223D01*
X156055314Y-116175925D01*
X155956551Y-116169579D01*
X155899841Y-116183116D01*
X155843692Y-116231233D01*
X155806499Y-116324833D01*
X155788472Y-116463254D01*
X155786666Y-116536582D01*
X155512745Y-116536582D01*
X155512745Y-115918628D01*
X155649705Y-115918628D01*
X155731935Y-115921879D01*
X155774360Y-115933426D01*
X155786661Y-115955952D01*
X155786666Y-115956620D01*
X155792374Y-115978681D01*
X155817547Y-115976176D01*
X155867598Y-115951935D01*
X155984219Y-115914851D01*
X156115429Y-115910953D01*
X156239909Y-115939560D01*
X156239909Y-115939560D01*
G37*
X156239909Y-115939560D02*
X156292412Y-115965499D01*
X156357158Y-116010700D01*
X156404347Y-116059991D01*
X156436665Y-116121885D01*
X156456797Y-116204896D01*
X156467430Y-116317538D01*
X156471247Y-116468324D01*
X156471470Y-116533149D01*
X156470818Y-116675221D01*
X156468112Y-116776757D01*
X156462224Y-116847015D01*
X156452027Y-116895256D01*
X156436394Y-116930738D01*
X156420128Y-116954943D01*
X156316295Y-117057929D01*
X156194021Y-117119874D01*
X156062114Y-117138506D01*
X155929384Y-117111549D01*
X155887333Y-117092486D01*
X155786666Y-117040015D01*
X155786666Y-117862259D01*
X155860135Y-117824267D01*
X155956941Y-117794872D01*
X156075928Y-117787342D01*
X156194745Y-117801245D01*
X156284473Y-117832476D01*
X156358899Y-117891954D01*
X156422490Y-117977066D01*
X156427271Y-117985805D01*
X156447437Y-118026966D01*
X156462165Y-118068454D01*
X156472303Y-118118713D01*
X156478699Y-118186184D01*
X156482201Y-118279309D01*
X156483658Y-118406531D01*
X156483921Y-118549701D01*
X156483921Y-119006471D01*
X156210000Y-119006471D01*
X156210000Y-118164231D01*
X156133383Y-118099763D01*
X156053793Y-118048194D01*
X155978422Y-118038818D01*
X155902633Y-118062947D01*
X155862241Y-118086574D01*
X155832179Y-118120227D01*
X155810797Y-118171087D01*
X155796450Y-118246334D01*
X155787490Y-118353146D01*
X155782270Y-118498704D01*
X155780431Y-118595588D01*
X155774215Y-118994020D01*
X155643480Y-119001547D01*
X155512745Y-119009073D01*
X155512745Y-116536582D01*
X155786666Y-116536582D01*
X155793650Y-116674423D01*
X155817182Y-116770107D01*
X155861135Y-116829641D01*
X155929382Y-116859029D01*
X155998333Y-116864902D01*
X156076386Y-116858154D01*
X156128189Y-116831594D01*
X156160583Y-116796499D01*
X156186084Y-116758752D01*
X156201265Y-116716700D01*
X156208019Y-116657779D01*
X156208241Y-116569428D01*
X156205968Y-116495448D01*
X156200749Y-116384000D01*
X156192979Y-116310833D01*
X156179895Y-116264422D01*
X156158732Y-116233244D01*
X156138760Y-116215223D01*
X156055314Y-116175925D01*
X155956551Y-116169579D01*
X155899841Y-116183116D01*
X155843692Y-116231233D01*
X155806499Y-116324833D01*
X155788472Y-116463254D01*
X155786666Y-116536582D01*
X155512745Y-116536582D01*
X155512745Y-115918628D01*
X155649705Y-115918628D01*
X155731935Y-115921879D01*
X155774360Y-115933426D01*
X155786661Y-115955952D01*
X155786666Y-115956620D01*
X155792374Y-115978681D01*
X155817547Y-115976176D01*
X155867598Y-115951935D01*
X155984219Y-115914851D01*
X156115429Y-115910953D01*
X156239909Y-115939560D01*
G36*
X157278720Y-117795922D02*
X157395870Y-117827180D01*
X157485051Y-117883837D01*
X157547984Y-117958045D01*
X157567548Y-117989716D01*
X157581992Y-118022891D01*
X157592089Y-118065329D01*
X157598615Y-118124788D01*
X157602342Y-118209029D01*
X157604046Y-118325810D01*
X157604500Y-118482890D01*
X157604509Y-118524565D01*
X157604509Y-119006471D01*
X157484980Y-119006471D01*
X157408739Y-119001131D01*
X157352366Y-118987604D01*
X157338242Y-118979262D01*
X157299630Y-118964864D01*
X157260192Y-118979262D01*
X157195262Y-118997237D01*
X157100945Y-119004472D01*
X156996407Y-119001333D01*
X156900811Y-118988186D01*
X156845000Y-118971318D01*
X156736998Y-118901986D01*
X156669503Y-118805772D01*
X156639159Y-118677844D01*
X156638877Y-118674559D01*
X156641540Y-118617808D01*
X156882353Y-118617808D01*
X156903405Y-118682358D01*
X156937697Y-118718686D01*
X157006532Y-118746162D01*
X157097390Y-118757129D01*
X157190042Y-118751731D01*
X157264256Y-118730110D01*
X157285049Y-118716239D01*
X157321381Y-118652143D01*
X157330588Y-118579278D01*
X157330588Y-118483530D01*
X157192827Y-118483530D01*
X157061953Y-118493605D01*
X156962741Y-118522148D01*
X156901023Y-118566639D01*
X156882353Y-118617808D01*
X156641540Y-118617808D01*
X156645436Y-118534790D01*
X156691534Y-118424282D01*
X156778200Y-118340712D01*
X156790179Y-118333110D01*
X156841655Y-118308357D01*
X156905368Y-118293368D01*
X156994435Y-118286082D01*
X157100245Y-118284407D01*
X157330588Y-118284314D01*
X157330588Y-118187755D01*
X157320817Y-118112836D01*
X157295884Y-118062644D01*
X157292965Y-118059972D01*
X157237481Y-118038015D01*
X157153727Y-118029505D01*
X157061167Y-118033687D01*
X156979270Y-118049809D01*
X156930673Y-118073990D01*
X156904341Y-118093359D01*
X156876535Y-118097057D01*
X156838161Y-118081188D01*
X156780125Y-118041855D01*
X156693331Y-117975164D01*
X156685365Y-117968916D01*
X156689447Y-117945800D01*
X156723501Y-117907352D01*
X156775260Y-117864627D01*
X156832455Y-117828679D01*
X156850425Y-117820191D01*
X156915972Y-117803252D01*
X157012020Y-117791170D01*
X157119329Y-117786323D01*
X157124347Y-117786313D01*
X157278720Y-117795922D01*
X157278720Y-117795922D01*
G37*
X157278720Y-117795922D02*
X157395870Y-117827180D01*
X157485051Y-117883837D01*
X157547984Y-117958045D01*
X157567548Y-117989716D01*
X157581992Y-118022891D01*
X157592089Y-118065329D01*
X157598615Y-118124788D01*
X157602342Y-118209029D01*
X157604046Y-118325810D01*
X157604500Y-118482890D01*
X157604509Y-118524565D01*
X157604509Y-119006471D01*
X157484980Y-119006471D01*
X157408739Y-119001131D01*
X157352366Y-118987604D01*
X157338242Y-118979262D01*
X157299630Y-118964864D01*
X157260192Y-118979262D01*
X157195262Y-118997237D01*
X157100945Y-119004472D01*
X156996407Y-119001333D01*
X156900811Y-118988186D01*
X156845000Y-118971318D01*
X156736998Y-118901986D01*
X156669503Y-118805772D01*
X156639159Y-118677844D01*
X156638877Y-118674559D01*
X156641540Y-118617808D01*
X156882353Y-118617808D01*
X156903405Y-118682358D01*
X156937697Y-118718686D01*
X157006532Y-118746162D01*
X157097390Y-118757129D01*
X157190042Y-118751731D01*
X157264256Y-118730110D01*
X157285049Y-118716239D01*
X157321381Y-118652143D01*
X157330588Y-118579278D01*
X157330588Y-118483530D01*
X157192827Y-118483530D01*
X157061953Y-118493605D01*
X156962741Y-118522148D01*
X156901023Y-118566639D01*
X156882353Y-118617808D01*
X156641540Y-118617808D01*
X156645436Y-118534790D01*
X156691534Y-118424282D01*
X156778200Y-118340712D01*
X156790179Y-118333110D01*
X156841655Y-118308357D01*
X156905368Y-118293368D01*
X156994435Y-118286082D01*
X157100245Y-118284407D01*
X157330588Y-118284314D01*
X157330588Y-118187755D01*
X157320817Y-118112836D01*
X157295884Y-118062644D01*
X157292965Y-118059972D01*
X157237481Y-118038015D01*
X157153727Y-118029505D01*
X157061167Y-118033687D01*
X156979270Y-118049809D01*
X156930673Y-118073990D01*
X156904341Y-118093359D01*
X156876535Y-118097057D01*
X156838161Y-118081188D01*
X156780125Y-118041855D01*
X156693331Y-117975164D01*
X156685365Y-117968916D01*
X156689447Y-117945800D01*
X156723501Y-117907352D01*
X156775260Y-117864627D01*
X156832455Y-117828679D01*
X156850425Y-117820191D01*
X156915972Y-117803252D01*
X157012020Y-117791170D01*
X157119329Y-117786323D01*
X157124347Y-117786313D01*
X157278720Y-117795922D01*
G36*
X158052764Y-117788921D02*
X158090030Y-117800091D01*
X158102043Y-117824633D01*
X158102549Y-117835712D01*
X158104704Y-117866572D01*
X158119551Y-117871417D01*
X158159657Y-117850260D01*
X158183480Y-117835806D01*
X158258638Y-117804850D01*
X158348406Y-117789544D01*
X158442529Y-117788367D01*
X158530754Y-117799799D01*
X158602826Y-117822320D01*
X158648492Y-117854409D01*
X158657498Y-117894545D01*
X158652953Y-117905415D01*
X158619821Y-117950534D01*
X158568445Y-118006026D01*
X158559152Y-118014996D01*
X158510182Y-118056245D01*
X158467931Y-118069572D01*
X158408841Y-118060271D01*
X158385169Y-118054090D01*
X158311504Y-118039246D01*
X158259710Y-118045921D01*
X158215969Y-118069465D01*
X158175902Y-118101061D01*
X158146392Y-118140798D01*
X158125884Y-118196252D01*
X158112824Y-118275003D01*
X158105656Y-118384629D01*
X158102824Y-118532706D01*
X158102549Y-118622111D01*
X158102549Y-119006471D01*
X157853529Y-119006471D01*
X157853529Y-117786275D01*
X157978039Y-117786275D01*
X158052764Y-117788921D01*
X158052764Y-117788921D01*
G37*
X158052764Y-117788921D02*
X158090030Y-117800091D01*
X158102043Y-117824633D01*
X158102549Y-117835712D01*
X158104704Y-117866572D01*
X158119551Y-117871417D01*
X158159657Y-117850260D01*
X158183480Y-117835806D01*
X158258638Y-117804850D01*
X158348406Y-117789544D01*
X158442529Y-117788367D01*
X158530754Y-117799799D01*
X158602826Y-117822320D01*
X158648492Y-117854409D01*
X158657498Y-117894545D01*
X158652953Y-117905415D01*
X158619821Y-117950534D01*
X158568445Y-118006026D01*
X158559152Y-118014996D01*
X158510182Y-118056245D01*
X158467931Y-118069572D01*
X158408841Y-118060271D01*
X158385169Y-118054090D01*
X158311504Y-118039246D01*
X158259710Y-118045921D01*
X158215969Y-118069465D01*
X158175902Y-118101061D01*
X158146392Y-118140798D01*
X158125884Y-118196252D01*
X158112824Y-118275003D01*
X158105656Y-118384629D01*
X158102824Y-118532706D01*
X158102549Y-118622111D01*
X158102549Y-119006471D01*
X157853529Y-119006471D01*
X157853529Y-117786275D01*
X157978039Y-117786275D01*
X158052764Y-117788921D01*
G36*
X159621568Y-119006471D02*
X159484607Y-119006471D01*
X159405111Y-119004140D01*
X159363708Y-118994488D01*
X159348801Y-118973525D01*
X159347647Y-118959351D01*
X159345133Y-118930927D01*
X159329280Y-118925475D01*
X159287621Y-118942998D01*
X159255224Y-118959351D01*
X159130849Y-118998103D01*
X158995646Y-119000346D01*
X158885726Y-118971444D01*
X158783366Y-118901619D01*
X158705340Y-118798555D01*
X158662614Y-118676989D01*
X158661526Y-118670192D01*
X158655178Y-118596032D01*
X158652021Y-118489570D01*
X158652275Y-118409052D01*
X158924289Y-118409052D01*
X158930590Y-118516070D01*
X158944925Y-118604278D01*
X158964331Y-118654090D01*
X159037746Y-118722162D01*
X159124914Y-118746564D01*
X159214804Y-118726831D01*
X159291617Y-118667968D01*
X159320708Y-118628379D01*
X159337717Y-118581138D01*
X159345684Y-118512181D01*
X159347647Y-118408607D01*
X159344134Y-118306039D01*
X159334857Y-118215921D01*
X159321706Y-118155613D01*
X159319514Y-118150208D01*
X159266478Y-118085940D01*
X159189067Y-118050656D01*
X159102454Y-118044959D01*
X159021807Y-118069453D01*
X158962297Y-118124742D01*
X158956124Y-118135743D01*
X158936801Y-118202827D01*
X158926274Y-118299284D01*
X158924289Y-118409052D01*
X158652275Y-118409052D01*
X158652404Y-118368225D01*
X158654194Y-118302918D01*
X158666373Y-118141355D01*
X158691685Y-118020053D01*
X158733793Y-117930379D01*
X158796359Y-117863699D01*
X158857100Y-117824557D01*
X158941964Y-117797040D01*
X159047515Y-117787603D01*
X159155598Y-117795290D01*
X159248058Y-117819146D01*
X159296910Y-117847685D01*
X159347647Y-117893601D01*
X159347647Y-117313137D01*
X159621568Y-117313137D01*
X159621568Y-119006471D01*
X159621568Y-119006471D01*
G37*
X159621568Y-119006471D02*
X159484607Y-119006471D01*
X159405111Y-119004140D01*
X159363708Y-118994488D01*
X159348801Y-118973525D01*
X159347647Y-118959351D01*
X159345133Y-118930927D01*
X159329280Y-118925475D01*
X159287621Y-118942998D01*
X159255224Y-118959351D01*
X159130849Y-118998103D01*
X158995646Y-119000346D01*
X158885726Y-118971444D01*
X158783366Y-118901619D01*
X158705340Y-118798555D01*
X158662614Y-118676989D01*
X158661526Y-118670192D01*
X158655178Y-118596032D01*
X158652021Y-118489570D01*
X158652275Y-118409052D01*
X158924289Y-118409052D01*
X158930590Y-118516070D01*
X158944925Y-118604278D01*
X158964331Y-118654090D01*
X159037746Y-118722162D01*
X159124914Y-118746564D01*
X159214804Y-118726831D01*
X159291617Y-118667968D01*
X159320708Y-118628379D01*
X159337717Y-118581138D01*
X159345684Y-118512181D01*
X159347647Y-118408607D01*
X159344134Y-118306039D01*
X159334857Y-118215921D01*
X159321706Y-118155613D01*
X159319514Y-118150208D01*
X159266478Y-118085940D01*
X159189067Y-118050656D01*
X159102454Y-118044959D01*
X159021807Y-118069453D01*
X158962297Y-118124742D01*
X158956124Y-118135743D01*
X158936801Y-118202827D01*
X158926274Y-118299284D01*
X158924289Y-118409052D01*
X158652275Y-118409052D01*
X158652404Y-118368225D01*
X158654194Y-118302918D01*
X158666373Y-118141355D01*
X158691685Y-118020053D01*
X158733793Y-117930379D01*
X158796359Y-117863699D01*
X158857100Y-117824557D01*
X158941964Y-117797040D01*
X159047515Y-117787603D01*
X159155598Y-117795290D01*
X159248058Y-117819146D01*
X159296910Y-117847685D01*
X159347647Y-117893601D01*
X159347647Y-117313137D01*
X159621568Y-117313137D01*
X159621568Y-119006471D01*
G36*
X160577528Y-117791332D02*
X160676014Y-117798726D01*
X160804776Y-118184706D01*
X160933537Y-118570686D01*
X160973911Y-118433726D01*
X160998207Y-118349083D01*
X161030167Y-118234697D01*
X161064679Y-118108963D01*
X161082928Y-118041520D01*
X161151571Y-117786275D01*
X161434773Y-117786275D01*
X161350122Y-118053971D01*
X161308435Y-118185638D01*
X161258074Y-118344458D01*
X161205481Y-118510128D01*
X161158530Y-118657843D01*
X161051589Y-118994020D01*
X160820661Y-119009044D01*
X160758050Y-118802316D01*
X160719438Y-118673896D01*
X160677300Y-118532322D01*
X160640472Y-118407285D01*
X160639018Y-118402309D01*
X160611511Y-118317586D01*
X160587242Y-118259778D01*
X160570243Y-118237918D01*
X160566750Y-118240446D01*
X160554490Y-118274336D01*
X160531195Y-118346930D01*
X160499700Y-118449101D01*
X160462842Y-118571720D01*
X160442899Y-118639167D01*
X160334895Y-119006471D01*
X160105679Y-119006471D01*
X159922439Y-118427500D01*
X159870963Y-118265091D01*
X159824070Y-118117602D01*
X159783977Y-117991960D01*
X159752897Y-117895095D01*
X159733045Y-117833934D01*
X159727011Y-117816065D01*
X159731788Y-117797768D01*
X159769297Y-117789755D01*
X159847355Y-117790557D01*
X159859574Y-117791163D01*
X160004326Y-117798726D01*
X160099130Y-118147353D01*
X160133977Y-118274497D01*
X160165117Y-118386265D01*
X160189809Y-118472953D01*
X160205312Y-118524856D01*
X160208176Y-118533318D01*
X160220046Y-118523587D01*
X160243983Y-118473172D01*
X160277239Y-118388935D01*
X160317064Y-118277741D01*
X160350730Y-118177297D01*
X160479041Y-117783939D01*
X160577528Y-117791332D01*
X160577528Y-117791332D01*
G37*
X160577528Y-117791332D02*
X160676014Y-117798726D01*
X160804776Y-118184706D01*
X160933537Y-118570686D01*
X160973911Y-118433726D01*
X160998207Y-118349083D01*
X161030167Y-118234697D01*
X161064679Y-118108963D01*
X161082928Y-118041520D01*
X161151571Y-117786275D01*
X161434773Y-117786275D01*
X161350122Y-118053971D01*
X161308435Y-118185638D01*
X161258074Y-118344458D01*
X161205481Y-118510128D01*
X161158530Y-118657843D01*
X161051589Y-118994020D01*
X160820661Y-119009044D01*
X160758050Y-118802316D01*
X160719438Y-118673896D01*
X160677300Y-118532322D01*
X160640472Y-118407285D01*
X160639018Y-118402309D01*
X160611511Y-118317586D01*
X160587242Y-118259778D01*
X160570243Y-118237918D01*
X160566750Y-118240446D01*
X160554490Y-118274336D01*
X160531195Y-118346930D01*
X160499700Y-118449101D01*
X160462842Y-118571720D01*
X160442899Y-118639167D01*
X160334895Y-119006471D01*
X160105679Y-119006471D01*
X159922439Y-118427500D01*
X159870963Y-118265091D01*
X159824070Y-118117602D01*
X159783977Y-117991960D01*
X159752897Y-117895095D01*
X159733045Y-117833934D01*
X159727011Y-117816065D01*
X159731788Y-117797768D01*
X159769297Y-117789755D01*
X159847355Y-117790557D01*
X159859574Y-117791163D01*
X160004326Y-117798726D01*
X160099130Y-118147353D01*
X160133977Y-118274497D01*
X160165117Y-118386265D01*
X160189809Y-118472953D01*
X160205312Y-118524856D01*
X160208176Y-118533318D01*
X160220046Y-118523587D01*
X160243983Y-118473172D01*
X160277239Y-118388935D01*
X160317064Y-118277741D01*
X160350730Y-118177297D01*
X160479041Y-117783939D01*
X160577528Y-117791332D01*
G36*
X162076459Y-117793669D02*
X162181420Y-117819163D01*
X162211761Y-117832669D01*
X162270573Y-117868046D01*
X162315709Y-117907890D01*
X162349106Y-117959120D01*
X162372701Y-118028654D01*
X162388433Y-118123409D01*
X162398239Y-118250305D01*
X162404057Y-118416258D01*
X162406266Y-118527108D01*
X162414396Y-119006471D01*
X162275531Y-119006471D01*
X162191287Y-119002938D01*
X162147884Y-118990866D01*
X162136666Y-118970594D01*
X162130744Y-118948674D01*
X162104266Y-118952865D01*
X162068186Y-118970441D01*
X161977862Y-118997382D01*
X161861777Y-119004642D01*
X161739680Y-118992767D01*
X161631321Y-118962305D01*
X161621602Y-118958077D01*
X161522568Y-118888505D01*
X161457281Y-118791789D01*
X161427240Y-118678738D01*
X161429535Y-118638122D01*
X161674633Y-118638122D01*
X161696229Y-118692782D01*
X161760259Y-118731952D01*
X161863565Y-118752974D01*
X161918774Y-118755766D01*
X162010782Y-118748620D01*
X162071941Y-118720848D01*
X162086862Y-118707647D01*
X162127287Y-118635829D01*
X162136666Y-118570686D01*
X162136666Y-118483530D01*
X162015269Y-118483530D01*
X161874153Y-118490722D01*
X161775173Y-118513345D01*
X161712633Y-118552964D01*
X161698631Y-118570628D01*
X161674633Y-118638122D01*
X161429535Y-118638122D01*
X161433941Y-118560157D01*
X161478880Y-118446855D01*
X161540196Y-118370285D01*
X161577332Y-118337181D01*
X161613687Y-118315425D01*
X161660990Y-118302161D01*
X161730973Y-118294528D01*
X161835364Y-118289670D01*
X161876770Y-118288273D01*
X162136666Y-118279780D01*
X162136285Y-118201116D01*
X162126219Y-118118428D01*
X162089829Y-118068431D01*
X162016311Y-118036489D01*
X162014339Y-118035920D01*
X161910105Y-118023361D01*
X161808108Y-118039766D01*
X161732305Y-118079657D01*
X161701890Y-118099354D01*
X161669132Y-118096629D01*
X161618721Y-118068091D01*
X161589119Y-118047950D01*
X161531218Y-118004919D01*
X161495352Y-117972662D01*
X161489597Y-117963427D01*
X161513295Y-117915636D01*
X161583313Y-117858562D01*
X161613725Y-117839305D01*
X161701155Y-117806140D01*
X161818983Y-117787350D01*
X161949866Y-117783129D01*
X162076459Y-117793669D01*
X162076459Y-117793669D01*
G37*
X162076459Y-117793669D02*
X162181420Y-117819163D01*
X162211761Y-117832669D01*
X162270573Y-117868046D01*
X162315709Y-117907890D01*
X162349106Y-117959120D01*
X162372701Y-118028654D01*
X162388433Y-118123409D01*
X162398239Y-118250305D01*
X162404057Y-118416258D01*
X162406266Y-118527108D01*
X162414396Y-119006471D01*
X162275531Y-119006471D01*
X162191287Y-119002938D01*
X162147884Y-118990866D01*
X162136666Y-118970594D01*
X162130744Y-118948674D01*
X162104266Y-118952865D01*
X162068186Y-118970441D01*
X161977862Y-118997382D01*
X161861777Y-119004642D01*
X161739680Y-118992767D01*
X161631321Y-118962305D01*
X161621602Y-118958077D01*
X161522568Y-118888505D01*
X161457281Y-118791789D01*
X161427240Y-118678738D01*
X161429535Y-118638122D01*
X161674633Y-118638122D01*
X161696229Y-118692782D01*
X161760259Y-118731952D01*
X161863565Y-118752974D01*
X161918774Y-118755766D01*
X162010782Y-118748620D01*
X162071941Y-118720848D01*
X162086862Y-118707647D01*
X162127287Y-118635829D01*
X162136666Y-118570686D01*
X162136666Y-118483530D01*
X162015269Y-118483530D01*
X161874153Y-118490722D01*
X161775173Y-118513345D01*
X161712633Y-118552964D01*
X161698631Y-118570628D01*
X161674633Y-118638122D01*
X161429535Y-118638122D01*
X161433941Y-118560157D01*
X161478880Y-118446855D01*
X161540196Y-118370285D01*
X161577332Y-118337181D01*
X161613687Y-118315425D01*
X161660990Y-118302161D01*
X161730973Y-118294528D01*
X161835364Y-118289670D01*
X161876770Y-118288273D01*
X162136666Y-118279780D01*
X162136285Y-118201116D01*
X162126219Y-118118428D01*
X162089829Y-118068431D01*
X162016311Y-118036489D01*
X162014339Y-118035920D01*
X161910105Y-118023361D01*
X161808108Y-118039766D01*
X161732305Y-118079657D01*
X161701890Y-118099354D01*
X161669132Y-118096629D01*
X161618721Y-118068091D01*
X161589119Y-118047950D01*
X161531218Y-118004919D01*
X161495352Y-117972662D01*
X161489597Y-117963427D01*
X161513295Y-117915636D01*
X161583313Y-117858562D01*
X161613725Y-117839305D01*
X161701155Y-117806140D01*
X161818983Y-117787350D01*
X161949866Y-117783129D01*
X162076459Y-117793669D01*
G36*
X163258446Y-117785883D02*
X163354177Y-117804755D01*
X163408677Y-117832699D01*
X163466008Y-117879123D01*
X163384441Y-117982111D01*
X163334150Y-118044479D01*
X163300001Y-118074907D01*
X163266063Y-118079555D01*
X163216406Y-118064586D01*
X163193096Y-118056117D01*
X163098063Y-118043622D01*
X163011032Y-118070406D01*
X162947138Y-118130915D01*
X162936759Y-118150208D01*
X162925456Y-118201314D01*
X162916732Y-118295500D01*
X162910997Y-118426089D01*
X162908660Y-118586405D01*
X162908627Y-118609211D01*
X162908627Y-119006471D01*
X162634705Y-119006471D01*
X162634705Y-117786275D01*
X162771666Y-117786275D01*
X162850638Y-117788337D01*
X162891779Y-117797513D01*
X162906992Y-117818290D01*
X162908627Y-117837886D01*
X162908627Y-117889497D01*
X162974240Y-117837886D01*
X163049475Y-117802675D01*
X163150544Y-117785265D01*
X163258446Y-117785883D01*
X163258446Y-117785883D01*
G37*
X163258446Y-117785883D02*
X163354177Y-117804755D01*
X163408677Y-117832699D01*
X163466008Y-117879123D01*
X163384441Y-117982111D01*
X163334150Y-118044479D01*
X163300001Y-118074907D01*
X163266063Y-118079555D01*
X163216406Y-118064586D01*
X163193096Y-118056117D01*
X163098063Y-118043622D01*
X163011032Y-118070406D01*
X162947138Y-118130915D01*
X162936759Y-118150208D01*
X162925456Y-118201314D01*
X162916732Y-118295500D01*
X162910997Y-118426089D01*
X162908660Y-118586405D01*
X162908627Y-118609211D01*
X162908627Y-119006471D01*
X162634705Y-119006471D01*
X162634705Y-117786275D01*
X162771666Y-117786275D01*
X162850638Y-117788337D01*
X162891779Y-117797513D01*
X162906992Y-117818290D01*
X162908627Y-117837886D01*
X162908627Y-117889497D01*
X162974240Y-117837886D01*
X163049475Y-117802675D01*
X163150544Y-117785265D01*
X163258446Y-117785883D01*
G36*
X164045307Y-117792784D02*
X164164337Y-117823731D01*
X164264021Y-117887600D01*
X164312288Y-117935313D01*
X164391408Y-118048106D01*
X164436752Y-118178950D01*
X164452330Y-118339792D01*
X164452410Y-118352794D01*
X164452549Y-118483530D01*
X163700091Y-118483530D01*
X163716130Y-118552010D01*
X163745091Y-118614031D01*
X163795778Y-118678654D01*
X163806379Y-118688971D01*
X163897494Y-118744805D01*
X164001400Y-118754275D01*
X164121000Y-118717540D01*
X164141274Y-118707647D01*
X164203456Y-118677574D01*
X164245106Y-118660440D01*
X164252373Y-118658855D01*
X164277740Y-118674242D01*
X164326120Y-118711887D01*
X164350679Y-118732459D01*
X164401570Y-118779714D01*
X164418281Y-118810917D01*
X164406683Y-118839620D01*
X164400483Y-118847468D01*
X164358493Y-118881819D01*
X164289206Y-118923565D01*
X164240882Y-118947935D01*
X164103711Y-118990873D01*
X163951847Y-119004786D01*
X163808024Y-118988300D01*
X163767745Y-118976496D01*
X163643078Y-118909689D01*
X163550671Y-118806892D01*
X163489990Y-118667105D01*
X163460498Y-118489330D01*
X163457260Y-118396373D01*
X163466714Y-118261033D01*
X163705490Y-118261033D01*
X163728584Y-118271038D01*
X163790662Y-118278888D01*
X163880914Y-118283521D01*
X163942058Y-118284314D01*
X164052040Y-118283549D01*
X164121457Y-118279970D01*
X164159538Y-118271649D01*
X164175515Y-118256657D01*
X164178627Y-118234903D01*
X164157278Y-118167892D01*
X164103529Y-118101664D01*
X164032822Y-118050832D01*
X163962089Y-118030038D01*
X163866016Y-118048484D01*
X163782849Y-118101811D01*
X163725186Y-118178677D01*
X163705490Y-118261033D01*
X163466714Y-118261033D01*
X163471028Y-118199291D01*
X163513520Y-118042271D01*
X163585635Y-117924069D01*
X163688273Y-117843440D01*
X163822332Y-117799139D01*
X163894957Y-117790607D01*
X164045307Y-117792784D01*
X164045307Y-117792784D01*
G37*
X164045307Y-117792784D02*
X164164337Y-117823731D01*
X164264021Y-117887600D01*
X164312288Y-117935313D01*
X164391408Y-118048106D01*
X164436752Y-118178950D01*
X164452330Y-118339792D01*
X164452410Y-118352794D01*
X164452549Y-118483530D01*
X163700091Y-118483530D01*
X163716130Y-118552010D01*
X163745091Y-118614031D01*
X163795778Y-118678654D01*
X163806379Y-118688971D01*
X163897494Y-118744805D01*
X164001400Y-118754275D01*
X164121000Y-118717540D01*
X164141274Y-118707647D01*
X164203456Y-118677574D01*
X164245106Y-118660440D01*
X164252373Y-118658855D01*
X164277740Y-118674242D01*
X164326120Y-118711887D01*
X164350679Y-118732459D01*
X164401570Y-118779714D01*
X164418281Y-118810917D01*
X164406683Y-118839620D01*
X164400483Y-118847468D01*
X164358493Y-118881819D01*
X164289206Y-118923565D01*
X164240882Y-118947935D01*
X164103711Y-118990873D01*
X163951847Y-119004786D01*
X163808024Y-118988300D01*
X163767745Y-118976496D01*
X163643078Y-118909689D01*
X163550671Y-118806892D01*
X163489990Y-118667105D01*
X163460498Y-118489330D01*
X163457260Y-118396373D01*
X163466714Y-118261033D01*
X163705490Y-118261033D01*
X163728584Y-118271038D01*
X163790662Y-118278888D01*
X163880914Y-118283521D01*
X163942058Y-118284314D01*
X164052040Y-118283549D01*
X164121457Y-118279970D01*
X164159538Y-118271649D01*
X164175515Y-118256657D01*
X164178627Y-118234903D01*
X164157278Y-118167892D01*
X164103529Y-118101664D01*
X164032822Y-118050832D01*
X163962089Y-118030038D01*
X163866016Y-118048484D01*
X163782849Y-118101811D01*
X163725186Y-118178677D01*
X163705490Y-118261033D01*
X163466714Y-118261033D01*
X163471028Y-118199291D01*
X163513520Y-118042271D01*
X163585635Y-117924069D01*
X163688273Y-117843440D01*
X163822332Y-117799139D01*
X163894957Y-117790607D01*
X164045307Y-117792784D01*
G36*
X154993247Y-115931568D02*
X155123522Y-115989163D01*
X155222419Y-116085334D01*
X155290082Y-116220229D01*
X155326655Y-116393996D01*
X155329276Y-116421126D01*
X155331330Y-116612408D01*
X155304699Y-116780073D01*
X155251001Y-116915967D01*
X155222247Y-116959681D01*
X155122091Y-117052198D01*
X154994537Y-117112119D01*
X154851837Y-117136985D01*
X154706240Y-117124339D01*
X154595562Y-117085391D01*
X154500384Y-117019755D01*
X154422594Y-116933699D01*
X154421249Y-116931685D01*
X154389657Y-116878570D01*
X154369127Y-116825160D01*
X154356695Y-116757754D01*
X154349397Y-116662653D01*
X154346182Y-116584666D01*
X154344844Y-116513944D01*
X154593814Y-116513944D01*
X154596247Y-116584348D01*
X154605080Y-116678068D01*
X154620664Y-116738214D01*
X154648766Y-116781006D01*
X154675086Y-116806002D01*
X154768392Y-116858338D01*
X154866020Y-116865333D01*
X154956942Y-116827676D01*
X155002402Y-116785479D01*
X155035162Y-116742956D01*
X155054323Y-116702267D01*
X155062733Y-116649314D01*
X155063237Y-116569997D01*
X155060645Y-116496950D01*
X155055071Y-116392601D01*
X155046234Y-116324920D01*
X155030307Y-116280774D01*
X155003462Y-116247031D01*
X154982189Y-116227746D01*
X154893206Y-116177086D01*
X154797211Y-116174560D01*
X154716719Y-116204567D01*
X154648053Y-116267231D01*
X154607144Y-116370168D01*
X154593814Y-116513944D01*
X154344844Y-116513944D01*
X154343246Y-116429582D01*
X154348260Y-116313600D01*
X154363283Y-116226367D01*
X154390376Y-116157530D01*
X154431600Y-116096737D01*
X154446885Y-116078686D01*
X154542454Y-115988746D01*
X154644961Y-115936211D01*
X154770321Y-115914201D01*
X154831450Y-115912402D01*
X154993247Y-115931568D01*
X154993247Y-115931568D01*
G37*
X154993247Y-115931568D02*
X155123522Y-115989163D01*
X155222419Y-116085334D01*
X155290082Y-116220229D01*
X155326655Y-116393996D01*
X155329276Y-116421126D01*
X155331330Y-116612408D01*
X155304699Y-116780073D01*
X155251001Y-116915967D01*
X155222247Y-116959681D01*
X155122091Y-117052198D01*
X154994537Y-117112119D01*
X154851837Y-117136985D01*
X154706240Y-117124339D01*
X154595562Y-117085391D01*
X154500384Y-117019755D01*
X154422594Y-116933699D01*
X154421249Y-116931685D01*
X154389657Y-116878570D01*
X154369127Y-116825160D01*
X154356695Y-116757754D01*
X154349397Y-116662653D01*
X154346182Y-116584666D01*
X154344844Y-116513944D01*
X154593814Y-116513944D01*
X154596247Y-116584348D01*
X154605080Y-116678068D01*
X154620664Y-116738214D01*
X154648766Y-116781006D01*
X154675086Y-116806002D01*
X154768392Y-116858338D01*
X154866020Y-116865333D01*
X154956942Y-116827676D01*
X155002402Y-116785479D01*
X155035162Y-116742956D01*
X155054323Y-116702267D01*
X155062733Y-116649314D01*
X155063237Y-116569997D01*
X155060645Y-116496950D01*
X155055071Y-116392601D01*
X155046234Y-116324920D01*
X155030307Y-116280774D01*
X155003462Y-116247031D01*
X154982189Y-116227746D01*
X154893206Y-116177086D01*
X154797211Y-116174560D01*
X154716719Y-116204567D01*
X154648053Y-116267231D01*
X154607144Y-116370168D01*
X154593814Y-116513944D01*
X154344844Y-116513944D01*
X154343246Y-116429582D01*
X154348260Y-116313600D01*
X154363283Y-116226367D01*
X154390376Y-116157530D01*
X154431600Y-116096737D01*
X154446885Y-116078686D01*
X154542454Y-115988746D01*
X154644961Y-115936211D01*
X154770321Y-115914201D01*
X154831450Y-115912402D01*
X154993247Y-115931568D01*
G36*
X157333204Y-115946354D02*
X157358019Y-115958037D01*
X157443906Y-116020951D01*
X157525121Y-116112769D01*
X157585764Y-116213868D01*
X157603012Y-116260349D01*
X157618749Y-116343376D01*
X157628133Y-116443713D01*
X157629272Y-116485147D01*
X157629411Y-116615882D01*
X156876953Y-116615882D01*
X156892993Y-116684363D01*
X156932363Y-116765355D01*
X157001194Y-116835351D01*
X157083081Y-116880441D01*
X157135263Y-116889804D01*
X157206029Y-116878441D01*
X157290460Y-116849943D01*
X157319142Y-116836831D01*
X157425209Y-116783858D01*
X157515728Y-116852901D01*
X157567961Y-116899597D01*
X157595753Y-116938140D01*
X157597160Y-116949452D01*
X157572332Y-116976868D01*
X157517917Y-117018532D01*
X157468528Y-117051037D01*
X157335252Y-117109468D01*
X157185839Y-117135915D01*
X157037751Y-117129039D01*
X156919705Y-117093096D01*
X156798018Y-117016101D01*
X156711540Y-116914728D01*
X156657441Y-116783570D01*
X156632891Y-116617224D01*
X156630714Y-116541108D01*
X156639427Y-116366685D01*
X156640497Y-116361611D01*
X156889827Y-116361611D01*
X156896694Y-116377968D01*
X156924917Y-116386988D01*
X156983127Y-116390854D01*
X157079958Y-116391749D01*
X157117243Y-116391765D01*
X157230683Y-116390413D01*
X157302622Y-116385505D01*
X157341313Y-116375760D01*
X157355005Y-116359899D01*
X157355490Y-116354805D01*
X157339863Y-116314326D01*
X157300753Y-116257621D01*
X157283939Y-116237766D01*
X157221519Y-116181611D01*
X157156453Y-116159532D01*
X157121397Y-116157686D01*
X157026558Y-116180766D01*
X156947027Y-116242759D01*
X156896577Y-116332802D01*
X156895683Y-116335735D01*
X156889827Y-116361611D01*
X156640497Y-116361611D01*
X156668399Y-116229343D01*
X156720590Y-116119461D01*
X156784421Y-116041461D01*
X156902433Y-115956882D01*
X157041158Y-115911686D01*
X157188710Y-115907600D01*
X157333204Y-115946354D01*
X157333204Y-115946354D01*
G37*
X157333204Y-115946354D02*
X157358019Y-115958037D01*
X157443906Y-116020951D01*
X157525121Y-116112769D01*
X157585764Y-116213868D01*
X157603012Y-116260349D01*
X157618749Y-116343376D01*
X157628133Y-116443713D01*
X157629272Y-116485147D01*
X157629411Y-116615882D01*
X156876953Y-116615882D01*
X156892993Y-116684363D01*
X156932363Y-116765355D01*
X157001194Y-116835351D01*
X157083081Y-116880441D01*
X157135263Y-116889804D01*
X157206029Y-116878441D01*
X157290460Y-116849943D01*
X157319142Y-116836831D01*
X157425209Y-116783858D01*
X157515728Y-116852901D01*
X157567961Y-116899597D01*
X157595753Y-116938140D01*
X157597160Y-116949452D01*
X157572332Y-116976868D01*
X157517917Y-117018532D01*
X157468528Y-117051037D01*
X157335252Y-117109468D01*
X157185839Y-117135915D01*
X157037751Y-117129039D01*
X156919705Y-117093096D01*
X156798018Y-117016101D01*
X156711540Y-116914728D01*
X156657441Y-116783570D01*
X156632891Y-116617224D01*
X156630714Y-116541108D01*
X156639427Y-116366685D01*
X156640497Y-116361611D01*
X156889827Y-116361611D01*
X156896694Y-116377968D01*
X156924917Y-116386988D01*
X156983127Y-116390854D01*
X157079958Y-116391749D01*
X157117243Y-116391765D01*
X157230683Y-116390413D01*
X157302622Y-116385505D01*
X157341313Y-116375760D01*
X157355005Y-116359899D01*
X157355490Y-116354805D01*
X157339863Y-116314326D01*
X157300753Y-116257621D01*
X157283939Y-116237766D01*
X157221519Y-116181611D01*
X157156453Y-116159532D01*
X157121397Y-116157686D01*
X157026558Y-116180766D01*
X156947027Y-116242759D01*
X156896577Y-116332802D01*
X156895683Y-116335735D01*
X156889827Y-116361611D01*
X156640497Y-116361611D01*
X156668399Y-116229343D01*
X156720590Y-116119461D01*
X156784421Y-116041461D01*
X156902433Y-115956882D01*
X157041158Y-115911686D01*
X157188710Y-115907600D01*
X157333204Y-115946354D01*
G36*
X160047759Y-115914345D02*
X160142059Y-115932229D01*
X160239890Y-115969633D01*
X160250343Y-115974402D01*
X160324531Y-116013412D01*
X160375910Y-116049664D01*
X160392517Y-116072887D01*
X160376702Y-116110761D01*
X160338288Y-116166644D01*
X160321237Y-116187505D01*
X160250969Y-116269618D01*
X160160379Y-116216168D01*
X160074164Y-116180561D01*
X159974549Y-116161529D01*
X159879019Y-116160326D01*
X159805061Y-116178210D01*
X159787312Y-116189373D01*
X159753512Y-116240553D01*
X159749404Y-116299509D01*
X159774696Y-116345567D01*
X159789656Y-116354499D01*
X159834486Y-116365592D01*
X159913286Y-116378630D01*
X160010426Y-116391088D01*
X160028346Y-116393042D01*
X160184365Y-116420030D01*
X160297523Y-116465873D01*
X160372569Y-116534803D01*
X160414253Y-116631054D01*
X160427238Y-116748617D01*
X160409299Y-116882254D01*
X160351050Y-116987195D01*
X160252255Y-117063630D01*
X160112682Y-117111748D01*
X159957745Y-117130732D01*
X159831398Y-117130504D01*
X159728913Y-117113262D01*
X159658921Y-117089457D01*
X159570483Y-117047978D01*
X159488754Y-116999842D01*
X159459705Y-116978655D01*
X159385000Y-116917676D01*
X159475098Y-116826508D01*
X159565196Y-116735339D01*
X159667632Y-116803128D01*
X159770374Y-116854042D01*
X159880087Y-116880673D01*
X159985551Y-116883483D01*
X160075546Y-116862935D01*
X160138854Y-116819493D01*
X160159296Y-116782838D01*
X160156229Y-116724053D01*
X160105434Y-116679099D01*
X160007048Y-116648057D01*
X159899256Y-116633710D01*
X159733365Y-116606337D01*
X159610124Y-116554693D01*
X159527886Y-116477266D01*
X159485001Y-116372544D01*
X159479060Y-116248387D01*
X159508406Y-116118702D01*
X159575309Y-116020677D01*
X159680371Y-115953866D01*
X159824190Y-115917820D01*
X159930738Y-115910754D01*
X160047759Y-115914345D01*
X160047759Y-115914345D01*
G37*
X160047759Y-115914345D02*
X160142059Y-115932229D01*
X160239890Y-115969633D01*
X160250343Y-115974402D01*
X160324531Y-116013412D01*
X160375910Y-116049664D01*
X160392517Y-116072887D01*
X160376702Y-116110761D01*
X160338288Y-116166644D01*
X160321237Y-116187505D01*
X160250969Y-116269618D01*
X160160379Y-116216168D01*
X160074164Y-116180561D01*
X159974549Y-116161529D01*
X159879019Y-116160326D01*
X159805061Y-116178210D01*
X159787312Y-116189373D01*
X159753512Y-116240553D01*
X159749404Y-116299509D01*
X159774696Y-116345567D01*
X159789656Y-116354499D01*
X159834486Y-116365592D01*
X159913286Y-116378630D01*
X160010426Y-116391088D01*
X160028346Y-116393042D01*
X160184365Y-116420030D01*
X160297523Y-116465873D01*
X160372569Y-116534803D01*
X160414253Y-116631054D01*
X160427238Y-116748617D01*
X160409299Y-116882254D01*
X160351050Y-116987195D01*
X160252255Y-117063630D01*
X160112682Y-117111748D01*
X159957745Y-117130732D01*
X159831398Y-117130504D01*
X159728913Y-117113262D01*
X159658921Y-117089457D01*
X159570483Y-117047978D01*
X159488754Y-116999842D01*
X159459705Y-116978655D01*
X159385000Y-116917676D01*
X159475098Y-116826508D01*
X159565196Y-116735339D01*
X159667632Y-116803128D01*
X159770374Y-116854042D01*
X159880087Y-116880673D01*
X159985551Y-116883483D01*
X160075546Y-116862935D01*
X160138854Y-116819493D01*
X160159296Y-116782838D01*
X160156229Y-116724053D01*
X160105434Y-116679099D01*
X160007048Y-116648057D01*
X159899256Y-116633710D01*
X159733365Y-116606337D01*
X159610124Y-116554693D01*
X159527886Y-116477266D01*
X159485001Y-116372544D01*
X159479060Y-116248387D01*
X159508406Y-116118702D01*
X159575309Y-116020677D01*
X159680371Y-115953866D01*
X159824190Y-115917820D01*
X159930738Y-115910754D01*
X160047759Y-115914345D01*
G36*
X161229547Y-115933364D02*
X161355502Y-116001959D01*
X161454047Y-116110245D01*
X161500478Y-116198315D01*
X161520412Y-116276101D01*
X161533328Y-116386993D01*
X161538863Y-116514738D01*
X161536654Y-116643084D01*
X161526337Y-116755779D01*
X161514286Y-116815969D01*
X161473634Y-116898311D01*
X161403230Y-116985770D01*
X161318382Y-117062251D01*
X161234397Y-117111655D01*
X161232349Y-117112439D01*
X161128134Y-117134027D01*
X161004627Y-117134562D01*
X160887261Y-117114908D01*
X160841942Y-117099155D01*
X160725220Y-117032966D01*
X160641624Y-116946246D01*
X160586701Y-116831438D01*
X160555995Y-116680982D01*
X160549047Y-116602173D01*
X160549933Y-116503145D01*
X160816862Y-116503145D01*
X160825854Y-116647645D01*
X160851736Y-116757760D01*
X160892868Y-116828116D01*
X160922172Y-116848235D01*
X160997251Y-116862265D01*
X161086494Y-116858111D01*
X161163650Y-116837922D01*
X161183883Y-116826815D01*
X161237265Y-116762123D01*
X161272500Y-116663119D01*
X161287498Y-116542632D01*
X161280172Y-116413494D01*
X161263799Y-116335775D01*
X161216790Y-116245771D01*
X161142582Y-116189509D01*
X161053209Y-116170057D01*
X160960707Y-116190481D01*
X160889653Y-116240437D01*
X160852312Y-116281655D01*
X160830518Y-116322281D01*
X160820130Y-116377264D01*
X160817006Y-116461549D01*
X160816862Y-116503145D01*
X160549933Y-116503145D01*
X160550930Y-116391874D01*
X160585180Y-116219423D01*
X160651802Y-116084814D01*
X160750799Y-115988040D01*
X160882175Y-115929094D01*
X160910385Y-115922259D01*
X161079926Y-115906213D01*
X161229547Y-115933364D01*
X161229547Y-115933364D01*
G37*
X161229547Y-115933364D02*
X161355502Y-116001959D01*
X161454047Y-116110245D01*
X161500478Y-116198315D01*
X161520412Y-116276101D01*
X161533328Y-116386993D01*
X161538863Y-116514738D01*
X161536654Y-116643084D01*
X161526337Y-116755779D01*
X161514286Y-116815969D01*
X161473634Y-116898311D01*
X161403230Y-116985770D01*
X161318382Y-117062251D01*
X161234397Y-117111655D01*
X161232349Y-117112439D01*
X161128134Y-117134027D01*
X161004627Y-117134562D01*
X160887261Y-117114908D01*
X160841942Y-117099155D01*
X160725220Y-117032966D01*
X160641624Y-116946246D01*
X160586701Y-116831438D01*
X160555995Y-116680982D01*
X160549047Y-116602173D01*
X160549933Y-116503145D01*
X160816862Y-116503145D01*
X160825854Y-116647645D01*
X160851736Y-116757760D01*
X160892868Y-116828116D01*
X160922172Y-116848235D01*
X160997251Y-116862265D01*
X161086494Y-116858111D01*
X161163650Y-116837922D01*
X161183883Y-116826815D01*
X161237265Y-116762123D01*
X161272500Y-116663119D01*
X161287498Y-116542632D01*
X161280172Y-116413494D01*
X161263799Y-116335775D01*
X161216790Y-116245771D01*
X161142582Y-116189509D01*
X161053209Y-116170057D01*
X160960707Y-116190481D01*
X160889653Y-116240437D01*
X160852312Y-116281655D01*
X160830518Y-116322281D01*
X160820130Y-116377264D01*
X160817006Y-116461549D01*
X160816862Y-116503145D01*
X160549933Y-116503145D01*
X160550930Y-116391874D01*
X160585180Y-116219423D01*
X160651802Y-116084814D01*
X160750799Y-115988040D01*
X160882175Y-115929094D01*
X160910385Y-115922259D01*
X161079926Y-115906213D01*
X161229547Y-115933364D01*
G36*
X161987254Y-116306245D02*
X161989608Y-116488879D01*
X161998207Y-116627600D01*
X162015360Y-116728147D01*
X162043374Y-116796254D01*
X162084557Y-116837659D01*
X162141217Y-116858097D01*
X162211372Y-116863318D01*
X162284848Y-116857468D01*
X162340657Y-116836093D01*
X162381109Y-116793458D01*
X162408509Y-116723825D01*
X162425167Y-116621460D01*
X162433389Y-116480624D01*
X162435490Y-116306245D01*
X162435490Y-115918628D01*
X162709411Y-115918628D01*
X162709411Y-117113922D01*
X162572451Y-117113922D01*
X162489884Y-117110576D01*
X162447368Y-117098826D01*
X162435490Y-117076520D01*
X162428336Y-117056654D01*
X162399865Y-117060857D01*
X162342476Y-117088971D01*
X162210945Y-117132342D01*
X162071438Y-117129270D01*
X161937765Y-117082174D01*
X161874108Y-117044971D01*
X161825553Y-117004691D01*
X161790081Y-116954291D01*
X161765674Y-116886729D01*
X161750313Y-116794965D01*
X161741982Y-116671955D01*
X161738662Y-116510659D01*
X161738235Y-116385928D01*
X161738235Y-115918628D01*
X161987254Y-115918628D01*
X161987254Y-116306245D01*
X161987254Y-116306245D01*
G37*
X161987254Y-116306245D02*
X161989608Y-116488879D01*
X161998207Y-116627600D01*
X162015360Y-116728147D01*
X162043374Y-116796254D01*
X162084557Y-116837659D01*
X162141217Y-116858097D01*
X162211372Y-116863318D01*
X162284848Y-116857468D01*
X162340657Y-116836093D01*
X162381109Y-116793458D01*
X162408509Y-116723825D01*
X162425167Y-116621460D01*
X162433389Y-116480624D01*
X162435490Y-116306245D01*
X162435490Y-115918628D01*
X162709411Y-115918628D01*
X162709411Y-117113922D01*
X162572451Y-117113922D01*
X162489884Y-117110576D01*
X162447368Y-117098826D01*
X162435490Y-117076520D01*
X162428336Y-117056654D01*
X162399865Y-117060857D01*
X162342476Y-117088971D01*
X162210945Y-117132342D01*
X162071438Y-117129270D01*
X161937765Y-117082174D01*
X161874108Y-117044971D01*
X161825553Y-117004691D01*
X161790081Y-116954291D01*
X161765674Y-116886729D01*
X161750313Y-116794965D01*
X161741982Y-116671955D01*
X161738662Y-116510659D01*
X161738235Y-116385928D01*
X161738235Y-115918628D01*
X161987254Y-115918628D01*
X161987254Y-116306245D01*
G36*
X164410976Y-115929056D02*
X164555256Y-115990348D01*
X164600699Y-116020185D01*
X164658779Y-116066036D01*
X164695238Y-116102089D01*
X164701568Y-116113832D01*
X164683693Y-116139889D01*
X164637950Y-116184105D01*
X164601328Y-116214965D01*
X164501088Y-116295520D01*
X164421935Y-116228918D01*
X164360769Y-116185921D01*
X164301129Y-116171079D01*
X164232872Y-116174704D01*
X164124482Y-116201652D01*
X164049872Y-116257587D01*
X164004530Y-116348014D01*
X163983947Y-116478435D01*
X163983942Y-116478517D01*
X163985722Y-116624290D01*
X164013387Y-116731245D01*
X164068571Y-116804064D01*
X164106192Y-116828723D01*
X164206105Y-116859431D01*
X164312822Y-116859449D01*
X164405669Y-116829655D01*
X164427647Y-116815098D01*
X164482765Y-116777914D01*
X164525859Y-116771820D01*
X164572335Y-116799496D01*
X164623716Y-116849205D01*
X164705046Y-116933116D01*
X164614749Y-117007546D01*
X164475236Y-117091549D01*
X164317912Y-117132947D01*
X164153503Y-117129950D01*
X164045531Y-117102500D01*
X163919331Y-117034620D01*
X163818401Y-116927831D01*
X163772548Y-116852451D01*
X163735410Y-116744297D01*
X163716827Y-116607318D01*
X163716684Y-116458864D01*
X163734865Y-116316281D01*
X163771255Y-116196918D01*
X163776987Y-116184680D01*
X163861865Y-116064655D01*
X163976782Y-115977267D01*
X164112659Y-115924329D01*
X164260417Y-115907654D01*
X164410976Y-115929056D01*
X164410976Y-115929056D01*
G37*
X164410976Y-115929056D02*
X164555256Y-115990348D01*
X164600699Y-116020185D01*
X164658779Y-116066036D01*
X164695238Y-116102089D01*
X164701568Y-116113832D01*
X164683693Y-116139889D01*
X164637950Y-116184105D01*
X164601328Y-116214965D01*
X164501088Y-116295520D01*
X164421935Y-116228918D01*
X164360769Y-116185921D01*
X164301129Y-116171079D01*
X164232872Y-116174704D01*
X164124482Y-116201652D01*
X164049872Y-116257587D01*
X164004530Y-116348014D01*
X163983947Y-116478435D01*
X163983942Y-116478517D01*
X163985722Y-116624290D01*
X164013387Y-116731245D01*
X164068571Y-116804064D01*
X164106192Y-116828723D01*
X164206105Y-116859431D01*
X164312822Y-116859449D01*
X164405669Y-116829655D01*
X164427647Y-116815098D01*
X164482765Y-116777914D01*
X164525859Y-116771820D01*
X164572335Y-116799496D01*
X164623716Y-116849205D01*
X164705046Y-116933116D01*
X164614749Y-117007546D01*
X164475236Y-117091549D01*
X164317912Y-117132947D01*
X164153503Y-117129950D01*
X164045531Y-117102500D01*
X163919331Y-117034620D01*
X163818401Y-116927831D01*
X163772548Y-116852451D01*
X163735410Y-116744297D01*
X163716827Y-116607318D01*
X163716684Y-116458864D01*
X163734865Y-116316281D01*
X163771255Y-116196918D01*
X163776987Y-116184680D01*
X163861865Y-116064655D01*
X163976782Y-115977267D01*
X164112659Y-115924329D01*
X164260417Y-115907654D01*
X164410976Y-115929056D01*
G36*
X165323287Y-115914355D02*
X165387051Y-115929845D01*
X165509300Y-115986569D01*
X165613834Y-116073202D01*
X165686180Y-116177074D01*
X165696119Y-116200396D01*
X165709754Y-116261484D01*
X165719298Y-116351853D01*
X165722549Y-116443190D01*
X165722549Y-116615882D01*
X165361470Y-116615882D01*
X165212546Y-116616445D01*
X165107632Y-116619864D01*
X165040937Y-116628731D01*
X165006666Y-116645641D01*
X164999028Y-116673189D01*
X165012229Y-116713968D01*
X165035877Y-116761683D01*
X165101843Y-116841314D01*
X165193512Y-116880987D01*
X165305555Y-116879695D01*
X165432472Y-116836514D01*
X165542158Y-116783224D01*
X165633173Y-116855191D01*
X165724188Y-116927157D01*
X165638563Y-117006269D01*
X165524250Y-117081017D01*
X165383666Y-117126084D01*
X165232449Y-117138696D01*
X165086236Y-117116079D01*
X165062647Y-117108405D01*
X164934141Y-117041296D01*
X164838551Y-116941247D01*
X164773861Y-116805271D01*
X164738057Y-116630380D01*
X164737640Y-116626632D01*
X164734434Y-116436032D01*
X164747393Y-116368035D01*
X165000392Y-116368035D01*
X165023627Y-116378491D01*
X165086710Y-116386500D01*
X165179706Y-116391073D01*
X165238638Y-116391765D01*
X165348537Y-116391332D01*
X165417252Y-116388578D01*
X165453405Y-116381321D01*
X165465615Y-116367376D01*
X165462504Y-116344562D01*
X165459894Y-116335735D01*
X165415344Y-116252800D01*
X165345279Y-116185960D01*
X165283446Y-116156589D01*
X165201301Y-116158362D01*
X165118062Y-116194990D01*
X165048238Y-116255634D01*
X165006337Y-116329456D01*
X165000392Y-116368035D01*
X164747393Y-116368035D01*
X164766385Y-116268395D01*
X164829773Y-116127711D01*
X164920878Y-116017974D01*
X165035978Y-115943174D01*
X165171355Y-115907304D01*
X165323287Y-115914355D01*
X165323287Y-115914355D01*
G37*
X165323287Y-115914355D02*
X165387051Y-115929845D01*
X165509300Y-115986569D01*
X165613834Y-116073202D01*
X165686180Y-116177074D01*
X165696119Y-116200396D01*
X165709754Y-116261484D01*
X165719298Y-116351853D01*
X165722549Y-116443190D01*
X165722549Y-116615882D01*
X165361470Y-116615882D01*
X165212546Y-116616445D01*
X165107632Y-116619864D01*
X165040937Y-116628731D01*
X165006666Y-116645641D01*
X164999028Y-116673189D01*
X165012229Y-116713968D01*
X165035877Y-116761683D01*
X165101843Y-116841314D01*
X165193512Y-116880987D01*
X165305555Y-116879695D01*
X165432472Y-116836514D01*
X165542158Y-116783224D01*
X165633173Y-116855191D01*
X165724188Y-116927157D01*
X165638563Y-117006269D01*
X165524250Y-117081017D01*
X165383666Y-117126084D01*
X165232449Y-117138696D01*
X165086236Y-117116079D01*
X165062647Y-117108405D01*
X164934141Y-117041296D01*
X164838551Y-116941247D01*
X164773861Y-116805271D01*
X164738057Y-116630380D01*
X164737640Y-116626632D01*
X164734434Y-116436032D01*
X164747393Y-116368035D01*
X165000392Y-116368035D01*
X165023627Y-116378491D01*
X165086710Y-116386500D01*
X165179706Y-116391073D01*
X165238638Y-116391765D01*
X165348537Y-116391332D01*
X165417252Y-116388578D01*
X165453405Y-116381321D01*
X165465615Y-116367376D01*
X165462504Y-116344562D01*
X165459894Y-116335735D01*
X165415344Y-116252800D01*
X165345279Y-116185960D01*
X165283446Y-116156589D01*
X165201301Y-116158362D01*
X165118062Y-116194990D01*
X165048238Y-116255634D01*
X165006337Y-116329456D01*
X165000392Y-116368035D01*
X164747393Y-116368035D01*
X164766385Y-116268395D01*
X164829773Y-116127711D01*
X164920878Y-116017974D01*
X165035978Y-115943174D01*
X165171355Y-115907304D01*
X165323287Y-115914355D01*
G36*
X158526760Y-115939199D02*
X158588736Y-115968802D01*
X158648759Y-116011561D01*
X158694486Y-116060775D01*
X158727793Y-116123544D01*
X158750555Y-116206971D01*
X158764647Y-116318159D01*
X158771942Y-116464209D01*
X158774318Y-116652223D01*
X158774355Y-116671912D01*
X158774902Y-117113922D01*
X158500980Y-117113922D01*
X158500980Y-116706435D01*
X158500785Y-116555471D01*
X158499436Y-116446056D01*
X158495788Y-116369933D01*
X158488696Y-116318848D01*
X158477013Y-116284545D01*
X158459594Y-116258768D01*
X158435329Y-116233298D01*
X158350435Y-116178571D01*
X158257761Y-116168416D01*
X158169473Y-116203017D01*
X158138770Y-116228770D01*
X158116229Y-116252982D01*
X158100046Y-116278912D01*
X158089168Y-116314708D01*
X158082542Y-116368519D01*
X158079115Y-116448493D01*
X158077834Y-116562779D01*
X158077647Y-116701907D01*
X158077647Y-117113922D01*
X157803725Y-117113922D01*
X157803725Y-115918628D01*
X157940686Y-115918628D01*
X158022916Y-115921879D01*
X158065340Y-115933426D01*
X158077641Y-115955952D01*
X158077647Y-115956620D01*
X158083354Y-115978681D01*
X158108527Y-115976177D01*
X158158578Y-115951937D01*
X158272094Y-115916271D01*
X158401945Y-115912305D01*
X158526760Y-115939199D01*
X158526760Y-115939199D01*
G37*
X158526760Y-115939199D02*
X158588736Y-115968802D01*
X158648759Y-116011561D01*
X158694486Y-116060775D01*
X158727793Y-116123544D01*
X158750555Y-116206971D01*
X158764647Y-116318159D01*
X158771942Y-116464209D01*
X158774318Y-116652223D01*
X158774355Y-116671912D01*
X158774902Y-117113922D01*
X158500980Y-117113922D01*
X158500980Y-116706435D01*
X158500785Y-116555471D01*
X158499436Y-116446056D01*
X158495788Y-116369933D01*
X158488696Y-116318848D01*
X158477013Y-116284545D01*
X158459594Y-116258768D01*
X158435329Y-116233298D01*
X158350435Y-116178571D01*
X158257761Y-116168416D01*
X158169473Y-116203017D01*
X158138770Y-116228770D01*
X158116229Y-116252982D01*
X158100046Y-116278912D01*
X158089168Y-116314708D01*
X158082542Y-116368519D01*
X158079115Y-116448493D01*
X158077834Y-116562779D01*
X158077647Y-116701907D01*
X158077647Y-117113922D01*
X157803725Y-117113922D01*
X157803725Y-115918628D01*
X157940686Y-115918628D01*
X158022916Y-115921879D01*
X158065340Y-115933426D01*
X158077641Y-115955952D01*
X158077647Y-115956620D01*
X158083354Y-115978681D01*
X158108527Y-115976177D01*
X158158578Y-115951937D01*
X158272094Y-115916271D01*
X158401945Y-115912305D01*
X158526760Y-115939199D01*
G36*
X163583637Y-115917472D02*
X163669290Y-115943641D01*
X163724437Y-115976707D01*
X163742401Y-116002855D01*
X163737457Y-116033852D01*
X163705372Y-116082547D01*
X163678243Y-116117035D01*
X163622317Y-116179383D01*
X163580299Y-116205615D01*
X163544480Y-116203903D01*
X163438224Y-116176863D01*
X163360189Y-116178091D01*
X163296820Y-116208735D01*
X163275546Y-116226670D01*
X163207451Y-116289779D01*
X163207451Y-117113922D01*
X162933529Y-117113922D01*
X162933529Y-115918628D01*
X163070490Y-115918628D01*
X163152719Y-115921879D01*
X163195144Y-115933426D01*
X163207445Y-115955952D01*
X163207451Y-115956620D01*
X163213260Y-115980215D01*
X163239531Y-115977138D01*
X163275931Y-115960115D01*
X163351111Y-115928439D01*
X163412158Y-115909381D01*
X163490708Y-115904496D01*
X163583637Y-115917472D01*
X163583637Y-115917472D01*
G37*
X163583637Y-115917472D02*
X163669290Y-115943641D01*
X163724437Y-115976707D01*
X163742401Y-116002855D01*
X163737457Y-116033852D01*
X163705372Y-116082547D01*
X163678243Y-116117035D01*
X163622317Y-116179383D01*
X163580299Y-116205615D01*
X163544480Y-116203903D01*
X163438224Y-116176863D01*
X163360189Y-116178091D01*
X163296820Y-116208735D01*
X163275546Y-116226670D01*
X163207451Y-116289779D01*
X163207451Y-117113922D01*
X162933529Y-117113922D01*
X162933529Y-115918628D01*
X163070490Y-115918628D01*
X163152719Y-115921879D01*
X163195144Y-115933426D01*
X163207445Y-115955952D01*
X163207451Y-115956620D01*
X163213260Y-115980215D01*
X163239531Y-115977138D01*
X163275931Y-115960115D01*
X163351111Y-115928439D01*
X163412158Y-115909381D01*
X163490708Y-115904496D01*
X163583637Y-115917472D01*
G36*
X160766535Y-107663172D02*
X160879117Y-108260363D01*
X161294531Y-108431610D01*
X161709944Y-108602857D01*
X162208302Y-108263978D01*
X162347868Y-108169622D01*
X162474028Y-108085375D01*
X162580895Y-108015083D01*
X162662582Y-107962592D01*
X162713201Y-107931749D01*
X162726986Y-107925098D01*
X162751820Y-107942203D01*
X162804888Y-107989489D01*
X162880240Y-108060917D01*
X162971929Y-108150445D01*
X163074007Y-108252034D01*
X163180526Y-108359643D01*
X163285536Y-108467232D01*
X163383091Y-108568760D01*
X163467242Y-108658186D01*
X163532040Y-108729471D01*
X163571538Y-108776573D01*
X163580980Y-108792337D01*
X163567391Y-108821398D01*
X163529293Y-108885066D01*
X163470694Y-108977112D01*
X163395597Y-109091309D01*
X163308009Y-109221429D01*
X163257254Y-109295646D01*
X163164745Y-109431167D01*
X163082540Y-109553461D01*
X163014630Y-109656440D01*
X162965000Y-109734018D01*
X162937640Y-109780106D01*
X162933529Y-109789792D01*
X162942849Y-109817319D01*
X162968254Y-109881473D01*
X163005911Y-109973235D01*
X163051986Y-110083584D01*
X163102646Y-110203500D01*
X163154059Y-110323964D01*
X163202389Y-110435954D01*
X163243806Y-110530452D01*
X163274474Y-110598437D01*
X163290562Y-110630888D01*
X163291511Y-110632165D01*
X163316772Y-110638362D01*
X163384046Y-110652185D01*
X163486360Y-110672277D01*
X163616741Y-110697279D01*
X163768216Y-110725831D01*
X163856594Y-110742296D01*
X164018452Y-110773114D01*
X164164649Y-110802439D01*
X164287787Y-110828666D01*
X164380469Y-110850191D01*
X164435301Y-110865410D01*
X164446323Y-110870238D01*
X164457119Y-110902919D01*
X164465829Y-110976730D01*
X164472460Y-111083037D01*
X164477018Y-111213212D01*
X164479509Y-111358621D01*
X164479938Y-111510635D01*
X164478311Y-111660622D01*
X164474635Y-111799951D01*
X164468915Y-111919990D01*
X164461158Y-112012110D01*
X164451368Y-112067677D01*
X164445496Y-112079245D01*
X164410399Y-112093110D01*
X164336028Y-112112933D01*
X164232223Y-112136384D01*
X164108819Y-112161136D01*
X164065741Y-112169143D01*
X163858047Y-112207186D01*
X163693984Y-112237824D01*
X163568130Y-112262274D01*
X163475065Y-112281754D01*
X163409367Y-112297481D01*
X163365617Y-112310673D01*
X163338392Y-112322549D01*
X163322272Y-112334325D01*
X163320017Y-112336653D01*
X163297503Y-112374145D01*
X163263158Y-112447110D01*
X163220411Y-112546612D01*
X163172692Y-112663718D01*
X163123430Y-112789493D01*
X163076055Y-112915002D01*
X163033995Y-113031310D01*
X163000680Y-113129484D01*
X162979541Y-113200588D01*
X162974005Y-113235687D01*
X162974466Y-113236917D01*
X162993223Y-113265606D01*
X163035776Y-113328730D01*
X163097653Y-113419718D01*
X163174382Y-113532000D01*
X163261491Y-113659005D01*
X163286299Y-113695098D01*
X163374753Y-113825948D01*
X163452588Y-113945336D01*
X163515566Y-114046407D01*
X163559445Y-114122304D01*
X163579985Y-114166172D01*
X163580980Y-114171562D01*
X163563722Y-114199889D01*
X163516036Y-114256006D01*
X163444050Y-114333882D01*
X163353897Y-114427485D01*
X163251705Y-114530786D01*
X163143606Y-114637751D01*
X163035728Y-114742351D01*
X162934204Y-114838554D01*
X162845162Y-114920329D01*
X162774733Y-114981645D01*
X162729047Y-115016471D01*
X162716409Y-115022157D01*
X162686991Y-115008765D01*
X162626761Y-114972644D01*
X162545530Y-114919881D01*
X162483030Y-114877412D01*
X162369785Y-114799485D01*
X162235674Y-114707729D01*
X162101155Y-114616120D01*
X162028833Y-114567091D01*
X161784038Y-114401515D01*
X161578551Y-114512620D01*
X161484936Y-114561293D01*
X161405330Y-114599126D01*
X161351467Y-114620703D01*
X161337757Y-114623706D01*
X161321270Y-114601538D01*
X161288745Y-114538894D01*
X161242609Y-114441554D01*
X161185290Y-114315294D01*
X161119216Y-114165895D01*
X161046815Y-113999133D01*
X160970516Y-113820787D01*
X160892746Y-113636636D01*
X160815934Y-113452457D01*
X160742506Y-113274030D01*
X160674892Y-113107132D01*
X160615520Y-112957542D01*
X160566816Y-112831038D01*
X160531210Y-112733399D01*
X160511130Y-112670402D01*
X160507900Y-112648766D01*
X160533496Y-112621169D01*
X160589539Y-112576370D01*
X160664311Y-112523679D01*
X160670587Y-112519510D01*
X160863845Y-112364814D01*
X161019674Y-112184336D01*
X161136724Y-111983847D01*
X161213645Y-111769119D01*
X161249086Y-111545922D01*
X161241697Y-111320026D01*
X161190127Y-111097204D01*
X161093026Y-110883224D01*
X161064458Y-110836409D01*
X160915868Y-110647363D01*
X160740327Y-110495557D01*
X160543910Y-110381779D01*
X160332693Y-110306820D01*
X160112753Y-110271467D01*
X159890163Y-110276512D01*
X159671001Y-110322744D01*
X159461342Y-110410951D01*
X159267261Y-110541924D01*
X159207226Y-110595082D01*
X159054435Y-110761484D01*
X158943097Y-110936657D01*
X158866723Y-111133011D01*
X158824187Y-111327462D01*
X158813686Y-111546087D01*
X158848701Y-111765797D01*
X158925673Y-111979165D01*
X159041047Y-112178767D01*
X159191266Y-112357174D01*
X159372773Y-112506962D01*
X159396627Y-112522751D01*
X159472201Y-112574457D01*
X159529651Y-112619257D01*
X159557117Y-112647862D01*
X159557517Y-112648766D01*
X159551620Y-112679709D01*
X159528245Y-112749936D01*
X159489821Y-112853670D01*
X159438777Y-112985135D01*
X159377542Y-113138552D01*
X159308544Y-113308146D01*
X159234214Y-113488138D01*
X159156978Y-113672753D01*
X159079268Y-113856213D01*
X159003511Y-114032741D01*
X158932137Y-114196559D01*
X158867574Y-114341892D01*
X158812252Y-114462962D01*
X158768600Y-114553992D01*
X158739046Y-114609205D01*
X158727144Y-114623706D01*
X158690777Y-114612414D01*
X158622730Y-114582130D01*
X158534737Y-114538265D01*
X158486351Y-114512620D01*
X158280863Y-114401515D01*
X158036068Y-114567091D01*
X157911106Y-114651915D01*
X157774295Y-114745261D01*
X157646089Y-114833153D01*
X157581871Y-114877412D01*
X157491551Y-114938063D01*
X157415071Y-114986126D01*
X157362407Y-115015515D01*
X157345302Y-115021727D01*
X157320405Y-115004968D01*
X157265305Y-114958181D01*
X157185343Y-114886225D01*
X157085861Y-114793957D01*
X156972200Y-114686235D01*
X156900315Y-114617071D01*
X156774551Y-114493502D01*
X156665863Y-114382979D01*
X156578645Y-114290230D01*
X156517289Y-114219982D01*
X156486191Y-114176965D01*
X156483208Y-114168235D01*
X156497053Y-114135029D01*
X156535312Y-114067887D01*
X156593742Y-113973608D01*
X156668097Y-113858990D01*
X156754135Y-113730828D01*
X156778603Y-113695098D01*
X156867755Y-113565234D01*
X156947738Y-113448314D01*
X157014080Y-113350907D01*
X157062311Y-113279584D01*
X157087957Y-113240915D01*
X157090435Y-113236917D01*
X157086729Y-113206100D01*
X157067061Y-113138344D01*
X157034860Y-113042584D01*
X156993555Y-112927754D01*
X156946575Y-112802789D01*
X156897349Y-112676624D01*
X156849308Y-112558193D01*
X156805881Y-112456430D01*
X156770496Y-112380271D01*
X156746584Y-112338649D01*
X156744884Y-112336653D01*
X156730262Y-112324758D01*
X156705565Y-112312995D01*
X156665372Y-112300146D01*
X156604263Y-112284994D01*
X156516817Y-112266321D01*
X156397612Y-112242910D01*
X156241227Y-112213542D01*
X156042243Y-112177000D01*
X155999160Y-112169143D01*
X155871471Y-112144472D01*
X155760153Y-112120338D01*
X155675045Y-112099069D01*
X155625983Y-112082993D01*
X155619405Y-112079245D01*
X155608564Y-112046018D01*
X155599753Y-111971766D01*
X155592976Y-111865121D01*
X155588240Y-111734712D01*
X155585550Y-111589172D01*
X155584913Y-111437131D01*
X155586334Y-111287221D01*
X155589820Y-111148073D01*
X155595376Y-111028317D01*
X155603008Y-110936586D01*
X155612722Y-110881511D01*
X155618578Y-110870238D01*
X155651180Y-110858868D01*
X155725418Y-110840369D01*
X155833896Y-110816347D01*
X155969217Y-110788407D01*
X156123985Y-110758153D01*
X156208308Y-110742296D01*
X156368296Y-110712389D01*
X156510967Y-110685295D01*
X156629348Y-110662376D01*
X156716465Y-110644988D01*
X156765345Y-110634492D01*
X156773390Y-110632165D01*
X156786987Y-110605931D01*
X156815729Y-110542740D01*
X156855785Y-110451622D01*
X156903324Y-110341602D01*
X156954515Y-110221710D01*
X157005526Y-110100972D01*
X157052526Y-109988416D01*
X157091684Y-109893071D01*
X157119169Y-109823962D01*
X157131149Y-109790119D01*
X157131372Y-109788640D01*
X157117791Y-109761942D01*
X157079715Y-109700505D01*
X157021147Y-109610434D01*
X156946088Y-109497835D01*
X156858540Y-109368815D01*
X156807647Y-109294706D01*
X156714909Y-109158822D01*
X156632541Y-109035454D01*
X156564561Y-108930842D01*
X156514988Y-108851228D01*
X156487842Y-108802852D01*
X156483921Y-108792007D01*
X156500775Y-108766765D01*
X156547368Y-108712869D01*
X156617749Y-108636358D01*
X156705965Y-108543268D01*
X156806065Y-108439640D01*
X156912098Y-108331509D01*
X157018111Y-108224915D01*
X157118152Y-108125895D01*
X157206270Y-108040487D01*
X157276513Y-107974730D01*
X157322928Y-107934661D01*
X157338456Y-107925098D01*
X157363739Y-107938545D01*
X157424211Y-107976320D01*
X157513992Y-108034580D01*
X157627203Y-108109479D01*
X157757964Y-108197170D01*
X157856600Y-108263978D01*
X158354957Y-108602857D01*
X158770371Y-108431610D01*
X159185784Y-108260363D01*
X159298366Y-107663172D01*
X159410949Y-107065980D01*
X160653952Y-107065980D01*
X160766535Y-107663172D01*
X160766535Y-107663172D01*
G37*
X160766535Y-107663172D02*
X160879117Y-108260363D01*
X161294531Y-108431610D01*
X161709944Y-108602857D01*
X162208302Y-108263978D01*
X162347868Y-108169622D01*
X162474028Y-108085375D01*
X162580895Y-108015083D01*
X162662582Y-107962592D01*
X162713201Y-107931749D01*
X162726986Y-107925098D01*
X162751820Y-107942203D01*
X162804888Y-107989489D01*
X162880240Y-108060917D01*
X162971929Y-108150445D01*
X163074007Y-108252034D01*
X163180526Y-108359643D01*
X163285536Y-108467232D01*
X163383091Y-108568760D01*
X163467242Y-108658186D01*
X163532040Y-108729471D01*
X163571538Y-108776573D01*
X163580980Y-108792337D01*
X163567391Y-108821398D01*
X163529293Y-108885066D01*
X163470694Y-108977112D01*
X163395597Y-109091309D01*
X163308009Y-109221429D01*
X163257254Y-109295646D01*
X163164745Y-109431167D01*
X163082540Y-109553461D01*
X163014630Y-109656440D01*
X162965000Y-109734018D01*
X162937640Y-109780106D01*
X162933529Y-109789792D01*
X162942849Y-109817319D01*
X162968254Y-109881473D01*
X163005911Y-109973235D01*
X163051986Y-110083584D01*
X163102646Y-110203500D01*
X163154059Y-110323964D01*
X163202389Y-110435954D01*
X163243806Y-110530452D01*
X163274474Y-110598437D01*
X163290562Y-110630888D01*
X163291511Y-110632165D01*
X163316772Y-110638362D01*
X163384046Y-110652185D01*
X163486360Y-110672277D01*
X163616741Y-110697279D01*
X163768216Y-110725831D01*
X163856594Y-110742296D01*
X164018452Y-110773114D01*
X164164649Y-110802439D01*
X164287787Y-110828666D01*
X164380469Y-110850191D01*
X164435301Y-110865410D01*
X164446323Y-110870238D01*
X164457119Y-110902919D01*
X164465829Y-110976730D01*
X164472460Y-111083037D01*
X164477018Y-111213212D01*
X164479509Y-111358621D01*
X164479938Y-111510635D01*
X164478311Y-111660622D01*
X164474635Y-111799951D01*
X164468915Y-111919990D01*
X164461158Y-112012110D01*
X164451368Y-112067677D01*
X164445496Y-112079245D01*
X164410399Y-112093110D01*
X164336028Y-112112933D01*
X164232223Y-112136384D01*
X164108819Y-112161136D01*
X164065741Y-112169143D01*
X163858047Y-112207186D01*
X163693984Y-112237824D01*
X163568130Y-112262274D01*
X163475065Y-112281754D01*
X163409367Y-112297481D01*
X163365617Y-112310673D01*
X163338392Y-112322549D01*
X163322272Y-112334325D01*
X163320017Y-112336653D01*
X163297503Y-112374145D01*
X163263158Y-112447110D01*
X163220411Y-112546612D01*
X163172692Y-112663718D01*
X163123430Y-112789493D01*
X163076055Y-112915002D01*
X163033995Y-113031310D01*
X163000680Y-113129484D01*
X162979541Y-113200588D01*
X162974005Y-113235687D01*
X162974466Y-113236917D01*
X162993223Y-113265606D01*
X163035776Y-113328730D01*
X163097653Y-113419718D01*
X163174382Y-113532000D01*
X163261491Y-113659005D01*
X163286299Y-113695098D01*
X163374753Y-113825948D01*
X163452588Y-113945336D01*
X163515566Y-114046407D01*
X163559445Y-114122304D01*
X163579985Y-114166172D01*
X163580980Y-114171562D01*
X163563722Y-114199889D01*
X163516036Y-114256006D01*
X163444050Y-114333882D01*
X163353897Y-114427485D01*
X163251705Y-114530786D01*
X163143606Y-114637751D01*
X163035728Y-114742351D01*
X162934204Y-114838554D01*
X162845162Y-114920329D01*
X162774733Y-114981645D01*
X162729047Y-115016471D01*
X162716409Y-115022157D01*
X162686991Y-115008765D01*
X162626761Y-114972644D01*
X162545530Y-114919881D01*
X162483030Y-114877412D01*
X162369785Y-114799485D01*
X162235674Y-114707729D01*
X162101155Y-114616120D01*
X162028833Y-114567091D01*
X161784038Y-114401515D01*
X161578551Y-114512620D01*
X161484936Y-114561293D01*
X161405330Y-114599126D01*
X161351467Y-114620703D01*
X161337757Y-114623706D01*
X161321270Y-114601538D01*
X161288745Y-114538894D01*
X161242609Y-114441554D01*
X161185290Y-114315294D01*
X161119216Y-114165895D01*
X161046815Y-113999133D01*
X160970516Y-113820787D01*
X160892746Y-113636636D01*
X160815934Y-113452457D01*
X160742506Y-113274030D01*
X160674892Y-113107132D01*
X160615520Y-112957542D01*
X160566816Y-112831038D01*
X160531210Y-112733399D01*
X160511130Y-112670402D01*
X160507900Y-112648766D01*
X160533496Y-112621169D01*
X160589539Y-112576370D01*
X160664311Y-112523679D01*
X160670587Y-112519510D01*
X160863845Y-112364814D01*
X161019674Y-112184336D01*
X161136724Y-111983847D01*
X161213645Y-111769119D01*
X161249086Y-111545922D01*
X161241697Y-111320026D01*
X161190127Y-111097204D01*
X161093026Y-110883224D01*
X161064458Y-110836409D01*
X160915868Y-110647363D01*
X160740327Y-110495557D01*
X160543910Y-110381779D01*
X160332693Y-110306820D01*
X160112753Y-110271467D01*
X159890163Y-110276512D01*
X159671001Y-110322744D01*
X159461342Y-110410951D01*
X159267261Y-110541924D01*
X159207226Y-110595082D01*
X159054435Y-110761484D01*
X158943097Y-110936657D01*
X158866723Y-111133011D01*
X158824187Y-111327462D01*
X158813686Y-111546087D01*
X158848701Y-111765797D01*
X158925673Y-111979165D01*
X159041047Y-112178767D01*
X159191266Y-112357174D01*
X159372773Y-112506962D01*
X159396627Y-112522751D01*
X159472201Y-112574457D01*
X159529651Y-112619257D01*
X159557117Y-112647862D01*
X159557517Y-112648766D01*
X159551620Y-112679709D01*
X159528245Y-112749936D01*
X159489821Y-112853670D01*
X159438777Y-112985135D01*
X159377542Y-113138552D01*
X159308544Y-113308146D01*
X159234214Y-113488138D01*
X159156978Y-113672753D01*
X159079268Y-113856213D01*
X159003511Y-114032741D01*
X158932137Y-114196559D01*
X158867574Y-114341892D01*
X158812252Y-114462962D01*
X158768600Y-114553992D01*
X158739046Y-114609205D01*
X158727144Y-114623706D01*
X158690777Y-114612414D01*
X158622730Y-114582130D01*
X158534737Y-114538265D01*
X158486351Y-114512620D01*
X158280863Y-114401515D01*
X158036068Y-114567091D01*
X157911106Y-114651915D01*
X157774295Y-114745261D01*
X157646089Y-114833153D01*
X157581871Y-114877412D01*
X157491551Y-114938063D01*
X157415071Y-114986126D01*
X157362407Y-115015515D01*
X157345302Y-115021727D01*
X157320405Y-115004968D01*
X157265305Y-114958181D01*
X157185343Y-114886225D01*
X157085861Y-114793957D01*
X156972200Y-114686235D01*
X156900315Y-114617071D01*
X156774551Y-114493502D01*
X156665863Y-114382979D01*
X156578645Y-114290230D01*
X156517289Y-114219982D01*
X156486191Y-114176965D01*
X156483208Y-114168235D01*
X156497053Y-114135029D01*
X156535312Y-114067887D01*
X156593742Y-113973608D01*
X156668097Y-113858990D01*
X156754135Y-113730828D01*
X156778603Y-113695098D01*
X156867755Y-113565234D01*
X156947738Y-113448314D01*
X157014080Y-113350907D01*
X157062311Y-113279584D01*
X157087957Y-113240915D01*
X157090435Y-113236917D01*
X157086729Y-113206100D01*
X157067061Y-113138344D01*
X157034860Y-113042584D01*
X156993555Y-112927754D01*
X156946575Y-112802789D01*
X156897349Y-112676624D01*
X156849308Y-112558193D01*
X156805881Y-112456430D01*
X156770496Y-112380271D01*
X156746584Y-112338649D01*
X156744884Y-112336653D01*
X156730262Y-112324758D01*
X156705565Y-112312995D01*
X156665372Y-112300146D01*
X156604263Y-112284994D01*
X156516817Y-112266321D01*
X156397612Y-112242910D01*
X156241227Y-112213542D01*
X156042243Y-112177000D01*
X155999160Y-112169143D01*
X155871471Y-112144472D01*
X155760153Y-112120338D01*
X155675045Y-112099069D01*
X155625983Y-112082993D01*
X155619405Y-112079245D01*
X155608564Y-112046018D01*
X155599753Y-111971766D01*
X155592976Y-111865121D01*
X155588240Y-111734712D01*
X155585550Y-111589172D01*
X155584913Y-111437131D01*
X155586334Y-111287221D01*
X155589820Y-111148073D01*
X155595376Y-111028317D01*
X155603008Y-110936586D01*
X155612722Y-110881511D01*
X155618578Y-110870238D01*
X155651180Y-110858868D01*
X155725418Y-110840369D01*
X155833896Y-110816347D01*
X155969217Y-110788407D01*
X156123985Y-110758153D01*
X156208308Y-110742296D01*
X156368296Y-110712389D01*
X156510967Y-110685295D01*
X156629348Y-110662376D01*
X156716465Y-110644988D01*
X156765345Y-110634492D01*
X156773390Y-110632165D01*
X156786987Y-110605931D01*
X156815729Y-110542740D01*
X156855785Y-110451622D01*
X156903324Y-110341602D01*
X156954515Y-110221710D01*
X157005526Y-110100972D01*
X157052526Y-109988416D01*
X157091684Y-109893071D01*
X157119169Y-109823962D01*
X157131149Y-109790119D01*
X157131372Y-109788640D01*
X157117791Y-109761942D01*
X157079715Y-109700505D01*
X157021147Y-109610434D01*
X156946088Y-109497835D01*
X156858540Y-109368815D01*
X156807647Y-109294706D01*
X156714909Y-109158822D01*
X156632541Y-109035454D01*
X156564561Y-108930842D01*
X156514988Y-108851228D01*
X156487842Y-108802852D01*
X156483921Y-108792007D01*
X156500775Y-108766765D01*
X156547368Y-108712869D01*
X156617749Y-108636358D01*
X156705965Y-108543268D01*
X156806065Y-108439640D01*
X156912098Y-108331509D01*
X157018111Y-108224915D01*
X157118152Y-108125895D01*
X157206270Y-108040487D01*
X157276513Y-107974730D01*
X157322928Y-107934661D01*
X157338456Y-107925098D01*
X157363739Y-107938545D01*
X157424211Y-107976320D01*
X157513992Y-108034580D01*
X157627203Y-108109479D01*
X157757964Y-108197170D01*
X157856600Y-108263978D01*
X158354957Y-108602857D01*
X158770371Y-108431610D01*
X159185784Y-108260363D01*
X159298366Y-107663172D01*
X159410949Y-107065980D01*
X160653952Y-107065980D01*
X160766535Y-107663172D01*
D12*
X133858000Y-102616000D03*
D13*
X133858000Y-100076000D03*
X136398000Y-102616000D03*
X136398000Y-100076000D03*
X138938000Y-102616000D03*
X138938000Y-100076000D03*
X141478000Y-102616000D03*
X141478000Y-100076000D03*
X144018000Y-102616000D03*
X144018000Y-100076000D03*
X146558000Y-102616000D03*
X146558000Y-100076000D03*
X149098000Y-102616000D03*
X149098000Y-100076000D03*
X151638000Y-102616000D03*
X151638000Y-100076000D03*
X154178000Y-102616000D03*
X154178000Y-100076000D03*
X156718000Y-102616000D03*
X156718000Y-100076000D03*
D12*
X104394000Y-102616000D03*
D13*
X104394000Y-100076000D03*
X106934000Y-102616000D03*
X106934000Y-100076000D03*
X109474000Y-102616000D03*
X109474000Y-100076000D03*
X112014000Y-102616000D03*
X112014000Y-100076000D03*
X114554000Y-102616000D03*
X114554000Y-100076000D03*
X117094000Y-102616000D03*
X117094000Y-100076000D03*
X119634000Y-102616000D03*
X119634000Y-100076000D03*
X122174000Y-102616000D03*
X122174000Y-100076000D03*
D12*
X168402000Y-102616000D03*
D13*
X168402000Y-100076000D03*
X170942000Y-102616000D03*
X170942000Y-100076000D03*
X173482000Y-102616000D03*
X173482000Y-100076000D03*
X176022000Y-102616000D03*
X176022000Y-100076000D03*
X178562000Y-102616000D03*
X178562000Y-100076000D03*
D12*
X162814000Y-82931000D03*
D13*
X162814000Y-80391000D03*
X165354000Y-82931000D03*
X165354000Y-80391000D03*
X167894000Y-82931000D03*
X167894000Y-80391000D03*
X170434000Y-82931000D03*
X170434000Y-80391000D03*
X172974000Y-82931000D03*
X172974000Y-80391000D03*
D12*
X111252000Y-62103000D03*
D13*
X111252000Y-59563000D03*
X113792000Y-62103000D03*
X113792000Y-59563000D03*
X116332000Y-62103000D03*
X116332000Y-59563000D03*
X118872000Y-62103000D03*
X118872000Y-59563000D03*
X121412000Y-62103000D03*
X121412000Y-59563000D03*
X123952000Y-62103000D03*
X123952000Y-59563000D03*
X126492000Y-62103000D03*
X126492000Y-59563000D03*
X129032000Y-62103000D03*
X129032000Y-59563000D03*
D12*
X112776000Y-82931000D03*
D13*
X112776000Y-80391000D03*
X115316000Y-82931000D03*
X115316000Y-80391000D03*
X117856000Y-82931000D03*
X117856000Y-80391000D03*
X120396000Y-82931000D03*
X120396000Y-80391000D03*
X122936000Y-82931000D03*
X122936000Y-80391000D03*
X125476000Y-82931000D03*
X125476000Y-80391000D03*
X128016000Y-82931000D03*
X128016000Y-80391000D03*
X130556000Y-82931000D03*
X130556000Y-80391000D03*
X133096000Y-82931000D03*
X133096000Y-80391000D03*
X135636000Y-82931000D03*
X135636000Y-80391000D03*
D12*
X155956000Y-70485000D03*
D14*
X158496000Y-70485000D03*
X161036000Y-70485000D03*
X163576000Y-70485000D03*
X166116000Y-70485000D03*
X168656000Y-70485000D03*
X171196000Y-70485000D03*
X173736000Y-70485000D03*
X176276000Y-70485000D03*
X178816000Y-70485000D03*
D12*
X100838000Y-49657000D03*
D14*
X103378000Y-49657000D03*
X105918000Y-49657000D03*
X108458000Y-49657000D03*
X110998000Y-49657000D03*
X113538000Y-49657000D03*
X116078000Y-49657000D03*
X118618000Y-49657000D03*
X121158000Y-49657000D03*
X123698000Y-49657000D03*
X126238000Y-49657000D03*
X128778000Y-49657000D03*
X131318000Y-49657000D03*
X133858000Y-49657000D03*
X136398000Y-49657000D03*
X138938000Y-49657000D03*
D12*
X100838000Y-70485000D03*
D14*
X103378000Y-70485000D03*
X105918000Y-70485000D03*
X108458000Y-70485000D03*
X110998000Y-70485000D03*
X113538000Y-70485000D03*
X116078000Y-70485000D03*
X118618000Y-70485000D03*
X121158000Y-70485000D03*
X123698000Y-70485000D03*
X126238000Y-70485000D03*
X128778000Y-70485000D03*
X131318000Y-70485000D03*
X133858000Y-70485000D03*
X136398000Y-70485000D03*
X138938000Y-70485000D03*
X141478000Y-70485000D03*
X144018000Y-70485000D03*
X146558000Y-70485000D03*
X149098000Y-70485000D03*
D15*
X173736000Y-107638000D03*
X173736000Y-111818000D03*
X151638000Y-111818000D03*
X151638000Y-107638000D03*
D16*
X168148000Y-139446000D03*
D17*
X165608000Y-140462000D03*
X163068000Y-140462000D03*
X160528000Y-140462000D03*
X157988000Y-140462000D03*
X155448000Y-140462000D03*
X152908000Y-140462000D03*
X150368000Y-140462000D03*
X147828000Y-140462000D03*
X145288000Y-140462000D03*
X142748000Y-140462000D03*
X140208000Y-140462000D03*
X137668000Y-140462000D03*
X135128000Y-140462000D03*
X132588000Y-140462000D03*
X130048000Y-140462000D03*
X127508000Y-140462000D03*
X124968000Y-140462000D03*
X122428000Y-140462000D03*
X119888000Y-140462000D03*
X117348000Y-140462000D03*
X114808000Y-140462000D03*
D18*
X167894000Y-120650000D03*
X124206000Y-120650000D03*
X121412000Y-121412000D03*
X167132000Y-121412000D03*
X123698000Y-119888000D03*
X169418000Y-119888000D03*
X148844000Y-133350000D03*
X153416000Y-125730000D03*
X151638000Y-133350000D03*
X151638000Y-126492000D03*
X154178000Y-133350000D03*
X154178000Y-127254000D03*
X156464000Y-133350000D03*
X156464000Y-126746000D03*
X161671000Y-106426000D03*
X145669000Y-106426000D03*
X138811000Y-106426000D03*
X122682000Y-106426000D03*
D19*
X114808000Y-134620000D03*
D18*
X157988000Y-133350000D03*
X160528000Y-133350000D03*
X160528000Y-131064000D03*
X152908000Y-130556000D03*
X155448000Y-129794000D03*
X150368000Y-129286000D03*
X132334000Y-129540000D03*
X159766000Y-130556000D03*
X142748000Y-129032000D03*
X138938000Y-128016000D03*
X137668000Y-128016000D03*
X163068000Y-131064000D03*
X140462000Y-128016000D03*
X142748000Y-126492000D03*
X165608000Y-132080000D03*
X145288000Y-126746000D03*
X143256000Y-125730000D03*
X148590000Y-124460000D03*
X146050000Y-133350000D03*
X147828000Y-126238000D03*
X149606000Y-122936000D03*
X122428000Y-134366000D03*
X123444000Y-122936000D03*
X149098000Y-123698000D03*
X150114000Y-122174000D03*
X123190000Y-122174000D03*
X121666000Y-134874000D03*
D19*
X168148000Y-134620000D03*
X149606000Y-126238000D03*
D18*
X164338000Y-133350000D03*
X164338000Y-125476000D03*
D20*
X167894000Y-119126000D02*
X168656000Y-118364000D01*
X168656000Y-118364000D02*
X168656000Y-102870000D01*
X168656000Y-102870000D02*
X168402000Y-102616000D01*
X168402000Y-102616000D02*
X167894000Y-103124000D01*
X167894000Y-119126000D02*
X167894000Y-120650000D01*
X122428000Y-135636000D02*
X124206000Y-133858000D01*
X124206000Y-133858000D02*
X124206000Y-120650000D01*
X122428000Y-135636000D02*
X122428000Y-140462000D01*
X117348000Y-136398000D02*
X121412000Y-132334000D01*
X121412000Y-132334000D02*
X121412000Y-121412000D01*
X167132000Y-119126000D02*
X168148000Y-118110000D01*
X168148000Y-104648000D02*
X167132000Y-103632000D01*
X168148000Y-118110000D02*
X168148000Y-104648000D01*
X168402000Y-100076000D02*
X167132000Y-101346000D01*
X167132000Y-101346000D02*
X167132000Y-103632000D01*
X167132000Y-119126000D02*
X167132000Y-121412000D01*
X117348000Y-136398000D02*
X117348000Y-140462000D01*
X121920000Y-122174000D02*
X123444000Y-120650000D01*
X123444000Y-120142000D02*
X123698000Y-119888000D01*
X123444000Y-120650000D02*
X123444000Y-120142000D01*
X119888000Y-136398000D02*
X120904000Y-135382000D01*
X121920000Y-132842000D02*
X121920000Y-122174000D01*
X120904000Y-133858000D02*
X121920000Y-132842000D01*
X120904000Y-135382000D02*
X120904000Y-133858000D01*
X169418000Y-119888000D02*
X169672000Y-119634000D01*
X170434000Y-103632000D02*
X169672000Y-104394000D01*
X170434000Y-103632000D02*
X170942000Y-103124000D01*
X169672000Y-119634000D02*
X169672000Y-104394000D01*
X170942000Y-103124000D02*
X170942000Y-102616000D01*
X119888000Y-136398000D02*
X119888000Y-140462000D01*
X148844000Y-133350000D02*
X148844000Y-135382000D01*
X170688000Y-122682000D02*
X170688000Y-125984000D01*
X156464000Y-125730000D02*
X153416000Y-125730000D01*
X157341996Y-126607996D02*
X156464000Y-125730000D01*
X170064004Y-126607996D02*
X157341996Y-126607996D01*
X170688000Y-125984000D02*
X170064004Y-126607996D01*
X147828000Y-136398000D02*
X147828000Y-140462000D01*
X148844000Y-135382000D02*
X147828000Y-136398000D01*
X173482000Y-102616000D02*
X173482000Y-102870000D01*
X173482000Y-102870000D02*
X170688000Y-105664000D01*
X170688000Y-105664000D02*
X170688000Y-122682000D01*
X151638000Y-133350000D02*
X151638000Y-135382000D01*
X170180000Y-122428000D02*
X170180000Y-125649994D01*
X156464000Y-124968000D02*
X153162000Y-124968000D01*
X157653994Y-126157994D02*
X156464000Y-124968000D01*
X169672000Y-126157994D02*
X157653994Y-126157994D01*
X170180000Y-125649994D02*
X169672000Y-126157994D01*
X172212000Y-103378000D02*
X170180000Y-105410000D01*
X170180000Y-105410000D02*
X170180000Y-122428000D01*
X151638000Y-135382000D02*
X150368000Y-136652000D01*
X151638000Y-126492000D02*
X153162000Y-124968000D01*
X173482000Y-100076000D02*
X172212000Y-101346000D01*
X172212000Y-101346000D02*
X172212000Y-103378000D01*
X150368000Y-136652000D02*
X150368000Y-140462000D01*
X154178000Y-133350000D02*
X154178000Y-135382000D01*
X171704000Y-123190000D02*
X171704000Y-126492000D01*
X154432000Y-127508000D02*
X154178000Y-127254000D01*
X170688000Y-127508000D02*
X154432000Y-127508000D01*
X171704000Y-126492000D02*
X170688000Y-127508000D01*
X176022000Y-102616000D02*
X176022000Y-103124000D01*
X176022000Y-103124000D02*
X174498000Y-104648000D01*
X171704000Y-106172000D02*
X171704000Y-123190000D01*
X173228000Y-104648000D02*
X171704000Y-106172000D01*
X174498000Y-104648000D02*
X173228000Y-104648000D01*
X154178000Y-135382000D02*
X152908000Y-136652000D01*
X152908000Y-136652000D02*
X152908000Y-140462000D01*
X156464000Y-133350000D02*
X156464000Y-135128000D01*
X171196000Y-122936000D02*
X171196000Y-126238000D01*
X156775998Y-127057998D02*
X156464000Y-126746000D01*
X170376002Y-127057998D02*
X156775998Y-127057998D01*
X171196000Y-126238000D02*
X170376002Y-127057998D01*
X174752000Y-103378000D02*
X174752000Y-103632000D01*
X171196000Y-105918000D02*
X171196000Y-122936000D01*
X172974000Y-104140000D02*
X171196000Y-105918000D01*
X174244000Y-104140000D02*
X172974000Y-104140000D01*
X174752000Y-103632000D02*
X174244000Y-104140000D01*
X155448000Y-136144000D02*
X155448000Y-140462000D01*
X156464000Y-135128000D02*
X155448000Y-136144000D01*
X176022000Y-100076000D02*
X175768000Y-100076000D01*
X175768000Y-100076000D02*
X174752000Y-101092000D01*
X174752000Y-101092000D02*
X174752000Y-103378000D01*
D21*
X156718000Y-102616000D02*
X156972000Y-102616000D01*
X156972000Y-102616000D02*
X158750000Y-100838000D01*
X158750000Y-100838000D02*
X158750000Y-98044000D01*
X178562000Y-102616000D02*
X180340000Y-100838000D01*
X124206000Y-102616000D02*
X122174000Y-102616000D01*
X128778000Y-98044000D02*
X124206000Y-102616000D01*
X179578000Y-98044000D02*
X158750000Y-98044000D01*
X158750000Y-98044000D02*
X128778000Y-98044000D01*
X180340000Y-98806000D02*
X179578000Y-98044000D01*
X180340000Y-100838000D02*
X180340000Y-98806000D01*
X176784000Y-104394000D02*
X175514000Y-105664000D01*
X175514000Y-105664000D02*
X175006000Y-105664000D01*
X173736000Y-107638000D02*
X173736000Y-105918000D01*
X173736000Y-105918000D02*
X173990000Y-105664000D01*
X173990000Y-105664000D02*
X175006000Y-105664000D01*
X173736000Y-107638000D02*
X173736000Y-106934000D01*
X176784000Y-104394000D02*
X178562000Y-102616000D01*
X114808000Y-140462000D02*
X114808000Y-134620000D01*
D20*
X114300000Y-112776000D02*
X107188000Y-105664000D01*
X117856000Y-116332000D02*
X120650000Y-119126000D01*
X124206000Y-119126000D02*
X124968000Y-119888000D01*
X120650000Y-119126000D02*
X124206000Y-119126000D01*
X104394000Y-102616000D02*
X104394000Y-103124000D01*
X104394000Y-103124000D02*
X106934000Y-105664000D01*
X106934000Y-105664000D02*
X107188000Y-105664000D01*
X114300000Y-112776000D02*
X117856000Y-116332000D01*
X124968000Y-119888000D02*
X124968000Y-140462000D01*
X114808000Y-112522000D02*
X107442000Y-105156000D01*
X118110000Y-115824000D02*
X120904000Y-118618000D01*
X124460000Y-118618000D02*
X125476000Y-119634000D01*
X120904000Y-118618000D02*
X124460000Y-118618000D01*
X105664000Y-103632000D02*
X107188000Y-105156000D01*
X105664000Y-101092000D02*
X104648000Y-100076000D01*
X105664000Y-101092000D02*
X105664000Y-103632000D01*
X107188000Y-105156000D02*
X107442000Y-105156000D01*
X114808000Y-112522000D02*
X118110000Y-115824000D01*
X127508000Y-140462000D02*
X127508000Y-135636000D01*
X127508000Y-135636000D02*
X125476000Y-133604000D01*
X125476000Y-133604000D02*
X125476000Y-119634000D01*
X104394000Y-100076000D02*
X104648000Y-100076000D01*
X115316000Y-112268000D02*
X107061000Y-104013000D01*
X107061000Y-104013000D02*
X107061000Y-102743000D01*
X107061000Y-102743000D02*
X106934000Y-102616000D01*
X118364000Y-115316000D02*
X121158000Y-118110000D01*
X124714000Y-118110000D02*
X125984000Y-119380000D01*
X121158000Y-118110000D02*
X124714000Y-118110000D01*
X106934000Y-102616000D02*
X106934000Y-103124000D01*
X115316000Y-112268000D02*
X118364000Y-115316000D01*
X129540000Y-135636000D02*
X130048000Y-136144000D01*
X129540000Y-135636000D02*
X128270000Y-135636000D01*
X125984000Y-133350000D02*
X125984000Y-119380000D01*
X128270000Y-135636000D02*
X125984000Y-133350000D01*
X130048000Y-136144000D02*
X130048000Y-140462000D01*
X115824000Y-112014000D02*
X108204000Y-104394000D01*
X108204000Y-104394000D02*
X108204000Y-103632000D01*
X118618000Y-114808000D02*
X121412000Y-117602000D01*
X124968000Y-117602000D02*
X126492000Y-119126000D01*
X121412000Y-117602000D02*
X124968000Y-117602000D01*
X115824000Y-112014000D02*
X118618000Y-114808000D01*
X132588000Y-135636000D02*
X132137998Y-135185998D01*
X126492000Y-133153998D02*
X126492000Y-119126000D01*
X128524000Y-135185998D02*
X126492000Y-133153998D01*
X132137998Y-135185998D02*
X128524000Y-135185998D01*
X132588000Y-135636000D02*
X132588000Y-140462000D01*
X106934000Y-100076000D02*
X108204000Y-101346000D01*
X108204000Y-101346000D02*
X108204000Y-103632000D01*
X116332000Y-111760000D02*
X109474000Y-104902000D01*
X109474000Y-104902000D02*
X109474000Y-102616000D01*
X118872000Y-114300000D02*
X121666000Y-117094000D01*
X125222000Y-117094000D02*
X127000000Y-118872000D01*
X121666000Y-117094000D02*
X125222000Y-117094000D01*
X109474000Y-102616000D02*
X109474000Y-102870000D01*
X116332000Y-111760000D02*
X118872000Y-114300000D01*
X135128000Y-135636000D02*
X134112000Y-134620000D01*
X127000000Y-132842000D02*
X127000000Y-118872000D01*
X128778000Y-134620000D02*
X127000000Y-132842000D01*
X134112000Y-134620000D02*
X128778000Y-134620000D01*
X135128000Y-135636000D02*
X135128000Y-140462000D01*
X116840000Y-111523627D02*
X110744000Y-105427627D01*
X110744000Y-105427627D02*
X110744000Y-103124000D01*
X119117187Y-113800814D02*
X121902373Y-116586000D01*
X125476000Y-116586000D02*
X127508000Y-118618000D01*
X121902373Y-116586000D02*
X125476000Y-116586000D01*
X137668000Y-135636000D02*
X137668000Y-134366000D01*
X137414000Y-134112000D02*
X136144000Y-134112000D01*
X137668000Y-134366000D02*
X137414000Y-134112000D01*
X127508000Y-132588000D02*
X127508000Y-118618000D01*
X129032000Y-134112000D02*
X127508000Y-132588000D01*
X136144000Y-134112000D02*
X129032000Y-134112000D01*
X137668000Y-135636000D02*
X137668000Y-140462000D01*
X110744000Y-101346000D02*
X110744000Y-103124000D01*
X109474000Y-100076000D02*
X110744000Y-101346000D01*
X116840000Y-111523627D02*
X119117187Y-113800814D01*
X119117187Y-113800814D02*
X119148783Y-113832410D01*
X119148783Y-113832410D02*
X119148783Y-113849998D01*
X119148783Y-113849998D02*
X119148783Y-113832410D01*
X117348000Y-111252000D02*
X112014000Y-105918000D01*
X112014000Y-105918000D02*
X112014000Y-102616000D01*
X119380000Y-113284000D02*
X122174000Y-116078000D01*
X125730000Y-116078000D02*
X128016000Y-118364000D01*
X122174000Y-116078000D02*
X125730000Y-116078000D01*
X140208000Y-135636000D02*
X140208000Y-133858000D01*
X139954000Y-133604000D02*
X138176000Y-133604000D01*
X140208000Y-133858000D02*
X139954000Y-133604000D01*
X128016000Y-132334000D02*
X128016000Y-118364000D01*
X129286000Y-133604000D02*
X128016000Y-132334000D01*
X138176000Y-133604000D02*
X129286000Y-133604000D01*
X140208000Y-135636000D02*
X140208000Y-140462000D01*
X112014000Y-102616000D02*
X112014000Y-103378000D01*
X117348000Y-111252000D02*
X119380000Y-113284000D01*
X117856000Y-110998000D02*
X113284000Y-106426000D01*
X113284000Y-106426000D02*
X113284000Y-103886000D01*
X119634000Y-112776000D02*
X122428000Y-115570000D01*
X125858398Y-115570000D02*
X128524000Y-118235602D01*
X122428000Y-115570000D02*
X125858398Y-115570000D01*
X142748000Y-135636000D02*
X142748000Y-133350000D01*
X142748000Y-140462000D02*
X142748000Y-135636000D01*
X140265998Y-133153998D02*
X129597998Y-133153998D01*
X129597998Y-133153998D02*
X128524000Y-132080000D01*
X128524000Y-132080000D02*
X128524000Y-118235602D01*
X142748000Y-133350000D02*
X142551998Y-133153998D01*
X142551998Y-133153998D02*
X140265998Y-133153998D01*
X117856000Y-110998000D02*
X119634000Y-112776000D01*
X113284000Y-101346000D02*
X112014000Y-100076000D01*
X113284000Y-103886000D02*
X113284000Y-101346000D01*
X118364000Y-110744000D02*
X114554000Y-106934000D01*
X114554000Y-106934000D02*
X114554000Y-103632000D01*
X119888000Y-112268000D02*
X122682000Y-115062000D01*
X126238000Y-115062000D02*
X129032000Y-117856000D01*
X122682000Y-115062000D02*
X126238000Y-115062000D01*
X155563996Y-132703996D02*
X157595996Y-132703996D01*
X157988000Y-133096000D02*
X157988000Y-133350000D01*
X157595996Y-132703996D02*
X157988000Y-133096000D01*
X129032000Y-131826000D02*
X129032000Y-117856000D01*
X129909996Y-132703996D02*
X129032000Y-131826000D01*
X155563996Y-132703996D02*
X129909996Y-132703996D01*
X114554000Y-102616000D02*
X114554000Y-103632000D01*
X118364000Y-110744000D02*
X119888000Y-112268000D01*
X118872000Y-110495370D02*
X115824000Y-107447370D01*
X115824000Y-107447370D02*
X115824000Y-103632000D01*
X158496000Y-132842000D02*
X158750000Y-133096000D01*
X158750000Y-133096000D02*
X158750000Y-134874000D01*
X120139315Y-111762685D02*
X122930630Y-114554000D01*
X126492000Y-114554000D02*
X129540000Y-117602000D01*
X122930630Y-114554000D02*
X126492000Y-114554000D01*
X158496000Y-132842000D02*
X157907994Y-132253994D01*
X158750000Y-134874000D02*
X158750000Y-135382000D01*
X158750000Y-135382000D02*
X157988000Y-136144000D01*
X157988000Y-136144000D02*
X157988000Y-140462000D01*
X157907994Y-132253994D02*
X130417996Y-132253994D01*
X130417996Y-132253994D02*
X129540000Y-131375998D01*
X129540000Y-131375998D02*
X129540000Y-117602000D01*
X118872000Y-110495370D02*
X120139315Y-111762685D01*
X120139315Y-111762685D02*
X120189265Y-111812635D01*
X120189265Y-111812635D02*
X120189265Y-111817998D01*
X120189265Y-111817998D02*
X120189265Y-111812635D01*
X114554000Y-100076000D02*
X115824000Y-101346000D01*
X115824000Y-101346000D02*
X115824000Y-103632000D01*
X119380000Y-110236000D02*
X117094000Y-107950000D01*
X117094000Y-107950000D02*
X117094000Y-104140000D01*
X120396000Y-111252000D02*
X123190000Y-114046000D01*
X126746000Y-114046000D02*
X130048000Y-117348000D01*
X123190000Y-114046000D02*
X126746000Y-114046000D01*
X165608000Y-133096000D02*
X164315992Y-131803992D01*
X165608000Y-133096000D02*
X165608000Y-140462000D01*
X164315992Y-131803992D02*
X130787992Y-131803992D01*
X130787992Y-131803992D02*
X130048000Y-131064000D01*
X130048000Y-131064000D02*
X130048000Y-117348000D01*
X119380000Y-110236000D02*
X120396000Y-111252000D01*
X117094000Y-104140000D02*
X117094000Y-102616000D01*
X117094000Y-102616000D02*
X117094000Y-103124000D01*
X165608000Y-140462000D02*
X165608000Y-137414000D01*
X119888000Y-109982000D02*
X118364000Y-108458000D01*
X118364000Y-108458000D02*
X118364000Y-104648000D01*
X160528000Y-133350000D02*
X160528000Y-135128000D01*
X120650000Y-110744000D02*
X123501998Y-113595998D01*
X127057998Y-113595998D02*
X130556000Y-117094000D01*
X123501998Y-113595998D02*
X127057998Y-113595998D01*
X160528000Y-135128000D02*
X160528000Y-140462000D01*
X160274000Y-131318000D02*
X160528000Y-131064000D01*
X131064000Y-131318000D02*
X160274000Y-131318000D01*
X130556000Y-130810000D02*
X131064000Y-131318000D01*
X130556000Y-117094000D02*
X130556000Y-130810000D01*
X118364000Y-104648000D02*
X118364000Y-103632000D01*
X119888000Y-109982000D02*
X120650000Y-110744000D01*
X117094000Y-100076000D02*
X117348000Y-100076000D01*
X117348000Y-100076000D02*
X118364000Y-101092000D01*
X118364000Y-101092000D02*
X118364000Y-103632000D01*
X120396000Y-109728000D02*
X119634000Y-108966000D01*
X119634000Y-108966000D02*
X119634000Y-105156000D01*
X120961998Y-110293998D02*
X123698000Y-113030000D01*
X127254000Y-113030000D02*
X131064000Y-116840000D01*
X123698000Y-113030000D02*
X127254000Y-113030000D01*
X152908000Y-130556000D02*
X152654000Y-130810000D01*
X152654000Y-130810000D02*
X131572000Y-130810000D01*
X131572000Y-130810000D02*
X131064000Y-130302000D01*
X131064000Y-130302000D02*
X131064000Y-116840000D01*
X119634000Y-105156000D02*
X119634000Y-102616000D01*
X120396000Y-109728000D02*
X120961998Y-110293998D01*
X121273996Y-109843996D02*
X123952000Y-112522000D01*
X127508000Y-112522000D02*
X131572000Y-116586000D01*
X123952000Y-112522000D02*
X127508000Y-112522000D01*
X155448000Y-129794000D02*
X152654000Y-129794000D01*
X152654000Y-129794000D02*
X152146000Y-130302000D01*
X152146000Y-130302000D02*
X132080000Y-130302000D01*
X132080000Y-130302000D02*
X131572000Y-129794000D01*
X131572000Y-129794000D02*
X131572000Y-116586000D01*
X120904000Y-109335996D02*
X120904000Y-109474000D01*
X120904000Y-109474000D02*
X121273996Y-109843996D01*
X120904000Y-109081996D02*
X120904000Y-109335996D01*
X119634000Y-100076000D02*
X120904000Y-101346000D01*
X120904000Y-101346000D02*
X120904000Y-109081996D01*
X133858000Y-129794000D02*
X132842000Y-128778000D01*
X132842000Y-127254000D02*
X132842000Y-128778000D01*
X132842000Y-103632000D02*
X132842000Y-127254000D01*
X133858000Y-102616000D02*
X132842000Y-103632000D01*
X133858000Y-129794000D02*
X134620000Y-129794000D01*
X134620000Y-129794000D02*
X149860000Y-129794000D01*
X149860000Y-129794000D02*
X150368000Y-129286000D01*
X132334000Y-129540000D02*
X132334000Y-121412000D01*
X133858000Y-100076000D02*
X132334000Y-101600000D01*
X132334000Y-101600000D02*
X132334000Y-121412000D01*
X159766000Y-130556000D02*
X157283998Y-130556000D01*
X157283998Y-130556000D02*
X155759998Y-129032000D01*
X134366000Y-128835998D02*
X133858000Y-128327998D01*
X133858000Y-128327998D02*
X133858000Y-106172000D01*
X134423998Y-128835998D02*
X134366000Y-128835998D01*
X142494000Y-128270000D02*
X143256000Y-128270000D01*
X143510000Y-128524000D02*
X150876000Y-128524000D01*
X150876000Y-128524000D02*
X151384000Y-129032000D01*
X151384000Y-129032000D02*
X155759998Y-129032000D01*
X143256000Y-128270000D02*
X143510000Y-128524000D01*
X135185998Y-128835998D02*
X141928002Y-128835998D01*
X141928002Y-128835998D02*
X142494000Y-128270000D01*
X134423998Y-128835998D02*
X135185998Y-128835998D01*
X133858000Y-106172000D02*
X136398000Y-103632000D01*
X136398000Y-102616000D02*
X136398000Y-103632000D01*
X134112000Y-129286000D02*
X133350000Y-128524000D01*
X133350000Y-105918000D02*
X133350000Y-128524000D01*
X133350000Y-105918000D02*
X135128000Y-104140000D01*
X136144000Y-100076000D02*
X135128000Y-101092000D01*
X135128000Y-101092000D02*
X135128000Y-104140000D01*
X134112000Y-129286000D02*
X134874000Y-129286000D01*
X134874000Y-129286000D02*
X135636000Y-129286000D01*
X135636000Y-129286000D02*
X142494000Y-129286000D01*
X142494000Y-129286000D02*
X142748000Y-129032000D01*
X136398000Y-100076000D02*
X136144000Y-100076000D01*
X134874000Y-126746000D02*
X135382000Y-127254000D01*
X138938000Y-102616000D02*
X134874000Y-106680000D01*
X138176000Y-127254000D02*
X138938000Y-128016000D01*
X135382000Y-127254000D02*
X138176000Y-127254000D01*
X134874000Y-106680000D02*
X134874000Y-126746000D01*
X134366000Y-127762000D02*
X134366000Y-128016000D01*
X134620000Y-128270000D02*
X134874000Y-128270000D01*
X134366000Y-128016000D02*
X134620000Y-128270000D01*
X134366000Y-106426000D02*
X134366000Y-127762000D01*
X137668000Y-101346000D02*
X137668000Y-103124000D01*
X138938000Y-100076000D02*
X137668000Y-101346000D01*
X137160000Y-103632000D02*
X134366000Y-106426000D01*
X135128000Y-128270000D02*
X137414000Y-128270000D01*
X137414000Y-128270000D02*
X137668000Y-128016000D01*
X134874000Y-128270000D02*
X135128000Y-128270000D01*
X137160000Y-103632000D02*
X137668000Y-103124000D01*
X161925000Y-129921000D02*
X157353000Y-129921000D01*
X157353000Y-129921000D02*
X155956000Y-128524000D01*
X143510000Y-127762000D02*
X143764000Y-128016000D01*
X151638000Y-128524000D02*
X155956000Y-128524000D01*
X151130000Y-128016000D02*
X151638000Y-128524000D01*
X143764000Y-128016000D02*
X151130000Y-128016000D01*
X141478000Y-102616000D02*
X141478000Y-127254000D01*
X141986000Y-127762000D02*
X143510000Y-127762000D01*
X141478000Y-127254000D02*
X141986000Y-127762000D01*
X161925000Y-129921000D02*
X163068000Y-131064000D01*
X140227726Y-103377778D02*
X139465504Y-104140000D01*
X139192000Y-126746000D02*
X140462000Y-128016000D01*
X135832002Y-126746000D02*
X139192000Y-126746000D01*
X135324002Y-126238000D02*
X135832002Y-126746000D01*
X135324002Y-106991998D02*
X135324002Y-126238000D01*
X138176000Y-104140000D02*
X135324002Y-106991998D01*
X139465504Y-104140000D02*
X138176000Y-104140000D01*
X141478000Y-100076000D02*
X140208000Y-101346000D01*
X140208000Y-101346000D02*
X140227726Y-103377778D01*
X142494000Y-125730000D02*
X142494000Y-126238000D01*
X142494000Y-126238000D02*
X142748000Y-126492000D01*
X144018000Y-102616000D02*
X144018000Y-102870000D01*
X144018000Y-102870000D02*
X142494000Y-104394000D01*
X142494000Y-104394000D02*
X142494000Y-125730000D01*
X156210000Y-128016000D02*
X157480000Y-129286000D01*
X157480000Y-129286000D02*
X162814000Y-129286000D01*
X142748000Y-103378000D02*
X141928002Y-104197998D01*
X142240000Y-127254000D02*
X143510000Y-127254000D01*
X141928002Y-126942002D02*
X142240000Y-127254000D01*
X141928002Y-104197998D02*
X141928002Y-126942002D01*
X151384000Y-127508000D02*
X151892000Y-128016000D01*
X143510000Y-127254000D02*
X143764000Y-127254000D01*
X144018000Y-127508000D02*
X151384000Y-127508000D01*
X162814000Y-129286000D02*
X165608000Y-132080000D01*
X143764000Y-127254000D02*
X144018000Y-127508000D01*
X151892000Y-128016000D02*
X156210000Y-128016000D01*
X144018000Y-100076000D02*
X142748000Y-101346000D01*
X142748000Y-101346000D02*
X142748000Y-103378000D01*
X145288000Y-126238000D02*
X144018000Y-124968000D01*
X145288000Y-126746000D02*
X145288000Y-126238000D01*
X146558000Y-102616000D02*
X146500002Y-102616000D01*
X146500002Y-102616000D02*
X143510000Y-105606002D01*
X143510000Y-124460000D02*
X144018000Y-124968000D01*
X143510000Y-105606002D02*
X143510000Y-124460000D01*
X145288000Y-103124000D02*
X143002000Y-105410000D01*
X143002000Y-125476000D02*
X143256000Y-125730000D01*
X143002000Y-105410000D02*
X143002000Y-125476000D01*
X146558000Y-100076000D02*
X145288000Y-101346000D01*
X145288000Y-101346000D02*
X145288000Y-103124000D01*
X149098000Y-102616000D02*
X148336000Y-103378000D01*
X148336000Y-124206000D02*
X148590000Y-124460000D01*
X148336000Y-103378000D02*
X148336000Y-124206000D01*
X146050000Y-133350000D02*
X146050000Y-135382000D01*
X149098000Y-100076000D02*
X147828000Y-101346000D01*
X145288000Y-136144000D02*
X145288000Y-140462000D01*
X146050000Y-135382000D02*
X145288000Y-136144000D01*
X147828000Y-101346000D02*
X147828000Y-126238000D01*
X122428000Y-134366000D02*
X123444000Y-133350000D01*
X123444000Y-133350000D02*
X123444000Y-122936000D01*
X151638000Y-102616000D02*
X151638000Y-103124000D01*
X151638000Y-103124000D02*
X149352000Y-105410000D01*
X149352000Y-122682000D02*
X149606000Y-122936000D01*
X149352000Y-105410000D02*
X149352000Y-122682000D01*
X150368000Y-103632000D02*
X148844000Y-105156000D01*
X148844000Y-123444000D02*
X149098000Y-123698000D01*
X148844000Y-105156000D02*
X148844000Y-123444000D01*
X151638000Y-100076000D02*
X150368000Y-101346000D01*
X150368000Y-101346000D02*
X150368000Y-103632000D01*
D21*
X154178000Y-102616000D02*
X154178000Y-103378000D01*
X154178000Y-103378000D02*
X151638000Y-105918000D01*
X151638000Y-105918000D02*
X151638000Y-107638000D01*
D20*
X121666000Y-134874000D02*
X121666000Y-134169998D01*
X122682000Y-133153998D02*
X122682000Y-122682000D01*
X121666000Y-134169998D02*
X122682000Y-133153998D01*
X149860000Y-106426000D02*
X149860000Y-105664000D01*
X151638000Y-103886000D02*
X152400000Y-103886000D01*
X149860000Y-105664000D02*
X151638000Y-103886000D01*
X152908000Y-103378000D02*
X152400000Y-103886000D01*
X154178000Y-100076000D02*
X152908000Y-101346000D01*
X152908000Y-101346000D02*
X152908000Y-103378000D01*
X149860000Y-121920000D02*
X150114000Y-122174000D01*
X149860000Y-106426000D02*
X149860000Y-121920000D01*
X123190000Y-122174000D02*
X122682000Y-122682000D01*
X161544000Y-82677000D02*
X161036000Y-82169000D01*
X161036000Y-82169000D02*
X161036000Y-75565000D01*
X162814000Y-82931000D02*
X161798000Y-82931000D01*
X161036000Y-75565000D02*
X155956000Y-70485000D01*
X161798000Y-82931000D02*
X161544000Y-82677000D01*
X162814000Y-80391000D02*
X162814000Y-74803000D01*
X162814000Y-74803000D02*
X158496000Y-70485000D01*
X165354000Y-82931000D02*
X164084000Y-81661000D01*
X164084000Y-73533000D02*
X161036000Y-70485000D01*
X164084000Y-81661000D02*
X164084000Y-73533000D01*
X165354000Y-80391000D02*
X165354000Y-72263000D01*
X165354000Y-72263000D02*
X163576000Y-70485000D01*
X167894000Y-82931000D02*
X166624000Y-81661000D01*
X166624000Y-81661000D02*
X166624000Y-70993000D01*
X166624000Y-70993000D02*
X166116000Y-70485000D01*
X167894000Y-80391000D02*
X167894000Y-71247000D01*
X167894000Y-71247000D02*
X168656000Y-70485000D01*
X170434000Y-82931000D02*
X169164000Y-81661000D01*
X169164000Y-72517000D02*
X171196000Y-70485000D01*
X169164000Y-81661000D02*
X169164000Y-72517000D01*
X170434000Y-80391000D02*
X170434000Y-73787000D01*
X170434000Y-73787000D02*
X173736000Y-70485000D01*
X172974000Y-82931000D02*
X171704000Y-81661000D01*
X171704000Y-75057000D02*
X176276000Y-70485000D01*
X171704000Y-81661000D02*
X171704000Y-75057000D01*
X172974000Y-80391000D02*
X172974000Y-76327000D01*
X172974000Y-76327000D02*
X178816000Y-70485000D01*
X109220000Y-60071000D02*
X109220000Y-58039000D01*
X109220000Y-58039000D02*
X100838000Y-49657000D01*
X111252000Y-62103000D02*
X109220000Y-60071000D01*
X111252000Y-59563000D02*
X111252000Y-57531000D01*
X111252000Y-57531000D02*
X103378000Y-49657000D01*
X113792000Y-62103000D02*
X113792000Y-61595000D01*
X113792000Y-61595000D02*
X112522000Y-60325000D01*
X112522000Y-60325000D02*
X112522000Y-56261000D01*
X112522000Y-56261000D02*
X105918000Y-49657000D01*
X113792000Y-59563000D02*
X113792000Y-54991000D01*
X113792000Y-54991000D02*
X108458000Y-49657000D01*
X116332000Y-62103000D02*
X115062000Y-60833000D01*
X115062000Y-53721000D02*
X110998000Y-49657000D01*
X115062000Y-60833000D02*
X115062000Y-53721000D01*
X116332000Y-59563000D02*
X116332000Y-52451000D01*
X116332000Y-52451000D02*
X113538000Y-49657000D01*
X118872000Y-62103000D02*
X117602000Y-60833000D01*
X117602000Y-51181000D02*
X116078000Y-49657000D01*
X117602000Y-60833000D02*
X117602000Y-51181000D01*
X118872000Y-59563000D02*
X118872000Y-49911000D01*
X118872000Y-49911000D02*
X118618000Y-49657000D01*
X120142000Y-58801000D02*
X120142000Y-50673000D01*
X120142000Y-50673000D02*
X121158000Y-49657000D01*
X121412000Y-62103000D02*
X120142000Y-60833000D01*
X120142000Y-60833000D02*
X120142000Y-58801000D01*
X121412000Y-59563000D02*
X121412000Y-51943000D01*
X121412000Y-51943000D02*
X123698000Y-49657000D01*
X122682000Y-58293000D02*
X122682000Y-53213000D01*
X122682000Y-53213000D02*
X126238000Y-49657000D01*
X123952000Y-62103000D02*
X122682000Y-60833000D01*
X122682000Y-60833000D02*
X122682000Y-58293000D01*
X123952000Y-59563000D02*
X123952000Y-54483000D01*
X123952000Y-54483000D02*
X128778000Y-49657000D01*
X123952000Y-59563000D02*
X123952000Y-59055000D01*
X125222000Y-58801000D02*
X125222000Y-55753000D01*
X125222000Y-55753000D02*
X131318000Y-49657000D01*
X126492000Y-62103000D02*
X125222000Y-60833000D01*
X125222000Y-60833000D02*
X125222000Y-58801000D01*
X126492000Y-59563000D02*
X126492000Y-57023000D01*
X126492000Y-57023000D02*
X133858000Y-49657000D01*
X126492000Y-59563000D02*
X126492000Y-59055000D01*
X127762000Y-58801000D02*
X127762000Y-58293000D01*
X127762000Y-58293000D02*
X136398000Y-49657000D01*
X129032000Y-62103000D02*
X127762000Y-60833000D01*
X127762000Y-60833000D02*
X127762000Y-58801000D01*
X129032000Y-59563000D02*
X138938000Y-49657000D01*
X112776000Y-82931000D02*
X111760000Y-82931000D01*
X100838000Y-72009000D02*
X100838000Y-70485000D01*
X111760000Y-82931000D02*
X100838000Y-72009000D01*
X112776000Y-80391000D02*
X112776000Y-79883000D01*
X112776000Y-79883000D02*
X103378000Y-70485000D01*
X115316000Y-82931000D02*
X114046000Y-81661000D01*
X114046000Y-78613000D02*
X105918000Y-70485000D01*
X114046000Y-81661000D02*
X114046000Y-78613000D01*
X115316000Y-80391000D02*
X115316000Y-77343000D01*
X115316000Y-77343000D02*
X108458000Y-70485000D01*
X117856000Y-82931000D02*
X116586000Y-81661000D01*
X116586000Y-76073000D02*
X110998000Y-70485000D01*
X116586000Y-81661000D02*
X116586000Y-76073000D01*
X117856000Y-80391000D02*
X117856000Y-74803000D01*
X117856000Y-74803000D02*
X113538000Y-70485000D01*
X120396000Y-82931000D02*
X119126000Y-81661000D01*
X119126000Y-73533000D02*
X116078000Y-70485000D01*
X119126000Y-81661000D02*
X119126000Y-73533000D01*
X120396000Y-80391000D02*
X120396000Y-72263000D01*
X120396000Y-72263000D02*
X118618000Y-70485000D01*
X122936000Y-82931000D02*
X121666000Y-81661000D01*
X121666000Y-81661000D02*
X121666000Y-70993000D01*
X121666000Y-70993000D02*
X121158000Y-70485000D01*
X122936000Y-80391000D02*
X122936000Y-71247000D01*
X122936000Y-71247000D02*
X123698000Y-70485000D01*
X125476000Y-82931000D02*
X124206000Y-81661000D01*
X124206000Y-72517000D02*
X126238000Y-70485000D01*
X124206000Y-81661000D02*
X124206000Y-72517000D01*
X125476000Y-80391000D02*
X125476000Y-73787000D01*
X125476000Y-73787000D02*
X128778000Y-70485000D01*
X128016000Y-82931000D02*
X126746000Y-81661000D01*
X126746000Y-75057000D02*
X131318000Y-70485000D01*
X126746000Y-81661000D02*
X126746000Y-75057000D01*
X128016000Y-80391000D02*
X128016000Y-76327000D01*
X128016000Y-76327000D02*
X133858000Y-70485000D01*
X130556000Y-82931000D02*
X129286000Y-81661000D01*
X129286000Y-77597000D02*
X136398000Y-70485000D01*
X129286000Y-81661000D02*
X129286000Y-77597000D01*
X130556000Y-80391000D02*
X130556000Y-78867000D01*
X130556000Y-78867000D02*
X138938000Y-70485000D01*
X133096000Y-82931000D02*
X131826000Y-81661000D01*
X131826000Y-79883000D02*
X141224000Y-70485000D01*
X131826000Y-81661000D02*
X131826000Y-79883000D01*
X141224000Y-70485000D02*
X141478000Y-70485000D01*
X133096000Y-80391000D02*
X133096000Y-79375000D01*
X136398000Y-78105000D02*
X144018000Y-70485000D01*
X134366000Y-78105000D02*
X136398000Y-78105000D01*
X133096000Y-79375000D02*
X134366000Y-78105000D01*
X135636000Y-82931000D02*
X134366000Y-81661000D01*
X138176000Y-78867000D02*
X146558000Y-70485000D01*
X134874000Y-78867000D02*
X138176000Y-78867000D01*
X134366000Y-79375000D02*
X134874000Y-78867000D01*
X134366000Y-81661000D02*
X134366000Y-79375000D01*
X135636000Y-80391000D02*
X139192000Y-80391000D01*
X139192000Y-80391000D02*
X149098000Y-70485000D01*
D21*
X168148000Y-139446000D02*
X168148000Y-134620000D01*
X168148000Y-134620000D02*
X168148000Y-129540000D01*
X172720000Y-112834000D02*
X173736000Y-111818000D01*
X172720000Y-126746000D02*
X172720000Y-112834000D01*
X170942000Y-128524000D02*
X172720000Y-126746000D01*
X169164000Y-128524000D02*
X170942000Y-128524000D01*
X168148000Y-129540000D02*
X169164000Y-128524000D01*
X151638000Y-111818000D02*
X151638000Y-112077002D01*
X151638000Y-112077002D02*
X151384000Y-112331002D01*
X151384000Y-112331002D02*
X151384000Y-124460000D01*
X151384000Y-124460000D02*
X149606000Y-126238000D01*
D20*
X164338000Y-133350000D02*
X164338000Y-134874000D01*
X168656000Y-120396000D02*
X169672000Y-121412000D01*
X169164000Y-125707992D02*
X168170008Y-125707992D01*
X169672000Y-125199992D02*
X169164000Y-125707992D01*
X169672000Y-121412000D02*
X169672000Y-125199992D01*
X164569992Y-125707992D02*
X164338000Y-125476000D01*
X168170008Y-125707992D02*
X164569992Y-125707992D01*
X164338000Y-134874000D02*
X163068000Y-136144000D01*
X163068000Y-136144000D02*
X163068000Y-140462000D01*
X168656000Y-119126000D02*
X169164000Y-118618000D01*
X169164000Y-118618000D02*
X169164000Y-104140000D01*
X169672000Y-103632000D02*
X169164000Y-104140000D01*
X169672000Y-101092000D02*
X169672000Y-103632000D01*
X170688000Y-100076000D02*
X169672000Y-101092000D01*
X168656000Y-119126000D02*
X168656000Y-120396000D01*
X170942000Y-100076000D02*
X170688000Y-100076000D01*
D22*
G36*
X149225000Y-70358000D02*
X149245000Y-70358000D01*
X149245000Y-70612000D01*
X149225000Y-70612000D01*
X149225000Y-71805155D01*
X149454890Y-71926476D01*
X149864924Y-71756645D01*
X150293183Y-71366358D01*
X150328000Y-71292220D01*
X150328000Y-74803000D01*
X150343410Y-74880472D01*
X150343410Y-74959462D01*
X150449750Y-75494071D01*
X150495699Y-75605000D01*
X150569502Y-75783177D01*
X150872334Y-76236396D01*
X151003000Y-76367062D01*
X151003000Y-78318938D01*
X150872334Y-78449604D01*
X150569502Y-78902823D01*
X150554498Y-78939046D01*
X150449750Y-79191929D01*
X150343410Y-79726538D01*
X150343410Y-79805528D01*
X150328000Y-79883000D01*
X150328000Y-85685000D01*
X140589000Y-85685000D01*
X140511528Y-85700410D01*
X139897929Y-85806750D01*
X139608824Y-85926501D01*
X139608823Y-85926502D01*
X139155604Y-86229334D01*
X139024938Y-86360000D01*
X137073062Y-86360000D01*
X136942396Y-86229334D01*
X136489177Y-85926502D01*
X136369425Y-85876899D01*
X136200071Y-85806750D01*
X135665462Y-85700410D01*
X135586472Y-85700410D01*
X135509000Y-85685000D01*
X114427000Y-85685000D01*
X114349528Y-85700410D01*
X113735929Y-85806750D01*
X113446824Y-85926501D01*
X113446823Y-85926502D01*
X112993604Y-86229334D01*
X112862938Y-86360000D01*
X110911062Y-86360000D01*
X110780396Y-86229334D01*
X110327177Y-85926502D01*
X110207425Y-85876899D01*
X110038071Y-85806750D01*
X109503462Y-85700410D01*
X109424472Y-85700410D01*
X109347000Y-85685000D01*
X99608000Y-85685000D01*
X99608000Y-71955245D01*
X99699615Y-72017843D01*
X99988000Y-72076242D01*
X99999375Y-72076242D01*
X100050855Y-72335046D01*
X100235545Y-72611455D01*
X111157545Y-83533455D01*
X111184758Y-83551638D01*
X111184758Y-83781000D01*
X111235451Y-84050410D01*
X111394672Y-84297846D01*
X111637615Y-84463843D01*
X111926000Y-84522242D01*
X113626000Y-84522242D01*
X113895410Y-84471549D01*
X114142846Y-84312328D01*
X114274420Y-84119764D01*
X114421535Y-84267136D01*
X115000939Y-84507725D01*
X115628308Y-84508273D01*
X116208132Y-84268695D01*
X116586270Y-83891216D01*
X116961535Y-84267136D01*
X117540939Y-84507725D01*
X118168308Y-84508273D01*
X118748132Y-84268695D01*
X119126270Y-83891216D01*
X119501535Y-84267136D01*
X120080939Y-84507725D01*
X120708308Y-84508273D01*
X121288132Y-84268695D01*
X121666270Y-83891216D01*
X122041535Y-84267136D01*
X122620939Y-84507725D01*
X123248308Y-84508273D01*
X123828132Y-84268695D01*
X124206270Y-83891216D01*
X124581535Y-84267136D01*
X125160939Y-84507725D01*
X125788308Y-84508273D01*
X126368132Y-84268695D01*
X126746270Y-83891216D01*
X127121535Y-84267136D01*
X127700939Y-84507725D01*
X128328308Y-84508273D01*
X128908132Y-84268695D01*
X129286270Y-83891216D01*
X129661535Y-84267136D01*
X130240939Y-84507725D01*
X130868308Y-84508273D01*
X131448132Y-84268695D01*
X131826270Y-83891216D01*
X132201535Y-84267136D01*
X132780939Y-84507725D01*
X133408308Y-84508273D01*
X133988132Y-84268695D01*
X134366270Y-83891216D01*
X134741535Y-84267136D01*
X135320939Y-84507725D01*
X135948308Y-84508273D01*
X136528132Y-84268695D01*
X136972136Y-83825465D01*
X137212725Y-83246061D01*
X137213273Y-82618692D01*
X136973695Y-82038868D01*
X136530465Y-81594864D01*
X136458782Y-81565099D01*
X136500353Y-81434958D01*
X135636000Y-80570605D01*
X135621858Y-80584748D01*
X135442253Y-80405143D01*
X135456395Y-80391000D01*
X135442253Y-80376858D01*
X135621858Y-80197253D01*
X135636000Y-80211395D01*
X135650143Y-80197253D01*
X135829748Y-80376858D01*
X135815605Y-80391000D01*
X136679958Y-81255353D01*
X136931259Y-81175080D01*
X137132718Y-80619721D01*
X137106315Y-80029542D01*
X136977684Y-79719000D01*
X138176000Y-79719000D01*
X138502046Y-79654145D01*
X138778455Y-79469455D01*
X146221875Y-72026035D01*
X146558000Y-72092895D01*
X147161492Y-71972853D01*
X147673107Y-71631002D01*
X147880991Y-71319882D01*
X147902817Y-71366358D01*
X148331076Y-71756645D01*
X148741110Y-71926476D01*
X148971000Y-71805155D01*
X148971000Y-70612000D01*
X148951000Y-70612000D01*
X148951000Y-70358000D01*
X148971000Y-70358000D01*
X148971000Y-70338000D01*
X149225000Y-70338000D01*
X149225000Y-70358000D01*
X149225000Y-70358000D01*
G37*
X149225000Y-70358000D02*
X149245000Y-70358000D01*
X149245000Y-70612000D01*
X149225000Y-70612000D01*
X149225000Y-71805155D01*
X149454890Y-71926476D01*
X149864924Y-71756645D01*
X150293183Y-71366358D01*
X150328000Y-71292220D01*
X150328000Y-74803000D01*
X150343410Y-74880472D01*
X150343410Y-74959462D01*
X150449750Y-75494071D01*
X150495699Y-75605000D01*
X150569502Y-75783177D01*
X150872334Y-76236396D01*
X151003000Y-76367062D01*
X151003000Y-78318938D01*
X150872334Y-78449604D01*
X150569502Y-78902823D01*
X150554498Y-78939046D01*
X150449750Y-79191929D01*
X150343410Y-79726538D01*
X150343410Y-79805528D01*
X150328000Y-79883000D01*
X150328000Y-85685000D01*
X140589000Y-85685000D01*
X140511528Y-85700410D01*
X139897929Y-85806750D01*
X139608824Y-85926501D01*
X139608823Y-85926502D01*
X139155604Y-86229334D01*
X139024938Y-86360000D01*
X137073062Y-86360000D01*
X136942396Y-86229334D01*
X136489177Y-85926502D01*
X136369425Y-85876899D01*
X136200071Y-85806750D01*
X135665462Y-85700410D01*
X135586472Y-85700410D01*
X135509000Y-85685000D01*
X114427000Y-85685000D01*
X114349528Y-85700410D01*
X113735929Y-85806750D01*
X113446824Y-85926501D01*
X113446823Y-85926502D01*
X112993604Y-86229334D01*
X112862938Y-86360000D01*
X110911062Y-86360000D01*
X110780396Y-86229334D01*
X110327177Y-85926502D01*
X110207425Y-85876899D01*
X110038071Y-85806750D01*
X109503462Y-85700410D01*
X109424472Y-85700410D01*
X109347000Y-85685000D01*
X99608000Y-85685000D01*
X99608000Y-71955245D01*
X99699615Y-72017843D01*
X99988000Y-72076242D01*
X99999375Y-72076242D01*
X100050855Y-72335046D01*
X100235545Y-72611455D01*
X111157545Y-83533455D01*
X111184758Y-83551638D01*
X111184758Y-83781000D01*
X111235451Y-84050410D01*
X111394672Y-84297846D01*
X111637615Y-84463843D01*
X111926000Y-84522242D01*
X113626000Y-84522242D01*
X113895410Y-84471549D01*
X114142846Y-84312328D01*
X114274420Y-84119764D01*
X114421535Y-84267136D01*
X115000939Y-84507725D01*
X115628308Y-84508273D01*
X116208132Y-84268695D01*
X116586270Y-83891216D01*
X116961535Y-84267136D01*
X117540939Y-84507725D01*
X118168308Y-84508273D01*
X118748132Y-84268695D01*
X119126270Y-83891216D01*
X119501535Y-84267136D01*
X120080939Y-84507725D01*
X120708308Y-84508273D01*
X121288132Y-84268695D01*
X121666270Y-83891216D01*
X122041535Y-84267136D01*
X122620939Y-84507725D01*
X123248308Y-84508273D01*
X123828132Y-84268695D01*
X124206270Y-83891216D01*
X124581535Y-84267136D01*
X125160939Y-84507725D01*
X125788308Y-84508273D01*
X126368132Y-84268695D01*
X126746270Y-83891216D01*
X127121535Y-84267136D01*
X127700939Y-84507725D01*
X128328308Y-84508273D01*
X128908132Y-84268695D01*
X129286270Y-83891216D01*
X129661535Y-84267136D01*
X130240939Y-84507725D01*
X130868308Y-84508273D01*
X131448132Y-84268695D01*
X131826270Y-83891216D01*
X132201535Y-84267136D01*
X132780939Y-84507725D01*
X133408308Y-84508273D01*
X133988132Y-84268695D01*
X134366270Y-83891216D01*
X134741535Y-84267136D01*
X135320939Y-84507725D01*
X135948308Y-84508273D01*
X136528132Y-84268695D01*
X136972136Y-83825465D01*
X137212725Y-83246061D01*
X137213273Y-82618692D01*
X136973695Y-82038868D01*
X136530465Y-81594864D01*
X136458782Y-81565099D01*
X136500353Y-81434958D01*
X135636000Y-80570605D01*
X135621858Y-80584748D01*
X135442253Y-80405143D01*
X135456395Y-80391000D01*
X135442253Y-80376858D01*
X135621858Y-80197253D01*
X135636000Y-80211395D01*
X135650143Y-80197253D01*
X135829748Y-80376858D01*
X135815605Y-80391000D01*
X136679958Y-81255353D01*
X136931259Y-81175080D01*
X137132718Y-80619721D01*
X137106315Y-80029542D01*
X136977684Y-79719000D01*
X138176000Y-79719000D01*
X138502046Y-79654145D01*
X138778455Y-79469455D01*
X146221875Y-72026035D01*
X146558000Y-72092895D01*
X147161492Y-71972853D01*
X147673107Y-71631002D01*
X147880991Y-71319882D01*
X147902817Y-71366358D01*
X148331076Y-71756645D01*
X148741110Y-71926476D01*
X148971000Y-71805155D01*
X148971000Y-70612000D01*
X148951000Y-70612000D01*
X148951000Y-70358000D01*
X148971000Y-70358000D01*
X148971000Y-70338000D01*
X149225000Y-70338000D01*
X149225000Y-70358000D01*
G36*
X178943000Y-70358000D02*
X178963000Y-70358000D01*
X178963000Y-70612000D01*
X178943000Y-70612000D01*
X178943000Y-71805155D01*
X179172890Y-71926476D01*
X179582924Y-71756645D01*
X180011183Y-71366358D01*
X180046000Y-71292220D01*
X180046000Y-85685000D01*
X169926000Y-85685000D01*
X169848528Y-85700410D01*
X169234929Y-85806750D01*
X168945824Y-85926501D01*
X168945823Y-85926502D01*
X168492604Y-86229334D01*
X168361938Y-86360000D01*
X166410062Y-86360000D01*
X166279396Y-86229334D01*
X165826177Y-85926502D01*
X165706425Y-85876899D01*
X165537071Y-85806750D01*
X165002462Y-85700410D01*
X164923472Y-85700410D01*
X164846000Y-85685000D01*
X154726000Y-85685000D01*
X154726000Y-79883000D01*
X154710590Y-79805528D01*
X154710590Y-79726538D01*
X154604250Y-79191929D01*
X154484499Y-78902824D01*
X154484498Y-78902823D01*
X154181666Y-78449604D01*
X154051000Y-78318938D01*
X154051000Y-76367062D01*
X154181666Y-76236396D01*
X154484498Y-75783177D01*
X154484499Y-75783176D01*
X154604250Y-75494071D01*
X154710590Y-74959462D01*
X154710590Y-74880472D01*
X154726000Y-74803000D01*
X154726000Y-71955245D01*
X154817615Y-72017843D01*
X155106000Y-72076242D01*
X156342332Y-72076242D01*
X160184000Y-75917910D01*
X160184000Y-82169000D01*
X160248855Y-82495046D01*
X160433545Y-82771455D01*
X161195545Y-83533455D01*
X161222758Y-83551638D01*
X161222758Y-83781000D01*
X161273451Y-84050410D01*
X161432672Y-84297846D01*
X161675615Y-84463843D01*
X161964000Y-84522242D01*
X163664000Y-84522242D01*
X163933410Y-84471549D01*
X164180846Y-84312328D01*
X164312420Y-84119764D01*
X164459535Y-84267136D01*
X165038939Y-84507725D01*
X165666308Y-84508273D01*
X166246132Y-84268695D01*
X166624270Y-83891216D01*
X166999535Y-84267136D01*
X167578939Y-84507725D01*
X168206308Y-84508273D01*
X168786132Y-84268695D01*
X169164270Y-83891216D01*
X169539535Y-84267136D01*
X170118939Y-84507725D01*
X170746308Y-84508273D01*
X171326132Y-84268695D01*
X171704270Y-83891216D01*
X172079535Y-84267136D01*
X172658939Y-84507725D01*
X173286308Y-84508273D01*
X173866132Y-84268695D01*
X174310136Y-83825465D01*
X174550725Y-83246061D01*
X174551273Y-82618692D01*
X174311695Y-82038868D01*
X173868465Y-81594864D01*
X173796782Y-81565099D01*
X173838353Y-81434958D01*
X172974000Y-80570605D01*
X172959858Y-80584748D01*
X172780253Y-80405143D01*
X172794395Y-80391000D01*
X173153605Y-80391000D01*
X174017958Y-81255353D01*
X174269259Y-81175080D01*
X174470718Y-80619721D01*
X174444315Y-80029542D01*
X174269259Y-79606920D01*
X174017958Y-79526647D01*
X173153605Y-80391000D01*
X172794395Y-80391000D01*
X172780253Y-80376858D01*
X172959858Y-80197253D01*
X172974000Y-80211395D01*
X173838353Y-79347042D01*
X173758080Y-79095741D01*
X173202721Y-78894282D01*
X172612542Y-78920685D01*
X172556000Y-78944105D01*
X172556000Y-75409910D01*
X175939875Y-72026035D01*
X176276000Y-72092895D01*
X176879492Y-71972853D01*
X177391107Y-71631002D01*
X177598991Y-71319882D01*
X177620817Y-71366358D01*
X178049076Y-71756645D01*
X178459110Y-71926476D01*
X178689000Y-71805155D01*
X178689000Y-70612000D01*
X178669000Y-70612000D01*
X178669000Y-70358000D01*
X178689000Y-70358000D01*
X178689000Y-70338000D01*
X178943000Y-70338000D01*
X178943000Y-70358000D01*
X178943000Y-70358000D01*
G37*
X178943000Y-70358000D02*
X178963000Y-70358000D01*
X178963000Y-70612000D01*
X178943000Y-70612000D01*
X178943000Y-71805155D01*
X179172890Y-71926476D01*
X179582924Y-71756645D01*
X180011183Y-71366358D01*
X180046000Y-71292220D01*
X180046000Y-85685000D01*
X169926000Y-85685000D01*
X169848528Y-85700410D01*
X169234929Y-85806750D01*
X168945824Y-85926501D01*
X168945823Y-85926502D01*
X168492604Y-86229334D01*
X168361938Y-86360000D01*
X166410062Y-86360000D01*
X166279396Y-86229334D01*
X165826177Y-85926502D01*
X165706425Y-85876899D01*
X165537071Y-85806750D01*
X165002462Y-85700410D01*
X164923472Y-85700410D01*
X164846000Y-85685000D01*
X154726000Y-85685000D01*
X154726000Y-79883000D01*
X154710590Y-79805528D01*
X154710590Y-79726538D01*
X154604250Y-79191929D01*
X154484499Y-78902824D01*
X154484498Y-78902823D01*
X154181666Y-78449604D01*
X154051000Y-78318938D01*
X154051000Y-76367062D01*
X154181666Y-76236396D01*
X154484498Y-75783177D01*
X154484499Y-75783176D01*
X154604250Y-75494071D01*
X154710590Y-74959462D01*
X154710590Y-74880472D01*
X154726000Y-74803000D01*
X154726000Y-71955245D01*
X154817615Y-72017843D01*
X155106000Y-72076242D01*
X156342332Y-72076242D01*
X160184000Y-75917910D01*
X160184000Y-82169000D01*
X160248855Y-82495046D01*
X160433545Y-82771455D01*
X161195545Y-83533455D01*
X161222758Y-83551638D01*
X161222758Y-83781000D01*
X161273451Y-84050410D01*
X161432672Y-84297846D01*
X161675615Y-84463843D01*
X161964000Y-84522242D01*
X163664000Y-84522242D01*
X163933410Y-84471549D01*
X164180846Y-84312328D01*
X164312420Y-84119764D01*
X164459535Y-84267136D01*
X165038939Y-84507725D01*
X165666308Y-84508273D01*
X166246132Y-84268695D01*
X166624270Y-83891216D01*
X166999535Y-84267136D01*
X167578939Y-84507725D01*
X168206308Y-84508273D01*
X168786132Y-84268695D01*
X169164270Y-83891216D01*
X169539535Y-84267136D01*
X170118939Y-84507725D01*
X170746308Y-84508273D01*
X171326132Y-84268695D01*
X171704270Y-83891216D01*
X172079535Y-84267136D01*
X172658939Y-84507725D01*
X173286308Y-84508273D01*
X173866132Y-84268695D01*
X174310136Y-83825465D01*
X174550725Y-83246061D01*
X174551273Y-82618692D01*
X174311695Y-82038868D01*
X173868465Y-81594864D01*
X173796782Y-81565099D01*
X173838353Y-81434958D01*
X172974000Y-80570605D01*
X172959858Y-80584748D01*
X172780253Y-80405143D01*
X172794395Y-80391000D01*
X173153605Y-80391000D01*
X174017958Y-81255353D01*
X174269259Y-81175080D01*
X174470718Y-80619721D01*
X174444315Y-80029542D01*
X174269259Y-79606920D01*
X174017958Y-79526647D01*
X173153605Y-80391000D01*
X172794395Y-80391000D01*
X172780253Y-80376858D01*
X172959858Y-80197253D01*
X172974000Y-80211395D01*
X173838353Y-79347042D01*
X173758080Y-79095741D01*
X173202721Y-78894282D01*
X172612542Y-78920685D01*
X172556000Y-78944105D01*
X172556000Y-75409910D01*
X175939875Y-72026035D01*
X176276000Y-72092895D01*
X176879492Y-71972853D01*
X177391107Y-71631002D01*
X177598991Y-71319882D01*
X177620817Y-71366358D01*
X178049076Y-71756645D01*
X178459110Y-71926476D01*
X178689000Y-71805155D01*
X178689000Y-70612000D01*
X178669000Y-70612000D01*
X178669000Y-70358000D01*
X178689000Y-70358000D01*
X178689000Y-70338000D01*
X178943000Y-70338000D01*
X178943000Y-70358000D01*
G36*
X139065000Y-49530000D02*
X139085000Y-49530000D01*
X139085000Y-49784000D01*
X139065000Y-49784000D01*
X139065000Y-50977155D01*
X139294890Y-51098476D01*
X139704924Y-50928645D01*
X140133183Y-50538358D01*
X140168000Y-50464220D01*
X140168000Y-64857000D01*
X132969000Y-64857000D01*
X132891528Y-64872410D01*
X132277929Y-64978750D01*
X131988824Y-65098501D01*
X131988823Y-65098502D01*
X131535604Y-65401334D01*
X131404938Y-65532000D01*
X129453062Y-65532000D01*
X129322396Y-65401334D01*
X128869177Y-65098502D01*
X128749425Y-65048899D01*
X128580071Y-64978750D01*
X128045462Y-64872410D01*
X127966472Y-64872410D01*
X127889000Y-64857000D01*
X111887000Y-64857000D01*
X111809528Y-64872410D01*
X111195929Y-64978750D01*
X110906824Y-65098501D01*
X110906823Y-65098502D01*
X110453604Y-65401334D01*
X110322938Y-65532000D01*
X108371062Y-65532000D01*
X108240396Y-65401334D01*
X107787177Y-65098502D01*
X107667425Y-65048899D01*
X107498071Y-64978750D01*
X106963462Y-64872410D01*
X106884472Y-64872410D01*
X106807000Y-64857000D01*
X99608000Y-64857000D01*
X99608000Y-51127245D01*
X99699615Y-51189843D01*
X99988000Y-51248242D01*
X101224332Y-51248242D01*
X108368000Y-58391910D01*
X108368000Y-60071000D01*
X108432855Y-60397046D01*
X108617545Y-60673455D01*
X109660758Y-61716668D01*
X109660758Y-62953000D01*
X109711451Y-63222410D01*
X109870672Y-63469846D01*
X110113615Y-63635843D01*
X110402000Y-63694242D01*
X112102000Y-63694242D01*
X112371410Y-63643549D01*
X112618846Y-63484328D01*
X112750420Y-63291764D01*
X112897535Y-63439136D01*
X113476939Y-63679725D01*
X114104308Y-63680273D01*
X114684132Y-63440695D01*
X115062270Y-63063216D01*
X115437535Y-63439136D01*
X116016939Y-63679725D01*
X116644308Y-63680273D01*
X117224132Y-63440695D01*
X117602270Y-63063216D01*
X117977535Y-63439136D01*
X118556939Y-63679725D01*
X119184308Y-63680273D01*
X119764132Y-63440695D01*
X120142270Y-63063216D01*
X120517535Y-63439136D01*
X121096939Y-63679725D01*
X121724308Y-63680273D01*
X122304132Y-63440695D01*
X122682270Y-63063216D01*
X123057535Y-63439136D01*
X123636939Y-63679725D01*
X124264308Y-63680273D01*
X124844132Y-63440695D01*
X125222270Y-63063216D01*
X125597535Y-63439136D01*
X126176939Y-63679725D01*
X126804308Y-63680273D01*
X127384132Y-63440695D01*
X127762270Y-63063216D01*
X128137535Y-63439136D01*
X128716939Y-63679725D01*
X129344308Y-63680273D01*
X129924132Y-63440695D01*
X130368136Y-62997465D01*
X130608725Y-62418061D01*
X130609273Y-61790692D01*
X130369695Y-61210868D01*
X129926465Y-60766864D01*
X129854782Y-60737099D01*
X129896353Y-60606958D01*
X129032000Y-59742605D01*
X129017858Y-59756748D01*
X128838253Y-59577143D01*
X128852395Y-59563000D01*
X129211605Y-59563000D01*
X130075958Y-60427353D01*
X130327259Y-60347080D01*
X130528718Y-59791721D01*
X130502315Y-59201542D01*
X130327259Y-58778920D01*
X130075958Y-58698647D01*
X129211605Y-59563000D01*
X128852395Y-59563000D01*
X128838253Y-59548858D01*
X129017858Y-59369253D01*
X129032000Y-59383395D01*
X129896353Y-58519042D01*
X129816080Y-58267741D01*
X129260721Y-58066282D01*
X129190486Y-58069424D01*
X136061875Y-51198035D01*
X136398000Y-51264895D01*
X137001492Y-51144853D01*
X137513107Y-50803002D01*
X137720991Y-50491882D01*
X137742817Y-50538358D01*
X138171076Y-50928645D01*
X138581110Y-51098476D01*
X138811000Y-50977155D01*
X138811000Y-49784000D01*
X138791000Y-49784000D01*
X138791000Y-49530000D01*
X138811000Y-49530000D01*
X138811000Y-49510000D01*
X139065000Y-49510000D01*
X139065000Y-49530000D01*
X139065000Y-49530000D01*
G37*
X139065000Y-49530000D02*
X139085000Y-49530000D01*
X139085000Y-49784000D01*
X139065000Y-49784000D01*
X139065000Y-50977155D01*
X139294890Y-51098476D01*
X139704924Y-50928645D01*
X140133183Y-50538358D01*
X140168000Y-50464220D01*
X140168000Y-64857000D01*
X132969000Y-64857000D01*
X132891528Y-64872410D01*
X132277929Y-64978750D01*
X131988824Y-65098501D01*
X131988823Y-65098502D01*
X131535604Y-65401334D01*
X131404938Y-65532000D01*
X129453062Y-65532000D01*
X129322396Y-65401334D01*
X128869177Y-65098502D01*
X128749425Y-65048899D01*
X128580071Y-64978750D01*
X128045462Y-64872410D01*
X127966472Y-64872410D01*
X127889000Y-64857000D01*
X111887000Y-64857000D01*
X111809528Y-64872410D01*
X111195929Y-64978750D01*
X110906824Y-65098501D01*
X110906823Y-65098502D01*
X110453604Y-65401334D01*
X110322938Y-65532000D01*
X108371062Y-65532000D01*
X108240396Y-65401334D01*
X107787177Y-65098502D01*
X107667425Y-65048899D01*
X107498071Y-64978750D01*
X106963462Y-64872410D01*
X106884472Y-64872410D01*
X106807000Y-64857000D01*
X99608000Y-64857000D01*
X99608000Y-51127245D01*
X99699615Y-51189843D01*
X99988000Y-51248242D01*
X101224332Y-51248242D01*
X108368000Y-58391910D01*
X108368000Y-60071000D01*
X108432855Y-60397046D01*
X108617545Y-60673455D01*
X109660758Y-61716668D01*
X109660758Y-62953000D01*
X109711451Y-63222410D01*
X109870672Y-63469846D01*
X110113615Y-63635843D01*
X110402000Y-63694242D01*
X112102000Y-63694242D01*
X112371410Y-63643549D01*
X112618846Y-63484328D01*
X112750420Y-63291764D01*
X112897535Y-63439136D01*
X113476939Y-63679725D01*
X114104308Y-63680273D01*
X114684132Y-63440695D01*
X115062270Y-63063216D01*
X115437535Y-63439136D01*
X116016939Y-63679725D01*
X116644308Y-63680273D01*
X117224132Y-63440695D01*
X117602270Y-63063216D01*
X117977535Y-63439136D01*
X118556939Y-63679725D01*
X119184308Y-63680273D01*
X119764132Y-63440695D01*
X120142270Y-63063216D01*
X120517535Y-63439136D01*
X121096939Y-63679725D01*
X121724308Y-63680273D01*
X122304132Y-63440695D01*
X122682270Y-63063216D01*
X123057535Y-63439136D01*
X123636939Y-63679725D01*
X124264308Y-63680273D01*
X124844132Y-63440695D01*
X125222270Y-63063216D01*
X125597535Y-63439136D01*
X126176939Y-63679725D01*
X126804308Y-63680273D01*
X127384132Y-63440695D01*
X127762270Y-63063216D01*
X128137535Y-63439136D01*
X128716939Y-63679725D01*
X129344308Y-63680273D01*
X129924132Y-63440695D01*
X130368136Y-62997465D01*
X130608725Y-62418061D01*
X130609273Y-61790692D01*
X130369695Y-61210868D01*
X129926465Y-60766864D01*
X129854782Y-60737099D01*
X129896353Y-60606958D01*
X129032000Y-59742605D01*
X129017858Y-59756748D01*
X128838253Y-59577143D01*
X128852395Y-59563000D01*
X129211605Y-59563000D01*
X130075958Y-60427353D01*
X130327259Y-60347080D01*
X130528718Y-59791721D01*
X130502315Y-59201542D01*
X130327259Y-58778920D01*
X130075958Y-58698647D01*
X129211605Y-59563000D01*
X128852395Y-59563000D01*
X128838253Y-59548858D01*
X129017858Y-59369253D01*
X129032000Y-59383395D01*
X129896353Y-58519042D01*
X129816080Y-58267741D01*
X129260721Y-58066282D01*
X129190486Y-58069424D01*
X136061875Y-51198035D01*
X136398000Y-51264895D01*
X137001492Y-51144853D01*
X137513107Y-50803002D01*
X137720991Y-50491882D01*
X137742817Y-50538358D01*
X138171076Y-50928645D01*
X138581110Y-51098476D01*
X138811000Y-50977155D01*
X138811000Y-49784000D01*
X138791000Y-49784000D01*
X138791000Y-49530000D01*
X138811000Y-49530000D01*
X138811000Y-49510000D01*
X139065000Y-49510000D01*
X139065000Y-49530000D01*
G36*
X112993604Y-89538666D02*
X113446823Y-89841498D01*
X113446824Y-89841499D01*
X113735929Y-89961250D01*
X114270538Y-90067590D01*
X114349528Y-90067590D01*
X114427000Y-90083000D01*
X135509000Y-90083000D01*
X135586472Y-90067590D01*
X135665462Y-90067590D01*
X136200071Y-89961250D01*
X136369425Y-89891101D01*
X136489177Y-89841498D01*
X136942396Y-89538666D01*
X137073062Y-89408000D01*
X139024938Y-89408000D01*
X139155604Y-89538666D01*
X139608823Y-89841498D01*
X139608824Y-89841499D01*
X139897929Y-89961250D01*
X140432538Y-90067590D01*
X140511528Y-90067590D01*
X140589000Y-90083000D01*
X164846000Y-90083000D01*
X164923472Y-90067590D01*
X165002462Y-90067590D01*
X165537071Y-89961250D01*
X165706425Y-89891101D01*
X165826177Y-89841498D01*
X166279396Y-89538666D01*
X166410062Y-89408000D01*
X168361938Y-89408000D01*
X168492604Y-89538666D01*
X168945823Y-89841498D01*
X168945824Y-89841499D01*
X169234929Y-89961250D01*
X169769538Y-90067590D01*
X169848528Y-90067590D01*
X169926000Y-90083000D01*
X183094000Y-90083000D01*
X183094000Y-132802000D01*
X169418000Y-132802000D01*
X169375000Y-132810553D01*
X169375000Y-130048240D01*
X169672240Y-129751000D01*
X170942000Y-129751000D01*
X171411553Y-129657600D01*
X171809620Y-129391620D01*
X173587620Y-127613620D01*
X173853601Y-127215552D01*
X173947000Y-126746000D01*
X173947000Y-113884242D01*
X174751000Y-113884242D01*
X175020410Y-113833549D01*
X175267846Y-113674328D01*
X175433843Y-113431385D01*
X175492242Y-113143000D01*
X175492242Y-110493000D01*
X175441549Y-110223590D01*
X175282328Y-109976154D01*
X175039385Y-109810157D01*
X174751000Y-109751758D01*
X172721000Y-109751758D01*
X172556000Y-109782805D01*
X172556000Y-109670829D01*
X172721000Y-109704242D01*
X174751000Y-109704242D01*
X175020410Y-109653549D01*
X175267846Y-109494328D01*
X175433843Y-109251385D01*
X175492242Y-108963000D01*
X175492242Y-106891000D01*
X175514000Y-106891000D01*
X175983553Y-106797600D01*
X176381620Y-106531620D01*
X178720102Y-104193138D01*
X178874308Y-104193273D01*
X179454132Y-103953695D01*
X179898136Y-103510465D01*
X180138725Y-102931061D01*
X180138862Y-102774378D01*
X181207620Y-101705620D01*
X181473601Y-101307552D01*
X181567000Y-100838000D01*
X181567000Y-98806000D01*
X181508829Y-98513553D01*
X181473601Y-98336448D01*
X181207620Y-97938380D01*
X180445620Y-97176380D01*
X180047553Y-96910400D01*
X179578000Y-96817000D01*
X128778000Y-96817000D01*
X128308447Y-96910400D01*
X127910380Y-97176380D01*
X123697760Y-101389000D01*
X123177411Y-101389000D01*
X123068465Y-101279864D01*
X122996782Y-101250099D01*
X123038353Y-101119958D01*
X122174000Y-100255605D01*
X122159858Y-100269748D01*
X121980253Y-100090143D01*
X121994395Y-100076000D01*
X122353605Y-100076000D01*
X123217958Y-100940353D01*
X123469259Y-100860080D01*
X123670718Y-100304721D01*
X123644315Y-99714542D01*
X123469259Y-99291920D01*
X123217958Y-99211647D01*
X122353605Y-100076000D01*
X121994395Y-100076000D01*
X121130042Y-99211647D01*
X121000297Y-99253091D01*
X120971695Y-99183868D01*
X120820134Y-99032042D01*
X121309647Y-99032042D01*
X122174000Y-99896395D01*
X123038353Y-99032042D01*
X122958080Y-98780741D01*
X122402721Y-98579282D01*
X121812542Y-98605685D01*
X121389920Y-98780741D01*
X121309647Y-99032042D01*
X120820134Y-99032042D01*
X120528465Y-98739864D01*
X119949061Y-98499275D01*
X119321692Y-98498727D01*
X118741868Y-98738305D01*
X118363730Y-99115784D01*
X117988465Y-98739864D01*
X117409061Y-98499275D01*
X116781692Y-98498727D01*
X116201868Y-98738305D01*
X115823730Y-99115784D01*
X115448465Y-98739864D01*
X114869061Y-98499275D01*
X114241692Y-98498727D01*
X113661868Y-98738305D01*
X113283730Y-99115784D01*
X112908465Y-98739864D01*
X112329061Y-98499275D01*
X111701692Y-98498727D01*
X111121868Y-98738305D01*
X110743730Y-99115784D01*
X110368465Y-98739864D01*
X109789061Y-98499275D01*
X109161692Y-98498727D01*
X108581868Y-98738305D01*
X108203730Y-99115784D01*
X107828465Y-98739864D01*
X107249061Y-98499275D01*
X106621692Y-98498727D01*
X106041868Y-98738305D01*
X105663730Y-99115784D01*
X105288465Y-98739864D01*
X104709061Y-98499275D01*
X104081692Y-98498727D01*
X103501868Y-98738305D01*
X103057864Y-99181535D01*
X102817275Y-99760939D01*
X102816727Y-100388308D01*
X103056305Y-100968132D01*
X103206911Y-101119001D01*
X103027154Y-101234672D01*
X102861157Y-101477615D01*
X102802758Y-101766000D01*
X102802758Y-103466000D01*
X102853451Y-103735410D01*
X103012672Y-103982846D01*
X103255615Y-104148843D01*
X103544000Y-104207242D01*
X104272332Y-104207242D01*
X106331545Y-106266455D01*
X106607953Y-106451145D01*
X106810530Y-106491440D01*
X120047545Y-119728455D01*
X120323954Y-119913145D01*
X120650000Y-119978000D01*
X122624622Y-119978000D01*
X122592000Y-120142000D01*
X122592000Y-120297090D01*
X122170715Y-120718375D01*
X121994508Y-120541860D01*
X121617179Y-120385179D01*
X121208613Y-120384822D01*
X120831011Y-120540844D01*
X120541860Y-120829492D01*
X120385179Y-121206821D01*
X120384822Y-121615387D01*
X120540844Y-121992989D01*
X120560000Y-122012178D01*
X120560000Y-131981090D01*
X116813919Y-135727171D01*
X116578590Y-135771451D01*
X116394360Y-135890000D01*
X115586404Y-135890000D01*
X115434309Y-135827000D01*
X115093750Y-135827000D01*
X115030750Y-135890000D01*
X114585250Y-135890000D01*
X114522250Y-135827000D01*
X114340000Y-135827000D01*
X114340000Y-133858000D01*
X114278951Y-133551088D01*
X114105100Y-133290900D01*
X113844912Y-133117049D01*
X113538000Y-133056000D01*
X99608000Y-133056000D01*
X99608000Y-90083000D01*
X109347000Y-90083000D01*
X109424472Y-90067590D01*
X109503462Y-90067590D01*
X110038071Y-89961250D01*
X110207425Y-89891101D01*
X110327177Y-89841498D01*
X110780396Y-89538666D01*
X110911062Y-89408000D01*
X112862938Y-89408000D01*
X112993604Y-89538666D01*
X112993604Y-89538666D01*
G37*
X112993604Y-89538666D02*
X113446823Y-89841498D01*
X113446824Y-89841499D01*
X113735929Y-89961250D01*
X114270538Y-90067590D01*
X114349528Y-90067590D01*
X114427000Y-90083000D01*
X135509000Y-90083000D01*
X135586472Y-90067590D01*
X135665462Y-90067590D01*
X136200071Y-89961250D01*
X136369425Y-89891101D01*
X136489177Y-89841498D01*
X136942396Y-89538666D01*
X137073062Y-89408000D01*
X139024938Y-89408000D01*
X139155604Y-89538666D01*
X139608823Y-89841498D01*
X139608824Y-89841499D01*
X139897929Y-89961250D01*
X140432538Y-90067590D01*
X140511528Y-90067590D01*
X140589000Y-90083000D01*
X164846000Y-90083000D01*
X164923472Y-90067590D01*
X165002462Y-90067590D01*
X165537071Y-89961250D01*
X165706425Y-89891101D01*
X165826177Y-89841498D01*
X166279396Y-89538666D01*
X166410062Y-89408000D01*
X168361938Y-89408000D01*
X168492604Y-89538666D01*
X168945823Y-89841498D01*
X168945824Y-89841499D01*
X169234929Y-89961250D01*
X169769538Y-90067590D01*
X169848528Y-90067590D01*
X169926000Y-90083000D01*
X183094000Y-90083000D01*
X183094000Y-132802000D01*
X169418000Y-132802000D01*
X169375000Y-132810553D01*
X169375000Y-130048240D01*
X169672240Y-129751000D01*
X170942000Y-129751000D01*
X171411553Y-129657600D01*
X171809620Y-129391620D01*
X173587620Y-127613620D01*
X173853601Y-127215552D01*
X173947000Y-126746000D01*
X173947000Y-113884242D01*
X174751000Y-113884242D01*
X175020410Y-113833549D01*
X175267846Y-113674328D01*
X175433843Y-113431385D01*
X175492242Y-113143000D01*
X175492242Y-110493000D01*
X175441549Y-110223590D01*
X175282328Y-109976154D01*
X175039385Y-109810157D01*
X174751000Y-109751758D01*
X172721000Y-109751758D01*
X172556000Y-109782805D01*
X172556000Y-109670829D01*
X172721000Y-109704242D01*
X174751000Y-109704242D01*
X175020410Y-109653549D01*
X175267846Y-109494328D01*
X175433843Y-109251385D01*
X175492242Y-108963000D01*
X175492242Y-106891000D01*
X175514000Y-106891000D01*
X175983553Y-106797600D01*
X176381620Y-106531620D01*
X178720102Y-104193138D01*
X178874308Y-104193273D01*
X179454132Y-103953695D01*
X179898136Y-103510465D01*
X180138725Y-102931061D01*
X180138862Y-102774378D01*
X181207620Y-101705620D01*
X181473601Y-101307552D01*
X181567000Y-100838000D01*
X181567000Y-98806000D01*
X181508829Y-98513553D01*
X181473601Y-98336448D01*
X181207620Y-97938380D01*
X180445620Y-97176380D01*
X180047553Y-96910400D01*
X179578000Y-96817000D01*
X128778000Y-96817000D01*
X128308447Y-96910400D01*
X127910380Y-97176380D01*
X123697760Y-101389000D01*
X123177411Y-101389000D01*
X123068465Y-101279864D01*
X122996782Y-101250099D01*
X123038353Y-101119958D01*
X122174000Y-100255605D01*
X122159858Y-100269748D01*
X121980253Y-100090143D01*
X121994395Y-100076000D01*
X122353605Y-100076000D01*
X123217958Y-100940353D01*
X123469259Y-100860080D01*
X123670718Y-100304721D01*
X123644315Y-99714542D01*
X123469259Y-99291920D01*
X123217958Y-99211647D01*
X122353605Y-100076000D01*
X121994395Y-100076000D01*
X121130042Y-99211647D01*
X121000297Y-99253091D01*
X120971695Y-99183868D01*
X120820134Y-99032042D01*
X121309647Y-99032042D01*
X122174000Y-99896395D01*
X123038353Y-99032042D01*
X122958080Y-98780741D01*
X122402721Y-98579282D01*
X121812542Y-98605685D01*
X121389920Y-98780741D01*
X121309647Y-99032042D01*
X120820134Y-99032042D01*
X120528465Y-98739864D01*
X119949061Y-98499275D01*
X119321692Y-98498727D01*
X118741868Y-98738305D01*
X118363730Y-99115784D01*
X117988465Y-98739864D01*
X117409061Y-98499275D01*
X116781692Y-98498727D01*
X116201868Y-98738305D01*
X115823730Y-99115784D01*
X115448465Y-98739864D01*
X114869061Y-98499275D01*
X114241692Y-98498727D01*
X113661868Y-98738305D01*
X113283730Y-99115784D01*
X112908465Y-98739864D01*
X112329061Y-98499275D01*
X111701692Y-98498727D01*
X111121868Y-98738305D01*
X110743730Y-99115784D01*
X110368465Y-98739864D01*
X109789061Y-98499275D01*
X109161692Y-98498727D01*
X108581868Y-98738305D01*
X108203730Y-99115784D01*
X107828465Y-98739864D01*
X107249061Y-98499275D01*
X106621692Y-98498727D01*
X106041868Y-98738305D01*
X105663730Y-99115784D01*
X105288465Y-98739864D01*
X104709061Y-98499275D01*
X104081692Y-98498727D01*
X103501868Y-98738305D01*
X103057864Y-99181535D01*
X102817275Y-99760939D01*
X102816727Y-100388308D01*
X103056305Y-100968132D01*
X103206911Y-101119001D01*
X103027154Y-101234672D01*
X102861157Y-101477615D01*
X102802758Y-101766000D01*
X102802758Y-103466000D01*
X102853451Y-103735410D01*
X103012672Y-103982846D01*
X103255615Y-104148843D01*
X103544000Y-104207242D01*
X104272332Y-104207242D01*
X106331545Y-106266455D01*
X106607953Y-106451145D01*
X106810530Y-106491440D01*
X120047545Y-119728455D01*
X120323954Y-119913145D01*
X120650000Y-119978000D01*
X122624622Y-119978000D01*
X122592000Y-120142000D01*
X122592000Y-120297090D01*
X122170715Y-120718375D01*
X121994508Y-120541860D01*
X121617179Y-120385179D01*
X121208613Y-120384822D01*
X120831011Y-120540844D01*
X120541860Y-120829492D01*
X120385179Y-121206821D01*
X120384822Y-121615387D01*
X120540844Y-121992989D01*
X120560000Y-122012178D01*
X120560000Y-131981090D01*
X116813919Y-135727171D01*
X116578590Y-135771451D01*
X116394360Y-135890000D01*
X115586404Y-135890000D01*
X115434309Y-135827000D01*
X115093750Y-135827000D01*
X115030750Y-135890000D01*
X114585250Y-135890000D01*
X114522250Y-135827000D01*
X114340000Y-135827000D01*
X114340000Y-133858000D01*
X114278951Y-133551088D01*
X114105100Y-133290900D01*
X113844912Y-133117049D01*
X113538000Y-133056000D01*
X99608000Y-133056000D01*
X99608000Y-90083000D01*
X109347000Y-90083000D01*
X109424472Y-90067590D01*
X109503462Y-90067590D01*
X110038071Y-89961250D01*
X110207425Y-89891101D01*
X110327177Y-89841498D01*
X110780396Y-89538666D01*
X110911062Y-89408000D01*
X112862938Y-89408000D01*
X112993604Y-89538666D01*
G36*
X140626000Y-126975090D02*
X139794455Y-126143545D01*
X139518046Y-125958855D01*
X139192000Y-125894000D01*
X136184912Y-125894000D01*
X136176002Y-125885090D01*
X136176002Y-107344908D01*
X138528910Y-104992000D01*
X139465504Y-104992000D01*
X139791550Y-104927145D01*
X140067959Y-104742455D01*
X140626000Y-104184414D01*
X140626000Y-126975090D01*
X140626000Y-126975090D01*
G37*
X140626000Y-126975090D02*
X139794455Y-126143545D01*
X139518046Y-125958855D01*
X139192000Y-125894000D01*
X136184912Y-125894000D01*
X136176002Y-125885090D01*
X136176002Y-107344908D01*
X138528910Y-104992000D01*
X139465504Y-104992000D01*
X139791550Y-104927145D01*
X140067959Y-104742455D01*
X140626000Y-104184414D01*
X140626000Y-126975090D01*
G36*
X146976000Y-125637384D02*
X146957860Y-125655492D01*
X146801179Y-126032821D01*
X146800822Y-126441387D01*
X146889498Y-126656000D01*
X146315079Y-126656000D01*
X146315178Y-126542613D01*
X146159156Y-126165011D01*
X146117102Y-126122883D01*
X146075145Y-125911954D01*
X145890455Y-125635545D01*
X144362000Y-124107090D01*
X144362000Y-105958912D01*
X146161856Y-104159056D01*
X146242939Y-104192725D01*
X146870308Y-104193273D01*
X146976000Y-104149602D01*
X146976000Y-125637384D01*
X146976000Y-125637384D01*
G37*
X146976000Y-125637384D02*
X146957860Y-125655492D01*
X146801179Y-126032821D01*
X146800822Y-126441387D01*
X146889498Y-126656000D01*
X146315079Y-126656000D01*
X146315178Y-126542613D01*
X146159156Y-126165011D01*
X146117102Y-126122883D01*
X146075145Y-125911954D01*
X145890455Y-125635545D01*
X144362000Y-124107090D01*
X144362000Y-105958912D01*
X146161856Y-104159056D01*
X146242939Y-104192725D01*
X146870308Y-104193273D01*
X146976000Y-104149602D01*
X146976000Y-125637384D01*
G36*
X166825275Y-99760939D02*
X166824727Y-100388308D01*
X166842286Y-100430804D01*
X166529545Y-100743545D01*
X166344855Y-101019954D01*
X166280000Y-101346000D01*
X166280000Y-103632000D01*
X166344855Y-103958046D01*
X166529545Y-104234455D01*
X167296000Y-105000910D01*
X167296000Y-117757090D01*
X166529545Y-118523545D01*
X166344855Y-118799954D01*
X166280000Y-119126000D01*
X166280000Y-120811384D01*
X166261860Y-120829492D01*
X166105179Y-121206821D01*
X166104822Y-121615387D01*
X166260844Y-121992989D01*
X166549492Y-122282140D01*
X166926821Y-122438821D01*
X167335387Y-122439178D01*
X167712989Y-122283156D01*
X168002140Y-121994508D01*
X168141471Y-121658963D01*
X168474989Y-121521156D01*
X168525662Y-121470572D01*
X168820000Y-121764910D01*
X168820000Y-124847082D01*
X168811090Y-124855992D01*
X165170205Y-124855992D01*
X164920508Y-124605860D01*
X164543179Y-124449179D01*
X164134613Y-124448822D01*
X163757011Y-124604844D01*
X163467860Y-124893492D01*
X163311179Y-125270821D01*
X163311148Y-125305994D01*
X158006904Y-125305994D01*
X157066455Y-124365545D01*
X156790046Y-124180855D01*
X156464000Y-124116000D01*
X153162000Y-124116000D01*
X152835953Y-124180855D01*
X152611000Y-124331164D01*
X152611000Y-116443445D01*
X153611377Y-116443445D01*
X153612975Y-116527790D01*
X153614313Y-116598513D01*
X153616085Y-116606618D01*
X153614803Y-116614817D01*
X153618018Y-116692804D01*
X153621115Y-116705596D01*
X153619543Y-116718662D01*
X153626841Y-116813763D01*
X153637382Y-116851420D01*
X153636836Y-116890521D01*
X153649268Y-116957927D01*
X153674347Y-117020949D01*
X153685865Y-117087796D01*
X153706395Y-117141206D01*
X153739710Y-117193953D01*
X153760529Y-117252766D01*
X153792121Y-117305881D01*
X153805097Y-117320296D01*
X153812514Y-117338214D01*
X153813859Y-117340228D01*
X153851939Y-117378327D01*
X153879570Y-117424564D01*
X153957360Y-117510620D01*
X154025586Y-117561360D01*
X154084821Y-117622359D01*
X154179998Y-117687994D01*
X154269089Y-117726438D01*
X154352575Y-117775884D01*
X154463253Y-117814832D01*
X154554445Y-117827871D01*
X154642900Y-117853593D01*
X154780745Y-117865566D01*
X154780745Y-119009073D01*
X154784909Y-119030006D01*
X154781955Y-119051142D01*
X154812633Y-119169384D01*
X154836465Y-119289197D01*
X154848322Y-119306942D01*
X154853682Y-119327601D01*
X154927276Y-119425105D01*
X154995143Y-119526675D01*
X155012888Y-119538532D01*
X155025746Y-119555567D01*
X155131047Y-119617483D01*
X155232621Y-119685353D01*
X155253554Y-119689517D01*
X155271951Y-119700334D01*
X155392930Y-119717240D01*
X155512745Y-119741073D01*
X155533678Y-119736909D01*
X155554814Y-119739863D01*
X155685549Y-119732337D01*
X155685551Y-119732336D01*
X155685555Y-119732337D01*
X155816290Y-119724810D01*
X155929112Y-119695537D01*
X155963013Y-119689342D01*
X156210000Y-119738471D01*
X156483921Y-119738471D01*
X156718691Y-119691772D01*
X156746508Y-119694483D01*
X156801080Y-119713360D01*
X156896676Y-119726507D01*
X156936024Y-119724156D01*
X156974437Y-119733003D01*
X157078975Y-119736142D01*
X157117822Y-119729620D01*
X157156932Y-119734328D01*
X157251249Y-119727093D01*
X157294016Y-119715123D01*
X157298819Y-119715311D01*
X157357594Y-119731342D01*
X157433835Y-119736682D01*
X157459553Y-119733413D01*
X157484980Y-119738471D01*
X157604509Y-119738471D01*
X157729019Y-119713704D01*
X157853529Y-119738471D01*
X158102549Y-119738471D01*
X158382673Y-119682751D01*
X158515374Y-119594083D01*
X158587727Y-119624869D01*
X158699583Y-119679381D01*
X158809503Y-119708283D01*
X158909358Y-119714358D01*
X159007788Y-119732245D01*
X159142992Y-119730002D01*
X159221641Y-119712997D01*
X159238921Y-119717025D01*
X159312197Y-119719421D01*
X159383656Y-119735826D01*
X159463152Y-119738157D01*
X159473910Y-119736343D01*
X159484607Y-119738471D01*
X159621568Y-119738471D01*
X159863624Y-119690323D01*
X159935262Y-119704573D01*
X160042673Y-119735754D01*
X160074385Y-119732246D01*
X160105679Y-119738471D01*
X160334895Y-119738471D01*
X160373579Y-119730776D01*
X160412861Y-119734307D01*
X160512561Y-119703131D01*
X160567827Y-119692138D01*
X160585033Y-119702083D01*
X160668266Y-119713082D01*
X160748592Y-119737487D01*
X160808500Y-119731613D01*
X160868184Y-119739500D01*
X161099112Y-119724476D01*
X161106217Y-119722576D01*
X161113524Y-119723395D01*
X161243902Y-119685754D01*
X161375027Y-119650687D01*
X161380864Y-119646213D01*
X161387929Y-119644173D01*
X161387996Y-119644119D01*
X161388424Y-119644212D01*
X161433219Y-119666989D01*
X161541578Y-119697451D01*
X161606492Y-119702505D01*
X161668821Y-119721329D01*
X161790918Y-119733204D01*
X161849309Y-119727381D01*
X161907467Y-119735215D01*
X162023552Y-119727955D01*
X162075503Y-119714201D01*
X162078947Y-119714460D01*
X162160616Y-119734295D01*
X162244860Y-119737828D01*
X162260252Y-119735432D01*
X162275531Y-119738471D01*
X162414396Y-119738471D01*
X162420592Y-119737239D01*
X162426809Y-119738366D01*
X162526079Y-119716864D01*
X162634705Y-119738471D01*
X162908627Y-119738471D01*
X163188751Y-119682751D01*
X163343268Y-119579506D01*
X163421994Y-119621694D01*
X163494608Y-119643806D01*
X163561886Y-119678953D01*
X163602165Y-119690757D01*
X163664793Y-119696328D01*
X163724663Y-119715538D01*
X163868486Y-119732024D01*
X163943639Y-119725831D01*
X164018629Y-119733733D01*
X164170493Y-119719820D01*
X164245060Y-119697754D01*
X164322383Y-119689448D01*
X164459553Y-119646510D01*
X164512434Y-119617641D01*
X164570491Y-119601527D01*
X164618815Y-119577157D01*
X164640765Y-119560001D01*
X164666973Y-119550555D01*
X164736259Y-119508809D01*
X164775337Y-119473226D01*
X164821987Y-119448385D01*
X164863977Y-119414034D01*
X164896237Y-119374850D01*
X164928764Y-119352705D01*
X164946858Y-119325109D01*
X164974867Y-119301237D01*
X164981068Y-119293389D01*
X165010110Y-119236535D01*
X165045511Y-119193536D01*
X165056285Y-119158217D01*
X165085371Y-119113857D01*
X165096970Y-119085154D01*
X165102609Y-119055457D01*
X165110995Y-119039041D01*
X165111119Y-119037484D01*
X165118934Y-119022835D01*
X165129662Y-118912993D01*
X165150254Y-118804556D01*
X165143449Y-118771836D01*
X165146698Y-118738575D01*
X165138970Y-118713172D01*
X165156768Y-118623193D01*
X165184549Y-118483530D01*
X165184472Y-118483142D01*
X165184549Y-118482752D01*
X165184410Y-118352016D01*
X165184037Y-118350153D01*
X165184396Y-118348290D01*
X165184316Y-118335288D01*
X165177588Y-118302517D01*
X165180921Y-118269226D01*
X165165343Y-118108384D01*
X165140275Y-118025261D01*
X165128397Y-117939260D01*
X165100584Y-117859005D01*
X165120550Y-117862093D01*
X165207160Y-117858377D01*
X165293289Y-117868163D01*
X165444506Y-117855551D01*
X165524468Y-117832596D01*
X165607122Y-117823143D01*
X165747706Y-117778076D01*
X165833663Y-117730381D01*
X165924855Y-117693667D01*
X166039168Y-117618919D01*
X166082987Y-117575963D01*
X166135313Y-117543915D01*
X166220939Y-117464803D01*
X166254685Y-117418379D01*
X166298378Y-117381172D01*
X166337869Y-117303946D01*
X166388874Y-117233779D01*
X166402286Y-117177974D01*
X166428414Y-117126879D01*
X166435345Y-117040421D01*
X166455617Y-116956074D01*
X166446652Y-116899383D01*
X166451238Y-116842180D01*
X166425420Y-116762324D01*
X166454549Y-116615882D01*
X166454549Y-116443190D01*
X166451968Y-116430213D01*
X166454086Y-116417152D01*
X166450835Y-116325815D01*
X166444900Y-116300686D01*
X166447250Y-116274973D01*
X166437706Y-116184604D01*
X166425156Y-116144259D01*
X166424174Y-116102023D01*
X166410539Y-116040936D01*
X166383328Y-115979333D01*
X166369519Y-115913418D01*
X166359580Y-115890095D01*
X166317046Y-115827817D01*
X166286846Y-115758715D01*
X166214500Y-115654843D01*
X166143265Y-115586309D01*
X166080924Y-115509597D01*
X165976390Y-115422964D01*
X165893498Y-115378144D01*
X165817399Y-115322567D01*
X165695150Y-115265843D01*
X165625165Y-115248858D01*
X165559848Y-115218533D01*
X165496084Y-115203043D01*
X165425652Y-115200086D01*
X165357222Y-115183142D01*
X165205290Y-115176091D01*
X165095098Y-115192742D01*
X164983872Y-115199721D01*
X164848494Y-115235591D01*
X164756623Y-115280579D01*
X164697184Y-115255328D01*
X164603905Y-115235898D01*
X164513995Y-115204341D01*
X164363435Y-115182939D01*
X164270788Y-115188053D01*
X164178329Y-115180271D01*
X164030571Y-115196946D01*
X163940263Y-115225747D01*
X163867144Y-115238688D01*
X163797520Y-115217416D01*
X163739724Y-115211607D01*
X163684867Y-115192505D01*
X163630803Y-115184956D01*
X163653163Y-115163276D01*
X163655315Y-115160160D01*
X163658472Y-115158075D01*
X163766571Y-115051110D01*
X163768798Y-115047814D01*
X163772093Y-115045587D01*
X163874285Y-114942286D01*
X163877032Y-114938127D01*
X163881124Y-114935280D01*
X163971277Y-114841677D01*
X163975402Y-114835246D01*
X163981580Y-114830757D01*
X164053566Y-114752882D01*
X164061676Y-114739647D01*
X164073842Y-114730007D01*
X164121528Y-114673890D01*
X164149676Y-114623331D01*
X164179290Y-114591128D01*
X164183944Y-114586601D01*
X164184376Y-114585598D01*
X164188844Y-114580739D01*
X164206102Y-114552412D01*
X164237819Y-114465748D01*
X164268233Y-114415449D01*
X164274043Y-114377303D01*
X164296875Y-114324264D01*
X164297160Y-114303604D01*
X164304262Y-114284199D01*
X164300802Y-114201605D01*
X164311237Y-114133093D01*
X164300137Y-114088036D01*
X164300818Y-114038679D01*
X164299823Y-114033289D01*
X164293038Y-114016248D01*
X164292309Y-113998836D01*
X164262156Y-113933872D01*
X164242915Y-113855773D01*
X164222375Y-113811905D01*
X164203446Y-113786173D01*
X164193159Y-113755929D01*
X164149280Y-113680032D01*
X164141170Y-113670795D01*
X164136829Y-113659294D01*
X164073851Y-113558223D01*
X164068625Y-113552654D01*
X164065782Y-113545564D01*
X163987947Y-113426176D01*
X163983600Y-113421729D01*
X163981190Y-113415999D01*
X163892736Y-113285149D01*
X163890683Y-113283118D01*
X163889544Y-113280467D01*
X163864736Y-113244373D01*
X163864735Y-113244372D01*
X163780500Y-113121557D01*
X163806658Y-113052255D01*
X163845036Y-112954271D01*
X163991277Y-112926961D01*
X164197626Y-112889164D01*
X164198532Y-112888805D01*
X164199508Y-112888817D01*
X164242586Y-112880810D01*
X164247493Y-112878849D01*
X164252774Y-112878841D01*
X164376178Y-112854089D01*
X164384508Y-112850623D01*
X164393527Y-112850390D01*
X164497332Y-112826939D01*
X164510342Y-112821152D01*
X164524555Y-112820239D01*
X164598926Y-112800416D01*
X164637291Y-112781559D01*
X164679348Y-112773911D01*
X164714445Y-112760046D01*
X164816194Y-112694457D01*
X164827985Y-112687830D01*
X164855250Y-112674429D01*
X164855425Y-112674230D01*
X164871309Y-112667238D01*
X164879090Y-112659108D01*
X164921740Y-112635137D01*
X164935623Y-112617472D01*
X164954503Y-112605301D01*
X165017044Y-112514958D01*
X165068785Y-112460894D01*
X165078684Y-112435429D01*
X165098218Y-112410572D01*
X165104090Y-112399004D01*
X165108702Y-112382556D01*
X165117070Y-112370468D01*
X165133512Y-112294382D01*
X165172265Y-112194687D01*
X165182055Y-112139120D01*
X165181321Y-112105677D01*
X165190577Y-112073531D01*
X165198334Y-111981411D01*
X165196817Y-111967961D01*
X165200085Y-111954831D01*
X165205805Y-111834792D01*
X165204633Y-111826970D01*
X165206380Y-111819257D01*
X165210056Y-111679929D01*
X165209077Y-111674226D01*
X165210268Y-111668562D01*
X165211895Y-111518575D01*
X165210955Y-111513568D01*
X165211935Y-111508570D01*
X165211506Y-111356555D01*
X165210451Y-111351330D01*
X165211402Y-111346083D01*
X165208911Y-111200674D01*
X165207501Y-111194168D01*
X165208570Y-111187597D01*
X165204012Y-111057422D01*
X165201682Y-111047533D01*
X165203040Y-111037467D01*
X165196409Y-110931159D01*
X165191171Y-110911361D01*
X165192785Y-110890946D01*
X165184075Y-110817135D01*
X165161233Y-110746752D01*
X165152176Y-110673311D01*
X165141380Y-110640630D01*
X165131592Y-110623352D01*
X165128112Y-110603803D01*
X165101164Y-110561658D01*
X165095911Y-110545471D01*
X165079415Y-110526143D01*
X165072479Y-110505094D01*
X165049465Y-110478373D01*
X165000605Y-110392121D01*
X164984950Y-110379903D01*
X164974253Y-110363174D01*
X164914096Y-110321200D01*
X164886090Y-110288683D01*
X164835140Y-110262989D01*
X164775445Y-110216401D01*
X164756307Y-110211105D01*
X164740022Y-110199742D01*
X164729000Y-110194914D01*
X164677842Y-110183662D01*
X164631072Y-110160075D01*
X164576240Y-110144856D01*
X164560474Y-110143681D01*
X164546066Y-110137168D01*
X164453384Y-110115643D01*
X164446552Y-110115425D01*
X164440274Y-110112725D01*
X164317136Y-110086498D01*
X164312703Y-110086438D01*
X164308610Y-110084735D01*
X164162413Y-110055410D01*
X164158757Y-110055404D01*
X164155366Y-110054032D01*
X163993508Y-110023214D01*
X163992031Y-110023226D01*
X163990661Y-110022678D01*
X163903228Y-110006389D01*
X163806629Y-109988181D01*
X163776494Y-109917572D01*
X163754611Y-109865773D01*
X163770807Y-109841678D01*
X163861472Y-109708858D01*
X163861474Y-109708856D01*
X163912229Y-109634639D01*
X163913306Y-109632117D01*
X163915252Y-109630184D01*
X164002840Y-109500064D01*
X164004389Y-109496361D01*
X164007202Y-109493506D01*
X164082300Y-109379309D01*
X164084372Y-109374202D01*
X164088180Y-109370221D01*
X164146779Y-109278175D01*
X164150510Y-109268572D01*
X164157425Y-109260931D01*
X164195523Y-109197263D01*
X164208182Y-109161801D01*
X164230479Y-109131460D01*
X164244068Y-109102399D01*
X164260873Y-109034039D01*
X164290988Y-108970416D01*
X164294632Y-108896710D01*
X164312249Y-108825044D01*
X164301614Y-108755459D01*
X164305090Y-108685152D01*
X164280248Y-108615657D01*
X164269100Y-108542710D01*
X164232649Y-108482496D01*
X164208953Y-108416206D01*
X164199511Y-108400443D01*
X164160422Y-108357288D01*
X164132431Y-108306229D01*
X164092933Y-108259127D01*
X164081355Y-108249828D01*
X164073701Y-108237101D01*
X164008903Y-108165817D01*
X164003736Y-108161996D01*
X164000328Y-108156545D01*
X163916177Y-108067119D01*
X163913013Y-108064863D01*
X163910918Y-108061588D01*
X163813363Y-107960060D01*
X163810968Y-107958390D01*
X163809378Y-107955946D01*
X163704369Y-107848357D01*
X163702203Y-107846871D01*
X163700756Y-107844682D01*
X163594237Y-107737073D01*
X163591922Y-107735509D01*
X163590365Y-107733191D01*
X163488287Y-107631602D01*
X163485331Y-107629637D01*
X163483323Y-107626708D01*
X163391633Y-107537180D01*
X163387012Y-107534172D01*
X163383825Y-107529667D01*
X163308473Y-107458239D01*
X163298771Y-107452125D01*
X163291861Y-107442971D01*
X163238792Y-107395685D01*
X163217581Y-107383214D01*
X163214351Y-107378929D01*
X163193659Y-107366744D01*
X163167040Y-107339363D01*
X163142206Y-107322258D01*
X163052453Y-107283589D01*
X162968242Y-107233998D01*
X162922411Y-107227562D01*
X162879903Y-107209248D01*
X162782181Y-107207870D01*
X162685405Y-107194280D01*
X162640596Y-107205874D01*
X162594319Y-107205221D01*
X162503516Y-107241341D01*
X162408898Y-107265822D01*
X162395113Y-107272474D01*
X162366255Y-107294225D01*
X162332316Y-107306648D01*
X162281698Y-107337491D01*
X162275147Y-107343516D01*
X162266865Y-107346774D01*
X162185178Y-107399265D01*
X162182319Y-107402024D01*
X162178636Y-107403518D01*
X162071770Y-107473810D01*
X162069920Y-107475633D01*
X162067519Y-107476627D01*
X161941359Y-107560874D01*
X161939853Y-107562380D01*
X161937890Y-107563205D01*
X161798323Y-107657561D01*
X161797617Y-107658275D01*
X161796694Y-107658666D01*
X161624390Y-107775831D01*
X161573511Y-107754857D01*
X161524938Y-107734834D01*
X161485864Y-107527565D01*
X161485864Y-107527563D01*
X161373281Y-106930372D01*
X161345005Y-106860126D01*
X161330232Y-106785856D01*
X161292197Y-106728932D01*
X161266631Y-106665419D01*
X161213623Y-106611338D01*
X161171554Y-106548378D01*
X161114630Y-106510342D01*
X161066705Y-106461448D01*
X160997038Y-106431770D01*
X160934076Y-106389700D01*
X160866928Y-106376344D01*
X160803941Y-106349511D01*
X160728220Y-106348753D01*
X160653952Y-106333980D01*
X159410949Y-106333980D01*
X159336677Y-106348753D01*
X159260960Y-106349512D01*
X159197977Y-106376343D01*
X159130825Y-106389700D01*
X159067859Y-106431773D01*
X158998196Y-106461449D01*
X158950274Y-106510340D01*
X158893347Y-106548378D01*
X158851276Y-106611341D01*
X158798270Y-106665420D01*
X158772705Y-106728931D01*
X158734669Y-106785856D01*
X158719896Y-106860126D01*
X158691620Y-106930372D01*
X158579037Y-107527564D01*
X158579037Y-107527565D01*
X158539963Y-107734834D01*
X158491391Y-107754857D01*
X158491389Y-107754858D01*
X158440512Y-107775831D01*
X158268208Y-107658666D01*
X158267580Y-107658400D01*
X158267099Y-107657913D01*
X158168463Y-107591105D01*
X158166881Y-107590438D01*
X158165668Y-107589221D01*
X158034906Y-107501530D01*
X158032753Y-107500634D01*
X158031095Y-107498991D01*
X157917883Y-107424092D01*
X157914824Y-107422841D01*
X157912454Y-107420534D01*
X157822673Y-107362274D01*
X157816704Y-107359895D01*
X157812023Y-107355493D01*
X157751551Y-107317718D01*
X157727434Y-107308585D01*
X157707468Y-107292268D01*
X157682185Y-107278821D01*
X157592703Y-107251878D01*
X157507759Y-107212947D01*
X157457177Y-107211072D01*
X157408701Y-107196476D01*
X157315721Y-107205828D01*
X157222342Y-107202366D01*
X157174888Y-107219992D01*
X157124522Y-107225058D01*
X157098539Y-107239015D01*
X157093045Y-107239695D01*
X157038344Y-107270710D01*
X156954604Y-107301815D01*
X156939076Y-107311378D01*
X156905101Y-107342924D01*
X156872912Y-107360215D01*
X156866370Y-107368220D01*
X156844592Y-107380568D01*
X156798177Y-107420637D01*
X156788971Y-107432443D01*
X156776256Y-107440345D01*
X156706013Y-107506102D01*
X156702244Y-107511358D01*
X156696813Y-107514866D01*
X156608695Y-107600273D01*
X156606472Y-107603490D01*
X156603211Y-107605645D01*
X156503170Y-107704665D01*
X156501528Y-107707095D01*
X156499096Y-107708730D01*
X156393083Y-107815323D01*
X156391625Y-107817517D01*
X156389450Y-107819002D01*
X156283417Y-107927133D01*
X156281882Y-107929480D01*
X156279578Y-107931078D01*
X156179478Y-108034706D01*
X156177550Y-108037702D01*
X156174640Y-108039762D01*
X156086424Y-108132852D01*
X156083478Y-108137529D01*
X156079016Y-108140787D01*
X156008635Y-108217298D01*
X156002663Y-108227096D01*
X155993610Y-108234146D01*
X155947017Y-108288042D01*
X155924391Y-108327881D01*
X155892004Y-108360290D01*
X155875150Y-108385532D01*
X155853988Y-108436670D01*
X155821167Y-108481232D01*
X155808754Y-108531494D01*
X155805970Y-108536396D01*
X155804372Y-108549237D01*
X155799883Y-108567415D01*
X155789998Y-108591301D01*
X155783156Y-108604758D01*
X155782861Y-108608548D01*
X155765939Y-108649440D01*
X155765957Y-108704783D01*
X155752688Y-108758513D01*
X155764914Y-108839092D01*
X155760989Y-108889509D01*
X155766024Y-108904960D01*
X155766034Y-108935052D01*
X155787230Y-108986176D01*
X155795532Y-109040893D01*
X155799453Y-109051738D01*
X155830733Y-109103535D01*
X155849480Y-109161066D01*
X155876626Y-109209442D01*
X155887631Y-109222305D01*
X155893603Y-109238144D01*
X155943175Y-109317758D01*
X155948103Y-109323013D01*
X155950773Y-109329700D01*
X156018753Y-109434312D01*
X156021987Y-109437630D01*
X156023760Y-109441914D01*
X156106128Y-109565282D01*
X156108811Y-109567967D01*
X156110297Y-109571457D01*
X156203035Y-109707341D01*
X156203806Y-109708097D01*
X156204232Y-109709090D01*
X156253954Y-109781494D01*
X156310590Y-109864959D01*
X156280810Y-109935445D01*
X156258286Y-109988198D01*
X156232730Y-109993051D01*
X156073803Y-110022760D01*
X156073431Y-110022909D01*
X156073026Y-110022905D01*
X155988703Y-110038762D01*
X155986223Y-110039759D01*
X155983552Y-110039750D01*
X155828784Y-110070004D01*
X155825140Y-110071499D01*
X155821201Y-110071528D01*
X155685881Y-110099468D01*
X155680966Y-110101546D01*
X155675632Y-110101661D01*
X155567154Y-110125683D01*
X155558199Y-110129621D01*
X155548427Y-110130089D01*
X155474189Y-110148588D01*
X155443612Y-110163004D01*
X155410133Y-110167695D01*
X155377530Y-110179065D01*
X155263491Y-110246176D01*
X155241149Y-110258458D01*
X155215849Y-110270386D01*
X155213751Y-110272695D01*
X155192894Y-110281871D01*
X155186599Y-110288446D01*
X155147574Y-110309900D01*
X155140766Y-110318398D01*
X155131379Y-110323922D01*
X155052477Y-110428538D01*
X154995379Y-110488178D01*
X154986544Y-110510894D01*
X154968995Y-110532798D01*
X154963139Y-110544071D01*
X154961759Y-110548823D01*
X154959399Y-110551951D01*
X154947460Y-110598036D01*
X154932133Y-110650790D01*
X154891849Y-110754365D01*
X154882135Y-110809440D01*
X154882872Y-110843318D01*
X154873528Y-110875893D01*
X154865896Y-110967624D01*
X154867438Y-110981167D01*
X154864163Y-110994393D01*
X154858607Y-111114149D01*
X154859793Y-111121997D01*
X154858050Y-111129740D01*
X154854564Y-111268888D01*
X154855553Y-111274603D01*
X154854367Y-111280282D01*
X154852946Y-111430193D01*
X154853892Y-111435197D01*
X154852919Y-111440198D01*
X154853556Y-111592238D01*
X154854617Y-111597458D01*
X154853675Y-111602699D01*
X154856365Y-111748239D01*
X154857780Y-111754724D01*
X154856722Y-111761278D01*
X154861458Y-111891687D01*
X154863789Y-111901526D01*
X154862450Y-111911544D01*
X154869227Y-112018189D01*
X154874439Y-112037795D01*
X154872853Y-112058022D01*
X154881664Y-112132275D01*
X154904066Y-112201150D01*
X154912667Y-112273069D01*
X154923509Y-112306296D01*
X154958569Y-112368722D01*
X154970005Y-112403881D01*
X154970298Y-112404223D01*
X154972943Y-112413693D01*
X155003352Y-112452465D01*
X155041219Y-112528160D01*
X155054658Y-112539811D01*
X155063369Y-112555321D01*
X155117265Y-112597703D01*
X155149207Y-112638428D01*
X155204033Y-112669311D01*
X155257023Y-112715251D01*
X155263601Y-112718999D01*
X155277335Y-112723574D01*
X155287881Y-112731867D01*
X155342111Y-112747090D01*
X155398055Y-112778603D01*
X155447117Y-112794679D01*
X155473523Y-112797871D01*
X155497572Y-112809229D01*
X155582679Y-112830498D01*
X155594346Y-112831065D01*
X155605057Y-112835718D01*
X155716375Y-112859852D01*
X155724802Y-112859997D01*
X155732608Y-112863180D01*
X155860298Y-112887851D01*
X155864201Y-112887830D01*
X155867832Y-112889266D01*
X155910915Y-112897123D01*
X156107723Y-112933266D01*
X156219962Y-112954344D01*
X156262998Y-113064643D01*
X156284388Y-113121541D01*
X156263896Y-113151497D01*
X156175124Y-113280808D01*
X156174954Y-113281204D01*
X156174645Y-113281506D01*
X156150177Y-113317236D01*
X156148823Y-113320401D01*
X156146383Y-113322831D01*
X156060345Y-113450993D01*
X156058088Y-113456408D01*
X156053997Y-113460612D01*
X155979642Y-113575229D01*
X155976795Y-113582376D01*
X155971545Y-113587998D01*
X155913115Y-113682277D01*
X155908303Y-113695121D01*
X155899318Y-113705484D01*
X155861059Y-113772626D01*
X155846720Y-113815668D01*
X155829649Y-113841088D01*
X155826049Y-113845799D01*
X155825763Y-113846874D01*
X155821427Y-113853331D01*
X155807582Y-113886538D01*
X155783865Y-114004337D01*
X155778909Y-114019214D01*
X155763477Y-114060740D01*
X155764140Y-114078714D01*
X155752681Y-114121827D01*
X155755686Y-114144301D01*
X155751210Y-114166531D01*
X155771123Y-114267874D01*
X155774013Y-114346158D01*
X155786241Y-114372850D01*
X155790529Y-114404920D01*
X155793512Y-114413651D01*
X155802972Y-114429961D01*
X155806278Y-114446785D01*
X155850780Y-114513723D01*
X155892971Y-114605817D01*
X155924070Y-114648835D01*
X155936765Y-114660626D01*
X155936814Y-114660711D01*
X155937053Y-114660893D01*
X155949010Y-114671999D01*
X155965971Y-114701514D01*
X156027327Y-114771762D01*
X156038150Y-114780101D01*
X156045387Y-114791688D01*
X156132605Y-114884437D01*
X156139380Y-114889272D01*
X156143946Y-114896230D01*
X156252634Y-115006753D01*
X156257923Y-115010351D01*
X156261525Y-115015641D01*
X156387290Y-115139210D01*
X156390558Y-115141352D01*
X156392792Y-115144560D01*
X156464677Y-115213724D01*
X156467043Y-115215239D01*
X156468665Y-115217532D01*
X156527713Y-115273495D01*
X156481714Y-115261134D01*
X156403858Y-115226156D01*
X156279378Y-115197549D01*
X156185904Y-115194787D01*
X156093692Y-115179276D01*
X155962482Y-115183174D01*
X155863419Y-115205957D01*
X155837465Y-115208863D01*
X155760852Y-115190450D01*
X155678622Y-115187199D01*
X155664112Y-115189494D01*
X155649705Y-115186628D01*
X155512745Y-115186628D01*
X155232621Y-115242348D01*
X155224686Y-115247650D01*
X155182940Y-115238318D01*
X155079355Y-115204650D01*
X154917559Y-115185484D01*
X154863442Y-115189738D01*
X154809916Y-115180719D01*
X154748788Y-115182518D01*
X154696932Y-115194429D01*
X154643737Y-115193229D01*
X154518377Y-115215239D01*
X154416356Y-115254827D01*
X154311102Y-115284780D01*
X154208595Y-115337315D01*
X154127988Y-115401170D01*
X154040789Y-115455683D01*
X153945220Y-115545623D01*
X153920961Y-115579648D01*
X153888255Y-115605657D01*
X153872970Y-115623708D01*
X153853841Y-115658208D01*
X153825756Y-115685912D01*
X153784532Y-115746705D01*
X153753028Y-115821317D01*
X153709234Y-115889445D01*
X153682141Y-115958282D01*
X153668813Y-116032105D01*
X153641902Y-116102133D01*
X153626879Y-116189366D01*
X153628092Y-116236340D01*
X153616943Y-116281985D01*
X153611929Y-116397967D01*
X153615446Y-116420751D01*
X153611377Y-116443445D01*
X152611000Y-116443445D01*
X152611000Y-113884242D01*
X152653000Y-113884242D01*
X152922410Y-113833549D01*
X153169846Y-113674328D01*
X153335843Y-113431385D01*
X153394242Y-113143000D01*
X153394242Y-110493000D01*
X153343549Y-110223590D01*
X153184328Y-109976154D01*
X152941385Y-109810157D01*
X152653000Y-109751758D01*
X150712000Y-109751758D01*
X150712000Y-109704242D01*
X152653000Y-109704242D01*
X152922410Y-109653549D01*
X153169846Y-109494328D01*
X153335843Y-109251385D01*
X153394242Y-108963000D01*
X153394242Y-106313000D01*
X153343549Y-106043590D01*
X153306001Y-105985239D01*
X155045620Y-104245620D01*
X155099392Y-104165145D01*
X155311600Y-103847553D01*
X155345083Y-103679223D01*
X155448270Y-103576216D01*
X155823535Y-103952136D01*
X156402939Y-104192725D01*
X157030308Y-104193273D01*
X157610132Y-103953695D01*
X158054136Y-103510465D01*
X158225524Y-103097716D01*
X159617620Y-101705620D01*
X159883601Y-101307552D01*
X159977000Y-100838000D01*
X159977000Y-99271000D01*
X167028715Y-99271000D01*
X166825275Y-99760939D01*
X166825275Y-99760939D01*
G37*
X166825275Y-99760939D02*
X166824727Y-100388308D01*
X166842286Y-100430804D01*
X166529545Y-100743545D01*
X166344855Y-101019954D01*
X166280000Y-101346000D01*
X166280000Y-103632000D01*
X166344855Y-103958046D01*
X166529545Y-104234455D01*
X167296000Y-105000910D01*
X167296000Y-117757090D01*
X166529545Y-118523545D01*
X166344855Y-118799954D01*
X166280000Y-119126000D01*
X166280000Y-120811384D01*
X166261860Y-120829492D01*
X166105179Y-121206821D01*
X166104822Y-121615387D01*
X166260844Y-121992989D01*
X166549492Y-122282140D01*
X166926821Y-122438821D01*
X167335387Y-122439178D01*
X167712989Y-122283156D01*
X168002140Y-121994508D01*
X168141471Y-121658963D01*
X168474989Y-121521156D01*
X168525662Y-121470572D01*
X168820000Y-121764910D01*
X168820000Y-124847082D01*
X168811090Y-124855992D01*
X165170205Y-124855992D01*
X164920508Y-124605860D01*
X164543179Y-124449179D01*
X164134613Y-124448822D01*
X163757011Y-124604844D01*
X163467860Y-124893492D01*
X163311179Y-125270821D01*
X163311148Y-125305994D01*
X158006904Y-125305994D01*
X157066455Y-124365545D01*
X156790046Y-124180855D01*
X156464000Y-124116000D01*
X153162000Y-124116000D01*
X152835953Y-124180855D01*
X152611000Y-124331164D01*
X152611000Y-116443445D01*
X153611377Y-116443445D01*
X153612975Y-116527790D01*
X153614313Y-116598513D01*
X153616085Y-116606618D01*
X153614803Y-116614817D01*
X153618018Y-116692804D01*
X153621115Y-116705596D01*
X153619543Y-116718662D01*
X153626841Y-116813763D01*
X153637382Y-116851420D01*
X153636836Y-116890521D01*
X153649268Y-116957927D01*
X153674347Y-117020949D01*
X153685865Y-117087796D01*
X153706395Y-117141206D01*
X153739710Y-117193953D01*
X153760529Y-117252766D01*
X153792121Y-117305881D01*
X153805097Y-117320296D01*
X153812514Y-117338214D01*
X153813859Y-117340228D01*
X153851939Y-117378327D01*
X153879570Y-117424564D01*
X153957360Y-117510620D01*
X154025586Y-117561360D01*
X154084821Y-117622359D01*
X154179998Y-117687994D01*
X154269089Y-117726438D01*
X154352575Y-117775884D01*
X154463253Y-117814832D01*
X154554445Y-117827871D01*
X154642900Y-117853593D01*
X154780745Y-117865566D01*
X154780745Y-119009073D01*
X154784909Y-119030006D01*
X154781955Y-119051142D01*
X154812633Y-119169384D01*
X154836465Y-119289197D01*
X154848322Y-119306942D01*
X154853682Y-119327601D01*
X154927276Y-119425105D01*
X154995143Y-119526675D01*
X155012888Y-119538532D01*
X155025746Y-119555567D01*
X155131047Y-119617483D01*
X155232621Y-119685353D01*
X155253554Y-119689517D01*
X155271951Y-119700334D01*
X155392930Y-119717240D01*
X155512745Y-119741073D01*
X155533678Y-119736909D01*
X155554814Y-119739863D01*
X155685549Y-119732337D01*
X155685551Y-119732336D01*
X155685555Y-119732337D01*
X155816290Y-119724810D01*
X155929112Y-119695537D01*
X155963013Y-119689342D01*
X156210000Y-119738471D01*
X156483921Y-119738471D01*
X156718691Y-119691772D01*
X156746508Y-119694483D01*
X156801080Y-119713360D01*
X156896676Y-119726507D01*
X156936024Y-119724156D01*
X156974437Y-119733003D01*
X157078975Y-119736142D01*
X157117822Y-119729620D01*
X157156932Y-119734328D01*
X157251249Y-119727093D01*
X157294016Y-119715123D01*
X157298819Y-119715311D01*
X157357594Y-119731342D01*
X157433835Y-119736682D01*
X157459553Y-119733413D01*
X157484980Y-119738471D01*
X157604509Y-119738471D01*
X157729019Y-119713704D01*
X157853529Y-119738471D01*
X158102549Y-119738471D01*
X158382673Y-119682751D01*
X158515374Y-119594083D01*
X158587727Y-119624869D01*
X158699583Y-119679381D01*
X158809503Y-119708283D01*
X158909358Y-119714358D01*
X159007788Y-119732245D01*
X159142992Y-119730002D01*
X159221641Y-119712997D01*
X159238921Y-119717025D01*
X159312197Y-119719421D01*
X159383656Y-119735826D01*
X159463152Y-119738157D01*
X159473910Y-119736343D01*
X159484607Y-119738471D01*
X159621568Y-119738471D01*
X159863624Y-119690323D01*
X159935262Y-119704573D01*
X160042673Y-119735754D01*
X160074385Y-119732246D01*
X160105679Y-119738471D01*
X160334895Y-119738471D01*
X160373579Y-119730776D01*
X160412861Y-119734307D01*
X160512561Y-119703131D01*
X160567827Y-119692138D01*
X160585033Y-119702083D01*
X160668266Y-119713082D01*
X160748592Y-119737487D01*
X160808500Y-119731613D01*
X160868184Y-119739500D01*
X161099112Y-119724476D01*
X161106217Y-119722576D01*
X161113524Y-119723395D01*
X161243902Y-119685754D01*
X161375027Y-119650687D01*
X161380864Y-119646213D01*
X161387929Y-119644173D01*
X161387996Y-119644119D01*
X161388424Y-119644212D01*
X161433219Y-119666989D01*
X161541578Y-119697451D01*
X161606492Y-119702505D01*
X161668821Y-119721329D01*
X161790918Y-119733204D01*
X161849309Y-119727381D01*
X161907467Y-119735215D01*
X162023552Y-119727955D01*
X162075503Y-119714201D01*
X162078947Y-119714460D01*
X162160616Y-119734295D01*
X162244860Y-119737828D01*
X162260252Y-119735432D01*
X162275531Y-119738471D01*
X162414396Y-119738471D01*
X162420592Y-119737239D01*
X162426809Y-119738366D01*
X162526079Y-119716864D01*
X162634705Y-119738471D01*
X162908627Y-119738471D01*
X163188751Y-119682751D01*
X163343268Y-119579506D01*
X163421994Y-119621694D01*
X163494608Y-119643806D01*
X163561886Y-119678953D01*
X163602165Y-119690757D01*
X163664793Y-119696328D01*
X163724663Y-119715538D01*
X163868486Y-119732024D01*
X163943639Y-119725831D01*
X164018629Y-119733733D01*
X164170493Y-119719820D01*
X164245060Y-119697754D01*
X164322383Y-119689448D01*
X164459553Y-119646510D01*
X164512434Y-119617641D01*
X164570491Y-119601527D01*
X164618815Y-119577157D01*
X164640765Y-119560001D01*
X164666973Y-119550555D01*
X164736259Y-119508809D01*
X164775337Y-119473226D01*
X164821987Y-119448385D01*
X164863977Y-119414034D01*
X164896237Y-119374850D01*
X164928764Y-119352705D01*
X164946858Y-119325109D01*
X164974867Y-119301237D01*
X164981068Y-119293389D01*
X165010110Y-119236535D01*
X165045511Y-119193536D01*
X165056285Y-119158217D01*
X165085371Y-119113857D01*
X165096970Y-119085154D01*
X165102609Y-119055457D01*
X165110995Y-119039041D01*
X165111119Y-119037484D01*
X165118934Y-119022835D01*
X165129662Y-118912993D01*
X165150254Y-118804556D01*
X165143449Y-118771836D01*
X165146698Y-118738575D01*
X165138970Y-118713172D01*
X165156768Y-118623193D01*
X165184549Y-118483530D01*
X165184472Y-118483142D01*
X165184549Y-118482752D01*
X165184410Y-118352016D01*
X165184037Y-118350153D01*
X165184396Y-118348290D01*
X165184316Y-118335288D01*
X165177588Y-118302517D01*
X165180921Y-118269226D01*
X165165343Y-118108384D01*
X165140275Y-118025261D01*
X165128397Y-117939260D01*
X165100584Y-117859005D01*
X165120550Y-117862093D01*
X165207160Y-117858377D01*
X165293289Y-117868163D01*
X165444506Y-117855551D01*
X165524468Y-117832596D01*
X165607122Y-117823143D01*
X165747706Y-117778076D01*
X165833663Y-117730381D01*
X165924855Y-117693667D01*
X166039168Y-117618919D01*
X166082987Y-117575963D01*
X166135313Y-117543915D01*
X166220939Y-117464803D01*
X166254685Y-117418379D01*
X166298378Y-117381172D01*
X166337869Y-117303946D01*
X166388874Y-117233779D01*
X166402286Y-117177974D01*
X166428414Y-117126879D01*
X166435345Y-117040421D01*
X166455617Y-116956074D01*
X166446652Y-116899383D01*
X166451238Y-116842180D01*
X166425420Y-116762324D01*
X166454549Y-116615882D01*
X166454549Y-116443190D01*
X166451968Y-116430213D01*
X166454086Y-116417152D01*
X166450835Y-116325815D01*
X166444900Y-116300686D01*
X166447250Y-116274973D01*
X166437706Y-116184604D01*
X166425156Y-116144259D01*
X166424174Y-116102023D01*
X166410539Y-116040936D01*
X166383328Y-115979333D01*
X166369519Y-115913418D01*
X166359580Y-115890095D01*
X166317046Y-115827817D01*
X166286846Y-115758715D01*
X166214500Y-115654843D01*
X166143265Y-115586309D01*
X166080924Y-115509597D01*
X165976390Y-115422964D01*
X165893498Y-115378144D01*
X165817399Y-115322567D01*
X165695150Y-115265843D01*
X165625165Y-115248858D01*
X165559848Y-115218533D01*
X165496084Y-115203043D01*
X165425652Y-115200086D01*
X165357222Y-115183142D01*
X165205290Y-115176091D01*
X165095098Y-115192742D01*
X164983872Y-115199721D01*
X164848494Y-115235591D01*
X164756623Y-115280579D01*
X164697184Y-115255328D01*
X164603905Y-115235898D01*
X164513995Y-115204341D01*
X164363435Y-115182939D01*
X164270788Y-115188053D01*
X164178329Y-115180271D01*
X164030571Y-115196946D01*
X163940263Y-115225747D01*
X163867144Y-115238688D01*
X163797520Y-115217416D01*
X163739724Y-115211607D01*
X163684867Y-115192505D01*
X163630803Y-115184956D01*
X163653163Y-115163276D01*
X163655315Y-115160160D01*
X163658472Y-115158075D01*
X163766571Y-115051110D01*
X163768798Y-115047814D01*
X163772093Y-115045587D01*
X163874285Y-114942286D01*
X163877032Y-114938127D01*
X163881124Y-114935280D01*
X163971277Y-114841677D01*
X163975402Y-114835246D01*
X163981580Y-114830757D01*
X164053566Y-114752882D01*
X164061676Y-114739647D01*
X164073842Y-114730007D01*
X164121528Y-114673890D01*
X164149676Y-114623331D01*
X164179290Y-114591128D01*
X164183944Y-114586601D01*
X164184376Y-114585598D01*
X164188844Y-114580739D01*
X164206102Y-114552412D01*
X164237819Y-114465748D01*
X164268233Y-114415449D01*
X164274043Y-114377303D01*
X164296875Y-114324264D01*
X164297160Y-114303604D01*
X164304262Y-114284199D01*
X164300802Y-114201605D01*
X164311237Y-114133093D01*
X164300137Y-114088036D01*
X164300818Y-114038679D01*
X164299823Y-114033289D01*
X164293038Y-114016248D01*
X164292309Y-113998836D01*
X164262156Y-113933872D01*
X164242915Y-113855773D01*
X164222375Y-113811905D01*
X164203446Y-113786173D01*
X164193159Y-113755929D01*
X164149280Y-113680032D01*
X164141170Y-113670795D01*
X164136829Y-113659294D01*
X164073851Y-113558223D01*
X164068625Y-113552654D01*
X164065782Y-113545564D01*
X163987947Y-113426176D01*
X163983600Y-113421729D01*
X163981190Y-113415999D01*
X163892736Y-113285149D01*
X163890683Y-113283118D01*
X163889544Y-113280467D01*
X163864736Y-113244373D01*
X163864735Y-113244372D01*
X163780500Y-113121557D01*
X163806658Y-113052255D01*
X163845036Y-112954271D01*
X163991277Y-112926961D01*
X164197626Y-112889164D01*
X164198532Y-112888805D01*
X164199508Y-112888817D01*
X164242586Y-112880810D01*
X164247493Y-112878849D01*
X164252774Y-112878841D01*
X164376178Y-112854089D01*
X164384508Y-112850623D01*
X164393527Y-112850390D01*
X164497332Y-112826939D01*
X164510342Y-112821152D01*
X164524555Y-112820239D01*
X164598926Y-112800416D01*
X164637291Y-112781559D01*
X164679348Y-112773911D01*
X164714445Y-112760046D01*
X164816194Y-112694457D01*
X164827985Y-112687830D01*
X164855250Y-112674429D01*
X164855425Y-112674230D01*
X164871309Y-112667238D01*
X164879090Y-112659108D01*
X164921740Y-112635137D01*
X164935623Y-112617472D01*
X164954503Y-112605301D01*
X165017044Y-112514958D01*
X165068785Y-112460894D01*
X165078684Y-112435429D01*
X165098218Y-112410572D01*
X165104090Y-112399004D01*
X165108702Y-112382556D01*
X165117070Y-112370468D01*
X165133512Y-112294382D01*
X165172265Y-112194687D01*
X165182055Y-112139120D01*
X165181321Y-112105677D01*
X165190577Y-112073531D01*
X165198334Y-111981411D01*
X165196817Y-111967961D01*
X165200085Y-111954831D01*
X165205805Y-111834792D01*
X165204633Y-111826970D01*
X165206380Y-111819257D01*
X165210056Y-111679929D01*
X165209077Y-111674226D01*
X165210268Y-111668562D01*
X165211895Y-111518575D01*
X165210955Y-111513568D01*
X165211935Y-111508570D01*
X165211506Y-111356555D01*
X165210451Y-111351330D01*
X165211402Y-111346083D01*
X165208911Y-111200674D01*
X165207501Y-111194168D01*
X165208570Y-111187597D01*
X165204012Y-111057422D01*
X165201682Y-111047533D01*
X165203040Y-111037467D01*
X165196409Y-110931159D01*
X165191171Y-110911361D01*
X165192785Y-110890946D01*
X165184075Y-110817135D01*
X165161233Y-110746752D01*
X165152176Y-110673311D01*
X165141380Y-110640630D01*
X165131592Y-110623352D01*
X165128112Y-110603803D01*
X165101164Y-110561658D01*
X165095911Y-110545471D01*
X165079415Y-110526143D01*
X165072479Y-110505094D01*
X165049465Y-110478373D01*
X165000605Y-110392121D01*
X164984950Y-110379903D01*
X164974253Y-110363174D01*
X164914096Y-110321200D01*
X164886090Y-110288683D01*
X164835140Y-110262989D01*
X164775445Y-110216401D01*
X164756307Y-110211105D01*
X164740022Y-110199742D01*
X164729000Y-110194914D01*
X164677842Y-110183662D01*
X164631072Y-110160075D01*
X164576240Y-110144856D01*
X164560474Y-110143681D01*
X164546066Y-110137168D01*
X164453384Y-110115643D01*
X164446552Y-110115425D01*
X164440274Y-110112725D01*
X164317136Y-110086498D01*
X164312703Y-110086438D01*
X164308610Y-110084735D01*
X164162413Y-110055410D01*
X164158757Y-110055404D01*
X164155366Y-110054032D01*
X163993508Y-110023214D01*
X163992031Y-110023226D01*
X163990661Y-110022678D01*
X163903228Y-110006389D01*
X163806629Y-109988181D01*
X163776494Y-109917572D01*
X163754611Y-109865773D01*
X163770807Y-109841678D01*
X163861472Y-109708858D01*
X163861474Y-109708856D01*
X163912229Y-109634639D01*
X163913306Y-109632117D01*
X163915252Y-109630184D01*
X164002840Y-109500064D01*
X164004389Y-109496361D01*
X164007202Y-109493506D01*
X164082300Y-109379309D01*
X164084372Y-109374202D01*
X164088180Y-109370221D01*
X164146779Y-109278175D01*
X164150510Y-109268572D01*
X164157425Y-109260931D01*
X164195523Y-109197263D01*
X164208182Y-109161801D01*
X164230479Y-109131460D01*
X164244068Y-109102399D01*
X164260873Y-109034039D01*
X164290988Y-108970416D01*
X164294632Y-108896710D01*
X164312249Y-108825044D01*
X164301614Y-108755459D01*
X164305090Y-108685152D01*
X164280248Y-108615657D01*
X164269100Y-108542710D01*
X164232649Y-108482496D01*
X164208953Y-108416206D01*
X164199511Y-108400443D01*
X164160422Y-108357288D01*
X164132431Y-108306229D01*
X164092933Y-108259127D01*
X164081355Y-108249828D01*
X164073701Y-108237101D01*
X164008903Y-108165817D01*
X164003736Y-108161996D01*
X164000328Y-108156545D01*
X163916177Y-108067119D01*
X163913013Y-108064863D01*
X163910918Y-108061588D01*
X163813363Y-107960060D01*
X163810968Y-107958390D01*
X163809378Y-107955946D01*
X163704369Y-107848357D01*
X163702203Y-107846871D01*
X163700756Y-107844682D01*
X163594237Y-107737073D01*
X163591922Y-107735509D01*
X163590365Y-107733191D01*
X163488287Y-107631602D01*
X163485331Y-107629637D01*
X163483323Y-107626708D01*
X163391633Y-107537180D01*
X163387012Y-107534172D01*
X163383825Y-107529667D01*
X163308473Y-107458239D01*
X163298771Y-107452125D01*
X163291861Y-107442971D01*
X163238792Y-107395685D01*
X163217581Y-107383214D01*
X163214351Y-107378929D01*
X163193659Y-107366744D01*
X163167040Y-107339363D01*
X163142206Y-107322258D01*
X163052453Y-107283589D01*
X162968242Y-107233998D01*
X162922411Y-107227562D01*
X162879903Y-107209248D01*
X162782181Y-107207870D01*
X162685405Y-107194280D01*
X162640596Y-107205874D01*
X162594319Y-107205221D01*
X162503516Y-107241341D01*
X162408898Y-107265822D01*
X162395113Y-107272474D01*
X162366255Y-107294225D01*
X162332316Y-107306648D01*
X162281698Y-107337491D01*
X162275147Y-107343516D01*
X162266865Y-107346774D01*
X162185178Y-107399265D01*
X162182319Y-107402024D01*
X162178636Y-107403518D01*
X162071770Y-107473810D01*
X162069920Y-107475633D01*
X162067519Y-107476627D01*
X161941359Y-107560874D01*
X161939853Y-107562380D01*
X161937890Y-107563205D01*
X161798323Y-107657561D01*
X161797617Y-107658275D01*
X161796694Y-107658666D01*
X161624390Y-107775831D01*
X161573511Y-107754857D01*
X161524938Y-107734834D01*
X161485864Y-107527565D01*
X161485864Y-107527563D01*
X161373281Y-106930372D01*
X161345005Y-106860126D01*
X161330232Y-106785856D01*
X161292197Y-106728932D01*
X161266631Y-106665419D01*
X161213623Y-106611338D01*
X161171554Y-106548378D01*
X161114630Y-106510342D01*
X161066705Y-106461448D01*
X160997038Y-106431770D01*
X160934076Y-106389700D01*
X160866928Y-106376344D01*
X160803941Y-106349511D01*
X160728220Y-106348753D01*
X160653952Y-106333980D01*
X159410949Y-106333980D01*
X159336677Y-106348753D01*
X159260960Y-106349512D01*
X159197977Y-106376343D01*
X159130825Y-106389700D01*
X159067859Y-106431773D01*
X158998196Y-106461449D01*
X158950274Y-106510340D01*
X158893347Y-106548378D01*
X158851276Y-106611341D01*
X158798270Y-106665420D01*
X158772705Y-106728931D01*
X158734669Y-106785856D01*
X158719896Y-106860126D01*
X158691620Y-106930372D01*
X158579037Y-107527564D01*
X158579037Y-107527565D01*
X158539963Y-107734834D01*
X158491391Y-107754857D01*
X158491389Y-107754858D01*
X158440512Y-107775831D01*
X158268208Y-107658666D01*
X158267580Y-107658400D01*
X158267099Y-107657913D01*
X158168463Y-107591105D01*
X158166881Y-107590438D01*
X158165668Y-107589221D01*
X158034906Y-107501530D01*
X158032753Y-107500634D01*
X158031095Y-107498991D01*
X157917883Y-107424092D01*
X157914824Y-107422841D01*
X157912454Y-107420534D01*
X157822673Y-107362274D01*
X157816704Y-107359895D01*
X157812023Y-107355493D01*
X157751551Y-107317718D01*
X157727434Y-107308585D01*
X157707468Y-107292268D01*
X157682185Y-107278821D01*
X157592703Y-107251878D01*
X157507759Y-107212947D01*
X157457177Y-107211072D01*
X157408701Y-107196476D01*
X157315721Y-107205828D01*
X157222342Y-107202366D01*
X157174888Y-107219992D01*
X157124522Y-107225058D01*
X157098539Y-107239015D01*
X157093045Y-107239695D01*
X157038344Y-107270710D01*
X156954604Y-107301815D01*
X156939076Y-107311378D01*
X156905101Y-107342924D01*
X156872912Y-107360215D01*
X156866370Y-107368220D01*
X156844592Y-107380568D01*
X156798177Y-107420637D01*
X156788971Y-107432443D01*
X156776256Y-107440345D01*
X156706013Y-107506102D01*
X156702244Y-107511358D01*
X156696813Y-107514866D01*
X156608695Y-107600273D01*
X156606472Y-107603490D01*
X156603211Y-107605645D01*
X156503170Y-107704665D01*
X156501528Y-107707095D01*
X156499096Y-107708730D01*
X156393083Y-107815323D01*
X156391625Y-107817517D01*
X156389450Y-107819002D01*
X156283417Y-107927133D01*
X156281882Y-107929480D01*
X156279578Y-107931078D01*
X156179478Y-108034706D01*
X156177550Y-108037702D01*
X156174640Y-108039762D01*
X156086424Y-108132852D01*
X156083478Y-108137529D01*
X156079016Y-108140787D01*
X156008635Y-108217298D01*
X156002663Y-108227096D01*
X155993610Y-108234146D01*
X155947017Y-108288042D01*
X155924391Y-108327881D01*
X155892004Y-108360290D01*
X155875150Y-108385532D01*
X155853988Y-108436670D01*
X155821167Y-108481232D01*
X155808754Y-108531494D01*
X155805970Y-108536396D01*
X155804372Y-108549237D01*
X155799883Y-108567415D01*
X155789998Y-108591301D01*
X155783156Y-108604758D01*
X155782861Y-108608548D01*
X155765939Y-108649440D01*
X155765957Y-108704783D01*
X155752688Y-108758513D01*
X155764914Y-108839092D01*
X155760989Y-108889509D01*
X155766024Y-108904960D01*
X155766034Y-108935052D01*
X155787230Y-108986176D01*
X155795532Y-109040893D01*
X155799453Y-109051738D01*
X155830733Y-109103535D01*
X155849480Y-109161066D01*
X155876626Y-109209442D01*
X155887631Y-109222305D01*
X155893603Y-109238144D01*
X155943175Y-109317758D01*
X155948103Y-109323013D01*
X155950773Y-109329700D01*
X156018753Y-109434312D01*
X156021987Y-109437630D01*
X156023760Y-109441914D01*
X156106128Y-109565282D01*
X156108811Y-109567967D01*
X156110297Y-109571457D01*
X156203035Y-109707341D01*
X156203806Y-109708097D01*
X156204232Y-109709090D01*
X156253954Y-109781494D01*
X156310590Y-109864959D01*
X156280810Y-109935445D01*
X156258286Y-109988198D01*
X156232730Y-109993051D01*
X156073803Y-110022760D01*
X156073431Y-110022909D01*
X156073026Y-110022905D01*
X155988703Y-110038762D01*
X155986223Y-110039759D01*
X155983552Y-110039750D01*
X155828784Y-110070004D01*
X155825140Y-110071499D01*
X155821201Y-110071528D01*
X155685881Y-110099468D01*
X155680966Y-110101546D01*
X155675632Y-110101661D01*
X155567154Y-110125683D01*
X155558199Y-110129621D01*
X155548427Y-110130089D01*
X155474189Y-110148588D01*
X155443612Y-110163004D01*
X155410133Y-110167695D01*
X155377530Y-110179065D01*
X155263491Y-110246176D01*
X155241149Y-110258458D01*
X155215849Y-110270386D01*
X155213751Y-110272695D01*
X155192894Y-110281871D01*
X155186599Y-110288446D01*
X155147574Y-110309900D01*
X155140766Y-110318398D01*
X155131379Y-110323922D01*
X155052477Y-110428538D01*
X154995379Y-110488178D01*
X154986544Y-110510894D01*
X154968995Y-110532798D01*
X154963139Y-110544071D01*
X154961759Y-110548823D01*
X154959399Y-110551951D01*
X154947460Y-110598036D01*
X154932133Y-110650790D01*
X154891849Y-110754365D01*
X154882135Y-110809440D01*
X154882872Y-110843318D01*
X154873528Y-110875893D01*
X154865896Y-110967624D01*
X154867438Y-110981167D01*
X154864163Y-110994393D01*
X154858607Y-111114149D01*
X154859793Y-111121997D01*
X154858050Y-111129740D01*
X154854564Y-111268888D01*
X154855553Y-111274603D01*
X154854367Y-111280282D01*
X154852946Y-111430193D01*
X154853892Y-111435197D01*
X154852919Y-111440198D01*
X154853556Y-111592238D01*
X154854617Y-111597458D01*
X154853675Y-111602699D01*
X154856365Y-111748239D01*
X154857780Y-111754724D01*
X154856722Y-111761278D01*
X154861458Y-111891687D01*
X154863789Y-111901526D01*
X154862450Y-111911544D01*
X154869227Y-112018189D01*
X154874439Y-112037795D01*
X154872853Y-112058022D01*
X154881664Y-112132275D01*
X154904066Y-112201150D01*
X154912667Y-112273069D01*
X154923509Y-112306296D01*
X154958569Y-112368722D01*
X154970005Y-112403881D01*
X154970298Y-112404223D01*
X154972943Y-112413693D01*
X155003352Y-112452465D01*
X155041219Y-112528160D01*
X155054658Y-112539811D01*
X155063369Y-112555321D01*
X155117265Y-112597703D01*
X155149207Y-112638428D01*
X155204033Y-112669311D01*
X155257023Y-112715251D01*
X155263601Y-112718999D01*
X155277335Y-112723574D01*
X155287881Y-112731867D01*
X155342111Y-112747090D01*
X155398055Y-112778603D01*
X155447117Y-112794679D01*
X155473523Y-112797871D01*
X155497572Y-112809229D01*
X155582679Y-112830498D01*
X155594346Y-112831065D01*
X155605057Y-112835718D01*
X155716375Y-112859852D01*
X155724802Y-112859997D01*
X155732608Y-112863180D01*
X155860298Y-112887851D01*
X155864201Y-112887830D01*
X155867832Y-112889266D01*
X155910915Y-112897123D01*
X156107723Y-112933266D01*
X156219962Y-112954344D01*
X156262998Y-113064643D01*
X156284388Y-113121541D01*
X156263896Y-113151497D01*
X156175124Y-113280808D01*
X156174954Y-113281204D01*
X156174645Y-113281506D01*
X156150177Y-113317236D01*
X156148823Y-113320401D01*
X156146383Y-113322831D01*
X156060345Y-113450993D01*
X156058088Y-113456408D01*
X156053997Y-113460612D01*
X155979642Y-113575229D01*
X155976795Y-113582376D01*
X155971545Y-113587998D01*
X155913115Y-113682277D01*
X155908303Y-113695121D01*
X155899318Y-113705484D01*
X155861059Y-113772626D01*
X155846720Y-113815668D01*
X155829649Y-113841088D01*
X155826049Y-113845799D01*
X155825763Y-113846874D01*
X155821427Y-113853331D01*
X155807582Y-113886538D01*
X155783865Y-114004337D01*
X155778909Y-114019214D01*
X155763477Y-114060740D01*
X155764140Y-114078714D01*
X155752681Y-114121827D01*
X155755686Y-114144301D01*
X155751210Y-114166531D01*
X155771123Y-114267874D01*
X155774013Y-114346158D01*
X155786241Y-114372850D01*
X155790529Y-114404920D01*
X155793512Y-114413651D01*
X155802972Y-114429961D01*
X155806278Y-114446785D01*
X155850780Y-114513723D01*
X155892971Y-114605817D01*
X155924070Y-114648835D01*
X155936765Y-114660626D01*
X155936814Y-114660711D01*
X155937053Y-114660893D01*
X155949010Y-114671999D01*
X155965971Y-114701514D01*
X156027327Y-114771762D01*
X156038150Y-114780101D01*
X156045387Y-114791688D01*
X156132605Y-114884437D01*
X156139380Y-114889272D01*
X156143946Y-114896230D01*
X156252634Y-115006753D01*
X156257923Y-115010351D01*
X156261525Y-115015641D01*
X156387290Y-115139210D01*
X156390558Y-115141352D01*
X156392792Y-115144560D01*
X156464677Y-115213724D01*
X156467043Y-115215239D01*
X156468665Y-115217532D01*
X156527713Y-115273495D01*
X156481714Y-115261134D01*
X156403858Y-115226156D01*
X156279378Y-115197549D01*
X156185904Y-115194787D01*
X156093692Y-115179276D01*
X155962482Y-115183174D01*
X155863419Y-115205957D01*
X155837465Y-115208863D01*
X155760852Y-115190450D01*
X155678622Y-115187199D01*
X155664112Y-115189494D01*
X155649705Y-115186628D01*
X155512745Y-115186628D01*
X155232621Y-115242348D01*
X155224686Y-115247650D01*
X155182940Y-115238318D01*
X155079355Y-115204650D01*
X154917559Y-115185484D01*
X154863442Y-115189738D01*
X154809916Y-115180719D01*
X154748788Y-115182518D01*
X154696932Y-115194429D01*
X154643737Y-115193229D01*
X154518377Y-115215239D01*
X154416356Y-115254827D01*
X154311102Y-115284780D01*
X154208595Y-115337315D01*
X154127988Y-115401170D01*
X154040789Y-115455683D01*
X153945220Y-115545623D01*
X153920961Y-115579648D01*
X153888255Y-115605657D01*
X153872970Y-115623708D01*
X153853841Y-115658208D01*
X153825756Y-115685912D01*
X153784532Y-115746705D01*
X153753028Y-115821317D01*
X153709234Y-115889445D01*
X153682141Y-115958282D01*
X153668813Y-116032105D01*
X153641902Y-116102133D01*
X153626879Y-116189366D01*
X153628092Y-116236340D01*
X153616943Y-116281985D01*
X153611929Y-116397967D01*
X153615446Y-116420751D01*
X153611377Y-116443445D01*
X152611000Y-116443445D01*
X152611000Y-113884242D01*
X152653000Y-113884242D01*
X152922410Y-113833549D01*
X153169846Y-113674328D01*
X153335843Y-113431385D01*
X153394242Y-113143000D01*
X153394242Y-110493000D01*
X153343549Y-110223590D01*
X153184328Y-109976154D01*
X152941385Y-109810157D01*
X152653000Y-109751758D01*
X150712000Y-109751758D01*
X150712000Y-109704242D01*
X152653000Y-109704242D01*
X152922410Y-109653549D01*
X153169846Y-109494328D01*
X153335843Y-109251385D01*
X153394242Y-108963000D01*
X153394242Y-106313000D01*
X153343549Y-106043590D01*
X153306001Y-105985239D01*
X155045620Y-104245620D01*
X155099392Y-104165145D01*
X155311600Y-103847553D01*
X155345083Y-103679223D01*
X155448270Y-103576216D01*
X155823535Y-103952136D01*
X156402939Y-104192725D01*
X157030308Y-104193273D01*
X157610132Y-103953695D01*
X158054136Y-103510465D01*
X158225524Y-103097716D01*
X159617620Y-101705620D01*
X159883601Y-101307552D01*
X159977000Y-100838000D01*
X159977000Y-99271000D01*
X167028715Y-99271000D01*
X166825275Y-99760939D01*
G36*
X132281275Y-99760939D02*
X132280727Y-100388308D01*
X132298286Y-100430804D01*
X131731545Y-100997545D01*
X131546855Y-101273954D01*
X131482000Y-101600000D01*
X131482000Y-115291090D01*
X128110455Y-111919545D01*
X127834046Y-111734855D01*
X127508000Y-111670000D01*
X124304910Y-111670000D01*
X121756000Y-109121090D01*
X121756000Y-104149981D01*
X121858939Y-104192725D01*
X122486308Y-104193273D01*
X123066132Y-103953695D01*
X123177020Y-103843000D01*
X124206000Y-103843000D01*
X124675553Y-103749600D01*
X125073620Y-103483620D01*
X129286240Y-99271000D01*
X132484715Y-99271000D01*
X132281275Y-99760939D01*
X132281275Y-99760939D01*
G37*
X132281275Y-99760939D02*
X132280727Y-100388308D01*
X132298286Y-100430804D01*
X131731545Y-100997545D01*
X131546855Y-101273954D01*
X131482000Y-101600000D01*
X131482000Y-115291090D01*
X128110455Y-111919545D01*
X127834046Y-111734855D01*
X127508000Y-111670000D01*
X124304910Y-111670000D01*
X121756000Y-109121090D01*
X121756000Y-104149981D01*
X121858939Y-104192725D01*
X122486308Y-104193273D01*
X123066132Y-103953695D01*
X123177020Y-103843000D01*
X124206000Y-103843000D01*
X124675553Y-103749600D01*
X125073620Y-103483620D01*
X129286240Y-99271000D01*
X132484715Y-99271000D01*
X132281275Y-99760939D01*
G36*
X178755748Y-100061858D02*
X178741605Y-100076000D01*
X178755748Y-100090143D01*
X178576143Y-100269748D01*
X178562000Y-100255605D01*
X177697647Y-101119958D01*
X177739091Y-101249703D01*
X177669868Y-101278305D01*
X177291730Y-101655784D01*
X176982216Y-101345730D01*
X177358136Y-100970465D01*
X177387901Y-100898782D01*
X177518042Y-100940353D01*
X178382395Y-100076000D01*
X178368253Y-100061858D01*
X178547858Y-99882253D01*
X178562000Y-99896395D01*
X178576143Y-99882253D01*
X178755748Y-100061858D01*
X178755748Y-100061858D01*
G37*
X178755748Y-100061858D02*
X178741605Y-100076000D01*
X178755748Y-100090143D01*
X178576143Y-100269748D01*
X178562000Y-100255605D01*
X177697647Y-101119958D01*
X177739091Y-101249703D01*
X177669868Y-101278305D01*
X177291730Y-101655784D01*
X176982216Y-101345730D01*
X177358136Y-100970465D01*
X177387901Y-100898782D01*
X177518042Y-100940353D01*
X178382395Y-100076000D01*
X178368253Y-100061858D01*
X178547858Y-99882253D01*
X178562000Y-99896395D01*
X178576143Y-99882253D01*
X178755748Y-100061858D01*
G36*
X156911748Y-100061858D02*
X156897605Y-100076000D01*
X156911748Y-100090143D01*
X156732143Y-100269748D01*
X156718000Y-100255605D01*
X155853647Y-101119958D01*
X155895091Y-101249703D01*
X155825868Y-101278305D01*
X155447730Y-101655784D01*
X155138216Y-101345730D01*
X155514136Y-100970465D01*
X155543901Y-100898782D01*
X155674042Y-100940353D01*
X156538395Y-100076000D01*
X156524253Y-100061858D01*
X156703858Y-99882253D01*
X156718000Y-99896395D01*
X156732143Y-99882253D01*
X156911748Y-100061858D01*
X156911748Y-100061858D01*
G37*
X156911748Y-100061858D02*
X156897605Y-100076000D01*
X156911748Y-100090143D01*
X156732143Y-100269748D01*
X156718000Y-100255605D01*
X155853647Y-101119958D01*
X155895091Y-101249703D01*
X155825868Y-101278305D01*
X155447730Y-101655784D01*
X155138216Y-101345730D01*
X155514136Y-100970465D01*
X155543901Y-100898782D01*
X155674042Y-100940353D01*
X156538395Y-100076000D01*
X156524253Y-100061858D01*
X156703858Y-99882253D01*
X156718000Y-99896395D01*
X156732143Y-99882253D01*
X156911748Y-100061858D01*
M02*
