M48
;DRILL file {KiCad 4.0.7} date 05/07/18 10:18:16
;FORMAT={-:-/ absolute / inch / decimal}
FMAT,2
INCH,TZ
T1C0.016
T2C0.024
T3C0.039
%
G90
G05
M72
T1
X4.66Y-3.89
X4.79Y-4.1
X4.82Y-4.31
X4.86Y-4.48
X4.86Y-4.86
X4.88Y-3.67
X4.88Y-3.77
X4.89Y-4.24
X4.89Y-4.4
X4.89Y-4.45
X4.89Y-4.9
X4.92Y-4.41
X5.02Y-4.38
X5.02Y-4.49
X5.12Y-4.49
X5.22Y-4.49
X5.32Y-4.29
X5.33Y-4.5
X5.37Y-4.57
X5.42Y-4.25
X5.42Y-4.62
X5.47Y-4.34
X5.52Y-4.49
X5.52Y-4.72
X5.66Y-4.4
X5.77Y-4.69
X5.77Y-4.94
X5.82Y-4.12
X5.88Y-4.42
X5.88Y-4.48
X5.88Y-4.9
X5.88Y-5.
X6.07Y-4.26
X6.07Y-4.42
X6.24Y-3.67
X6.24Y-3.77
X6.28Y-4.58
X6.28Y-4.81
X6.32Y-4.6
X6.32Y-4.77
X6.53Y-4.39
X6.53Y-4.59
X6.68Y-4.23
X6.77Y-4.32
T2
X4.52Y-5.18
X4.85Y-4.36
X5.16Y-3.91
X5.82Y-5.
X6.62Y-5.18
T3
X3.97Y-1.955
X3.97Y-2.775
X4.07Y-1.955
X4.07Y-2.775
X4.11Y-3.94
X4.11Y-4.04
X4.17Y-1.955
X4.17Y-2.775
X4.21Y-3.94
X4.21Y-4.04
X4.27Y-1.955
X4.27Y-2.775
X4.31Y-3.94
X4.31Y-4.04
X4.37Y-1.955
X4.37Y-2.775
X4.38Y-2.345
X4.38Y-2.445
X4.41Y-3.94
X4.41Y-4.04
X4.44Y-3.165
X4.44Y-3.265
X4.47Y-1.955
X4.47Y-2.775
X4.48Y-2.345
X4.48Y-2.445
X4.51Y-3.94
X4.51Y-4.04
X4.54Y-3.165
X4.54Y-3.265
X4.57Y-1.955
X4.57Y-2.775
X4.58Y-2.345
X4.58Y-2.445
X4.61Y-3.94
X4.61Y-4.04
X4.64Y-3.165
X4.64Y-3.265
X4.67Y-1.955
X4.67Y-2.775
X4.68Y-2.345
X4.68Y-2.445
X4.71Y-3.94
X4.71Y-4.04
X4.74Y-3.165
X4.74Y-3.265
X4.77Y-1.955
X4.77Y-2.775
X4.78Y-2.345
X4.78Y-2.445
X4.81Y-3.94
X4.81Y-4.04
X4.84Y-3.165
X4.84Y-3.265
X4.87Y-1.955
X4.87Y-2.775
X4.88Y-2.345
X4.88Y-2.445
X4.94Y-3.165
X4.94Y-3.265
X4.97Y-1.955
X4.97Y-2.775
X4.98Y-2.345
X4.98Y-2.445
X5.04Y-3.165
X5.04Y-3.265
X5.07Y-1.955
X5.07Y-2.775
X5.08Y-2.345
X5.08Y-2.445
X5.14Y-3.165
X5.14Y-3.265
X5.17Y-1.955
X5.17Y-2.775
X5.24Y-3.165
X5.24Y-3.265
X5.27Y-1.955
X5.27Y-2.775
X5.27Y-3.94
X5.27Y-4.04
X5.34Y-3.165
X5.34Y-3.265
X5.37Y-1.955
X5.37Y-2.775
X5.37Y-3.94
X5.37Y-4.04
X5.47Y-1.955
X5.47Y-2.775
X5.47Y-3.94
X5.47Y-4.04
X5.57Y-2.775
X5.57Y-3.94
X5.57Y-4.04
X5.67Y-2.775
X5.67Y-3.94
X5.67Y-4.04
X5.77Y-2.775
X5.77Y-3.94
X5.77Y-4.04
X5.87Y-2.775
X5.87Y-3.94
X5.87Y-4.04
X5.97Y-3.94
X5.97Y-4.04
X6.07Y-3.94
X6.07Y-4.04
X6.14Y-2.775
X6.17Y-3.94
X6.17Y-4.04
X6.24Y-2.775
X6.34Y-2.775
X6.41Y-3.165
X6.41Y-3.265
X6.44Y-2.775
X6.51Y-3.165
X6.51Y-3.265
X6.54Y-2.775
X6.61Y-3.165
X6.61Y-3.265
X6.63Y-3.94
X6.63Y-4.04
X6.64Y-2.775
X6.71Y-3.165
X6.71Y-3.265
X6.73Y-3.94
X6.73Y-4.04
X6.74Y-2.775
X6.81Y-3.165
X6.81Y-3.265
X6.83Y-3.94
X6.83Y-4.04
X6.84Y-2.775
X6.93Y-3.94
X6.93Y-4.04
X6.94Y-2.775
X7.03Y-3.94
X7.03Y-4.04
X7.04Y-2.775
T0
M30
