G04 #@! TF.FileFunction,Legend,Bot*
%FSLAX46Y46*%
G04 Gerber Fmt 4.6, Leading zero omitted, Abs format (unit mm)*
G04 Created by KiCad (PCBNEW 4.0.7) date 05/06/18 19:17:33*
%MOMM*%
%LPD*%
G01*
G04 APERTURE LIST*
%ADD10C,0.100000*%
%ADD11C,0.400000*%
%ADD12C,0.120000*%
%ADD13C,0.150000*%
G04 APERTURE END LIST*
D10*
D11*
X154785715Y-90196286D02*
X154785715Y-88396286D01*
X153328572Y-89253429D02*
X153928572Y-89253429D01*
X153928572Y-90196286D02*
X153928572Y-88396286D01*
X153071429Y-88396286D01*
X150671428Y-89339143D02*
X150671428Y-90196286D01*
X151271428Y-88396286D02*
X150671428Y-89339143D01*
X150071428Y-88396286D01*
X149128571Y-88396286D02*
X148785714Y-88396286D01*
X148614286Y-88482000D01*
X148442857Y-88653429D01*
X148357143Y-88996286D01*
X148357143Y-89596286D01*
X148442857Y-89939143D01*
X148614286Y-90110571D01*
X148785714Y-90196286D01*
X149128571Y-90196286D01*
X149300000Y-90110571D01*
X149471429Y-89939143D01*
X149557143Y-89596286D01*
X149557143Y-88996286D01*
X149471429Y-88653429D01*
X149300000Y-88482000D01*
X149128571Y-88396286D01*
X147585715Y-88396286D02*
X147585715Y-89853429D01*
X147500000Y-90024857D01*
X147414286Y-90110571D01*
X147242857Y-90196286D01*
X146900000Y-90196286D01*
X146728572Y-90110571D01*
X146642857Y-90024857D01*
X146557143Y-89853429D01*
X146557143Y-88396286D01*
X143300000Y-90024857D02*
X143385714Y-90110571D01*
X143642857Y-90196286D01*
X143814286Y-90196286D01*
X144071429Y-90110571D01*
X144242857Y-89939143D01*
X144328572Y-89767714D01*
X144414286Y-89424857D01*
X144414286Y-89167714D01*
X144328572Y-88824857D01*
X144242857Y-88653429D01*
X144071429Y-88482000D01*
X143814286Y-88396286D01*
X143642857Y-88396286D01*
X143385714Y-88482000D01*
X143300000Y-88567714D01*
X142614286Y-89682000D02*
X141757143Y-89682000D01*
X142785714Y-90196286D02*
X142185714Y-88396286D01*
X141585714Y-90196286D01*
X140985715Y-90196286D02*
X140985715Y-88396286D01*
X139957143Y-90196286D01*
X139957143Y-88396286D01*
X136700000Y-90196286D02*
X137300000Y-89339143D01*
X137728572Y-90196286D02*
X137728572Y-88396286D01*
X137042857Y-88396286D01*
X136871429Y-88482000D01*
X136785714Y-88567714D01*
X136700000Y-88739143D01*
X136700000Y-88996286D01*
X136785714Y-89167714D01*
X136871429Y-89253429D01*
X137042857Y-89339143D01*
X137728572Y-89339143D01*
X135928572Y-89253429D02*
X135328572Y-89253429D01*
X135071429Y-90196286D02*
X135928572Y-90196286D01*
X135928572Y-88396286D01*
X135071429Y-88396286D01*
X134385715Y-89682000D02*
X133528572Y-89682000D01*
X134557143Y-90196286D02*
X133957143Y-88396286D01*
X133357143Y-90196286D01*
X132757144Y-90196286D02*
X132757144Y-88396286D01*
X132328572Y-88396286D01*
X132071429Y-88482000D01*
X131900001Y-88653429D01*
X131814286Y-88824857D01*
X131728572Y-89167714D01*
X131728572Y-89424857D01*
X131814286Y-89767714D01*
X131900001Y-89939143D01*
X132071429Y-90110571D01*
X132328572Y-90196286D01*
X132757144Y-90196286D01*
X129842857Y-88396286D02*
X128814286Y-88396286D01*
X129328572Y-90196286D02*
X129328572Y-88396286D01*
X128214286Y-90196286D02*
X128214286Y-88396286D01*
X128214286Y-89253429D02*
X127185714Y-89253429D01*
X127185714Y-90196286D02*
X127185714Y-88396286D01*
X126328572Y-90196286D02*
X126328572Y-88396286D01*
X125557143Y-90110571D02*
X125300000Y-90196286D01*
X124871429Y-90196286D01*
X124700000Y-90110571D01*
X124614286Y-90024857D01*
X124528571Y-89853429D01*
X124528571Y-89682000D01*
X124614286Y-89510571D01*
X124700000Y-89424857D01*
X124871429Y-89339143D01*
X125214286Y-89253429D01*
X125385714Y-89167714D01*
X125471429Y-89082000D01*
X125557143Y-88910571D01*
X125557143Y-88739143D01*
X125471429Y-88567714D01*
X125385714Y-88482000D01*
X125214286Y-88396286D01*
X124785714Y-88396286D01*
X124528571Y-88482000D01*
X152257144Y-93296286D02*
X152257144Y-91496286D01*
X151314286Y-91496286D02*
X151485715Y-91839143D01*
X150542858Y-93296286D02*
X150542858Y-91496286D01*
X149942858Y-92782000D01*
X149342858Y-91496286D01*
X149342858Y-93296286D01*
X147114286Y-93296286D02*
X147114286Y-91496286D01*
X146257143Y-93296286D02*
X146257143Y-91496286D01*
X145228571Y-93296286D01*
X145228571Y-91496286D01*
X142400000Y-92353429D02*
X142142857Y-92439143D01*
X142057142Y-92524857D01*
X141971428Y-92696286D01*
X141971428Y-92953429D01*
X142057142Y-93124857D01*
X142142857Y-93210571D01*
X142314285Y-93296286D01*
X143000000Y-93296286D01*
X143000000Y-91496286D01*
X142400000Y-91496286D01*
X142228571Y-91582000D01*
X142142857Y-91667714D01*
X142057142Y-91839143D01*
X142057142Y-92010571D01*
X142142857Y-92182000D01*
X142228571Y-92267714D01*
X142400000Y-92353429D01*
X143000000Y-92353429D01*
X141285714Y-92782000D02*
X140428571Y-92782000D01*
X141457142Y-93296286D02*
X140857142Y-91496286D01*
X140257142Y-93296286D01*
X138628571Y-93124857D02*
X138714285Y-93210571D01*
X138971428Y-93296286D01*
X139142857Y-93296286D01*
X139400000Y-93210571D01*
X139571428Y-93039143D01*
X139657143Y-92867714D01*
X139742857Y-92524857D01*
X139742857Y-92267714D01*
X139657143Y-91924857D01*
X139571428Y-91753429D01*
X139400000Y-91582000D01*
X139142857Y-91496286D01*
X138971428Y-91496286D01*
X138714285Y-91582000D01*
X138628571Y-91667714D01*
X137857143Y-93296286D02*
X137857143Y-91496286D01*
X136828571Y-93296286D02*
X137600000Y-92267714D01*
X136828571Y-91496286D02*
X137857143Y-92524857D01*
X136228571Y-91496286D02*
X135800000Y-93296286D01*
X135457143Y-92010571D01*
X135114285Y-93296286D01*
X134685714Y-91496286D01*
X134085714Y-92782000D02*
X133228571Y-92782000D01*
X134257142Y-93296286D02*
X133657142Y-91496286D01*
X133057142Y-93296286D01*
X131428571Y-93296286D02*
X132028571Y-92439143D01*
X132457143Y-93296286D02*
X132457143Y-91496286D01*
X131771428Y-91496286D01*
X131600000Y-91582000D01*
X131514285Y-91667714D01*
X131428571Y-91839143D01*
X131428571Y-92096286D01*
X131514285Y-92267714D01*
X131600000Y-92353429D01*
X131771428Y-92439143D01*
X132457143Y-92439143D01*
X130657143Y-93296286D02*
X130657143Y-91496286D01*
X130228571Y-91496286D01*
X129971428Y-91582000D01*
X129800000Y-91753429D01*
X129714285Y-91924857D01*
X129628571Y-92267714D01*
X129628571Y-92524857D01*
X129714285Y-92867714D01*
X129800000Y-93039143D01*
X129971428Y-93210571D01*
X130228571Y-93296286D01*
X130657143Y-93296286D01*
X128942857Y-93210571D02*
X128685714Y-93296286D01*
X128257143Y-93296286D01*
X128085714Y-93210571D01*
X128000000Y-93124857D01*
X127914285Y-92953429D01*
X127914285Y-92782000D01*
X128000000Y-92610571D01*
X128085714Y-92524857D01*
X128257143Y-92439143D01*
X128600000Y-92353429D01*
X128771428Y-92267714D01*
X128857143Y-92182000D01*
X128942857Y-92010571D01*
X128942857Y-91839143D01*
X128857143Y-91667714D01*
X128771428Y-91582000D01*
X128600000Y-91496286D01*
X128171428Y-91496286D01*
X127914285Y-91582000D01*
X127142857Y-93124857D02*
X127057142Y-93210571D01*
X127142857Y-93296286D01*
X127228571Y-93210571D01*
X127142857Y-93124857D01*
X127142857Y-93296286D01*
X127142857Y-92610571D02*
X127228571Y-91582000D01*
X127142857Y-91496286D01*
X127057142Y-91582000D01*
X127142857Y-92610571D01*
X127142857Y-91496286D01*
D12*
X181670000Y-67758000D02*
X181670000Y-70418000D01*
X158750000Y-67758000D02*
X181670000Y-67758000D01*
X158750000Y-70418000D02*
X181670000Y-70418000D01*
X158750000Y-67758000D02*
X158750000Y-70418000D01*
X157480000Y-67758000D02*
X156150000Y-67758000D01*
X156150000Y-67758000D02*
X156150000Y-69088000D01*
X138490000Y-47946000D02*
X138490000Y-50606000D01*
X100330000Y-47946000D02*
X138490000Y-47946000D01*
X100330000Y-50606000D02*
X138490000Y-50606000D01*
X100330000Y-47946000D02*
X100330000Y-50606000D01*
X99060000Y-47946000D02*
X97730000Y-47946000D01*
X97730000Y-47946000D02*
X97730000Y-49276000D01*
X148650000Y-67758000D02*
X148650000Y-70418000D01*
X100330000Y-67758000D02*
X148650000Y-67758000D01*
X100330000Y-70418000D02*
X148650000Y-70418000D01*
X100330000Y-67758000D02*
X100330000Y-70418000D01*
X99060000Y-67758000D02*
X97730000Y-67758000D01*
X97730000Y-67758000D02*
X97730000Y-69088000D01*
D13*
X151200002Y-131405381D02*
X150628573Y-131405381D01*
X150914288Y-132405381D02*
X150914288Y-131405381D01*
X150295240Y-132405381D02*
X150295240Y-131405381D01*
X149866668Y-132405381D02*
X149866668Y-131881571D01*
X149914287Y-131786333D01*
X150009525Y-131738714D01*
X150152383Y-131738714D01*
X150247621Y-131786333D01*
X150295240Y-131833952D01*
X149390478Y-132405381D02*
X149390478Y-131738714D01*
X149390478Y-131405381D02*
X149438097Y-131453000D01*
X149390478Y-131500619D01*
X149342859Y-131453000D01*
X149390478Y-131405381D01*
X149390478Y-131500619D01*
X148961907Y-132357762D02*
X148866669Y-132405381D01*
X148676193Y-132405381D01*
X148580954Y-132357762D01*
X148533335Y-132262524D01*
X148533335Y-132214905D01*
X148580954Y-132119667D01*
X148676193Y-132072048D01*
X148819050Y-132072048D01*
X148914288Y-132024429D01*
X148961907Y-131929190D01*
X148961907Y-131881571D01*
X148914288Y-131786333D01*
X148819050Y-131738714D01*
X148676193Y-131738714D01*
X148580954Y-131786333D01*
X147485716Y-131738714D02*
X147104764Y-131738714D01*
X147342859Y-131405381D02*
X147342859Y-132262524D01*
X147295240Y-132357762D01*
X147200002Y-132405381D01*
X147104764Y-132405381D01*
X146628573Y-132405381D02*
X146723811Y-132357762D01*
X146771430Y-132310143D01*
X146819049Y-132214905D01*
X146819049Y-131929190D01*
X146771430Y-131833952D01*
X146723811Y-131786333D01*
X146628573Y-131738714D01*
X146485715Y-131738714D01*
X146390477Y-131786333D01*
X146342858Y-131833952D01*
X146295239Y-131929190D01*
X146295239Y-132214905D01*
X146342858Y-132310143D01*
X146390477Y-132357762D01*
X146485715Y-132405381D01*
X146628573Y-132405381D01*
X145961906Y-131738714D02*
X145771430Y-132405381D01*
X145580953Y-131929190D01*
X145390477Y-132405381D01*
X145200001Y-131738714D01*
X144390477Y-132405381D02*
X144390477Y-131881571D01*
X144438096Y-131786333D01*
X144533334Y-131738714D01*
X144723811Y-131738714D01*
X144819049Y-131786333D01*
X144390477Y-132357762D02*
X144485715Y-132405381D01*
X144723811Y-132405381D01*
X144819049Y-132357762D01*
X144866668Y-132262524D01*
X144866668Y-132167286D01*
X144819049Y-132072048D01*
X144723811Y-132024429D01*
X144485715Y-132024429D01*
X144390477Y-131976810D01*
X143914287Y-132405381D02*
X143914287Y-131738714D01*
X143914287Y-131929190D02*
X143866668Y-131833952D01*
X143819049Y-131786333D01*
X143723811Y-131738714D01*
X143628572Y-131738714D01*
X142866667Y-132405381D02*
X142866667Y-131405381D01*
X142866667Y-132357762D02*
X142961905Y-132405381D01*
X143152382Y-132405381D01*
X143247620Y-132357762D01*
X143295239Y-132310143D01*
X143342858Y-132214905D01*
X143342858Y-131929190D01*
X143295239Y-131833952D01*
X143247620Y-131786333D01*
X143152382Y-131738714D01*
X142961905Y-131738714D01*
X142866667Y-131786333D01*
X142438096Y-132357762D02*
X142342858Y-132405381D01*
X142152382Y-132405381D01*
X142057143Y-132357762D01*
X142009524Y-132262524D01*
X142009524Y-132214905D01*
X142057143Y-132119667D01*
X142152382Y-132072048D01*
X142295239Y-132072048D01*
X142390477Y-132024429D01*
X142438096Y-131929190D01*
X142438096Y-131881571D01*
X142390477Y-131786333D01*
X142295239Y-131738714D01*
X142152382Y-131738714D01*
X142057143Y-131786333D01*
X140819048Y-132405381D02*
X140819048Y-131738714D01*
X140819048Y-131929190D02*
X140771429Y-131833952D01*
X140723810Y-131786333D01*
X140628572Y-131738714D01*
X140533333Y-131738714D01*
X139819047Y-132357762D02*
X139914285Y-132405381D01*
X140104762Y-132405381D01*
X140200000Y-132357762D01*
X140247619Y-132262524D01*
X140247619Y-131881571D01*
X140200000Y-131786333D01*
X140104762Y-131738714D01*
X139914285Y-131738714D01*
X139819047Y-131786333D01*
X139771428Y-131881571D01*
X139771428Y-131976810D01*
X140247619Y-132072048D01*
X138914285Y-132405381D02*
X138914285Y-131881571D01*
X138961904Y-131786333D01*
X139057142Y-131738714D01*
X139247619Y-131738714D01*
X139342857Y-131786333D01*
X138914285Y-132357762D02*
X139009523Y-132405381D01*
X139247619Y-132405381D01*
X139342857Y-132357762D01*
X139390476Y-132262524D01*
X139390476Y-132167286D01*
X139342857Y-132072048D01*
X139247619Y-132024429D01*
X139009523Y-132024429D01*
X138914285Y-131976810D01*
X138438095Y-132405381D02*
X138438095Y-131738714D01*
X138438095Y-131929190D02*
X138390476Y-131833952D01*
X138342857Y-131786333D01*
X138247619Y-131738714D01*
X138152380Y-131738714D01*
X136914285Y-132405381D02*
X137009523Y-132357762D01*
X137057142Y-132310143D01*
X137104761Y-132214905D01*
X137104761Y-131929190D01*
X137057142Y-131833952D01*
X137009523Y-131786333D01*
X136914285Y-131738714D01*
X136771427Y-131738714D01*
X136676189Y-131786333D01*
X136628570Y-131833952D01*
X136580951Y-131929190D01*
X136580951Y-132214905D01*
X136628570Y-132310143D01*
X136676189Y-132357762D01*
X136771427Y-132405381D01*
X136914285Y-132405381D01*
X136295237Y-131738714D02*
X135914285Y-131738714D01*
X136152380Y-132405381D02*
X136152380Y-131548238D01*
X136104761Y-131453000D01*
X136009523Y-131405381D01*
X135914285Y-131405381D01*
X134390474Y-132357762D02*
X134485712Y-132405381D01*
X134676189Y-132405381D01*
X134771427Y-132357762D01*
X134819046Y-132310143D01*
X134866665Y-132214905D01*
X134866665Y-131929190D01*
X134819046Y-131833952D01*
X134771427Y-131786333D01*
X134676189Y-131738714D01*
X134485712Y-131738714D01*
X134390474Y-131786333D01*
X133819046Y-132405381D02*
X133914284Y-132357762D01*
X133961903Y-132310143D01*
X134009522Y-132214905D01*
X134009522Y-131929190D01*
X133961903Y-131833952D01*
X133914284Y-131786333D01*
X133819046Y-131738714D01*
X133676188Y-131738714D01*
X133580950Y-131786333D01*
X133533331Y-131833952D01*
X133485712Y-131929190D01*
X133485712Y-132214905D01*
X133533331Y-132310143D01*
X133580950Y-132357762D01*
X133676188Y-132405381D01*
X133819046Y-132405381D01*
X133057141Y-132405381D02*
X133057141Y-131738714D01*
X133057141Y-131833952D02*
X133009522Y-131786333D01*
X132914284Y-131738714D01*
X132771426Y-131738714D01*
X132676188Y-131786333D01*
X132628569Y-131881571D01*
X132628569Y-132405381D01*
X132628569Y-131881571D02*
X132580950Y-131786333D01*
X132485712Y-131738714D01*
X132342855Y-131738714D01*
X132247617Y-131786333D01*
X132199998Y-131881571D01*
X132199998Y-132405381D01*
X131723808Y-131738714D02*
X131723808Y-132738714D01*
X131723808Y-131786333D02*
X131628570Y-131738714D01*
X131438093Y-131738714D01*
X131342855Y-131786333D01*
X131295236Y-131833952D01*
X131247617Y-131929190D01*
X131247617Y-132214905D01*
X131295236Y-132310143D01*
X131342855Y-132357762D01*
X131438093Y-132405381D01*
X131628570Y-132405381D01*
X131723808Y-132357762D01*
X130390474Y-131738714D02*
X130390474Y-132405381D01*
X130819046Y-131738714D02*
X130819046Y-132262524D01*
X130771427Y-132357762D01*
X130676189Y-132405381D01*
X130533331Y-132405381D01*
X130438093Y-132357762D01*
X130390474Y-132310143D01*
X130057141Y-131738714D02*
X129676189Y-131738714D01*
X129914284Y-131405381D02*
X129914284Y-132262524D01*
X129866665Y-132357762D01*
X129771427Y-132405381D01*
X129676189Y-132405381D01*
X128961902Y-132357762D02*
X129057140Y-132405381D01*
X129247617Y-132405381D01*
X129342855Y-132357762D01*
X129390474Y-132262524D01*
X129390474Y-131881571D01*
X129342855Y-131786333D01*
X129247617Y-131738714D01*
X129057140Y-131738714D01*
X128961902Y-131786333D01*
X128914283Y-131881571D01*
X128914283Y-131976810D01*
X129390474Y-132072048D01*
X128485712Y-132405381D02*
X128485712Y-131738714D01*
X128485712Y-131929190D02*
X128438093Y-131833952D01*
X128390474Y-131786333D01*
X128295236Y-131738714D01*
X128199997Y-131738714D01*
X157305333Y-71080381D02*
X157305333Y-71794667D01*
X157352953Y-71937524D01*
X157448191Y-72032762D01*
X157591048Y-72080381D01*
X157686286Y-72080381D01*
X156686286Y-71508952D02*
X156781524Y-71461333D01*
X156829143Y-71413714D01*
X156876762Y-71318476D01*
X156876762Y-71270857D01*
X156829143Y-71175619D01*
X156781524Y-71128000D01*
X156686286Y-71080381D01*
X156495809Y-71080381D01*
X156400571Y-71128000D01*
X156352952Y-71175619D01*
X156305333Y-71270857D01*
X156305333Y-71318476D01*
X156352952Y-71413714D01*
X156400571Y-71461333D01*
X156495809Y-71508952D01*
X156686286Y-71508952D01*
X156781524Y-71556571D01*
X156829143Y-71604190D01*
X156876762Y-71699429D01*
X156876762Y-71889905D01*
X156829143Y-71985143D01*
X156781524Y-72032762D01*
X156686286Y-72080381D01*
X156495809Y-72080381D01*
X156400571Y-72032762D01*
X156352952Y-71985143D01*
X156305333Y-71889905D01*
X156305333Y-71699429D01*
X156352952Y-71604190D01*
X156400571Y-71556571D01*
X156495809Y-71508952D01*
X99139333Y-51522381D02*
X99139333Y-52236667D01*
X99186953Y-52379524D01*
X99282191Y-52474762D01*
X99425048Y-52522381D01*
X99520286Y-52522381D01*
X98615524Y-52522381D02*
X98425048Y-52522381D01*
X98329809Y-52474762D01*
X98282190Y-52427143D01*
X98186952Y-52284286D01*
X98139333Y-52093810D01*
X98139333Y-51712857D01*
X98186952Y-51617619D01*
X98234571Y-51570000D01*
X98329809Y-51522381D01*
X98520286Y-51522381D01*
X98615524Y-51570000D01*
X98663143Y-51617619D01*
X98710762Y-51712857D01*
X98710762Y-51950952D01*
X98663143Y-52046190D01*
X98615524Y-52093810D01*
X98520286Y-52141429D01*
X98329809Y-52141429D01*
X98234571Y-52093810D01*
X98186952Y-52046190D01*
X98139333Y-51950952D01*
X100123523Y-71080381D02*
X100123523Y-71794667D01*
X100171143Y-71937524D01*
X100266381Y-72032762D01*
X100409238Y-72080381D01*
X100504476Y-72080381D01*
X99123523Y-72080381D02*
X99694952Y-72080381D01*
X99409238Y-72080381D02*
X99409238Y-71080381D01*
X99504476Y-71223238D01*
X99599714Y-71318476D01*
X99694952Y-71366095D01*
X98504476Y-71080381D02*
X98409237Y-71080381D01*
X98313999Y-71128000D01*
X98266380Y-71175619D01*
X98218761Y-71270857D01*
X98171142Y-71461333D01*
X98171142Y-71699429D01*
X98218761Y-71889905D01*
X98266380Y-71985143D01*
X98313999Y-72032762D01*
X98409237Y-72080381D01*
X98504476Y-72080381D01*
X98599714Y-72032762D01*
X98647333Y-71985143D01*
X98694952Y-71889905D01*
X98742571Y-71699429D01*
X98742571Y-71461333D01*
X98694952Y-71270857D01*
X98647333Y-71175619D01*
X98599714Y-71128000D01*
X98504476Y-71080381D01*
M02*
