M48
;DRILL file {KiCad 4.0.7} date 05/21/18 09:05:13
;FORMAT={-:-/ absolute / inch / decimal}
FMAT,2
INCH,TZ
T1C0.016
T2C0.024
T3C0.039
%
G90
G05
M72
T1
X4.78Y-4.78
X4.79Y-5.31
X4.82Y-5.29
X4.83Y-4.19
X4.85Y-4.81
X4.86Y-4.84
X4.87Y-4.72
X4.89Y-4.75
X5.21Y-5.1
X5.42Y-5.04
X5.465Y-4.19
X5.47Y-5.04
X5.53Y-5.04
X5.62Y-4.98
X5.62Y-5.08
X5.64Y-4.95
X5.72Y-4.99
X5.735Y-4.19
X5.75Y-5.25
X5.82Y-4.97
X5.85Y-4.9
X5.86Y-5.25
X5.87Y-4.87
X5.89Y-4.84
X5.91Y-4.81
X5.92Y-5.09
X5.97Y-4.98
X5.97Y-5.25
X6.02Y-5.14
X6.04Y-4.95
X6.07Y-5.01
X6.07Y-5.25
X6.12Y-5.11
X6.16Y-4.99
X6.16Y-5.25
X6.22Y-5.25
X6.29Y-5.14
X6.32Y-5.16
X6.32Y-5.25
X6.365Y-4.19
X6.42Y-5.16
X6.47Y-4.94
X6.47Y-5.25
X6.52Y-5.2
X6.58Y-4.78
X6.61Y-4.75
X6.67Y-4.72
T2
X4.52Y-5.3
X5.89Y-4.97
X6.62Y-5.3
T3
X3.97Y-1.955
X3.97Y-2.775
X4.07Y-1.955
X4.07Y-2.775
X4.11Y-3.94
X4.11Y-4.04
X4.17Y-1.955
X4.17Y-2.775
X4.21Y-3.94
X4.21Y-4.04
X4.27Y-1.955
X4.27Y-2.775
X4.31Y-3.94
X4.31Y-4.04
X4.37Y-1.955
X4.37Y-2.775
X4.38Y-2.345
X4.38Y-2.445
X4.41Y-3.94
X4.41Y-4.04
X4.44Y-3.165
X4.44Y-3.265
X4.47Y-1.955
X4.47Y-2.775
X4.48Y-2.345
X4.48Y-2.445
X4.51Y-3.94
X4.51Y-4.04
X4.54Y-3.165
X4.54Y-3.265
X4.57Y-1.955
X4.57Y-2.775
X4.58Y-2.345
X4.58Y-2.445
X4.61Y-3.94
X4.61Y-4.04
X4.64Y-3.165
X4.64Y-3.265
X4.67Y-1.955
X4.67Y-2.775
X4.68Y-2.345
X4.68Y-2.445
X4.71Y-3.94
X4.71Y-4.04
X4.74Y-3.165
X4.74Y-3.265
X4.77Y-1.955
X4.77Y-2.775
X4.78Y-2.345
X4.78Y-2.445
X4.81Y-3.94
X4.81Y-4.04
X4.84Y-3.165
X4.84Y-3.265
X4.87Y-1.955
X4.87Y-2.775
X4.88Y-2.345
X4.88Y-2.445
X4.94Y-3.165
X4.94Y-3.265
X4.97Y-1.955
X4.97Y-2.775
X4.98Y-2.345
X4.98Y-2.445
X5.04Y-3.165
X5.04Y-3.265
X5.07Y-1.955
X5.07Y-2.775
X5.08Y-2.345
X5.08Y-2.445
X5.14Y-3.165
X5.14Y-3.265
X5.17Y-1.955
X5.17Y-2.775
X5.24Y-3.165
X5.24Y-3.265
X5.27Y-1.955
X5.27Y-2.775
X5.27Y-3.94
X5.27Y-4.04
X5.34Y-3.165
X5.34Y-3.265
X5.37Y-1.955
X5.37Y-2.775
X5.37Y-3.94
X5.37Y-4.04
X5.47Y-1.955
X5.47Y-2.775
X5.47Y-3.94
X5.47Y-4.04
X5.57Y-2.775
X5.57Y-3.94
X5.57Y-4.04
X5.67Y-2.775
X5.67Y-3.94
X5.67Y-4.04
X5.74Y-1.955
X5.77Y-2.775
X5.77Y-3.94
X5.77Y-4.04
X5.84Y-1.955
X5.87Y-2.775
X5.87Y-3.94
X5.87Y-4.04
X5.94Y-1.955
X5.97Y-3.94
X5.97Y-4.04
X6.01Y-2.345
X6.01Y-2.445
X6.04Y-1.955
X6.07Y-3.94
X6.07Y-4.04
X6.11Y-2.345
X6.11Y-2.445
X6.14Y-1.955
X6.17Y-3.94
X6.17Y-4.04
X6.21Y-2.345
X6.21Y-2.445
X6.24Y-1.955
X6.31Y-2.345
X6.31Y-2.445
X6.34Y-1.955
X6.41Y-2.345
X6.41Y-2.445
X6.44Y-1.955
X6.54Y-1.955
X6.63Y-3.94
X6.63Y-4.04
X6.64Y-1.955
X6.73Y-3.94
X6.73Y-4.04
X6.83Y-3.94
X6.83Y-4.04
X6.93Y-3.94
X6.93Y-4.04
X7.03Y-3.94
X7.03Y-4.04
T0
M30
