G04 #@! TF.FileFunction,Profile,NP*
%FSLAX46Y46*%
G04 Gerber Fmt 4.6, Leading zero omitted, Abs format (unit mm)*
G04 Created by KiCad (PCBNEW 4.0.7) date 05/21/18 09:05:03*
%MOMM*%
%LPD*%
G01*
G04 APERTURE LIST*
%ADD10C,0.100000*%
%ADD11C,0.150000*%
G04 APERTURE END LIST*
D10*
D11*
X98806000Y-65659000D02*
X98806000Y-47625000D01*
X115316000Y-65659000D02*
X98806000Y-65659000D01*
X115316000Y-68453000D02*
X115316000Y-65659000D01*
X98806000Y-68453000D02*
X115316000Y-68453000D01*
X98806000Y-86487000D02*
X98806000Y-68453000D01*
X120396000Y-86487000D02*
X98806000Y-86487000D01*
X120396000Y-89281000D02*
X120396000Y-86487000D01*
X98806000Y-89281000D02*
X120396000Y-89281000D01*
X98806000Y-133858000D02*
X98806000Y-89281000D01*
X113538000Y-133858000D02*
X98806000Y-133858000D01*
X113538000Y-144399000D02*
X113538000Y-133858000D01*
X169418000Y-144399000D02*
X113538000Y-144399000D01*
X169418000Y-133604000D02*
X169418000Y-144399000D01*
X183896000Y-133604000D02*
X169418000Y-133604000D01*
X183896000Y-89281000D02*
X183896000Y-133604000D01*
X129540000Y-89281000D02*
X183896000Y-89281000D01*
X129540000Y-86487000D02*
X129540000Y-89281000D01*
X151130000Y-86487000D02*
X129540000Y-86487000D01*
X151130000Y-68453000D02*
X151130000Y-86487000D01*
X124460000Y-68453000D02*
X151130000Y-68453000D01*
X124460000Y-65659000D02*
X124460000Y-68453000D01*
X140970000Y-65659000D02*
X124460000Y-65659000D01*
X140970000Y-61214000D02*
X140970000Y-65659000D01*
X143764000Y-61214000D02*
X140970000Y-61214000D01*
X143764000Y-65659000D02*
X143764000Y-61214000D01*
X170688000Y-65659000D02*
X143764000Y-65659000D01*
X170688000Y-47625000D02*
X170688000Y-65659000D01*
X143764000Y-47625000D02*
X170688000Y-47625000D01*
X143764000Y-52070000D02*
X143764000Y-47625000D01*
X140970000Y-52070000D02*
X143764000Y-52070000D01*
X140970000Y-47625000D02*
X140970000Y-52070000D01*
X98806000Y-47625000D02*
X140970000Y-47625000D01*
M02*
