G04 #@! TF.FileFunction,Copper,L2,Bot,Signal*
%FSLAX46Y46*%
G04 Gerber Fmt 4.6, Leading zero omitted, Abs format (unit mm)*
G04 Created by KiCad (PCBNEW 4.0.7) date 05/07/18 10:18:10*
%MOMM*%
%LPD*%
G01*
G04 APERTURE LIST*
%ADD10C,0.100000*%
%ADD11R,1.000000X6.000000*%
%ADD12R,1.000000X8.000000*%
%ADD13R,1.700000X1.700000*%
%ADD14C,1.700000*%
%ADD15O,1.700000X1.700000*%
%ADD16C,0.600000*%
%ADD17C,0.800000*%
%ADD18C,0.250000*%
%ADD19C,1.000000*%
%ADD20C,0.254000*%
G04 APERTURE END LIST*
D10*
D11*
X168148000Y-139462000D03*
D12*
X165608000Y-140462000D03*
X163068000Y-140462000D03*
X160528000Y-140462000D03*
X157988000Y-140462000D03*
X155448000Y-140462000D03*
X152908000Y-140462000D03*
X150368000Y-140462000D03*
X147828000Y-140462000D03*
X145288000Y-140462000D03*
X142748000Y-140462000D03*
X140208000Y-140462000D03*
X137668000Y-140462000D03*
X135128000Y-140462000D03*
X132588000Y-140462000D03*
X130048000Y-140462000D03*
X127508000Y-140462000D03*
X124968000Y-140462000D03*
X122428000Y-140462000D03*
X119888000Y-140462000D03*
X117348000Y-140462000D03*
X114808000Y-140462000D03*
D13*
X104394000Y-102616000D03*
D14*
X104394000Y-100076000D03*
X106934000Y-102616000D03*
X106934000Y-100076000D03*
X109474000Y-102616000D03*
X109474000Y-100076000D03*
X112014000Y-102616000D03*
X112014000Y-100076000D03*
X114554000Y-102616000D03*
X114554000Y-100076000D03*
X117094000Y-102616000D03*
X117094000Y-100076000D03*
X119634000Y-102616000D03*
X119634000Y-100076000D03*
X122174000Y-102616000D03*
X122174000Y-100076000D03*
D13*
X133858000Y-102616000D03*
D14*
X133858000Y-100076000D03*
X136398000Y-102616000D03*
X136398000Y-100076000D03*
X138938000Y-102616000D03*
X138938000Y-100076000D03*
X141478000Y-102616000D03*
X141478000Y-100076000D03*
X144018000Y-102616000D03*
X144018000Y-100076000D03*
X146558000Y-102616000D03*
X146558000Y-100076000D03*
X149098000Y-102616000D03*
X149098000Y-100076000D03*
X151638000Y-102616000D03*
X151638000Y-100076000D03*
X154178000Y-102616000D03*
X154178000Y-100076000D03*
X156718000Y-102616000D03*
X156718000Y-100076000D03*
D13*
X168402000Y-102616000D03*
D14*
X168402000Y-100076000D03*
X170942000Y-102616000D03*
X170942000Y-100076000D03*
X173482000Y-102616000D03*
X173482000Y-100076000D03*
X176022000Y-102616000D03*
X176022000Y-100076000D03*
X178562000Y-102616000D03*
X178562000Y-100076000D03*
D13*
X162814000Y-82931000D03*
D14*
X162814000Y-80391000D03*
X165354000Y-82931000D03*
X165354000Y-80391000D03*
X167894000Y-82931000D03*
X167894000Y-80391000D03*
X170434000Y-82931000D03*
X170434000Y-80391000D03*
X172974000Y-82931000D03*
X172974000Y-80391000D03*
D13*
X111252000Y-62103000D03*
D14*
X111252000Y-59563000D03*
X113792000Y-62103000D03*
X113792000Y-59563000D03*
X116332000Y-62103000D03*
X116332000Y-59563000D03*
X118872000Y-62103000D03*
X118872000Y-59563000D03*
X121412000Y-62103000D03*
X121412000Y-59563000D03*
X123952000Y-62103000D03*
X123952000Y-59563000D03*
X126492000Y-62103000D03*
X126492000Y-59563000D03*
X129032000Y-62103000D03*
X129032000Y-59563000D03*
D13*
X112776000Y-82931000D03*
D14*
X112776000Y-80391000D03*
X115316000Y-82931000D03*
X115316000Y-80391000D03*
X117856000Y-82931000D03*
X117856000Y-80391000D03*
X120396000Y-82931000D03*
X120396000Y-80391000D03*
X122936000Y-82931000D03*
X122936000Y-80391000D03*
X125476000Y-82931000D03*
X125476000Y-80391000D03*
X128016000Y-82931000D03*
X128016000Y-80391000D03*
X130556000Y-82931000D03*
X130556000Y-80391000D03*
X133096000Y-82931000D03*
X133096000Y-80391000D03*
X135636000Y-82931000D03*
X135636000Y-80391000D03*
D13*
X155956000Y-70485000D03*
D15*
X158496000Y-70485000D03*
X161036000Y-70485000D03*
X163576000Y-70485000D03*
X166116000Y-70485000D03*
X168656000Y-70485000D03*
X171196000Y-70485000D03*
X173736000Y-70485000D03*
X176276000Y-70485000D03*
X178816000Y-70485000D03*
D13*
X100838000Y-49657000D03*
D15*
X103378000Y-49657000D03*
X105918000Y-49657000D03*
X108458000Y-49657000D03*
X110998000Y-49657000D03*
X113538000Y-49657000D03*
X116078000Y-49657000D03*
X118618000Y-49657000D03*
X121158000Y-49657000D03*
X123698000Y-49657000D03*
X126238000Y-49657000D03*
X128778000Y-49657000D03*
X131318000Y-49657000D03*
X133858000Y-49657000D03*
X136398000Y-49657000D03*
X138938000Y-49657000D03*
D13*
X100838000Y-70485000D03*
D15*
X103378000Y-70485000D03*
X105918000Y-70485000D03*
X108458000Y-70485000D03*
X110998000Y-70485000D03*
X113538000Y-70485000D03*
X116078000Y-70485000D03*
X118618000Y-70485000D03*
X121158000Y-70485000D03*
X123698000Y-70485000D03*
X126238000Y-70485000D03*
X128778000Y-70485000D03*
X131318000Y-70485000D03*
X133858000Y-70485000D03*
X136398000Y-70485000D03*
X138938000Y-70485000D03*
X141478000Y-70485000D03*
X144018000Y-70485000D03*
X146558000Y-70485000D03*
X149098000Y-70485000D03*
D16*
X124206000Y-113030000D03*
X124206000Y-124460000D03*
X149352000Y-112268000D03*
X123444000Y-123444000D03*
X123444000Y-113792000D03*
X149352000Y-113792000D03*
X171958000Y-109728000D03*
X169672000Y-107442000D03*
X123952000Y-93218000D03*
X123952000Y-95758000D03*
X158496000Y-93218000D03*
X158496000Y-95758000D03*
D17*
X114808000Y-131572000D03*
D16*
X121666000Y-104140000D03*
X159512000Y-122174000D03*
X118364000Y-98806000D03*
X159512000Y-116332000D03*
X165862000Y-116586000D03*
X165862000Y-111506000D03*
X160528000Y-116840000D03*
X160528000Y-121158000D03*
X149352000Y-124460000D03*
X149352000Y-127000000D03*
X127508000Y-111252000D03*
X127508000Y-114046000D03*
X135382000Y-114300000D03*
X135128000Y-108966000D03*
X136398000Y-116078000D03*
X138938000Y-110236000D03*
X137668000Y-107950000D03*
X132588000Y-114046000D03*
X140208000Y-114046000D03*
X140208000Y-119888000D03*
X143764000Y-111760000D03*
X137668000Y-117348000D03*
X146558000Y-125476000D03*
X146558000Y-119126000D03*
X147828000Y-104648000D03*
X130048000Y-114046000D03*
X124968000Y-112014000D03*
X124206000Y-111760000D03*
X124206000Y-107696000D03*
X122428000Y-109474000D03*
X154178000Y-108204000D03*
D17*
X131064000Y-99314000D03*
X123190000Y-110744000D03*
X168148000Y-131572000D03*
X147828000Y-127000000D03*
D16*
X154178000Y-112268000D03*
D18*
X131318000Y-120650000D02*
X140970000Y-120650000D01*
X131318000Y-120650000D02*
X124206000Y-113538000D01*
X124206000Y-113538000D02*
X124206000Y-113030000D01*
X122428000Y-140462000D02*
X122428000Y-126238000D01*
X122428000Y-126238000D02*
X124206000Y-124460000D01*
X140970000Y-120650000D02*
X149352000Y-112268000D01*
X117348000Y-118364000D02*
X117348000Y-116840000D01*
X102870000Y-103886000D02*
X102870000Y-99060000D01*
X103378000Y-104394000D02*
X102870000Y-103886000D01*
X104902000Y-104394000D02*
X103378000Y-104394000D01*
X117348000Y-116840000D02*
X104902000Y-104394000D01*
X167132000Y-100076000D02*
X166878000Y-100076000D01*
X103505000Y-98425000D02*
X102870000Y-99060000D01*
X113411000Y-98425000D02*
X115062000Y-96774000D01*
X103505000Y-98425000D02*
X113411000Y-98425000D01*
X163576000Y-96774000D02*
X115062000Y-96774000D01*
X168402000Y-100076000D02*
X167132000Y-100076000D01*
X166878000Y-100076000D02*
X163576000Y-96774000D01*
X117348000Y-119380000D02*
X117348000Y-118364000D01*
X117348000Y-140462000D02*
X117348000Y-119380000D01*
X130810000Y-121158000D02*
X131064000Y-121412000D01*
X119888000Y-127000000D02*
X123444000Y-123444000D01*
X123444000Y-113792000D02*
X130810000Y-121158000D01*
X119888000Y-140462000D02*
X119888000Y-127000000D01*
X141986000Y-121158000D02*
X149352000Y-113792000D01*
X131064000Y-121412000D02*
X141732000Y-121412000D01*
X141732000Y-121412000D02*
X141986000Y-121158000D01*
X169672000Y-107442000D02*
X170180000Y-107442000D01*
X172212000Y-105410000D02*
X172212000Y-105156000D01*
X170180000Y-107442000D02*
X172212000Y-105410000D01*
X172212000Y-105156000D02*
X172212000Y-104902000D01*
X172212000Y-103886000D02*
X172212000Y-101346000D01*
X172212000Y-101346000D02*
X170942000Y-100076000D01*
X172212000Y-104902000D02*
X172212000Y-103886000D01*
X163068000Y-120142000D02*
X163068000Y-118364000D01*
X171704000Y-109728000D02*
X171958000Y-109728000D01*
X163068000Y-118364000D02*
X171704000Y-109728000D01*
X163068000Y-140462000D02*
X163068000Y-120142000D01*
X147828000Y-140462000D02*
X147828000Y-130556000D01*
X173482000Y-104902000D02*
X173482000Y-102616000D01*
X147828000Y-130556000D02*
X173482000Y-104902000D01*
X150368000Y-129286000D02*
X150368000Y-128778000D01*
X150368000Y-128778000D02*
X174752000Y-104394000D01*
X150368000Y-140462000D02*
X150368000Y-129286000D01*
X174752000Y-101346000D02*
X173482000Y-100076000D01*
X174752000Y-104394000D02*
X174752000Y-101346000D01*
X152908000Y-127762000D02*
X152908000Y-127000000D01*
X152908000Y-127000000D02*
X176022000Y-103886000D01*
X152908000Y-140462000D02*
X152908000Y-127762000D01*
X176022000Y-103886000D02*
X176022000Y-102616000D01*
X155448000Y-126492000D02*
X155448000Y-125222000D01*
X155448000Y-125222000D02*
X177292000Y-103378000D01*
X155448000Y-140462000D02*
X155448000Y-126492000D01*
X177292000Y-101346000D02*
X176022000Y-100076000D01*
X177292000Y-103378000D02*
X177292000Y-101346000D01*
D19*
X123952000Y-95758000D02*
X123952000Y-93218000D01*
X158496000Y-95758000D02*
X158496000Y-93218000D01*
D18*
X122174000Y-102616000D02*
X122174000Y-102362000D01*
D19*
X114808000Y-140462000D02*
X114808000Y-131572000D01*
D18*
X124968000Y-123444000D02*
X104394000Y-102870000D01*
X104394000Y-102870000D02*
X104394000Y-102616000D01*
X124968000Y-140462000D02*
X124968000Y-123444000D01*
X127508000Y-140462000D02*
X127508000Y-125093602D01*
X105664000Y-101346000D02*
X104394000Y-100076000D01*
X105664000Y-103249602D02*
X105664000Y-101346000D01*
X127508000Y-125093602D02*
X105664000Y-103249602D01*
X130048000Y-140462000D02*
X130048000Y-126746000D01*
X106934000Y-103632000D02*
X106934000Y-102616000D01*
X130048000Y-126746000D02*
X106934000Y-103632000D01*
X132588000Y-128270000D02*
X132588000Y-125984000D01*
X131826000Y-125222000D02*
X129540000Y-125222000D01*
X132588000Y-125984000D02*
X131826000Y-125222000D01*
X132588000Y-140462000D02*
X132588000Y-128270000D01*
X108204000Y-101346000D02*
X106934000Y-100076000D01*
X108204000Y-103886000D02*
X108204000Y-101346000D01*
X129540000Y-125222000D02*
X108204000Y-103886000D01*
X135128000Y-129794000D02*
X135128000Y-125476000D01*
X134112000Y-124460000D02*
X129794000Y-124460000D01*
X135128000Y-125476000D02*
X134112000Y-124460000D01*
X135128000Y-140462000D02*
X135128000Y-129794000D01*
X109474000Y-104140000D02*
X109474000Y-102616000D01*
X129794000Y-124460000D02*
X109474000Y-104140000D01*
X137668000Y-131318000D02*
X137668000Y-124460000D01*
X136906000Y-123698000D02*
X130048000Y-123698000D01*
X137668000Y-124460000D02*
X136906000Y-123698000D01*
X130048000Y-123698000D02*
X110744000Y-104394000D01*
X110744000Y-104394000D02*
X110744000Y-104140000D01*
X137668000Y-140462000D02*
X137668000Y-131318000D01*
X110744000Y-101346000D02*
X109474000Y-100076000D01*
X110744000Y-104140000D02*
X110744000Y-101346000D01*
X140208000Y-132842000D02*
X140208000Y-123952000D01*
X139192000Y-122936000D02*
X130302000Y-122936000D01*
X140208000Y-123952000D02*
X139192000Y-122936000D01*
X130302000Y-122936000D02*
X112014000Y-104648000D01*
X112014000Y-104648000D02*
X112014000Y-102616000D01*
X140208000Y-140462000D02*
X140208000Y-132842000D01*
X142748000Y-134366000D02*
X142748000Y-123190000D01*
X141732000Y-122174000D02*
X130556000Y-122174000D01*
X142748000Y-123190000D02*
X141732000Y-122174000D01*
X130556000Y-122174000D02*
X113284000Y-104902000D01*
X113284000Y-104902000D02*
X113284000Y-103886000D01*
X142748000Y-140462000D02*
X142748000Y-134366000D01*
X113284000Y-101346000D02*
X112014000Y-100076000D01*
X113284000Y-103886000D02*
X113284000Y-101346000D01*
X116078000Y-104140000D02*
X114554000Y-102616000D01*
X121666000Y-104140000D02*
X116078000Y-104140000D01*
X164338000Y-111506000D02*
X164338000Y-111760000D01*
X159766000Y-116332000D02*
X159512000Y-116332000D01*
X164338000Y-111760000D02*
X159766000Y-116332000D01*
X157988000Y-124968000D02*
X157988000Y-123444000D01*
X159258000Y-122174000D02*
X159512000Y-122174000D01*
X157988000Y-123444000D02*
X159258000Y-122174000D01*
X118364000Y-98806000D02*
X118872000Y-98298000D01*
X164338000Y-110236000D02*
X164338000Y-99822000D01*
X164338000Y-99822000D02*
X162814000Y-98298000D01*
X162814000Y-98298000D02*
X118872000Y-98298000D01*
X164338000Y-110236000D02*
X164338000Y-111252000D01*
X164338000Y-111506000D02*
X164338000Y-111252000D01*
X164338000Y-111506000D02*
X164338000Y-111252000D01*
X157988000Y-140462000D02*
X157988000Y-124968000D01*
X165608000Y-118618000D02*
X165608000Y-117094000D01*
X165608000Y-140462000D02*
X165608000Y-118618000D01*
X165608000Y-117094000D02*
X165608000Y-116840000D01*
X165608000Y-117094000D02*
X165608000Y-116586000D01*
X165608000Y-116840000D02*
X165862000Y-116586000D01*
X165608000Y-116586000D02*
X165608000Y-116586000D01*
X165608000Y-116586000D02*
X165862000Y-116586000D01*
X118872000Y-97282000D02*
X118110000Y-97282000D01*
X118110000Y-97282000D02*
X115824000Y-99568000D01*
X165862000Y-99822000D02*
X163322000Y-97282000D01*
X163322000Y-97282000D02*
X118872000Y-97282000D01*
X165862000Y-111506000D02*
X165862000Y-99822000D01*
X115824000Y-101346000D02*
X117094000Y-102616000D01*
X115824000Y-99568000D02*
X115824000Y-101346000D01*
X118618000Y-97790000D02*
X118364000Y-97790000D01*
X118364000Y-97790000D02*
X117094000Y-99060000D01*
X165100000Y-99822000D02*
X163068000Y-97790000D01*
X163068000Y-97790000D02*
X118618000Y-97790000D01*
X160528000Y-116840000D02*
X165100000Y-112268000D01*
X165100000Y-112268000D02*
X165100000Y-111506000D01*
X160528000Y-140462000D02*
X160528000Y-121158000D01*
X117094000Y-99060000D02*
X117094000Y-100076000D01*
X165100000Y-111506000D02*
X165100000Y-99822000D01*
X149352000Y-127000000D02*
X149352000Y-124460000D01*
X127508000Y-114046000D02*
X127508000Y-111252000D01*
X135382000Y-114300000D02*
X135382000Y-109220000D01*
X135382000Y-109220000D02*
X135128000Y-108966000D01*
X136398000Y-116078000D02*
X136398000Y-112776000D01*
X136398000Y-112776000D02*
X138938000Y-110236000D01*
X136398000Y-112776000D02*
X138938000Y-110236000D01*
X132588000Y-114046000D02*
X134366000Y-112268000D01*
X134366000Y-108458000D02*
X134874000Y-107950000D01*
X134366000Y-112268000D02*
X134366000Y-108458000D01*
X134874000Y-107950000D02*
X137668000Y-107950000D01*
X140208000Y-119888000D02*
X140208000Y-114046000D01*
X137668000Y-117348000D02*
X137668000Y-114046000D01*
X137668000Y-114046000D02*
X139954000Y-111760000D01*
X139954000Y-111760000D02*
X143764000Y-111760000D01*
X139954000Y-111760000D02*
X143764000Y-111760000D01*
X137668000Y-114046000D02*
X139954000Y-111760000D01*
X146558000Y-125476000D02*
X146558000Y-119126000D01*
X136398000Y-105664000D02*
X137414000Y-104648000D01*
X137414000Y-104648000D02*
X138684000Y-104648000D01*
X130048000Y-114046000D02*
X133858000Y-110236000D01*
X133858000Y-108204000D02*
X136398000Y-105664000D01*
X133858000Y-110236000D02*
X133858000Y-108204000D01*
X138684000Y-104648000D02*
X147828000Y-104648000D01*
X132080000Y-104902000D02*
X133096000Y-103886000D01*
X133096000Y-103886000D02*
X147828000Y-103886000D01*
X124968000Y-112014000D02*
X132080000Y-104902000D01*
X147828000Y-103886000D02*
X149098000Y-102616000D01*
X145288000Y-140462000D02*
X145288000Y-119126000D01*
X150368000Y-101346000D02*
X149098000Y-100076000D01*
X150368000Y-114046000D02*
X150368000Y-101346000D01*
X145288000Y-119126000D02*
X150368000Y-114046000D01*
X132334000Y-102870000D02*
X132334000Y-103632000D01*
X152908000Y-99314000D02*
X152908000Y-101346000D01*
X152908000Y-101346000D02*
X151638000Y-102616000D01*
X152400000Y-98806000D02*
X132842000Y-98806000D01*
X152908000Y-99314000D02*
X152400000Y-98806000D01*
X132334000Y-102870000D02*
X132334000Y-99314000D01*
X132334000Y-99314000D02*
X132842000Y-98806000D01*
X132334000Y-103632000D02*
X124206000Y-111760000D01*
X122428000Y-109474000D02*
X124206000Y-107696000D01*
D19*
X154178000Y-108204000D02*
X154178000Y-102616000D01*
X128016000Y-105918000D02*
X131064000Y-102870000D01*
X131064000Y-102870000D02*
X131064000Y-99314000D01*
X123190000Y-110744000D02*
X128016000Y-105918000D01*
X168148000Y-139462000D02*
X168148000Y-131572000D01*
X154178000Y-114554000D02*
X154178000Y-112268000D01*
X154178000Y-117602000D02*
X147828000Y-123952000D01*
X147828000Y-123952000D02*
X147828000Y-127000000D01*
X154178000Y-117602000D02*
X154178000Y-114554000D01*
D20*
G36*
X168333810Y-89876830D02*
X168722485Y-89877170D01*
X168893473Y-89806519D01*
X168945823Y-89841498D01*
X168945824Y-89841499D01*
X169234929Y-89961250D01*
X169769538Y-90067590D01*
X169848528Y-90067590D01*
X169926000Y-90083000D01*
X183094000Y-90083000D01*
X183094000Y-132802000D01*
X169418000Y-132802000D01*
X169375000Y-132810553D01*
X169375000Y-131572000D01*
X169281600Y-131102447D01*
X169015620Y-130704380D01*
X168617553Y-130438400D01*
X168148000Y-130345000D01*
X167678447Y-130438400D01*
X167280380Y-130704380D01*
X167014400Y-131102447D01*
X166921000Y-131572000D01*
X166921000Y-133527672D01*
X166460000Y-133529048D01*
X166460000Y-117440175D01*
X166732140Y-117168508D01*
X166888821Y-116791179D01*
X166889178Y-116382613D01*
X166733156Y-116005011D01*
X166682572Y-115954338D01*
X171881976Y-110754934D01*
X172161387Y-110755178D01*
X172538989Y-110599156D01*
X172828140Y-110310508D01*
X172984821Y-109933179D01*
X172985178Y-109524613D01*
X172829156Y-109147011D01*
X172778572Y-109096338D01*
X177847886Y-104027024D01*
X178246939Y-104192725D01*
X178874308Y-104193273D01*
X179454132Y-103953695D01*
X179898136Y-103510465D01*
X180138725Y-102931061D01*
X180139273Y-102303692D01*
X179899695Y-101723868D01*
X179456465Y-101279864D01*
X179384782Y-101250099D01*
X179426353Y-101119958D01*
X178562000Y-100255605D01*
X178547858Y-100269748D01*
X178368253Y-100090143D01*
X178382395Y-100076000D01*
X178741605Y-100076000D01*
X179605958Y-100940353D01*
X179857259Y-100860080D01*
X180058718Y-100304721D01*
X180032315Y-99714542D01*
X179857259Y-99291920D01*
X179605958Y-99211647D01*
X178741605Y-100076000D01*
X178382395Y-100076000D01*
X177518042Y-99211647D01*
X177388297Y-99253091D01*
X177359695Y-99183868D01*
X177208134Y-99032042D01*
X177697647Y-99032042D01*
X178562000Y-99896395D01*
X179426353Y-99032042D01*
X179346080Y-98780741D01*
X178790721Y-98579282D01*
X178200542Y-98605685D01*
X177777920Y-98780741D01*
X177697647Y-99032042D01*
X177208134Y-99032042D01*
X176916465Y-98739864D01*
X176337061Y-98499275D01*
X175709692Y-98498727D01*
X175129868Y-98738305D01*
X174751730Y-99115784D01*
X174376465Y-98739864D01*
X173797061Y-98499275D01*
X173169692Y-98498727D01*
X172589868Y-98738305D01*
X172211730Y-99115784D01*
X171836465Y-98739864D01*
X171257061Y-98499275D01*
X170629692Y-98498727D01*
X170049868Y-98738305D01*
X169671730Y-99115784D01*
X169296465Y-98739864D01*
X168717061Y-98499275D01*
X168089692Y-98498727D01*
X167509868Y-98738305D01*
X167127208Y-99120298D01*
X164178455Y-96171545D01*
X163902046Y-95986855D01*
X163576000Y-95922000D01*
X159690378Y-95922000D01*
X159723000Y-95758000D01*
X159723000Y-93218000D01*
X159629600Y-92748447D01*
X159363620Y-92350380D01*
X158965553Y-92084400D01*
X158496000Y-91991000D01*
X158026447Y-92084400D01*
X157628380Y-92350380D01*
X157362400Y-92748447D01*
X157269000Y-93218000D01*
X157269000Y-95758000D01*
X157301622Y-95922000D01*
X125146378Y-95922000D01*
X125179000Y-95758000D01*
X125179000Y-93218000D01*
X125085600Y-92748447D01*
X124819620Y-92350380D01*
X124421553Y-92084400D01*
X123952000Y-91991000D01*
X123482447Y-92084400D01*
X123084380Y-92350380D01*
X122818400Y-92748447D01*
X122725000Y-93218000D01*
X122725000Y-95758000D01*
X122757622Y-95922000D01*
X115062000Y-95922000D01*
X114735954Y-95986855D01*
X114459545Y-96171545D01*
X113058090Y-97573000D01*
X103505000Y-97573000D01*
X103178954Y-97637855D01*
X102902545Y-97822545D01*
X102267545Y-98457545D01*
X102082855Y-98733954D01*
X102018000Y-99060000D01*
X102018000Y-103886000D01*
X102082855Y-104212046D01*
X102267545Y-104488455D01*
X102775545Y-104996455D01*
X103051953Y-105181145D01*
X103378000Y-105246000D01*
X104549090Y-105246000D01*
X116496000Y-117192910D01*
X116496000Y-133678194D01*
X114305535Y-133684733D01*
X114278951Y-133551088D01*
X114105100Y-133290900D01*
X113844912Y-133117049D01*
X113538000Y-133056000D01*
X99608000Y-133056000D01*
X99608000Y-90083000D01*
X109347000Y-90083000D01*
X109424472Y-90067590D01*
X109503462Y-90067590D01*
X110038071Y-89961250D01*
X110241878Y-89876830D01*
X110327177Y-89841498D01*
X110379509Y-89806531D01*
X110548810Y-89876830D01*
X110937485Y-89877170D01*
X111125018Y-89799683D01*
X111310810Y-89876830D01*
X111699485Y-89877170D01*
X111887018Y-89799683D01*
X112072810Y-89876830D01*
X112461485Y-89877170D01*
X112649018Y-89799683D01*
X112834810Y-89876830D01*
X113223485Y-89877170D01*
X113394473Y-89806519D01*
X113446823Y-89841498D01*
X113446824Y-89841499D01*
X113735929Y-89961250D01*
X114270538Y-90067590D01*
X114349528Y-90067590D01*
X114427000Y-90083000D01*
X135509000Y-90083000D01*
X135586472Y-90067590D01*
X135665462Y-90067590D01*
X136200071Y-89961250D01*
X136403878Y-89876830D01*
X136489177Y-89841498D01*
X136541509Y-89806531D01*
X136710810Y-89876830D01*
X137099485Y-89877170D01*
X137287018Y-89799683D01*
X137472810Y-89876830D01*
X137861485Y-89877170D01*
X138049018Y-89799683D01*
X138234810Y-89876830D01*
X138623485Y-89877170D01*
X138811018Y-89799683D01*
X138996810Y-89876830D01*
X139385485Y-89877170D01*
X139556473Y-89806519D01*
X139608823Y-89841498D01*
X139608824Y-89841499D01*
X139897929Y-89961250D01*
X140432538Y-90067590D01*
X140511528Y-90067590D01*
X140589000Y-90083000D01*
X164846000Y-90083000D01*
X164923472Y-90067590D01*
X165002462Y-90067590D01*
X165537071Y-89961250D01*
X165740878Y-89876830D01*
X165826177Y-89841498D01*
X165878509Y-89806531D01*
X166047810Y-89876830D01*
X166436485Y-89877170D01*
X166624018Y-89799683D01*
X166809810Y-89876830D01*
X167198485Y-89877170D01*
X167386018Y-89799683D01*
X167571810Y-89876830D01*
X167960485Y-89877170D01*
X168148018Y-89799683D01*
X168333810Y-89876830D01*
X168333810Y-89876830D01*
G37*
X168333810Y-89876830D02*
X168722485Y-89877170D01*
X168893473Y-89806519D01*
X168945823Y-89841498D01*
X168945824Y-89841499D01*
X169234929Y-89961250D01*
X169769538Y-90067590D01*
X169848528Y-90067590D01*
X169926000Y-90083000D01*
X183094000Y-90083000D01*
X183094000Y-132802000D01*
X169418000Y-132802000D01*
X169375000Y-132810553D01*
X169375000Y-131572000D01*
X169281600Y-131102447D01*
X169015620Y-130704380D01*
X168617553Y-130438400D01*
X168148000Y-130345000D01*
X167678447Y-130438400D01*
X167280380Y-130704380D01*
X167014400Y-131102447D01*
X166921000Y-131572000D01*
X166921000Y-133527672D01*
X166460000Y-133529048D01*
X166460000Y-117440175D01*
X166732140Y-117168508D01*
X166888821Y-116791179D01*
X166889178Y-116382613D01*
X166733156Y-116005011D01*
X166682572Y-115954338D01*
X171881976Y-110754934D01*
X172161387Y-110755178D01*
X172538989Y-110599156D01*
X172828140Y-110310508D01*
X172984821Y-109933179D01*
X172985178Y-109524613D01*
X172829156Y-109147011D01*
X172778572Y-109096338D01*
X177847886Y-104027024D01*
X178246939Y-104192725D01*
X178874308Y-104193273D01*
X179454132Y-103953695D01*
X179898136Y-103510465D01*
X180138725Y-102931061D01*
X180139273Y-102303692D01*
X179899695Y-101723868D01*
X179456465Y-101279864D01*
X179384782Y-101250099D01*
X179426353Y-101119958D01*
X178562000Y-100255605D01*
X178547858Y-100269748D01*
X178368253Y-100090143D01*
X178382395Y-100076000D01*
X178741605Y-100076000D01*
X179605958Y-100940353D01*
X179857259Y-100860080D01*
X180058718Y-100304721D01*
X180032315Y-99714542D01*
X179857259Y-99291920D01*
X179605958Y-99211647D01*
X178741605Y-100076000D01*
X178382395Y-100076000D01*
X177518042Y-99211647D01*
X177388297Y-99253091D01*
X177359695Y-99183868D01*
X177208134Y-99032042D01*
X177697647Y-99032042D01*
X178562000Y-99896395D01*
X179426353Y-99032042D01*
X179346080Y-98780741D01*
X178790721Y-98579282D01*
X178200542Y-98605685D01*
X177777920Y-98780741D01*
X177697647Y-99032042D01*
X177208134Y-99032042D01*
X176916465Y-98739864D01*
X176337061Y-98499275D01*
X175709692Y-98498727D01*
X175129868Y-98738305D01*
X174751730Y-99115784D01*
X174376465Y-98739864D01*
X173797061Y-98499275D01*
X173169692Y-98498727D01*
X172589868Y-98738305D01*
X172211730Y-99115784D01*
X171836465Y-98739864D01*
X171257061Y-98499275D01*
X170629692Y-98498727D01*
X170049868Y-98738305D01*
X169671730Y-99115784D01*
X169296465Y-98739864D01*
X168717061Y-98499275D01*
X168089692Y-98498727D01*
X167509868Y-98738305D01*
X167127208Y-99120298D01*
X164178455Y-96171545D01*
X163902046Y-95986855D01*
X163576000Y-95922000D01*
X159690378Y-95922000D01*
X159723000Y-95758000D01*
X159723000Y-93218000D01*
X159629600Y-92748447D01*
X159363620Y-92350380D01*
X158965553Y-92084400D01*
X158496000Y-91991000D01*
X158026447Y-92084400D01*
X157628380Y-92350380D01*
X157362400Y-92748447D01*
X157269000Y-93218000D01*
X157269000Y-95758000D01*
X157301622Y-95922000D01*
X125146378Y-95922000D01*
X125179000Y-95758000D01*
X125179000Y-93218000D01*
X125085600Y-92748447D01*
X124819620Y-92350380D01*
X124421553Y-92084400D01*
X123952000Y-91991000D01*
X123482447Y-92084400D01*
X123084380Y-92350380D01*
X122818400Y-92748447D01*
X122725000Y-93218000D01*
X122725000Y-95758000D01*
X122757622Y-95922000D01*
X115062000Y-95922000D01*
X114735954Y-95986855D01*
X114459545Y-96171545D01*
X113058090Y-97573000D01*
X103505000Y-97573000D01*
X103178954Y-97637855D01*
X102902545Y-97822545D01*
X102267545Y-98457545D01*
X102082855Y-98733954D01*
X102018000Y-99060000D01*
X102018000Y-103886000D01*
X102082855Y-104212046D01*
X102267545Y-104488455D01*
X102775545Y-104996455D01*
X103051953Y-105181145D01*
X103378000Y-105246000D01*
X104549090Y-105246000D01*
X116496000Y-117192910D01*
X116496000Y-133678194D01*
X114305535Y-133684733D01*
X114278951Y-133551088D01*
X114105100Y-133290900D01*
X113844912Y-133117049D01*
X113538000Y-133056000D01*
X99608000Y-133056000D01*
X99608000Y-90083000D01*
X109347000Y-90083000D01*
X109424472Y-90067590D01*
X109503462Y-90067590D01*
X110038071Y-89961250D01*
X110241878Y-89876830D01*
X110327177Y-89841498D01*
X110379509Y-89806531D01*
X110548810Y-89876830D01*
X110937485Y-89877170D01*
X111125018Y-89799683D01*
X111310810Y-89876830D01*
X111699485Y-89877170D01*
X111887018Y-89799683D01*
X112072810Y-89876830D01*
X112461485Y-89877170D01*
X112649018Y-89799683D01*
X112834810Y-89876830D01*
X113223485Y-89877170D01*
X113394473Y-89806519D01*
X113446823Y-89841498D01*
X113446824Y-89841499D01*
X113735929Y-89961250D01*
X114270538Y-90067590D01*
X114349528Y-90067590D01*
X114427000Y-90083000D01*
X135509000Y-90083000D01*
X135586472Y-90067590D01*
X135665462Y-90067590D01*
X136200071Y-89961250D01*
X136403878Y-89876830D01*
X136489177Y-89841498D01*
X136541509Y-89806531D01*
X136710810Y-89876830D01*
X137099485Y-89877170D01*
X137287018Y-89799683D01*
X137472810Y-89876830D01*
X137861485Y-89877170D01*
X138049018Y-89799683D01*
X138234810Y-89876830D01*
X138623485Y-89877170D01*
X138811018Y-89799683D01*
X138996810Y-89876830D01*
X139385485Y-89877170D01*
X139556473Y-89806519D01*
X139608823Y-89841498D01*
X139608824Y-89841499D01*
X139897929Y-89961250D01*
X140432538Y-90067590D01*
X140511528Y-90067590D01*
X140589000Y-90083000D01*
X164846000Y-90083000D01*
X164923472Y-90067590D01*
X165002462Y-90067590D01*
X165537071Y-89961250D01*
X165740878Y-89876830D01*
X165826177Y-89841498D01*
X165878509Y-89806531D01*
X166047810Y-89876830D01*
X166436485Y-89877170D01*
X166624018Y-89799683D01*
X166809810Y-89876830D01*
X167198485Y-89877170D01*
X167386018Y-89799683D01*
X167571810Y-89876830D01*
X167960485Y-89877170D01*
X168148018Y-89799683D01*
X168333810Y-89876830D01*
G36*
X163486000Y-100174910D02*
X163486000Y-111407090D01*
X159588024Y-115305066D01*
X159308613Y-115304822D01*
X158931011Y-115460844D01*
X158641860Y-115749492D01*
X158485179Y-116126821D01*
X158484822Y-116535387D01*
X158640844Y-116912989D01*
X158929492Y-117202140D01*
X159306821Y-117358821D01*
X159631274Y-117359105D01*
X159656844Y-117420989D01*
X159707428Y-117471662D01*
X150379175Y-126799915D01*
X150379178Y-126796613D01*
X150223156Y-126419011D01*
X150204000Y-126399822D01*
X150204000Y-125060616D01*
X150222140Y-125042508D01*
X150378821Y-124665179D01*
X150379178Y-124256613D01*
X150223156Y-123879011D01*
X149934508Y-123589860D01*
X149928058Y-123587182D01*
X155045620Y-118469620D01*
X155132994Y-118338855D01*
X155311600Y-118071553D01*
X155405000Y-117602000D01*
X155405000Y-112268000D01*
X155311600Y-111798447D01*
X155045620Y-111400380D01*
X154647553Y-111134400D01*
X154178000Y-111041000D01*
X153708447Y-111134400D01*
X153310380Y-111400380D01*
X153044400Y-111798447D01*
X152951000Y-112268000D01*
X152951000Y-117093760D01*
X147410000Y-122634760D01*
X147410000Y-119726616D01*
X147428140Y-119708508D01*
X147584821Y-119331179D01*
X147585178Y-118922613D01*
X147429156Y-118545011D01*
X147251682Y-118367228D01*
X150970455Y-114648455D01*
X151155145Y-114372046D01*
X151220000Y-114046000D01*
X151220000Y-104149981D01*
X151322939Y-104192725D01*
X151950308Y-104193273D01*
X152530132Y-103953695D01*
X152908270Y-103576216D01*
X152951000Y-103619020D01*
X152951000Y-108204000D01*
X153044400Y-108673553D01*
X153310380Y-109071620D01*
X153708447Y-109337600D01*
X154178000Y-109431000D01*
X154647553Y-109337600D01*
X155045620Y-109071620D01*
X155311600Y-108673553D01*
X155405000Y-108204000D01*
X155405000Y-103619411D01*
X155448270Y-103576216D01*
X155823535Y-103952136D01*
X156402939Y-104192725D01*
X157030308Y-104193273D01*
X157610132Y-103953695D01*
X158054136Y-103510465D01*
X158294725Y-102931061D01*
X158295273Y-102303692D01*
X158055695Y-101723868D01*
X157612465Y-101279864D01*
X157540782Y-101250099D01*
X157582353Y-101119958D01*
X156718000Y-100255605D01*
X155853647Y-101119958D01*
X155895091Y-101249703D01*
X155825868Y-101278305D01*
X155447730Y-101655784D01*
X155138216Y-101345730D01*
X155514136Y-100970465D01*
X155543901Y-100898782D01*
X155674042Y-100940353D01*
X156538395Y-100076000D01*
X156524253Y-100061858D01*
X156703858Y-99882253D01*
X156718000Y-99896395D01*
X156732143Y-99882253D01*
X156911748Y-100061858D01*
X156897605Y-100076000D01*
X157761958Y-100940353D01*
X158013259Y-100860080D01*
X158214718Y-100304721D01*
X158188315Y-99714542D01*
X158013259Y-99291920D01*
X157761960Y-99211648D01*
X157823608Y-99150000D01*
X162461090Y-99150000D01*
X163486000Y-100174910D01*
X163486000Y-100174910D01*
G37*
X163486000Y-100174910D02*
X163486000Y-111407090D01*
X159588024Y-115305066D01*
X159308613Y-115304822D01*
X158931011Y-115460844D01*
X158641860Y-115749492D01*
X158485179Y-116126821D01*
X158484822Y-116535387D01*
X158640844Y-116912989D01*
X158929492Y-117202140D01*
X159306821Y-117358821D01*
X159631274Y-117359105D01*
X159656844Y-117420989D01*
X159707428Y-117471662D01*
X150379175Y-126799915D01*
X150379178Y-126796613D01*
X150223156Y-126419011D01*
X150204000Y-126399822D01*
X150204000Y-125060616D01*
X150222140Y-125042508D01*
X150378821Y-124665179D01*
X150379178Y-124256613D01*
X150223156Y-123879011D01*
X149934508Y-123589860D01*
X149928058Y-123587182D01*
X155045620Y-118469620D01*
X155132994Y-118338855D01*
X155311600Y-118071553D01*
X155405000Y-117602000D01*
X155405000Y-112268000D01*
X155311600Y-111798447D01*
X155045620Y-111400380D01*
X154647553Y-111134400D01*
X154178000Y-111041000D01*
X153708447Y-111134400D01*
X153310380Y-111400380D01*
X153044400Y-111798447D01*
X152951000Y-112268000D01*
X152951000Y-117093760D01*
X147410000Y-122634760D01*
X147410000Y-119726616D01*
X147428140Y-119708508D01*
X147584821Y-119331179D01*
X147585178Y-118922613D01*
X147429156Y-118545011D01*
X147251682Y-118367228D01*
X150970455Y-114648455D01*
X151155145Y-114372046D01*
X151220000Y-114046000D01*
X151220000Y-104149981D01*
X151322939Y-104192725D01*
X151950308Y-104193273D01*
X152530132Y-103953695D01*
X152908270Y-103576216D01*
X152951000Y-103619020D01*
X152951000Y-108204000D01*
X153044400Y-108673553D01*
X153310380Y-109071620D01*
X153708447Y-109337600D01*
X154178000Y-109431000D01*
X154647553Y-109337600D01*
X155045620Y-109071620D01*
X155311600Y-108673553D01*
X155405000Y-108204000D01*
X155405000Y-103619411D01*
X155448270Y-103576216D01*
X155823535Y-103952136D01*
X156402939Y-104192725D01*
X157030308Y-104193273D01*
X157610132Y-103953695D01*
X158054136Y-103510465D01*
X158294725Y-102931061D01*
X158295273Y-102303692D01*
X158055695Y-101723868D01*
X157612465Y-101279864D01*
X157540782Y-101250099D01*
X157582353Y-101119958D01*
X156718000Y-100255605D01*
X155853647Y-101119958D01*
X155895091Y-101249703D01*
X155825868Y-101278305D01*
X155447730Y-101655784D01*
X155138216Y-101345730D01*
X155514136Y-100970465D01*
X155543901Y-100898782D01*
X155674042Y-100940353D01*
X156538395Y-100076000D01*
X156524253Y-100061858D01*
X156703858Y-99882253D01*
X156718000Y-99896395D01*
X156732143Y-99882253D01*
X156911748Y-100061858D01*
X156897605Y-100076000D01*
X157761958Y-100940353D01*
X158013259Y-100860080D01*
X158214718Y-100304721D01*
X158188315Y-99714542D01*
X158013259Y-99291920D01*
X157761960Y-99211648D01*
X157823608Y-99150000D01*
X162461090Y-99150000D01*
X163486000Y-100174910D01*
G36*
X129837000Y-99314000D02*
X129837000Y-102361760D01*
X125079084Y-107119676D01*
X125077156Y-107115011D01*
X124788508Y-106825860D01*
X124411179Y-106669179D01*
X124002613Y-106668822D01*
X123625011Y-106824844D01*
X123335860Y-107113492D01*
X123179179Y-107490821D01*
X123179155Y-107517935D01*
X122250246Y-108446844D01*
X122224613Y-108446822D01*
X121847011Y-108602844D01*
X121557860Y-108891492D01*
X121401179Y-109268821D01*
X121400822Y-109677387D01*
X121556844Y-110054989D01*
X121845492Y-110344140D01*
X122027504Y-110419718D01*
X121963000Y-110744000D01*
X122056400Y-111213552D01*
X122322380Y-111611620D01*
X122720448Y-111877600D01*
X123181248Y-111969259D01*
X123334844Y-112340989D01*
X123388603Y-112394841D01*
X123335860Y-112447492D01*
X123196529Y-112783037D01*
X122863011Y-112920844D01*
X122685228Y-113098318D01*
X114136000Y-104549090D01*
X114136000Y-104149981D01*
X114238939Y-104192725D01*
X114866308Y-104193273D01*
X114908804Y-104175714D01*
X115475545Y-104742455D01*
X115751953Y-104927145D01*
X116078000Y-104992000D01*
X121065384Y-104992000D01*
X121083492Y-105010140D01*
X121460821Y-105166821D01*
X121869387Y-105167178D01*
X122246989Y-105011156D01*
X122536140Y-104722508D01*
X122692821Y-104345179D01*
X122693028Y-104107858D01*
X123066132Y-103953695D01*
X123510136Y-103510465D01*
X123750725Y-102931061D01*
X123751273Y-102303692D01*
X123511695Y-101723868D01*
X123068465Y-101279864D01*
X122996782Y-101250099D01*
X123038353Y-101119958D01*
X122174000Y-100255605D01*
X121309647Y-101119958D01*
X121351091Y-101249703D01*
X121281868Y-101278305D01*
X120903730Y-101655784D01*
X120594216Y-101345730D01*
X120970136Y-100970465D01*
X120999901Y-100898782D01*
X121130042Y-100940353D01*
X121994395Y-100076000D01*
X121980253Y-100061858D01*
X122159858Y-99882253D01*
X122174000Y-99896395D01*
X122188143Y-99882253D01*
X122367748Y-100061858D01*
X122353605Y-100076000D01*
X123217958Y-100940353D01*
X123469259Y-100860080D01*
X123670718Y-100304721D01*
X123644315Y-99714542D01*
X123469259Y-99291920D01*
X123217960Y-99211648D01*
X123279608Y-99150000D01*
X129869622Y-99150000D01*
X129837000Y-99314000D01*
X129837000Y-99314000D01*
G37*
X129837000Y-99314000D02*
X129837000Y-102361760D01*
X125079084Y-107119676D01*
X125077156Y-107115011D01*
X124788508Y-106825860D01*
X124411179Y-106669179D01*
X124002613Y-106668822D01*
X123625011Y-106824844D01*
X123335860Y-107113492D01*
X123179179Y-107490821D01*
X123179155Y-107517935D01*
X122250246Y-108446844D01*
X122224613Y-108446822D01*
X121847011Y-108602844D01*
X121557860Y-108891492D01*
X121401179Y-109268821D01*
X121400822Y-109677387D01*
X121556844Y-110054989D01*
X121845492Y-110344140D01*
X122027504Y-110419718D01*
X121963000Y-110744000D01*
X122056400Y-111213552D01*
X122322380Y-111611620D01*
X122720448Y-111877600D01*
X123181248Y-111969259D01*
X123334844Y-112340989D01*
X123388603Y-112394841D01*
X123335860Y-112447492D01*
X123196529Y-112783037D01*
X122863011Y-112920844D01*
X122685228Y-113098318D01*
X114136000Y-104549090D01*
X114136000Y-104149981D01*
X114238939Y-104192725D01*
X114866308Y-104193273D01*
X114908804Y-104175714D01*
X115475545Y-104742455D01*
X115751953Y-104927145D01*
X116078000Y-104992000D01*
X121065384Y-104992000D01*
X121083492Y-105010140D01*
X121460821Y-105166821D01*
X121869387Y-105167178D01*
X122246989Y-105011156D01*
X122536140Y-104722508D01*
X122692821Y-104345179D01*
X122693028Y-104107858D01*
X123066132Y-103953695D01*
X123510136Y-103510465D01*
X123750725Y-102931061D01*
X123751273Y-102303692D01*
X123511695Y-101723868D01*
X123068465Y-101279864D01*
X122996782Y-101250099D01*
X123038353Y-101119958D01*
X122174000Y-100255605D01*
X121309647Y-101119958D01*
X121351091Y-101249703D01*
X121281868Y-101278305D01*
X120903730Y-101655784D01*
X120594216Y-101345730D01*
X120970136Y-100970465D01*
X120999901Y-100898782D01*
X121130042Y-100940353D01*
X121994395Y-100076000D01*
X121980253Y-100061858D01*
X122159858Y-99882253D01*
X122174000Y-99896395D01*
X122188143Y-99882253D01*
X122367748Y-100061858D01*
X122353605Y-100076000D01*
X123217958Y-100940353D01*
X123469259Y-100860080D01*
X123670718Y-100304721D01*
X123644315Y-99714542D01*
X123469259Y-99291920D01*
X123217960Y-99211648D01*
X123279608Y-99150000D01*
X129869622Y-99150000D01*
X129837000Y-99314000D01*
G36*
X149225000Y-70358000D02*
X149245000Y-70358000D01*
X149245000Y-70612000D01*
X149225000Y-70612000D01*
X149225000Y-71805155D01*
X149454890Y-71926476D01*
X149864924Y-71756645D01*
X150293183Y-71366358D01*
X150328000Y-71292220D01*
X150328000Y-74803000D01*
X150343410Y-74880472D01*
X150343410Y-74959462D01*
X150449750Y-75494071D01*
X150495699Y-75605000D01*
X150569502Y-75783177D01*
X150604469Y-75835509D01*
X150534170Y-76004810D01*
X150533830Y-76393485D01*
X150611317Y-76581018D01*
X150534170Y-76766810D01*
X150533830Y-77155485D01*
X150611317Y-77343018D01*
X150534170Y-77528810D01*
X150533830Y-77917485D01*
X150611317Y-78105018D01*
X150534170Y-78290810D01*
X150533830Y-78679485D01*
X150604481Y-78850473D01*
X150569502Y-78902823D01*
X150519899Y-79022575D01*
X150449750Y-79191929D01*
X150343410Y-79726538D01*
X150343410Y-79805528D01*
X150328000Y-79883000D01*
X150328000Y-85685000D01*
X140589000Y-85685000D01*
X140511528Y-85700410D01*
X139897929Y-85806750D01*
X139608824Y-85926501D01*
X139608823Y-85926502D01*
X139556491Y-85961469D01*
X139387190Y-85891170D01*
X138998515Y-85890830D01*
X138810982Y-85968317D01*
X138625190Y-85891170D01*
X138236515Y-85890830D01*
X138048982Y-85968317D01*
X137863190Y-85891170D01*
X137474515Y-85890830D01*
X137286982Y-85968317D01*
X137101190Y-85891170D01*
X136712515Y-85890830D01*
X136541527Y-85961481D01*
X136489177Y-85926502D01*
X136369425Y-85876899D01*
X136200071Y-85806750D01*
X135665462Y-85700410D01*
X135586472Y-85700410D01*
X135509000Y-85685000D01*
X114427000Y-85685000D01*
X114349528Y-85700410D01*
X113735929Y-85806750D01*
X113446824Y-85926501D01*
X113446823Y-85926502D01*
X113394491Y-85961469D01*
X113225190Y-85891170D01*
X112836515Y-85890830D01*
X112648982Y-85968317D01*
X112463190Y-85891170D01*
X112074515Y-85890830D01*
X111886982Y-85968317D01*
X111701190Y-85891170D01*
X111312515Y-85890830D01*
X111124982Y-85968317D01*
X110939190Y-85891170D01*
X110550515Y-85890830D01*
X110379527Y-85961481D01*
X110327177Y-85926502D01*
X110207425Y-85876899D01*
X110038071Y-85806750D01*
X109503462Y-85700410D01*
X109424472Y-85700410D01*
X109347000Y-85685000D01*
X99608000Y-85685000D01*
X99608000Y-82081000D01*
X111184758Y-82081000D01*
X111184758Y-83781000D01*
X111235451Y-84050410D01*
X111394672Y-84297846D01*
X111637615Y-84463843D01*
X111926000Y-84522242D01*
X113626000Y-84522242D01*
X113895410Y-84471549D01*
X114142846Y-84312328D01*
X114274420Y-84119764D01*
X114421535Y-84267136D01*
X115000939Y-84507725D01*
X115628308Y-84508273D01*
X116208132Y-84268695D01*
X116586270Y-83891216D01*
X116961535Y-84267136D01*
X117540939Y-84507725D01*
X118168308Y-84508273D01*
X118748132Y-84268695D01*
X119126270Y-83891216D01*
X119501535Y-84267136D01*
X120080939Y-84507725D01*
X120708308Y-84508273D01*
X121288132Y-84268695D01*
X121666270Y-83891216D01*
X122041535Y-84267136D01*
X122620939Y-84507725D01*
X123248308Y-84508273D01*
X123828132Y-84268695D01*
X124206270Y-83891216D01*
X124581535Y-84267136D01*
X125160939Y-84507725D01*
X125788308Y-84508273D01*
X126368132Y-84268695D01*
X126746270Y-83891216D01*
X127121535Y-84267136D01*
X127700939Y-84507725D01*
X128328308Y-84508273D01*
X128908132Y-84268695D01*
X129286270Y-83891216D01*
X129661535Y-84267136D01*
X130240939Y-84507725D01*
X130868308Y-84508273D01*
X131448132Y-84268695D01*
X131826270Y-83891216D01*
X132201535Y-84267136D01*
X132780939Y-84507725D01*
X133408308Y-84508273D01*
X133988132Y-84268695D01*
X134366270Y-83891216D01*
X134741535Y-84267136D01*
X135320939Y-84507725D01*
X135948308Y-84508273D01*
X136528132Y-84268695D01*
X136972136Y-83825465D01*
X137212725Y-83246061D01*
X137213273Y-82618692D01*
X136973695Y-82038868D01*
X136530465Y-81594864D01*
X136458782Y-81565099D01*
X136500353Y-81434958D01*
X135636000Y-80570605D01*
X134771647Y-81434958D01*
X134813091Y-81564703D01*
X134743868Y-81593305D01*
X134365730Y-81970784D01*
X134056216Y-81660730D01*
X134432136Y-81285465D01*
X134461901Y-81213782D01*
X134592042Y-81255353D01*
X135456395Y-80391000D01*
X135815605Y-80391000D01*
X136679958Y-81255353D01*
X136931259Y-81175080D01*
X137132718Y-80619721D01*
X137106315Y-80029542D01*
X136931259Y-79606920D01*
X136679958Y-79526647D01*
X135815605Y-80391000D01*
X135456395Y-80391000D01*
X134592042Y-79526647D01*
X134462297Y-79568091D01*
X134433695Y-79498868D01*
X134282134Y-79347042D01*
X134771647Y-79347042D01*
X135636000Y-80211395D01*
X136500353Y-79347042D01*
X136420080Y-79095741D01*
X135864721Y-78894282D01*
X135274542Y-78920685D01*
X134851920Y-79095741D01*
X134771647Y-79347042D01*
X134282134Y-79347042D01*
X133990465Y-79054864D01*
X133411061Y-78814275D01*
X132783692Y-78813727D01*
X132203868Y-79053305D01*
X131825730Y-79430784D01*
X131450465Y-79054864D01*
X130871061Y-78814275D01*
X130243692Y-78813727D01*
X129663868Y-79053305D01*
X129285730Y-79430784D01*
X128910465Y-79054864D01*
X128331061Y-78814275D01*
X127703692Y-78813727D01*
X127123868Y-79053305D01*
X126745730Y-79430784D01*
X126370465Y-79054864D01*
X125791061Y-78814275D01*
X125163692Y-78813727D01*
X124583868Y-79053305D01*
X124205730Y-79430784D01*
X123830465Y-79054864D01*
X123251061Y-78814275D01*
X122623692Y-78813727D01*
X122043868Y-79053305D01*
X121665730Y-79430784D01*
X121290465Y-79054864D01*
X120711061Y-78814275D01*
X120083692Y-78813727D01*
X119503868Y-79053305D01*
X119125730Y-79430784D01*
X118750465Y-79054864D01*
X118171061Y-78814275D01*
X117543692Y-78813727D01*
X116963868Y-79053305D01*
X116585730Y-79430784D01*
X116210465Y-79054864D01*
X115631061Y-78814275D01*
X115003692Y-78813727D01*
X114423868Y-79053305D01*
X114045730Y-79430784D01*
X113670465Y-79054864D01*
X113091061Y-78814275D01*
X112463692Y-78813727D01*
X111883868Y-79053305D01*
X111439864Y-79496535D01*
X111199275Y-80075939D01*
X111198727Y-80703308D01*
X111438305Y-81283132D01*
X111588911Y-81434001D01*
X111409154Y-81549672D01*
X111243157Y-81792615D01*
X111184758Y-82081000D01*
X99608000Y-82081000D01*
X99608000Y-71955245D01*
X99699615Y-72017843D01*
X99988000Y-72076242D01*
X101688000Y-72076242D01*
X101957410Y-72025549D01*
X102204846Y-71866328D01*
X102333433Y-71678136D01*
X102774508Y-71972853D01*
X103378000Y-72092895D01*
X103981492Y-71972853D01*
X104493107Y-71631002D01*
X104648000Y-71399189D01*
X104802893Y-71631002D01*
X105314508Y-71972853D01*
X105918000Y-72092895D01*
X106521492Y-71972853D01*
X107033107Y-71631002D01*
X107188000Y-71399189D01*
X107342893Y-71631002D01*
X107854508Y-71972853D01*
X108458000Y-72092895D01*
X109061492Y-71972853D01*
X109573107Y-71631002D01*
X109728000Y-71399189D01*
X109882893Y-71631002D01*
X110394508Y-71972853D01*
X110998000Y-72092895D01*
X111601492Y-71972853D01*
X112113107Y-71631002D01*
X112268000Y-71399189D01*
X112422893Y-71631002D01*
X112934508Y-71972853D01*
X113538000Y-72092895D01*
X114141492Y-71972853D01*
X114653107Y-71631002D01*
X114808000Y-71399189D01*
X114962893Y-71631002D01*
X115474508Y-71972853D01*
X116078000Y-72092895D01*
X116681492Y-71972853D01*
X117193107Y-71631002D01*
X117348000Y-71399189D01*
X117502893Y-71631002D01*
X118014508Y-71972853D01*
X118618000Y-72092895D01*
X119221492Y-71972853D01*
X119733107Y-71631002D01*
X119888000Y-71399189D01*
X120042893Y-71631002D01*
X120554508Y-71972853D01*
X121158000Y-72092895D01*
X121761492Y-71972853D01*
X122273107Y-71631002D01*
X122428000Y-71399189D01*
X122582893Y-71631002D01*
X123094508Y-71972853D01*
X123698000Y-72092895D01*
X124301492Y-71972853D01*
X124813107Y-71631002D01*
X124968000Y-71399189D01*
X125122893Y-71631002D01*
X125634508Y-71972853D01*
X126238000Y-72092895D01*
X126841492Y-71972853D01*
X127353107Y-71631002D01*
X127508000Y-71399189D01*
X127662893Y-71631002D01*
X128174508Y-71972853D01*
X128778000Y-72092895D01*
X129381492Y-71972853D01*
X129893107Y-71631002D01*
X130048000Y-71399189D01*
X130202893Y-71631002D01*
X130714508Y-71972853D01*
X131318000Y-72092895D01*
X131921492Y-71972853D01*
X132433107Y-71631002D01*
X132588000Y-71399189D01*
X132742893Y-71631002D01*
X133254508Y-71972853D01*
X133858000Y-72092895D01*
X134461492Y-71972853D01*
X134973107Y-71631002D01*
X135128000Y-71399189D01*
X135282893Y-71631002D01*
X135794508Y-71972853D01*
X136398000Y-72092895D01*
X137001492Y-71972853D01*
X137513107Y-71631002D01*
X137668000Y-71399189D01*
X137822893Y-71631002D01*
X138334508Y-71972853D01*
X138938000Y-72092895D01*
X139541492Y-71972853D01*
X140053107Y-71631002D01*
X140208000Y-71399189D01*
X140362893Y-71631002D01*
X140874508Y-71972853D01*
X141478000Y-72092895D01*
X142081492Y-71972853D01*
X142593107Y-71631002D01*
X142748000Y-71399189D01*
X142902893Y-71631002D01*
X143414508Y-71972853D01*
X144018000Y-72092895D01*
X144621492Y-71972853D01*
X145133107Y-71631002D01*
X145288000Y-71399189D01*
X145442893Y-71631002D01*
X145954508Y-71972853D01*
X146558000Y-72092895D01*
X147161492Y-71972853D01*
X147673107Y-71631002D01*
X147880991Y-71319882D01*
X147902817Y-71366358D01*
X148331076Y-71756645D01*
X148741110Y-71926476D01*
X148971000Y-71805155D01*
X148971000Y-70612000D01*
X148951000Y-70612000D01*
X148951000Y-70358000D01*
X148971000Y-70358000D01*
X148971000Y-70338000D01*
X149225000Y-70338000D01*
X149225000Y-70358000D01*
X149225000Y-70358000D01*
G37*
X149225000Y-70358000D02*
X149245000Y-70358000D01*
X149245000Y-70612000D01*
X149225000Y-70612000D01*
X149225000Y-71805155D01*
X149454890Y-71926476D01*
X149864924Y-71756645D01*
X150293183Y-71366358D01*
X150328000Y-71292220D01*
X150328000Y-74803000D01*
X150343410Y-74880472D01*
X150343410Y-74959462D01*
X150449750Y-75494071D01*
X150495699Y-75605000D01*
X150569502Y-75783177D01*
X150604469Y-75835509D01*
X150534170Y-76004810D01*
X150533830Y-76393485D01*
X150611317Y-76581018D01*
X150534170Y-76766810D01*
X150533830Y-77155485D01*
X150611317Y-77343018D01*
X150534170Y-77528810D01*
X150533830Y-77917485D01*
X150611317Y-78105018D01*
X150534170Y-78290810D01*
X150533830Y-78679485D01*
X150604481Y-78850473D01*
X150569502Y-78902823D01*
X150519899Y-79022575D01*
X150449750Y-79191929D01*
X150343410Y-79726538D01*
X150343410Y-79805528D01*
X150328000Y-79883000D01*
X150328000Y-85685000D01*
X140589000Y-85685000D01*
X140511528Y-85700410D01*
X139897929Y-85806750D01*
X139608824Y-85926501D01*
X139608823Y-85926502D01*
X139556491Y-85961469D01*
X139387190Y-85891170D01*
X138998515Y-85890830D01*
X138810982Y-85968317D01*
X138625190Y-85891170D01*
X138236515Y-85890830D01*
X138048982Y-85968317D01*
X137863190Y-85891170D01*
X137474515Y-85890830D01*
X137286982Y-85968317D01*
X137101190Y-85891170D01*
X136712515Y-85890830D01*
X136541527Y-85961481D01*
X136489177Y-85926502D01*
X136369425Y-85876899D01*
X136200071Y-85806750D01*
X135665462Y-85700410D01*
X135586472Y-85700410D01*
X135509000Y-85685000D01*
X114427000Y-85685000D01*
X114349528Y-85700410D01*
X113735929Y-85806750D01*
X113446824Y-85926501D01*
X113446823Y-85926502D01*
X113394491Y-85961469D01*
X113225190Y-85891170D01*
X112836515Y-85890830D01*
X112648982Y-85968317D01*
X112463190Y-85891170D01*
X112074515Y-85890830D01*
X111886982Y-85968317D01*
X111701190Y-85891170D01*
X111312515Y-85890830D01*
X111124982Y-85968317D01*
X110939190Y-85891170D01*
X110550515Y-85890830D01*
X110379527Y-85961481D01*
X110327177Y-85926502D01*
X110207425Y-85876899D01*
X110038071Y-85806750D01*
X109503462Y-85700410D01*
X109424472Y-85700410D01*
X109347000Y-85685000D01*
X99608000Y-85685000D01*
X99608000Y-82081000D01*
X111184758Y-82081000D01*
X111184758Y-83781000D01*
X111235451Y-84050410D01*
X111394672Y-84297846D01*
X111637615Y-84463843D01*
X111926000Y-84522242D01*
X113626000Y-84522242D01*
X113895410Y-84471549D01*
X114142846Y-84312328D01*
X114274420Y-84119764D01*
X114421535Y-84267136D01*
X115000939Y-84507725D01*
X115628308Y-84508273D01*
X116208132Y-84268695D01*
X116586270Y-83891216D01*
X116961535Y-84267136D01*
X117540939Y-84507725D01*
X118168308Y-84508273D01*
X118748132Y-84268695D01*
X119126270Y-83891216D01*
X119501535Y-84267136D01*
X120080939Y-84507725D01*
X120708308Y-84508273D01*
X121288132Y-84268695D01*
X121666270Y-83891216D01*
X122041535Y-84267136D01*
X122620939Y-84507725D01*
X123248308Y-84508273D01*
X123828132Y-84268695D01*
X124206270Y-83891216D01*
X124581535Y-84267136D01*
X125160939Y-84507725D01*
X125788308Y-84508273D01*
X126368132Y-84268695D01*
X126746270Y-83891216D01*
X127121535Y-84267136D01*
X127700939Y-84507725D01*
X128328308Y-84508273D01*
X128908132Y-84268695D01*
X129286270Y-83891216D01*
X129661535Y-84267136D01*
X130240939Y-84507725D01*
X130868308Y-84508273D01*
X131448132Y-84268695D01*
X131826270Y-83891216D01*
X132201535Y-84267136D01*
X132780939Y-84507725D01*
X133408308Y-84508273D01*
X133988132Y-84268695D01*
X134366270Y-83891216D01*
X134741535Y-84267136D01*
X135320939Y-84507725D01*
X135948308Y-84508273D01*
X136528132Y-84268695D01*
X136972136Y-83825465D01*
X137212725Y-83246061D01*
X137213273Y-82618692D01*
X136973695Y-82038868D01*
X136530465Y-81594864D01*
X136458782Y-81565099D01*
X136500353Y-81434958D01*
X135636000Y-80570605D01*
X134771647Y-81434958D01*
X134813091Y-81564703D01*
X134743868Y-81593305D01*
X134365730Y-81970784D01*
X134056216Y-81660730D01*
X134432136Y-81285465D01*
X134461901Y-81213782D01*
X134592042Y-81255353D01*
X135456395Y-80391000D01*
X135815605Y-80391000D01*
X136679958Y-81255353D01*
X136931259Y-81175080D01*
X137132718Y-80619721D01*
X137106315Y-80029542D01*
X136931259Y-79606920D01*
X136679958Y-79526647D01*
X135815605Y-80391000D01*
X135456395Y-80391000D01*
X134592042Y-79526647D01*
X134462297Y-79568091D01*
X134433695Y-79498868D01*
X134282134Y-79347042D01*
X134771647Y-79347042D01*
X135636000Y-80211395D01*
X136500353Y-79347042D01*
X136420080Y-79095741D01*
X135864721Y-78894282D01*
X135274542Y-78920685D01*
X134851920Y-79095741D01*
X134771647Y-79347042D01*
X134282134Y-79347042D01*
X133990465Y-79054864D01*
X133411061Y-78814275D01*
X132783692Y-78813727D01*
X132203868Y-79053305D01*
X131825730Y-79430784D01*
X131450465Y-79054864D01*
X130871061Y-78814275D01*
X130243692Y-78813727D01*
X129663868Y-79053305D01*
X129285730Y-79430784D01*
X128910465Y-79054864D01*
X128331061Y-78814275D01*
X127703692Y-78813727D01*
X127123868Y-79053305D01*
X126745730Y-79430784D01*
X126370465Y-79054864D01*
X125791061Y-78814275D01*
X125163692Y-78813727D01*
X124583868Y-79053305D01*
X124205730Y-79430784D01*
X123830465Y-79054864D01*
X123251061Y-78814275D01*
X122623692Y-78813727D01*
X122043868Y-79053305D01*
X121665730Y-79430784D01*
X121290465Y-79054864D01*
X120711061Y-78814275D01*
X120083692Y-78813727D01*
X119503868Y-79053305D01*
X119125730Y-79430784D01*
X118750465Y-79054864D01*
X118171061Y-78814275D01*
X117543692Y-78813727D01*
X116963868Y-79053305D01*
X116585730Y-79430784D01*
X116210465Y-79054864D01*
X115631061Y-78814275D01*
X115003692Y-78813727D01*
X114423868Y-79053305D01*
X114045730Y-79430784D01*
X113670465Y-79054864D01*
X113091061Y-78814275D01*
X112463692Y-78813727D01*
X111883868Y-79053305D01*
X111439864Y-79496535D01*
X111199275Y-80075939D01*
X111198727Y-80703308D01*
X111438305Y-81283132D01*
X111588911Y-81434001D01*
X111409154Y-81549672D01*
X111243157Y-81792615D01*
X111184758Y-82081000D01*
X99608000Y-82081000D01*
X99608000Y-71955245D01*
X99699615Y-72017843D01*
X99988000Y-72076242D01*
X101688000Y-72076242D01*
X101957410Y-72025549D01*
X102204846Y-71866328D01*
X102333433Y-71678136D01*
X102774508Y-71972853D01*
X103378000Y-72092895D01*
X103981492Y-71972853D01*
X104493107Y-71631002D01*
X104648000Y-71399189D01*
X104802893Y-71631002D01*
X105314508Y-71972853D01*
X105918000Y-72092895D01*
X106521492Y-71972853D01*
X107033107Y-71631002D01*
X107188000Y-71399189D01*
X107342893Y-71631002D01*
X107854508Y-71972853D01*
X108458000Y-72092895D01*
X109061492Y-71972853D01*
X109573107Y-71631002D01*
X109728000Y-71399189D01*
X109882893Y-71631002D01*
X110394508Y-71972853D01*
X110998000Y-72092895D01*
X111601492Y-71972853D01*
X112113107Y-71631002D01*
X112268000Y-71399189D01*
X112422893Y-71631002D01*
X112934508Y-71972853D01*
X113538000Y-72092895D01*
X114141492Y-71972853D01*
X114653107Y-71631002D01*
X114808000Y-71399189D01*
X114962893Y-71631002D01*
X115474508Y-71972853D01*
X116078000Y-72092895D01*
X116681492Y-71972853D01*
X117193107Y-71631002D01*
X117348000Y-71399189D01*
X117502893Y-71631002D01*
X118014508Y-71972853D01*
X118618000Y-72092895D01*
X119221492Y-71972853D01*
X119733107Y-71631002D01*
X119888000Y-71399189D01*
X120042893Y-71631002D01*
X120554508Y-71972853D01*
X121158000Y-72092895D01*
X121761492Y-71972853D01*
X122273107Y-71631002D01*
X122428000Y-71399189D01*
X122582893Y-71631002D01*
X123094508Y-71972853D01*
X123698000Y-72092895D01*
X124301492Y-71972853D01*
X124813107Y-71631002D01*
X124968000Y-71399189D01*
X125122893Y-71631002D01*
X125634508Y-71972853D01*
X126238000Y-72092895D01*
X126841492Y-71972853D01*
X127353107Y-71631002D01*
X127508000Y-71399189D01*
X127662893Y-71631002D01*
X128174508Y-71972853D01*
X128778000Y-72092895D01*
X129381492Y-71972853D01*
X129893107Y-71631002D01*
X130048000Y-71399189D01*
X130202893Y-71631002D01*
X130714508Y-71972853D01*
X131318000Y-72092895D01*
X131921492Y-71972853D01*
X132433107Y-71631002D01*
X132588000Y-71399189D01*
X132742893Y-71631002D01*
X133254508Y-71972853D01*
X133858000Y-72092895D01*
X134461492Y-71972853D01*
X134973107Y-71631002D01*
X135128000Y-71399189D01*
X135282893Y-71631002D01*
X135794508Y-71972853D01*
X136398000Y-72092895D01*
X137001492Y-71972853D01*
X137513107Y-71631002D01*
X137668000Y-71399189D01*
X137822893Y-71631002D01*
X138334508Y-71972853D01*
X138938000Y-72092895D01*
X139541492Y-71972853D01*
X140053107Y-71631002D01*
X140208000Y-71399189D01*
X140362893Y-71631002D01*
X140874508Y-71972853D01*
X141478000Y-72092895D01*
X142081492Y-71972853D01*
X142593107Y-71631002D01*
X142748000Y-71399189D01*
X142902893Y-71631002D01*
X143414508Y-71972853D01*
X144018000Y-72092895D01*
X144621492Y-71972853D01*
X145133107Y-71631002D01*
X145288000Y-71399189D01*
X145442893Y-71631002D01*
X145954508Y-71972853D01*
X146558000Y-72092895D01*
X147161492Y-71972853D01*
X147673107Y-71631002D01*
X147880991Y-71319882D01*
X147902817Y-71366358D01*
X148331076Y-71756645D01*
X148741110Y-71926476D01*
X148971000Y-71805155D01*
X148971000Y-70612000D01*
X148951000Y-70612000D01*
X148951000Y-70358000D01*
X148971000Y-70358000D01*
X148971000Y-70338000D01*
X149225000Y-70338000D01*
X149225000Y-70358000D01*
G36*
X178943000Y-70358000D02*
X178963000Y-70358000D01*
X178963000Y-70612000D01*
X178943000Y-70612000D01*
X178943000Y-71805155D01*
X179172890Y-71926476D01*
X179582924Y-71756645D01*
X180011183Y-71366358D01*
X180046000Y-71292220D01*
X180046000Y-85685000D01*
X169926000Y-85685000D01*
X169848528Y-85700410D01*
X169234929Y-85806750D01*
X168945824Y-85926501D01*
X168945823Y-85926502D01*
X168893491Y-85961469D01*
X168724190Y-85891170D01*
X168335515Y-85890830D01*
X168147982Y-85968317D01*
X167962190Y-85891170D01*
X167573515Y-85890830D01*
X167385982Y-85968317D01*
X167200190Y-85891170D01*
X166811515Y-85890830D01*
X166623982Y-85968317D01*
X166438190Y-85891170D01*
X166049515Y-85890830D01*
X165878527Y-85961481D01*
X165826177Y-85926502D01*
X165706425Y-85876899D01*
X165537071Y-85806750D01*
X165002462Y-85700410D01*
X164923472Y-85700410D01*
X164846000Y-85685000D01*
X154726000Y-85685000D01*
X154726000Y-82081000D01*
X161222758Y-82081000D01*
X161222758Y-83781000D01*
X161273451Y-84050410D01*
X161432672Y-84297846D01*
X161675615Y-84463843D01*
X161964000Y-84522242D01*
X163664000Y-84522242D01*
X163933410Y-84471549D01*
X164180846Y-84312328D01*
X164312420Y-84119764D01*
X164459535Y-84267136D01*
X165038939Y-84507725D01*
X165666308Y-84508273D01*
X166246132Y-84268695D01*
X166624270Y-83891216D01*
X166999535Y-84267136D01*
X167578939Y-84507725D01*
X168206308Y-84508273D01*
X168786132Y-84268695D01*
X169164270Y-83891216D01*
X169539535Y-84267136D01*
X170118939Y-84507725D01*
X170746308Y-84508273D01*
X171326132Y-84268695D01*
X171704270Y-83891216D01*
X172079535Y-84267136D01*
X172658939Y-84507725D01*
X173286308Y-84508273D01*
X173866132Y-84268695D01*
X174310136Y-83825465D01*
X174550725Y-83246061D01*
X174551273Y-82618692D01*
X174311695Y-82038868D01*
X173868465Y-81594864D01*
X173796782Y-81565099D01*
X173838353Y-81434958D01*
X172974000Y-80570605D01*
X172109647Y-81434958D01*
X172151091Y-81564703D01*
X172081868Y-81593305D01*
X171703730Y-81970784D01*
X171394216Y-81660730D01*
X171770136Y-81285465D01*
X171799901Y-81213782D01*
X171930042Y-81255353D01*
X172794395Y-80391000D01*
X173153605Y-80391000D01*
X174017958Y-81255353D01*
X174269259Y-81175080D01*
X174470718Y-80619721D01*
X174444315Y-80029542D01*
X174269259Y-79606920D01*
X174017958Y-79526647D01*
X173153605Y-80391000D01*
X172794395Y-80391000D01*
X171930042Y-79526647D01*
X171800297Y-79568091D01*
X171771695Y-79498868D01*
X171620134Y-79347042D01*
X172109647Y-79347042D01*
X172974000Y-80211395D01*
X173838353Y-79347042D01*
X173758080Y-79095741D01*
X173202721Y-78894282D01*
X172612542Y-78920685D01*
X172189920Y-79095741D01*
X172109647Y-79347042D01*
X171620134Y-79347042D01*
X171328465Y-79054864D01*
X170749061Y-78814275D01*
X170121692Y-78813727D01*
X169541868Y-79053305D01*
X169163730Y-79430784D01*
X168788465Y-79054864D01*
X168209061Y-78814275D01*
X167581692Y-78813727D01*
X167001868Y-79053305D01*
X166623730Y-79430784D01*
X166248465Y-79054864D01*
X165669061Y-78814275D01*
X165041692Y-78813727D01*
X164461868Y-79053305D01*
X164083730Y-79430784D01*
X163708465Y-79054864D01*
X163129061Y-78814275D01*
X162501692Y-78813727D01*
X161921868Y-79053305D01*
X161477864Y-79496535D01*
X161237275Y-80075939D01*
X161236727Y-80703308D01*
X161476305Y-81283132D01*
X161626911Y-81434001D01*
X161447154Y-81549672D01*
X161281157Y-81792615D01*
X161222758Y-82081000D01*
X154726000Y-82081000D01*
X154726000Y-79883000D01*
X154710590Y-79805528D01*
X154710590Y-79726538D01*
X154604250Y-79191929D01*
X154484499Y-78902824D01*
X154484498Y-78902823D01*
X154449531Y-78850491D01*
X154519830Y-78681190D01*
X154520170Y-78292515D01*
X154442683Y-78104982D01*
X154519830Y-77919190D01*
X154520170Y-77530515D01*
X154442683Y-77342982D01*
X154519830Y-77157190D01*
X154520170Y-76768515D01*
X154442683Y-76580982D01*
X154519830Y-76395190D01*
X154520170Y-76006515D01*
X154449519Y-75835527D01*
X154484498Y-75783177D01*
X154484499Y-75783176D01*
X154604250Y-75494071D01*
X154710590Y-74959462D01*
X154710590Y-74880472D01*
X154726000Y-74803000D01*
X154726000Y-71955245D01*
X154817615Y-72017843D01*
X155106000Y-72076242D01*
X156806000Y-72076242D01*
X157075410Y-72025549D01*
X157322846Y-71866328D01*
X157451433Y-71678136D01*
X157892508Y-71972853D01*
X158496000Y-72092895D01*
X159099492Y-71972853D01*
X159611107Y-71631002D01*
X159766000Y-71399189D01*
X159920893Y-71631002D01*
X160432508Y-71972853D01*
X161036000Y-72092895D01*
X161639492Y-71972853D01*
X162151107Y-71631002D01*
X162306000Y-71399189D01*
X162460893Y-71631002D01*
X162972508Y-71972853D01*
X163576000Y-72092895D01*
X164179492Y-71972853D01*
X164691107Y-71631002D01*
X164846000Y-71399189D01*
X165000893Y-71631002D01*
X165512508Y-71972853D01*
X166116000Y-72092895D01*
X166719492Y-71972853D01*
X167231107Y-71631002D01*
X167386000Y-71399189D01*
X167540893Y-71631002D01*
X168052508Y-71972853D01*
X168656000Y-72092895D01*
X169259492Y-71972853D01*
X169771107Y-71631002D01*
X169926000Y-71399189D01*
X170080893Y-71631002D01*
X170592508Y-71972853D01*
X171196000Y-72092895D01*
X171799492Y-71972853D01*
X172311107Y-71631002D01*
X172466000Y-71399189D01*
X172620893Y-71631002D01*
X173132508Y-71972853D01*
X173736000Y-72092895D01*
X174339492Y-71972853D01*
X174851107Y-71631002D01*
X175006000Y-71399189D01*
X175160893Y-71631002D01*
X175672508Y-71972853D01*
X176276000Y-72092895D01*
X176879492Y-71972853D01*
X177391107Y-71631002D01*
X177598991Y-71319882D01*
X177620817Y-71366358D01*
X178049076Y-71756645D01*
X178459110Y-71926476D01*
X178689000Y-71805155D01*
X178689000Y-70612000D01*
X178669000Y-70612000D01*
X178669000Y-70358000D01*
X178689000Y-70358000D01*
X178689000Y-70338000D01*
X178943000Y-70338000D01*
X178943000Y-70358000D01*
X178943000Y-70358000D01*
G37*
X178943000Y-70358000D02*
X178963000Y-70358000D01*
X178963000Y-70612000D01*
X178943000Y-70612000D01*
X178943000Y-71805155D01*
X179172890Y-71926476D01*
X179582924Y-71756645D01*
X180011183Y-71366358D01*
X180046000Y-71292220D01*
X180046000Y-85685000D01*
X169926000Y-85685000D01*
X169848528Y-85700410D01*
X169234929Y-85806750D01*
X168945824Y-85926501D01*
X168945823Y-85926502D01*
X168893491Y-85961469D01*
X168724190Y-85891170D01*
X168335515Y-85890830D01*
X168147982Y-85968317D01*
X167962190Y-85891170D01*
X167573515Y-85890830D01*
X167385982Y-85968317D01*
X167200190Y-85891170D01*
X166811515Y-85890830D01*
X166623982Y-85968317D01*
X166438190Y-85891170D01*
X166049515Y-85890830D01*
X165878527Y-85961481D01*
X165826177Y-85926502D01*
X165706425Y-85876899D01*
X165537071Y-85806750D01*
X165002462Y-85700410D01*
X164923472Y-85700410D01*
X164846000Y-85685000D01*
X154726000Y-85685000D01*
X154726000Y-82081000D01*
X161222758Y-82081000D01*
X161222758Y-83781000D01*
X161273451Y-84050410D01*
X161432672Y-84297846D01*
X161675615Y-84463843D01*
X161964000Y-84522242D01*
X163664000Y-84522242D01*
X163933410Y-84471549D01*
X164180846Y-84312328D01*
X164312420Y-84119764D01*
X164459535Y-84267136D01*
X165038939Y-84507725D01*
X165666308Y-84508273D01*
X166246132Y-84268695D01*
X166624270Y-83891216D01*
X166999535Y-84267136D01*
X167578939Y-84507725D01*
X168206308Y-84508273D01*
X168786132Y-84268695D01*
X169164270Y-83891216D01*
X169539535Y-84267136D01*
X170118939Y-84507725D01*
X170746308Y-84508273D01*
X171326132Y-84268695D01*
X171704270Y-83891216D01*
X172079535Y-84267136D01*
X172658939Y-84507725D01*
X173286308Y-84508273D01*
X173866132Y-84268695D01*
X174310136Y-83825465D01*
X174550725Y-83246061D01*
X174551273Y-82618692D01*
X174311695Y-82038868D01*
X173868465Y-81594864D01*
X173796782Y-81565099D01*
X173838353Y-81434958D01*
X172974000Y-80570605D01*
X172109647Y-81434958D01*
X172151091Y-81564703D01*
X172081868Y-81593305D01*
X171703730Y-81970784D01*
X171394216Y-81660730D01*
X171770136Y-81285465D01*
X171799901Y-81213782D01*
X171930042Y-81255353D01*
X172794395Y-80391000D01*
X173153605Y-80391000D01*
X174017958Y-81255353D01*
X174269259Y-81175080D01*
X174470718Y-80619721D01*
X174444315Y-80029542D01*
X174269259Y-79606920D01*
X174017958Y-79526647D01*
X173153605Y-80391000D01*
X172794395Y-80391000D01*
X171930042Y-79526647D01*
X171800297Y-79568091D01*
X171771695Y-79498868D01*
X171620134Y-79347042D01*
X172109647Y-79347042D01*
X172974000Y-80211395D01*
X173838353Y-79347042D01*
X173758080Y-79095741D01*
X173202721Y-78894282D01*
X172612542Y-78920685D01*
X172189920Y-79095741D01*
X172109647Y-79347042D01*
X171620134Y-79347042D01*
X171328465Y-79054864D01*
X170749061Y-78814275D01*
X170121692Y-78813727D01*
X169541868Y-79053305D01*
X169163730Y-79430784D01*
X168788465Y-79054864D01*
X168209061Y-78814275D01*
X167581692Y-78813727D01*
X167001868Y-79053305D01*
X166623730Y-79430784D01*
X166248465Y-79054864D01*
X165669061Y-78814275D01*
X165041692Y-78813727D01*
X164461868Y-79053305D01*
X164083730Y-79430784D01*
X163708465Y-79054864D01*
X163129061Y-78814275D01*
X162501692Y-78813727D01*
X161921868Y-79053305D01*
X161477864Y-79496535D01*
X161237275Y-80075939D01*
X161236727Y-80703308D01*
X161476305Y-81283132D01*
X161626911Y-81434001D01*
X161447154Y-81549672D01*
X161281157Y-81792615D01*
X161222758Y-82081000D01*
X154726000Y-82081000D01*
X154726000Y-79883000D01*
X154710590Y-79805528D01*
X154710590Y-79726538D01*
X154604250Y-79191929D01*
X154484499Y-78902824D01*
X154484498Y-78902823D01*
X154449531Y-78850491D01*
X154519830Y-78681190D01*
X154520170Y-78292515D01*
X154442683Y-78104982D01*
X154519830Y-77919190D01*
X154520170Y-77530515D01*
X154442683Y-77342982D01*
X154519830Y-77157190D01*
X154520170Y-76768515D01*
X154442683Y-76580982D01*
X154519830Y-76395190D01*
X154520170Y-76006515D01*
X154449519Y-75835527D01*
X154484498Y-75783177D01*
X154484499Y-75783176D01*
X154604250Y-75494071D01*
X154710590Y-74959462D01*
X154710590Y-74880472D01*
X154726000Y-74803000D01*
X154726000Y-71955245D01*
X154817615Y-72017843D01*
X155106000Y-72076242D01*
X156806000Y-72076242D01*
X157075410Y-72025549D01*
X157322846Y-71866328D01*
X157451433Y-71678136D01*
X157892508Y-71972853D01*
X158496000Y-72092895D01*
X159099492Y-71972853D01*
X159611107Y-71631002D01*
X159766000Y-71399189D01*
X159920893Y-71631002D01*
X160432508Y-71972853D01*
X161036000Y-72092895D01*
X161639492Y-71972853D01*
X162151107Y-71631002D01*
X162306000Y-71399189D01*
X162460893Y-71631002D01*
X162972508Y-71972853D01*
X163576000Y-72092895D01*
X164179492Y-71972853D01*
X164691107Y-71631002D01*
X164846000Y-71399189D01*
X165000893Y-71631002D01*
X165512508Y-71972853D01*
X166116000Y-72092895D01*
X166719492Y-71972853D01*
X167231107Y-71631002D01*
X167386000Y-71399189D01*
X167540893Y-71631002D01*
X168052508Y-71972853D01*
X168656000Y-72092895D01*
X169259492Y-71972853D01*
X169771107Y-71631002D01*
X169926000Y-71399189D01*
X170080893Y-71631002D01*
X170592508Y-71972853D01*
X171196000Y-72092895D01*
X171799492Y-71972853D01*
X172311107Y-71631002D01*
X172466000Y-71399189D01*
X172620893Y-71631002D01*
X173132508Y-71972853D01*
X173736000Y-72092895D01*
X174339492Y-71972853D01*
X174851107Y-71631002D01*
X175006000Y-71399189D01*
X175160893Y-71631002D01*
X175672508Y-71972853D01*
X176276000Y-72092895D01*
X176879492Y-71972853D01*
X177391107Y-71631002D01*
X177598991Y-71319882D01*
X177620817Y-71366358D01*
X178049076Y-71756645D01*
X178459110Y-71926476D01*
X178689000Y-71805155D01*
X178689000Y-70612000D01*
X178669000Y-70612000D01*
X178669000Y-70358000D01*
X178689000Y-70358000D01*
X178689000Y-70338000D01*
X178943000Y-70338000D01*
X178943000Y-70358000D01*
G36*
X139065000Y-49530000D02*
X139085000Y-49530000D01*
X139085000Y-49784000D01*
X139065000Y-49784000D01*
X139065000Y-50977155D01*
X139294890Y-51098476D01*
X139704924Y-50928645D01*
X140133183Y-50538358D01*
X140168000Y-50464220D01*
X140168000Y-64857000D01*
X132969000Y-64857000D01*
X132891528Y-64872410D01*
X132277929Y-64978750D01*
X131988824Y-65098501D01*
X131988823Y-65098502D01*
X131936491Y-65133469D01*
X131767190Y-65063170D01*
X131378515Y-65062830D01*
X131190982Y-65140317D01*
X131005190Y-65063170D01*
X130616515Y-65062830D01*
X130428982Y-65140317D01*
X130243190Y-65063170D01*
X129854515Y-65062830D01*
X129666982Y-65140317D01*
X129481190Y-65063170D01*
X129092515Y-65062830D01*
X128921527Y-65133481D01*
X128869177Y-65098502D01*
X128749425Y-65048899D01*
X128580071Y-64978750D01*
X128045462Y-64872410D01*
X127966472Y-64872410D01*
X127889000Y-64857000D01*
X111887000Y-64857000D01*
X111809528Y-64872410D01*
X111195929Y-64978750D01*
X110906824Y-65098501D01*
X110906823Y-65098502D01*
X110854491Y-65133469D01*
X110685190Y-65063170D01*
X110296515Y-65062830D01*
X110108982Y-65140317D01*
X109923190Y-65063170D01*
X109534515Y-65062830D01*
X109346982Y-65140317D01*
X109161190Y-65063170D01*
X108772515Y-65062830D01*
X108584982Y-65140317D01*
X108399190Y-65063170D01*
X108010515Y-65062830D01*
X107839527Y-65133481D01*
X107787177Y-65098502D01*
X107667425Y-65048899D01*
X107498071Y-64978750D01*
X106963462Y-64872410D01*
X106884472Y-64872410D01*
X106807000Y-64857000D01*
X99608000Y-64857000D01*
X99608000Y-61253000D01*
X109660758Y-61253000D01*
X109660758Y-62953000D01*
X109711451Y-63222410D01*
X109870672Y-63469846D01*
X110113615Y-63635843D01*
X110402000Y-63694242D01*
X112102000Y-63694242D01*
X112371410Y-63643549D01*
X112618846Y-63484328D01*
X112750420Y-63291764D01*
X112897535Y-63439136D01*
X113476939Y-63679725D01*
X114104308Y-63680273D01*
X114684132Y-63440695D01*
X115062270Y-63063216D01*
X115437535Y-63439136D01*
X116016939Y-63679725D01*
X116644308Y-63680273D01*
X117224132Y-63440695D01*
X117602270Y-63063216D01*
X117977535Y-63439136D01*
X118556939Y-63679725D01*
X119184308Y-63680273D01*
X119764132Y-63440695D01*
X120142270Y-63063216D01*
X120517535Y-63439136D01*
X121096939Y-63679725D01*
X121724308Y-63680273D01*
X122304132Y-63440695D01*
X122682270Y-63063216D01*
X123057535Y-63439136D01*
X123636939Y-63679725D01*
X124264308Y-63680273D01*
X124844132Y-63440695D01*
X125222270Y-63063216D01*
X125597535Y-63439136D01*
X126176939Y-63679725D01*
X126804308Y-63680273D01*
X127384132Y-63440695D01*
X127762270Y-63063216D01*
X128137535Y-63439136D01*
X128716939Y-63679725D01*
X129344308Y-63680273D01*
X129924132Y-63440695D01*
X130368136Y-62997465D01*
X130608725Y-62418061D01*
X130609273Y-61790692D01*
X130369695Y-61210868D01*
X129926465Y-60766864D01*
X129854782Y-60737099D01*
X129896353Y-60606958D01*
X129032000Y-59742605D01*
X128167647Y-60606958D01*
X128209091Y-60736703D01*
X128139868Y-60765305D01*
X127761730Y-61142784D01*
X127452216Y-60832730D01*
X127828136Y-60457465D01*
X127857901Y-60385782D01*
X127988042Y-60427353D01*
X128852395Y-59563000D01*
X129211605Y-59563000D01*
X130075958Y-60427353D01*
X130327259Y-60347080D01*
X130528718Y-59791721D01*
X130502315Y-59201542D01*
X130327259Y-58778920D01*
X130075958Y-58698647D01*
X129211605Y-59563000D01*
X128852395Y-59563000D01*
X127988042Y-58698647D01*
X127858297Y-58740091D01*
X127829695Y-58670868D01*
X127678134Y-58519042D01*
X128167647Y-58519042D01*
X129032000Y-59383395D01*
X129896353Y-58519042D01*
X129816080Y-58267741D01*
X129260721Y-58066282D01*
X128670542Y-58092685D01*
X128247920Y-58267741D01*
X128167647Y-58519042D01*
X127678134Y-58519042D01*
X127386465Y-58226864D01*
X126807061Y-57986275D01*
X126179692Y-57985727D01*
X125599868Y-58225305D01*
X125221730Y-58602784D01*
X124846465Y-58226864D01*
X124267061Y-57986275D01*
X123639692Y-57985727D01*
X123059868Y-58225305D01*
X122681730Y-58602784D01*
X122306465Y-58226864D01*
X121727061Y-57986275D01*
X121099692Y-57985727D01*
X120519868Y-58225305D01*
X120141730Y-58602784D01*
X119766465Y-58226864D01*
X119187061Y-57986275D01*
X118559692Y-57985727D01*
X117979868Y-58225305D01*
X117601730Y-58602784D01*
X117226465Y-58226864D01*
X116647061Y-57986275D01*
X116019692Y-57985727D01*
X115439868Y-58225305D01*
X115061730Y-58602784D01*
X114686465Y-58226864D01*
X114107061Y-57986275D01*
X113479692Y-57985727D01*
X112899868Y-58225305D01*
X112521730Y-58602784D01*
X112146465Y-58226864D01*
X111567061Y-57986275D01*
X110939692Y-57985727D01*
X110359868Y-58225305D01*
X109915864Y-58668535D01*
X109675275Y-59247939D01*
X109674727Y-59875308D01*
X109914305Y-60455132D01*
X110064911Y-60606001D01*
X109885154Y-60721672D01*
X109719157Y-60964615D01*
X109660758Y-61253000D01*
X99608000Y-61253000D01*
X99608000Y-51127245D01*
X99699615Y-51189843D01*
X99988000Y-51248242D01*
X101688000Y-51248242D01*
X101957410Y-51197549D01*
X102204846Y-51038328D01*
X102333433Y-50850136D01*
X102774508Y-51144853D01*
X103378000Y-51264895D01*
X103981492Y-51144853D01*
X104493107Y-50803002D01*
X104648000Y-50571189D01*
X104802893Y-50803002D01*
X105314508Y-51144853D01*
X105918000Y-51264895D01*
X106521492Y-51144853D01*
X107033107Y-50803002D01*
X107188000Y-50571189D01*
X107342893Y-50803002D01*
X107854508Y-51144853D01*
X108458000Y-51264895D01*
X109061492Y-51144853D01*
X109573107Y-50803002D01*
X109728000Y-50571189D01*
X109882893Y-50803002D01*
X110394508Y-51144853D01*
X110998000Y-51264895D01*
X111601492Y-51144853D01*
X112113107Y-50803002D01*
X112268000Y-50571189D01*
X112422893Y-50803002D01*
X112934508Y-51144853D01*
X113538000Y-51264895D01*
X114141492Y-51144853D01*
X114653107Y-50803002D01*
X114808000Y-50571189D01*
X114962893Y-50803002D01*
X115474508Y-51144853D01*
X116078000Y-51264895D01*
X116681492Y-51144853D01*
X117193107Y-50803002D01*
X117348000Y-50571189D01*
X117502893Y-50803002D01*
X118014508Y-51144853D01*
X118618000Y-51264895D01*
X119221492Y-51144853D01*
X119733107Y-50803002D01*
X119888000Y-50571189D01*
X120042893Y-50803002D01*
X120554508Y-51144853D01*
X121158000Y-51264895D01*
X121761492Y-51144853D01*
X122273107Y-50803002D01*
X122428000Y-50571189D01*
X122582893Y-50803002D01*
X123094508Y-51144853D01*
X123698000Y-51264895D01*
X124301492Y-51144853D01*
X124813107Y-50803002D01*
X124968000Y-50571189D01*
X125122893Y-50803002D01*
X125634508Y-51144853D01*
X126238000Y-51264895D01*
X126841492Y-51144853D01*
X127353107Y-50803002D01*
X127508000Y-50571189D01*
X127662893Y-50803002D01*
X128174508Y-51144853D01*
X128778000Y-51264895D01*
X129381492Y-51144853D01*
X129893107Y-50803002D01*
X130048000Y-50571189D01*
X130202893Y-50803002D01*
X130714508Y-51144853D01*
X131318000Y-51264895D01*
X131921492Y-51144853D01*
X132433107Y-50803002D01*
X132588000Y-50571189D01*
X132742893Y-50803002D01*
X133254508Y-51144853D01*
X133858000Y-51264895D01*
X134461492Y-51144853D01*
X134973107Y-50803002D01*
X135128000Y-50571189D01*
X135282893Y-50803002D01*
X135794508Y-51144853D01*
X136398000Y-51264895D01*
X137001492Y-51144853D01*
X137513107Y-50803002D01*
X137720991Y-50491882D01*
X137742817Y-50538358D01*
X138171076Y-50928645D01*
X138581110Y-51098476D01*
X138811000Y-50977155D01*
X138811000Y-49784000D01*
X138791000Y-49784000D01*
X138791000Y-49530000D01*
X138811000Y-49530000D01*
X138811000Y-49510000D01*
X139065000Y-49510000D01*
X139065000Y-49530000D01*
X139065000Y-49530000D01*
G37*
X139065000Y-49530000D02*
X139085000Y-49530000D01*
X139085000Y-49784000D01*
X139065000Y-49784000D01*
X139065000Y-50977155D01*
X139294890Y-51098476D01*
X139704924Y-50928645D01*
X140133183Y-50538358D01*
X140168000Y-50464220D01*
X140168000Y-64857000D01*
X132969000Y-64857000D01*
X132891528Y-64872410D01*
X132277929Y-64978750D01*
X131988824Y-65098501D01*
X131988823Y-65098502D01*
X131936491Y-65133469D01*
X131767190Y-65063170D01*
X131378515Y-65062830D01*
X131190982Y-65140317D01*
X131005190Y-65063170D01*
X130616515Y-65062830D01*
X130428982Y-65140317D01*
X130243190Y-65063170D01*
X129854515Y-65062830D01*
X129666982Y-65140317D01*
X129481190Y-65063170D01*
X129092515Y-65062830D01*
X128921527Y-65133481D01*
X128869177Y-65098502D01*
X128749425Y-65048899D01*
X128580071Y-64978750D01*
X128045462Y-64872410D01*
X127966472Y-64872410D01*
X127889000Y-64857000D01*
X111887000Y-64857000D01*
X111809528Y-64872410D01*
X111195929Y-64978750D01*
X110906824Y-65098501D01*
X110906823Y-65098502D01*
X110854491Y-65133469D01*
X110685190Y-65063170D01*
X110296515Y-65062830D01*
X110108982Y-65140317D01*
X109923190Y-65063170D01*
X109534515Y-65062830D01*
X109346982Y-65140317D01*
X109161190Y-65063170D01*
X108772515Y-65062830D01*
X108584982Y-65140317D01*
X108399190Y-65063170D01*
X108010515Y-65062830D01*
X107839527Y-65133481D01*
X107787177Y-65098502D01*
X107667425Y-65048899D01*
X107498071Y-64978750D01*
X106963462Y-64872410D01*
X106884472Y-64872410D01*
X106807000Y-64857000D01*
X99608000Y-64857000D01*
X99608000Y-61253000D01*
X109660758Y-61253000D01*
X109660758Y-62953000D01*
X109711451Y-63222410D01*
X109870672Y-63469846D01*
X110113615Y-63635843D01*
X110402000Y-63694242D01*
X112102000Y-63694242D01*
X112371410Y-63643549D01*
X112618846Y-63484328D01*
X112750420Y-63291764D01*
X112897535Y-63439136D01*
X113476939Y-63679725D01*
X114104308Y-63680273D01*
X114684132Y-63440695D01*
X115062270Y-63063216D01*
X115437535Y-63439136D01*
X116016939Y-63679725D01*
X116644308Y-63680273D01*
X117224132Y-63440695D01*
X117602270Y-63063216D01*
X117977535Y-63439136D01*
X118556939Y-63679725D01*
X119184308Y-63680273D01*
X119764132Y-63440695D01*
X120142270Y-63063216D01*
X120517535Y-63439136D01*
X121096939Y-63679725D01*
X121724308Y-63680273D01*
X122304132Y-63440695D01*
X122682270Y-63063216D01*
X123057535Y-63439136D01*
X123636939Y-63679725D01*
X124264308Y-63680273D01*
X124844132Y-63440695D01*
X125222270Y-63063216D01*
X125597535Y-63439136D01*
X126176939Y-63679725D01*
X126804308Y-63680273D01*
X127384132Y-63440695D01*
X127762270Y-63063216D01*
X128137535Y-63439136D01*
X128716939Y-63679725D01*
X129344308Y-63680273D01*
X129924132Y-63440695D01*
X130368136Y-62997465D01*
X130608725Y-62418061D01*
X130609273Y-61790692D01*
X130369695Y-61210868D01*
X129926465Y-60766864D01*
X129854782Y-60737099D01*
X129896353Y-60606958D01*
X129032000Y-59742605D01*
X128167647Y-60606958D01*
X128209091Y-60736703D01*
X128139868Y-60765305D01*
X127761730Y-61142784D01*
X127452216Y-60832730D01*
X127828136Y-60457465D01*
X127857901Y-60385782D01*
X127988042Y-60427353D01*
X128852395Y-59563000D01*
X129211605Y-59563000D01*
X130075958Y-60427353D01*
X130327259Y-60347080D01*
X130528718Y-59791721D01*
X130502315Y-59201542D01*
X130327259Y-58778920D01*
X130075958Y-58698647D01*
X129211605Y-59563000D01*
X128852395Y-59563000D01*
X127988042Y-58698647D01*
X127858297Y-58740091D01*
X127829695Y-58670868D01*
X127678134Y-58519042D01*
X128167647Y-58519042D01*
X129032000Y-59383395D01*
X129896353Y-58519042D01*
X129816080Y-58267741D01*
X129260721Y-58066282D01*
X128670542Y-58092685D01*
X128247920Y-58267741D01*
X128167647Y-58519042D01*
X127678134Y-58519042D01*
X127386465Y-58226864D01*
X126807061Y-57986275D01*
X126179692Y-57985727D01*
X125599868Y-58225305D01*
X125221730Y-58602784D01*
X124846465Y-58226864D01*
X124267061Y-57986275D01*
X123639692Y-57985727D01*
X123059868Y-58225305D01*
X122681730Y-58602784D01*
X122306465Y-58226864D01*
X121727061Y-57986275D01*
X121099692Y-57985727D01*
X120519868Y-58225305D01*
X120141730Y-58602784D01*
X119766465Y-58226864D01*
X119187061Y-57986275D01*
X118559692Y-57985727D01*
X117979868Y-58225305D01*
X117601730Y-58602784D01*
X117226465Y-58226864D01*
X116647061Y-57986275D01*
X116019692Y-57985727D01*
X115439868Y-58225305D01*
X115061730Y-58602784D01*
X114686465Y-58226864D01*
X114107061Y-57986275D01*
X113479692Y-57985727D01*
X112899868Y-58225305D01*
X112521730Y-58602784D01*
X112146465Y-58226864D01*
X111567061Y-57986275D01*
X110939692Y-57985727D01*
X110359868Y-58225305D01*
X109915864Y-58668535D01*
X109675275Y-59247939D01*
X109674727Y-59875308D01*
X109914305Y-60455132D01*
X110064911Y-60606001D01*
X109885154Y-60721672D01*
X109719157Y-60964615D01*
X109660758Y-61253000D01*
X99608000Y-61253000D01*
X99608000Y-51127245D01*
X99699615Y-51189843D01*
X99988000Y-51248242D01*
X101688000Y-51248242D01*
X101957410Y-51197549D01*
X102204846Y-51038328D01*
X102333433Y-50850136D01*
X102774508Y-51144853D01*
X103378000Y-51264895D01*
X103981492Y-51144853D01*
X104493107Y-50803002D01*
X104648000Y-50571189D01*
X104802893Y-50803002D01*
X105314508Y-51144853D01*
X105918000Y-51264895D01*
X106521492Y-51144853D01*
X107033107Y-50803002D01*
X107188000Y-50571189D01*
X107342893Y-50803002D01*
X107854508Y-51144853D01*
X108458000Y-51264895D01*
X109061492Y-51144853D01*
X109573107Y-50803002D01*
X109728000Y-50571189D01*
X109882893Y-50803002D01*
X110394508Y-51144853D01*
X110998000Y-51264895D01*
X111601492Y-51144853D01*
X112113107Y-50803002D01*
X112268000Y-50571189D01*
X112422893Y-50803002D01*
X112934508Y-51144853D01*
X113538000Y-51264895D01*
X114141492Y-51144853D01*
X114653107Y-50803002D01*
X114808000Y-50571189D01*
X114962893Y-50803002D01*
X115474508Y-51144853D01*
X116078000Y-51264895D01*
X116681492Y-51144853D01*
X117193107Y-50803002D01*
X117348000Y-50571189D01*
X117502893Y-50803002D01*
X118014508Y-51144853D01*
X118618000Y-51264895D01*
X119221492Y-51144853D01*
X119733107Y-50803002D01*
X119888000Y-50571189D01*
X120042893Y-50803002D01*
X120554508Y-51144853D01*
X121158000Y-51264895D01*
X121761492Y-51144853D01*
X122273107Y-50803002D01*
X122428000Y-50571189D01*
X122582893Y-50803002D01*
X123094508Y-51144853D01*
X123698000Y-51264895D01*
X124301492Y-51144853D01*
X124813107Y-50803002D01*
X124968000Y-50571189D01*
X125122893Y-50803002D01*
X125634508Y-51144853D01*
X126238000Y-51264895D01*
X126841492Y-51144853D01*
X127353107Y-50803002D01*
X127508000Y-50571189D01*
X127662893Y-50803002D01*
X128174508Y-51144853D01*
X128778000Y-51264895D01*
X129381492Y-51144853D01*
X129893107Y-50803002D01*
X130048000Y-50571189D01*
X130202893Y-50803002D01*
X130714508Y-51144853D01*
X131318000Y-51264895D01*
X131921492Y-51144853D01*
X132433107Y-50803002D01*
X132588000Y-50571189D01*
X132742893Y-50803002D01*
X133254508Y-51144853D01*
X133858000Y-51264895D01*
X134461492Y-51144853D01*
X134973107Y-50803002D01*
X135128000Y-50571189D01*
X135282893Y-50803002D01*
X135794508Y-51144853D01*
X136398000Y-51264895D01*
X137001492Y-51144853D01*
X137513107Y-50803002D01*
X137720991Y-50491882D01*
X137742817Y-50538358D01*
X138171076Y-50928645D01*
X138581110Y-51098476D01*
X138811000Y-50977155D01*
X138811000Y-49784000D01*
X138791000Y-49784000D01*
X138791000Y-49530000D01*
X138811000Y-49530000D01*
X138811000Y-49510000D01*
X139065000Y-49510000D01*
X139065000Y-49530000D01*
M02*
