G04 #@! TF.FileFunction,Copper,L1,Top,Signal*
%FSLAX46Y46*%
G04 Gerber Fmt 4.6, Leading zero omitted, Abs format (unit mm)*
G04 Created by KiCad (PCBNEW 4.0.7) date 05/07/18 10:18:10*
%MOMM*%
%LPD*%
G01*
G04 APERTURE LIST*
%ADD10C,0.100000*%
%ADD11R,1.000000X6.000000*%
%ADD12R,1.000000X8.000000*%
%ADD13R,1.700000X1.700000*%
%ADD14C,1.700000*%
%ADD15O,1.700000X1.700000*%
%ADD16R,2.030000X2.650000*%
%ADD17C,0.600000*%
%ADD18C,0.800000*%
%ADD19C,0.250000*%
%ADD20C,1.000000*%
%ADD21C,0.254000*%
G04 APERTURE END LIST*
D10*
D11*
X168148000Y-139462000D03*
D12*
X165608000Y-140462000D03*
X163068000Y-140462000D03*
X160528000Y-140462000D03*
X157988000Y-140462000D03*
X155448000Y-140462000D03*
X152908000Y-140462000D03*
X150368000Y-140462000D03*
X147828000Y-140462000D03*
X145288000Y-140462000D03*
X142748000Y-140462000D03*
X140208000Y-140462000D03*
X137668000Y-140462000D03*
X135128000Y-140462000D03*
X132588000Y-140462000D03*
X130048000Y-140462000D03*
X127508000Y-140462000D03*
X124968000Y-140462000D03*
X122428000Y-140462000D03*
X119888000Y-140462000D03*
X117348000Y-140462000D03*
X114808000Y-140462000D03*
D13*
X104394000Y-102616000D03*
D14*
X104394000Y-100076000D03*
X106934000Y-102616000D03*
X106934000Y-100076000D03*
X109474000Y-102616000D03*
X109474000Y-100076000D03*
X112014000Y-102616000D03*
X112014000Y-100076000D03*
X114554000Y-102616000D03*
X114554000Y-100076000D03*
X117094000Y-102616000D03*
X117094000Y-100076000D03*
X119634000Y-102616000D03*
X119634000Y-100076000D03*
X122174000Y-102616000D03*
X122174000Y-100076000D03*
D13*
X133858000Y-102616000D03*
D14*
X133858000Y-100076000D03*
X136398000Y-102616000D03*
X136398000Y-100076000D03*
X138938000Y-102616000D03*
X138938000Y-100076000D03*
X141478000Y-102616000D03*
X141478000Y-100076000D03*
X144018000Y-102616000D03*
X144018000Y-100076000D03*
X146558000Y-102616000D03*
X146558000Y-100076000D03*
X149098000Y-102616000D03*
X149098000Y-100076000D03*
X151638000Y-102616000D03*
X151638000Y-100076000D03*
X154178000Y-102616000D03*
X154178000Y-100076000D03*
X156718000Y-102616000D03*
X156718000Y-100076000D03*
D13*
X168402000Y-102616000D03*
D14*
X168402000Y-100076000D03*
X170942000Y-102616000D03*
X170942000Y-100076000D03*
X173482000Y-102616000D03*
X173482000Y-100076000D03*
X176022000Y-102616000D03*
X176022000Y-100076000D03*
X178562000Y-102616000D03*
X178562000Y-100076000D03*
D13*
X162814000Y-82931000D03*
D14*
X162814000Y-80391000D03*
X165354000Y-82931000D03*
X165354000Y-80391000D03*
X167894000Y-82931000D03*
X167894000Y-80391000D03*
X170434000Y-82931000D03*
X170434000Y-80391000D03*
X172974000Y-82931000D03*
X172974000Y-80391000D03*
D13*
X111252000Y-62103000D03*
D14*
X111252000Y-59563000D03*
X113792000Y-62103000D03*
X113792000Y-59563000D03*
X116332000Y-62103000D03*
X116332000Y-59563000D03*
X118872000Y-62103000D03*
X118872000Y-59563000D03*
X121412000Y-62103000D03*
X121412000Y-59563000D03*
X123952000Y-62103000D03*
X123952000Y-59563000D03*
X126492000Y-62103000D03*
X126492000Y-59563000D03*
X129032000Y-62103000D03*
X129032000Y-59563000D03*
D13*
X112776000Y-82931000D03*
D14*
X112776000Y-80391000D03*
X115316000Y-82931000D03*
X115316000Y-80391000D03*
X117856000Y-82931000D03*
X117856000Y-80391000D03*
X120396000Y-82931000D03*
X120396000Y-80391000D03*
X122936000Y-82931000D03*
X122936000Y-80391000D03*
X125476000Y-82931000D03*
X125476000Y-80391000D03*
X128016000Y-82931000D03*
X128016000Y-80391000D03*
X130556000Y-82931000D03*
X130556000Y-80391000D03*
X133096000Y-82931000D03*
X133096000Y-80391000D03*
X135636000Y-82931000D03*
X135636000Y-80391000D03*
D13*
X155956000Y-70485000D03*
D15*
X158496000Y-70485000D03*
X161036000Y-70485000D03*
X163576000Y-70485000D03*
X166116000Y-70485000D03*
X168656000Y-70485000D03*
X171196000Y-70485000D03*
X173736000Y-70485000D03*
X176276000Y-70485000D03*
X178816000Y-70485000D03*
D13*
X100838000Y-49657000D03*
D15*
X103378000Y-49657000D03*
X105918000Y-49657000D03*
X108458000Y-49657000D03*
X110998000Y-49657000D03*
X113538000Y-49657000D03*
X116078000Y-49657000D03*
X118618000Y-49657000D03*
X121158000Y-49657000D03*
X123698000Y-49657000D03*
X126238000Y-49657000D03*
X128778000Y-49657000D03*
X131318000Y-49657000D03*
X133858000Y-49657000D03*
X136398000Y-49657000D03*
X138938000Y-49657000D03*
D13*
X100838000Y-70485000D03*
D15*
X103378000Y-70485000D03*
X105918000Y-70485000D03*
X108458000Y-70485000D03*
X110998000Y-70485000D03*
X113538000Y-70485000D03*
X116078000Y-70485000D03*
X118618000Y-70485000D03*
X121158000Y-70485000D03*
X123698000Y-70485000D03*
X126238000Y-70485000D03*
X128778000Y-70485000D03*
X131318000Y-70485000D03*
X133858000Y-70485000D03*
X136398000Y-70485000D03*
X138938000Y-70485000D03*
X141478000Y-70485000D03*
X144018000Y-70485000D03*
X146558000Y-70485000D03*
X149098000Y-70485000D03*
D16*
X168148000Y-124656000D03*
X168148000Y-128836000D03*
X156972000Y-112326000D03*
X156972000Y-108146000D03*
D17*
X124206000Y-113030000D03*
X124206000Y-124460000D03*
X149352000Y-112268000D03*
X123444000Y-123444000D03*
X123444000Y-113792000D03*
X149352000Y-113792000D03*
X171958000Y-109728000D03*
X169672000Y-107442000D03*
X123952000Y-93218000D03*
X123952000Y-95758000D03*
X158496000Y-93218000D03*
X158496000Y-95758000D03*
D18*
X114808000Y-131572000D03*
D17*
X121666000Y-104140000D03*
X159512000Y-122174000D03*
X118364000Y-98806000D03*
X159512000Y-116332000D03*
X165862000Y-116586000D03*
X165862000Y-111506000D03*
X160528000Y-116840000D03*
X160528000Y-121158000D03*
X149352000Y-124460000D03*
X149352000Y-127000000D03*
X127508000Y-111252000D03*
X127508000Y-114046000D03*
X135382000Y-114300000D03*
X135128000Y-108966000D03*
X136398000Y-116078000D03*
X138938000Y-110236000D03*
X137668000Y-107950000D03*
X132588000Y-114046000D03*
X140208000Y-114046000D03*
X140208000Y-119888000D03*
X143764000Y-111760000D03*
X137668000Y-117348000D03*
X146558000Y-125476000D03*
X146558000Y-119126000D03*
X147828000Y-104648000D03*
X130048000Y-114046000D03*
X124968000Y-112014000D03*
X124206000Y-111760000D03*
X124206000Y-107696000D03*
X122428000Y-109474000D03*
X154178000Y-108204000D03*
D18*
X131064000Y-99314000D03*
X123190000Y-110744000D03*
X168148000Y-131572000D03*
X147828000Y-127000000D03*
D17*
X154178000Y-112268000D03*
D19*
X165862000Y-105156000D02*
X167259000Y-105156000D01*
X168402000Y-104013000D02*
X168402000Y-102616000D01*
X167259000Y-105156000D02*
X168402000Y-104013000D01*
X153416000Y-105156000D02*
X149860000Y-105156000D01*
X149352000Y-105664000D02*
X149352000Y-112268000D01*
X149860000Y-105156000D02*
X149352000Y-105664000D01*
X153416000Y-105156000D02*
X156464000Y-105156000D01*
X124206000Y-124460000D02*
X124206000Y-113030000D01*
X156464000Y-105156000D02*
X165862000Y-105156000D01*
X153924000Y-105918000D02*
X150876000Y-105918000D01*
X150114000Y-106680000D02*
X150114000Y-113030000D01*
X150876000Y-105918000D02*
X150114000Y-106680000D01*
X157226000Y-105918000D02*
X156972000Y-105918000D01*
X153924000Y-105918000D02*
X156972000Y-105918000D01*
X123444000Y-123444000D02*
X123444000Y-113792000D01*
X149352000Y-113792000D02*
X150114000Y-113030000D01*
X167640000Y-105918000D02*
X170942000Y-102616000D01*
X157226000Y-105918000D02*
X167640000Y-105918000D01*
X171958000Y-109728000D02*
X169672000Y-107442000D01*
D20*
X168148000Y-124656000D02*
X168148000Y-115824000D01*
X168148000Y-115824000D02*
X180340000Y-103632000D01*
X180340000Y-103632000D02*
X180340000Y-102616000D01*
X158496000Y-93218000D02*
X178562000Y-93218000D01*
X180340000Y-94996000D02*
X180340000Y-102616000D01*
X178562000Y-93218000D02*
X180340000Y-94996000D01*
X122174000Y-102616000D02*
X123952000Y-100838000D01*
X123952000Y-100838000D02*
X123952000Y-95758000D01*
X156718000Y-102616000D02*
X158496000Y-100838000D01*
X158496000Y-100838000D02*
X158496000Y-95758000D01*
X178562000Y-102616000D02*
X180340000Y-102616000D01*
X158496000Y-93218000D02*
X123952000Y-93218000D01*
D19*
X156718000Y-102616000D02*
X156972000Y-102616000D01*
D20*
X114808000Y-131572000D02*
X114808000Y-106934000D01*
X102616000Y-96266000D02*
X104394000Y-94488000D01*
X102616000Y-103632000D02*
X102616000Y-96266000D01*
X103378000Y-104394000D02*
X102616000Y-103632000D01*
X112268000Y-104394000D02*
X103378000Y-104394000D01*
X114808000Y-106934000D02*
X112268000Y-104394000D01*
X178562000Y-95758000D02*
X178562000Y-95688002D01*
X178562000Y-95688002D02*
X177361998Y-94488000D01*
X177361998Y-94488000D02*
X177361998Y-94418002D01*
X177361998Y-94418002D02*
X177361998Y-94488000D01*
X122174000Y-100076000D02*
X122174000Y-94488000D01*
X122174000Y-94488000D02*
X104394000Y-94488000D01*
X156718000Y-100076000D02*
X156718000Y-94488000D01*
X156718000Y-94488000D02*
X156718000Y-94742000D01*
X156718000Y-94742000D02*
X156718000Y-94488000D01*
X178562000Y-100076000D02*
X178562000Y-95758000D01*
X177361998Y-94488000D02*
X156718000Y-94488000D01*
X156718000Y-94488000D02*
X122174000Y-94488000D01*
X114808000Y-140462000D02*
X114808000Y-131572000D01*
D19*
X121666000Y-105918000D02*
X121666000Y-104140000D01*
X148844000Y-125222000D02*
X135890000Y-112268000D01*
X135890000Y-112268000D02*
X127510796Y-112268000D01*
X121666000Y-106423204D02*
X121666000Y-105918000D01*
X127510796Y-112268000D02*
X121666000Y-106423204D01*
X157988000Y-140462000D02*
X157988000Y-132588000D01*
X150622000Y-125222000D02*
X148844000Y-125222000D01*
X157988000Y-132588000D02*
X150622000Y-125222000D01*
X114554000Y-100076000D02*
X115824000Y-98806000D01*
X115824000Y-98806000D02*
X118364000Y-98806000D01*
X159512000Y-122174000D02*
X159512000Y-116332000D01*
X165862000Y-116586000D02*
X165862000Y-111506000D01*
X160528000Y-121158000D02*
X160528000Y-116840000D01*
X119634000Y-102616000D02*
X120269000Y-103251000D01*
X120269000Y-103251000D02*
X120269000Y-106299000D01*
X152908000Y-129540000D02*
X152908000Y-129032000D01*
X150114000Y-126238000D02*
X149606000Y-126238000D01*
X152908000Y-129032000D02*
X150114000Y-126238000D01*
X148336000Y-126238000D02*
X135382000Y-113284000D01*
X149606000Y-126238000D02*
X148336000Y-126238000D01*
X127254000Y-113284000D02*
X120269000Y-106299000D01*
X135382000Y-113284000D02*
X127254000Y-113284000D01*
X152908000Y-140462000D02*
X152908000Y-129540000D01*
X148590000Y-125730000D02*
X135636000Y-112776000D01*
X135636000Y-112776000D02*
X127382398Y-112776000D01*
X155448000Y-140462000D02*
X155448000Y-130810000D01*
X120904000Y-101346000D02*
X119634000Y-100076000D01*
X120904000Y-106297602D02*
X120904000Y-101346000D01*
X127382398Y-112776000D02*
X120904000Y-106297602D01*
X150368000Y-125730000D02*
X148590000Y-125730000D01*
X155448000Y-130810000D02*
X150368000Y-125730000D01*
X148844000Y-124333000D02*
X149225000Y-124333000D01*
X149225000Y-124333000D02*
X149352000Y-124460000D01*
X148844000Y-124333000D02*
X148717000Y-124333000D01*
X133858000Y-109474000D02*
X133858000Y-109220000D01*
X148717000Y-124333000D02*
X133858000Y-109474000D01*
X133858000Y-108966000D02*
X133858000Y-109220000D01*
X133858000Y-108966000D02*
X133858000Y-102616000D01*
X150368000Y-140462000D02*
X150368000Y-128016000D01*
X150368000Y-128016000D02*
X149352000Y-127000000D01*
X127508000Y-111252000D02*
X132080000Y-111252000D01*
X132588000Y-110744000D02*
X132588000Y-101346000D01*
X132080000Y-111252000D02*
X132588000Y-110744000D01*
X133858000Y-100076000D02*
X132588000Y-101346000D01*
X127508000Y-140462000D02*
X127508000Y-114046000D01*
X149860000Y-123698000D02*
X148844000Y-123698000D01*
X136398000Y-111252000D02*
X136398000Y-110236000D01*
X148844000Y-123698000D02*
X136398000Y-111252000D01*
X160528000Y-140462000D02*
X160528000Y-134366000D01*
X136398000Y-110236000D02*
X136398000Y-102616000D01*
X160528000Y-134366000D02*
X149860000Y-123698000D01*
X142748000Y-129794000D02*
X142748000Y-121412000D01*
X135636000Y-114300000D02*
X135382000Y-114300000D01*
X142748000Y-121412000D02*
X135636000Y-114300000D01*
X142748000Y-140462000D02*
X142748000Y-129794000D01*
X135128000Y-101092000D02*
X136144000Y-100076000D01*
X135128000Y-108966000D02*
X135128000Y-101092000D01*
X136144000Y-100076000D02*
X136398000Y-100076000D01*
X135128000Y-125730000D02*
X135128000Y-117348000D01*
X135128000Y-117348000D02*
X136398000Y-116078000D01*
X135128000Y-140462000D02*
X135128000Y-125730000D01*
X138938000Y-110236000D02*
X138938000Y-102616000D01*
X137668000Y-107950000D02*
X137668000Y-104648000D01*
X132588000Y-140462000D02*
X132588000Y-114046000D01*
X137668000Y-101346000D02*
X138938000Y-100076000D01*
X137668000Y-104648000D02*
X137668000Y-101346000D01*
X150368000Y-123190000D02*
X148972398Y-123190000D01*
X141478000Y-115695602D02*
X141478000Y-114300000D01*
X148972398Y-123190000D02*
X141478000Y-115695602D01*
X163068000Y-140462000D02*
X163068000Y-135890000D01*
X141478000Y-114300000D02*
X141478000Y-102616000D01*
X163068000Y-135890000D02*
X150368000Y-123190000D01*
X140208000Y-140462000D02*
X140208000Y-119888000D01*
X140208000Y-101346000D02*
X141478000Y-100076000D01*
X140208000Y-114046000D02*
X140208000Y-101346000D01*
X137668000Y-140462000D02*
X137668000Y-117348000D01*
X144018000Y-111506000D02*
X144018000Y-102616000D01*
X143764000Y-111760000D02*
X144018000Y-111506000D01*
X150876000Y-122682000D02*
X149100796Y-122682000D01*
X145288000Y-118869204D02*
X145288000Y-117094000D01*
X149100796Y-122682000D02*
X145288000Y-118869204D01*
X165608000Y-140462000D02*
X165608000Y-135382000D01*
X164084000Y-133858000D02*
X162052000Y-133858000D01*
X165608000Y-135382000D02*
X164084000Y-133858000D01*
X162052000Y-133858000D02*
X150876000Y-122682000D01*
X145288000Y-117094000D02*
X145288000Y-101346000D01*
X145288000Y-101346000D02*
X144018000Y-100076000D01*
X165608000Y-140462000D02*
X165608000Y-137414000D01*
X145288000Y-128270000D02*
X145288000Y-126746000D01*
X145288000Y-126746000D02*
X146558000Y-125476000D01*
X145288000Y-140462000D02*
X145288000Y-128270000D01*
X146558000Y-119126000D02*
X146558000Y-102616000D01*
X147828000Y-104648000D02*
X147828000Y-101346000D01*
X147828000Y-101346000D02*
X146558000Y-100076000D01*
X130048000Y-140462000D02*
X130048000Y-114046000D01*
X124968000Y-140462000D02*
X124968000Y-112014000D01*
X122682000Y-113284000D02*
X124206000Y-111760000D01*
X122682000Y-113284000D02*
X122428000Y-113538000D01*
X122428000Y-140462000D02*
X122428000Y-113538000D01*
X132080000Y-100965000D02*
X132080000Y-99822000D01*
X132080000Y-99822000D02*
X132461000Y-99441000D01*
X124206000Y-107696000D02*
X127127000Y-110617000D01*
X132080000Y-110109000D02*
X132080000Y-107372998D01*
X131953000Y-110236000D02*
X132080000Y-110109000D01*
X131953000Y-110363000D02*
X131953000Y-110236000D01*
X131699000Y-110617000D02*
X131953000Y-110363000D01*
X127127000Y-110617000D02*
X131699000Y-110617000D01*
X132080000Y-107372998D02*
X132080000Y-100965000D01*
X132461000Y-99441000D02*
X133096000Y-98806000D01*
X150368000Y-98806000D02*
X151638000Y-100076000D01*
X133096000Y-98806000D02*
X150368000Y-98806000D01*
X117348000Y-134874000D02*
X117348000Y-134620000D01*
X120523000Y-131445000D02*
X120523000Y-111379000D01*
X117348000Y-134620000D02*
X120523000Y-131445000D01*
X120523000Y-111379000D02*
X122428000Y-109474000D01*
X117348000Y-140462000D02*
X117348000Y-134874000D01*
D20*
X156972000Y-108146000D02*
X154236000Y-108146000D01*
X154236000Y-108146000D02*
X154178000Y-108204000D01*
X119888000Y-133477000D02*
X121539000Y-131826000D01*
X121539000Y-131826000D02*
X121539000Y-112395000D01*
X131064000Y-99060000D02*
X132588000Y-97536000D01*
X131064000Y-99314000D02*
X131064000Y-99060000D01*
X119888000Y-140462000D02*
X119888000Y-133477000D01*
X151638000Y-97536000D02*
X154178000Y-100076000D01*
X132588000Y-97536000D02*
X151638000Y-97536000D01*
X121539000Y-112395000D02*
X123190000Y-110744000D01*
D19*
X161544000Y-82677000D02*
X161036000Y-82169000D01*
X161036000Y-82169000D02*
X161036000Y-75565000D01*
X162814000Y-82931000D02*
X161798000Y-82931000D01*
X161036000Y-75565000D02*
X155956000Y-70485000D01*
X161798000Y-82931000D02*
X161544000Y-82677000D01*
X162814000Y-80391000D02*
X162814000Y-74803000D01*
X162814000Y-74803000D02*
X158496000Y-70485000D01*
X165354000Y-82931000D02*
X164084000Y-81661000D01*
X164084000Y-73533000D02*
X161036000Y-70485000D01*
X164084000Y-81661000D02*
X164084000Y-73533000D01*
X165354000Y-80391000D02*
X165354000Y-72263000D01*
X165354000Y-72263000D02*
X163576000Y-70485000D01*
X167894000Y-82931000D02*
X166624000Y-81661000D01*
X166624000Y-81661000D02*
X166624000Y-70993000D01*
X166624000Y-70993000D02*
X166116000Y-70485000D01*
X167894000Y-80391000D02*
X167894000Y-71247000D01*
X167894000Y-71247000D02*
X168656000Y-70485000D01*
X170434000Y-82931000D02*
X169164000Y-81661000D01*
X169164000Y-72517000D02*
X171196000Y-70485000D01*
X169164000Y-81661000D02*
X169164000Y-72517000D01*
X170434000Y-80391000D02*
X170434000Y-73787000D01*
X170434000Y-73787000D02*
X173736000Y-70485000D01*
X172974000Y-82931000D02*
X171704000Y-81661000D01*
X171704000Y-75057000D02*
X176276000Y-70485000D01*
X171704000Y-81661000D02*
X171704000Y-75057000D01*
X172974000Y-80391000D02*
X172974000Y-76327000D01*
X172974000Y-76327000D02*
X178816000Y-70485000D01*
X109220000Y-60071000D02*
X109220000Y-58039000D01*
X109220000Y-58039000D02*
X100838000Y-49657000D01*
X111252000Y-62103000D02*
X109220000Y-60071000D01*
X111252000Y-59563000D02*
X111252000Y-57531000D01*
X111252000Y-57531000D02*
X103378000Y-49657000D01*
X113792000Y-62103000D02*
X113792000Y-61595000D01*
X113792000Y-61595000D02*
X112522000Y-60325000D01*
X112522000Y-60325000D02*
X112522000Y-56261000D01*
X112522000Y-56261000D02*
X105918000Y-49657000D01*
X113792000Y-59563000D02*
X113792000Y-54991000D01*
X113792000Y-54991000D02*
X108458000Y-49657000D01*
X116332000Y-62103000D02*
X115062000Y-60833000D01*
X115062000Y-53721000D02*
X110998000Y-49657000D01*
X115062000Y-60833000D02*
X115062000Y-53721000D01*
X116332000Y-59563000D02*
X116332000Y-52451000D01*
X116332000Y-52451000D02*
X113538000Y-49657000D01*
X118872000Y-62103000D02*
X117602000Y-60833000D01*
X117602000Y-51181000D02*
X116078000Y-49657000D01*
X117602000Y-60833000D02*
X117602000Y-51181000D01*
X118872000Y-59563000D02*
X118872000Y-49911000D01*
X118872000Y-49911000D02*
X118618000Y-49657000D01*
X120142000Y-58801000D02*
X120142000Y-50673000D01*
X120142000Y-50673000D02*
X121158000Y-49657000D01*
X121412000Y-62103000D02*
X120142000Y-60833000D01*
X120142000Y-60833000D02*
X120142000Y-58801000D01*
X121412000Y-59563000D02*
X121412000Y-51943000D01*
X121412000Y-51943000D02*
X123698000Y-49657000D01*
X122682000Y-58293000D02*
X122682000Y-53213000D01*
X122682000Y-53213000D02*
X126238000Y-49657000D01*
X123952000Y-62103000D02*
X122682000Y-60833000D01*
X122682000Y-60833000D02*
X122682000Y-58293000D01*
X123952000Y-59563000D02*
X123952000Y-54483000D01*
X123952000Y-54483000D02*
X128778000Y-49657000D01*
X123952000Y-59563000D02*
X123952000Y-59055000D01*
X125222000Y-58801000D02*
X125222000Y-55753000D01*
X125222000Y-55753000D02*
X131318000Y-49657000D01*
X126492000Y-62103000D02*
X125222000Y-60833000D01*
X125222000Y-60833000D02*
X125222000Y-58801000D01*
X126492000Y-59563000D02*
X126492000Y-57023000D01*
X126492000Y-57023000D02*
X133858000Y-49657000D01*
X126492000Y-59563000D02*
X126492000Y-59055000D01*
X127762000Y-58801000D02*
X127762000Y-58293000D01*
X127762000Y-58293000D02*
X136398000Y-49657000D01*
X129032000Y-62103000D02*
X127762000Y-60833000D01*
X127762000Y-60833000D02*
X127762000Y-58801000D01*
X129032000Y-59563000D02*
X138938000Y-49657000D01*
X112776000Y-82931000D02*
X111760000Y-82931000D01*
X100838000Y-72009000D02*
X100838000Y-70485000D01*
X111760000Y-82931000D02*
X100838000Y-72009000D01*
X112776000Y-80391000D02*
X112776000Y-79883000D01*
X112776000Y-79883000D02*
X103378000Y-70485000D01*
X115316000Y-82931000D02*
X114046000Y-81661000D01*
X114046000Y-78613000D02*
X105918000Y-70485000D01*
X114046000Y-81661000D02*
X114046000Y-78613000D01*
X115316000Y-80391000D02*
X115316000Y-77343000D01*
X115316000Y-77343000D02*
X108458000Y-70485000D01*
X117856000Y-82931000D02*
X116586000Y-81661000D01*
X116586000Y-76073000D02*
X110998000Y-70485000D01*
X116586000Y-81661000D02*
X116586000Y-76073000D01*
X117856000Y-80391000D02*
X117856000Y-74803000D01*
X117856000Y-74803000D02*
X113538000Y-70485000D01*
X120396000Y-82931000D02*
X119126000Y-81661000D01*
X119126000Y-73533000D02*
X116078000Y-70485000D01*
X119126000Y-81661000D02*
X119126000Y-73533000D01*
X120396000Y-80391000D02*
X120396000Y-72263000D01*
X120396000Y-72263000D02*
X118618000Y-70485000D01*
X122936000Y-82931000D02*
X121666000Y-81661000D01*
X121666000Y-81661000D02*
X121666000Y-70993000D01*
X121666000Y-70993000D02*
X121158000Y-70485000D01*
X122936000Y-80391000D02*
X122936000Y-71247000D01*
X122936000Y-71247000D02*
X123698000Y-70485000D01*
X125476000Y-82931000D02*
X124206000Y-81661000D01*
X124206000Y-72517000D02*
X126238000Y-70485000D01*
X124206000Y-81661000D02*
X124206000Y-72517000D01*
X125476000Y-80391000D02*
X125476000Y-73787000D01*
X125476000Y-73787000D02*
X128778000Y-70485000D01*
X128016000Y-82931000D02*
X126746000Y-81661000D01*
X126746000Y-75057000D02*
X131318000Y-70485000D01*
X126746000Y-81661000D02*
X126746000Y-75057000D01*
X128016000Y-80391000D02*
X128016000Y-76327000D01*
X128016000Y-76327000D02*
X133858000Y-70485000D01*
X130556000Y-82931000D02*
X129286000Y-81661000D01*
X129286000Y-77597000D02*
X136398000Y-70485000D01*
X129286000Y-81661000D02*
X129286000Y-77597000D01*
X130556000Y-80391000D02*
X130556000Y-78867000D01*
X130556000Y-78867000D02*
X138938000Y-70485000D01*
X133096000Y-82931000D02*
X131826000Y-81661000D01*
X131826000Y-79883000D02*
X141224000Y-70485000D01*
X131826000Y-81661000D02*
X131826000Y-79883000D01*
X141224000Y-70485000D02*
X141478000Y-70485000D01*
X133096000Y-80391000D02*
X133096000Y-79375000D01*
X136398000Y-78105000D02*
X144018000Y-70485000D01*
X134366000Y-78105000D02*
X136398000Y-78105000D01*
X133096000Y-79375000D02*
X134366000Y-78105000D01*
X135636000Y-82931000D02*
X134366000Y-81661000D01*
X138176000Y-78867000D02*
X146558000Y-70485000D01*
X134874000Y-78867000D02*
X138176000Y-78867000D01*
X134366000Y-79375000D02*
X134874000Y-78867000D01*
X134366000Y-81661000D02*
X134366000Y-79375000D01*
X135636000Y-80391000D02*
X139192000Y-80391000D01*
X139192000Y-80391000D02*
X149098000Y-70485000D01*
D20*
X168148000Y-131572000D02*
X168148000Y-128836000D01*
X168148000Y-139462000D02*
X168148000Y-131572000D01*
X147828000Y-140462000D02*
X147828000Y-127000000D01*
X154236000Y-112326000D02*
X156972000Y-112326000D01*
X154178000Y-112268000D02*
X154236000Y-112326000D01*
D21*
G36*
X168333810Y-89876830D02*
X168722485Y-89877170D01*
X168893473Y-89806519D01*
X168945823Y-89841498D01*
X168945824Y-89841499D01*
X169234929Y-89961250D01*
X169769538Y-90067590D01*
X169848528Y-90067590D01*
X169926000Y-90083000D01*
X183094000Y-90083000D01*
X183094000Y-132802000D01*
X169418000Y-132802000D01*
X169375000Y-132810553D01*
X169375000Y-130862351D01*
X169432410Y-130851549D01*
X169679846Y-130692328D01*
X169845843Y-130449385D01*
X169904242Y-130161000D01*
X169904242Y-127511000D01*
X169853549Y-127241590D01*
X169694328Y-126994154D01*
X169451385Y-126828157D01*
X169163000Y-126769758D01*
X167133000Y-126769758D01*
X166863590Y-126820451D01*
X166616154Y-126979672D01*
X166450157Y-127222615D01*
X166391758Y-127511000D01*
X166391758Y-130161000D01*
X166442451Y-130430410D01*
X166601672Y-130677846D01*
X166844615Y-130843843D01*
X166921000Y-130859311D01*
X166921000Y-133527672D01*
X164964422Y-133533512D01*
X164686455Y-133255545D01*
X164410046Y-133070855D01*
X164084000Y-133006000D01*
X162404910Y-133006000D01*
X151478455Y-122079545D01*
X151202046Y-121894855D01*
X150876000Y-121830000D01*
X149453706Y-121830000D01*
X147380135Y-119756429D01*
X147428140Y-119708508D01*
X147584821Y-119331179D01*
X147585178Y-118922613D01*
X147429156Y-118545011D01*
X147410000Y-118525822D01*
X147410000Y-116535387D01*
X158484822Y-116535387D01*
X158640844Y-116912989D01*
X158660000Y-116932178D01*
X158660000Y-121573384D01*
X158641860Y-121591492D01*
X158485179Y-121968821D01*
X158484822Y-122377387D01*
X158640844Y-122754989D01*
X158929492Y-123044140D01*
X159306821Y-123200821D01*
X159715387Y-123201178D01*
X160092989Y-123045156D01*
X160382140Y-122756508D01*
X160538821Y-122379179D01*
X160538991Y-122185010D01*
X160731387Y-122185178D01*
X161108989Y-122029156D01*
X161398140Y-121740508D01*
X161554821Y-121363179D01*
X161555178Y-120954613D01*
X161399156Y-120577011D01*
X161380000Y-120557822D01*
X161380000Y-117440616D01*
X161398140Y-117422508D01*
X161554821Y-117045179D01*
X161555178Y-116636613D01*
X161399156Y-116259011D01*
X161110508Y-115969860D01*
X160733179Y-115813179D01*
X160408726Y-115812895D01*
X160383156Y-115751011D01*
X160094508Y-115461860D01*
X159717179Y-115305179D01*
X159308613Y-115304822D01*
X158931011Y-115460844D01*
X158641860Y-115749492D01*
X158485179Y-116126821D01*
X158484822Y-116535387D01*
X147410000Y-116535387D01*
X147410000Y-105586450D01*
X147622821Y-105674821D01*
X148031387Y-105675178D01*
X148408989Y-105519156D01*
X148558499Y-105369906D01*
X148500000Y-105664000D01*
X148500000Y-111667384D01*
X148481860Y-111685492D01*
X148325179Y-112062821D01*
X148324822Y-112471387D01*
X148480844Y-112848989D01*
X148661602Y-113030062D01*
X148481860Y-113209492D01*
X148325179Y-113586821D01*
X148324822Y-113995387D01*
X148480844Y-114372989D01*
X148769492Y-114662140D01*
X149146821Y-114818821D01*
X149555387Y-114819178D01*
X149932989Y-114663156D01*
X150222140Y-114374508D01*
X150378821Y-113997179D01*
X150378845Y-113970065D01*
X150716455Y-113632455D01*
X150901145Y-113356046D01*
X150966000Y-113030000D01*
X150966000Y-112268000D01*
X152951000Y-112268000D01*
X153044400Y-112737552D01*
X153310380Y-113135620D01*
X153368380Y-113193620D01*
X153766447Y-113459600D01*
X154236000Y-113553000D01*
X155215758Y-113553000D01*
X155215758Y-113651000D01*
X155266451Y-113920410D01*
X155425672Y-114167846D01*
X155668615Y-114333843D01*
X155957000Y-114392242D01*
X157987000Y-114392242D01*
X158256410Y-114341549D01*
X158503846Y-114182328D01*
X158669843Y-113939385D01*
X158728242Y-113651000D01*
X158728242Y-111709387D01*
X164834822Y-111709387D01*
X164990844Y-112086989D01*
X165010000Y-112106178D01*
X165010000Y-115985384D01*
X164991860Y-116003492D01*
X164835179Y-116380821D01*
X164834822Y-116789387D01*
X164990844Y-117166989D01*
X165279492Y-117456140D01*
X165656821Y-117612821D01*
X166065387Y-117613178D01*
X166442989Y-117457156D01*
X166732140Y-117168508D01*
X166888821Y-116791179D01*
X166889178Y-116382613D01*
X166733156Y-116005011D01*
X166714000Y-115985822D01*
X166714000Y-112106616D01*
X166732140Y-112088508D01*
X166888821Y-111711179D01*
X166889178Y-111302613D01*
X166733156Y-110925011D01*
X166444508Y-110635860D01*
X166067179Y-110479179D01*
X165658613Y-110478822D01*
X165281011Y-110634844D01*
X164991860Y-110923492D01*
X164835179Y-111300821D01*
X164834822Y-111709387D01*
X158728242Y-111709387D01*
X158728242Y-111001000D01*
X158677549Y-110731590D01*
X158518328Y-110484154D01*
X158275385Y-110318157D01*
X157987000Y-110259758D01*
X155957000Y-110259758D01*
X155687590Y-110310451D01*
X155440154Y-110469672D01*
X155274157Y-110712615D01*
X155215758Y-111001000D01*
X155215758Y-111099000D01*
X154469585Y-111099000D01*
X154178000Y-111041000D01*
X153708448Y-111134400D01*
X153310380Y-111400380D01*
X153044400Y-111798448D01*
X152951000Y-112268000D01*
X150966000Y-112268000D01*
X150966000Y-107032910D01*
X151228910Y-106770000D01*
X155226086Y-106770000D01*
X155215758Y-106821000D01*
X155215758Y-106919000D01*
X154236000Y-106919000D01*
X153766447Y-107012400D01*
X153373133Y-107275204D01*
X153368380Y-107278380D01*
X153310380Y-107336380D01*
X153044400Y-107734448D01*
X152951000Y-108204000D01*
X153044400Y-108673552D01*
X153310380Y-109071620D01*
X153708448Y-109337600D01*
X154178000Y-109431000D01*
X154469585Y-109373000D01*
X155215758Y-109373000D01*
X155215758Y-109471000D01*
X155266451Y-109740410D01*
X155425672Y-109987846D01*
X155668615Y-110153843D01*
X155957000Y-110212242D01*
X157987000Y-110212242D01*
X158256410Y-110161549D01*
X158503846Y-110002328D01*
X158669843Y-109759385D01*
X158728242Y-109471000D01*
X158728242Y-106821000D01*
X158718646Y-106770000D01*
X167640000Y-106770000D01*
X167966046Y-106705145D01*
X168242455Y-106520455D01*
X170586837Y-104176073D01*
X170626939Y-104192725D01*
X171254308Y-104193273D01*
X171834132Y-103953695D01*
X172212270Y-103576216D01*
X172587535Y-103952136D01*
X173166939Y-104192725D01*
X173794308Y-104193273D01*
X174374132Y-103953695D01*
X174752270Y-103576216D01*
X175127535Y-103952136D01*
X175706939Y-104192725D01*
X176334308Y-104193273D01*
X176914132Y-103953695D01*
X177292270Y-103576216D01*
X177667535Y-103952136D01*
X178103568Y-104133192D01*
X172905349Y-109331411D01*
X172829156Y-109147011D01*
X172540508Y-108857860D01*
X172163179Y-108701179D01*
X172136065Y-108701155D01*
X170699156Y-107264246D01*
X170699178Y-107238613D01*
X170543156Y-106861011D01*
X170254508Y-106571860D01*
X169877179Y-106415179D01*
X169468613Y-106414822D01*
X169091011Y-106570844D01*
X168801860Y-106859492D01*
X168645179Y-107236821D01*
X168644822Y-107645387D01*
X168800844Y-108022989D01*
X169089492Y-108312140D01*
X169466821Y-108468821D01*
X169493935Y-108468845D01*
X170930844Y-109905754D01*
X170930822Y-109931387D01*
X171086844Y-110308989D01*
X171375492Y-110598140D01*
X171561417Y-110675343D01*
X167280380Y-114956380D01*
X167014400Y-115354447D01*
X166921000Y-115824000D01*
X166921000Y-122629649D01*
X166863590Y-122640451D01*
X166616154Y-122799672D01*
X166450157Y-123042615D01*
X166391758Y-123331000D01*
X166391758Y-125981000D01*
X166442451Y-126250410D01*
X166601672Y-126497846D01*
X166844615Y-126663843D01*
X167133000Y-126722242D01*
X169163000Y-126722242D01*
X169432410Y-126671549D01*
X169679846Y-126512328D01*
X169845843Y-126269385D01*
X169904242Y-125981000D01*
X169904242Y-123331000D01*
X169853549Y-123061590D01*
X169694328Y-122814154D01*
X169451385Y-122648157D01*
X169375000Y-122632689D01*
X169375000Y-116332240D01*
X181207620Y-104499620D01*
X181473601Y-104101552D01*
X181567000Y-103632000D01*
X181567000Y-94996000D01*
X181545490Y-94887860D01*
X181473601Y-94526448D01*
X181207620Y-94128380D01*
X179429620Y-92350380D01*
X179424328Y-92346844D01*
X179031553Y-92084400D01*
X178562000Y-91991000D01*
X123952000Y-91991000D01*
X123482447Y-92084400D01*
X123084380Y-92350380D01*
X122818400Y-92748447D01*
X122725000Y-93218000D01*
X122818400Y-93687553D01*
X123084380Y-94085620D01*
X123482447Y-94351600D01*
X123952000Y-94445000D01*
X178053760Y-94445000D01*
X179113000Y-95504240D01*
X179113000Y-98696190D01*
X178790721Y-98579282D01*
X178200542Y-98605685D01*
X177777920Y-98780741D01*
X177697647Y-99032042D01*
X178562000Y-99896395D01*
X178576143Y-99882253D01*
X178755748Y-100061858D01*
X178741605Y-100076000D01*
X178755748Y-100090143D01*
X178576143Y-100269748D01*
X178562000Y-100255605D01*
X177697647Y-101119958D01*
X177739091Y-101249703D01*
X177669868Y-101278305D01*
X177291730Y-101655784D01*
X176982216Y-101345730D01*
X177358136Y-100970465D01*
X177387901Y-100898782D01*
X177518042Y-100940353D01*
X178382395Y-100076000D01*
X177518042Y-99211647D01*
X177388297Y-99253091D01*
X177359695Y-99183868D01*
X176916465Y-98739864D01*
X176337061Y-98499275D01*
X175709692Y-98498727D01*
X175129868Y-98738305D01*
X174751730Y-99115784D01*
X174376465Y-98739864D01*
X173797061Y-98499275D01*
X173169692Y-98498727D01*
X172589868Y-98738305D01*
X172211730Y-99115784D01*
X171836465Y-98739864D01*
X171257061Y-98499275D01*
X170629692Y-98498727D01*
X170049868Y-98738305D01*
X169671730Y-99115784D01*
X169296465Y-98739864D01*
X168717061Y-98499275D01*
X168089692Y-98498727D01*
X167509868Y-98738305D01*
X167065864Y-99181535D01*
X166825275Y-99760939D01*
X166824727Y-100388308D01*
X167064305Y-100968132D01*
X167214911Y-101119001D01*
X167035154Y-101234672D01*
X166869157Y-101477615D01*
X166810758Y-101766000D01*
X166810758Y-103466000D01*
X166861451Y-103735410D01*
X167020672Y-103982846D01*
X167143392Y-104066698D01*
X166906090Y-104304000D01*
X149860000Y-104304000D01*
X149533953Y-104368855D01*
X149257545Y-104553545D01*
X148781617Y-105029473D01*
X148854821Y-104853179D01*
X148855178Y-104444613D01*
X148744506Y-104176766D01*
X148782939Y-104192725D01*
X149410308Y-104193273D01*
X149990132Y-103953695D01*
X150368270Y-103576216D01*
X150743535Y-103952136D01*
X151322939Y-104192725D01*
X151950308Y-104193273D01*
X152530132Y-103953695D01*
X152908270Y-103576216D01*
X153283535Y-103952136D01*
X153862939Y-104192725D01*
X154490308Y-104193273D01*
X155070132Y-103953695D01*
X155448270Y-103576216D01*
X155823535Y-103952136D01*
X156402939Y-104192725D01*
X157030308Y-104193273D01*
X157610132Y-103953695D01*
X158054136Y-103510465D01*
X158294725Y-102931061D01*
X158294862Y-102774378D01*
X159363620Y-101705620D01*
X159629601Y-101307552D01*
X159723000Y-100838000D01*
X159723000Y-95758000D01*
X159629600Y-95288447D01*
X159363620Y-94890380D01*
X158965553Y-94624400D01*
X158496000Y-94531000D01*
X158026447Y-94624400D01*
X157628380Y-94890380D01*
X157362400Y-95288447D01*
X157269000Y-95758000D01*
X157269000Y-98696190D01*
X156946721Y-98579282D01*
X156356542Y-98605685D01*
X155933920Y-98780741D01*
X155853647Y-99032042D01*
X156718000Y-99896395D01*
X156732143Y-99882253D01*
X156911748Y-100061858D01*
X156897605Y-100076000D01*
X156911748Y-100090143D01*
X156732143Y-100269748D01*
X156718000Y-100255605D01*
X155853647Y-101119958D01*
X155895091Y-101249703D01*
X155825868Y-101278305D01*
X155447730Y-101655784D01*
X155138216Y-101345730D01*
X155514136Y-100970465D01*
X155543901Y-100898782D01*
X155674042Y-100940353D01*
X156538395Y-100076000D01*
X155674042Y-99211647D01*
X155544297Y-99253091D01*
X155515695Y-99183868D01*
X155072465Y-98739864D01*
X154493061Y-98499275D01*
X154336378Y-98499138D01*
X152505620Y-96668380D01*
X152446917Y-96629156D01*
X152107553Y-96402400D01*
X151638000Y-96309000D01*
X132588000Y-96309000D01*
X132118447Y-96402400D01*
X131779083Y-96629156D01*
X131720380Y-96668380D01*
X130196380Y-98192380D01*
X129930400Y-98590447D01*
X129837000Y-99060000D01*
X129837000Y-99314000D01*
X129930400Y-99783553D01*
X130196380Y-100181620D01*
X130594447Y-100447600D01*
X131064000Y-100541000D01*
X131228000Y-100508378D01*
X131228000Y-109765000D01*
X127479910Y-109765000D01*
X125233156Y-107518246D01*
X125233178Y-107492613D01*
X125077156Y-107115011D01*
X124788508Y-106825860D01*
X124411179Y-106669179D01*
X124002613Y-106668822D01*
X123625011Y-106824844D01*
X123448627Y-107000921D01*
X122518000Y-106070294D01*
X122518000Y-104740616D01*
X122536140Y-104722508D01*
X122692821Y-104345179D01*
X122693028Y-104107858D01*
X123066132Y-103953695D01*
X123510136Y-103510465D01*
X123750725Y-102931061D01*
X123750862Y-102774378D01*
X124819620Y-101705620D01*
X125085601Y-101307552D01*
X125179000Y-100838000D01*
X125179000Y-95758000D01*
X125085600Y-95288447D01*
X124819620Y-94890380D01*
X124421553Y-94624400D01*
X123952000Y-94531000D01*
X123482447Y-94624400D01*
X123084380Y-94890380D01*
X122818400Y-95288447D01*
X122725000Y-95758000D01*
X122725000Y-98696190D01*
X122402721Y-98579282D01*
X121812542Y-98605685D01*
X121389920Y-98780741D01*
X121309647Y-99032042D01*
X122174000Y-99896395D01*
X122188143Y-99882253D01*
X122367748Y-100061858D01*
X122353605Y-100076000D01*
X122367748Y-100090143D01*
X122188143Y-100269748D01*
X122174000Y-100255605D01*
X122159858Y-100269748D01*
X121980253Y-100090143D01*
X121994395Y-100076000D01*
X121130042Y-99211647D01*
X121000297Y-99253091D01*
X120971695Y-99183868D01*
X120528465Y-98739864D01*
X119949061Y-98499275D01*
X119348263Y-98498750D01*
X119235156Y-98225011D01*
X118946508Y-97935860D01*
X118569179Y-97779179D01*
X118160613Y-97778822D01*
X117783011Y-97934844D01*
X117763822Y-97954000D01*
X115824000Y-97954000D01*
X115497954Y-98018855D01*
X115221545Y-98203545D01*
X114909163Y-98515927D01*
X114869061Y-98499275D01*
X114241692Y-98498727D01*
X113661868Y-98738305D01*
X113283730Y-99115784D01*
X112908465Y-98739864D01*
X112329061Y-98499275D01*
X111701692Y-98498727D01*
X111121868Y-98738305D01*
X110743730Y-99115784D01*
X110368465Y-98739864D01*
X109789061Y-98499275D01*
X109161692Y-98498727D01*
X108581868Y-98738305D01*
X108203730Y-99115784D01*
X107828465Y-98739864D01*
X107249061Y-98499275D01*
X106621692Y-98498727D01*
X106041868Y-98738305D01*
X105663730Y-99115784D01*
X105288465Y-98739864D01*
X104709061Y-98499275D01*
X104081692Y-98498727D01*
X103501868Y-98738305D01*
X103057864Y-99181535D01*
X102817275Y-99760939D01*
X102816727Y-100388308D01*
X103056305Y-100968132D01*
X103206911Y-101119001D01*
X103027154Y-101234672D01*
X102861157Y-101477615D01*
X102802758Y-101766000D01*
X102802758Y-103466000D01*
X102853451Y-103735410D01*
X103012672Y-103982846D01*
X103255615Y-104148843D01*
X103544000Y-104207242D01*
X105244000Y-104207242D01*
X105513410Y-104156549D01*
X105760846Y-103997328D01*
X105892420Y-103804764D01*
X106039535Y-103952136D01*
X106618939Y-104192725D01*
X107246308Y-104193273D01*
X107826132Y-103953695D01*
X108204270Y-103576216D01*
X108579535Y-103952136D01*
X109158939Y-104192725D01*
X109786308Y-104193273D01*
X110366132Y-103953695D01*
X110744270Y-103576216D01*
X111119535Y-103952136D01*
X111698939Y-104192725D01*
X112326308Y-104193273D01*
X112906132Y-103953695D01*
X113284270Y-103576216D01*
X113659535Y-103952136D01*
X114238939Y-104192725D01*
X114866308Y-104193273D01*
X115446132Y-103953695D01*
X115824270Y-103576216D01*
X116199535Y-103952136D01*
X116778939Y-104192725D01*
X117406308Y-104193273D01*
X117986132Y-103953695D01*
X118364270Y-103576216D01*
X118739535Y-103952136D01*
X119318939Y-104192725D01*
X119417000Y-104192811D01*
X119417000Y-106299000D01*
X119481855Y-106625046D01*
X119666545Y-106901455D01*
X121607264Y-108842174D01*
X121557860Y-108891492D01*
X121401179Y-109268821D01*
X121401155Y-109295935D01*
X119920545Y-110776545D01*
X119735855Y-111052954D01*
X119671000Y-111379000D01*
X119671000Y-131092090D01*
X117086659Y-133676431D01*
X114305535Y-133684733D01*
X114278951Y-133551088D01*
X114105100Y-133290900D01*
X113844912Y-133117049D01*
X113538000Y-133056000D01*
X99608000Y-133056000D01*
X99608000Y-90083000D01*
X109347000Y-90083000D01*
X109424472Y-90067590D01*
X109503462Y-90067590D01*
X110038071Y-89961250D01*
X110241878Y-89876830D01*
X110327177Y-89841498D01*
X110379509Y-89806531D01*
X110548810Y-89876830D01*
X110937485Y-89877170D01*
X111125018Y-89799683D01*
X111310810Y-89876830D01*
X111699485Y-89877170D01*
X111887018Y-89799683D01*
X112072810Y-89876830D01*
X112461485Y-89877170D01*
X112649018Y-89799683D01*
X112834810Y-89876830D01*
X113223485Y-89877170D01*
X113394473Y-89806519D01*
X113446823Y-89841498D01*
X113446824Y-89841499D01*
X113735929Y-89961250D01*
X114270538Y-90067590D01*
X114349528Y-90067590D01*
X114427000Y-90083000D01*
X135509000Y-90083000D01*
X135586472Y-90067590D01*
X135665462Y-90067590D01*
X136200071Y-89961250D01*
X136403878Y-89876830D01*
X136489177Y-89841498D01*
X136541509Y-89806531D01*
X136710810Y-89876830D01*
X137099485Y-89877170D01*
X137287018Y-89799683D01*
X137472810Y-89876830D01*
X137861485Y-89877170D01*
X138049018Y-89799683D01*
X138234810Y-89876830D01*
X138623485Y-89877170D01*
X138811018Y-89799683D01*
X138996810Y-89876830D01*
X139385485Y-89877170D01*
X139556473Y-89806519D01*
X139608823Y-89841498D01*
X139608824Y-89841499D01*
X139897929Y-89961250D01*
X140432538Y-90067590D01*
X140511528Y-90067590D01*
X140589000Y-90083000D01*
X164846000Y-90083000D01*
X164923472Y-90067590D01*
X165002462Y-90067590D01*
X165537071Y-89961250D01*
X165740878Y-89876830D01*
X165826177Y-89841498D01*
X165878509Y-89806531D01*
X166047810Y-89876830D01*
X166436485Y-89877170D01*
X166624018Y-89799683D01*
X166809810Y-89876830D01*
X167198485Y-89877170D01*
X167386018Y-89799683D01*
X167571810Y-89876830D01*
X167960485Y-89877170D01*
X168148018Y-89799683D01*
X168333810Y-89876830D01*
X168333810Y-89876830D01*
G37*
X168333810Y-89876830D02*
X168722485Y-89877170D01*
X168893473Y-89806519D01*
X168945823Y-89841498D01*
X168945824Y-89841499D01*
X169234929Y-89961250D01*
X169769538Y-90067590D01*
X169848528Y-90067590D01*
X169926000Y-90083000D01*
X183094000Y-90083000D01*
X183094000Y-132802000D01*
X169418000Y-132802000D01*
X169375000Y-132810553D01*
X169375000Y-130862351D01*
X169432410Y-130851549D01*
X169679846Y-130692328D01*
X169845843Y-130449385D01*
X169904242Y-130161000D01*
X169904242Y-127511000D01*
X169853549Y-127241590D01*
X169694328Y-126994154D01*
X169451385Y-126828157D01*
X169163000Y-126769758D01*
X167133000Y-126769758D01*
X166863590Y-126820451D01*
X166616154Y-126979672D01*
X166450157Y-127222615D01*
X166391758Y-127511000D01*
X166391758Y-130161000D01*
X166442451Y-130430410D01*
X166601672Y-130677846D01*
X166844615Y-130843843D01*
X166921000Y-130859311D01*
X166921000Y-133527672D01*
X164964422Y-133533512D01*
X164686455Y-133255545D01*
X164410046Y-133070855D01*
X164084000Y-133006000D01*
X162404910Y-133006000D01*
X151478455Y-122079545D01*
X151202046Y-121894855D01*
X150876000Y-121830000D01*
X149453706Y-121830000D01*
X147380135Y-119756429D01*
X147428140Y-119708508D01*
X147584821Y-119331179D01*
X147585178Y-118922613D01*
X147429156Y-118545011D01*
X147410000Y-118525822D01*
X147410000Y-116535387D01*
X158484822Y-116535387D01*
X158640844Y-116912989D01*
X158660000Y-116932178D01*
X158660000Y-121573384D01*
X158641860Y-121591492D01*
X158485179Y-121968821D01*
X158484822Y-122377387D01*
X158640844Y-122754989D01*
X158929492Y-123044140D01*
X159306821Y-123200821D01*
X159715387Y-123201178D01*
X160092989Y-123045156D01*
X160382140Y-122756508D01*
X160538821Y-122379179D01*
X160538991Y-122185010D01*
X160731387Y-122185178D01*
X161108989Y-122029156D01*
X161398140Y-121740508D01*
X161554821Y-121363179D01*
X161555178Y-120954613D01*
X161399156Y-120577011D01*
X161380000Y-120557822D01*
X161380000Y-117440616D01*
X161398140Y-117422508D01*
X161554821Y-117045179D01*
X161555178Y-116636613D01*
X161399156Y-116259011D01*
X161110508Y-115969860D01*
X160733179Y-115813179D01*
X160408726Y-115812895D01*
X160383156Y-115751011D01*
X160094508Y-115461860D01*
X159717179Y-115305179D01*
X159308613Y-115304822D01*
X158931011Y-115460844D01*
X158641860Y-115749492D01*
X158485179Y-116126821D01*
X158484822Y-116535387D01*
X147410000Y-116535387D01*
X147410000Y-105586450D01*
X147622821Y-105674821D01*
X148031387Y-105675178D01*
X148408989Y-105519156D01*
X148558499Y-105369906D01*
X148500000Y-105664000D01*
X148500000Y-111667384D01*
X148481860Y-111685492D01*
X148325179Y-112062821D01*
X148324822Y-112471387D01*
X148480844Y-112848989D01*
X148661602Y-113030062D01*
X148481860Y-113209492D01*
X148325179Y-113586821D01*
X148324822Y-113995387D01*
X148480844Y-114372989D01*
X148769492Y-114662140D01*
X149146821Y-114818821D01*
X149555387Y-114819178D01*
X149932989Y-114663156D01*
X150222140Y-114374508D01*
X150378821Y-113997179D01*
X150378845Y-113970065D01*
X150716455Y-113632455D01*
X150901145Y-113356046D01*
X150966000Y-113030000D01*
X150966000Y-112268000D01*
X152951000Y-112268000D01*
X153044400Y-112737552D01*
X153310380Y-113135620D01*
X153368380Y-113193620D01*
X153766447Y-113459600D01*
X154236000Y-113553000D01*
X155215758Y-113553000D01*
X155215758Y-113651000D01*
X155266451Y-113920410D01*
X155425672Y-114167846D01*
X155668615Y-114333843D01*
X155957000Y-114392242D01*
X157987000Y-114392242D01*
X158256410Y-114341549D01*
X158503846Y-114182328D01*
X158669843Y-113939385D01*
X158728242Y-113651000D01*
X158728242Y-111709387D01*
X164834822Y-111709387D01*
X164990844Y-112086989D01*
X165010000Y-112106178D01*
X165010000Y-115985384D01*
X164991860Y-116003492D01*
X164835179Y-116380821D01*
X164834822Y-116789387D01*
X164990844Y-117166989D01*
X165279492Y-117456140D01*
X165656821Y-117612821D01*
X166065387Y-117613178D01*
X166442989Y-117457156D01*
X166732140Y-117168508D01*
X166888821Y-116791179D01*
X166889178Y-116382613D01*
X166733156Y-116005011D01*
X166714000Y-115985822D01*
X166714000Y-112106616D01*
X166732140Y-112088508D01*
X166888821Y-111711179D01*
X166889178Y-111302613D01*
X166733156Y-110925011D01*
X166444508Y-110635860D01*
X166067179Y-110479179D01*
X165658613Y-110478822D01*
X165281011Y-110634844D01*
X164991860Y-110923492D01*
X164835179Y-111300821D01*
X164834822Y-111709387D01*
X158728242Y-111709387D01*
X158728242Y-111001000D01*
X158677549Y-110731590D01*
X158518328Y-110484154D01*
X158275385Y-110318157D01*
X157987000Y-110259758D01*
X155957000Y-110259758D01*
X155687590Y-110310451D01*
X155440154Y-110469672D01*
X155274157Y-110712615D01*
X155215758Y-111001000D01*
X155215758Y-111099000D01*
X154469585Y-111099000D01*
X154178000Y-111041000D01*
X153708448Y-111134400D01*
X153310380Y-111400380D01*
X153044400Y-111798448D01*
X152951000Y-112268000D01*
X150966000Y-112268000D01*
X150966000Y-107032910D01*
X151228910Y-106770000D01*
X155226086Y-106770000D01*
X155215758Y-106821000D01*
X155215758Y-106919000D01*
X154236000Y-106919000D01*
X153766447Y-107012400D01*
X153373133Y-107275204D01*
X153368380Y-107278380D01*
X153310380Y-107336380D01*
X153044400Y-107734448D01*
X152951000Y-108204000D01*
X153044400Y-108673552D01*
X153310380Y-109071620D01*
X153708448Y-109337600D01*
X154178000Y-109431000D01*
X154469585Y-109373000D01*
X155215758Y-109373000D01*
X155215758Y-109471000D01*
X155266451Y-109740410D01*
X155425672Y-109987846D01*
X155668615Y-110153843D01*
X155957000Y-110212242D01*
X157987000Y-110212242D01*
X158256410Y-110161549D01*
X158503846Y-110002328D01*
X158669843Y-109759385D01*
X158728242Y-109471000D01*
X158728242Y-106821000D01*
X158718646Y-106770000D01*
X167640000Y-106770000D01*
X167966046Y-106705145D01*
X168242455Y-106520455D01*
X170586837Y-104176073D01*
X170626939Y-104192725D01*
X171254308Y-104193273D01*
X171834132Y-103953695D01*
X172212270Y-103576216D01*
X172587535Y-103952136D01*
X173166939Y-104192725D01*
X173794308Y-104193273D01*
X174374132Y-103953695D01*
X174752270Y-103576216D01*
X175127535Y-103952136D01*
X175706939Y-104192725D01*
X176334308Y-104193273D01*
X176914132Y-103953695D01*
X177292270Y-103576216D01*
X177667535Y-103952136D01*
X178103568Y-104133192D01*
X172905349Y-109331411D01*
X172829156Y-109147011D01*
X172540508Y-108857860D01*
X172163179Y-108701179D01*
X172136065Y-108701155D01*
X170699156Y-107264246D01*
X170699178Y-107238613D01*
X170543156Y-106861011D01*
X170254508Y-106571860D01*
X169877179Y-106415179D01*
X169468613Y-106414822D01*
X169091011Y-106570844D01*
X168801860Y-106859492D01*
X168645179Y-107236821D01*
X168644822Y-107645387D01*
X168800844Y-108022989D01*
X169089492Y-108312140D01*
X169466821Y-108468821D01*
X169493935Y-108468845D01*
X170930844Y-109905754D01*
X170930822Y-109931387D01*
X171086844Y-110308989D01*
X171375492Y-110598140D01*
X171561417Y-110675343D01*
X167280380Y-114956380D01*
X167014400Y-115354447D01*
X166921000Y-115824000D01*
X166921000Y-122629649D01*
X166863590Y-122640451D01*
X166616154Y-122799672D01*
X166450157Y-123042615D01*
X166391758Y-123331000D01*
X166391758Y-125981000D01*
X166442451Y-126250410D01*
X166601672Y-126497846D01*
X166844615Y-126663843D01*
X167133000Y-126722242D01*
X169163000Y-126722242D01*
X169432410Y-126671549D01*
X169679846Y-126512328D01*
X169845843Y-126269385D01*
X169904242Y-125981000D01*
X169904242Y-123331000D01*
X169853549Y-123061590D01*
X169694328Y-122814154D01*
X169451385Y-122648157D01*
X169375000Y-122632689D01*
X169375000Y-116332240D01*
X181207620Y-104499620D01*
X181473601Y-104101552D01*
X181567000Y-103632000D01*
X181567000Y-94996000D01*
X181545490Y-94887860D01*
X181473601Y-94526448D01*
X181207620Y-94128380D01*
X179429620Y-92350380D01*
X179424328Y-92346844D01*
X179031553Y-92084400D01*
X178562000Y-91991000D01*
X123952000Y-91991000D01*
X123482447Y-92084400D01*
X123084380Y-92350380D01*
X122818400Y-92748447D01*
X122725000Y-93218000D01*
X122818400Y-93687553D01*
X123084380Y-94085620D01*
X123482447Y-94351600D01*
X123952000Y-94445000D01*
X178053760Y-94445000D01*
X179113000Y-95504240D01*
X179113000Y-98696190D01*
X178790721Y-98579282D01*
X178200542Y-98605685D01*
X177777920Y-98780741D01*
X177697647Y-99032042D01*
X178562000Y-99896395D01*
X178576143Y-99882253D01*
X178755748Y-100061858D01*
X178741605Y-100076000D01*
X178755748Y-100090143D01*
X178576143Y-100269748D01*
X178562000Y-100255605D01*
X177697647Y-101119958D01*
X177739091Y-101249703D01*
X177669868Y-101278305D01*
X177291730Y-101655784D01*
X176982216Y-101345730D01*
X177358136Y-100970465D01*
X177387901Y-100898782D01*
X177518042Y-100940353D01*
X178382395Y-100076000D01*
X177518042Y-99211647D01*
X177388297Y-99253091D01*
X177359695Y-99183868D01*
X176916465Y-98739864D01*
X176337061Y-98499275D01*
X175709692Y-98498727D01*
X175129868Y-98738305D01*
X174751730Y-99115784D01*
X174376465Y-98739864D01*
X173797061Y-98499275D01*
X173169692Y-98498727D01*
X172589868Y-98738305D01*
X172211730Y-99115784D01*
X171836465Y-98739864D01*
X171257061Y-98499275D01*
X170629692Y-98498727D01*
X170049868Y-98738305D01*
X169671730Y-99115784D01*
X169296465Y-98739864D01*
X168717061Y-98499275D01*
X168089692Y-98498727D01*
X167509868Y-98738305D01*
X167065864Y-99181535D01*
X166825275Y-99760939D01*
X166824727Y-100388308D01*
X167064305Y-100968132D01*
X167214911Y-101119001D01*
X167035154Y-101234672D01*
X166869157Y-101477615D01*
X166810758Y-101766000D01*
X166810758Y-103466000D01*
X166861451Y-103735410D01*
X167020672Y-103982846D01*
X167143392Y-104066698D01*
X166906090Y-104304000D01*
X149860000Y-104304000D01*
X149533953Y-104368855D01*
X149257545Y-104553545D01*
X148781617Y-105029473D01*
X148854821Y-104853179D01*
X148855178Y-104444613D01*
X148744506Y-104176766D01*
X148782939Y-104192725D01*
X149410308Y-104193273D01*
X149990132Y-103953695D01*
X150368270Y-103576216D01*
X150743535Y-103952136D01*
X151322939Y-104192725D01*
X151950308Y-104193273D01*
X152530132Y-103953695D01*
X152908270Y-103576216D01*
X153283535Y-103952136D01*
X153862939Y-104192725D01*
X154490308Y-104193273D01*
X155070132Y-103953695D01*
X155448270Y-103576216D01*
X155823535Y-103952136D01*
X156402939Y-104192725D01*
X157030308Y-104193273D01*
X157610132Y-103953695D01*
X158054136Y-103510465D01*
X158294725Y-102931061D01*
X158294862Y-102774378D01*
X159363620Y-101705620D01*
X159629601Y-101307552D01*
X159723000Y-100838000D01*
X159723000Y-95758000D01*
X159629600Y-95288447D01*
X159363620Y-94890380D01*
X158965553Y-94624400D01*
X158496000Y-94531000D01*
X158026447Y-94624400D01*
X157628380Y-94890380D01*
X157362400Y-95288447D01*
X157269000Y-95758000D01*
X157269000Y-98696190D01*
X156946721Y-98579282D01*
X156356542Y-98605685D01*
X155933920Y-98780741D01*
X155853647Y-99032042D01*
X156718000Y-99896395D01*
X156732143Y-99882253D01*
X156911748Y-100061858D01*
X156897605Y-100076000D01*
X156911748Y-100090143D01*
X156732143Y-100269748D01*
X156718000Y-100255605D01*
X155853647Y-101119958D01*
X155895091Y-101249703D01*
X155825868Y-101278305D01*
X155447730Y-101655784D01*
X155138216Y-101345730D01*
X155514136Y-100970465D01*
X155543901Y-100898782D01*
X155674042Y-100940353D01*
X156538395Y-100076000D01*
X155674042Y-99211647D01*
X155544297Y-99253091D01*
X155515695Y-99183868D01*
X155072465Y-98739864D01*
X154493061Y-98499275D01*
X154336378Y-98499138D01*
X152505620Y-96668380D01*
X152446917Y-96629156D01*
X152107553Y-96402400D01*
X151638000Y-96309000D01*
X132588000Y-96309000D01*
X132118447Y-96402400D01*
X131779083Y-96629156D01*
X131720380Y-96668380D01*
X130196380Y-98192380D01*
X129930400Y-98590447D01*
X129837000Y-99060000D01*
X129837000Y-99314000D01*
X129930400Y-99783553D01*
X130196380Y-100181620D01*
X130594447Y-100447600D01*
X131064000Y-100541000D01*
X131228000Y-100508378D01*
X131228000Y-109765000D01*
X127479910Y-109765000D01*
X125233156Y-107518246D01*
X125233178Y-107492613D01*
X125077156Y-107115011D01*
X124788508Y-106825860D01*
X124411179Y-106669179D01*
X124002613Y-106668822D01*
X123625011Y-106824844D01*
X123448627Y-107000921D01*
X122518000Y-106070294D01*
X122518000Y-104740616D01*
X122536140Y-104722508D01*
X122692821Y-104345179D01*
X122693028Y-104107858D01*
X123066132Y-103953695D01*
X123510136Y-103510465D01*
X123750725Y-102931061D01*
X123750862Y-102774378D01*
X124819620Y-101705620D01*
X125085601Y-101307552D01*
X125179000Y-100838000D01*
X125179000Y-95758000D01*
X125085600Y-95288447D01*
X124819620Y-94890380D01*
X124421553Y-94624400D01*
X123952000Y-94531000D01*
X123482447Y-94624400D01*
X123084380Y-94890380D01*
X122818400Y-95288447D01*
X122725000Y-95758000D01*
X122725000Y-98696190D01*
X122402721Y-98579282D01*
X121812542Y-98605685D01*
X121389920Y-98780741D01*
X121309647Y-99032042D01*
X122174000Y-99896395D01*
X122188143Y-99882253D01*
X122367748Y-100061858D01*
X122353605Y-100076000D01*
X122367748Y-100090143D01*
X122188143Y-100269748D01*
X122174000Y-100255605D01*
X122159858Y-100269748D01*
X121980253Y-100090143D01*
X121994395Y-100076000D01*
X121130042Y-99211647D01*
X121000297Y-99253091D01*
X120971695Y-99183868D01*
X120528465Y-98739864D01*
X119949061Y-98499275D01*
X119348263Y-98498750D01*
X119235156Y-98225011D01*
X118946508Y-97935860D01*
X118569179Y-97779179D01*
X118160613Y-97778822D01*
X117783011Y-97934844D01*
X117763822Y-97954000D01*
X115824000Y-97954000D01*
X115497954Y-98018855D01*
X115221545Y-98203545D01*
X114909163Y-98515927D01*
X114869061Y-98499275D01*
X114241692Y-98498727D01*
X113661868Y-98738305D01*
X113283730Y-99115784D01*
X112908465Y-98739864D01*
X112329061Y-98499275D01*
X111701692Y-98498727D01*
X111121868Y-98738305D01*
X110743730Y-99115784D01*
X110368465Y-98739864D01*
X109789061Y-98499275D01*
X109161692Y-98498727D01*
X108581868Y-98738305D01*
X108203730Y-99115784D01*
X107828465Y-98739864D01*
X107249061Y-98499275D01*
X106621692Y-98498727D01*
X106041868Y-98738305D01*
X105663730Y-99115784D01*
X105288465Y-98739864D01*
X104709061Y-98499275D01*
X104081692Y-98498727D01*
X103501868Y-98738305D01*
X103057864Y-99181535D01*
X102817275Y-99760939D01*
X102816727Y-100388308D01*
X103056305Y-100968132D01*
X103206911Y-101119001D01*
X103027154Y-101234672D01*
X102861157Y-101477615D01*
X102802758Y-101766000D01*
X102802758Y-103466000D01*
X102853451Y-103735410D01*
X103012672Y-103982846D01*
X103255615Y-104148843D01*
X103544000Y-104207242D01*
X105244000Y-104207242D01*
X105513410Y-104156549D01*
X105760846Y-103997328D01*
X105892420Y-103804764D01*
X106039535Y-103952136D01*
X106618939Y-104192725D01*
X107246308Y-104193273D01*
X107826132Y-103953695D01*
X108204270Y-103576216D01*
X108579535Y-103952136D01*
X109158939Y-104192725D01*
X109786308Y-104193273D01*
X110366132Y-103953695D01*
X110744270Y-103576216D01*
X111119535Y-103952136D01*
X111698939Y-104192725D01*
X112326308Y-104193273D01*
X112906132Y-103953695D01*
X113284270Y-103576216D01*
X113659535Y-103952136D01*
X114238939Y-104192725D01*
X114866308Y-104193273D01*
X115446132Y-103953695D01*
X115824270Y-103576216D01*
X116199535Y-103952136D01*
X116778939Y-104192725D01*
X117406308Y-104193273D01*
X117986132Y-103953695D01*
X118364270Y-103576216D01*
X118739535Y-103952136D01*
X119318939Y-104192725D01*
X119417000Y-104192811D01*
X119417000Y-106299000D01*
X119481855Y-106625046D01*
X119666545Y-106901455D01*
X121607264Y-108842174D01*
X121557860Y-108891492D01*
X121401179Y-109268821D01*
X121401155Y-109295935D01*
X119920545Y-110776545D01*
X119735855Y-111052954D01*
X119671000Y-111379000D01*
X119671000Y-131092090D01*
X117086659Y-133676431D01*
X114305535Y-133684733D01*
X114278951Y-133551088D01*
X114105100Y-133290900D01*
X113844912Y-133117049D01*
X113538000Y-133056000D01*
X99608000Y-133056000D01*
X99608000Y-90083000D01*
X109347000Y-90083000D01*
X109424472Y-90067590D01*
X109503462Y-90067590D01*
X110038071Y-89961250D01*
X110241878Y-89876830D01*
X110327177Y-89841498D01*
X110379509Y-89806531D01*
X110548810Y-89876830D01*
X110937485Y-89877170D01*
X111125018Y-89799683D01*
X111310810Y-89876830D01*
X111699485Y-89877170D01*
X111887018Y-89799683D01*
X112072810Y-89876830D01*
X112461485Y-89877170D01*
X112649018Y-89799683D01*
X112834810Y-89876830D01*
X113223485Y-89877170D01*
X113394473Y-89806519D01*
X113446823Y-89841498D01*
X113446824Y-89841499D01*
X113735929Y-89961250D01*
X114270538Y-90067590D01*
X114349528Y-90067590D01*
X114427000Y-90083000D01*
X135509000Y-90083000D01*
X135586472Y-90067590D01*
X135665462Y-90067590D01*
X136200071Y-89961250D01*
X136403878Y-89876830D01*
X136489177Y-89841498D01*
X136541509Y-89806531D01*
X136710810Y-89876830D01*
X137099485Y-89877170D01*
X137287018Y-89799683D01*
X137472810Y-89876830D01*
X137861485Y-89877170D01*
X138049018Y-89799683D01*
X138234810Y-89876830D01*
X138623485Y-89877170D01*
X138811018Y-89799683D01*
X138996810Y-89876830D01*
X139385485Y-89877170D01*
X139556473Y-89806519D01*
X139608823Y-89841498D01*
X139608824Y-89841499D01*
X139897929Y-89961250D01*
X140432538Y-90067590D01*
X140511528Y-90067590D01*
X140589000Y-90083000D01*
X164846000Y-90083000D01*
X164923472Y-90067590D01*
X165002462Y-90067590D01*
X165537071Y-89961250D01*
X165740878Y-89876830D01*
X165826177Y-89841498D01*
X165878509Y-89806531D01*
X166047810Y-89876830D01*
X166436485Y-89877170D01*
X166624018Y-89799683D01*
X166809810Y-89876830D01*
X167198485Y-89877170D01*
X167386018Y-89799683D01*
X167571810Y-89876830D01*
X167960485Y-89877170D01*
X168148018Y-89799683D01*
X168333810Y-89876830D01*
G36*
X149225000Y-70358000D02*
X149245000Y-70358000D01*
X149245000Y-70612000D01*
X149225000Y-70612000D01*
X149225000Y-71805155D01*
X149454890Y-71926476D01*
X149864924Y-71756645D01*
X150293183Y-71366358D01*
X150328000Y-71292220D01*
X150328000Y-74803000D01*
X150343410Y-74880472D01*
X150343410Y-74959462D01*
X150449750Y-75494071D01*
X150495699Y-75605000D01*
X150569502Y-75783177D01*
X150604469Y-75835509D01*
X150534170Y-76004810D01*
X150533830Y-76393485D01*
X150611317Y-76581018D01*
X150534170Y-76766810D01*
X150533830Y-77155485D01*
X150611317Y-77343018D01*
X150534170Y-77528810D01*
X150533830Y-77917485D01*
X150611317Y-78105018D01*
X150534170Y-78290810D01*
X150533830Y-78679485D01*
X150604481Y-78850473D01*
X150569502Y-78902823D01*
X150554498Y-78939046D01*
X150449750Y-79191929D01*
X150343410Y-79726538D01*
X150343410Y-79805528D01*
X150328000Y-79883000D01*
X150328000Y-85685000D01*
X140589000Y-85685000D01*
X140511528Y-85700410D01*
X139897929Y-85806750D01*
X139608824Y-85926501D01*
X139608823Y-85926502D01*
X139556491Y-85961469D01*
X139387190Y-85891170D01*
X138998515Y-85890830D01*
X138810982Y-85968317D01*
X138625190Y-85891170D01*
X138236515Y-85890830D01*
X138048982Y-85968317D01*
X137863190Y-85891170D01*
X137474515Y-85890830D01*
X137286982Y-85968317D01*
X137101190Y-85891170D01*
X136712515Y-85890830D01*
X136541527Y-85961481D01*
X136489177Y-85926502D01*
X136369425Y-85876899D01*
X136200071Y-85806750D01*
X135665462Y-85700410D01*
X135586472Y-85700410D01*
X135509000Y-85685000D01*
X114427000Y-85685000D01*
X114349528Y-85700410D01*
X113735929Y-85806750D01*
X113446824Y-85926501D01*
X113446823Y-85926502D01*
X113394491Y-85961469D01*
X113225190Y-85891170D01*
X112836515Y-85890830D01*
X112648982Y-85968317D01*
X112463190Y-85891170D01*
X112074515Y-85890830D01*
X111886982Y-85968317D01*
X111701190Y-85891170D01*
X111312515Y-85890830D01*
X111124982Y-85968317D01*
X110939190Y-85891170D01*
X110550515Y-85890830D01*
X110379527Y-85961481D01*
X110327177Y-85926502D01*
X110207425Y-85876899D01*
X110038071Y-85806750D01*
X109503462Y-85700410D01*
X109424472Y-85700410D01*
X109347000Y-85685000D01*
X99608000Y-85685000D01*
X99608000Y-71955245D01*
X99699615Y-72017843D01*
X99988000Y-72076242D01*
X99999375Y-72076242D01*
X100050855Y-72335046D01*
X100235545Y-72611455D01*
X111157545Y-83533455D01*
X111184758Y-83551638D01*
X111184758Y-83781000D01*
X111235451Y-84050410D01*
X111394672Y-84297846D01*
X111637615Y-84463843D01*
X111926000Y-84522242D01*
X113626000Y-84522242D01*
X113895410Y-84471549D01*
X114142846Y-84312328D01*
X114274420Y-84119764D01*
X114421535Y-84267136D01*
X115000939Y-84507725D01*
X115628308Y-84508273D01*
X116208132Y-84268695D01*
X116586270Y-83891216D01*
X116961535Y-84267136D01*
X117540939Y-84507725D01*
X118168308Y-84508273D01*
X118748132Y-84268695D01*
X119126270Y-83891216D01*
X119501535Y-84267136D01*
X120080939Y-84507725D01*
X120708308Y-84508273D01*
X121288132Y-84268695D01*
X121666270Y-83891216D01*
X122041535Y-84267136D01*
X122620939Y-84507725D01*
X123248308Y-84508273D01*
X123828132Y-84268695D01*
X124206270Y-83891216D01*
X124581535Y-84267136D01*
X125160939Y-84507725D01*
X125788308Y-84508273D01*
X126368132Y-84268695D01*
X126746270Y-83891216D01*
X127121535Y-84267136D01*
X127700939Y-84507725D01*
X128328308Y-84508273D01*
X128908132Y-84268695D01*
X129286270Y-83891216D01*
X129661535Y-84267136D01*
X130240939Y-84507725D01*
X130868308Y-84508273D01*
X131448132Y-84268695D01*
X131826270Y-83891216D01*
X132201535Y-84267136D01*
X132780939Y-84507725D01*
X133408308Y-84508273D01*
X133988132Y-84268695D01*
X134366270Y-83891216D01*
X134741535Y-84267136D01*
X135320939Y-84507725D01*
X135948308Y-84508273D01*
X136528132Y-84268695D01*
X136972136Y-83825465D01*
X137212725Y-83246061D01*
X137213273Y-82618692D01*
X136973695Y-82038868D01*
X136530465Y-81594864D01*
X136458782Y-81565099D01*
X136500353Y-81434958D01*
X135636000Y-80570605D01*
X135621858Y-80584748D01*
X135442253Y-80405143D01*
X135456395Y-80391000D01*
X135442253Y-80376858D01*
X135621858Y-80197253D01*
X135636000Y-80211395D01*
X135650143Y-80197253D01*
X135829748Y-80376858D01*
X135815605Y-80391000D01*
X136679958Y-81255353D01*
X136931259Y-81175080D01*
X137132718Y-80619721D01*
X137106315Y-80029542D01*
X136977684Y-79719000D01*
X138176000Y-79719000D01*
X138502046Y-79654145D01*
X138778455Y-79469455D01*
X146221875Y-72026035D01*
X146558000Y-72092895D01*
X147161492Y-71972853D01*
X147673107Y-71631002D01*
X147880991Y-71319882D01*
X147902817Y-71366358D01*
X148331076Y-71756645D01*
X148741110Y-71926476D01*
X148971000Y-71805155D01*
X148971000Y-70612000D01*
X148951000Y-70612000D01*
X148951000Y-70358000D01*
X148971000Y-70358000D01*
X148971000Y-70338000D01*
X149225000Y-70338000D01*
X149225000Y-70358000D01*
X149225000Y-70358000D01*
G37*
X149225000Y-70358000D02*
X149245000Y-70358000D01*
X149245000Y-70612000D01*
X149225000Y-70612000D01*
X149225000Y-71805155D01*
X149454890Y-71926476D01*
X149864924Y-71756645D01*
X150293183Y-71366358D01*
X150328000Y-71292220D01*
X150328000Y-74803000D01*
X150343410Y-74880472D01*
X150343410Y-74959462D01*
X150449750Y-75494071D01*
X150495699Y-75605000D01*
X150569502Y-75783177D01*
X150604469Y-75835509D01*
X150534170Y-76004810D01*
X150533830Y-76393485D01*
X150611317Y-76581018D01*
X150534170Y-76766810D01*
X150533830Y-77155485D01*
X150611317Y-77343018D01*
X150534170Y-77528810D01*
X150533830Y-77917485D01*
X150611317Y-78105018D01*
X150534170Y-78290810D01*
X150533830Y-78679485D01*
X150604481Y-78850473D01*
X150569502Y-78902823D01*
X150554498Y-78939046D01*
X150449750Y-79191929D01*
X150343410Y-79726538D01*
X150343410Y-79805528D01*
X150328000Y-79883000D01*
X150328000Y-85685000D01*
X140589000Y-85685000D01*
X140511528Y-85700410D01*
X139897929Y-85806750D01*
X139608824Y-85926501D01*
X139608823Y-85926502D01*
X139556491Y-85961469D01*
X139387190Y-85891170D01*
X138998515Y-85890830D01*
X138810982Y-85968317D01*
X138625190Y-85891170D01*
X138236515Y-85890830D01*
X138048982Y-85968317D01*
X137863190Y-85891170D01*
X137474515Y-85890830D01*
X137286982Y-85968317D01*
X137101190Y-85891170D01*
X136712515Y-85890830D01*
X136541527Y-85961481D01*
X136489177Y-85926502D01*
X136369425Y-85876899D01*
X136200071Y-85806750D01*
X135665462Y-85700410D01*
X135586472Y-85700410D01*
X135509000Y-85685000D01*
X114427000Y-85685000D01*
X114349528Y-85700410D01*
X113735929Y-85806750D01*
X113446824Y-85926501D01*
X113446823Y-85926502D01*
X113394491Y-85961469D01*
X113225190Y-85891170D01*
X112836515Y-85890830D01*
X112648982Y-85968317D01*
X112463190Y-85891170D01*
X112074515Y-85890830D01*
X111886982Y-85968317D01*
X111701190Y-85891170D01*
X111312515Y-85890830D01*
X111124982Y-85968317D01*
X110939190Y-85891170D01*
X110550515Y-85890830D01*
X110379527Y-85961481D01*
X110327177Y-85926502D01*
X110207425Y-85876899D01*
X110038071Y-85806750D01*
X109503462Y-85700410D01*
X109424472Y-85700410D01*
X109347000Y-85685000D01*
X99608000Y-85685000D01*
X99608000Y-71955245D01*
X99699615Y-72017843D01*
X99988000Y-72076242D01*
X99999375Y-72076242D01*
X100050855Y-72335046D01*
X100235545Y-72611455D01*
X111157545Y-83533455D01*
X111184758Y-83551638D01*
X111184758Y-83781000D01*
X111235451Y-84050410D01*
X111394672Y-84297846D01*
X111637615Y-84463843D01*
X111926000Y-84522242D01*
X113626000Y-84522242D01*
X113895410Y-84471549D01*
X114142846Y-84312328D01*
X114274420Y-84119764D01*
X114421535Y-84267136D01*
X115000939Y-84507725D01*
X115628308Y-84508273D01*
X116208132Y-84268695D01*
X116586270Y-83891216D01*
X116961535Y-84267136D01*
X117540939Y-84507725D01*
X118168308Y-84508273D01*
X118748132Y-84268695D01*
X119126270Y-83891216D01*
X119501535Y-84267136D01*
X120080939Y-84507725D01*
X120708308Y-84508273D01*
X121288132Y-84268695D01*
X121666270Y-83891216D01*
X122041535Y-84267136D01*
X122620939Y-84507725D01*
X123248308Y-84508273D01*
X123828132Y-84268695D01*
X124206270Y-83891216D01*
X124581535Y-84267136D01*
X125160939Y-84507725D01*
X125788308Y-84508273D01*
X126368132Y-84268695D01*
X126746270Y-83891216D01*
X127121535Y-84267136D01*
X127700939Y-84507725D01*
X128328308Y-84508273D01*
X128908132Y-84268695D01*
X129286270Y-83891216D01*
X129661535Y-84267136D01*
X130240939Y-84507725D01*
X130868308Y-84508273D01*
X131448132Y-84268695D01*
X131826270Y-83891216D01*
X132201535Y-84267136D01*
X132780939Y-84507725D01*
X133408308Y-84508273D01*
X133988132Y-84268695D01*
X134366270Y-83891216D01*
X134741535Y-84267136D01*
X135320939Y-84507725D01*
X135948308Y-84508273D01*
X136528132Y-84268695D01*
X136972136Y-83825465D01*
X137212725Y-83246061D01*
X137213273Y-82618692D01*
X136973695Y-82038868D01*
X136530465Y-81594864D01*
X136458782Y-81565099D01*
X136500353Y-81434958D01*
X135636000Y-80570605D01*
X135621858Y-80584748D01*
X135442253Y-80405143D01*
X135456395Y-80391000D01*
X135442253Y-80376858D01*
X135621858Y-80197253D01*
X135636000Y-80211395D01*
X135650143Y-80197253D01*
X135829748Y-80376858D01*
X135815605Y-80391000D01*
X136679958Y-81255353D01*
X136931259Y-81175080D01*
X137132718Y-80619721D01*
X137106315Y-80029542D01*
X136977684Y-79719000D01*
X138176000Y-79719000D01*
X138502046Y-79654145D01*
X138778455Y-79469455D01*
X146221875Y-72026035D01*
X146558000Y-72092895D01*
X147161492Y-71972853D01*
X147673107Y-71631002D01*
X147880991Y-71319882D01*
X147902817Y-71366358D01*
X148331076Y-71756645D01*
X148741110Y-71926476D01*
X148971000Y-71805155D01*
X148971000Y-70612000D01*
X148951000Y-70612000D01*
X148951000Y-70358000D01*
X148971000Y-70358000D01*
X148971000Y-70338000D01*
X149225000Y-70338000D01*
X149225000Y-70358000D01*
G36*
X178943000Y-70358000D02*
X178963000Y-70358000D01*
X178963000Y-70612000D01*
X178943000Y-70612000D01*
X178943000Y-71805155D01*
X179172890Y-71926476D01*
X179582924Y-71756645D01*
X180011183Y-71366358D01*
X180046000Y-71292220D01*
X180046000Y-85685000D01*
X169926000Y-85685000D01*
X169848528Y-85700410D01*
X169234929Y-85806750D01*
X168945824Y-85926501D01*
X168945823Y-85926502D01*
X168893491Y-85961469D01*
X168724190Y-85891170D01*
X168335515Y-85890830D01*
X168147982Y-85968317D01*
X167962190Y-85891170D01*
X167573515Y-85890830D01*
X167385982Y-85968317D01*
X167200190Y-85891170D01*
X166811515Y-85890830D01*
X166623982Y-85968317D01*
X166438190Y-85891170D01*
X166049515Y-85890830D01*
X165878527Y-85961481D01*
X165826177Y-85926502D01*
X165706425Y-85876899D01*
X165537071Y-85806750D01*
X165002462Y-85700410D01*
X164923472Y-85700410D01*
X164846000Y-85685000D01*
X154726000Y-85685000D01*
X154726000Y-79883000D01*
X154710590Y-79805528D01*
X154710590Y-79726538D01*
X154604250Y-79191929D01*
X154484499Y-78902824D01*
X154484498Y-78902823D01*
X154449531Y-78850491D01*
X154519830Y-78681190D01*
X154520170Y-78292515D01*
X154442683Y-78104982D01*
X154519830Y-77919190D01*
X154520170Y-77530515D01*
X154442683Y-77342982D01*
X154519830Y-77157190D01*
X154520170Y-76768515D01*
X154442683Y-76580982D01*
X154519830Y-76395190D01*
X154520170Y-76006515D01*
X154449519Y-75835527D01*
X154484498Y-75783177D01*
X154484499Y-75783176D01*
X154604250Y-75494071D01*
X154710590Y-74959462D01*
X154710590Y-74880472D01*
X154726000Y-74803000D01*
X154726000Y-71955245D01*
X154817615Y-72017843D01*
X155106000Y-72076242D01*
X156342332Y-72076242D01*
X160184000Y-75917910D01*
X160184000Y-82169000D01*
X160248855Y-82495046D01*
X160433545Y-82771455D01*
X161195545Y-83533455D01*
X161222758Y-83551638D01*
X161222758Y-83781000D01*
X161273451Y-84050410D01*
X161432672Y-84297846D01*
X161675615Y-84463843D01*
X161964000Y-84522242D01*
X163664000Y-84522242D01*
X163933410Y-84471549D01*
X164180846Y-84312328D01*
X164312420Y-84119764D01*
X164459535Y-84267136D01*
X165038939Y-84507725D01*
X165666308Y-84508273D01*
X166246132Y-84268695D01*
X166624270Y-83891216D01*
X166999535Y-84267136D01*
X167578939Y-84507725D01*
X168206308Y-84508273D01*
X168786132Y-84268695D01*
X169164270Y-83891216D01*
X169539535Y-84267136D01*
X170118939Y-84507725D01*
X170746308Y-84508273D01*
X171326132Y-84268695D01*
X171704270Y-83891216D01*
X172079535Y-84267136D01*
X172658939Y-84507725D01*
X173286308Y-84508273D01*
X173866132Y-84268695D01*
X174310136Y-83825465D01*
X174550725Y-83246061D01*
X174551273Y-82618692D01*
X174311695Y-82038868D01*
X173868465Y-81594864D01*
X173796782Y-81565099D01*
X173838353Y-81434958D01*
X172974000Y-80570605D01*
X172959858Y-80584748D01*
X172780253Y-80405143D01*
X172794395Y-80391000D01*
X173153605Y-80391000D01*
X174017958Y-81255353D01*
X174269259Y-81175080D01*
X174470718Y-80619721D01*
X174444315Y-80029542D01*
X174269259Y-79606920D01*
X174017958Y-79526647D01*
X173153605Y-80391000D01*
X172794395Y-80391000D01*
X172780253Y-80376858D01*
X172959858Y-80197253D01*
X172974000Y-80211395D01*
X173838353Y-79347042D01*
X173758080Y-79095741D01*
X173202721Y-78894282D01*
X172612542Y-78920685D01*
X172556000Y-78944105D01*
X172556000Y-75409910D01*
X175939875Y-72026035D01*
X176276000Y-72092895D01*
X176879492Y-71972853D01*
X177391107Y-71631002D01*
X177598991Y-71319882D01*
X177620817Y-71366358D01*
X178049076Y-71756645D01*
X178459110Y-71926476D01*
X178689000Y-71805155D01*
X178689000Y-70612000D01*
X178669000Y-70612000D01*
X178669000Y-70358000D01*
X178689000Y-70358000D01*
X178689000Y-70338000D01*
X178943000Y-70338000D01*
X178943000Y-70358000D01*
X178943000Y-70358000D01*
G37*
X178943000Y-70358000D02*
X178963000Y-70358000D01*
X178963000Y-70612000D01*
X178943000Y-70612000D01*
X178943000Y-71805155D01*
X179172890Y-71926476D01*
X179582924Y-71756645D01*
X180011183Y-71366358D01*
X180046000Y-71292220D01*
X180046000Y-85685000D01*
X169926000Y-85685000D01*
X169848528Y-85700410D01*
X169234929Y-85806750D01*
X168945824Y-85926501D01*
X168945823Y-85926502D01*
X168893491Y-85961469D01*
X168724190Y-85891170D01*
X168335515Y-85890830D01*
X168147982Y-85968317D01*
X167962190Y-85891170D01*
X167573515Y-85890830D01*
X167385982Y-85968317D01*
X167200190Y-85891170D01*
X166811515Y-85890830D01*
X166623982Y-85968317D01*
X166438190Y-85891170D01*
X166049515Y-85890830D01*
X165878527Y-85961481D01*
X165826177Y-85926502D01*
X165706425Y-85876899D01*
X165537071Y-85806750D01*
X165002462Y-85700410D01*
X164923472Y-85700410D01*
X164846000Y-85685000D01*
X154726000Y-85685000D01*
X154726000Y-79883000D01*
X154710590Y-79805528D01*
X154710590Y-79726538D01*
X154604250Y-79191929D01*
X154484499Y-78902824D01*
X154484498Y-78902823D01*
X154449531Y-78850491D01*
X154519830Y-78681190D01*
X154520170Y-78292515D01*
X154442683Y-78104982D01*
X154519830Y-77919190D01*
X154520170Y-77530515D01*
X154442683Y-77342982D01*
X154519830Y-77157190D01*
X154520170Y-76768515D01*
X154442683Y-76580982D01*
X154519830Y-76395190D01*
X154520170Y-76006515D01*
X154449519Y-75835527D01*
X154484498Y-75783177D01*
X154484499Y-75783176D01*
X154604250Y-75494071D01*
X154710590Y-74959462D01*
X154710590Y-74880472D01*
X154726000Y-74803000D01*
X154726000Y-71955245D01*
X154817615Y-72017843D01*
X155106000Y-72076242D01*
X156342332Y-72076242D01*
X160184000Y-75917910D01*
X160184000Y-82169000D01*
X160248855Y-82495046D01*
X160433545Y-82771455D01*
X161195545Y-83533455D01*
X161222758Y-83551638D01*
X161222758Y-83781000D01*
X161273451Y-84050410D01*
X161432672Y-84297846D01*
X161675615Y-84463843D01*
X161964000Y-84522242D01*
X163664000Y-84522242D01*
X163933410Y-84471549D01*
X164180846Y-84312328D01*
X164312420Y-84119764D01*
X164459535Y-84267136D01*
X165038939Y-84507725D01*
X165666308Y-84508273D01*
X166246132Y-84268695D01*
X166624270Y-83891216D01*
X166999535Y-84267136D01*
X167578939Y-84507725D01*
X168206308Y-84508273D01*
X168786132Y-84268695D01*
X169164270Y-83891216D01*
X169539535Y-84267136D01*
X170118939Y-84507725D01*
X170746308Y-84508273D01*
X171326132Y-84268695D01*
X171704270Y-83891216D01*
X172079535Y-84267136D01*
X172658939Y-84507725D01*
X173286308Y-84508273D01*
X173866132Y-84268695D01*
X174310136Y-83825465D01*
X174550725Y-83246061D01*
X174551273Y-82618692D01*
X174311695Y-82038868D01*
X173868465Y-81594864D01*
X173796782Y-81565099D01*
X173838353Y-81434958D01*
X172974000Y-80570605D01*
X172959858Y-80584748D01*
X172780253Y-80405143D01*
X172794395Y-80391000D01*
X173153605Y-80391000D01*
X174017958Y-81255353D01*
X174269259Y-81175080D01*
X174470718Y-80619721D01*
X174444315Y-80029542D01*
X174269259Y-79606920D01*
X174017958Y-79526647D01*
X173153605Y-80391000D01*
X172794395Y-80391000D01*
X172780253Y-80376858D01*
X172959858Y-80197253D01*
X172974000Y-80211395D01*
X173838353Y-79347042D01*
X173758080Y-79095741D01*
X173202721Y-78894282D01*
X172612542Y-78920685D01*
X172556000Y-78944105D01*
X172556000Y-75409910D01*
X175939875Y-72026035D01*
X176276000Y-72092895D01*
X176879492Y-71972853D01*
X177391107Y-71631002D01*
X177598991Y-71319882D01*
X177620817Y-71366358D01*
X178049076Y-71756645D01*
X178459110Y-71926476D01*
X178689000Y-71805155D01*
X178689000Y-70612000D01*
X178669000Y-70612000D01*
X178669000Y-70358000D01*
X178689000Y-70358000D01*
X178689000Y-70338000D01*
X178943000Y-70338000D01*
X178943000Y-70358000D01*
G36*
X139065000Y-49530000D02*
X139085000Y-49530000D01*
X139085000Y-49784000D01*
X139065000Y-49784000D01*
X139065000Y-50977155D01*
X139294890Y-51098476D01*
X139704924Y-50928645D01*
X140133183Y-50538358D01*
X140168000Y-50464220D01*
X140168000Y-64857000D01*
X132969000Y-64857000D01*
X132891528Y-64872410D01*
X132277929Y-64978750D01*
X131988824Y-65098501D01*
X131988823Y-65098502D01*
X131936491Y-65133469D01*
X131767190Y-65063170D01*
X131378515Y-65062830D01*
X131190982Y-65140317D01*
X131005190Y-65063170D01*
X130616515Y-65062830D01*
X130428982Y-65140317D01*
X130243190Y-65063170D01*
X129854515Y-65062830D01*
X129666982Y-65140317D01*
X129481190Y-65063170D01*
X129092515Y-65062830D01*
X128921527Y-65133481D01*
X128869177Y-65098502D01*
X128749425Y-65048899D01*
X128580071Y-64978750D01*
X128045462Y-64872410D01*
X127966472Y-64872410D01*
X127889000Y-64857000D01*
X111887000Y-64857000D01*
X111809528Y-64872410D01*
X111195929Y-64978750D01*
X110906824Y-65098501D01*
X110906823Y-65098502D01*
X110854491Y-65133469D01*
X110685190Y-65063170D01*
X110296515Y-65062830D01*
X110108982Y-65140317D01*
X109923190Y-65063170D01*
X109534515Y-65062830D01*
X109346982Y-65140317D01*
X109161190Y-65063170D01*
X108772515Y-65062830D01*
X108584982Y-65140317D01*
X108399190Y-65063170D01*
X108010515Y-65062830D01*
X107839527Y-65133481D01*
X107787177Y-65098502D01*
X107667425Y-65048899D01*
X107498071Y-64978750D01*
X106963462Y-64872410D01*
X106884472Y-64872410D01*
X106807000Y-64857000D01*
X99608000Y-64857000D01*
X99608000Y-51127245D01*
X99699615Y-51189843D01*
X99988000Y-51248242D01*
X101224332Y-51248242D01*
X108368000Y-58391910D01*
X108368000Y-60071000D01*
X108432855Y-60397046D01*
X108617545Y-60673455D01*
X109660758Y-61716668D01*
X109660758Y-62953000D01*
X109711451Y-63222410D01*
X109870672Y-63469846D01*
X110113615Y-63635843D01*
X110402000Y-63694242D01*
X112102000Y-63694242D01*
X112371410Y-63643549D01*
X112618846Y-63484328D01*
X112750420Y-63291764D01*
X112897535Y-63439136D01*
X113476939Y-63679725D01*
X114104308Y-63680273D01*
X114684132Y-63440695D01*
X115062270Y-63063216D01*
X115437535Y-63439136D01*
X116016939Y-63679725D01*
X116644308Y-63680273D01*
X117224132Y-63440695D01*
X117602270Y-63063216D01*
X117977535Y-63439136D01*
X118556939Y-63679725D01*
X119184308Y-63680273D01*
X119764132Y-63440695D01*
X120142270Y-63063216D01*
X120517535Y-63439136D01*
X121096939Y-63679725D01*
X121724308Y-63680273D01*
X122304132Y-63440695D01*
X122682270Y-63063216D01*
X123057535Y-63439136D01*
X123636939Y-63679725D01*
X124264308Y-63680273D01*
X124844132Y-63440695D01*
X125222270Y-63063216D01*
X125597535Y-63439136D01*
X126176939Y-63679725D01*
X126804308Y-63680273D01*
X127384132Y-63440695D01*
X127762270Y-63063216D01*
X128137535Y-63439136D01*
X128716939Y-63679725D01*
X129344308Y-63680273D01*
X129924132Y-63440695D01*
X130368136Y-62997465D01*
X130608725Y-62418061D01*
X130609273Y-61790692D01*
X130369695Y-61210868D01*
X129926465Y-60766864D01*
X129854782Y-60737099D01*
X129896353Y-60606958D01*
X129032000Y-59742605D01*
X129017858Y-59756748D01*
X128838253Y-59577143D01*
X128852395Y-59563000D01*
X129211605Y-59563000D01*
X130075958Y-60427353D01*
X130327259Y-60347080D01*
X130528718Y-59791721D01*
X130502315Y-59201542D01*
X130327259Y-58778920D01*
X130075958Y-58698647D01*
X129211605Y-59563000D01*
X128852395Y-59563000D01*
X128838253Y-59548858D01*
X129017858Y-59369253D01*
X129032000Y-59383395D01*
X129896353Y-58519042D01*
X129816080Y-58267741D01*
X129260721Y-58066282D01*
X129190486Y-58069424D01*
X136061875Y-51198035D01*
X136398000Y-51264895D01*
X137001492Y-51144853D01*
X137513107Y-50803002D01*
X137720991Y-50491882D01*
X137742817Y-50538358D01*
X138171076Y-50928645D01*
X138581110Y-51098476D01*
X138811000Y-50977155D01*
X138811000Y-49784000D01*
X138791000Y-49784000D01*
X138791000Y-49530000D01*
X138811000Y-49530000D01*
X138811000Y-49510000D01*
X139065000Y-49510000D01*
X139065000Y-49530000D01*
X139065000Y-49530000D01*
G37*
X139065000Y-49530000D02*
X139085000Y-49530000D01*
X139085000Y-49784000D01*
X139065000Y-49784000D01*
X139065000Y-50977155D01*
X139294890Y-51098476D01*
X139704924Y-50928645D01*
X140133183Y-50538358D01*
X140168000Y-50464220D01*
X140168000Y-64857000D01*
X132969000Y-64857000D01*
X132891528Y-64872410D01*
X132277929Y-64978750D01*
X131988824Y-65098501D01*
X131988823Y-65098502D01*
X131936491Y-65133469D01*
X131767190Y-65063170D01*
X131378515Y-65062830D01*
X131190982Y-65140317D01*
X131005190Y-65063170D01*
X130616515Y-65062830D01*
X130428982Y-65140317D01*
X130243190Y-65063170D01*
X129854515Y-65062830D01*
X129666982Y-65140317D01*
X129481190Y-65063170D01*
X129092515Y-65062830D01*
X128921527Y-65133481D01*
X128869177Y-65098502D01*
X128749425Y-65048899D01*
X128580071Y-64978750D01*
X128045462Y-64872410D01*
X127966472Y-64872410D01*
X127889000Y-64857000D01*
X111887000Y-64857000D01*
X111809528Y-64872410D01*
X111195929Y-64978750D01*
X110906824Y-65098501D01*
X110906823Y-65098502D01*
X110854491Y-65133469D01*
X110685190Y-65063170D01*
X110296515Y-65062830D01*
X110108982Y-65140317D01*
X109923190Y-65063170D01*
X109534515Y-65062830D01*
X109346982Y-65140317D01*
X109161190Y-65063170D01*
X108772515Y-65062830D01*
X108584982Y-65140317D01*
X108399190Y-65063170D01*
X108010515Y-65062830D01*
X107839527Y-65133481D01*
X107787177Y-65098502D01*
X107667425Y-65048899D01*
X107498071Y-64978750D01*
X106963462Y-64872410D01*
X106884472Y-64872410D01*
X106807000Y-64857000D01*
X99608000Y-64857000D01*
X99608000Y-51127245D01*
X99699615Y-51189843D01*
X99988000Y-51248242D01*
X101224332Y-51248242D01*
X108368000Y-58391910D01*
X108368000Y-60071000D01*
X108432855Y-60397046D01*
X108617545Y-60673455D01*
X109660758Y-61716668D01*
X109660758Y-62953000D01*
X109711451Y-63222410D01*
X109870672Y-63469846D01*
X110113615Y-63635843D01*
X110402000Y-63694242D01*
X112102000Y-63694242D01*
X112371410Y-63643549D01*
X112618846Y-63484328D01*
X112750420Y-63291764D01*
X112897535Y-63439136D01*
X113476939Y-63679725D01*
X114104308Y-63680273D01*
X114684132Y-63440695D01*
X115062270Y-63063216D01*
X115437535Y-63439136D01*
X116016939Y-63679725D01*
X116644308Y-63680273D01*
X117224132Y-63440695D01*
X117602270Y-63063216D01*
X117977535Y-63439136D01*
X118556939Y-63679725D01*
X119184308Y-63680273D01*
X119764132Y-63440695D01*
X120142270Y-63063216D01*
X120517535Y-63439136D01*
X121096939Y-63679725D01*
X121724308Y-63680273D01*
X122304132Y-63440695D01*
X122682270Y-63063216D01*
X123057535Y-63439136D01*
X123636939Y-63679725D01*
X124264308Y-63680273D01*
X124844132Y-63440695D01*
X125222270Y-63063216D01*
X125597535Y-63439136D01*
X126176939Y-63679725D01*
X126804308Y-63680273D01*
X127384132Y-63440695D01*
X127762270Y-63063216D01*
X128137535Y-63439136D01*
X128716939Y-63679725D01*
X129344308Y-63680273D01*
X129924132Y-63440695D01*
X130368136Y-62997465D01*
X130608725Y-62418061D01*
X130609273Y-61790692D01*
X130369695Y-61210868D01*
X129926465Y-60766864D01*
X129854782Y-60737099D01*
X129896353Y-60606958D01*
X129032000Y-59742605D01*
X129017858Y-59756748D01*
X128838253Y-59577143D01*
X128852395Y-59563000D01*
X129211605Y-59563000D01*
X130075958Y-60427353D01*
X130327259Y-60347080D01*
X130528718Y-59791721D01*
X130502315Y-59201542D01*
X130327259Y-58778920D01*
X130075958Y-58698647D01*
X129211605Y-59563000D01*
X128852395Y-59563000D01*
X128838253Y-59548858D01*
X129017858Y-59369253D01*
X129032000Y-59383395D01*
X129896353Y-58519042D01*
X129816080Y-58267741D01*
X129260721Y-58066282D01*
X129190486Y-58069424D01*
X136061875Y-51198035D01*
X136398000Y-51264895D01*
X137001492Y-51144853D01*
X137513107Y-50803002D01*
X137720991Y-50491882D01*
X137742817Y-50538358D01*
X138171076Y-50928645D01*
X138581110Y-51098476D01*
X138811000Y-50977155D01*
X138811000Y-49784000D01*
X138791000Y-49784000D01*
X138791000Y-49530000D01*
X138811000Y-49530000D01*
X138811000Y-49510000D01*
X139065000Y-49510000D01*
X139065000Y-49530000D01*
M02*
