M48
;DRILL file {KiCad 4.0.7} date 05/21/18 09:05:13
;FORMAT={-:-/ absolute / inch / decimal}
FMAT,2
INCH,TZ
T1C0.020
%
G90
G05
M72
T1
X4.555Y-2.6
X4.555Y-2.68
X4.585Y-2.6
X4.585Y-2.68
X4.615Y-2.6
X4.615Y-2.68
X4.645Y-2.6
X4.645Y-2.68
X4.675Y-2.6
X4.675Y-2.68
X4.705Y-2.6
X4.705Y-2.68
X4.735Y-2.6
X4.735Y-2.68
X4.755Y-3.42
X4.755Y-3.5
X4.765Y-2.6
X4.765Y-2.68
X4.785Y-3.42
X4.785Y-3.5
X4.795Y-2.6
X4.795Y-2.68
X4.815Y-3.42
X4.815Y-3.5
X4.825Y-2.6
X4.825Y-2.68
X4.845Y-3.42
X4.845Y-3.5
X4.855Y-2.6
X4.855Y-2.68
X4.875Y-3.42
X4.875Y-3.5
X4.885Y-2.6
X4.885Y-2.68
X4.905Y-3.42
X4.905Y-3.5
X4.935Y-3.42
X4.935Y-3.5
X4.965Y-3.42
X4.965Y-3.5
X4.995Y-3.42
X4.995Y-3.5
X5.025Y-3.42
X5.025Y-3.5
X5.055Y-3.42
X5.055Y-3.5
X5.085Y-3.42
X5.085Y-3.5
X5.565Y-2.065
X5.565Y-2.095
X5.565Y-2.125
X5.565Y-2.155
X5.565Y-2.185
X5.565Y-2.215
X5.565Y-2.245
X5.565Y-2.275
X5.565Y-2.305
X5.565Y-2.335
X5.565Y-2.365
X5.565Y-2.395
X5.645Y-2.065
X5.645Y-2.095
X5.645Y-2.125
X5.645Y-2.155
X5.645Y-2.185
X5.645Y-2.215
X5.645Y-2.245
X5.645Y-2.275
X5.645Y-2.305
X5.645Y-2.335
X5.645Y-2.365
X5.645Y-2.395
T0
M30
