M48
;DRILL file {KiCad 4.0.7} date 05/06/18 08:48:31
;FORMAT={-:-/ absolute / inch / decimal}
FMAT,2
INCH,TZ
T1C0.016
T2C0.024
T3C0.039
%
G90
G05
M72
T1
X4.59Y-3.78
X4.72Y-3.99
X4.75Y-4.2
X4.79Y-4.37
X4.79Y-4.75
X4.81Y-3.56
X4.81Y-3.66
X4.82Y-4.13
X4.82Y-4.29
X4.82Y-4.34
X4.82Y-4.79
X4.85Y-4.3
X4.95Y-4.27
X4.95Y-4.38
X5.05Y-4.38
X5.15Y-4.38
X5.25Y-4.18
X5.26Y-4.39
X5.3Y-4.46
X5.35Y-4.14
X5.35Y-4.51
X5.4Y-4.23
X5.45Y-4.38
X5.45Y-4.61
X5.59Y-4.29
X5.7Y-4.58
X5.7Y-4.83
X5.75Y-4.01
X5.81Y-4.31
X5.81Y-4.37
X5.81Y-4.79
X5.81Y-4.89
X6.17Y-3.56
X6.17Y-3.66
X6.21Y-4.47
X6.21Y-4.7
X6.25Y-4.49
X6.25Y-4.66
X6.46Y-4.28
X6.46Y-4.48
X6.61Y-4.12
X6.7Y-4.21
T2
X4.45Y-5.07
X4.78Y-4.25
X5.09Y-3.8
X5.75Y-4.89
X6.55Y-5.07
T3
X3.9Y-1.88
X3.9Y-2.68
X4.Y-1.88
X4.Y-2.68
X4.04Y-3.83
X4.04Y-3.93
X4.1Y-1.88
X4.1Y-2.68
X4.14Y-3.83
X4.14Y-3.93
X4.2Y-1.88
X4.2Y-2.68
X4.24Y-3.83
X4.24Y-3.93
X4.3Y-1.88
X4.3Y-2.68
X4.31Y-2.27
X4.31Y-2.37
X4.34Y-3.83
X4.34Y-3.93
X4.37Y-3.07
X4.37Y-3.17
X4.4Y-1.88
X4.4Y-2.68
X4.41Y-2.27
X4.41Y-2.37
X4.44Y-3.83
X4.44Y-3.93
X4.47Y-3.07
X4.47Y-3.17
X4.5Y-1.88
X4.5Y-2.68
X4.51Y-2.27
X4.51Y-2.37
X4.54Y-3.83
X4.54Y-3.93
X4.57Y-3.07
X4.57Y-3.17
X4.6Y-1.88
X4.6Y-2.68
X4.61Y-2.27
X4.61Y-2.37
X4.64Y-3.83
X4.64Y-3.93
X4.67Y-3.07
X4.67Y-3.17
X4.7Y-1.88
X4.7Y-2.68
X4.71Y-2.27
X4.71Y-2.37
X4.74Y-3.83
X4.74Y-3.93
X4.77Y-3.07
X4.77Y-3.17
X4.8Y-1.88
X4.8Y-2.68
X4.81Y-2.27
X4.81Y-2.37
X4.87Y-3.07
X4.87Y-3.17
X4.9Y-1.88
X4.9Y-2.68
X4.91Y-2.27
X4.91Y-2.37
X4.97Y-3.07
X4.97Y-3.17
X5.Y-1.88
X5.Y-2.68
X5.01Y-2.27
X5.01Y-2.37
X5.07Y-3.07
X5.07Y-3.17
X5.1Y-1.88
X5.1Y-2.68
X5.17Y-3.07
X5.17Y-3.17
X5.2Y-1.88
X5.2Y-2.68
X5.2Y-3.83
X5.2Y-3.93
X5.27Y-3.07
X5.27Y-3.17
X5.3Y-1.88
X5.3Y-2.68
X5.3Y-3.83
X5.3Y-3.93
X5.4Y-1.88
X5.4Y-2.68
X5.4Y-3.83
X5.4Y-3.93
X5.5Y-2.68
X5.5Y-3.83
X5.5Y-3.93
X5.6Y-2.68
X5.6Y-3.83
X5.6Y-3.93
X5.7Y-2.68
X5.7Y-3.83
X5.7Y-3.93
X5.8Y-2.68
X5.8Y-3.83
X5.8Y-3.93
X5.9Y-3.83
X5.9Y-3.93
X6.Y-3.83
X6.Y-3.93
X6.1Y-3.83
X6.1Y-3.93
X6.2Y-2.68
X6.3Y-2.68
X6.4Y-2.68
X6.47Y-3.07
X6.47Y-3.17
X6.5Y-2.68
X6.56Y-3.83
X6.56Y-3.93
X6.57Y-3.07
X6.57Y-3.17
X6.6Y-2.68
X6.66Y-3.83
X6.66Y-3.93
X6.67Y-3.07
X6.67Y-3.17
X6.7Y-2.68
X6.76Y-3.83
X6.76Y-3.93
X6.77Y-3.07
X6.77Y-3.17
X6.8Y-2.68
X6.86Y-3.83
X6.86Y-3.93
X6.87Y-3.07
X6.87Y-3.17
X6.9Y-2.68
X6.96Y-3.83
X6.96Y-3.93
X7.Y-2.68
X7.1Y-2.68
T0
M30
