G04 #@! TF.FileFunction,Soldermask,Top*
%FSLAX46Y46*%
G04 Gerber Fmt 4.6, Leading zero omitted, Abs format (unit mm)*
G04 Created by KiCad (PCBNEW 4.0.7) date 05/21/18 09:05:03*
%MOMM*%
%LPD*%
G01*
G04 APERTURE LIST*
%ADD10C,0.100000*%
%ADD11R,2.100000X2.100000*%
%ADD12C,2.100000*%
%ADD13O,2.100000X2.100000*%
%ADD14R,2.430000X3.050000*%
%ADD15R,1.400000X6.400000*%
%ADD16R,1.400000X8.400000*%
%ADD17C,0.900000*%
G04 APERTURE END LIST*
D10*
D11*
X133858000Y-102616000D03*
D12*
X133858000Y-100076000D03*
X136398000Y-102616000D03*
X136398000Y-100076000D03*
X138938000Y-102616000D03*
X138938000Y-100076000D03*
X141478000Y-102616000D03*
X141478000Y-100076000D03*
X144018000Y-102616000D03*
X144018000Y-100076000D03*
X146558000Y-102616000D03*
X146558000Y-100076000D03*
X149098000Y-102616000D03*
X149098000Y-100076000D03*
X151638000Y-102616000D03*
X151638000Y-100076000D03*
X154178000Y-102616000D03*
X154178000Y-100076000D03*
X156718000Y-102616000D03*
X156718000Y-100076000D03*
D11*
X104394000Y-102616000D03*
D12*
X104394000Y-100076000D03*
X106934000Y-102616000D03*
X106934000Y-100076000D03*
X109474000Y-102616000D03*
X109474000Y-100076000D03*
X112014000Y-102616000D03*
X112014000Y-100076000D03*
X114554000Y-102616000D03*
X114554000Y-100076000D03*
X117094000Y-102616000D03*
X117094000Y-100076000D03*
X119634000Y-102616000D03*
X119634000Y-100076000D03*
X122174000Y-102616000D03*
X122174000Y-100076000D03*
D11*
X168402000Y-102616000D03*
D12*
X168402000Y-100076000D03*
X170942000Y-102616000D03*
X170942000Y-100076000D03*
X173482000Y-102616000D03*
X173482000Y-100076000D03*
X176022000Y-102616000D03*
X176022000Y-100076000D03*
X178562000Y-102616000D03*
X178562000Y-100076000D03*
D11*
X152654000Y-62103000D03*
D12*
X152654000Y-59563000D03*
X155194000Y-62103000D03*
X155194000Y-59563000D03*
X157734000Y-62103000D03*
X157734000Y-59563000D03*
X160274000Y-62103000D03*
X160274000Y-59563000D03*
X162814000Y-62103000D03*
X162814000Y-59563000D03*
D11*
X111252000Y-62103000D03*
D12*
X111252000Y-59563000D03*
X113792000Y-62103000D03*
X113792000Y-59563000D03*
X116332000Y-62103000D03*
X116332000Y-59563000D03*
X118872000Y-62103000D03*
X118872000Y-59563000D03*
X121412000Y-62103000D03*
X121412000Y-59563000D03*
X123952000Y-62103000D03*
X123952000Y-59563000D03*
X126492000Y-62103000D03*
X126492000Y-59563000D03*
X129032000Y-62103000D03*
X129032000Y-59563000D03*
D11*
X112776000Y-82931000D03*
D12*
X112776000Y-80391000D03*
X115316000Y-82931000D03*
X115316000Y-80391000D03*
X117856000Y-82931000D03*
X117856000Y-80391000D03*
X120396000Y-82931000D03*
X120396000Y-80391000D03*
X122936000Y-82931000D03*
X122936000Y-80391000D03*
X125476000Y-82931000D03*
X125476000Y-80391000D03*
X128016000Y-82931000D03*
X128016000Y-80391000D03*
X130556000Y-82931000D03*
X130556000Y-80391000D03*
X133096000Y-82931000D03*
X133096000Y-80391000D03*
X135636000Y-82931000D03*
X135636000Y-80391000D03*
D11*
X145796000Y-49657000D03*
D13*
X148336000Y-49657000D03*
X150876000Y-49657000D03*
X153416000Y-49657000D03*
X155956000Y-49657000D03*
X158496000Y-49657000D03*
X161036000Y-49657000D03*
X163576000Y-49657000D03*
X166116000Y-49657000D03*
X168656000Y-49657000D03*
D11*
X100838000Y-49657000D03*
D13*
X103378000Y-49657000D03*
X105918000Y-49657000D03*
X108458000Y-49657000D03*
X110998000Y-49657000D03*
X113538000Y-49657000D03*
X116078000Y-49657000D03*
X118618000Y-49657000D03*
X121158000Y-49657000D03*
X123698000Y-49657000D03*
X126238000Y-49657000D03*
X128778000Y-49657000D03*
X131318000Y-49657000D03*
X133858000Y-49657000D03*
X136398000Y-49657000D03*
X138938000Y-49657000D03*
D11*
X100838000Y-70485000D03*
D13*
X103378000Y-70485000D03*
X105918000Y-70485000D03*
X108458000Y-70485000D03*
X110998000Y-70485000D03*
X113538000Y-70485000D03*
X116078000Y-70485000D03*
X118618000Y-70485000D03*
X121158000Y-70485000D03*
X123698000Y-70485000D03*
X126238000Y-70485000D03*
X128778000Y-70485000D03*
X131318000Y-70485000D03*
X133858000Y-70485000D03*
X136398000Y-70485000D03*
X138938000Y-70485000D03*
X141478000Y-70485000D03*
X144018000Y-70485000D03*
X146558000Y-70485000D03*
X149098000Y-70485000D03*
D14*
X173736000Y-107638000D03*
X173736000Y-111818000D03*
X151638000Y-111818000D03*
X151638000Y-107638000D03*
D15*
X168148000Y-139446000D03*
D16*
X165608000Y-140462000D03*
X163068000Y-140462000D03*
X160528000Y-140462000D03*
X157988000Y-140462000D03*
X155448000Y-140462000D03*
X152908000Y-140462000D03*
X150368000Y-140462000D03*
X147828000Y-140462000D03*
X145288000Y-140462000D03*
X142748000Y-140462000D03*
X140208000Y-140462000D03*
X137668000Y-140462000D03*
X135128000Y-140462000D03*
X132588000Y-140462000D03*
X130048000Y-140462000D03*
X127508000Y-140462000D03*
X124968000Y-140462000D03*
X122428000Y-140462000D03*
X119888000Y-140462000D03*
X117348000Y-140462000D03*
X114808000Y-140462000D03*
D15*
X168148000Y-139462000D03*
D16*
X165608000Y-140462000D03*
X163068000Y-140462000D03*
X160528000Y-140462000D03*
X157988000Y-140462000D03*
X155448000Y-140462000D03*
X152908000Y-140462000D03*
X150368000Y-140462000D03*
X147828000Y-140462000D03*
X145288000Y-140462000D03*
X142748000Y-140462000D03*
X140208000Y-140462000D03*
X137668000Y-140462000D03*
X135128000Y-140462000D03*
X132588000Y-140462000D03*
X130048000Y-140462000D03*
X127508000Y-140462000D03*
X124968000Y-140462000D03*
X122428000Y-140462000D03*
X119888000Y-140462000D03*
X117348000Y-140462000D03*
X114808000Y-140462000D03*
D17*
X128397000Y-86868000D03*
X129159000Y-86868000D03*
X127635000Y-86868000D03*
X126873000Y-86868000D03*
X126873000Y-88900000D03*
X127635000Y-88900000D03*
X128397000Y-88900000D03*
X129159000Y-88900000D03*
X126111000Y-88900000D03*
X125349000Y-88900000D03*
X124587000Y-88900000D03*
X123825000Y-88900000D03*
X123825000Y-86868000D03*
X124587000Y-86868000D03*
X123063000Y-86868000D03*
X126111000Y-86868000D03*
X121539000Y-86868000D03*
X122301000Y-86868000D03*
X120777000Y-86868000D03*
X125349000Y-86868000D03*
X120777000Y-88900000D03*
X121539000Y-88900000D03*
X122301000Y-88900000D03*
X123063000Y-88900000D03*
X123317000Y-66040000D03*
X124079000Y-66040000D03*
X122555000Y-66040000D03*
X121793000Y-66040000D03*
X121793000Y-68072000D03*
X122555000Y-68072000D03*
X123317000Y-68072000D03*
X124079000Y-68072000D03*
X121031000Y-68072000D03*
X120269000Y-68072000D03*
X119507000Y-68072000D03*
X118745000Y-68072000D03*
X118745000Y-66040000D03*
X119507000Y-66040000D03*
X117983000Y-66040000D03*
X121031000Y-66040000D03*
X116459000Y-66040000D03*
X117221000Y-66040000D03*
X115697000Y-66040000D03*
X120269000Y-66040000D03*
X115697000Y-68072000D03*
X116459000Y-68072000D03*
X117221000Y-68072000D03*
X117983000Y-68072000D03*
X141351000Y-53213000D03*
X141351000Y-52451000D03*
X141351000Y-53975000D03*
X141351000Y-54737000D03*
X143383000Y-54737000D03*
X143383000Y-53975000D03*
X143383000Y-53213000D03*
X143383000Y-52451000D03*
X143383000Y-55499000D03*
X143383000Y-56261000D03*
X143383000Y-57023000D03*
X143383000Y-57785000D03*
X141351000Y-57785000D03*
X141351000Y-57023000D03*
X141351000Y-58547000D03*
X141351000Y-55499000D03*
X141351000Y-60071000D03*
X141351000Y-59309000D03*
X141351000Y-60833000D03*
X141351000Y-56261000D03*
X143383000Y-60833000D03*
X143383000Y-60071000D03*
X143383000Y-59309000D03*
X143383000Y-58547000D03*
M02*
