G04 #@! TF.FileFunction,Copper,L1,Top,Signal*
%FSLAX46Y46*%
G04 Gerber Fmt 4.6, Leading zero omitted, Abs format (unit mm)*
G04 Created by KiCad (PCBNEW 4.0.7) date 05/21/18 15:56:52*
%MOMM*%
%LPD*%
G01*
G04 APERTURE LIST*
%ADD10C,0.100000*%
%ADD11R,2.030000X2.650000*%
%ADD12R,1.000000X6.000000*%
%ADD13R,1.000000X8.000000*%
%ADD14R,1.727200X1.727200*%
%ADD15O,1.727200X1.727200*%
%ADD16C,0.600000*%
%ADD17C,0.800000*%
%ADD18C,0.250000*%
%ADD19C,1.000000*%
%ADD20C,0.254000*%
G04 APERTURE END LIST*
D10*
D11*
X168148000Y-123894000D03*
X168148000Y-128074000D03*
X145542000Y-128074000D03*
X145542000Y-123894000D03*
D12*
X168148000Y-139446000D03*
D13*
X165608000Y-140462000D03*
X163068000Y-140462000D03*
X160528000Y-140462000D03*
X157988000Y-140462000D03*
X155448000Y-140462000D03*
X152908000Y-140462000D03*
X150368000Y-140462000D03*
X147828000Y-140462000D03*
X145288000Y-140462000D03*
X142748000Y-140462000D03*
X140208000Y-140462000D03*
X137668000Y-140462000D03*
X135128000Y-140462000D03*
X132588000Y-140462000D03*
X130048000Y-140462000D03*
X127508000Y-140462000D03*
X124968000Y-140462000D03*
X122428000Y-140462000D03*
X119888000Y-140462000D03*
X117348000Y-140462000D03*
X114808000Y-140462000D03*
D14*
X110998000Y-97028000D03*
D15*
X110998000Y-94488000D03*
X113538000Y-97028000D03*
X113538000Y-94488000D03*
X116078000Y-97028000D03*
X116078000Y-94488000D03*
X118618000Y-97028000D03*
X118618000Y-94488000D03*
X121158000Y-97028000D03*
X121158000Y-94488000D03*
X123698000Y-97028000D03*
X123698000Y-94488000D03*
X126238000Y-97028000D03*
X126238000Y-94488000D03*
X128778000Y-97028000D03*
X128778000Y-94488000D03*
X131318000Y-97028000D03*
X131318000Y-94488000D03*
X133858000Y-97028000D03*
X133858000Y-94488000D03*
X136398000Y-97028000D03*
X136398000Y-94488000D03*
X138938000Y-97028000D03*
X138938000Y-94488000D03*
X141478000Y-97028000D03*
X141478000Y-94488000D03*
X144018000Y-97028000D03*
X144018000Y-94488000D03*
X146558000Y-97028000D03*
X146558000Y-94488000D03*
X149098000Y-97028000D03*
X149098000Y-94488000D03*
X151638000Y-97028000D03*
X151638000Y-94488000D03*
X154178000Y-97028000D03*
X154178000Y-94488000D03*
X156718000Y-97028000D03*
X156718000Y-94488000D03*
X159258000Y-97028000D03*
X159258000Y-94488000D03*
X161798000Y-97028000D03*
X161798000Y-94488000D03*
X164338000Y-97028000D03*
X164338000Y-94488000D03*
X166878000Y-97028000D03*
X166878000Y-94488000D03*
X169418000Y-97028000D03*
X169418000Y-94488000D03*
X171958000Y-97028000D03*
X171958000Y-94488000D03*
D16*
X114554000Y-98806000D03*
X131064000Y-104902000D03*
X125984000Y-104902000D03*
X132080000Y-104140000D03*
X125476000Y-104140000D03*
X132842000Y-103378000D03*
X125984000Y-103378000D03*
X133604000Y-102616000D03*
X125476000Y-102616000D03*
X134112000Y-101346000D03*
X131318000Y-100076000D03*
X123698000Y-99822000D03*
X149860000Y-130810000D03*
X155194000Y-130810000D03*
X138430000Y-102108000D03*
X135382000Y-124460000D03*
X124206000Y-124460000D03*
D17*
X114046000Y-132080000D03*
D16*
X136906000Y-100076000D03*
X152654000Y-121158000D03*
X136398000Y-99314000D03*
X151130000Y-120396000D03*
X151638000Y-119634000D03*
X150368000Y-119126000D03*
X142748000Y-100838000D03*
X151130000Y-118618000D03*
X145288000Y-104648000D03*
X149098000Y-101600000D03*
X147828000Y-101600000D03*
X154178000Y-121666000D03*
X150368000Y-102362000D03*
X154178000Y-101600000D03*
X154940000Y-121158000D03*
X156718000Y-101854000D03*
X155448000Y-101092000D03*
X159258000Y-100584000D03*
X157988000Y-101092000D03*
X143510000Y-135890000D03*
X161798000Y-100076000D03*
D17*
X145542000Y-121729002D03*
X168148000Y-132080000D03*
X145542000Y-130302000D03*
D16*
X125476000Y-105664000D03*
X134112000Y-106934000D03*
D18*
X124968000Y-106680000D02*
X126238000Y-107950000D01*
X126238000Y-107950000D02*
X126238000Y-109220000D01*
X124714000Y-106426000D02*
X124968000Y-106680000D01*
X122428000Y-140462000D02*
X122428000Y-136144000D01*
X124714000Y-135636000D02*
X126238000Y-134112000D01*
X126238000Y-134112000D02*
X126238000Y-109220000D01*
X123190000Y-135636000D02*
X124714000Y-135636000D01*
X122936000Y-135636000D02*
X123190000Y-135636000D01*
X122428000Y-136144000D02*
X122936000Y-135636000D01*
X120142000Y-101854000D02*
X118110000Y-99822000D01*
X118110000Y-99822000D02*
X117094000Y-99822000D01*
X124714000Y-106426000D02*
X120142000Y-101854000D01*
X116078000Y-98806000D02*
X114554000Y-98806000D01*
X117094000Y-99822000D02*
X116078000Y-98806000D01*
X124333000Y-107569000D02*
X125222000Y-108458000D01*
X125222000Y-108458000D02*
X125222000Y-109220000D01*
X124206000Y-107442000D02*
X124333000Y-107569000D01*
X116840000Y-100838000D02*
X116643998Y-100838000D01*
X116643998Y-100838000D02*
X115881998Y-100076000D01*
X115881998Y-100076000D02*
X113284000Y-100076000D01*
X113284000Y-100076000D02*
X112268000Y-99060000D01*
X112268000Y-99060000D02*
X112268000Y-95758000D01*
X112268000Y-95758000D02*
X110998000Y-94488000D01*
X117602000Y-100838000D02*
X116840000Y-100838000D01*
X124206000Y-107442000D02*
X117602000Y-100838000D01*
X117348000Y-135890000D02*
X118618000Y-134620000D01*
X125222000Y-108654002D02*
X125222000Y-108654002D01*
X125222000Y-133661998D02*
X125222000Y-109220000D01*
X125222000Y-109220000D02*
X125222000Y-108654002D01*
X124263998Y-134620000D02*
X125222000Y-133661998D01*
X118618000Y-134620000D02*
X124263998Y-134620000D01*
X117348000Y-140462000D02*
X117348000Y-135890000D01*
X124460000Y-106934000D02*
X125730000Y-108204000D01*
X124460000Y-106934000D02*
X117856000Y-100330000D01*
X117856000Y-100330000D02*
X117602000Y-100330000D01*
X125730000Y-108458000D02*
X125730000Y-108204000D01*
X119888000Y-136144000D02*
X120846002Y-135185998D01*
X125730000Y-133858000D02*
X125730000Y-108458000D01*
X124402002Y-135185998D02*
X125730000Y-133858000D01*
X120846002Y-135185998D02*
X124402002Y-135185998D01*
X119888000Y-140462000D02*
X119888000Y-136144000D01*
X116840000Y-100330000D02*
X116078000Y-99568000D01*
X116078000Y-99568000D02*
X113792000Y-99568000D01*
X113792000Y-99568000D02*
X113538000Y-99314000D01*
X117602000Y-100330000D02*
X116840000Y-100330000D01*
X113538000Y-99314000D02*
X113538000Y-97028000D01*
X133038002Y-133350000D02*
X133038002Y-133292002D01*
X133038002Y-133292002D02*
X130810000Y-131064000D01*
X146812000Y-135382000D02*
X146304000Y-134874000D01*
X146304000Y-134874000D02*
X140208000Y-134874000D01*
X120650000Y-100838000D02*
X118618000Y-98806000D01*
X118618000Y-98806000D02*
X117856000Y-98806000D01*
X120904000Y-101092000D02*
X120650000Y-100838000D01*
X124968000Y-104902000D02*
X124714000Y-104902000D01*
X124714000Y-104902000D02*
X120904000Y-101092000D01*
X124996999Y-104902000D02*
X124968000Y-104902000D01*
X125984000Y-104902000D02*
X124996999Y-104902000D01*
X117856000Y-98806000D02*
X116078000Y-97028000D01*
X130810000Y-119380000D02*
X130810000Y-131064000D01*
X139192000Y-133858000D02*
X140208000Y-134874000D01*
X133546002Y-133858000D02*
X139192000Y-133858000D01*
X133038002Y-133350000D02*
X133546002Y-133858000D01*
X130810000Y-105156000D02*
X131064000Y-104902000D01*
X130810000Y-119380000D02*
X130810000Y-105156000D01*
X147828000Y-140462000D02*
X147828000Y-136398000D01*
X147828000Y-136398000D02*
X146812000Y-135382000D01*
X133350000Y-132842000D02*
X131260002Y-130752002D01*
X147066000Y-134874000D02*
X146558000Y-134366000D01*
X146558000Y-134366000D02*
X140404002Y-134366000D01*
X120904000Y-100330000D02*
X118872000Y-98298000D01*
X118872000Y-98298000D02*
X118618000Y-98298000D01*
X124968000Y-104140000D02*
X124714000Y-104140000D01*
X124714000Y-104140000D02*
X120904000Y-100330000D01*
X125476000Y-104140000D02*
X124968000Y-104140000D01*
X118618000Y-98298000D02*
X118110000Y-98298000D01*
X117348000Y-97536000D02*
X117348000Y-95758000D01*
X118110000Y-98298000D02*
X117348000Y-97536000D01*
X117348000Y-95758000D02*
X116078000Y-94488000D01*
X131260002Y-118814002D02*
X131260002Y-130752002D01*
X139388002Y-133350000D02*
X140404002Y-134366000D01*
X133858000Y-133350000D02*
X139388002Y-133350000D01*
X133350000Y-132842000D02*
X133858000Y-133350000D01*
X132080000Y-104902000D02*
X132080000Y-104140000D01*
X131260002Y-105721998D02*
X132080000Y-104902000D01*
X131260002Y-118814002D02*
X131260002Y-105721998D01*
X147066000Y-134874000D02*
X148082000Y-135890000D01*
X149860000Y-135890000D02*
X150368000Y-136398000D01*
X148082000Y-135890000D02*
X149860000Y-135890000D01*
X150368000Y-140462000D02*
X150368000Y-136398000D01*
X133604000Y-132391998D02*
X133604000Y-132334000D01*
X133604000Y-132334000D02*
X131826000Y-130556000D01*
X147291001Y-134394999D02*
X146754002Y-133858000D01*
X146754002Y-133858000D02*
X140716000Y-133858000D01*
X119634000Y-98298000D02*
X118618000Y-97282000D01*
X121158000Y-99822000D02*
X119634000Y-98298000D01*
X124996999Y-103378000D02*
X124714000Y-103378000D01*
X124714000Y-103378000D02*
X121158000Y-99822000D01*
X125984000Y-103378000D02*
X124996999Y-103378000D01*
X131826000Y-118364000D02*
X131826000Y-130556000D01*
X139757998Y-132899998D02*
X140716000Y-133858000D01*
X134112000Y-132899998D02*
X139757998Y-132899998D01*
X133604000Y-132391998D02*
X134112000Y-132899998D01*
X132842000Y-104902000D02*
X132842000Y-103378000D01*
X131826000Y-105918000D02*
X132842000Y-104902000D01*
X131826000Y-118364000D02*
X131826000Y-105918000D01*
X118618000Y-97282000D02*
X118618000Y-97028000D01*
X152400000Y-135382000D02*
X152908000Y-135890000D01*
X148278002Y-135382000D02*
X152400000Y-135382000D01*
X147291001Y-134394999D02*
X148278002Y-135382000D01*
X152908000Y-140462000D02*
X152908000Y-135890000D01*
X133858000Y-131826000D02*
X132334000Y-130302000D01*
X119888000Y-97790000D02*
X121412000Y-99314000D01*
X121666000Y-99568000D02*
X121412000Y-99314000D01*
X124968000Y-102616000D02*
X124714000Y-102616000D01*
X124714000Y-102616000D02*
X121666000Y-99568000D01*
X125476000Y-102616000D02*
X124968000Y-102616000D01*
X132334000Y-117602000D02*
X132334000Y-130302000D01*
X154432000Y-134874000D02*
X155448000Y-135890000D01*
X148590000Y-134874000D02*
X154432000Y-134874000D01*
X147066000Y-133350000D02*
X148590000Y-134874000D01*
X140970000Y-133350000D02*
X147066000Y-133350000D01*
X139954000Y-132334000D02*
X140970000Y-133350000D01*
X134366000Y-132334000D02*
X139954000Y-132334000D01*
X133858000Y-131826000D02*
X134366000Y-132334000D01*
X133604000Y-104902000D02*
X133604000Y-102616000D01*
X132334000Y-106172000D02*
X133604000Y-104902000D01*
X132334000Y-117602000D02*
X132334000Y-106172000D01*
X155448000Y-140462000D02*
X155448000Y-135890000D01*
X119888000Y-95758000D02*
X118618000Y-94488000D01*
X119888000Y-97790000D02*
X119888000Y-95758000D01*
D19*
X171958000Y-97028000D02*
X169418000Y-97028000D01*
X166878000Y-97028000D02*
X166878000Y-97282000D01*
X166878000Y-97282000D02*
X168148000Y-98552000D01*
X168148000Y-123894000D02*
X168148000Y-98552000D01*
X168148000Y-98552000D02*
X168148000Y-98298000D01*
X168148000Y-98298000D02*
X169418000Y-97028000D01*
X121158000Y-97028000D02*
X121158000Y-97282000D01*
X121158000Y-97282000D02*
X123698000Y-99822000D01*
X132842000Y-100076000D02*
X134112000Y-101346000D01*
X131318000Y-100076000D02*
X132842000Y-100076000D01*
X155194000Y-130810000D02*
X149860000Y-130810000D01*
X106680000Y-124460000D02*
X124206000Y-124460000D01*
X136398000Y-104140000D02*
X138430000Y-102108000D01*
X136398000Y-123444000D02*
X136398000Y-104140000D01*
X135382000Y-124460000D02*
X136398000Y-123444000D01*
X114808000Y-140462000D02*
X114808000Y-132842000D01*
X114808000Y-132842000D02*
X114046000Y-132080000D01*
X107442000Y-132080000D02*
X106680000Y-131318000D01*
X121158000Y-97028000D02*
X121158000Y-94488000D01*
X121158000Y-94488000D02*
X121158000Y-91948000D01*
X169418000Y-94488000D02*
X169418000Y-91948000D01*
X171958000Y-94488000D02*
X169418000Y-94488000D01*
X169418000Y-94488000D02*
X166878000Y-94488000D01*
X141478000Y-97028000D02*
X141478000Y-94488000D01*
X141478000Y-94488000D02*
X141478000Y-91948000D01*
X107696000Y-91948000D02*
X121158000Y-91948000D01*
X121158000Y-91948000D02*
X141478000Y-91948000D01*
X141478000Y-91948000D02*
X169418000Y-91948000D01*
X106680000Y-92964000D02*
X107696000Y-91948000D01*
X106680000Y-131318000D02*
X106680000Y-124460000D01*
X106680000Y-124460000D02*
X106680000Y-92964000D01*
X114046000Y-132080000D02*
X107442000Y-132080000D01*
X114808000Y-132842000D02*
X114046000Y-132080000D01*
D18*
X126746000Y-122428000D02*
X126746000Y-134366000D01*
X124968000Y-136144000D02*
X124968000Y-140462000D01*
X126746000Y-134366000D02*
X124968000Y-136144000D01*
X125222000Y-98806000D02*
X123698000Y-97282000D01*
X126295998Y-98806000D02*
X125222000Y-98806000D01*
X126746000Y-99256002D02*
X126295998Y-98806000D01*
X126746000Y-122428000D02*
X126746000Y-99256002D01*
X123698000Y-97282000D02*
X123698000Y-97028000D01*
X127254000Y-123190000D02*
X127254000Y-140208000D01*
X127254000Y-140208000D02*
X127508000Y-140462000D01*
X127254000Y-123190000D02*
X127254000Y-99060000D01*
X125476000Y-98298000D02*
X124968000Y-97790000D01*
X126492000Y-98298000D02*
X125476000Y-98298000D01*
X127254000Y-99060000D02*
X126492000Y-98298000D01*
X124968000Y-95758000D02*
X123698000Y-94488000D01*
X124968000Y-97790000D02*
X124968000Y-95758000D01*
X130048000Y-136398000D02*
X130048000Y-134874000D01*
X130048000Y-134874000D02*
X127762000Y-132588000D01*
X127762000Y-122682000D02*
X127762000Y-132588000D01*
X127762000Y-98806000D02*
X126746000Y-97790000D01*
X126746000Y-97790000D02*
X126746000Y-97536000D01*
X127762000Y-122682000D02*
X127762000Y-98806000D01*
X130048000Y-136398000D02*
X130048000Y-140462000D01*
X126746000Y-97536000D02*
X126238000Y-97028000D01*
X131826000Y-135890000D02*
X128270000Y-132334000D01*
X128270000Y-122174000D02*
X128270000Y-132334000D01*
X131826000Y-135890000D02*
X132588000Y-136652000D01*
X132588000Y-136652000D02*
X132588000Y-140462000D01*
X128270000Y-122174000D02*
X128270000Y-98552000D01*
X128270000Y-98552000D02*
X127508000Y-97790000D01*
X127508000Y-95758000D02*
X126238000Y-94488000D01*
X127508000Y-97790000D02*
X127508000Y-95758000D01*
X132080000Y-135383398D02*
X132080000Y-135382000D01*
X132080000Y-135382000D02*
X128778000Y-132080000D01*
X132080000Y-135383398D02*
X132081398Y-135383398D01*
X128778000Y-121666000D02*
X128778000Y-132080000D01*
X134620000Y-135890000D02*
X135128000Y-136398000D01*
X132588000Y-135890000D02*
X134620000Y-135890000D01*
X132081398Y-135383398D02*
X132588000Y-135890000D01*
X135128000Y-140462000D02*
X135128000Y-136398000D01*
X128778000Y-121666000D02*
X128778000Y-97028000D01*
X132334000Y-134874000D02*
X129286000Y-131826000D01*
X129286000Y-121158000D02*
X129286000Y-131826000D01*
X136652000Y-135382000D02*
X137668000Y-136398000D01*
X132842000Y-135382000D02*
X136652000Y-135382000D01*
X132334000Y-134874000D02*
X132842000Y-135382000D01*
X129286000Y-98552000D02*
X130048000Y-97790000D01*
X129286000Y-121158000D02*
X129286000Y-98552000D01*
X137668000Y-140462000D02*
X137668000Y-136398000D01*
X130048000Y-95758000D02*
X128778000Y-94488000D01*
X130048000Y-97790000D02*
X130048000Y-95758000D01*
X132588000Y-134366000D02*
X129794000Y-131572000D01*
X129794000Y-120650000D02*
X129794000Y-131572000D01*
X138684000Y-134874000D02*
X140208000Y-136398000D01*
X133096000Y-134874000D02*
X138684000Y-134874000D01*
X132588000Y-134366000D02*
X133096000Y-134874000D01*
X130556000Y-97790000D02*
X131318000Y-97028000D01*
X130556000Y-98044000D02*
X130556000Y-97790000D01*
X129794000Y-98806000D02*
X130556000Y-98044000D01*
X129794000Y-120650000D02*
X129794000Y-98806000D01*
X140208000Y-140462000D02*
X140208000Y-136398000D01*
X130302000Y-130302000D02*
X130302000Y-131318000D01*
X130302000Y-131318000D02*
X131318000Y-132334000D01*
X132842000Y-133858000D02*
X131318000Y-132334000D01*
X131318000Y-132334000D02*
X130302000Y-131318000D01*
X130302000Y-119888000D02*
X130302000Y-130302000D01*
X132080000Y-98298000D02*
X132588000Y-97790000D01*
X131064000Y-98298000D02*
X132080000Y-98298000D01*
X130302000Y-99060000D02*
X131064000Y-98298000D01*
X130302000Y-119888000D02*
X130302000Y-99060000D01*
X132588000Y-95758000D02*
X131318000Y-94488000D01*
X132588000Y-97790000D02*
X132588000Y-95758000D01*
X142240000Y-135890000D02*
X142748000Y-136398000D01*
X140462000Y-135890000D02*
X142240000Y-135890000D01*
X138938000Y-134366000D02*
X140462000Y-135890000D01*
X133350000Y-134366000D02*
X138938000Y-134366000D01*
X132842000Y-133858000D02*
X133350000Y-134366000D01*
X142748000Y-140462000D02*
X142748000Y-136398000D01*
X143764000Y-120904000D02*
X142240000Y-119380000D01*
X139446000Y-100076000D02*
X136906000Y-100076000D01*
X142240000Y-102870000D02*
X139446000Y-100076000D01*
X142240000Y-119380000D02*
X142240000Y-102870000D01*
X152654000Y-121158000D02*
X150876000Y-121158000D01*
X150876000Y-121158000D02*
X150622000Y-120904000D01*
X150622000Y-120904000D02*
X143764000Y-120904000D01*
X152654000Y-121158000D02*
X152654000Y-121158000D01*
X134112000Y-131318000D02*
X132842000Y-130048000D01*
X134112000Y-105156000D02*
X134112000Y-103124000D01*
X134112000Y-103124000D02*
X135128000Y-102108000D01*
X157988000Y-140462000D02*
X157988000Y-135890000D01*
X135128000Y-95758000D02*
X133858000Y-94488000D01*
X135128000Y-102108000D02*
X135128000Y-95758000D01*
X132842000Y-106426000D02*
X134112000Y-105156000D01*
X132842000Y-130048000D02*
X132842000Y-106426000D01*
X134677998Y-131883998D02*
X134112000Y-131318000D01*
X140265998Y-131883998D02*
X134677998Y-131883998D01*
X141224000Y-132842000D02*
X140265998Y-131883998D01*
X147320000Y-132842000D02*
X141224000Y-132842000D01*
X148901998Y-134423998D02*
X147320000Y-132842000D01*
X156521998Y-134423998D02*
X148901998Y-134423998D01*
X157988000Y-135890000D02*
X156521998Y-134423998D01*
X157480000Y-132899998D02*
X159200002Y-134620000D01*
X164338000Y-134620000D02*
X165608000Y-135890000D01*
X159200002Y-134620000D02*
X164338000Y-134620000D01*
X136144000Y-102616000D02*
X136144000Y-99568000D01*
X136144000Y-99568000D02*
X136398000Y-99314000D01*
X135128000Y-105664000D02*
X135128000Y-103632000D01*
X135128000Y-103632000D02*
X136144000Y-102616000D01*
X165608000Y-140462000D02*
X165608000Y-135890000D01*
X134874000Y-105918000D02*
X135128000Y-105664000D01*
X134874000Y-107188000D02*
X134874000Y-105918000D01*
X134366000Y-107696000D02*
X134874000Y-107188000D01*
X134366000Y-129343998D02*
X134366000Y-107696000D01*
X135324002Y-130302000D02*
X134366000Y-129343998D01*
X140970000Y-130302000D02*
X135324002Y-130302000D01*
X142043998Y-131375998D02*
X140970000Y-130302000D01*
X148139998Y-131375998D02*
X142043998Y-131375998D01*
X149663998Y-132899998D02*
X148139998Y-131375998D01*
X157480000Y-132899998D02*
X149663998Y-132899998D01*
X134366000Y-130810000D02*
X133350000Y-129794000D01*
X157226000Y-134366000D02*
X156833996Y-133973996D01*
X156833996Y-133973996D02*
X155956000Y-133973996D01*
X160020000Y-135636000D02*
X160528000Y-136144000D01*
X158496000Y-135636000D02*
X160020000Y-135636000D01*
X157226000Y-134366000D02*
X158496000Y-135636000D01*
X134620000Y-105410000D02*
X134620000Y-103378000D01*
X134620000Y-103378000D02*
X135636000Y-102362000D01*
X135636000Y-102362000D02*
X135636000Y-98806000D01*
X137160000Y-98298000D02*
X137668000Y-97790000D01*
X136144000Y-98298000D02*
X137160000Y-98298000D01*
X135636000Y-98806000D02*
X136144000Y-98298000D01*
X160528000Y-140462000D02*
X160528000Y-136144000D01*
X137668000Y-95758000D02*
X136398000Y-94488000D01*
X137668000Y-97790000D02*
X137668000Y-95758000D01*
X133350000Y-106680000D02*
X134620000Y-105410000D01*
X133350000Y-129794000D02*
X133350000Y-106680000D01*
X134936801Y-131380801D02*
X134366000Y-130810000D01*
X140524801Y-131380801D02*
X134936801Y-131380801D01*
X141478000Y-132334000D02*
X140524801Y-131380801D01*
X147574000Y-132334000D02*
X141478000Y-132334000D01*
X149213996Y-133973996D02*
X147574000Y-132334000D01*
X155956000Y-133973996D02*
X149213996Y-133973996D01*
X144018000Y-120396000D02*
X142748000Y-119126000D01*
X138938000Y-98806000D02*
X138938000Y-97028000D01*
X142748000Y-102616000D02*
X138938000Y-98806000D01*
X142748000Y-119126000D02*
X142748000Y-102616000D01*
X151130000Y-120396000D02*
X144018000Y-120396000D01*
X144272000Y-119888000D02*
X143256000Y-118872000D01*
X140208000Y-99314000D02*
X140208000Y-97536000D01*
X143256000Y-102362000D02*
X140208000Y-99314000D01*
X143256000Y-102616000D02*
X143256000Y-102362000D01*
X143256000Y-118872000D02*
X143256000Y-102616000D01*
X151130000Y-119634000D02*
X150876000Y-119634000D01*
X150876000Y-119634000D02*
X150622000Y-119888000D01*
X151638000Y-119634000D02*
X151384000Y-119634000D01*
X150622000Y-119888000D02*
X144272000Y-119888000D01*
X151384000Y-119634000D02*
X151130000Y-119634000D01*
X140208000Y-95758000D02*
X138938000Y-94488000D01*
X140208000Y-97536000D02*
X140208000Y-95758000D01*
X150368000Y-119126000D02*
X150114000Y-119380000D01*
X144018000Y-118872000D02*
X144018000Y-117856000D01*
X144526000Y-119380000D02*
X144018000Y-118872000D01*
X150114000Y-119380000D02*
X144526000Y-119380000D01*
X144018000Y-117856000D02*
X144018000Y-97028000D01*
X142748000Y-95758000D02*
X144018000Y-94488000D01*
X142748000Y-100838000D02*
X142748000Y-95758000D01*
X150876000Y-118364000D02*
X150622000Y-118364000D01*
X151130000Y-118618000D02*
X150876000Y-118364000D01*
X144526000Y-117856000D02*
X144526000Y-118364000D01*
X149548002Y-118929998D02*
X150114000Y-118364000D01*
X145091998Y-118929998D02*
X149548002Y-118929998D01*
X144526000Y-118364000D02*
X145091998Y-118929998D01*
X150622000Y-118364000D02*
X150114000Y-118364000D01*
X146558000Y-104394000D02*
X144526000Y-106426000D01*
X146558000Y-104394000D02*
X146558000Y-97028000D01*
X144526000Y-117856000D02*
X144526000Y-106426000D01*
X145288000Y-104648000D02*
X145288000Y-103632000D01*
X145288000Y-95758000D02*
X146558000Y-94488000D01*
X145288000Y-103632000D02*
X145288000Y-95758000D01*
X149098000Y-101600000D02*
X149098000Y-97028000D01*
X147828000Y-95758000D02*
X149098000Y-94488000D01*
X147828000Y-101600000D02*
X147828000Y-95758000D01*
X154178000Y-121666000D02*
X153670000Y-121158000D01*
X152400000Y-118618000D02*
X151638000Y-117856000D01*
X152400000Y-101346000D02*
X152400000Y-97790000D01*
X152400000Y-97790000D02*
X151638000Y-97028000D01*
X152400000Y-119888000D02*
X153670000Y-121158000D01*
X152400000Y-118618000D02*
X152400000Y-119888000D01*
X151638000Y-117856000D02*
X149975996Y-117856000D01*
X149975996Y-117856000D02*
X149352000Y-118479996D01*
X149352000Y-118479996D02*
X145403996Y-118479996D01*
X145403996Y-118479996D02*
X145034000Y-118110000D01*
X145034000Y-118110000D02*
X145034000Y-106680000D01*
X145034000Y-106680000D02*
X148590000Y-103124000D01*
X148590000Y-103124000D02*
X150622000Y-103124000D01*
X150622000Y-103124000D02*
X152400000Y-101346000D01*
X150368000Y-95758000D02*
X151638000Y-94488000D01*
X150368000Y-102362000D02*
X150368000Y-95758000D01*
X154178000Y-101600000D02*
X154178000Y-97028000D01*
X154940000Y-121158000D02*
X154432000Y-120650000D01*
X152908000Y-118364000D02*
X151892000Y-117348000D01*
X150876000Y-103632000D02*
X152908000Y-101600000D01*
X148786002Y-103632000D02*
X150876000Y-103632000D01*
X145542000Y-106876002D02*
X148786002Y-103632000D01*
X145542000Y-117602000D02*
X145542000Y-106876002D01*
X145969994Y-118029994D02*
X145542000Y-117602000D01*
X148924006Y-118029994D02*
X145969994Y-118029994D01*
X149606000Y-117348000D02*
X148924006Y-118029994D01*
X149860000Y-117348000D02*
X149606000Y-117348000D01*
X151892000Y-117348000D02*
X149860000Y-117348000D01*
X152908000Y-118364000D02*
X152908000Y-119634000D01*
X153924000Y-120650000D02*
X154432000Y-120650000D01*
X152908000Y-119634000D02*
X153924000Y-120650000D01*
X152908000Y-95758000D02*
X154178000Y-94488000D01*
X152908000Y-101600000D02*
X152908000Y-95758000D01*
X156718000Y-101854000D02*
X156718000Y-97028000D01*
X155448000Y-95758000D02*
X156718000Y-94488000D01*
X155448000Y-101092000D02*
X155448000Y-95758000D01*
X159258000Y-100584000D02*
X159258000Y-97028000D01*
X145288000Y-140462000D02*
X145288000Y-136398000D01*
X157988000Y-95758000D02*
X159258000Y-94488000D01*
X157988000Y-101092000D02*
X157988000Y-95758000D01*
X144780000Y-135890000D02*
X143510000Y-135890000D01*
X145288000Y-136398000D02*
X144780000Y-135890000D01*
X161798000Y-100076000D02*
X161798000Y-97028000D01*
D19*
X145542000Y-123894000D02*
X145542000Y-121729002D01*
X168148000Y-139446000D02*
X168148000Y-132080000D01*
X168148000Y-132080000D02*
X168148000Y-128074000D01*
X145542000Y-130302000D02*
X145542000Y-128074000D01*
D18*
X124714000Y-105664000D02*
X124460000Y-105410000D01*
X125476000Y-105664000D02*
X124714000Y-105664000D01*
X156972000Y-133350000D02*
X158750000Y-135128000D01*
X162052000Y-135128000D02*
X163068000Y-136144000D01*
X158750000Y-135128000D02*
X162052000Y-135128000D01*
X120396000Y-101346000D02*
X118364000Y-99314000D01*
X118364000Y-99314000D02*
X117602000Y-99314000D01*
X120650000Y-101600000D02*
X120396000Y-101346000D01*
X124460000Y-105410000D02*
X120650000Y-101600000D01*
X163068000Y-140462000D02*
X163068000Y-136144000D01*
X114808000Y-95758000D02*
X113538000Y-94488000D01*
X114808000Y-97790000D02*
X114808000Y-95758000D01*
X115316000Y-98298000D02*
X114808000Y-97790000D01*
X116586000Y-98298000D02*
X115316000Y-98298000D01*
X117602000Y-99314000D02*
X116586000Y-98298000D01*
X133858000Y-107188000D02*
X134112000Y-106934000D01*
X133858000Y-129540000D02*
X133858000Y-107188000D01*
X135128000Y-130810000D02*
X133858000Y-129540000D01*
X140716000Y-130810000D02*
X135128000Y-130810000D01*
X141732000Y-131826000D02*
X140716000Y-130810000D01*
X147828000Y-131826000D02*
X141732000Y-131826000D01*
X149352000Y-133350000D02*
X147828000Y-131826000D01*
X156972000Y-133350000D02*
X149352000Y-133350000D01*
D20*
G36*
X176998000Y-132802000D02*
X169418000Y-132802000D01*
X169375000Y-132810553D01*
X169375000Y-130100351D01*
X169432410Y-130089549D01*
X169679846Y-129930328D01*
X169845843Y-129687385D01*
X169904242Y-129399000D01*
X169904242Y-126749000D01*
X169853549Y-126479590D01*
X169694328Y-126232154D01*
X169451385Y-126066157D01*
X169163000Y-126007758D01*
X167133000Y-126007758D01*
X166863590Y-126058451D01*
X166616154Y-126217672D01*
X166450157Y-126460615D01*
X166391758Y-126749000D01*
X166391758Y-129399000D01*
X166442451Y-129668410D01*
X166601672Y-129915846D01*
X166844615Y-130081843D01*
X166921000Y-130097311D01*
X166921000Y-136017000D01*
X166685560Y-136017000D01*
X166639328Y-135945154D01*
X166444490Y-135812026D01*
X166395145Y-135563954D01*
X166210455Y-135287545D01*
X164940455Y-134017545D01*
X164664046Y-133832855D01*
X164338000Y-133768000D01*
X159552912Y-133768000D01*
X158082455Y-132297543D01*
X157806046Y-132112853D01*
X157480000Y-132047998D01*
X150016908Y-132047998D01*
X148742453Y-130773543D01*
X148466044Y-130588853D01*
X148139998Y-130523998D01*
X146724842Y-130523998D01*
X146769000Y-130302000D01*
X146769000Y-130100351D01*
X146826410Y-130089549D01*
X147073846Y-129930328D01*
X147239843Y-129687385D01*
X147298242Y-129399000D01*
X147298242Y-126749000D01*
X147247549Y-126479590D01*
X147088328Y-126232154D01*
X146845385Y-126066157D01*
X146557000Y-126007758D01*
X144527000Y-126007758D01*
X144257590Y-126058451D01*
X144010154Y-126217672D01*
X143844157Y-126460615D01*
X143785758Y-126749000D01*
X143785758Y-129399000D01*
X143836451Y-129668410D01*
X143995672Y-129915846D01*
X144238615Y-130081843D01*
X144315000Y-130097311D01*
X144315000Y-130302000D01*
X144359158Y-130523998D01*
X142396908Y-130523998D01*
X141572455Y-129699545D01*
X141296046Y-129514855D01*
X140970000Y-129450000D01*
X135676912Y-129450000D01*
X135218000Y-128991088D01*
X135218000Y-108048910D01*
X135476455Y-107790455D01*
X135661145Y-107514047D01*
X135726000Y-107188000D01*
X135726000Y-106270910D01*
X135730455Y-106266455D01*
X135915145Y-105990046D01*
X135980000Y-105664000D01*
X135980000Y-103984910D01*
X136746455Y-103218455D01*
X136931145Y-102942046D01*
X136996000Y-102616000D01*
X136996000Y-101103079D01*
X137109387Y-101103178D01*
X137486989Y-100947156D01*
X137506178Y-100928000D01*
X139093090Y-100928000D01*
X141388000Y-103222910D01*
X141388000Y-119380000D01*
X141452855Y-119706046D01*
X141637545Y-119982455D01*
X143161545Y-121506455D01*
X143437953Y-121691145D01*
X143764000Y-121756000D01*
X144315000Y-121756000D01*
X144315000Y-121867649D01*
X144257590Y-121878451D01*
X144010154Y-122037672D01*
X143844157Y-122280615D01*
X143785758Y-122569000D01*
X143785758Y-125219000D01*
X143836451Y-125488410D01*
X143995672Y-125735846D01*
X144238615Y-125901843D01*
X144527000Y-125960242D01*
X146557000Y-125960242D01*
X146826410Y-125909549D01*
X147073846Y-125750328D01*
X147239843Y-125507385D01*
X147298242Y-125219000D01*
X147298242Y-122569000D01*
X147247549Y-122299590D01*
X147088328Y-122052154D01*
X146845385Y-121886157D01*
X146769000Y-121870689D01*
X146769000Y-121756000D01*
X150269090Y-121756000D01*
X150273545Y-121760455D01*
X150549954Y-121945145D01*
X150876000Y-122010000D01*
X152053384Y-122010000D01*
X152071492Y-122028140D01*
X152448821Y-122184821D01*
X152857387Y-122185178D01*
X153219484Y-122035562D01*
X153306844Y-122246989D01*
X153595492Y-122536140D01*
X153972821Y-122692821D01*
X154381387Y-122693178D01*
X154758989Y-122537156D01*
X155048140Y-122248508D01*
X155074462Y-122185118D01*
X155143387Y-122185178D01*
X155520989Y-122029156D01*
X155810140Y-121740508D01*
X155966821Y-121363179D01*
X155967178Y-120954613D01*
X155811156Y-120577011D01*
X155522508Y-120287860D01*
X155145179Y-120131179D01*
X155118065Y-120131155D01*
X155034455Y-120047545D01*
X154758046Y-119862855D01*
X154432000Y-119798000D01*
X154276910Y-119798000D01*
X153760000Y-119281090D01*
X153760000Y-118364000D01*
X153695145Y-118037954D01*
X153510455Y-117761545D01*
X152494455Y-116745545D01*
X152218046Y-116560855D01*
X151892000Y-116496000D01*
X149606000Y-116496000D01*
X149279954Y-116560855D01*
X149003545Y-116745545D01*
X148571096Y-117177994D01*
X146394000Y-117177994D01*
X146394000Y-107228912D01*
X149138912Y-104484000D01*
X150876000Y-104484000D01*
X151202046Y-104419145D01*
X151478455Y-104234455D01*
X153419285Y-102293625D01*
X153595492Y-102470140D01*
X153972821Y-102626821D01*
X154381387Y-102627178D01*
X154758989Y-102471156D01*
X155048140Y-102182508D01*
X155099327Y-102059237D01*
X155242821Y-102118821D01*
X155651387Y-102119178D01*
X155706879Y-102096249D01*
X155846844Y-102434989D01*
X156135492Y-102724140D01*
X156512821Y-102880821D01*
X156921387Y-102881178D01*
X157298989Y-102725156D01*
X157588140Y-102436508D01*
X157729286Y-102096591D01*
X157782821Y-102118821D01*
X158191387Y-102119178D01*
X158568989Y-101963156D01*
X158858140Y-101674508D01*
X158909327Y-101551237D01*
X159052821Y-101610821D01*
X159461387Y-101611178D01*
X159838989Y-101455156D01*
X160128140Y-101166508D01*
X160284821Y-100789179D01*
X160285178Y-100380613D01*
X160129156Y-100003011D01*
X160110000Y-99983822D01*
X160110000Y-98366114D01*
X160382724Y-98183886D01*
X160528000Y-97966465D01*
X160673276Y-98183886D01*
X160946000Y-98366114D01*
X160946000Y-99475384D01*
X160927860Y-99493492D01*
X160771179Y-99870821D01*
X160770822Y-100279387D01*
X160926844Y-100656989D01*
X161215492Y-100946140D01*
X161592821Y-101102821D01*
X162001387Y-101103178D01*
X162378989Y-100947156D01*
X162668140Y-100658508D01*
X162824821Y-100281179D01*
X162825178Y-99872613D01*
X162669156Y-99495011D01*
X162650000Y-99475822D01*
X162650000Y-98366114D01*
X162922724Y-98183886D01*
X163068000Y-97966465D01*
X163213276Y-98183886D01*
X163729304Y-98528685D01*
X164338000Y-98649762D01*
X164946696Y-98528685D01*
X165462724Y-98183886D01*
X165608000Y-97966465D01*
X165753276Y-98183886D01*
X166269304Y-98528685D01*
X166419276Y-98558516D01*
X166921000Y-99060240D01*
X166921000Y-121867649D01*
X166863590Y-121878451D01*
X166616154Y-122037672D01*
X166450157Y-122280615D01*
X166391758Y-122569000D01*
X166391758Y-125219000D01*
X166442451Y-125488410D01*
X166601672Y-125735846D01*
X166844615Y-125901843D01*
X167133000Y-125960242D01*
X169163000Y-125960242D01*
X169432410Y-125909549D01*
X169679846Y-125750328D01*
X169845843Y-125507385D01*
X169904242Y-125219000D01*
X169904242Y-122569000D01*
X169853549Y-122299590D01*
X169694328Y-122052154D01*
X169451385Y-121886157D01*
X169375000Y-121870689D01*
X169375000Y-98806240D01*
X169559655Y-98621585D01*
X170026696Y-98528685D01*
X170436294Y-98255000D01*
X170939706Y-98255000D01*
X171349304Y-98528685D01*
X171958000Y-98649762D01*
X172566696Y-98528685D01*
X173082724Y-98183886D01*
X173427523Y-97667858D01*
X173548600Y-97059162D01*
X173548600Y-96996838D01*
X173427523Y-96388142D01*
X173082724Y-95872114D01*
X172816624Y-95694311D01*
X173164821Y-95376490D01*
X173412968Y-94847027D01*
X173292469Y-94615000D01*
X172085000Y-94615000D01*
X172085000Y-94635000D01*
X171831000Y-94635000D01*
X171831000Y-94615000D01*
X169545000Y-94615000D01*
X169545000Y-94635000D01*
X169291000Y-94635000D01*
X169291000Y-94615000D01*
X167005000Y-94615000D01*
X167005000Y-94635000D01*
X166751000Y-94635000D01*
X166751000Y-94615000D01*
X166731000Y-94615000D01*
X166731000Y-94361000D01*
X166751000Y-94361000D01*
X166751000Y-93154183D01*
X167005000Y-93154183D01*
X167005000Y-94361000D01*
X169291000Y-94361000D01*
X169291000Y-93154183D01*
X169545000Y-93154183D01*
X169545000Y-94361000D01*
X171831000Y-94361000D01*
X171831000Y-93154183D01*
X172085000Y-93154183D01*
X172085000Y-94361000D01*
X173292469Y-94361000D01*
X173412968Y-94128973D01*
X173164821Y-93599510D01*
X172732947Y-93205312D01*
X172317026Y-93033042D01*
X172085000Y-93154183D01*
X171831000Y-93154183D01*
X171598974Y-93033042D01*
X171183053Y-93205312D01*
X170751179Y-93599510D01*
X170688000Y-93734313D01*
X170624821Y-93599510D01*
X170192947Y-93205312D01*
X169777026Y-93033042D01*
X169545000Y-93154183D01*
X169291000Y-93154183D01*
X169058974Y-93033042D01*
X168643053Y-93205312D01*
X168211179Y-93599510D01*
X168148000Y-93734313D01*
X168084821Y-93599510D01*
X167652947Y-93205312D01*
X167237026Y-93033042D01*
X167005000Y-93154183D01*
X166751000Y-93154183D01*
X166518974Y-93033042D01*
X166103053Y-93205312D01*
X165671179Y-93599510D01*
X165658899Y-93625711D01*
X165462724Y-93332114D01*
X164946696Y-92987315D01*
X164338000Y-92866238D01*
X163729304Y-92987315D01*
X163213276Y-93332114D01*
X163068000Y-93549535D01*
X162922724Y-93332114D01*
X162406696Y-92987315D01*
X161798000Y-92866238D01*
X161189304Y-92987315D01*
X160673276Y-93332114D01*
X160528000Y-93549535D01*
X160382724Y-93332114D01*
X159866696Y-92987315D01*
X159258000Y-92866238D01*
X158649304Y-92987315D01*
X158133276Y-93332114D01*
X157988000Y-93549535D01*
X157842724Y-93332114D01*
X157326696Y-92987315D01*
X156718000Y-92866238D01*
X156109304Y-92987315D01*
X155593276Y-93332114D01*
X155448000Y-93549535D01*
X155302724Y-93332114D01*
X154786696Y-92987315D01*
X154178000Y-92866238D01*
X153569304Y-92987315D01*
X153053276Y-93332114D01*
X152908000Y-93549535D01*
X152762724Y-93332114D01*
X152246696Y-92987315D01*
X151638000Y-92866238D01*
X151029304Y-92987315D01*
X150513276Y-93332114D01*
X150368000Y-93549535D01*
X150222724Y-93332114D01*
X149706696Y-92987315D01*
X149098000Y-92866238D01*
X148489304Y-92987315D01*
X147973276Y-93332114D01*
X147828000Y-93549535D01*
X147682724Y-93332114D01*
X147166696Y-92987315D01*
X146558000Y-92866238D01*
X145949304Y-92987315D01*
X145433276Y-93332114D01*
X145288000Y-93549535D01*
X145142724Y-93332114D01*
X144626696Y-92987315D01*
X144018000Y-92866238D01*
X143409304Y-92987315D01*
X142893276Y-93332114D01*
X142697101Y-93625711D01*
X142684821Y-93599510D01*
X142252947Y-93205312D01*
X141837026Y-93033042D01*
X141605000Y-93154183D01*
X141605000Y-94361000D01*
X141625000Y-94361000D01*
X141625000Y-94615000D01*
X141605000Y-94615000D01*
X141605000Y-96901000D01*
X141625000Y-96901000D01*
X141625000Y-97155000D01*
X141605000Y-97155000D01*
X141605000Y-98361817D01*
X141837026Y-98482958D01*
X141896000Y-98458532D01*
X141896000Y-99797090D01*
X141060000Y-98961090D01*
X141060000Y-98458532D01*
X141118974Y-98482958D01*
X141351000Y-98361817D01*
X141351000Y-97155000D01*
X141331000Y-97155000D01*
X141331000Y-96901000D01*
X141351000Y-96901000D01*
X141351000Y-94615000D01*
X141331000Y-94615000D01*
X141331000Y-94361000D01*
X141351000Y-94361000D01*
X141351000Y-93154183D01*
X141118974Y-93033042D01*
X140703053Y-93205312D01*
X140271179Y-93599510D01*
X140258899Y-93625711D01*
X140062724Y-93332114D01*
X139546696Y-92987315D01*
X138938000Y-92866238D01*
X138329304Y-92987315D01*
X137813276Y-93332114D01*
X137668000Y-93549535D01*
X137522724Y-93332114D01*
X137006696Y-92987315D01*
X136398000Y-92866238D01*
X135789304Y-92987315D01*
X135273276Y-93332114D01*
X135128000Y-93549535D01*
X134982724Y-93332114D01*
X134466696Y-92987315D01*
X133858000Y-92866238D01*
X133249304Y-92987315D01*
X132733276Y-93332114D01*
X132588000Y-93549535D01*
X132442724Y-93332114D01*
X131926696Y-92987315D01*
X131318000Y-92866238D01*
X130709304Y-92987315D01*
X130193276Y-93332114D01*
X130048000Y-93549535D01*
X129902724Y-93332114D01*
X129386696Y-92987315D01*
X128778000Y-92866238D01*
X128169304Y-92987315D01*
X127653276Y-93332114D01*
X127508000Y-93549535D01*
X127362724Y-93332114D01*
X126846696Y-92987315D01*
X126238000Y-92866238D01*
X125629304Y-92987315D01*
X125113276Y-93332114D01*
X124968000Y-93549535D01*
X124822724Y-93332114D01*
X124306696Y-92987315D01*
X123698000Y-92866238D01*
X123089304Y-92987315D01*
X122573276Y-93332114D01*
X122377101Y-93625711D01*
X122364821Y-93599510D01*
X121932947Y-93205312D01*
X121517026Y-93033042D01*
X121285000Y-93154183D01*
X121285000Y-94361000D01*
X121305000Y-94361000D01*
X121305000Y-94615000D01*
X121285000Y-94615000D01*
X121285000Y-96901000D01*
X121305000Y-96901000D01*
X121305000Y-97155000D01*
X121285000Y-97155000D01*
X121285000Y-97175000D01*
X121031000Y-97175000D01*
X121031000Y-97155000D01*
X121011000Y-97155000D01*
X121011000Y-96901000D01*
X121031000Y-96901000D01*
X121031000Y-94615000D01*
X121011000Y-94615000D01*
X121011000Y-94361000D01*
X121031000Y-94361000D01*
X121031000Y-93154183D01*
X120798974Y-93033042D01*
X120383053Y-93205312D01*
X119951179Y-93599510D01*
X119938899Y-93625711D01*
X119742724Y-93332114D01*
X119226696Y-92987315D01*
X118618000Y-92866238D01*
X118009304Y-92987315D01*
X117493276Y-93332114D01*
X117348000Y-93549535D01*
X117202724Y-93332114D01*
X116686696Y-92987315D01*
X116078000Y-92866238D01*
X115469304Y-92987315D01*
X114953276Y-93332114D01*
X114808000Y-93549535D01*
X114662724Y-93332114D01*
X114146696Y-92987315D01*
X113538000Y-92866238D01*
X112929304Y-92987315D01*
X112413276Y-93332114D01*
X112268000Y-93549535D01*
X112122724Y-93332114D01*
X111606696Y-92987315D01*
X110998000Y-92866238D01*
X110389304Y-92987315D01*
X109873276Y-93332114D01*
X109528477Y-93848142D01*
X109407400Y-94456838D01*
X109407400Y-94519162D01*
X109528477Y-95127858D01*
X109791332Y-95521249D01*
X109617554Y-95633072D01*
X109451557Y-95876015D01*
X109393158Y-96164400D01*
X109393158Y-97891600D01*
X109443851Y-98161010D01*
X109603072Y-98408446D01*
X109846015Y-98574443D01*
X110134400Y-98632842D01*
X111416000Y-98632842D01*
X111416000Y-99060000D01*
X111480855Y-99386046D01*
X111665545Y-99662455D01*
X112681545Y-100678455D01*
X112957954Y-100863145D01*
X113284000Y-100928000D01*
X115529088Y-100928000D01*
X116041543Y-101440455D01*
X116317952Y-101625145D01*
X116643998Y-101690000D01*
X117249090Y-101690000D01*
X124370000Y-108810910D01*
X124370000Y-133309088D01*
X123911088Y-133768000D01*
X118618000Y-133768000D01*
X118291954Y-133832855D01*
X118015545Y-134017545D01*
X116745545Y-135287545D01*
X116560855Y-135563954D01*
X116510919Y-135814996D01*
X116331154Y-135930672D01*
X116272168Y-136017000D01*
X115761026Y-136017000D01*
X115667698Y-135923673D01*
X115434309Y-135827000D01*
X115093750Y-135827000D01*
X114935000Y-135985750D01*
X114935000Y-136017000D01*
X114681000Y-136017000D01*
X114681000Y-135985750D01*
X114522250Y-135827000D01*
X114340000Y-135827000D01*
X114340000Y-133604000D01*
X114278951Y-133297088D01*
X114105100Y-133036900D01*
X113844912Y-132863049D01*
X113538000Y-132802000D01*
X106212000Y-132802000D01*
X106212000Y-91734000D01*
X176998000Y-91734000D01*
X176998000Y-132802000D01*
X176998000Y-132802000D01*
G37*
X176998000Y-132802000D02*
X169418000Y-132802000D01*
X169375000Y-132810553D01*
X169375000Y-130100351D01*
X169432410Y-130089549D01*
X169679846Y-129930328D01*
X169845843Y-129687385D01*
X169904242Y-129399000D01*
X169904242Y-126749000D01*
X169853549Y-126479590D01*
X169694328Y-126232154D01*
X169451385Y-126066157D01*
X169163000Y-126007758D01*
X167133000Y-126007758D01*
X166863590Y-126058451D01*
X166616154Y-126217672D01*
X166450157Y-126460615D01*
X166391758Y-126749000D01*
X166391758Y-129399000D01*
X166442451Y-129668410D01*
X166601672Y-129915846D01*
X166844615Y-130081843D01*
X166921000Y-130097311D01*
X166921000Y-136017000D01*
X166685560Y-136017000D01*
X166639328Y-135945154D01*
X166444490Y-135812026D01*
X166395145Y-135563954D01*
X166210455Y-135287545D01*
X164940455Y-134017545D01*
X164664046Y-133832855D01*
X164338000Y-133768000D01*
X159552912Y-133768000D01*
X158082455Y-132297543D01*
X157806046Y-132112853D01*
X157480000Y-132047998D01*
X150016908Y-132047998D01*
X148742453Y-130773543D01*
X148466044Y-130588853D01*
X148139998Y-130523998D01*
X146724842Y-130523998D01*
X146769000Y-130302000D01*
X146769000Y-130100351D01*
X146826410Y-130089549D01*
X147073846Y-129930328D01*
X147239843Y-129687385D01*
X147298242Y-129399000D01*
X147298242Y-126749000D01*
X147247549Y-126479590D01*
X147088328Y-126232154D01*
X146845385Y-126066157D01*
X146557000Y-126007758D01*
X144527000Y-126007758D01*
X144257590Y-126058451D01*
X144010154Y-126217672D01*
X143844157Y-126460615D01*
X143785758Y-126749000D01*
X143785758Y-129399000D01*
X143836451Y-129668410D01*
X143995672Y-129915846D01*
X144238615Y-130081843D01*
X144315000Y-130097311D01*
X144315000Y-130302000D01*
X144359158Y-130523998D01*
X142396908Y-130523998D01*
X141572455Y-129699545D01*
X141296046Y-129514855D01*
X140970000Y-129450000D01*
X135676912Y-129450000D01*
X135218000Y-128991088D01*
X135218000Y-108048910D01*
X135476455Y-107790455D01*
X135661145Y-107514047D01*
X135726000Y-107188000D01*
X135726000Y-106270910D01*
X135730455Y-106266455D01*
X135915145Y-105990046D01*
X135980000Y-105664000D01*
X135980000Y-103984910D01*
X136746455Y-103218455D01*
X136931145Y-102942046D01*
X136996000Y-102616000D01*
X136996000Y-101103079D01*
X137109387Y-101103178D01*
X137486989Y-100947156D01*
X137506178Y-100928000D01*
X139093090Y-100928000D01*
X141388000Y-103222910D01*
X141388000Y-119380000D01*
X141452855Y-119706046D01*
X141637545Y-119982455D01*
X143161545Y-121506455D01*
X143437953Y-121691145D01*
X143764000Y-121756000D01*
X144315000Y-121756000D01*
X144315000Y-121867649D01*
X144257590Y-121878451D01*
X144010154Y-122037672D01*
X143844157Y-122280615D01*
X143785758Y-122569000D01*
X143785758Y-125219000D01*
X143836451Y-125488410D01*
X143995672Y-125735846D01*
X144238615Y-125901843D01*
X144527000Y-125960242D01*
X146557000Y-125960242D01*
X146826410Y-125909549D01*
X147073846Y-125750328D01*
X147239843Y-125507385D01*
X147298242Y-125219000D01*
X147298242Y-122569000D01*
X147247549Y-122299590D01*
X147088328Y-122052154D01*
X146845385Y-121886157D01*
X146769000Y-121870689D01*
X146769000Y-121756000D01*
X150269090Y-121756000D01*
X150273545Y-121760455D01*
X150549954Y-121945145D01*
X150876000Y-122010000D01*
X152053384Y-122010000D01*
X152071492Y-122028140D01*
X152448821Y-122184821D01*
X152857387Y-122185178D01*
X153219484Y-122035562D01*
X153306844Y-122246989D01*
X153595492Y-122536140D01*
X153972821Y-122692821D01*
X154381387Y-122693178D01*
X154758989Y-122537156D01*
X155048140Y-122248508D01*
X155074462Y-122185118D01*
X155143387Y-122185178D01*
X155520989Y-122029156D01*
X155810140Y-121740508D01*
X155966821Y-121363179D01*
X155967178Y-120954613D01*
X155811156Y-120577011D01*
X155522508Y-120287860D01*
X155145179Y-120131179D01*
X155118065Y-120131155D01*
X155034455Y-120047545D01*
X154758046Y-119862855D01*
X154432000Y-119798000D01*
X154276910Y-119798000D01*
X153760000Y-119281090D01*
X153760000Y-118364000D01*
X153695145Y-118037954D01*
X153510455Y-117761545D01*
X152494455Y-116745545D01*
X152218046Y-116560855D01*
X151892000Y-116496000D01*
X149606000Y-116496000D01*
X149279954Y-116560855D01*
X149003545Y-116745545D01*
X148571096Y-117177994D01*
X146394000Y-117177994D01*
X146394000Y-107228912D01*
X149138912Y-104484000D01*
X150876000Y-104484000D01*
X151202046Y-104419145D01*
X151478455Y-104234455D01*
X153419285Y-102293625D01*
X153595492Y-102470140D01*
X153972821Y-102626821D01*
X154381387Y-102627178D01*
X154758989Y-102471156D01*
X155048140Y-102182508D01*
X155099327Y-102059237D01*
X155242821Y-102118821D01*
X155651387Y-102119178D01*
X155706879Y-102096249D01*
X155846844Y-102434989D01*
X156135492Y-102724140D01*
X156512821Y-102880821D01*
X156921387Y-102881178D01*
X157298989Y-102725156D01*
X157588140Y-102436508D01*
X157729286Y-102096591D01*
X157782821Y-102118821D01*
X158191387Y-102119178D01*
X158568989Y-101963156D01*
X158858140Y-101674508D01*
X158909327Y-101551237D01*
X159052821Y-101610821D01*
X159461387Y-101611178D01*
X159838989Y-101455156D01*
X160128140Y-101166508D01*
X160284821Y-100789179D01*
X160285178Y-100380613D01*
X160129156Y-100003011D01*
X160110000Y-99983822D01*
X160110000Y-98366114D01*
X160382724Y-98183886D01*
X160528000Y-97966465D01*
X160673276Y-98183886D01*
X160946000Y-98366114D01*
X160946000Y-99475384D01*
X160927860Y-99493492D01*
X160771179Y-99870821D01*
X160770822Y-100279387D01*
X160926844Y-100656989D01*
X161215492Y-100946140D01*
X161592821Y-101102821D01*
X162001387Y-101103178D01*
X162378989Y-100947156D01*
X162668140Y-100658508D01*
X162824821Y-100281179D01*
X162825178Y-99872613D01*
X162669156Y-99495011D01*
X162650000Y-99475822D01*
X162650000Y-98366114D01*
X162922724Y-98183886D01*
X163068000Y-97966465D01*
X163213276Y-98183886D01*
X163729304Y-98528685D01*
X164338000Y-98649762D01*
X164946696Y-98528685D01*
X165462724Y-98183886D01*
X165608000Y-97966465D01*
X165753276Y-98183886D01*
X166269304Y-98528685D01*
X166419276Y-98558516D01*
X166921000Y-99060240D01*
X166921000Y-121867649D01*
X166863590Y-121878451D01*
X166616154Y-122037672D01*
X166450157Y-122280615D01*
X166391758Y-122569000D01*
X166391758Y-125219000D01*
X166442451Y-125488410D01*
X166601672Y-125735846D01*
X166844615Y-125901843D01*
X167133000Y-125960242D01*
X169163000Y-125960242D01*
X169432410Y-125909549D01*
X169679846Y-125750328D01*
X169845843Y-125507385D01*
X169904242Y-125219000D01*
X169904242Y-122569000D01*
X169853549Y-122299590D01*
X169694328Y-122052154D01*
X169451385Y-121886157D01*
X169375000Y-121870689D01*
X169375000Y-98806240D01*
X169559655Y-98621585D01*
X170026696Y-98528685D01*
X170436294Y-98255000D01*
X170939706Y-98255000D01*
X171349304Y-98528685D01*
X171958000Y-98649762D01*
X172566696Y-98528685D01*
X173082724Y-98183886D01*
X173427523Y-97667858D01*
X173548600Y-97059162D01*
X173548600Y-96996838D01*
X173427523Y-96388142D01*
X173082724Y-95872114D01*
X172816624Y-95694311D01*
X173164821Y-95376490D01*
X173412968Y-94847027D01*
X173292469Y-94615000D01*
X172085000Y-94615000D01*
X172085000Y-94635000D01*
X171831000Y-94635000D01*
X171831000Y-94615000D01*
X169545000Y-94615000D01*
X169545000Y-94635000D01*
X169291000Y-94635000D01*
X169291000Y-94615000D01*
X167005000Y-94615000D01*
X167005000Y-94635000D01*
X166751000Y-94635000D01*
X166751000Y-94615000D01*
X166731000Y-94615000D01*
X166731000Y-94361000D01*
X166751000Y-94361000D01*
X166751000Y-93154183D01*
X167005000Y-93154183D01*
X167005000Y-94361000D01*
X169291000Y-94361000D01*
X169291000Y-93154183D01*
X169545000Y-93154183D01*
X169545000Y-94361000D01*
X171831000Y-94361000D01*
X171831000Y-93154183D01*
X172085000Y-93154183D01*
X172085000Y-94361000D01*
X173292469Y-94361000D01*
X173412968Y-94128973D01*
X173164821Y-93599510D01*
X172732947Y-93205312D01*
X172317026Y-93033042D01*
X172085000Y-93154183D01*
X171831000Y-93154183D01*
X171598974Y-93033042D01*
X171183053Y-93205312D01*
X170751179Y-93599510D01*
X170688000Y-93734313D01*
X170624821Y-93599510D01*
X170192947Y-93205312D01*
X169777026Y-93033042D01*
X169545000Y-93154183D01*
X169291000Y-93154183D01*
X169058974Y-93033042D01*
X168643053Y-93205312D01*
X168211179Y-93599510D01*
X168148000Y-93734313D01*
X168084821Y-93599510D01*
X167652947Y-93205312D01*
X167237026Y-93033042D01*
X167005000Y-93154183D01*
X166751000Y-93154183D01*
X166518974Y-93033042D01*
X166103053Y-93205312D01*
X165671179Y-93599510D01*
X165658899Y-93625711D01*
X165462724Y-93332114D01*
X164946696Y-92987315D01*
X164338000Y-92866238D01*
X163729304Y-92987315D01*
X163213276Y-93332114D01*
X163068000Y-93549535D01*
X162922724Y-93332114D01*
X162406696Y-92987315D01*
X161798000Y-92866238D01*
X161189304Y-92987315D01*
X160673276Y-93332114D01*
X160528000Y-93549535D01*
X160382724Y-93332114D01*
X159866696Y-92987315D01*
X159258000Y-92866238D01*
X158649304Y-92987315D01*
X158133276Y-93332114D01*
X157988000Y-93549535D01*
X157842724Y-93332114D01*
X157326696Y-92987315D01*
X156718000Y-92866238D01*
X156109304Y-92987315D01*
X155593276Y-93332114D01*
X155448000Y-93549535D01*
X155302724Y-93332114D01*
X154786696Y-92987315D01*
X154178000Y-92866238D01*
X153569304Y-92987315D01*
X153053276Y-93332114D01*
X152908000Y-93549535D01*
X152762724Y-93332114D01*
X152246696Y-92987315D01*
X151638000Y-92866238D01*
X151029304Y-92987315D01*
X150513276Y-93332114D01*
X150368000Y-93549535D01*
X150222724Y-93332114D01*
X149706696Y-92987315D01*
X149098000Y-92866238D01*
X148489304Y-92987315D01*
X147973276Y-93332114D01*
X147828000Y-93549535D01*
X147682724Y-93332114D01*
X147166696Y-92987315D01*
X146558000Y-92866238D01*
X145949304Y-92987315D01*
X145433276Y-93332114D01*
X145288000Y-93549535D01*
X145142724Y-93332114D01*
X144626696Y-92987315D01*
X144018000Y-92866238D01*
X143409304Y-92987315D01*
X142893276Y-93332114D01*
X142697101Y-93625711D01*
X142684821Y-93599510D01*
X142252947Y-93205312D01*
X141837026Y-93033042D01*
X141605000Y-93154183D01*
X141605000Y-94361000D01*
X141625000Y-94361000D01*
X141625000Y-94615000D01*
X141605000Y-94615000D01*
X141605000Y-96901000D01*
X141625000Y-96901000D01*
X141625000Y-97155000D01*
X141605000Y-97155000D01*
X141605000Y-98361817D01*
X141837026Y-98482958D01*
X141896000Y-98458532D01*
X141896000Y-99797090D01*
X141060000Y-98961090D01*
X141060000Y-98458532D01*
X141118974Y-98482958D01*
X141351000Y-98361817D01*
X141351000Y-97155000D01*
X141331000Y-97155000D01*
X141331000Y-96901000D01*
X141351000Y-96901000D01*
X141351000Y-94615000D01*
X141331000Y-94615000D01*
X141331000Y-94361000D01*
X141351000Y-94361000D01*
X141351000Y-93154183D01*
X141118974Y-93033042D01*
X140703053Y-93205312D01*
X140271179Y-93599510D01*
X140258899Y-93625711D01*
X140062724Y-93332114D01*
X139546696Y-92987315D01*
X138938000Y-92866238D01*
X138329304Y-92987315D01*
X137813276Y-93332114D01*
X137668000Y-93549535D01*
X137522724Y-93332114D01*
X137006696Y-92987315D01*
X136398000Y-92866238D01*
X135789304Y-92987315D01*
X135273276Y-93332114D01*
X135128000Y-93549535D01*
X134982724Y-93332114D01*
X134466696Y-92987315D01*
X133858000Y-92866238D01*
X133249304Y-92987315D01*
X132733276Y-93332114D01*
X132588000Y-93549535D01*
X132442724Y-93332114D01*
X131926696Y-92987315D01*
X131318000Y-92866238D01*
X130709304Y-92987315D01*
X130193276Y-93332114D01*
X130048000Y-93549535D01*
X129902724Y-93332114D01*
X129386696Y-92987315D01*
X128778000Y-92866238D01*
X128169304Y-92987315D01*
X127653276Y-93332114D01*
X127508000Y-93549535D01*
X127362724Y-93332114D01*
X126846696Y-92987315D01*
X126238000Y-92866238D01*
X125629304Y-92987315D01*
X125113276Y-93332114D01*
X124968000Y-93549535D01*
X124822724Y-93332114D01*
X124306696Y-92987315D01*
X123698000Y-92866238D01*
X123089304Y-92987315D01*
X122573276Y-93332114D01*
X122377101Y-93625711D01*
X122364821Y-93599510D01*
X121932947Y-93205312D01*
X121517026Y-93033042D01*
X121285000Y-93154183D01*
X121285000Y-94361000D01*
X121305000Y-94361000D01*
X121305000Y-94615000D01*
X121285000Y-94615000D01*
X121285000Y-96901000D01*
X121305000Y-96901000D01*
X121305000Y-97155000D01*
X121285000Y-97155000D01*
X121285000Y-97175000D01*
X121031000Y-97175000D01*
X121031000Y-97155000D01*
X121011000Y-97155000D01*
X121011000Y-96901000D01*
X121031000Y-96901000D01*
X121031000Y-94615000D01*
X121011000Y-94615000D01*
X121011000Y-94361000D01*
X121031000Y-94361000D01*
X121031000Y-93154183D01*
X120798974Y-93033042D01*
X120383053Y-93205312D01*
X119951179Y-93599510D01*
X119938899Y-93625711D01*
X119742724Y-93332114D01*
X119226696Y-92987315D01*
X118618000Y-92866238D01*
X118009304Y-92987315D01*
X117493276Y-93332114D01*
X117348000Y-93549535D01*
X117202724Y-93332114D01*
X116686696Y-92987315D01*
X116078000Y-92866238D01*
X115469304Y-92987315D01*
X114953276Y-93332114D01*
X114808000Y-93549535D01*
X114662724Y-93332114D01*
X114146696Y-92987315D01*
X113538000Y-92866238D01*
X112929304Y-92987315D01*
X112413276Y-93332114D01*
X112268000Y-93549535D01*
X112122724Y-93332114D01*
X111606696Y-92987315D01*
X110998000Y-92866238D01*
X110389304Y-92987315D01*
X109873276Y-93332114D01*
X109528477Y-93848142D01*
X109407400Y-94456838D01*
X109407400Y-94519162D01*
X109528477Y-95127858D01*
X109791332Y-95521249D01*
X109617554Y-95633072D01*
X109451557Y-95876015D01*
X109393158Y-96164400D01*
X109393158Y-97891600D01*
X109443851Y-98161010D01*
X109603072Y-98408446D01*
X109846015Y-98574443D01*
X110134400Y-98632842D01*
X111416000Y-98632842D01*
X111416000Y-99060000D01*
X111480855Y-99386046D01*
X111665545Y-99662455D01*
X112681545Y-100678455D01*
X112957954Y-100863145D01*
X113284000Y-100928000D01*
X115529088Y-100928000D01*
X116041543Y-101440455D01*
X116317952Y-101625145D01*
X116643998Y-101690000D01*
X117249090Y-101690000D01*
X124370000Y-108810910D01*
X124370000Y-133309088D01*
X123911088Y-133768000D01*
X118618000Y-133768000D01*
X118291954Y-133832855D01*
X118015545Y-134017545D01*
X116745545Y-135287545D01*
X116560855Y-135563954D01*
X116510919Y-135814996D01*
X116331154Y-135930672D01*
X116272168Y-136017000D01*
X115761026Y-136017000D01*
X115667698Y-135923673D01*
X115434309Y-135827000D01*
X115093750Y-135827000D01*
X114935000Y-135985750D01*
X114935000Y-136017000D01*
X114681000Y-136017000D01*
X114681000Y-135985750D01*
X114522250Y-135827000D01*
X114340000Y-135827000D01*
X114340000Y-133604000D01*
X114278951Y-133297088D01*
X114105100Y-133036900D01*
X113844912Y-132863049D01*
X113538000Y-132802000D01*
X106212000Y-132802000D01*
X106212000Y-91734000D01*
X176998000Y-91734000D01*
X176998000Y-132802000D01*
G36*
X133249304Y-98528685D02*
X133858000Y-98649762D01*
X134276000Y-98566617D01*
X134276000Y-101755090D01*
X134235826Y-101795264D01*
X134186508Y-101745860D01*
X133809179Y-101589179D01*
X133400613Y-101588822D01*
X133023011Y-101744844D01*
X132733860Y-102033492D01*
X132594529Y-102369037D01*
X132261011Y-102506844D01*
X131971860Y-102795492D01*
X131832529Y-103131037D01*
X131499011Y-103268844D01*
X131209860Y-103557492D01*
X131154000Y-103692018D01*
X131154000Y-99412910D01*
X131416910Y-99150000D01*
X132080000Y-99150000D01*
X132406046Y-99085145D01*
X132682455Y-98900455D01*
X133132363Y-98450547D01*
X133249304Y-98528685D01*
X133249304Y-98528685D01*
G37*
X133249304Y-98528685D02*
X133858000Y-98649762D01*
X134276000Y-98566617D01*
X134276000Y-101755090D01*
X134235826Y-101795264D01*
X134186508Y-101745860D01*
X133809179Y-101589179D01*
X133400613Y-101588822D01*
X133023011Y-101744844D01*
X132733860Y-102033492D01*
X132594529Y-102369037D01*
X132261011Y-102506844D01*
X131971860Y-102795492D01*
X131832529Y-103131037D01*
X131499011Y-103268844D01*
X131209860Y-103557492D01*
X131154000Y-103692018D01*
X131154000Y-99412910D01*
X131416910Y-99150000D01*
X132080000Y-99150000D01*
X132406046Y-99085145D01*
X132682455Y-98900455D01*
X133132363Y-98450547D01*
X133249304Y-98528685D01*
G36*
X122573276Y-98183886D02*
X123089304Y-98528685D01*
X123698000Y-98649762D01*
X123833833Y-98622743D01*
X124619545Y-99408455D01*
X124895953Y-99593145D01*
X125222000Y-99658000D01*
X125894000Y-99658000D01*
X125894000Y-101677550D01*
X125681179Y-101589179D01*
X125272613Y-101588822D01*
X125003095Y-101700185D01*
X121707129Y-98404219D01*
X121932947Y-98310688D01*
X122364821Y-97916490D01*
X122377101Y-97890289D01*
X122573276Y-98183886D01*
X122573276Y-98183886D01*
G37*
X122573276Y-98183886D02*
X123089304Y-98528685D01*
X123698000Y-98649762D01*
X123833833Y-98622743D01*
X124619545Y-99408455D01*
X124895953Y-99593145D01*
X125222000Y-99658000D01*
X125894000Y-99658000D01*
X125894000Y-101677550D01*
X125681179Y-101589179D01*
X125272613Y-101588822D01*
X125003095Y-101700185D01*
X121707129Y-98404219D01*
X121932947Y-98310688D01*
X122364821Y-97916490D01*
X122377101Y-97890289D01*
X122573276Y-98183886D01*
M02*
