M48
;DRILL file {KiCad 4.0.7} date 05/21/18 15:56:54
;FORMAT={-:-/ absolute / inch / decimal}
FMAT,2
INCH,TZ
T1C0.016
T2C0.024
T3C0.040
%
G90
G05
M72
T1
X4.51Y-3.89
X4.87Y-3.93
X4.89Y-4.9
X4.94Y-4.04
X4.94Y-4.1
X4.94Y-4.16
X4.96Y-4.07
X4.96Y-4.13
X5.16Y-4.13
X5.17Y-3.94
X5.2Y-4.1
X5.23Y-4.07
X5.26Y-4.04
X5.28Y-3.99
X5.28Y-4.21
X5.33Y-4.9
X5.37Y-3.91
X5.39Y-3.94
X5.45Y-4.02
X5.62Y-3.97
X5.65Y-5.35
X5.72Y-4.12
X5.82Y-4.
X5.87Y-4.
X5.9Y-5.15
X5.92Y-4.03
X5.92Y-4.69
X5.95Y-4.67
X5.95Y-4.74
X5.97Y-4.71
X6.01Y-4.77
X6.07Y-4.
X6.07Y-4.79
X6.1Y-4.77
X6.11Y-5.15
X6.12Y-3.98
X6.17Y-4.01
X6.22Y-3.98
X6.27Y-3.96
X6.37Y-3.94
T2
X4.49Y-5.2
X5.73Y-4.7925
X5.73Y-5.13
X6.62Y-5.2
T3
X4.37Y-3.72
X4.37Y-3.82
X4.47Y-3.72
X4.47Y-3.82
X4.57Y-3.72
X4.57Y-3.82
X4.67Y-3.72
X4.67Y-3.82
X4.77Y-3.72
X4.77Y-3.82
X4.87Y-3.72
X4.87Y-3.82
X4.97Y-3.72
X4.97Y-3.82
X5.07Y-3.72
X5.07Y-3.82
X5.17Y-3.72
X5.17Y-3.82
X5.27Y-3.72
X5.27Y-3.82
X5.37Y-3.72
X5.37Y-3.82
X5.47Y-3.72
X5.47Y-3.82
X5.57Y-3.72
X5.57Y-3.82
X5.67Y-3.72
X5.67Y-3.82
X5.77Y-3.72
X5.77Y-3.82
X5.87Y-3.72
X5.87Y-3.82
X5.97Y-3.72
X5.97Y-3.82
X6.07Y-3.72
X6.07Y-3.82
X6.17Y-3.72
X6.17Y-3.82
X6.27Y-3.72
X6.27Y-3.82
X6.37Y-3.72
X6.37Y-3.82
X6.47Y-3.72
X6.47Y-3.82
X6.57Y-3.72
X6.57Y-3.82
X6.67Y-3.72
X6.67Y-3.82
X6.77Y-3.72
X6.77Y-3.82
T0
M30
